<svg width="100%" height="100%" viewBox="0 0 156 181" fill="none" xmlns="http://www.w3.org/2000/svg">
<path d="M72.9587 80.4401C80.8373 78.6374 84.5147 73.2735 83.7053 65.1321C78.6427 69.3268 74.1893 73.3934 72.9587 80.4401ZM27.9107 59.7254C37.0867 58.4894 42.8587 52.6134 43.196 44.3481C37.0227 48.4414 31.1333 52.0815 27.9107 59.7254ZM98.8333 167.317C99.8867 167.225 100.353 167.321 100.655 167.14C125.111 152.445 141.525 131.689 147.891 103.613C149.507 96.4814 149.229 89.1494 147.415 81.9614C143.503 66.4601 130.637 55.7841 114.704 54.8561C106.456 54.3761 98.488 55.2148 91.232 59.7654C90.6614 63.6188 90.3427 67.4521 89.4893 71.1628C88.1427 77.0161 85.0547 81.8028 79.664 84.8108C75.608 87.0748 71.716 87.1428 69.5053 84.8814C66.716 82.0281 66.7627 78.3708 68.4333 75.3281C70.7693 71.0734 73.7574 67.1214 76.8454 63.3521C78.8494 60.9054 81.5307 59.0161 83.8574 56.9228C81.6013 41.9014 67.3733 35.4415 50.2467 41.7348C49.684 43.8388 49.22 46.1281 48.4614 48.3148C45.732 56.1868 40.892 62.2401 32.8214 65.0335C29.788 66.0828 26.4333 66.4641 23.8053 63.7414C21.776 61.6401 21.7867 57.8468 23.9534 54.1441C27.3947 48.2628 32.568 44.1281 38.2333 40.5588C40.2067 39.3148 42.264 38.2054 44.1934 37.0868C41.5734 13.7481 20.6187 -2.75455 0 6.56412C0.197333 4.86279 -0.0479948 3.39081 0.572005 2.58281C1.26001 1.68814 2.68535 1.11742 3.88135 0.893417C15.1533 -1.21591 25.684 0.0841217 34.4013 8.32545C40.8973 14.4681 45.38 21.9508 48.2574 30.4041C48.6667 31.6094 49.104 32.8055 49.5587 33.9948C49.624 34.1694 49.8493 34.2815 50.3107 34.7135C51.4653 34.6015 52.936 34.5334 54.38 34.3068C72.2187 31.5028 81.5693 36.3175 89.8867 52.9695C91.5533 52.4308 93.3054 51.8868 95.0427 51.3001C105.305 47.8374 115.612 47.6081 125.928 50.9908C142.895 56.5521 153.835 71.1548 154.94 89.5214C155.543 99.5188 153.927 109.165 150.295 118.448C141.48 140.973 127.039 158.684 105.532 170.271C104.403 170.88 103.281 171.507 102.173 172.152C102.021 172.24 101.963 172.489 101.44 173.383C105.944 174.444 110.247 174.024 114.504 173.845C118.692 173.671 122.873 173.324 127.408 173.029C127.023 176.515 125.191 177.887 122.899 178.629C120.264 179.483 117.552 180.531 114.841 180.631C107.58 180.896 100.281 181.039 93.0374 180.583C87.272 180.219 85.688 177.112 88.28 172.441C93.78 162.528 99.3547 152.656 104.971 142.809C105.849 141.267 107.104 139.937 108.525 138.063C111.064 140.973 109.939 143.107 109.015 145.145C105.747 152.349 102.419 159.525 98.8333 167.317Z" fill="#25E85F"/>
</svg>
