<svg width="150" height="150" viewBox="0 0 150 150" fill="none" xmlns="http://www.w3.org/2000/svg">
<g filter="url(#filter0_d_1689_4386)">
<path fill-rule="evenodd" clip-rule="evenodd" d="M8 12.3C8 9.92518 9.92518 8 12.3 8H132.7C135.075 8 137 9.92518 137 12.3V132.7C137 135.075 135.075 137 132.7 137H12.3C9.92518 137 8 135.075 8 132.7V12.3ZM66.6834 49.8535C59.4755 50.06 52.6432 53.1146 47.683 58.3484C42.7228 63.5822 40.039 70.5684 40.2195 77.777V81.266C40.2189 84.0099 41.0321 86.6923 42.5562 88.9739C44.0802 91.2556 46.2467 93.034 48.7816 94.0843C51.3164 95.1346 54.1058 95.4095 56.797 94.8744C59.4881 94.3392 61.9601 93.018 63.9003 91.0778C65.8405 89.1376 67.1618 86.6656 67.6969 83.9744C68.2321 81.2833 67.9571 78.4939 66.9068 75.959C65.8566 73.4241 64.0781 71.2576 61.7965 69.7336C59.5148 68.2095 56.8324 67.3964 54.0886 67.3969C53.0332 67.3998 51.9822 67.5317 50.9589 67.7899C50.825 67.8234 50.6843 67.8168 50.5542 67.7708C50.4242 67.7248 50.3105 67.6415 50.2276 67.5312C50.1446 67.421 50.096 67.2888 50.0877 67.1511C50.0795 67.0133 50.1121 66.8763 50.1813 66.7569C51.8176 63.8017 54.2053 61.3311 57.1031 59.5951C60.0009 57.8591 63.3057 56.9193 66.6834 56.8709C67.6139 56.8709 68.5064 56.5012 69.1644 55.8432C69.8224 55.1852 70.192 54.2928 70.192 53.3622C70.192 52.4316 69.8224 51.5392 69.1644 50.8812C68.5064 50.2232 67.6139 49.8535 66.6834 49.8535ZM103.752 55.8432C103.094 56.5012 102.202 56.8709 101.271 56.8709C97.8935 56.9194 94.5886 57.8591 91.6909 59.5951C88.7931 61.3311 86.4053 63.8017 84.7691 66.757C84.7007 66.8767 84.6687 67.0138 84.6772 67.1514C84.6857 67.2891 84.7342 67.4212 84.8168 67.5317C84.8995 67.6418 85.0129 67.7251 85.1427 67.7711C85.2726 67.817 85.4131 67.8236 85.5466 67.7899C86.5709 67.5316 87.6229 67.3996 88.6792 67.3969C91.4229 67.3969 94.105 68.2106 96.3863 69.735C98.6676 71.2594 100.446 73.426 101.495 75.9609C102.545 78.4959 102.82 81.2852 102.284 83.9762C101.749 86.6671 100.427 89.1389 98.4871 91.0788C96.5468 93.0187 94.0748 94.3396 91.3837 94.8746C88.6927 95.4095 85.9034 95.1344 83.3687 94.084C80.834 93.0337 78.6677 91.2552 77.1437 88.9736C75.6198 86.692 74.8067 84.0098 74.8073 81.266V77.777C74.6275 70.5686 77.3116 63.5828 82.2716 58.3492C87.2317 53.1156 94.0635 50.0607 101.271 49.8535C102.202 49.8535 103.094 50.2232 103.752 50.8812C104.41 51.5392 104.78 52.4316 104.78 53.3622C104.78 54.2928 104.41 55.1852 103.752 55.8432Z" fill="#25E85F"/>
</g>
<defs>
<filter id="filter0_d_1689_4386" x="0.833334" y="0.833334" width="149.067" height="149.067" filterUnits="userSpaceOnUse" color-interpolation-filters="sRGB">
<feFlood flood-opacity="0" result="BackgroundImageFix"/>
<feColorMatrix in="SourceAlpha" type="matrix" values="0 0 0 0 0 0 0 0 0 0 0 0 0 0 0 0 0 0 127 0" result="hardAlpha"/>
<feOffset dx="2.86667" dy="2.86667"/>
<feGaussianBlur stdDeviation="5.01667"/>
<feComposite in2="hardAlpha" operator="out"/>
<feColorMatrix type="matrix" values="0 0 0 0 0 0 0 0 0 0 0 0 0 0 0.0352941 0 0 0 0.1 0"/>
<feBlend mode="normal" in2="BackgroundImageFix" result="effect1_dropShadow_1689_4386"/>
<feBlend mode="normal" in="SourceGraphic" in2="effect1_dropShadow_1689_4386" result="shape"/>
</filter>
</defs>
</svg>
