<svg width="147" height="456" viewBox="0 0 147 456" fill="none" xmlns="http://www.w3.org/2000/svg">
<rect x="48" y="0.5" width="51" height="51" rx="5.5" fill="#03CEA4" stroke="#03CEA4"/>
<g clip-path="url(#clip0_1715_11248)">
<path d="M82.9784 16.239C82.709 16.0458 82.3739 15.9676 82.0468 16.0215C81.7197 16.0754 81.4274 16.2571 81.2343 16.5265L69.5384 32.8332L65.6343 28.9257C65.5182 28.8095 65.3804 28.7174 65.2288 28.6546C65.0771 28.5917 64.9146 28.5593 64.7504 28.5593C64.5862 28.5593 64.4237 28.5916 64.272 28.6543C64.1203 28.7171 63.9825 28.8092 63.8664 28.9252C63.7502 29.0413 63.6581 29.1791 63.5953 29.3307C63.5324 29.4824 63.5 29.6449 63.5 29.8091C63.5 29.9733 63.5323 30.1358 63.595 30.2875C63.6578 30.4392 63.7499 30.577 63.8659 30.6932L68.8118 35.6382C68.9416 35.7631 69.0966 35.859 69.2663 35.9195C69.436 35.98 69.6167 36.0037 69.7963 35.9891C69.9759 35.9744 70.1504 35.9217 70.308 35.8345C70.4657 35.7473 70.6031 35.6275 70.7109 35.4832L83.2659 17.9832C83.4591 17.7137 83.5373 17.3786 83.4834 17.0515C83.4295 16.7244 83.2478 16.4322 82.9784 16.239Z" fill="white"/>
</g>
<path d="M23.4481 73.28V84H25.6241V80.496H28.4401C30.9041 80.496 32.4081 79.056 32.4081 76.88C32.4081 74.736 30.9041 73.28 28.4401 73.28H23.4481ZM25.6241 78.528V75.248H28.4401C29.6081 75.248 30.2481 75.92 30.2481 76.88C30.2481 77.872 29.6081 78.528 28.4401 78.528H25.6241ZM39.0648 75.904C37.7688 75.904 36.8408 76.544 36.2008 77.472V76.016H34.0888V84H36.2008V81.424C36.2008 79.2 37.0968 78 39.0488 78H39.5128L39.6248 75.968C39.4328 75.904 39.2728 75.904 39.0648 75.904ZM48.406 79.856C48.326 77.424 46.486 75.776 44.358 75.776C42.07 75.776 40.23 77.504 40.23 80.016C40.23 82.528 42.07 84.24 44.326 84.24C46.07 84.24 47.494 83.44 48.198 81.776L46.31 81.376C45.734 82.352 44.95 82.432 44.326 82.432C43.35 82.432 42.534 81.728 42.326 80.576H48.406V79.856ZM44.358 77.616C45.206 77.616 45.974 78.064 46.246 79.088H42.39C42.646 78.096 43.558 77.616 44.358 77.616ZM54.7626 75.776C53.6746 75.776 52.7946 76.096 52.1226 76.656V76.016H50.0106V86.72H52.1226V83.376C52.7946 83.92 53.6746 84.24 54.7626 84.24C56.7946 84.24 58.6826 82.528 58.6826 80.016C58.6826 77.504 56.7946 75.776 54.7626 75.776ZM54.3946 82.4C53.2586 82.4 52.1226 81.488 52.1226 80.016C52.1226 78.544 53.2586 77.616 54.3946 77.616C55.6746 77.616 56.6346 78.544 56.6346 80.016C56.6346 81.488 55.6746 82.4 54.3946 82.4ZM68.3083 76.016H66.1963V76.656C65.5243 76.096 64.6443 75.776 63.5563 75.776C61.5243 75.776 59.6363 77.504 59.6363 80.016C59.6363 82.528 61.5243 84.24 63.5563 84.24C64.6443 84.24 65.5243 83.92 66.1963 83.376V84H68.3083V76.016ZM63.9243 82.4C62.6443 82.4 61.6843 81.488 61.6843 80.016C61.6843 78.544 62.6443 77.616 63.9243 77.616C65.0603 77.616 66.1963 78.544 66.1963 80.016C66.1963 81.488 65.0603 82.4 63.9243 82.4ZM75.5179 75.904C74.2219 75.904 73.2939 76.544 72.6539 77.472V76.016H70.5419V84H72.6539V81.424C72.6539 79.2 73.5499 78 75.5019 78H75.9659L76.0779 75.968C75.8859 75.904 75.7259 75.904 75.5179 75.904ZM84.8591 79.856C84.7791 77.424 82.9391 75.776 80.8111 75.776C78.5231 75.776 76.6831 77.504 76.6831 80.016C76.6831 82.528 78.5231 84.24 80.7791 84.24C82.5231 84.24 83.9471 83.44 84.6511 81.776L82.7631 81.376C82.1871 82.352 81.4031 82.432 80.7791 82.432C79.8031 82.432 78.9871 81.728 78.7791 80.576H84.8591V79.856ZM80.8111 77.616C81.6591 77.616 82.4271 78.064 82.6991 79.088H78.8431C79.0991 78.096 80.0111 77.616 80.8111 77.616ZM98.4184 76H96.0664L93.8584 81.104L91.7464 76H89.3944L92.7064 83.744L91.4264 86.72H93.7784L98.4184 76ZM103.176 75.824C100.792 75.824 98.8238 77.504 98.8238 80.016C98.8238 82.528 100.792 84.208 103.176 84.208C105.512 84.208 107.48 82.528 107.48 80.016C107.48 77.504 105.512 75.824 103.176 75.824ZM103.176 82.4C102.024 82.4 100.872 81.504 100.872 80.016C100.872 78.528 102.024 77.632 103.176 77.632C104.28 77.632 105.432 78.528 105.432 80.016C105.432 81.504 104.28 82.4 103.176 82.4ZM116.689 76.016H114.577V79.552C114.577 81.504 113.793 82.304 112.593 82.304C111.617 82.304 110.977 81.552 110.977 80.432V76.016H108.865V80.88C108.865 82.864 110.145 84.24 112.065 84.24C113.121 84.24 113.953 83.904 114.577 83.28V84H116.689V76.016ZM123.909 75.904C122.613 75.904 121.685 76.544 121.045 77.472V76.016H118.933V84H121.045V81.424C121.045 79.2 121.941 78 123.893 78H124.357L124.469 75.968C124.277 75.904 124.117 75.904 123.909 75.904ZM22.0335 97.904C20.7375 97.904 19.8095 98.544 19.1695 99.472V98.016H17.0575V106H19.1695V103.424C19.1695 101.2 20.0655 100 22.0175 100H22.4815L22.5935 97.968C22.4015 97.904 22.2415 97.904 22.0335 97.904ZM31.3748 101.856C31.2948 99.424 29.4548 97.776 27.3268 97.776C25.0388 97.776 23.1988 99.504 23.1988 102.016C23.1988 104.528 25.0388 106.24 27.2948 106.24C29.0388 106.24 30.4628 105.44 31.1667 103.776L29.2788 103.376C28.7028 104.352 27.9188 104.432 27.2948 104.432C26.3188 104.432 25.5028 103.728 25.2948 102.576H31.3748V101.856ZM27.3268 99.616C28.1748 99.616 28.9428 100.064 29.2148 101.088H25.3588C25.6148 100.096 26.5268 99.616 27.3268 99.616ZM40.681 98H38.409L36.233 103.424L34.057 98H31.785L35.113 106H37.353L40.681 98ZM43.1318 94.368C42.3798 94.368 41.8518 94.96 41.8518 95.632C41.8518 96.336 42.3798 96.864 43.1318 96.864C43.8678 96.864 44.4118 96.336 44.4118 95.632C44.4118 94.96 43.8678 94.368 43.1318 94.368ZM44.1878 106V98.016H42.0758V106H44.1878ZM54.0779 101.856C53.9979 99.424 52.1579 97.776 50.0299 97.776C47.7419 97.776 45.9019 99.504 45.9019 102.016C45.9019 104.528 47.7419 106.24 49.9979 106.24C51.7419 106.24 53.1659 105.44 53.8699 103.776L51.9819 103.376C51.4059 104.352 50.6219 104.432 49.9979 104.432C49.0219 104.432 48.2059 103.728 47.9979 102.576H54.0779V101.856ZM50.0299 99.616C50.8779 99.616 51.6459 100.064 51.9179 101.088H48.0619C48.3179 100.096 49.2299 99.616 50.0299 99.616ZM66.9164 98.016H64.8204L63.2364 102.944L61.6044 98.016H59.9564L58.3244 102.928L56.7404 98.016H54.6444L57.3004 106.016H59.2044L60.7884 101.312L62.3564 106.016H64.2604L66.9164 98.016ZM77.0648 97.904C75.7688 97.904 74.8408 98.544 74.2008 99.472V98.016H72.0888V106H74.2008V103.424C74.2008 101.2 75.0968 100 77.0488 100H77.5128L77.6248 97.968C77.4328 97.904 77.2728 97.904 77.0648 97.904ZM86.406 101.856C86.326 99.424 84.486 97.776 82.358 97.776C80.07 97.776 78.23 99.504 78.23 102.016C78.23 104.528 80.07 106.24 82.326 106.24C84.07 106.24 85.494 105.44 86.198 103.776L84.31 103.376C83.734 104.352 82.95 104.432 82.326 104.432C81.35 104.432 80.534 103.728 80.326 102.576H86.406V101.856ZM82.358 99.616C83.206 99.616 83.974 100.064 84.246 101.088H80.39C80.646 100.096 81.558 99.616 82.358 99.616ZM96.0426 98.016H93.9306V98.656C93.2586 98.096 92.3786 97.776 91.2906 97.776C89.2586 97.776 87.3706 99.504 87.3706 102.016C87.3706 104.528 89.2586 106.24 91.2906 106.24C92.3786 106.24 93.2586 105.92 93.9306 105.376V108.72H96.0426V98.016ZM91.6586 104.4C90.3786 104.4 89.4186 103.488 89.4186 102.016C89.4186 100.544 90.3786 99.616 91.6586 99.616C92.7946 99.616 93.9306 100.544 93.9306 102.016C93.9306 103.488 92.7946 104.4 91.6586 104.4ZM105.814 98.016H103.702V101.552C103.702 103.504 102.918 104.304 101.718 104.304C100.742 104.304 100.102 103.552 100.102 102.432V98.016H97.9901V102.88C97.9901 104.864 99.2701 106.24 101.19 106.24C102.246 106.24 103.078 105.904 103.702 105.28V106H105.814V98.016ZM115.594 101.856C115.514 99.424 113.674 97.776 111.546 97.776C109.258 97.776 107.418 99.504 107.418 102.016C107.418 104.528 109.258 106.24 111.514 106.24C113.258 106.24 114.682 105.44 115.385 103.776L113.498 103.376C112.922 104.352 112.138 104.432 111.514 104.432C110.538 104.432 109.722 103.728 109.514 102.576H115.594V101.856ZM111.546 99.616C112.394 99.616 113.162 100.064 113.434 101.088H109.578C109.834 100.096 110.746 99.616 111.546 99.616ZM116.526 103.888C116.734 105.552 118.35 106.24 120.11 106.24C122.19 106.24 123.614 105.328 123.614 103.568C123.614 102.496 122.926 101.616 121.518 101.312L119.614 100.896C118.99 100.752 118.894 100.48 118.894 100.224C118.894 99.856 119.134 99.44 119.982 99.44C120.862 99.44 121.422 99.904 121.502 100.544L123.518 100.144C123.246 98.752 121.934 97.776 120.046 97.776C118.03 97.776 116.782 98.88 116.782 100.416C116.782 101.568 117.598 102.384 119.038 102.688L120.67 103.024C121.358 103.168 121.55 103.456 121.55 103.744C121.55 104.192 121.086 104.544 120.302 104.544C119.47 104.544 118.766 104.272 118.654 103.456L116.526 103.888ZM130.445 103.888C130.029 104.112 129.485 104.272 129.117 104.272C128.413 104.272 127.949 103.856 127.949 102.896V99.744H130.557V98.016H127.949V95.6H125.837V98.016H124.125V99.744H125.837V103.056C125.837 105.248 127.085 106.24 128.973 106.24C129.645 106.24 130.221 106.096 131.053 105.648L130.445 103.888ZM37.9294 125.888C37.5134 126.112 36.9694 126.272 36.6014 126.272C35.8974 126.272 35.4334 125.856 35.4334 124.896V121.744H38.0414V120.016H35.4334V117.6H33.3214V120.016H31.6094V121.744H33.3214V125.056C33.3214 127.248 34.5694 128.24 36.4574 128.24C37.1294 128.24 37.7054 128.096 38.5374 127.648L37.9294 125.888ZM47.0466 123.856C46.9666 121.424 45.1266 119.776 42.9986 119.776C40.7106 119.776 38.8706 121.504 38.8706 124.016C38.8706 126.528 40.7106 128.24 42.9666 128.24C44.7106 128.24 46.1346 127.44 46.8386 125.776L44.9506 125.376C44.3746 126.352 43.5906 126.432 42.9666 126.432C41.9906 126.432 41.1746 125.728 40.9666 124.576H47.0466V123.856ZM42.9986 121.616C43.8466 121.616 44.6146 122.064 44.8866 123.088H41.0306C41.2866 122.096 42.1986 121.616 42.9986 121.616ZM58.6833 119.776C57.4033 119.776 56.4273 120.272 55.7713 121.088C55.1953 120.24 54.2193 119.776 53.1473 119.776C52.1073 119.776 51.3233 120.112 50.7633 120.672V120.016H48.6513V128H50.7633V124.16C50.7633 122.48 51.4673 121.712 52.5873 121.712C53.4673 121.712 54.1553 122.368 54.1553 123.44V128H56.2673V124.16C56.2673 122.48 57.0033 121.712 58.1233 121.712C59.0033 121.712 59.6913 122.368 59.6913 123.44V128H61.7873V123.008C61.7873 121.056 60.3473 119.776 58.6833 119.776ZM68.5908 119.776C67.5028 119.776 66.6228 120.096 65.9508 120.656V120.016H63.8388V130.72H65.9508V127.376C66.6228 127.92 67.5028 128.24 68.5908 128.24C70.6228 128.24 72.5108 126.528 72.5108 124.016C72.5108 121.504 70.6228 119.776 68.5908 119.776ZM68.2228 126.4C67.0868 126.4 65.9508 125.488 65.9508 124.016C65.9508 122.544 67.0868 121.616 68.2228 121.616C69.5028 121.616 70.4628 122.544 70.4628 124.016C70.4628 125.488 69.5028 126.4 68.2228 126.4ZM76.2164 128V116.48H74.1044V128H76.2164ZM86.4958 120.016H84.3838V120.656C83.7118 120.096 82.8318 119.776 81.7438 119.776C79.7118 119.776 77.8238 121.504 77.8238 124.016C77.8238 126.528 79.7118 128.24 81.7438 128.24C82.8318 128.24 83.7118 127.92 84.3838 127.376V128H86.4958V120.016ZM82.1118 126.4C80.8318 126.4 79.8718 125.488 79.8718 124.016C79.8718 122.544 80.8318 121.616 82.1118 121.616C83.2478 121.616 84.3838 122.544 84.3838 124.016C84.3838 125.488 83.2478 126.4 82.1118 126.4ZM93.9294 125.888C93.5134 126.112 92.9694 126.272 92.6014 126.272C91.8974 126.272 91.4334 125.856 91.4334 124.896V121.744H94.0414V120.016H91.4334V117.6H89.3214V120.016H87.6094V121.744H89.3214V125.056C89.3214 127.248 90.5694 128.24 92.4574 128.24C93.1294 128.24 93.7054 128.096 94.5374 127.648L93.9294 125.888ZM103.047 123.856C102.967 121.424 101.127 119.776 98.9986 119.776C96.7106 119.776 94.8706 121.504 94.8706 124.016C94.8706 126.528 96.7106 128.24 98.9666 128.24C100.711 128.24 102.135 127.44 102.839 125.776L100.951 125.376C100.375 126.352 99.5906 126.432 98.9666 126.432C97.9906 126.432 97.1746 125.728 96.9666 124.576H103.047V123.856ZM98.9986 121.616C99.8466 121.616 100.615 122.064 100.887 123.088H97.0306C97.2866 122.096 98.1986 121.616 98.9986 121.616ZM103.979 125.888C104.187 127.552 105.803 128.24 107.563 128.24C109.643 128.24 111.067 127.328 111.067 125.568C111.067 124.496 110.379 123.616 108.971 123.312L107.067 122.896C106.443 122.752 106.347 122.48 106.347 122.224C106.347 121.856 106.587 121.44 107.435 121.44C108.315 121.44 108.875 121.904 108.955 122.544L110.971 122.144C110.699 120.752 109.387 119.776 107.499 119.776C105.483 119.776 104.235 120.88 104.235 122.416C104.235 123.568 105.051 124.384 106.491 124.688L108.123 125.024C108.811 125.168 109.003 125.456 109.003 125.744C109.003 126.192 108.539 126.544 107.755 126.544C106.923 126.544 106.219 126.272 106.107 125.456L103.979 125.888ZM113.482 125.616C112.746 125.616 112.218 126.192 112.218 126.848C112.218 127.536 112.746 128.064 113.482 128.064C114.218 128.064 114.746 127.536 114.746 126.848C114.746 126.192 114.218 125.616 113.482 125.616Z" fill="#000009"/>
<rect x="48" y="194.5" width="51" height="51" rx="5.5" fill="#03CEA4" stroke="#03CEA4"/>
<g clip-path="url(#clip1_1715_11248)">
<path d="M82.9784 210.239C82.709 210.046 82.3739 209.968 82.0468 210.022C81.7197 210.075 81.4274 210.257 81.2343 210.526L69.5384 226.833L65.6343 222.926C65.5182 222.81 65.3804 222.717 65.2288 222.655C65.0771 222.592 64.9146 222.559 64.7504 222.559C64.5862 222.559 64.4237 222.592 64.272 222.654C64.1203 222.717 63.9825 222.809 63.8664 222.925C63.7502 223.041 63.6581 223.179 63.5953 223.331C63.5324 223.482 63.5 223.645 63.5 223.809C63.5 223.973 63.5323 224.136 63.595 224.288C63.6578 224.439 63.7499 224.577 63.8659 224.693L68.8118 229.638C68.9416 229.763 69.0966 229.859 69.2663 229.92C69.436 229.98 69.6167 230.004 69.7963 229.989C69.9759 229.974 70.1504 229.922 70.308 229.834C70.4657 229.747 70.6031 229.628 70.7109 229.483L83.2659 211.983C83.4591 211.714 83.5373 211.379 83.4834 211.052C83.4295 210.724 83.2478 210.432 82.9784 210.239Z" fill="white"/>
</g>
<path d="M17.9466 267.04C15.4346 267.04 13.8666 268.384 13.8666 270.304C13.8666 272.4 15.4026 273.104 16.6826 273.376L18.9546 273.808C19.9146 274 20.2026 274.368 20.2026 274.976C20.2026 275.744 19.5466 276.336 18.2986 276.336C17.0826 276.336 16.1866 275.808 15.8986 274.592L13.6106 275.056C13.8826 277.2 15.8506 278.24 18.0906 278.24C20.6346 278.24 22.3466 276.944 22.3466 274.864C22.3466 273.2 21.2746 272.16 19.5306 271.792L17.2266 271.328C16.3946 271.168 16.1546 270.784 16.1546 270.24C16.1546 269.52 16.8106 268.912 17.8986 268.912C18.9706 268.912 19.8506 269.568 20.0106 270.576L22.1866 270.128C21.7706 268.224 20.1226 267.04 17.9466 267.04ZM31.7966 273.856C31.7166 271.424 29.8766 269.776 27.7486 269.776C25.4606 269.776 23.6206 271.504 23.6206 274.016C23.6206 276.528 25.4606 278.24 27.7166 278.24C29.4606 278.24 30.8846 277.44 31.5886 275.776L29.7006 275.376C29.1246 276.352 28.3406 276.432 27.7166 276.432C26.7406 276.432 25.9246 275.728 25.7166 274.576H31.7966V273.856ZM27.7486 271.616C28.5966 271.616 29.3646 272.064 29.6366 273.088H25.7806C26.0366 272.096 26.9486 271.616 27.7486 271.616ZM38.0253 269.776C36.9693 269.776 36.1373 270.112 35.5133 270.736V270.016H33.4013V278H35.5133V274.464C35.5133 272.512 36.2973 271.712 37.4973 271.712C38.4733 271.712 39.1133 272.464 39.1133 273.584V278H41.2253V273.136C41.2253 271.152 39.9453 269.776 38.0253 269.776ZM51.2926 266.48H49.1806V270.656C48.5086 270.096 47.6286 269.776 46.5406 269.776C44.5086 269.776 42.6206 271.504 42.6206 274.016C42.6206 276.528 44.5086 278.24 46.5406 278.24C47.6286 278.24 48.5086 277.92 49.1806 277.376V278H51.2926V266.48ZM46.9086 276.4C45.6286 276.4 44.6686 275.488 44.6686 274.016C44.6686 272.544 45.6286 271.616 46.9086 271.616C48.0446 271.616 49.1806 272.544 49.1806 274.016C49.1806 275.488 48.0446 276.4 46.9086 276.4ZM64.9529 273.856C64.8729 271.424 63.0329 269.776 60.9049 269.776C58.6169 269.776 56.7769 271.504 56.7769 274.016C56.7769 276.528 58.6169 278.24 60.8729 278.24C62.6169 278.24 64.0409 277.44 64.7449 275.776L62.8569 275.376C62.2809 276.352 61.4969 276.432 60.8729 276.432C59.8969 276.432 59.0809 275.728 58.8729 274.576H64.9529V273.856ZM60.9049 271.616C61.7529 271.616 62.5209 272.064 62.7929 273.088H58.9369C59.1929 272.096 60.1049 271.616 60.9049 271.616ZM76.5895 269.776C75.3095 269.776 74.3335 270.272 73.6775 271.088C73.1015 270.24 72.1255 269.776 71.0535 269.776C70.0135 269.776 69.2295 270.112 68.6695 270.672V270.016H66.5575V278H68.6695V274.16C68.6695 272.48 69.3735 271.712 70.4935 271.712C71.3735 271.712 72.0615 272.368 72.0615 273.44V278H74.1735V274.16C74.1735 272.48 74.9095 271.712 76.0295 271.712C76.9095 271.712 77.5975 272.368 77.5975 273.44V278H79.6935V273.008C79.6935 271.056 78.2535 269.776 76.5895 269.776ZM89.777 270.016H87.665V270.656C86.993 270.096 86.113 269.776 85.025 269.776C82.993 269.776 81.105 271.504 81.105 274.016C81.105 276.528 82.993 278.24 85.025 278.24C86.113 278.24 86.993 277.92 87.665 277.376V278H89.777V270.016ZM85.393 276.4C84.113 276.4 83.153 275.488 83.153 274.016C83.153 272.544 84.113 271.616 85.393 271.616C86.529 271.616 87.665 272.544 87.665 274.016C87.665 275.488 86.529 276.4 85.393 276.4ZM93.1786 266.368C92.4266 266.368 91.8986 266.96 91.8986 267.632C91.8986 268.336 92.4266 268.864 93.1786 268.864C93.9146 268.864 94.4586 268.336 94.4586 267.632C94.4586 266.96 93.9146 266.368 93.1786 266.368ZM94.2346 278V270.016H92.1226V278H94.2346ZM98.7008 278V266.48H96.5888V278H98.7008ZM112.871 270.016H110.759V270.656C110.087 270.096 109.207 269.776 108.119 269.776C106.087 269.776 104.199 271.504 104.199 274.016C104.199 276.528 106.087 278.24 108.119 278.24C109.207 278.24 110.087 277.92 110.759 277.376V278H112.871V270.016ZM108.487 276.4C107.207 276.4 106.247 275.488 106.247 274.016C106.247 272.544 107.207 271.616 108.487 271.616C109.623 271.616 110.759 272.544 110.759 274.016C110.759 275.488 109.623 276.4 108.487 276.4ZM119.728 269.776C118.672 269.776 117.84 270.112 117.216 270.736V270.016H115.104V278H117.216V274.464C117.216 272.512 118 271.712 119.2 271.712C120.176 271.712 120.816 272.464 120.816 273.584V278H122.928V273.136C122.928 271.152 121.648 269.776 119.728 269.776ZM132.996 266.48H130.884V270.656C130.212 270.096 129.332 269.776 128.244 269.776C126.212 269.776 124.324 271.504 124.324 274.016C124.324 276.528 126.212 278.24 128.244 278.24C129.332 278.24 130.212 277.92 130.884 277.376V278H132.996V266.48ZM128.612 276.4C127.332 276.4 126.372 275.488 126.372 274.016C126.372 272.544 127.332 271.616 128.612 271.616C129.748 271.616 130.884 272.544 130.884 274.016C130.884 275.488 129.748 276.4 128.612 276.4ZM31.4232 289.04C28.9112 289.04 27.3432 290.384 27.3432 292.304C27.3432 294.4 28.8792 295.104 30.1592 295.376L32.4312 295.808C33.3912 296 33.6792 296.368 33.6792 296.976C33.6792 297.744 33.0232 298.336 31.7752 298.336C30.5592 298.336 29.6632 297.808 29.3752 296.592L27.0872 297.056C27.3592 299.2 29.3272 300.24 31.5672 300.24C34.1112 300.24 35.8232 298.944 35.8232 296.864C35.8232 295.2 34.7512 294.16 33.0072 293.792L30.7032 293.328C29.8712 293.168 29.6312 292.784 29.6312 292.24C29.6312 291.52 30.2872 290.912 31.3752 290.912C32.4472 290.912 33.3272 291.568 33.4872 292.576L35.6632 292.128C35.2472 290.224 33.5992 289.04 31.4232 289.04ZM49.6732 289.28H47.7852L43.7052 296.688L39.6412 289.28H37.7372V300H39.8492V293.84L43.2252 300H44.2012L47.5612 293.84V300H49.6732V289.28ZM55.8451 289.04C53.3331 289.04 51.7651 290.384 51.7651 292.304C51.7651 294.4 53.3011 295.104 54.5811 295.376L56.8531 295.808C57.8131 296 58.1011 296.368 58.1011 296.976C58.1011 297.744 57.4451 298.336 56.1971 298.336C54.9811 298.336 54.0851 297.808 53.7971 296.592L51.5091 297.056C51.7811 299.2 53.7491 300.24 55.9891 300.24C58.5331 300.24 60.2451 298.944 60.2451 296.864C60.2451 295.2 59.1731 294.16 57.4291 293.792L55.1251 293.328C54.2931 293.168 54.0531 292.784 54.0531 292.24C54.0531 291.52 54.7091 290.912 55.7971 290.912C56.8691 290.912 57.7491 291.568 57.9091 292.576L60.0851 292.128C59.6691 290.224 58.0211 289.04 55.8451 289.04ZM67.2177 288.368C66.4657 288.368 65.9377 288.96 65.9377 289.632C65.9377 290.336 66.4657 290.864 67.2177 290.864C67.9537 290.864 68.4977 290.336 68.4977 289.632C68.4977 288.96 67.9537 288.368 67.2177 288.368ZM68.2737 300V292.016H66.1617V300H68.2737ZM75.2518 291.776C74.1958 291.776 73.3638 292.112 72.7398 292.736V292.016H70.6278V300H72.7398V296.464C72.7398 294.512 73.5238 293.712 74.7238 293.712C75.6998 293.712 76.3398 294.464 76.3398 295.584V300H78.4518V295.136C78.4518 293.152 77.1718 291.776 75.2518 291.776ZM88.1107 292H85.8387L83.6627 297.424L81.4867 292H79.2147L82.5427 300H84.7827L88.1107 292ZM90.5614 288.368C89.8094 288.368 89.2814 288.96 89.2814 289.632C89.2814 290.336 89.8094 290.864 90.5614 290.864C91.2974 290.864 91.8414 290.336 91.8414 289.632C91.8414 288.96 91.2974 288.368 90.5614 288.368ZM91.6174 300V292.016H89.5054V300H91.6174ZM99.1716 297.888C98.7556 298.112 98.2116 298.272 97.8436 298.272C97.1396 298.272 96.6756 297.856 96.6756 296.896V293.744H99.2836V292.016H96.6756V289.6H94.5636V292.016H92.8516V293.744H94.5636V297.056C94.5636 299.248 95.8116 300.24 97.6996 300.24C98.3716 300.24 98.9476 300.096 99.7796 299.648L99.1716 297.888ZM108.289 295.856C108.209 293.424 106.369 291.776 104.241 291.776C101.953 291.776 100.113 293.504 100.113 296.016C100.113 298.528 101.953 300.24 104.209 300.24C105.953 300.24 107.377 299.44 108.081 297.776L106.193 297.376C105.617 298.352 104.833 298.432 104.209 298.432C103.233 298.432 102.417 297.728 102.209 296.576H108.289V295.856ZM104.241 293.616C105.089 293.616 105.857 294.064 106.129 295.088H102.273C102.529 294.096 103.441 293.616 104.241 293.616ZM109.221 297.888C109.429 299.552 111.045 300.24 112.805 300.24C114.885 300.24 116.309 299.328 116.309 297.568C116.309 296.496 115.621 295.616 114.213 295.312L112.309 294.896C111.685 294.752 111.589 294.48 111.589 294.224C111.589 293.856 111.829 293.44 112.677 293.44C113.557 293.44 114.117 293.904 114.197 294.544L116.213 294.144C115.941 292.752 114.629 291.776 112.741 291.776C110.725 291.776 109.477 292.88 109.477 294.416C109.477 295.568 110.293 296.384 111.733 296.688L113.365 297.024C114.053 297.168 114.245 297.456 114.245 297.744C114.245 298.192 113.781 298.544 112.997 298.544C112.165 298.544 111.461 298.272 111.349 297.456L109.221 297.888ZM118.724 297.616C117.988 297.616 117.46 298.192 117.46 298.848C117.46 299.536 117.988 300.064 118.724 300.064C119.46 300.064 119.988 299.536 119.988 298.848C119.988 298.192 119.46 297.616 118.724 297.616Z" fill="#000009"/>
<rect x="48" y="366.5" width="51" height="51" rx="5.5" fill="#03CEA4" stroke="#03CEA4"/>
<g clip-path="url(#clip2_1715_11248)">
<path d="M82.9784 382.239C82.709 382.046 82.3739 381.968 82.0468 382.022C81.7197 382.075 81.4274 382.257 81.2343 382.526L69.5384 398.833L65.6343 394.926C65.5182 394.81 65.3804 394.717 65.2288 394.655C65.0771 394.592 64.9146 394.559 64.7504 394.559C64.5862 394.559 64.4237 394.592 64.272 394.654C64.1203 394.717 63.9825 394.809 63.8664 394.925C63.7502 395.041 63.6581 395.179 63.5953 395.331C63.5324 395.482 63.5 395.645 63.5 395.809C63.5 395.973 63.5323 396.136 63.595 396.288C63.6578 396.439 63.7499 396.577 63.8659 396.693L68.8118 401.638C68.9416 401.763 69.0966 401.859 69.2663 401.92C69.436 401.98 69.6167 402.004 69.7963 401.989C69.9759 401.974 70.1504 401.922 70.308 401.834C70.4657 401.747 70.6031 401.628 70.7109 401.483L83.2659 383.983C83.4591 383.714 83.5373 383.379 83.4834 383.052C83.4295 382.724 83.2478 382.432 82.9784 382.239Z" fill="white"/>
</g>
<path d="M25.2261 450L20.5861 439.28H18.5541L13.9141 450H16.2661L17.2101 447.712H21.9461L22.8741 450H25.2261ZM21.1301 445.744H18.0101L19.5781 441.92L21.1301 445.744ZM34.2223 438.48H32.1103V442.656C31.4383 442.096 30.5583 441.776 29.4703 441.776C27.4383 441.776 25.5503 443.504 25.5503 446.016C25.5503 448.528 27.4383 450.24 29.4703 450.24C30.5583 450.24 31.4383 449.92 32.1103 449.376V450H34.2223V438.48ZM29.8383 448.4C28.5583 448.4 27.5983 447.488 27.5983 446.016C27.5983 444.544 28.5583 443.616 29.8383 443.616C30.9743 443.616 32.1103 444.544 32.1103 446.016C32.1103 447.488 30.9743 448.4 29.8383 448.4ZM44.4879 438.48H42.3759V442.656C41.7039 442.096 40.8239 441.776 39.7359 441.776C37.7039 441.776 35.8159 443.504 35.8159 446.016C35.8159 448.528 37.7039 450.24 39.7359 450.24C40.8239 450.24 41.7039 449.92 42.3759 449.376V450H44.4879V438.48ZM40.1039 448.4C38.8239 448.4 37.8639 447.488 37.8639 446.016C37.8639 444.544 38.8239 443.616 40.1039 443.616C41.2399 443.616 42.3759 444.544 42.3759 446.016C42.3759 447.488 41.2399 448.4 40.1039 448.4ZM55.5882 441.904C54.2922 441.904 53.3642 442.544 52.7242 443.472V442.016H50.6122V450H52.7242V447.424C52.7242 445.2 53.6202 444 55.5722 444H56.0362L56.1482 441.968C55.9562 441.904 55.7962 441.904 55.5882 441.904ZM64.9294 445.856C64.8494 443.424 63.0094 441.776 60.8814 441.776C58.5934 441.776 56.7534 443.504 56.7534 446.016C56.7534 448.528 58.5934 450.24 60.8494 450.24C62.5934 450.24 64.0174 449.44 64.7214 447.776L62.8334 447.376C62.2574 448.352 61.4734 448.432 60.8494 448.432C59.8734 448.432 59.0574 447.728 58.8494 446.576H64.9294V445.856ZM60.8814 443.616C61.7294 443.616 62.4974 444.064 62.7694 445.088H58.9134C59.1694 444.096 60.0814 443.616 60.8814 443.616ZM76.5661 441.776C75.2861 441.776 74.3101 442.272 73.6541 443.088C73.0781 442.24 72.1021 441.776 71.0301 441.776C69.9901 441.776 69.2061 442.112 68.6461 442.672V442.016H66.5341V450H68.6461V446.16C68.6461 444.48 69.3501 443.712 70.4701 443.712C71.3501 443.712 72.0381 444.368 72.0381 445.44V450H74.1501V446.16C74.1501 444.48 74.8861 443.712 76.0061 443.712C76.8861 443.712 77.5741 444.368 77.5741 445.44V450H79.6701V445.008C79.6701 443.056 78.2301 441.776 76.5661 441.776ZM82.8896 438.368C82.1376 438.368 81.6096 438.96 81.6096 439.632C81.6096 440.336 82.1376 440.864 82.8896 440.864C83.6256 440.864 84.1696 440.336 84.1696 439.632C84.1696 438.96 83.6256 438.368 82.8896 438.368ZM83.9456 450V442.016H81.8336V450H83.9456ZM90.9237 441.776C89.8677 441.776 89.0357 442.112 88.4117 442.736V442.016H86.2997V450H88.4117V446.464C88.4117 444.512 89.1957 443.712 90.3957 443.712C91.3717 443.712 92.0117 444.464 92.0117 445.584V450H94.1237V445.136C94.1237 443.152 92.8437 441.776 90.9237 441.776ZM104.191 438.48H102.079V442.656C101.407 442.096 100.527 441.776 99.4391 441.776C97.4071 441.776 95.5191 443.504 95.5191 446.016C95.5191 448.528 97.4071 450.24 99.4391 450.24C100.527 450.24 101.407 449.92 102.079 449.376V450H104.191V438.48ZM99.8071 448.4C98.5271 448.4 97.5671 447.488 97.5671 446.016C97.5671 444.544 98.5271 443.616 99.8071 443.616C100.943 443.616 102.079 444.544 102.079 446.016C102.079 447.488 100.943 448.4 99.8071 448.4ZM113.961 445.856C113.881 443.424 112.041 441.776 109.913 441.776C107.625 441.776 105.785 443.504 105.785 446.016C105.785 448.528 107.625 450.24 109.881 450.24C111.625 450.24 113.049 449.44 113.753 447.776L111.865 447.376C111.289 448.352 110.505 448.432 109.881 448.432C108.905 448.432 108.089 447.728 107.881 446.576H113.961V445.856ZM109.913 443.616C110.761 443.616 111.529 444.064 111.801 445.088H107.945C108.201 444.096 109.113 443.616 109.913 443.616ZM120.541 441.904C119.245 441.904 118.317 442.544 117.677 443.472V442.016H115.565V450H117.677V447.424C117.677 445.2 118.573 444 120.525 444H120.989L121.101 441.968C120.909 441.904 120.749 441.904 120.541 441.904ZM121.675 447.888C121.883 449.552 123.499 450.24 125.259 450.24C127.339 450.24 128.763 449.328 128.763 447.568C128.763 446.496 128.075 445.616 126.667 445.312L124.763 444.896C124.139 444.752 124.043 444.48 124.043 444.224C124.043 443.856 124.283 443.44 125.131 443.44C126.011 443.44 126.571 443.904 126.651 444.544L128.667 444.144C128.395 442.752 127.083 441.776 125.195 441.776C123.179 441.776 121.931 442.88 121.931 444.416C121.931 445.568 122.747 446.384 124.187 446.688L125.819 447.024C126.507 447.168 126.699 447.456 126.699 447.744C126.699 448.192 126.235 448.544 125.451 448.544C124.619 448.544 123.915 448.272 123.803 447.456L121.675 447.888ZM131.177 447.616C130.441 447.616 129.913 448.192 129.913 448.848C129.913 449.536 130.441 450.064 131.177 450.064C131.913 450.064 132.441 449.536 132.441 448.848C132.441 448.192 131.913 447.616 131.177 447.616Z" fill="#000009"/>
<defs>
<clipPath id="clip0_1715_11248">
<rect width="20" height="20" fill="white" transform="translate(63.5 16)"/>
</clipPath>
<clipPath id="clip1_1715_11248">
<rect width="20" height="20" fill="white" transform="translate(63.5 210)"/>
</clipPath>
<clipPath id="clip2_1715_11248">
<rect width="20" height="20" fill="white" transform="translate(63.5 382)"/>
</clipPath>
</defs>
</svg>
