<?xml version="1.0" encoding="UTF-8"?>
<svg fill="none" viewBox="0 0 623 134" xmlns="http://www.w3.org/2000/svg">
<line x1="73" x2="528" y1="25.5" y2="25.5" stroke="#E0E0E0" stroke-dasharray="5 5"/>
<rect x="48" y=".5" width="51" height="51" rx="5.5" fill="#03CEA4" stroke="#03CEA4"/>
<g clip-path="url(#c)">
<path d="m82.978 16.239c-0.2694-0.1932-0.6045-0.2714-0.9316-0.2175s-0.6194 0.2356-0.8125 0.505l-11.696 16.307-3.9041-3.9075c-0.1161-0.1162-0.2539-0.2083-0.4055-0.2711-0.1517-0.0629-0.3142-0.0953-0.4784-0.0953s-0.3267 0.0323-0.4784 0.095c-0.1517 0.0628-0.2895 0.1549-0.4056 0.2709-0.1162 0.1161-0.2083 0.2539-0.2711 0.4055-0.0629 0.1517-0.0953 0.3142-0.0953 0.4784s0.0323 0.3267 0.095 0.4784c0.0628 0.1517 0.1549 0.2895 0.2709 0.4057l4.9459 4.945c0.1298 0.1249 0.2848 0.2208 0.4545 0.2813s0.3504 0.0842 0.53 0.0696c0.1796-0.0147 0.3541-0.0674 0.5117-0.1546 0.1577-0.0872 0.2951-0.207 0.4029-0.3513l12.555-17.5c0.1932-0.2695 0.2714-0.6046 0.2175-0.9317s-0.2356-0.6193-0.505-0.8125z" fill="#fff"/>
</g>
<path d="m23.448 73.28v10.72h2.176v-3.504h2.816c2.464 0 3.968-1.44 3.968-3.616 0-2.144-1.504-3.6-3.968-3.6h-4.992zm2.176 5.248v-3.28h2.816c1.168 0 1.808 0.672 1.808 1.632 0 0.992-0.64 1.648-1.808 1.648h-2.816zm13.441-2.624c-1.296 0-2.224 0.64-2.864 1.568v-1.456h-2.112v7.984h2.112v-2.576c0-2.224 0.896-3.424 2.848-3.424h0.464l0.112-2.032c-0.192-0.064-0.352-0.064-0.56-0.064zm9.3412 3.952c-0.08-2.432-1.92-4.08-4.048-4.08-2.288 0-4.128 1.728-4.128 4.24s1.84 4.224 4.096 4.224c1.744 0 3.168-0.8 3.872-2.464l-1.888-0.4c-0.576 0.976-1.36 1.056-1.984 1.056-0.976 0-1.792-0.704-2-1.856h6.08v-0.72zm-4.048-2.24c0.848 0 1.616 0.448 1.888 1.472h-3.856c0.256-0.992 1.168-1.472 1.968-1.472zm10.405-1.84c-1.088 0-1.968 0.32-2.64 0.88v-0.64h-2.112v10.704h2.112v-3.344c0.672 0.544 1.552 0.864 2.64 0.864 2.032 0 3.92-1.712 3.92-4.224s-1.888-4.24-3.92-4.24zm-0.368 6.624c-1.136 0-2.272-0.912-2.272-2.384s1.136-2.4 2.272-2.4c1.28 0 2.24 0.928 2.24 2.4s-0.96 2.384-2.24 2.384zm13.914-6.384h-2.112v0.64c-0.672-0.56-1.552-0.88-2.64-0.88-2.032 0-3.92 1.728-3.92 4.24s1.888 4.224 3.92 4.224c1.088 0 1.968-0.32 2.64-0.864v0.624h2.112v-7.984zm-4.384 6.384c-1.28 0-2.24-0.912-2.24-2.384s0.96-2.4 2.24-2.4c1.136 0 2.272 0.928 2.272 2.4s-1.136 2.384-2.272 2.384zm11.594-6.496c-1.296 0-2.224 0.64-2.864 1.568v-1.456h-2.112v7.984h2.112v-2.576c0-2.224 0.896-3.424 2.848-3.424h0.464l0.112-2.032c-0.192-0.064-0.352-0.064-0.56-0.064zm9.3412 3.952c-0.08-2.432-1.92-4.08-4.048-4.08-2.288 0-4.128 1.728-4.128 4.24s1.84 4.224 4.096 4.224c1.744 0 3.168-0.8 3.872-2.464l-1.888-0.4c-0.576 0.976-1.36 1.056-1.984 1.056-0.976 0-1.792-0.704-2-1.856h6.08v-0.72zm-4.048-2.24c0.848 0 1.616 0.448 1.888 1.472h-3.856c0.256-0.992 1.168-1.472 1.968-1.472zm17.607-1.616h-2.352l-2.208 5.104-2.112-5.104h-2.352l3.312 7.744-1.28 2.976h2.352l4.64-10.72zm4.7576-0.176c-2.384 0-4.3522 1.68-4.3522 4.192s1.9682 4.192 4.3522 4.192c2.336 0 4.304-1.68 4.304-4.192s-1.968-4.192-4.304-4.192zm0 6.576c-1.152 0-2.304-0.896-2.304-2.384s1.152-2.384 2.304-2.384c1.104 0 2.256 0.896 2.256 2.384s-1.152 2.384-2.256 2.384zm13.513-6.384h-2.112v3.536c0 1.952-0.784 2.752-1.984 2.752-0.976 0-1.616-0.752-1.616-1.872v-4.416h-2.112v4.864c0 1.984 1.28 3.36 3.2 3.36 1.056 0 1.888-0.336 2.512-0.96v0.72h2.112v-7.984zm7.22-0.112c-1.296 0-2.224 0.64-2.864 1.568v-1.456h-2.112v7.984h2.112v-2.576c0-2.224 0.896-3.424 2.848-3.424h0.464l0.112-2.032c-0.192-0.064-0.352-0.064-0.56-0.064zm-101.88 22c-1.296 0-2.224 0.64-2.864 1.568v-1.456h-2.112v7.984h2.112v-2.576c0-2.224 0.896-3.424 2.848-3.424h0.464l0.112-2.032c-0.192-0.064-0.352-0.064-0.56-0.064zm9.3413 3.952c-0.08-2.432-1.92-4.08-4.048-4.08-2.288 0-4.128 1.728-4.128 4.24s1.84 4.224 4.096 4.224c1.744 0 3.168-0.8 3.8719-2.464l-1.8879-0.4c-0.576 0.976-1.36 1.056-1.984 1.056-0.976 0-1.792-0.704-2-1.856h6.08v-0.72zm-4.048-2.24c0.848 0 1.616 0.448 1.888 1.472h-3.856c0.256-0.992 1.168-1.472 1.968-1.472zm13.354-1.616h-2.272l-2.176 5.424-2.176-5.424h-2.272l3.328 8h2.24l3.328-8zm2.4508-3.632c-0.752 0-1.28 0.592-1.28 1.264 0 0.704 0.528 1.232 1.28 1.232 0.736 0 1.28-0.528 1.28-1.232 0-0.672-0.544-1.264-1.28-1.264zm1.056 11.632v-7.984h-2.112v7.984h2.112zm9.8901-4.144c-0.08-2.432-1.92-4.08-4.048-4.08-2.288 0-4.128 1.728-4.128 4.24s1.84 4.224 4.096 4.224c1.744 0 3.168-0.8 3.872-2.464l-1.888-0.4c-0.576 0.976-1.36 1.056-1.984 1.056-0.976 0-1.792-0.704-2-1.856h6.08v-0.72zm-4.048-2.24c0.848 0 1.616 0.448 1.888 1.472h-3.856c0.256-0.992 1.168-1.472 1.968-1.472zm16.886-1.6h-2.096l-1.584 4.928-1.632-4.928h-1.648l-1.632 4.912-1.584-4.912h-2.096l2.656 8h1.904l1.584-4.704 1.568 4.704h1.904l2.656-8zm10.148-0.112c-1.296 0-2.224 0.64-2.864 1.568v-1.456h-2.112v7.984h2.112v-2.576c0-2.224 0.896-3.424 2.848-3.424h0.464l0.112-2.032c-0.192-0.064-0.352-0.064-0.56-0.064zm9.3412 3.952c-0.08-2.432-1.92-4.08-4.048-4.08-2.288 0-4.128 1.728-4.128 4.24s1.84 4.224 4.096 4.224c1.744 0 3.168-0.8 3.872-2.464l-1.888-0.4c-0.576 0.976-1.36 1.056-1.984 1.056-0.976 0-1.792-0.704-2-1.856h6.08v-0.72zm-4.048-2.24c0.848 0 1.616 0.448 1.888 1.472h-3.856c0.256-0.992 1.168-1.472 1.968-1.472zm13.685-1.6h-2.112v0.64c-0.672-0.56-1.552-0.88-2.64-0.88-2.032 0-3.92 1.728-3.92 4.24s1.888 4.224 3.92 4.224c1.088 0 1.968-0.32 2.64-0.864v3.344h2.112v-10.704zm-4.384 6.384c-1.28 0-2.24-0.912-2.24-2.384s0.96-2.4 2.24-2.4c1.136 0 2.272 0.928 2.272 2.4s-1.136 2.384-2.272 2.384zm14.155-6.384h-2.112v3.536c0 1.952-0.784 2.752-1.984 2.752-0.976 0-1.616-0.752-1.616-1.872v-4.416h-2.1119v4.864c0 1.984 1.28 3.36 3.1999 3.36 1.056 0 1.888-0.336 2.512-0.96v0.72h2.112v-7.984zm9.78 3.84c-0.08-2.432-1.92-4.08-4.048-4.08-2.288 0-4.128 1.728-4.128 4.24s1.84 4.224 4.096 4.224c1.744 0 3.168-0.8 3.871-2.464l-1.887-0.4c-0.576 0.976-1.36 1.056-1.984 1.056-0.976 0-1.792-0.704-2-1.856h6.08v-0.72zm-4.048-2.24c0.848 0 1.616 0.448 1.888 1.472h-3.856c0.256-0.992 1.168-1.472 1.968-1.472zm4.98 4.272c0.208 1.664 1.824 2.352 3.584 2.352 2.08 0 3.504-0.912 3.504-2.672 0-1.072-0.688-1.952-2.096-2.256l-1.904-0.416c-0.624-0.144-0.72-0.416-0.72-0.672 0-0.368 0.24-0.784 1.088-0.784 0.88 0 1.44 0.464 1.52 1.104l2.016-0.4c-0.272-1.392-1.584-2.368-3.472-2.368-2.016 0-3.264 1.104-3.264 2.64 0 1.152 0.816 1.968 2.256 2.272l1.632 0.336c0.688 0.144 0.88 0.432 0.88 0.72 0 0.448-0.464 0.8-1.248 0.8-0.832 0-1.536-0.272-1.648-1.088l-2.128 0.432zm13.919 0c-0.416 0.224-0.96 0.384-1.328 0.384-0.704 0-1.168-0.416-1.168-1.376v-3.152h2.608v-1.728h-2.608v-2.416h-2.112v2.416h-1.712v1.728h1.712v3.312c0 2.192 1.248 3.184 3.136 3.184 0.672 0 1.248-0.144 2.08-0.592l-0.608-1.76zm-92.516 22c-0.416 0.224-0.96 0.384-1.328 0.384-0.704 0-1.168-0.416-1.168-1.376v-3.152h2.608v-1.728h-2.608v-2.416h-2.112v2.416h-1.712v1.728h1.712v3.312c0 2.192 1.248 3.184 3.136 3.184 0.672 0 1.248-0.144 2.08-0.592l-0.608-1.76zm9.1172-2.032c-0.08-2.432-1.92-4.08-4.048-4.08-2.288 0-4.128 1.728-4.128 4.24s1.84 4.224 4.096 4.224c1.744 0 3.168-0.8 3.872-2.464l-1.888-0.4c-0.576 0.976-1.36 1.056-1.984 1.056-0.976 0-1.792-0.704-2-1.856h6.08v-0.72zm-4.048-2.24c0.848 0 1.616 0.448 1.888 1.472h-3.856c0.256-0.992 1.168-1.472 1.968-1.472zm15.685-1.84c-1.28 0-2.256 0.496-2.912 1.312-0.576-0.848-1.552-1.312-2.624-1.312-1.04 0-1.824 0.336-2.384 0.896v-0.656h-2.112v7.984h2.112v-3.84c0-1.68 0.704-2.448 1.824-2.448 0.88 0 1.568 0.656 1.568 1.728v4.56h2.112v-3.84c0-1.68 0.736-2.448 1.856-2.448 0.88 0 1.568 0.656 1.568 1.728v4.56h2.096v-4.992c0-1.952-1.44-3.232-3.104-3.232zm9.9075 0c-1.088 0-1.968 0.32-2.64 0.88v-0.64h-2.112v10.704h2.112v-3.344c0.672 0.544 1.552 0.864 2.64 0.864 2.032 0 3.92-1.712 3.92-4.224s-1.888-4.24-3.92-4.24zm-0.368 6.624c-1.136 0-2.272-0.912-2.272-2.384s1.136-2.4 2.272-2.4c1.28 0 2.24 0.928 2.24 2.4s-0.96 2.384-2.24 2.384zm7.9936 1.6v-11.52h-2.112v11.52h2.112zm10.279-7.984h-2.112v0.64c-0.672-0.56-1.552-0.88-2.64-0.88-2.032 0-3.92 1.728-3.92 4.24s1.888 4.224 3.92 4.224c1.088 0 1.968-0.32 2.64-0.864v0.624h2.112v-7.984zm-4.384 6.384c-1.28 0-2.24-0.912-2.24-2.384s0.96-2.4 2.24-2.4c1.136 0 2.272 0.928 2.272 2.4s-1.136 2.384-2.272 2.384zm11.818-0.512c-0.416 0.224-0.96 0.384-1.328 0.384-0.704 0-1.168-0.416-1.168-1.376v-3.152h2.608v-1.728h-2.608v-2.416h-2.112v2.416h-1.712v1.728h1.712v3.312c0 2.192 1.248 3.184 3.136 3.184 0.672 0 1.248-0.144 2.08-0.592l-0.608-1.76zm9.1176-2.032c-0.08-2.432-1.92-4.08-4.0484-4.08-2.288 0-4.128 1.728-4.128 4.24s1.84 4.224 4.096 4.224c1.7444 0 3.1684-0.8 3.8724-2.464l-1.888-0.4c-0.576 0.976-1.3604 1.056-1.9844 1.056-0.976 0-1.792-0.704-2-1.856h6.0804v-0.72zm-4.0484-2.24c0.848 0 1.6164 0.448 1.8884 1.472h-3.8564c0.256-0.992 1.168-1.472 1.968-1.472zm4.9804 4.272c0.208 1.664 1.824 2.352 3.584 2.352 2.08 0 3.504-0.912 3.504-2.672 0-1.072-0.688-1.952-2.096-2.256l-1.904-0.416c-0.624-0.144-0.72-0.416-0.72-0.672 0-0.368 0.24-0.784 1.088-0.784 0.88 0 1.44 0.464 1.52 1.104l2.016-0.4c-0.272-1.392-1.584-2.368-3.472-2.368-2.016 0-3.264 1.104-3.264 2.64 0 1.152 0.816 1.968 2.256 2.272l1.632 0.336c0.688 0.144 0.88 0.432 0.88 0.72 0 0.448-0.464 0.8-1.248 0.8-0.832 0-1.536-0.272-1.648-1.088l-2.128 0.432zm9.503-0.272c-0.736 0-1.264 0.576-1.264 1.232 0 0.688 0.528 1.216 1.264 1.216s1.264-0.528 1.264-1.216c0-0.656-0.528-1.232-1.264-1.232z" fill="#000009"/>
<rect x="286" y=".5" width="51" height="51" rx="5.5" fill="#03CEA4" stroke="#03CEA4"/>
<g clip-path="url(#b)">
<path d="m320.98 16.239c-0.269-0.1932-0.604-0.2714-0.931-0.2175s-0.62 0.2356-0.813 0.505l-11.696 16.307-3.904-3.9075c-0.116-0.1162-0.254-0.2083-0.405-0.2711-0.152-0.0629-0.314-0.0953-0.479-0.0953-0.164 0-0.326 0.0323-0.478 0.095-0.152 0.0628-0.29 0.1549-0.406 0.2709-0.116 0.1161-0.208 0.2539-0.271 0.4055-0.063 0.1517-0.095 0.3142-0.095 0.4784s0.032 0.3267 0.095 0.4784 0.155 0.2895 0.271 0.4057l4.946 4.945c0.13 0.1249 0.285 0.2208 0.454 0.2813 0.17 0.0605 0.351 0.0842 0.53 0.0696 0.18-0.0147 0.354-0.0674 0.512-0.1546s0.295-0.207 0.403-0.3513l12.555-17.5c0.193-0.2695 0.271-0.6046 0.217-0.9317s-0.235-0.6193-0.505-0.8125z" fill="#fff"/>
</g>
<path d="m255.95 73.04c-2.512 0-4.08 1.344-4.08 3.264 0 2.096 1.536 2.8 2.816 3.072l2.272 0.432c0.96 0.192 1.248 0.56 1.248 1.168 0 0.768-0.656 1.36-1.904 1.36-1.216 0-2.112-0.528-2.4-1.744l-2.288 0.464c0.272 2.144 2.24 3.184 4.48 3.184 2.544 0 4.256-1.296 4.256-3.376 0-1.664-1.072-2.704-2.816-3.072l-2.304-0.464c-0.832-0.16-1.072-0.544-1.072-1.088 0-0.72 0.656-1.328 1.744-1.328 1.072 0 1.952 0.656 2.112 1.664l2.176-0.448c-0.416-1.904-2.064-3.088-4.24-3.088zm13.85 6.816c-0.08-2.432-1.92-4.08-4.048-4.08-2.288 0-4.128 1.728-4.128 4.24s1.84 4.224 4.096 4.224c1.744 0 3.168-0.8 3.872-2.464l-1.888-0.4c-0.576 0.976-1.36 1.056-1.984 1.056-0.976 0-1.792-0.704-2-1.856h6.08v-0.72zm-4.048-2.24c0.848 0 1.616 0.448 1.888 1.472h-3.856c0.256-0.992 1.168-1.472 1.968-1.472zm10.276-1.84c-1.056 0-1.888 0.336-2.512 0.96v-0.72h-2.112v7.984h2.112v-3.536c0-1.952 0.784-2.752 1.984-2.752 0.976 0 1.616 0.752 1.616 1.872v4.416h2.112v-4.864c0-1.984-1.28-3.36-3.2-3.36zm13.268-3.296h-2.112v4.176c-0.672-0.56-1.552-0.88-2.64-0.88-2.032 0-3.92 1.728-3.92 4.24s1.888 4.224 3.92 4.224c1.088 0 1.968-0.32 2.64-0.864v0.624h2.112v-11.52zm-4.384 9.92c-1.28 0-2.24-0.912-2.24-2.384s0.96-2.4 2.24-2.4c1.136 0 2.272 0.928 2.272 2.4s-1.136 2.384-2.272 2.384zm18.044-2.544c-0.08-2.432-1.92-4.08-4.048-4.08-2.288 0-4.128 1.728-4.128 4.24s1.84 4.224 4.096 4.224c1.744 0 3.168-0.8 3.872-2.464l-1.888-0.4c-0.576 0.976-1.36 1.056-1.984 1.056-0.976 0-1.792-0.704-2-1.856h6.08v-0.72zm-4.048-2.24c0.848 0 1.616 0.448 1.888 1.472h-3.856c0.256-0.992 1.168-1.472 1.968-1.472zm15.685-1.84c-1.28 0-2.256 0.496-2.912 1.312-0.576-0.848-1.552-1.312-2.624-1.312-1.04 0-1.824 0.336-2.384 0.896v-0.656h-2.112v7.984h2.112v-3.84c0-1.68 0.704-2.448 1.824-2.448 0.88 0 1.568 0.656 1.568 1.728v4.56h2.112v-3.84c0-1.68 0.736-2.448 1.856-2.448 0.88 0 1.568 0.656 1.568 1.728v4.56h2.096v-4.992c0-1.952-1.44-3.232-3.104-3.232zm13.187 0.24h-2.112v0.64c-0.672-0.56-1.552-0.88-2.64-0.88-2.032 0-3.92 1.728-3.92 4.24s1.888 4.224 3.92 4.224c1.088 0 1.968-0.32 2.64-0.864v0.624h2.112v-7.984zm-4.384 6.384c-1.28 0-2.24-0.912-2.24-2.384s0.96-2.4 2.24-2.4c1.136 0 2.272 0.928 2.272 2.4s-1.136 2.384-2.272 2.384zm7.786-10.032c-0.752 0-1.28 0.592-1.28 1.264 0 0.704 0.528 1.232 1.28 1.232 0.736 0 1.28-0.528 1.28-1.232 0-0.672-0.544-1.264-1.28-1.264zm1.056 11.632v-7.984h-2.112v7.984h2.112zm4.466 0v-11.52h-2.112v11.52h2.112zm14.17-7.984h-2.112v0.64c-0.672-0.56-1.552-0.88-2.64-0.88-2.032 0-3.92 1.728-3.92 4.24s1.888 4.224 3.92 4.224c1.088 0 1.968-0.32 2.64-0.864v0.624h2.112v-7.984zm-4.384 6.384c-1.28 0-2.24-0.912-2.24-2.384s0.96-2.4 2.24-2.4c1.136 0 2.272 0.928 2.272 2.4s-1.136 2.384-2.272 2.384zm11.241-6.624c-1.056 0-1.888 0.336-2.512 0.96v-0.72h-2.112v7.984h2.112v-3.536c0-1.952 0.784-2.752 1.984-2.752 0.976 0 1.616 0.752 1.616 1.872v4.416h2.112v-4.864c0-1.984-1.28-3.36-3.2-3.36zm13.268-3.296h-2.112v4.176c-0.672-0.56-1.552-0.88-2.64-0.88-2.032 0-3.92 1.728-3.92 4.24s1.888 4.224 3.92 4.224c1.088 0 1.968-0.32 2.64-0.864v0.624h2.112v-11.52zm-4.384 9.92c-1.28 0-2.24-0.912-2.24-2.384s0.96-2.4 2.24-2.4c1.136 0 2.272 0.928 2.272 2.4s-1.136 2.384-2.272 2.384zm-97.189 12.64c-2.512 0-4.08 1.344-4.08 3.264 0 2.096 1.536 2.8 2.816 3.072l2.272 0.432c0.96 0.192 1.248 0.56 1.248 1.168 0 0.768-0.656 1.36-1.904 1.36-1.216 0-2.112-0.528-2.4-1.744l-2.288 0.464c0.272 2.144 2.24 3.184 4.48 3.184 2.544 0 4.256-1.296 4.256-3.376 0-1.664-1.072-2.704-2.816-3.072l-2.304-0.464c-0.832-0.16-1.072-0.544-1.072-1.088 0-0.72 0.656-1.328 1.744-1.328 1.072 0 1.952 0.656 2.112 1.664l2.176-0.448c-0.416-1.904-2.064-3.088-4.24-3.088zm18.25 0.24h-1.888l-4.08 7.408-4.064-7.408h-1.904v10.72h2.112v-6.16l3.376 6.16h0.976l3.36-6.16v6.16h2.112v-10.72zm6.172-0.24c-2.512 0-4.08 1.344-4.08 3.264 0 2.096 1.536 2.8 2.816 3.072l2.272 0.432c0.96 0.192 1.248 0.56 1.248 1.168 0 0.768-0.656 1.36-1.904 1.36-1.216 0-2.112-0.528-2.4-1.744l-2.288 0.464c0.272 2.144 2.24 3.184 4.48 3.184 2.544 0 4.256-1.296 4.256-3.376 0-1.664-1.072-2.704-2.816-3.072l-2.304-0.464c-0.832-0.16-1.072-0.544-1.072-1.088 0-0.72 0.656-1.328 1.744-1.328 1.072 0 1.952 0.656 2.112 1.664l2.176-0.448c-0.416-1.904-2.064-3.088-4.24-3.088zm11.373-0.672c-0.752 0-1.28 0.592-1.28 1.264 0 0.704 0.528 1.232 1.28 1.232 0.736 0 1.28-0.528 1.28-1.232 0-0.672-0.544-1.264-1.28-1.264zm1.056 11.632v-7.984h-2.112v7.984h2.112zm6.978-8.224c-1.056 0-1.888 0.336-2.512 0.96v-0.72h-2.112v7.984h2.112v-3.536c0-1.952 0.784-2.752 1.984-2.752 0.976 0 1.616 0.752 1.616 1.872v4.416h2.112v-4.864c0-1.984-1.28-3.36-3.2-3.36zm12.859 0.224h-2.272l-2.176 5.424-2.176-5.424h-2.272l3.328 8h2.24l3.328-8zm2.45-3.632c-0.752 0-1.28 0.592-1.28 1.264 0 0.704 0.528 1.232 1.28 1.232 0.736 0 1.28-0.528 1.28-1.232 0-0.672-0.544-1.264-1.28-1.264zm1.056 11.632v-7.984h-2.112v7.984h2.112zm7.555-2.112c-0.416 0.224-0.96 0.384-1.328 0.384-0.704 0-1.168-0.416-1.168-1.376v-3.152h2.608v-1.728h-2.608v-2.416h-2.112v2.416h-1.712v1.728h1.712v3.312c0 2.192 1.248 3.184 3.136 3.184 0.672 0 1.248-0.144 2.08-0.592l-0.608-1.76zm9.117-2.032c-0.08-2.432-1.92-4.08-4.048-4.08-2.288 0-4.128 1.728-4.128 4.24s1.84 4.224 4.096 4.224c1.744 0 3.168-0.8 3.872-2.464l-1.888-0.4c-0.576 0.976-1.36 1.056-1.984 1.056-0.976 0-1.792-0.704-2-1.856h6.08v-0.72zm-4.048-2.24c0.848 0 1.616 0.448 1.888 1.472h-3.856c0.256-0.992 1.168-1.472 1.968-1.472zm4.98 4.272c0.208 1.664 1.824 2.352 3.584 2.352 2.08 0 3.504-0.912 3.504-2.672 0-1.072-0.688-1.952-2.096-2.256l-1.904-0.416c-0.624-0.144-0.72-0.416-0.72-0.672 0-0.368 0.24-0.784 1.088-0.784 0.88 0 1.44 0.464 1.52 1.104l2.016-0.4c-0.272-1.392-1.584-2.368-3.472-2.368-2.016 0-3.264 1.104-3.264 2.64 0 1.152 0.816 1.968 2.256 2.272l1.632 0.336c0.688 0.144 0.88 0.432 0.88 0.72 0 0.448-0.464 0.8-1.248 0.8-0.832 0-1.536-0.272-1.648-1.088l-2.128 0.432zm9.503-0.272c-0.736 0-1.264 0.576-1.264 1.232 0 0.688 0.528 1.216 1.264 1.216s1.264-0.528 1.264-1.216c0-0.656-0.528-1.232-1.264-1.232z" fill="#000009"/>
<rect x="524" y=".5" width="51" height="51" rx="5.5" fill="#03CEA4" stroke="#03CEA4"/>
<g clip-path="url(#a)">
<path d="m558.98 16.239c-0.269-0.1932-0.604-0.2714-0.931-0.2175s-0.62 0.2356-0.813 0.505l-11.696 16.307-3.904-3.9075c-0.116-0.1162-0.254-0.2083-0.405-0.2711-0.152-0.0629-0.314-0.0953-0.479-0.0953-0.164 0-0.326 0.0323-0.478 0.095-0.152 0.0628-0.29 0.1549-0.406 0.2709-0.116 0.1161-0.208 0.2539-0.271 0.4055-0.063 0.1517-0.095 0.3142-0.095 0.4784s0.032 0.3267 0.095 0.4784 0.155 0.2895 0.271 0.4057l4.946 4.945c0.13 0.1249 0.285 0.2208 0.454 0.2813 0.17 0.0605 0.351 0.0842 0.53 0.0696 0.18-0.0147 0.354-0.0674 0.512-0.1546s0.295-0.207 0.403-0.3513l12.555-17.5c0.193-0.2695 0.271-0.6046 0.217-0.9317s-0.235-0.6193-0.505-0.8125z" fill="#fff"/>
</g>
<path d="m501.23 84-4.64-10.72h-2.032l-4.64 10.72h2.352l0.944-2.288h4.736l0.928 2.288h2.352zm-4.096-4.256h-3.12l1.568-3.824 1.552 3.824zm13.092-7.264h-2.112v4.176c-0.672-0.56-1.552-0.88-2.64-0.88-2.032 0-3.92 1.728-3.92 4.24s1.888 4.224 3.92 4.224c1.088 0 1.968-0.32 2.64-0.864v0.624h2.112v-11.52zm-4.384 9.92c-1.28 0-2.24-0.912-2.24-2.384s0.96-2.4 2.24-2.4c1.136 0 2.272 0.928 2.272 2.4s-1.136 2.384-2.272 2.384zm14.65-9.92h-2.112v4.176c-0.672-0.56-1.552-0.88-2.64-0.88-2.032 0-3.92 1.728-3.92 4.24s1.888 4.224 3.92 4.224c1.088 0 1.968-0.32 2.64-0.864v0.624h2.112v-11.52zm-4.384 9.92c-1.28 0-2.24-0.912-2.24-2.384s0.96-2.4 2.24-2.4c1.136 0 2.272 0.928 2.272 2.4s-1.136 2.384-2.272 2.384zm15.484-6.496c-1.296 0-2.224 0.64-2.864 1.568v-1.456h-2.112v7.984h2.112v-2.576c0-2.224 0.896-3.424 2.848-3.424h0.464l0.112-2.032c-0.192-0.064-0.352-0.064-0.56-0.064zm9.341 3.952c-0.08-2.432-1.92-4.08-4.048-4.08-2.288 0-4.128 1.728-4.128 4.24s1.84 4.224 4.096 4.224c1.744 0 3.168-0.8 3.872-2.464l-1.888-0.4c-0.576 0.976-1.36 1.056-1.984 1.056-0.976 0-1.792-0.704-2-1.856h6.08v-0.72zm-4.048-2.24c0.848 0 1.616 0.448 1.888 1.472h-3.856c0.256-0.992 1.168-1.472 1.968-1.472zm15.685-1.84c-1.28 0-2.256 0.496-2.912 1.312-0.576-0.848-1.552-1.312-2.624-1.312-1.04 0-1.824 0.336-2.384 0.896v-0.656h-2.112v7.984h2.112v-3.84c0-1.68 0.704-2.448 1.824-2.448 0.88 0 1.568 0.656 1.568 1.728v4.56h2.112v-3.84c0-1.68 0.736-2.448 1.856-2.448 0.88 0 1.568 0.656 1.568 1.728v4.56h2.096v-4.992c0-1.952-1.44-3.232-3.104-3.232zm6.324-3.408c-0.752 0-1.28 0.592-1.28 1.264 0 0.704 0.528 1.232 1.28 1.232 0.736 0 1.28-0.528 1.28-1.232 0-0.672-0.544-1.264-1.28-1.264zm1.056 11.632v-7.984h-2.112v7.984h2.112zm6.978-8.224c-1.056 0-1.888 0.336-2.512 0.96v-0.72h-2.112v7.984h2.112v-3.536c0-1.952 0.784-2.752 1.984-2.752 0.976 0 1.616 0.752 1.616 1.872v4.416h2.112v-4.864c0-1.984-1.28-3.36-3.2-3.36zm13.267-3.296h-2.112v4.176c-0.672-0.56-1.552-0.88-2.64-0.88-2.032 0-3.92 1.728-3.92 4.24s1.888 4.224 3.92 4.224c1.088 0 1.968-0.32 2.64-0.864v0.624h2.112v-11.52zm-4.384 9.92c-1.28 0-2.24-0.912-2.24-2.384s0.96-2.4 2.24-2.4c1.136 0 2.272 0.928 2.272 2.4s-1.136 2.384-2.272 2.384zm14.154-2.544c-0.08-2.432-1.92-4.08-4.048-4.08-2.288 0-4.128 1.728-4.128 4.24s1.84 4.224 4.096 4.224c1.744 0 3.168-0.8 3.872-2.464l-1.888-0.4c-0.576 0.976-1.36 1.056-1.984 1.056-0.976 0-1.792-0.704-2-1.856h6.08v-0.72zm-4.048-2.24c0.848 0 1.616 0.448 1.888 1.472h-3.856c0.256-0.992 1.168-1.472 1.968-1.472zm10.628-1.712c-1.296 0-2.224 0.64-2.864 1.568v-1.456h-2.112v7.984h2.112v-2.576c0-2.224 0.896-3.424 2.848-3.424h0.464l0.112-2.032c-0.192-0.064-0.352-0.064-0.56-0.064zm1.134 5.984c0.208 1.664 1.824 2.352 3.584 2.352 2.08 0 3.504-0.912 3.504-2.672 0-1.072-0.688-1.952-2.096-2.256l-1.904-0.416c-0.624-0.144-0.72-0.416-0.72-0.672 0-0.368 0.24-0.784 1.088-0.784 0.88 0 1.44 0.464 1.52 1.104l2.016-0.4c-0.272-1.392-1.584-2.368-3.472-2.368-2.016 0-3.264 1.104-3.264 2.64 0 1.152 0.816 1.968 2.256 2.272l1.632 0.336c0.688 0.144 0.88 0.432 0.88 0.72 0 0.448-0.464 0.8-1.248 0.8-0.832 0-1.536-0.272-1.648-1.088l-2.128 0.432zm9.502-0.272c-0.736 0-1.264 0.576-1.264 1.232 0 0.688 0.528 1.216 1.264 1.216s1.264-0.528 1.264-1.216c0-0.656-0.528-1.232-1.264-1.232z" fill="#000009"/>
<defs>
<clipPath id="c">
<rect transform="translate(63.5 16)" width="20" height="20" fill="#fff"/>
</clipPath>
<clipPath id="b">
<rect transform="translate(301.5 16)" width="20" height="20" fill="#fff"/>
</clipPath>
<clipPath id="a">
<rect transform="translate(539.5 16)" width="20" height="20" fill="#fff"/>
</clipPath>
</defs>
</svg>
