<?xml version="1.0" encoding="UTF-8"?>
<svg viewBox="0 0 364 306" xmlns="http://www.w3.org/2000/svg">
<path d="m181.73 78.495h-133.24c-7.7316 0-13.207 7.5528-10.802 14.901l15.471 47.27c1.5288 4.671 5.887 7.831 10.802 7.831h235.53c4.915 0 9.273-3.16 10.802-7.831l15.47-47.27c2.405-7.3482-3.07-14.901-10.801-14.901h-133.24z" clip-rule="evenodd" fill="#3772FF" fill-rule="evenodd"/>
<path d="m181.73 0h-170.12c-8.0875 0-13.587 8.208-10.512 15.688l19.436 47.27c1.7523 4.2616 5.9041 7.0436 10.512 7.0436h301.37c4.608 0 8.76-2.782 10.512-7.0436l19.436-47.27c3.075-7.4798-2.425-15.688-10.512-15.688h-170.12z" clip-rule="evenodd" fill="#2B59C4" fill-rule="evenodd"/>
<path d="m181.73 157.25h-97.325c-7.3754 0-12.798 6.916-11.037 14.078l11.617 47.27c1.2487 5.081 5.805 8.654 11.037 8.654h171.42c5.233 0 9.789-3.573 11.038-8.654l11.617-47.27c1.76-7.162-3.662-14.078-11.038-14.078h-97.325z" clip-rule="evenodd" fill="#81A5F9" fill-rule="evenodd"/>
<path d="m181.73 236h-70.673c-7.107 0-12.471 6.449-11.175 13.437l8.7623 47.27c0.998 5.387 5.697 9.295 11.175 9.295h123.82c5.478 0 10.177-3.908 11.175-9.295l8.762-47.27c1.295-6.988-4.068-13.437-11.175-13.437h-70.674z" clip-rule="evenodd" fill="#03CEA4" fill-rule="evenodd"/>
<path d="m175.27 29.05h-5.06l2.06-2.02c1.96-1.92 2.92-3.18 2.92-5.04 0-2.48-1.86-4.18-4.56-4.18-2.72 0-4.6 1.64-4.72 4.28l2.48 0.52c0.12-1.7 0.9-2.46 2.2-2.46 1.16 0 1.98 0.78 1.98 1.9 0 1.5-1.08 2.4-1.9 3.22l-4.52 4.48v1.76h9.12v-2.46zm4.709-6.2 0.1-2.28h5.9v-2.46h-8.42l-0.22 7.16h4.48c1.3 0 2.18 0.78 2.18 1.94 0 1.3-0.92 2.16-2.28 2.16-1.32 0-2.42-0.82-2.42-2.72l-2.62 0.52c0 3.06 2.3 4.64 4.98 4.64 3 0 4.94-1.94 4.94-4.64 0-2.64-1.84-4.32-4.58-4.32h-2.04zm15.646 1.88c1.36-0.6 2.1-1.78 2.1-3.24 0-2.2-1.86-3.68-4.64-3.68-2.8 0-4.66 1.48-4.66 3.68 0 1.48 0.74 2.64 2.1 3.24-1.6 0.58-2.52 1.78-2.52 3.16 0 2.32 2.04 3.92 5.08 3.92 3.02 0 5.04-1.6 5.04-3.92 0-1.36-0.9-2.58-2.5-3.16zm-2.58-4.74c1.02 0 2 0.58 2 1.7 0 1.16-0.98 1.74-2 1.74s-1.92-0.56-1.92-1.7c0-1.16 0.92-1.74 1.92-1.74zm0 9.56c-1.1 0-2.04-0.6-2.04-1.8 0-1.24 0.96-1.84 2.04-1.84s2.12 0.6 2.12 1.8c0 1.22-1.04 1.84-2.12 1.84z" fill="#fff"/>
<path d="m147.5 51.51v-8.71h-1.768v8.71h1.768zm5.582-6.682c-0.858 0-1.534 0.273-2.041 0.78v-0.585h-1.716v6.487h1.716v-2.873c0-1.586 0.637-2.236 1.612-2.236 0.793 0 1.313 0.611 1.313 1.521v3.588h1.716v-3.952c0-1.612-1.04-2.73-2.6-2.73zm10.447 0.182h-1.846l-1.768 4.407-1.768-4.407h-1.846l2.704 6.5h1.82l2.704-6.5zm1.992-2.951c-0.611 0-1.04 0.481-1.04 1.027 0 0.572 0.429 1.001 1.04 1.001 0.598 0 1.04-0.429 1.04-1.001 0-0.546-0.442-1.027-1.04-1.027zm0.858 9.451v-6.487h-1.716v6.487h1.716zm6.137-1.716c-0.338 0.182-0.78 0.312-1.079 0.312-0.572 0-0.949-0.338-0.949-1.118v-2.561h2.119v-1.404h-2.119v-1.963h-1.716v1.963h-1.391v1.404h1.391v2.691c0 1.781 1.014 2.587 2.548 2.587 0.546 0 1.014-0.117 1.69-0.481l-0.494-1.43zm7.408-1.651c-0.065-1.976-1.56-3.315-3.289-3.315-1.859 0-3.354 1.404-3.354 3.445s1.495 3.432 3.328 3.432c1.417 0 2.574-0.65 3.146-2.002l-1.534-0.325c-0.468 0.793-1.105 0.858-1.612 0.858-0.793 0-1.456-0.572-1.625-1.508h4.94v-0.585zm-3.289-1.82c0.689 0 1.313 0.364 1.534 1.196h-3.133c0.208-0.806 0.949-1.196 1.599-1.196zm4.047 3.471c0.169 1.352 1.482 1.911 2.912 1.911 1.69 0 2.847-0.741 2.847-2.171 0-0.871-0.559-1.586-1.703-1.833l-1.547-0.338c-0.507-0.117-0.585-0.338-0.585-0.546 0-0.299 0.195-0.637 0.884-0.637 0.715 0 1.17 0.377 1.235 0.897l1.638-0.325c-0.221-1.131-1.287-1.924-2.821-1.924-1.638 0-2.652 0.897-2.652 2.145 0 0.936 0.663 1.599 1.833 1.846l1.326 0.273c0.559 0.117 0.715 0.351 0.715 0.585 0 0.364-0.377 0.65-1.014 0.65-0.676 0-1.248-0.221-1.339-0.884l-1.729 0.351zm13.443-7.189c-2.041 0-3.315 1.092-3.315 2.652 0 1.703 1.248 2.275 2.288 2.496l1.846 0.351c0.78 0.156 1.014 0.455 1.014 0.949 0 0.624-0.533 1.105-1.547 1.105-0.988 0-1.716-0.429-1.95-1.417l-1.859 0.377c0.221 1.742 1.82 2.587 3.64 2.587 2.067 0 3.458-1.053 3.458-2.743 0-1.352-0.871-2.197-2.288-2.496l-1.872-0.377c-0.676-0.13-0.871-0.442-0.871-0.884 0-0.585 0.533-1.079 1.417-1.079 0.871 0 1.586 0.533 1.716 1.352l1.768-0.364c-0.338-1.547-1.677-2.509-3.445-2.509zm11.253 5.538c-0.065-1.976-1.56-3.315-3.289-3.315-1.859 0-3.354 1.404-3.354 3.445s1.495 3.432 3.328 3.432c1.417 0 2.574-0.65 3.146-2.002l-1.534-0.325c-0.468 0.793-1.105 0.858-1.612 0.858-0.793 0-1.456-0.572-1.625-1.508h4.94v-0.585zm-3.289-1.82c0.689 0 1.313 0.364 1.534 1.196h-3.133c0.208-0.806 0.949-1.196 1.599-1.196zm8.35-1.495c-0.858 0-1.534 0.273-2.041 0.78v-0.585h-1.716v6.487h1.716v-2.873c0-1.586 0.637-2.236 1.612-2.236 0.793 0 1.313 0.611 1.313 1.521v3.588h1.716v-3.952c0-1.612-1.04-2.73-2.6-2.73zm8.479 4.966c-0.338 0.182-0.78 0.312-1.079 0.312-0.572 0-0.949-0.338-0.949-1.118v-2.561h2.119v-1.404h-2.119v-1.963h-1.716v1.963h-1.391v1.404h1.391v2.691c0 1.781 1.014 2.587 2.548 2.587 0.546 0 1.014-0.117 1.69-0.481l-0.494-1.43z" fill="#A9C1FA"/>
<path d="m172.47 97.176h-1.68l-4.26 2.46v2.4198l3.3-1.7v10.22h2.64v-13.4zm7.322-0.3c-2.9 0-4.92 1.92-4.92 4.5598 0 2.58 1.78 4.42 4.68 4.42 1.22 0 2.44-0.5 3.2-1.34 0 1.22-0.28 2.34-1.02 3.14-0.46 0.5-1.12 0.84-1.88 0.84-1.04 0-1.74-0.32-2.06-1.3l-2.6 0.5c0.56 2.06 2.3 3.18 4.56 3.18 1.54 0 2.82-0.6 3.74-1.54 1.32-1.36 1.8-3.26 1.8-5.66 0-4.3398-2.2-6.7998-5.5-6.7998zm0.06 6.7598c-1.16 0-2.26-0.86-2.26-2.16s1.1-2.1798 2.26-2.1798c1.14 0 2.18 0.8598 2.18 2.1398 0 1.34-1.04 2.2-2.18 2.2zm16.107 4.48h-5.06l2.06-2.02c1.96-1.92 2.92-3.18 2.92-5.04 0-2.4798-1.86-4.1798-4.56-4.1798-2.72 0-4.6 1.64-4.72 4.2798l2.48 0.52c0.12-1.6998 0.9-2.4598 2.2-2.4598 1.16 0 1.98 0.78 1.98 1.8998 0 1.5-1.08 2.4-1.9 3.22l-4.52 4.48v1.76h9.12v-2.46z" fill="#fff"/>
<path d="m137.8 130.58v-8.71h-1.768v8.71h1.768zm5.582-6.682c-0.858 0-1.534 0.273-2.041 0.78v-0.585h-1.716v6.487h1.716v-2.873c0-1.586 0.637-2.236 1.612-2.236 0.793 0 1.313 0.611 1.313 1.521v3.588h1.716v-3.952c0-1.612-1.04-2.73-2.6-2.73zm10.448 0.182h-1.846l-1.768 4.407-1.768-4.407h-1.846l2.704 6.5h1.82l2.704-6.5zm1.991-2.951c-0.611 0-1.04 0.481-1.04 1.027 0 0.572 0.429 1.001 1.04 1.001 0.598 0 1.04-0.429 1.04-1.001 0-0.546-0.442-1.027-1.04-1.027zm0.858 9.451v-6.487h-1.716v6.487h1.716zm6.138-1.716c-0.338 0.182-0.78 0.312-1.079 0.312-0.572 0-0.949-0.338-0.949-1.118v-2.561h2.119v-1.404h-2.119v-1.963h-1.716v1.963h-1.391v1.404h1.391v2.691c0 1.781 1.014 2.587 2.548 2.587 0.546 0 1.014-0.117 1.69-0.481l-0.494-1.43zm7.407-1.651c-0.065-1.976-1.56-3.315-3.289-3.315-1.859 0-3.354 1.404-3.354 3.445s1.495 3.432 3.328 3.432c1.417 0 2.574-0.65 3.146-2.002l-1.534-0.325c-0.468 0.793-1.105 0.858-1.612 0.858-0.793 0-1.456-0.572-1.625-1.508h4.94v-0.585zm-3.289-1.82c0.689 0 1.313 0.364 1.534 1.196h-3.133c0.208-0.806 0.949-1.196 1.599-1.196zm4.047 3.471c0.169 1.352 1.482 1.911 2.912 1.911 1.69 0 2.847-0.741 2.847-2.171 0-0.871-0.559-1.586-1.703-1.833l-1.547-0.338c-0.507-0.117-0.585-0.338-0.585-0.546 0-0.299 0.195-0.637 0.884-0.637 0.715 0 1.17 0.377 1.235 0.897l1.638-0.325c-0.221-1.131-1.287-1.924-2.821-1.924-1.638 0-2.652 0.897-2.652 2.145 0 0.936 0.663 1.599 1.833 1.846l1.326 0.273c0.559 0.117 0.715 0.351 0.715 0.585 0 0.364-0.377 0.65-1.014 0.65-0.676 0-1.248-0.221-1.339-0.884l-1.729 0.351zm14.431 0.26c-1.56 0-2.795-1.248-2.795-2.899s1.235-2.886 2.795-2.886c1.209 0 2.249 0.663 2.574 2.171l1.716-0.481c-0.442-2.093-2.197-3.354-4.29-3.354-2.561 0-4.576 2.002-4.576 4.55 0 2.561 2.015 4.55 4.576 4.55 2.093 0 3.861-1.248 4.29-3.484l-1.716-0.351c-0.325 1.521-1.365 2.184-2.574 2.184zm7.433 1.456v-9.36h-1.716v9.36h1.716zm2.775-9.451c-0.611 0-1.04 0.481-1.04 1.027 0 0.572 0.429 1.001 1.04 1.001 0.598 0 1.04-0.429 1.04-1.001 0-0.546-0.442-1.027-1.04-1.027zm0.858 9.451v-6.487h-1.716v6.487h1.716zm4.863-1.378c-1.079 0-1.807-0.741-1.807-1.859 0-1.105 0.728-1.872 1.807-1.872 0.754 0 1.365 0.377 1.599 1.287l1.651-0.468c-0.429-1.456-1.742-2.392-3.25-2.392-1.898 0-3.471 1.404-3.471 3.445s1.573 3.432 3.471 3.432c1.547 0 2.886-0.949 3.25-2.431l-1.586-0.403c-0.299 0.897-0.91 1.261-1.664 1.261zm11.403 1.378-3.471-3.38 3.133-3.107h-2.158l-2.327 2.262h-0.312v-5.135h-1.716v9.36h1.716v-2.535h0.299l2.548 2.535h2.288zm6.636-3.367c-0.065-1.976-1.56-3.315-3.289-3.315-1.859 0-3.354 1.404-3.354 3.445s1.495 3.432 3.328 3.432c1.417 0 2.574-0.65 3.146-2.002l-1.534-0.325c-0.468 0.793-1.105 0.858-1.612 0.858-0.793 0-1.456-0.572-1.625-1.508h4.94v-0.585zm-3.289-1.82c0.689 0 1.313 0.364 1.534 1.196h-3.133c0.208-0.806 0.949-1.196 1.599-1.196zm11.118-4.173h-1.716v3.393c-0.546-0.455-1.261-0.715-2.145-0.715-1.651 0-3.185 1.404-3.185 3.445s1.534 3.432 3.185 3.432c0.884 0 1.599-0.26 2.145-0.702v0.507h1.716v-9.36zm-3.562 8.06c-1.04 0-1.82-0.741-1.82-1.937s0.78-1.95 1.82-1.95c0.923 0 1.846 0.754 1.846 1.95s-0.923 1.937-1.846 1.937z" fill="#A9C1FA"/>
<path d="m174.88 176.24h-1.68l-4.26 2.46v2.42l3.3-1.7v10.22h2.64v-13.4zm7.402 0h-1.68l-4.26 2.46v2.42l3.3-1.7v10.22h2.64v-13.4zm11.263 10.94h-5.06l2.06-2.02c1.96-1.92 2.92-3.18 2.92-5.04 0-2.48-1.86-4.18-4.56-4.18-2.72 0-4.6 1.64-4.72 4.28l2.48 0.52c0.12-1.7 0.9-2.46 2.2-2.46 1.16 0 1.98 0.78 1.98 1.9 0 1.5-1.08 2.4-1.9 3.22l-4.52 4.48v1.76h9.12v-2.46z" fill="#fff"/>
<path d="m140.99 209.64-2.925-3.237c1.521-0.221 2.496-1.261 2.496-2.717 0-1.651-1.248-2.756-3.12-2.756h-4.173v8.71h1.768v-3.198h0.923l2.873 3.198h2.158zm-5.954-4.797v-2.314h2.405c0.819 0 1.365 0.468 1.365 1.157s-0.546 1.157-1.365 1.157h-2.405zm12.861 1.43c-0.065-1.976-1.56-3.315-3.289-3.315-1.859 0-3.354 1.404-3.354 3.445s1.495 3.432 3.328 3.432c1.417 0 2.574-0.65 3.146-2.002l-1.534-0.325c-0.468 0.793-1.105 0.858-1.612 0.858-0.793 0-1.456-0.572-1.625-1.508h4.94v-0.585zm-3.289-1.82c0.689 0 1.313 0.364 1.534 1.196h-3.133c0.208-0.806 0.949-1.196 1.599-1.196zm10.85-1.313h-1.846l-1.768 4.407-1.768-4.407h-1.846l2.704 6.5h1.82l2.704-6.5zm1.991-2.951c-0.611 0-1.04 0.481-1.04 1.027 0 0.572 0.429 1.001 1.04 1.001 0.598 0 1.04-0.429 1.04-1.001 0-0.546-0.442-1.027-1.04-1.027zm0.858 9.451v-6.487h-1.716v6.487h1.716zm8.036-3.367c-0.065-1.976-1.56-3.315-3.289-3.315-1.859 0-3.354 1.404-3.354 3.445s1.495 3.432 3.328 3.432c1.417 0 2.574-0.65 3.146-2.002l-1.534-0.325c-0.468 0.793-1.105 0.858-1.612 0.858-0.793 0-1.456-0.572-1.625-1.508h4.94v-0.585zm-3.289-1.82c0.689 0 1.313 0.364 1.534 1.196h-3.133c0.208-0.806 0.949-1.196 1.599-1.196zm13.72-1.3h-1.703l-1.287 4.004-1.326-4.004h-1.339l-1.326 3.991-1.287-3.991h-1.703l2.158 6.5h1.547l1.287-3.822 1.274 3.822h1.547l2.158-6.5zm0.496 4.771c0.169 1.352 1.482 1.911 2.912 1.911 1.69 0 2.847-0.741 2.847-2.171 0-0.871-0.559-1.586-1.703-1.833l-1.547-0.338c-0.507-0.117-0.585-0.338-0.585-0.546 0-0.299 0.195-0.637 0.884-0.637 0.715 0 1.17 0.377 1.235 0.897l1.638-0.325c-0.221-1.131-1.287-1.924-2.821-1.924-1.638 0-2.652 0.897-2.652 2.145 0 0.936 0.663 1.599 1.833 1.846l1.326 0.273c0.559 0.117 0.715 0.351 0.715 0.585 0 0.364-0.377 0.65-1.014 0.65-0.676 0-1.248-0.221-1.339-0.884l-1.729 0.351zm10.245-6.994v8.71h1.768v-2.847h2.288c2.002 0 3.224-1.17 3.224-2.938 0-1.742-1.222-2.925-3.224-2.925h-4.056zm1.768 4.264v-2.665h2.288c0.949 0 1.469 0.546 1.469 1.326 0 0.806-0.52 1.339-1.469 1.339h-2.288zm9.893-2.197c-1.937 0-3.536 1.365-3.536 3.406s1.599 3.406 3.536 3.406c1.898 0 3.497-1.365 3.497-3.406s-1.599-3.406-3.497-3.406zm0 5.343c-0.936 0-1.872-0.728-1.872-1.937s0.936-1.937 1.872-1.937c0.897 0 1.833 0.728 1.833 1.937s-0.936 1.937-1.833 1.937zm4.246-0.416c0.169 1.352 1.482 1.911 2.912 1.911 1.69 0 2.847-0.741 2.847-2.171 0-0.871-0.559-1.586-1.703-1.833l-1.547-0.338c-0.507-0.117-0.585-0.338-0.585-0.546 0-0.299 0.195-0.637 0.884-0.637 0.715 0 1.17 0.377 1.235 0.897l1.638-0.325c-0.221-1.131-1.287-1.924-2.821-1.924-1.638 0-2.652 0.897-2.652 2.145 0 0.936 0.663 1.599 1.833 1.846l1.326 0.273c0.559 0.117 0.715 0.351 0.715 0.585 0 0.364-0.377 0.65-1.014 0.65-0.676 0-1.248-0.221-1.339-0.884l-1.729 0.351zm11.309 0c-0.338 0.182-0.78 0.312-1.079 0.312-0.572 0-0.949-0.338-0.949-1.118v-2.561h2.119v-1.404h-2.119v-1.963h-1.716v1.963h-1.391v1.404h1.391v2.691c0 1.781 1.014 2.587 2.548 2.587 0.546 0 1.014-0.117 1.69-0.481l-0.494-1.43zm7.408-1.651c-0.065-1.976-1.56-3.315-3.289-3.315-1.859 0-3.354 1.404-3.354 3.445s1.495 3.432 3.328 3.432c1.417 0 2.574-0.65 3.146-2.002l-1.534-0.325c-0.468 0.793-1.105 0.858-1.612 0.858-0.793 0-1.456-0.572-1.625-1.508h4.94v-0.585zm-3.289-1.82c0.689 0 1.313 0.364 1.534 1.196h-3.133c0.208-0.806 0.949-1.196 1.599-1.196zm11.119-4.173h-1.716v3.393c-0.546-0.455-1.261-0.715-2.145-0.715-1.651 0-3.185 1.404-3.185 3.445s1.534 3.432 3.185 3.432c0.884 0 1.599-0.26 2.145-0.702v0.507h1.716v-9.36zm-3.562 8.06c-1.04 0-1.82-0.741-1.82-1.937s0.78-1.95 1.82-1.95c0.923 0 1.846 0.754 1.846 1.95s-0.923 1.937-1.846 1.937z" fill="#E6EDFF"/>
<path d="m173.75 259.05 0.1-2.28h5.9v-2.46h-8.42l-0.22 7.16h4.48c1.3 0 2.18 0.78 2.18 1.94 0 1.3-0.92 2.16-2.28 2.16-1.32 0-2.42-0.82-2.42-2.72l-2.62 0.52c0 3.06 2.3 4.64 4.98 4.64 3 0 4.94-1.94 4.94-4.64 0-2.64-1.84-4.32-4.58-4.32h-2.04zm14.085-5.04c-3.44 0-5.76 2.84-5.76 7 0 4.18 2.32 7 5.76 7s5.76-2.82 5.76-7c0-4.16-2.32-7-5.76-7zm0 11.5c-1.84 0-3-1.84-3-4.5s1.16-4.5 3-4.5 3 1.84 3 4.5-1.16 4.5-3 4.5z" fill="#fff"/>
<path d="m128.26 287.71-2.925-3.237c1.521-0.221 2.496-1.261 2.496-2.717 0-1.651-1.248-2.756-3.12-2.756h-4.173v8.71h1.768v-3.198h0.923l2.873 3.198h2.158zm-5.954-4.797v-2.314h2.405c0.819 0 1.365 0.468 1.365 1.157s-0.546 1.157-1.365 1.157h-2.405zm12.861 1.43c-0.065-1.976-1.56-3.315-3.289-3.315-1.859 0-3.354 1.404-3.354 3.445s1.495 3.432 3.328 3.432c1.417 0 2.574-0.65 3.146-2.002l-1.534-0.325c-0.468 0.793-1.105 0.858-1.612 0.858-0.793 0-1.456-0.572-1.625-1.508h4.94v-0.585zm-3.289-1.82c0.689 0 1.313 0.364 1.534 1.196h-3.133c0.208-0.806 0.949-1.196 1.599-1.196zm10.85-1.313h-1.846l-1.768 4.407-1.768-4.407h-1.846l2.704 6.5h1.82l2.704-6.5zm1.991-2.951c-0.611 0-1.04 0.481-1.04 1.027 0 0.572 0.429 1.001 1.04 1.001 0.598 0 1.04-0.429 1.04-1.001 0-0.546-0.442-1.027-1.04-1.027zm0.858 9.451v-6.487h-1.716v6.487h1.716zm8.036-3.367c-0.065-1.976-1.56-3.315-3.289-3.315-1.859 0-3.354 1.404-3.354 3.445s1.495 3.432 3.328 3.432c1.417 0 2.574-0.65 3.146-2.002l-1.534-0.325c-0.468 0.793-1.105 0.858-1.612 0.858-0.793 0-1.456-0.572-1.625-1.508h4.94v-0.585zm-3.289-1.82c0.689 0 1.313 0.364 1.534 1.196h-3.133c0.208-0.806 0.949-1.196 1.599-1.196zm13.72-1.3h-1.703l-1.287 4.004-1.326-4.004h-1.339l-1.326 3.991-1.287-3.991h-1.703l2.158 6.5h1.547l1.287-3.822 1.274 3.822h1.547l2.158-6.5zm0.496 4.771c0.169 1.352 1.482 1.911 2.912 1.911 1.69 0 2.847-0.741 2.847-2.171 0-0.871-0.559-1.586-1.703-1.833l-1.547-0.338c-0.507-0.117-0.585-0.338-0.585-0.546 0-0.299 0.195-0.637 0.884-0.637 0.715 0 1.17 0.377 1.235 0.897l1.638-0.325c-0.221-1.131-1.287-1.924-2.821-1.924-1.638 0-2.652 0.897-2.652 2.145 0 0.936 0.663 1.599 1.833 1.846l1.326 0.273c0.559 0.117 0.715 0.351 0.715 0.585 0 0.364-0.377 0.65-1.014 0.65-0.676 0-1.248-0.221-1.339-0.884l-1.729 0.351zm17.967 1.716-2.925-3.237c1.521-0.221 2.496-1.261 2.496-2.717 0-1.651-1.248-2.756-3.12-2.756h-4.173v8.71h1.768v-3.198h0.923l2.873 3.198h2.158zm-5.954-4.797v-2.314h2.405c0.819 0 1.365 0.468 1.365 1.157s-0.546 1.157-1.365 1.157h-2.405zm12.861 1.43c-0.065-1.976-1.56-3.315-3.289-3.315-1.859 0-3.354 1.404-3.354 3.445s1.495 3.432 3.328 3.432c1.417 0 2.574-0.65 3.146-2.002l-1.534-0.325c-0.468 0.793-1.105 0.858-1.612 0.858-0.793 0-1.456-0.572-1.625-1.508h4.94v-0.585zm-3.289-1.82c0.689 0 1.313 0.364 1.534 1.196h-3.133c0.208-0.806 0.949-1.196 1.599-1.196zm4.047 3.471c0.169 1.352 1.482 1.911 2.912 1.911 1.69 0 2.847-0.741 2.847-2.171 0-0.871-0.559-1.586-1.703-1.833l-1.547-0.338c-0.507-0.117-0.585-0.338-0.585-0.546 0-0.299 0.195-0.637 0.884-0.637 0.715 0 1.17 0.377 1.235 0.897l1.638-0.325c-0.221-1.131-1.287-1.924-2.821-1.924-1.638 0-2.652 0.897-2.652 2.145 0 0.936 0.663 1.599 1.833 1.846l1.326 0.273c0.559 0.117 0.715 0.351 0.715 0.585 0 0.364-0.377 0.65-1.014 0.65-0.676 0-1.248-0.221-1.339-0.884l-1.729 0.351zm10.945-4.966c-0.884 0-1.599 0.26-2.145 0.715v-0.52h-1.716v8.697h1.716v-2.717c0.546 0.442 1.261 0.702 2.145 0.702 1.651 0 3.185-1.391 3.185-3.432s-1.534-3.445-3.185-3.445zm-0.299 5.382c-0.923 0-1.846-0.741-1.846-1.937s0.923-1.95 1.846-1.95c1.04 0 1.82 0.754 1.82 1.95s-0.78 1.937-1.82 1.937zm7.795-5.343c-1.937 0-3.536 1.365-3.536 3.406s1.599 3.406 3.536 3.406c1.898 0 3.497-1.365 3.497-3.406s-1.599-3.406-3.497-3.406zm0 5.343c-0.936 0-1.872-0.728-1.872-1.937s0.936-1.937 1.872-1.937c0.897 0 1.833 0.728 1.833 1.937s-0.936 1.937-1.833 1.937zm8.548-5.382c-0.858 0-1.534 0.273-2.041 0.78v-0.585h-1.716v6.487h1.716v-2.873c0-1.586 0.637-2.236 1.612-2.236 0.793 0 1.313 0.611 1.313 1.521v3.588h1.716v-3.952c0-1.612-1.04-2.73-2.6-2.73zm10.78-2.678h-1.716v3.393c-0.546-0.455-1.261-0.715-2.145-0.715-1.651 0-3.185 1.404-3.185 3.445s1.534 3.432 3.185 3.432c0.884 0 1.599-0.26 2.145-0.702v0.507h1.716v-9.36zm-3.562 8.06c-1.04 0-1.82-0.741-1.82-1.937s0.78-1.95 1.82-1.95c0.923 0 1.846 0.754 1.846 1.95s-0.923 1.937-1.846 1.937zm11.5-2.067c-0.065-1.976-1.56-3.315-3.289-3.315-1.859 0-3.354 1.404-3.354 3.445s1.495 3.432 3.328 3.432c1.417 0 2.574-0.65 3.146-2.002l-1.534-0.325c-0.468 0.793-1.105 0.858-1.612 0.858-0.793 0-1.456-0.572-1.625-1.508h4.94v-0.585zm-3.289-1.82c0.689 0 1.313 0.364 1.534 1.196h-3.133c0.208-0.806 0.949-1.196 1.599-1.196zm11.119-4.173h-1.716v3.393c-0.546-0.455-1.261-0.715-2.145-0.715-1.651 0-3.185 1.404-3.185 3.445s1.534 3.432 3.185 3.432c0.884 0 1.599-0.26 2.145-0.702v0.507h1.716v-9.36zm-3.562 8.06c-1.04 0-1.82-0.741-1.82-1.937s0.78-1.95 1.82-1.95c0.923 0 1.846 0.754 1.846 1.95s-0.923 1.937-1.846 1.937z" fill="#C9F5EC"/>
</svg>
