<svg width="1181" height="166" viewBox="0 0 1181 166" fill="none" xmlns="http://www.w3.org/2000/svg">
<g filter="url(#filter0_d_1104_1141)">
<rect x="3" y="3" width="1170" height="155" rx="6" fill="white"/>
<rect x="3.62416" y="3.62416" width="1168.75" height="153.752" rx="5.37584" stroke="#E6E6EA" stroke-width="1.24832"/>
</g>
<path d="M265.186 68.936C265.186 66.536 263.698 65.144 261.058 64.544L257.962 63.848C257.122 63.656 256.786 63.224 256.786 62.6C256.786 61.736 257.578 61.088 258.778 61.088C259.906 61.088 261.274 61.64 261.418 63.56L265.066 62.936C264.826 60.488 263.074 58.808 260.554 58.256V55.52H257.362V58.184C254.674 58.616 252.826 60.296 252.826 62.912C252.826 65.504 254.722 66.704 256.954 67.184L260.002 67.856C261.058 68.096 261.37 68.552 261.37 69.176C261.37 70.064 260.482 70.712 259.162 70.712C257.842 70.712 256.45 70.112 256.21 68.168L252.466 68.888C252.73 71.408 254.818 73.088 257.362 73.64V76.4H260.554V73.712C263.122 73.304 265.186 71.696 265.186 68.936ZM273.884 57.92H271.388L266.204 60.896V64.448L270.044 62.48V74H273.884V57.92ZM283.452 57.56C279.204 57.56 276.372 60.944 276.372 65.96C276.372 70.976 279.204 74.36 283.452 74.36C287.7 74.36 290.556 70.976 290.556 65.96C290.556 60.944 287.7 57.56 283.452 57.56ZM283.452 70.88C281.556 70.88 280.356 68.984 280.356 65.96C280.356 62.96 281.556 61.04 283.452 61.04C285.348 61.04 286.572 62.96 286.572 65.96C286.572 68.984 285.348 70.88 283.452 70.88Z" fill="#000003"/>
<path d="M304.454 59.403H302.584L297.688 73.224H299.558L304.454 59.403ZM304.418 69.756C304.639 71.524 306.356 72.255 308.226 72.255C310.436 72.255 311.949 71.286 311.949 69.416C311.949 68.277 311.218 67.342 309.722 67.019L307.699 66.577C307.036 66.424 306.934 66.135 306.934 65.863C306.934 65.472 307.189 65.03 308.09 65.03C309.025 65.03 309.62 65.523 309.705 66.203L311.847 65.778C311.558 64.299 310.164 63.262 308.158 63.262C306.016 63.262 304.69 64.435 304.69 66.067C304.69 67.291 305.557 68.158 307.087 68.481L308.821 68.838C309.552 68.991 309.756 69.297 309.756 69.603C309.756 70.079 309.263 70.453 308.43 70.453C307.546 70.453 306.798 70.164 306.679 69.297L304.418 69.756ZM321.689 67.597C321.604 65.013 319.649 63.262 317.388 63.262C314.957 63.262 313.002 65.098 313.002 67.767C313.002 70.436 314.957 72.255 317.354 72.255C319.207 72.255 320.72 71.405 321.468 69.637L319.462 69.212C318.85 70.249 318.017 70.334 317.354 70.334C316.317 70.334 315.45 69.586 315.229 68.362H321.689V67.597ZM317.388 65.217C318.289 65.217 319.105 65.693 319.394 66.781H315.297C315.569 65.727 316.538 65.217 317.388 65.217ZM331.928 63.517H329.684V64.197C328.97 63.602 328.035 63.262 326.879 63.262C324.72 63.262 322.714 65.098 322.714 67.767C322.714 70.436 324.72 72.255 326.879 72.255C328.035 72.255 328.97 71.915 329.684 71.337V72H331.928V63.517ZM327.27 70.3C325.91 70.3 324.89 69.331 324.89 67.767C324.89 66.203 325.91 65.217 327.27 65.217C328.477 65.217 329.684 66.203 329.684 67.767C329.684 69.331 328.477 70.3 327.27 70.3ZM339.826 69.756C339.384 69.994 338.806 70.164 338.415 70.164C337.667 70.164 337.174 69.722 337.174 68.702V65.353H339.945V63.517H337.174V60.95H334.93V63.517H333.111V65.353H334.93V68.872C334.93 71.201 336.256 72.255 338.262 72.255C338.976 72.255 339.588 72.102 340.472 71.626L339.826 69.756Z" fill="#66717E"/>
<path d="M249.268 93.27H247.767V100.433C247.767 103.074 246.247 104.803 243.967 104.803C241.649 104.803 240.11 103.074 240.11 100.433V93.27H238.609V100.433C238.609 103.91 240.756 106.247 243.967 106.247C247.159 106.247 249.268 103.91 249.268 100.433V93.27ZM256.691 93.023C253.974 93.023 252.169 94.486 252.169 96.671C252.169 98.704 253.594 99.559 255.228 99.92L258.097 100.547C259.522 100.87 260.168 101.345 260.168 102.542C260.168 103.948 259.009 104.917 257.071 104.917C255.095 104.917 253.632 103.91 253.347 102.124L251.77 102.447C252.074 104.86 254.24 106.247 256.938 106.247C259.788 106.247 261.669 104.784 261.669 102.466C261.669 100.433 260.225 99.54 258.458 99.16L255.684 98.533C254.487 98.286 253.765 97.773 253.765 96.633C253.765 95.265 254.943 94.334 256.653 94.334C258.401 94.334 259.674 95.322 259.959 96.861L261.46 96.519C261.023 94.429 259.237 93.023 256.691 93.023ZM274.34 91.921H273.105L267.633 107.368H268.868L274.34 91.921ZM286.921 104.841C284.071 104.841 281.829 102.561 281.829 99.635C281.829 96.69 284.071 94.429 286.921 94.429C289.125 94.429 290.892 95.607 291.538 97.659L292.982 97.241C292.203 94.676 289.847 93.023 286.921 93.023C283.216 93.023 280.309 95.93 280.309 99.635C280.309 103.34 283.216 106.247 286.921 106.247C289.847 106.247 292.203 104.594 292.982 101.934L291.538 101.592C290.873 103.682 289.125 104.841 286.921 104.841ZM304.597 96.633H303.153V98.134C302.317 97.032 300.987 96.405 299.429 96.405C296.94 96.405 294.755 98.362 294.755 101.326C294.755 104.29 296.94 106.247 299.429 106.247C300.987 106.247 302.317 105.62 303.153 104.518V106H304.597V96.633ZM299.657 104.955C297.719 104.955 296.161 103.549 296.161 101.326C296.161 99.084 297.719 97.678 299.657 97.678C301.424 97.678 303.153 99.084 303.153 101.326C303.153 103.549 301.424 104.955 299.657 104.955ZM312.911 96.405C311.334 96.405 310.137 97.051 309.377 98.191V96.633H307.933V106H309.377V101.497C309.377 99.065 310.669 97.735 312.626 97.735C314.184 97.735 315.229 98.913 315.229 100.661V106H316.673V100.395C316.673 98.02 315.172 96.405 312.911 96.405ZM328.681 96.633H327.237V98.134C326.401 97.032 325.071 96.405 323.513 96.405C321.024 96.405 318.839 98.362 318.839 101.326C318.839 104.29 321.024 106.247 323.513 106.247C325.071 106.247 326.401 105.62 327.237 104.518V106H328.681V96.633ZM323.741 104.955C321.803 104.955 320.245 103.549 320.245 101.326C320.245 99.084 321.803 97.678 323.741 97.678C325.508 97.678 327.237 99.084 327.237 101.326C327.237 103.549 325.508 104.955 323.741 104.955ZM341.004 92.32H339.56V98.134C338.724 97.032 337.394 96.405 335.836 96.405C333.347 96.405 331.162 98.362 331.162 101.326C331.162 104.29 333.347 106.247 335.836 106.247C337.394 106.247 338.724 105.62 339.56 104.518V106H341.004V92.32ZM336.064 104.955C334.126 104.955 332.568 103.549 332.568 101.326C332.568 99.084 334.126 97.678 336.064 97.678C337.831 97.678 339.56 99.084 339.56 101.326C339.56 103.549 337.831 104.955 336.064 104.955ZM353.248 96.633H351.804V98.134C350.968 97.032 349.638 96.405 348.08 96.405C345.591 96.405 343.406 98.362 343.406 101.326C343.406 104.29 345.591 106.247 348.08 106.247C349.638 106.247 350.968 105.62 351.804 104.518V106H353.248V96.633ZM348.308 104.955C346.37 104.955 344.812 103.549 344.812 101.326C344.812 99.084 346.37 97.678 348.308 97.678C350.075 97.678 351.804 99.084 351.804 101.326C351.804 103.549 350.075 104.955 348.308 104.955Z" fill="#2B2B59"/>
<path d="M836.823 68.936C836.823 66.536 835.335 65.144 832.695 64.544L829.599 63.848C828.759 63.656 828.423 63.224 828.423 62.6C828.423 61.736 829.215 61.088 830.415 61.088C831.543 61.088 832.911 61.64 833.055 63.56L836.703 62.936C836.463 60.488 834.711 58.808 832.191 58.256V55.52H828.999V58.184C826.311 58.616 824.463 60.296 824.463 62.912C824.463 65.504 826.359 66.704 828.591 67.184L831.639 67.856C832.695 68.096 833.007 68.552 833.007 69.176C833.007 70.064 832.119 70.712 830.799 70.712C829.479 70.712 828.087 70.112 827.847 68.168L824.103 68.888C824.367 71.408 826.455 73.088 828.999 73.64V76.4H832.191V73.712C834.759 73.304 836.823 71.696 836.823 68.936ZM850.153 70.544H844.297L846.601 68.432C848.761 66.392 849.985 65 849.985 62.768C849.985 59.576 847.585 57.56 844.177 57.56C840.769 57.56 838.393 59.528 838.225 62.768L841.897 63.464C842.041 61.664 842.881 60.872 844.201 60.872C845.377 60.872 846.193 61.64 846.193 62.792C846.193 64.256 845.089 65.216 844.033 66.2L838.489 71.408V74H850.153V70.544ZM858.816 57.56C854.568 57.56 851.736 60.944 851.736 65.96C851.736 70.976 854.568 74.36 858.816 74.36C863.064 74.36 865.92 70.976 865.92 65.96C865.92 60.944 863.064 57.56 858.816 57.56ZM858.816 70.88C856.92 70.88 855.72 68.984 855.72 65.96C855.72 62.96 856.92 61.04 858.816 61.04C860.712 61.04 861.936 62.96 861.936 65.96C861.936 68.984 860.712 70.88 858.816 70.88Z" fill="#000003"/>
<path d="M880.207 59.403H878.337L873.441 73.224H875.311L880.207 59.403ZM891.893 63.262C890.533 63.262 889.496 63.789 888.799 64.656C888.187 63.755 887.15 63.262 886.011 63.262C884.906 63.262 884.073 63.619 883.478 64.214V63.517H881.234V72H883.478V67.92C883.478 66.135 884.226 65.319 885.416 65.319C886.351 65.319 887.082 66.016 887.082 67.155V72H889.326V67.92C889.326 66.135 890.108 65.319 891.298 65.319C892.233 65.319 892.964 66.016 892.964 67.155V72H895.191V66.696C895.191 64.622 893.661 63.262 891.893 63.262ZM901.315 63.313C898.782 63.313 896.691 65.098 896.691 67.767C896.691 70.436 898.782 72.221 901.315 72.221C903.797 72.221 905.888 70.436 905.888 67.767C905.888 65.098 903.797 63.313 901.315 63.313ZM901.315 70.3C900.091 70.3 898.867 69.348 898.867 67.767C898.867 66.186 900.091 65.234 901.315 65.234C902.488 65.234 903.712 66.186 903.712 67.767C903.712 69.348 902.488 70.3 901.315 70.3ZM912.494 63.262C911.372 63.262 910.488 63.619 909.825 64.282V63.517H907.581V72H909.825V68.243C909.825 66.169 910.658 65.319 911.933 65.319C912.97 65.319 913.65 66.118 913.65 67.308V72H915.894V66.832C915.894 64.724 914.534 63.262 912.494 63.262ZM923.581 69.756C923.139 69.994 922.561 70.164 922.17 70.164C921.422 70.164 920.929 69.722 920.929 68.702V65.353H923.7V63.517H920.929V60.95H918.685V63.517H916.866V65.353H918.685V68.872C918.685 71.201 920.011 72.255 922.017 72.255C922.731 72.255 923.343 72.102 924.227 71.626L923.581 69.756ZM930.34 63.262C929.218 63.262 928.334 63.619 927.671 64.282V59.76H925.427V72H927.671V68.243C927.671 66.169 928.504 65.319 929.779 65.319C930.816 65.319 931.496 66.118 931.496 67.308V72H933.74V66.832C933.74 64.724 932.38 63.262 930.34 63.262Z" fill="#66717E"/>
<path d="M813.829 93.023C810.124 93.023 807.236 95.949 807.236 99.635C807.236 103.34 810.124 106.247 813.829 106.247C817.515 106.247 820.403 103.34 820.403 99.635C820.403 95.949 817.515 93.023 813.829 93.023ZM813.829 104.822C810.979 104.822 808.756 102.58 808.756 99.635C808.756 96.709 810.979 94.429 813.829 94.429C816.66 94.429 818.883 96.709 818.883 99.635C818.883 102.58 816.66 104.822 813.829 104.822ZM828.264 104.309C827.789 104.651 827.2 104.879 826.668 104.879C825.623 104.879 824.939 104.195 824.939 102.979V97.849H828.283V96.633H824.939V93.65H823.476V96.633H821.443V97.849H823.476V103.074C823.476 105.145 824.711 106.247 826.573 106.247C827.333 106.247 827.979 106.038 828.739 105.506L828.264 104.309ZM835.571 96.405C833.994 96.405 832.797 97.051 832.037 98.191V92.32H830.593V106H832.037V101.497C832.037 99.065 833.329 97.735 835.286 97.735C836.844 97.735 837.889 98.913 837.889 100.661V106H839.333V100.395C839.333 98.02 837.832 96.405 835.571 96.405ZM851.056 101.079C850.961 98.286 848.985 96.405 846.458 96.405C843.874 96.405 841.613 98.343 841.613 101.345C841.613 104.328 843.874 106.247 846.363 106.247C848.472 106.247 850.106 105.221 850.847 103.264L849.555 102.96C848.89 104.461 847.693 104.974 846.363 104.974C844.748 104.974 843.152 103.72 843.019 101.611H851.056V101.079ZM846.458 97.678C848.016 97.678 849.327 98.685 849.593 100.528H843.076C843.361 98.685 844.938 97.678 846.458 97.678ZM858.77 96.538C857.041 96.538 855.768 97.545 855.008 98.932V96.633H853.545V106H855.008V102.39C855.008 99.863 856.281 97.982 858.77 97.982C858.941 97.982 859.15 97.982 859.321 98.001L859.435 96.614C859.169 96.538 858.998 96.538 858.77 96.538ZM870.19 104.898C868.271 104.898 866.713 103.511 866.713 101.326C866.713 99.179 868.271 97.735 870.19 97.735C871.577 97.735 872.831 98.495 873.249 99.939L874.636 99.521C874.066 97.602 872.242 96.405 870.19 96.405C867.549 96.405 865.307 98.381 865.307 101.326C865.307 104.309 867.549 106.247 870.19 106.247C872.261 106.247 874.104 105.069 874.617 103.15L873.287 102.789C872.831 104.195 871.577 104.898 870.19 104.898ZM881.233 96.424C878.44 96.424 876.255 98.438 876.255 101.307C876.255 104.176 878.44 106.228 881.233 106.228C883.988 106.228 886.192 104.176 886.192 101.307C886.192 98.438 883.988 96.424 881.233 96.424ZM881.233 104.955C879.295 104.955 877.661 103.473 877.661 101.307C877.661 99.16 879.295 97.697 881.233 97.697C883.152 97.697 884.767 99.16 884.767 101.307C884.767 103.473 883.152 104.955 881.233 104.955ZM897.2 96.633H895.737V101.136C895.737 103.568 894.445 104.879 892.488 104.879C890.93 104.879 889.904 103.72 889.904 101.972V96.633H888.441V102.238C888.441 104.613 889.942 106.228 892.203 106.228C893.761 106.228 894.977 105.582 895.737 104.461V105.981H897.2V96.633ZM905.504 96.405C903.927 96.405 902.73 97.051 901.97 98.191V96.633H900.526V106H901.97V101.497C901.97 99.065 903.262 97.735 905.219 97.735C906.777 97.735 907.822 98.913 907.822 100.661V106H909.266V100.395C909.266 98.02 907.765 96.405 905.504 96.405ZM917.531 104.309C917.056 104.651 916.467 104.879 915.935 104.879C914.89 104.879 914.206 104.195 914.206 102.979V97.849H917.55V96.633H914.206V93.65H912.743V96.633H910.71V97.849H912.743V103.074C912.743 105.145 913.978 106.247 915.84 106.247C916.6 106.247 917.246 106.038 918.006 105.506L917.531 104.309ZM925.085 96.538C923.356 96.538 922.083 97.545 921.323 98.932V96.633H919.86V106H921.323V102.39C921.323 99.863 922.596 97.982 925.085 97.982C925.256 97.982 925.465 97.982 925.636 98.001L925.75 96.614C925.484 96.538 925.313 96.538 925.085 96.538ZM928.564 92.833C927.994 92.833 927.576 93.289 927.576 93.802C927.576 94.353 927.994 94.771 928.564 94.771C929.134 94.771 929.571 94.353 929.571 93.802C929.571 93.289 929.134 92.833 928.564 92.833ZM929.305 106V96.633H927.842V106H929.305ZM941.38 101.079C941.285 98.286 939.309 96.405 936.782 96.405C934.198 96.405 931.937 98.343 931.937 101.345C931.937 104.328 934.198 106.247 936.687 106.247C938.796 106.247 940.43 105.221 941.171 103.264L939.879 102.96C939.214 104.461 938.017 104.974 936.687 104.974C935.072 104.974 933.476 103.72 933.343 101.611H941.38V101.079ZM936.782 97.678C938.34 97.678 939.651 98.685 939.917 100.528H933.4C933.685 98.685 935.262 97.678 936.782 97.678ZM943.071 103.473C943.299 105.297 945.009 106.247 947.156 106.247C949.398 106.247 950.937 105.202 950.937 103.359C950.937 101.934 949.892 101.212 948.524 100.908L946.263 100.414C945.351 100.205 944.838 99.863 944.838 99.122C944.838 98.229 945.579 97.583 946.909 97.583C948.296 97.583 949.189 98.286 949.379 99.312L950.766 99.008C950.424 97.488 949.056 96.405 946.947 96.405C944.8 96.405 943.394 97.545 943.394 99.236C943.394 100.528 944.268 101.307 945.826 101.63L947.973 102.105C948.923 102.314 949.512 102.675 949.512 103.454C949.512 104.423 948.619 105.05 947.27 105.05C945.788 105.05 944.648 104.385 944.515 103.15L943.071 103.473Z" fill="#2B2B59"/>
<rect x="587" y="27" width="2" height="107" rx="1" fill="#DDDBDB"/>
<defs>
<filter id="filter0_d_1104_1141" x="0.503356" y="0.503356" width="1179.99" height="164.987" filterUnits="userSpaceOnUse" color-interpolation-filters="sRGB">
<feFlood flood-opacity="0" result="BackgroundImageFix"/>
<feColorMatrix in="SourceAlpha" type="matrix" values="0 0 0 0 0 0 0 0 0 0 0 0 0 0 0 0 0 0 127 0" result="hardAlpha"/>
<feOffset dx="2.49664" dy="2.49664"/>
<feGaussianBlur stdDeviation="2.49664"/>
<feComposite in2="hardAlpha" operator="out"/>
<feColorMatrix type="matrix" values="0 0 0 0 0 0 0 0 0 0 0 0 0 0 0.0352941 0 0 0 0.04 0"/>
<feBlend mode="normal" in2="BackgroundImageFix" result="effect1_dropShadow_1104_1141"/>
<feBlend mode="normal" in="SourceGraphic" in2="effect1_dropShadow_1104_1141" result="shape"/>
</filter>
</defs>
</svg>
