<svg width="1181" height="166" viewBox="0 0 1181 166" fill="none" xmlns="http://www.w3.org/2000/svg">
<g filter="url(#filter0_d_1104_1105)">
<rect x="3" y="3" width="1170" height="155" rx="6" fill="white"/>
<rect x="3.62416" y="3.62416" width="1168.75" height="153.752" rx="5.37584" stroke="#E6E6EA" stroke-width="1.24832"/>
</g>
<path d="M73.7408 68.936C73.7408 66.536 72.2528 65.144 69.6128 64.544L66.5168 63.848C65.6768 63.656 65.3408 63.224 65.3408 62.6C65.3408 61.736 66.1328 61.088 67.3328 61.088C68.4608 61.088 69.8288 61.64 69.9728 63.56L73.6208 62.936C73.3808 60.488 71.6288 58.808 69.1088 58.256V55.52H65.9168V58.184C63.2288 58.616 61.3808 60.296 61.3808 62.912C61.3808 65.504 63.2768 66.704 65.5088 67.184L68.5568 67.856C69.6128 68.096 69.9248 68.552 69.9248 69.176C69.9248 70.064 69.0368 70.712 67.7168 70.712C66.3968 70.712 65.0048 70.112 64.7648 68.168L61.0208 68.888C61.2848 71.408 63.3728 73.088 65.9168 73.64V76.4H69.1088V73.712C71.6768 73.304 73.7408 71.696 73.7408 68.936ZM82.4389 57.92H79.9429L74.7589 60.896V64.448L78.5989 62.48V74H82.4389V57.92ZM89.1751 63.56L89.2711 61.352H96.3751V57.92H85.8151L85.5271 66.8H91.0471C92.4391 66.8 93.3511 67.592 93.3511 68.792C93.3511 70.112 92.4151 71 91.0471 71C89.7271 71 88.5271 70.184 88.5031 68.096L84.7591 68.84C84.8551 72.464 87.6631 74.36 90.9751 74.36C94.6711 74.36 97.0711 72.056 97.0711 68.744C97.0711 65.6 94.9591 63.56 91.4071 63.56H89.1751Z" fill="#000003"/>
<path d="M111.207 59.403H109.337L104.441 73.224H106.311L111.207 59.403ZM122.893 63.262C121.533 63.262 120.496 63.789 119.799 64.656C119.187 63.755 118.15 63.262 117.011 63.262C115.906 63.262 115.073 63.619 114.478 64.214V63.517H112.234V72H114.478V67.92C114.478 66.135 115.226 65.319 116.416 65.319C117.351 65.319 118.082 66.016 118.082 67.155V72H120.326V67.92C120.326 66.135 121.108 65.319 122.298 65.319C123.233 65.319 123.964 66.016 123.964 67.155V72H126.191V66.696C126.191 64.622 124.661 63.262 122.893 63.262ZM132.315 63.313C129.782 63.313 127.691 65.098 127.691 67.767C127.691 70.436 129.782 72.221 132.315 72.221C134.797 72.221 136.888 70.436 136.888 67.767C136.888 65.098 134.797 63.313 132.315 63.313ZM132.315 70.3C131.091 70.3 129.867 69.348 129.867 67.767C129.867 66.186 131.091 65.234 132.315 65.234C133.488 65.234 134.712 66.186 134.712 67.767C134.712 69.348 133.488 70.3 132.315 70.3ZM143.494 63.262C142.372 63.262 141.488 63.619 140.825 64.282V63.517H138.581V72H140.825V68.243C140.825 66.169 141.658 65.319 142.933 65.319C143.97 65.319 144.65 66.118 144.65 67.308V72H146.894V66.832C146.894 64.724 145.534 63.262 143.494 63.262ZM154.581 69.756C154.139 69.994 153.561 70.164 153.17 70.164C152.422 70.164 151.929 69.722 151.929 68.702V65.353H154.7V63.517H151.929V60.95H149.685V63.517H147.866V65.353H149.685V68.872C149.685 71.201 151.011 72.255 153.017 72.255C153.731 72.255 154.343 72.102 155.227 71.626L154.581 69.756ZM161.34 63.262C160.218 63.262 159.334 63.619 158.671 64.282V59.76H156.427V72H158.671V68.243C158.671 66.169 159.504 65.319 160.779 65.319C161.816 65.319 162.496 66.118 162.496 67.308V72H164.74V66.832C164.74 64.724 163.38 63.262 161.34 63.262Z" fill="#66717E"/>
<path d="M66.9274 93.27H65.9964L62.0634 95.588V96.975L65.4644 95.075V106H66.9274V93.27ZM80.6535 101.782V100.509H74.5165V101.782H80.6535ZM95.7454 104.632H89.5704L92.6294 101.782C94.5864 99.939 95.6124 98.799 95.6124 96.918C95.6124 94.6 93.9214 93.023 91.4134 93.023C88.9054 93.023 87.1954 94.619 87.1004 97.089L88.4874 97.374C88.5634 95.436 89.6654 94.334 91.3944 94.334C93.0474 94.334 94.1684 95.379 94.1684 96.937C94.1684 98.552 93.1804 99.464 91.7174 100.794L87.1764 105.031V106H95.7454V104.632ZM99.3867 98.305L99.5767 94.619H105.714V93.27H98.1897L97.9047 99.654H101.914C103.643 99.654 104.783 100.49 104.783 102.143C104.783 103.796 103.567 104.879 101.762 104.879C99.9377 104.879 98.5887 103.701 98.5887 101.592L97.1447 101.877C97.1637 104.632 99.1397 106.247 101.743 106.247C104.441 106.247 106.208 104.556 106.208 102.124C106.208 99.654 104.555 98.305 102.028 98.305H99.3867ZM117.768 93.023C115.051 93.023 113.246 94.486 113.246 96.671C113.246 98.704 114.671 99.559 116.305 99.92L119.174 100.547C120.599 100.87 121.245 101.345 121.245 102.542C121.245 103.948 120.086 104.917 118.148 104.917C116.172 104.917 114.709 103.91 114.424 102.124L112.847 102.447C113.151 104.86 115.317 106.247 118.015 106.247C120.865 106.247 122.746 104.784 122.746 102.466C122.746 100.433 121.302 99.54 119.535 99.16L116.761 98.533C115.564 98.286 114.842 97.773 114.842 96.633C114.842 95.265 116.02 94.334 117.73 94.334C119.478 94.334 120.751 95.322 121.036 96.861L122.537 96.519C122.1 94.429 120.314 93.023 117.768 93.023ZM134.031 101.079C133.936 98.286 131.96 96.405 129.433 96.405C126.849 96.405 124.588 98.343 124.588 101.345C124.588 104.328 126.849 106.247 129.338 106.247C131.447 106.247 133.081 105.221 133.822 103.264L132.53 102.96C131.865 104.461 130.668 104.974 129.338 104.974C127.723 104.974 126.127 103.72 125.994 101.611H134.031V101.079ZM129.433 97.678C130.991 97.678 132.302 98.685 132.568 100.528H126.051C126.336 98.685 127.913 97.678 129.433 97.678ZM145.412 96.633H143.968V98.134C143.132 97.032 141.802 96.405 140.244 96.405C137.755 96.405 135.57 98.362 135.57 101.326C135.57 104.29 137.755 106.247 140.244 106.247C141.802 106.247 143.132 105.62 143.968 104.518V106H145.412V96.633ZM140.472 104.955C138.534 104.955 136.976 103.549 136.976 101.326C136.976 99.084 138.534 97.678 140.472 97.678C142.239 97.678 143.968 99.084 143.968 101.326C143.968 103.549 142.239 104.955 140.472 104.955ZM153.897 104.309C153.422 104.651 152.833 104.879 152.301 104.879C151.256 104.879 150.572 104.195 150.572 102.979V97.849H153.916V96.633H150.572V93.65H149.109V96.633H147.076V97.849H149.109V103.074C149.109 105.145 150.344 106.247 152.206 106.247C152.966 106.247 153.612 106.038 154.372 105.506L153.897 104.309ZM155.427 103.473C155.655 105.297 157.365 106.247 159.512 106.247C161.754 106.247 163.293 105.202 163.293 103.359C163.293 101.934 162.248 101.212 160.88 100.908L158.619 100.414C157.707 100.205 157.194 99.863 157.194 99.122C157.194 98.229 157.935 97.583 159.265 97.583C160.652 97.583 161.545 98.286 161.735 99.312L163.122 99.008C162.78 97.488 161.412 96.405 159.303 96.405C157.156 96.405 155.75 97.545 155.75 99.236C155.75 100.528 156.624 101.307 158.182 101.63L160.329 102.105C161.279 102.314 161.868 102.675 161.868 103.454C161.868 104.423 160.975 105.05 159.626 105.05C158.144 105.05 157.004 104.385 156.871 103.15L155.427 103.473Z" fill="#2B2B59"/>
<path d="M303.581 68.936C303.581 66.536 302.093 65.144 299.453 64.544L296.357 63.848C295.517 63.656 295.181 63.224 295.181 62.6C295.181 61.736 295.973 61.088 297.173 61.088C298.301 61.088 299.669 61.64 299.813 63.56L303.461 62.936C303.221 60.488 301.469 58.808 298.949 58.256V55.52H295.757V58.184C293.069 58.616 291.221 60.296 291.221 62.912C291.221 65.504 293.117 66.704 295.349 67.184L298.397 67.856C299.453 68.096 299.765 68.552 299.765 69.176C299.765 70.064 298.877 70.712 297.557 70.712C296.237 70.712 294.845 70.112 294.605 68.168L290.861 68.888C291.125 71.408 293.213 73.088 295.757 73.64V76.4H298.949V73.712C301.517 73.304 303.581 71.696 303.581 68.936ZM312.279 57.92H309.783L304.599 60.896V64.448L308.439 62.48V74H312.279V57.92ZM326.239 70.544H320.383L322.687 68.432C324.847 66.392 326.071 65 326.071 62.768C326.071 59.576 323.671 57.56 320.263 57.56C316.855 57.56 314.479 59.528 314.311 62.768L317.983 63.464C318.127 61.664 318.967 60.872 320.287 60.872C321.463 60.872 322.279 61.64 322.279 62.792C322.279 64.256 321.175 65.216 320.119 66.2L314.575 71.408V74H326.239V70.544Z" fill="#000003"/>
<path d="M340.707 59.403H338.837L333.941 73.224H335.811L340.707 59.403ZM352.393 63.262C351.033 63.262 349.996 63.789 349.299 64.656C348.687 63.755 347.65 63.262 346.511 63.262C345.406 63.262 344.573 63.619 343.978 64.214V63.517H341.734V72H343.978V67.92C343.978 66.135 344.726 65.319 345.916 65.319C346.851 65.319 347.582 66.016 347.582 67.155V72H349.826V67.92C349.826 66.135 350.608 65.319 351.798 65.319C352.733 65.319 353.464 66.016 353.464 67.155V72H355.691V66.696C355.691 64.622 354.161 63.262 352.393 63.262ZM361.815 63.313C359.282 63.313 357.191 65.098 357.191 67.767C357.191 70.436 359.282 72.221 361.815 72.221C364.297 72.221 366.388 70.436 366.388 67.767C366.388 65.098 364.297 63.313 361.815 63.313ZM361.815 70.3C360.591 70.3 359.367 69.348 359.367 67.767C359.367 66.186 360.591 65.234 361.815 65.234C362.988 65.234 364.212 66.186 364.212 67.767C364.212 69.348 362.988 70.3 361.815 70.3ZM372.994 63.262C371.872 63.262 370.988 63.619 370.325 64.282V63.517H368.081V72H370.325V68.243C370.325 66.169 371.158 65.319 372.433 65.319C373.47 65.319 374.15 66.118 374.15 67.308V72H376.394V66.832C376.394 64.724 375.034 63.262 372.994 63.262ZM384.081 69.756C383.639 69.994 383.061 70.164 382.67 70.164C381.922 70.164 381.429 69.722 381.429 68.702V65.353H384.2V63.517H381.429V60.95H379.185V63.517H377.366V65.353H379.185V68.872C379.185 71.201 380.511 72.255 382.517 72.255C383.231 72.255 383.843 72.102 384.727 71.626L384.081 69.756ZM390.84 63.262C389.718 63.262 388.834 63.619 388.171 64.282V59.76H385.927V72H388.171V68.243C388.171 66.169 389.004 65.319 390.279 65.319C391.316 65.319 391.996 66.118 391.996 67.308V72H394.24V66.832C394.24 64.724 392.88 63.262 390.84 63.262Z" fill="#66717E"/>
<path d="M287.44 104.632H281.265L284.324 101.782C286.281 99.939 287.307 98.799 287.307 96.918C287.307 94.6 285.616 93.023 283.108 93.023C280.6 93.023 278.89 94.619 278.795 97.089L280.182 97.374C280.258 95.436 281.36 94.334 283.089 94.334C284.742 94.334 285.863 95.379 285.863 96.937C285.863 98.552 284.875 99.464 283.412 100.794L278.871 105.031V106H287.44V104.632ZM294.198 97.773C292.621 97.773 291.139 98.571 290.493 99.806C290.436 98.286 290.683 96.538 291.766 95.36C292.317 94.752 293.115 94.353 294.103 94.353C295.433 94.353 296.402 94.904 296.763 96.101L298.207 95.816C297.694 94.011 296.136 93.023 294.16 93.023C292.792 93.023 291.633 93.555 290.797 94.41C289.543 95.702 289.068 97.64 289.068 99.977C289.068 103.929 290.93 106.247 294.084 106.247C296.782 106.247 298.549 104.404 298.549 101.953C298.549 99.559 296.896 97.773 294.198 97.773ZM294.065 104.879C292.374 104.879 291.006 103.701 291.006 101.991C291.006 100.376 292.222 99.027 294.065 99.027C295.813 99.027 297.067 100.281 297.067 101.934C297.067 103.587 295.813 104.879 294.065 104.879ZM311.666 101.782V100.509H305.529V101.782H311.666ZM322.692 93.27H321.761L317.828 95.588V96.975L321.229 95.075V106H322.692V93.27ZM330.681 93.023C327.527 93.023 325.399 95.702 325.399 99.635C325.399 103.587 327.527 106.247 330.681 106.247C333.835 106.247 335.944 103.587 335.944 99.635C335.944 95.702 333.835 93.023 330.681 93.023ZM330.681 104.841C328.401 104.841 326.919 102.732 326.919 99.635C326.919 96.519 328.401 94.41 330.681 94.41C332.942 94.41 334.424 96.519 334.424 99.635C334.424 102.732 332.942 104.841 330.681 104.841ZM343.316 93.023C340.162 93.023 338.034 95.702 338.034 99.635C338.034 103.587 340.162 106.247 343.316 106.247C346.47 106.247 348.579 103.587 348.579 99.635C348.579 95.702 346.47 93.023 343.316 93.023ZM343.316 104.841C341.036 104.841 339.554 102.732 339.554 99.635C339.554 96.519 341.036 94.41 343.316 94.41C345.577 94.41 347.059 96.519 347.059 99.635C347.059 102.732 345.577 104.841 343.316 104.841ZM360.321 93.023C357.604 93.023 355.799 94.486 355.799 96.671C355.799 98.704 357.224 99.559 358.858 99.92L361.727 100.547C363.152 100.87 363.798 101.345 363.798 102.542C363.798 103.948 362.639 104.917 360.701 104.917C358.725 104.917 357.262 103.91 356.977 102.124L355.4 102.447C355.704 104.86 357.87 106.247 360.568 106.247C363.418 106.247 365.299 104.784 365.299 102.466C365.299 100.433 363.855 99.54 362.088 99.16L359.314 98.533C358.117 98.286 357.395 97.773 357.395 96.633C357.395 95.265 358.573 94.334 360.283 94.334C362.031 94.334 363.304 95.322 363.589 96.861L365.09 96.519C364.653 94.429 362.867 93.023 360.321 93.023ZM376.584 101.079C376.489 98.286 374.513 96.405 371.986 96.405C369.402 96.405 367.141 98.343 367.141 101.345C367.141 104.328 369.402 106.247 371.891 106.247C374 106.247 375.634 105.221 376.375 103.264L375.083 102.96C374.418 104.461 373.221 104.974 371.891 104.974C370.276 104.974 368.68 103.72 368.547 101.611H376.584V101.079ZM371.986 97.678C373.544 97.678 374.855 98.685 375.121 100.528H368.604C368.889 98.685 370.466 97.678 371.986 97.678ZM387.965 96.633H386.521V98.134C385.685 97.032 384.355 96.405 382.797 96.405C380.308 96.405 378.123 98.362 378.123 101.326C378.123 104.29 380.308 106.247 382.797 106.247C384.355 106.247 385.685 105.62 386.521 104.518V106H387.965V96.633ZM383.025 104.955C381.087 104.955 379.529 103.549 379.529 101.326C379.529 99.084 381.087 97.678 383.025 97.678C384.792 97.678 386.521 99.084 386.521 101.326C386.521 103.549 384.792 104.955 383.025 104.955ZM396.45 104.309C395.975 104.651 395.386 104.879 394.854 104.879C393.809 104.879 393.125 104.195 393.125 102.979V97.849H396.469V96.633H393.125V93.65H391.662V96.633H389.629V97.849H391.662V103.074C391.662 105.145 392.897 106.247 394.759 106.247C395.519 106.247 396.165 106.038 396.925 105.506L396.45 104.309ZM397.98 103.473C398.208 105.297 399.918 106.247 402.065 106.247C404.307 106.247 405.846 105.202 405.846 103.359C405.846 101.934 404.801 101.212 403.433 100.908L401.172 100.414C400.26 100.205 399.747 99.863 399.747 99.122C399.747 98.229 400.488 97.583 401.818 97.583C403.205 97.583 404.098 98.286 404.288 99.312L405.675 99.008C405.333 97.488 403.965 96.405 401.856 96.405C399.709 96.405 398.303 97.545 398.303 99.236C398.303 100.528 399.177 101.307 400.735 101.63L402.882 102.105C403.832 102.314 404.421 102.675 404.421 103.454C404.421 104.423 403.528 105.05 402.179 105.05C400.697 105.05 399.557 104.385 399.424 103.15L397.98 103.473Z" fill="#2B2B59"/>
<path d="M549.491 68.936C549.491 66.536 548.003 65.144 545.363 64.544L542.267 63.848C541.427 63.656 541.091 63.224 541.091 62.6C541.091 61.736 541.883 61.088 543.083 61.088C544.211 61.088 545.579 61.64 545.723 63.56L549.371 62.936C549.131 60.488 547.379 58.808 544.859 58.256V55.52H541.667V58.184C538.979 58.616 537.131 60.296 537.131 62.912C537.131 65.504 539.027 66.704 541.259 67.184L544.307 67.856C545.363 68.096 545.675 68.552 545.675 69.176C545.675 70.064 544.787 70.712 543.467 70.712C542.147 70.712 540.755 70.112 540.515 68.168L536.771 68.888C537.035 71.408 539.123 73.088 541.667 73.64V76.4H544.859V73.712C547.427 73.304 549.491 71.696 549.491 68.936ZM558.189 57.92H555.693L550.509 60.896V64.448L554.349 62.48V74H558.189V57.92ZM567.517 57.92H565.021L559.837 60.896V64.448L563.677 62.48V74H567.517V57.92Z" fill="#000003"/>
<path d="M582.707 59.403H580.837L575.941 73.224H577.811L582.707 59.403ZM594.393 63.262C593.033 63.262 591.996 63.789 591.299 64.656C590.687 63.755 589.65 63.262 588.511 63.262C587.406 63.262 586.573 63.619 585.978 64.214V63.517H583.734V72H585.978V67.92C585.978 66.135 586.726 65.319 587.916 65.319C588.851 65.319 589.582 66.016 589.582 67.155V72H591.826V67.92C591.826 66.135 592.608 65.319 593.798 65.319C594.733 65.319 595.464 66.016 595.464 67.155V72H597.691V66.696C597.691 64.622 596.161 63.262 594.393 63.262ZM603.815 63.313C601.282 63.313 599.191 65.098 599.191 67.767C599.191 70.436 601.282 72.221 603.815 72.221C606.297 72.221 608.388 70.436 608.388 67.767C608.388 65.098 606.297 63.313 603.815 63.313ZM603.815 70.3C602.591 70.3 601.367 69.348 601.367 67.767C601.367 66.186 602.591 65.234 603.815 65.234C604.988 65.234 606.212 66.186 606.212 67.767C606.212 69.348 604.988 70.3 603.815 70.3ZM614.994 63.262C613.872 63.262 612.988 63.619 612.325 64.282V63.517H610.081V72H612.325V68.243C612.325 66.169 613.158 65.319 614.433 65.319C615.47 65.319 616.15 66.118 616.15 67.308V72H618.394V66.832C618.394 64.724 617.034 63.262 614.994 63.262ZM626.081 69.756C625.639 69.994 625.061 70.164 624.67 70.164C623.922 70.164 623.429 69.722 623.429 68.702V65.353H626.2V63.517H623.429V60.95H621.185V63.517H619.366V65.353H621.185V68.872C621.185 71.201 622.511 72.255 624.517 72.255C625.231 72.255 625.843 72.102 626.727 71.626L626.081 69.756ZM632.84 63.262C631.718 63.262 630.834 63.619 630.171 64.282V59.76H627.927V72H630.171V68.243C630.171 66.169 631.004 65.319 632.279 65.319C633.316 65.319 633.996 66.118 633.996 67.308V72H636.24V66.832C636.24 64.724 634.88 63.262 632.84 63.262Z" fill="#66717E"/>
<path d="M524.415 93.27H523.484L519.551 95.588V96.975L522.952 95.075V106H524.415V93.27ZM532.404 93.023C529.25 93.023 527.122 95.702 527.122 99.635C527.122 103.587 529.25 106.247 532.404 106.247C535.558 106.247 537.667 103.587 537.667 99.635C537.667 95.702 535.558 93.023 532.404 93.023ZM532.404 104.841C530.124 104.841 528.642 102.732 528.642 99.635C528.642 96.519 530.124 94.41 532.404 94.41C534.665 94.41 536.147 96.519 536.147 99.635C536.147 102.732 534.665 104.841 532.404 104.841ZM543.804 93.27H542.873L538.94 95.588V96.975L542.341 95.075V106H543.804V93.27ZM557.53 101.782V100.509H551.393V101.782H557.53ZM572.622 104.632H566.447L569.506 101.782C571.463 99.939 572.489 98.799 572.489 96.918C572.489 94.6 570.798 93.023 568.29 93.023C565.782 93.023 564.072 94.619 563.977 97.089L565.364 97.374C565.44 95.436 566.542 94.334 568.271 94.334C569.924 94.334 571.045 95.379 571.045 96.937C571.045 98.552 570.057 99.464 568.594 100.794L564.053 105.031V106H572.622V104.632ZM576.264 98.305L576.454 94.619H582.591V93.27H575.067L574.782 99.654H578.791C580.52 99.654 581.66 100.49 581.66 102.143C581.66 103.796 580.444 104.879 578.639 104.879C576.815 104.879 575.466 103.701 575.466 101.592L574.022 101.877C574.041 104.632 576.017 106.247 578.62 106.247C581.318 106.247 583.085 104.556 583.085 102.124C583.085 99.654 581.432 98.305 578.905 98.305H576.264ZM590.276 93.023C587.122 93.023 584.994 95.702 584.994 99.635C584.994 103.587 587.122 106.247 590.276 106.247C593.43 106.247 595.539 103.587 595.539 99.635C595.539 95.702 593.43 93.023 590.276 93.023ZM590.276 104.841C587.996 104.841 586.514 102.732 586.514 99.635C586.514 96.519 587.996 94.41 590.276 94.41C592.537 94.41 594.019 96.519 594.019 99.635C594.019 102.732 592.537 104.841 590.276 104.841ZM607.281 93.023C604.564 93.023 602.759 94.486 602.759 96.671C602.759 98.704 604.184 99.559 605.818 99.92L608.687 100.547C610.112 100.87 610.758 101.345 610.758 102.542C610.758 103.948 609.599 104.917 607.661 104.917C605.685 104.917 604.222 103.91 603.937 102.124L602.36 102.447C602.664 104.86 604.83 106.247 607.528 106.247C610.378 106.247 612.259 104.784 612.259 102.466C612.259 100.433 610.815 99.54 609.048 99.16L606.274 98.533C605.077 98.286 604.355 97.773 604.355 96.633C604.355 95.265 605.533 94.334 607.243 94.334C608.991 94.334 610.264 95.322 610.549 96.861L612.05 96.519C611.613 94.429 609.827 93.023 607.281 93.023ZM623.544 101.079C623.449 98.286 621.473 96.405 618.946 96.405C616.362 96.405 614.101 98.343 614.101 101.345C614.101 104.328 616.362 106.247 618.851 106.247C620.96 106.247 622.594 105.221 623.335 103.264L622.043 102.96C621.378 104.461 620.181 104.974 618.851 104.974C617.236 104.974 615.64 103.72 615.507 101.611H623.544V101.079ZM618.946 97.678C620.504 97.678 621.815 98.685 622.081 100.528H615.564C615.849 98.685 617.426 97.678 618.946 97.678ZM634.925 96.633H633.481V98.134C632.645 97.032 631.315 96.405 629.757 96.405C627.268 96.405 625.083 98.362 625.083 101.326C625.083 104.29 627.268 106.247 629.757 106.247C631.315 106.247 632.645 105.62 633.481 104.518V106H634.925V96.633ZM629.985 104.955C628.047 104.955 626.489 103.549 626.489 101.326C626.489 99.084 628.047 97.678 629.985 97.678C631.752 97.678 633.481 99.084 633.481 101.326C633.481 103.549 631.752 104.955 629.985 104.955ZM643.409 104.309C642.934 104.651 642.345 104.879 641.813 104.879C640.768 104.879 640.084 104.195 640.084 102.979V97.849H643.428V96.633H640.084V93.65H638.621V96.633H636.588V97.849H638.621V103.074C638.621 105.145 639.856 106.247 641.718 106.247C642.478 106.247 643.124 106.038 643.884 105.506L643.409 104.309ZM644.94 103.473C645.168 105.297 646.878 106.247 649.025 106.247C651.267 106.247 652.806 105.202 652.806 103.359C652.806 101.934 651.761 101.212 650.393 100.908L648.132 100.414C647.22 100.205 646.707 99.863 646.707 99.122C646.707 98.229 647.448 97.583 648.778 97.583C650.165 97.583 651.058 98.286 651.248 99.312L652.635 99.008C652.293 97.488 650.925 96.405 648.816 96.405C646.669 96.405 645.263 97.545 645.263 99.236C645.263 100.528 646.137 101.307 647.695 101.63L649.842 102.105C650.792 102.314 651.381 102.675 651.381 103.454C651.381 104.423 650.488 105.05 649.139 105.05C647.657 105.05 646.517 104.385 646.384 103.15L644.94 103.473Z" fill="#2B2B59"/>
<path d="M795.186 68.936C795.186 66.536 793.698 65.144 791.058 64.544L787.962 63.848C787.122 63.656 786.786 63.224 786.786 62.6C786.786 61.736 787.578 61.088 788.778 61.088C789.906 61.088 791.274 61.64 791.418 63.56L795.066 62.936C794.826 60.488 793.074 58.808 790.554 58.256V55.52H787.362V58.184C784.674 58.616 782.826 60.296 782.826 62.912C782.826 65.504 784.722 66.704 786.954 67.184L790.002 67.856C791.058 68.096 791.37 68.552 791.37 69.176C791.37 70.064 790.482 70.712 789.162 70.712C787.842 70.712 786.45 70.112 786.21 68.168L782.466 68.888C782.73 71.408 784.818 73.088 787.362 73.64V76.4H790.554V73.712C793.122 73.304 795.186 71.696 795.186 68.936ZM803.884 57.92H801.388L796.204 60.896V64.448L800.044 62.48V74H803.884V57.92ZM813.452 57.56C809.204 57.56 806.372 60.944 806.372 65.96C806.372 70.976 809.204 74.36 813.452 74.36C817.7 74.36 820.556 70.976 820.556 65.96C820.556 60.944 817.7 57.56 813.452 57.56ZM813.452 70.88C811.556 70.88 810.356 68.984 810.356 65.96C810.356 62.96 811.556 61.04 813.452 61.04C815.348 61.04 816.572 62.96 816.572 65.96C816.572 68.984 815.348 70.88 813.452 70.88Z" fill="#000003"/>
<path d="M834.707 59.403H832.837L827.941 73.224H829.811L834.707 59.403ZM846.393 63.262C845.033 63.262 843.996 63.789 843.299 64.656C842.687 63.755 841.65 63.262 840.511 63.262C839.406 63.262 838.573 63.619 837.978 64.214V63.517H835.734V72H837.978V67.92C837.978 66.135 838.726 65.319 839.916 65.319C840.851 65.319 841.582 66.016 841.582 67.155V72H843.826V67.92C843.826 66.135 844.608 65.319 845.798 65.319C846.733 65.319 847.464 66.016 847.464 67.155V72H849.691V66.696C849.691 64.622 848.161 63.262 846.393 63.262ZM855.815 63.313C853.282 63.313 851.191 65.098 851.191 67.767C851.191 70.436 853.282 72.221 855.815 72.221C858.297 72.221 860.388 70.436 860.388 67.767C860.388 65.098 858.297 63.313 855.815 63.313ZM855.815 70.3C854.591 70.3 853.367 69.348 853.367 67.767C853.367 66.186 854.591 65.234 855.815 65.234C856.988 65.234 858.212 66.186 858.212 67.767C858.212 69.348 856.988 70.3 855.815 70.3ZM866.994 63.262C865.872 63.262 864.988 63.619 864.325 64.282V63.517H862.081V72H864.325V68.243C864.325 66.169 865.158 65.319 866.433 65.319C867.47 65.319 868.15 66.118 868.15 67.308V72H870.394V66.832C870.394 64.724 869.034 63.262 866.994 63.262ZM878.081 69.756C877.639 69.994 877.061 70.164 876.67 70.164C875.922 70.164 875.429 69.722 875.429 68.702V65.353H878.2V63.517H875.429V60.95H873.185V63.517H871.366V65.353H873.185V68.872C873.185 71.201 874.511 72.255 876.517 72.255C877.231 72.255 877.843 72.102 878.727 71.626L878.081 69.756ZM884.84 63.262C883.718 63.262 882.834 63.619 882.171 64.282V59.76H879.927V72H882.171V68.243C882.171 66.169 883.004 65.319 884.279 65.319C885.316 65.319 885.996 66.118 885.996 67.308V72H888.24V66.832C888.24 64.724 886.88 63.262 884.84 63.262Z" fill="#66717E"/>
<path d="M775.505 104.632H769.33L772.389 101.782C774.346 99.939 775.372 98.799 775.372 96.918C775.372 94.6 773.681 93.023 771.173 93.023C768.665 93.023 766.955 94.619 766.86 97.089L768.247 97.374C768.323 95.436 769.425 94.334 771.154 94.334C772.807 94.334 773.928 95.379 773.928 96.937C773.928 98.552 772.94 99.464 771.477 100.794L766.936 105.031V106H775.505V104.632ZM779.146 98.305L779.336 94.619H785.473V93.27H777.949L777.664 99.654H781.673C783.402 99.654 784.542 100.49 784.542 102.143C784.542 103.796 783.326 104.879 781.521 104.879C779.697 104.879 778.348 103.701 778.348 101.592L776.904 101.877C776.923 104.632 778.899 106.247 781.502 106.247C784.2 106.247 785.967 104.556 785.967 102.124C785.967 99.654 784.314 98.305 781.787 98.305H779.146ZM791.923 93.27H790.992L787.059 95.588V96.975L790.46 95.075V106H791.923V93.27ZM805.649 101.782V100.509H799.512V101.782H805.649ZM814.604 98.305L814.794 94.619H820.931V93.27H813.407L813.122 99.654H817.131C818.86 99.654 820 100.49 820 102.143C820 103.796 818.784 104.879 816.979 104.879C815.155 104.879 813.806 103.701 813.806 101.592L812.362 101.877C812.381 104.632 814.357 106.247 816.96 106.247C819.658 106.247 821.425 104.556 821.425 102.124C821.425 99.654 819.772 98.305 817.245 98.305H814.604ZM828.616 93.023C825.462 93.023 823.334 95.702 823.334 99.635C823.334 103.587 825.462 106.247 828.616 106.247C831.77 106.247 833.879 103.587 833.879 99.635C833.879 95.702 831.77 93.023 828.616 93.023ZM828.616 104.841C826.336 104.841 824.854 102.732 824.854 99.635C824.854 96.519 826.336 94.41 828.616 94.41C830.877 94.41 832.359 96.519 832.359 99.635C832.359 102.732 830.877 104.841 828.616 104.841ZM841.252 93.023C838.098 93.023 835.97 95.702 835.97 99.635C835.97 103.587 838.098 106.247 841.252 106.247C844.406 106.247 846.515 103.587 846.515 99.635C846.515 95.702 844.406 93.023 841.252 93.023ZM841.252 104.841C838.972 104.841 837.49 102.732 837.49 99.635C837.49 96.519 838.972 94.41 841.252 94.41C843.513 94.41 844.995 96.519 844.995 99.635C844.995 102.732 843.513 104.841 841.252 104.841ZM858.257 93.023C855.54 93.023 853.735 94.486 853.735 96.671C853.735 98.704 855.16 99.559 856.794 99.92L859.663 100.547C861.088 100.87 861.734 101.345 861.734 102.542C861.734 103.948 860.575 104.917 858.637 104.917C856.661 104.917 855.198 103.91 854.913 102.124L853.336 102.447C853.64 104.86 855.806 106.247 858.504 106.247C861.354 106.247 863.235 104.784 863.235 102.466C863.235 100.433 861.791 99.54 860.024 99.16L857.25 98.533C856.053 98.286 855.331 97.773 855.331 96.633C855.331 95.265 856.509 94.334 858.219 94.334C859.967 94.334 861.24 95.322 861.525 96.861L863.026 96.519C862.589 94.429 860.803 93.023 858.257 93.023ZM874.52 101.079C874.425 98.286 872.449 96.405 869.922 96.405C867.338 96.405 865.077 98.343 865.077 101.345C865.077 104.328 867.338 106.247 869.827 106.247C871.936 106.247 873.57 105.221 874.311 103.264L873.019 102.96C872.354 104.461 871.157 104.974 869.827 104.974C868.212 104.974 866.616 103.72 866.483 101.611H874.52V101.079ZM869.922 97.678C871.48 97.678 872.791 98.685 873.057 100.528H866.54C866.825 98.685 868.402 97.678 869.922 97.678ZM885.901 96.633H884.457V98.134C883.621 97.032 882.291 96.405 880.733 96.405C878.244 96.405 876.059 98.362 876.059 101.326C876.059 104.29 878.244 106.247 880.733 106.247C882.291 106.247 883.621 105.62 884.457 104.518V106H885.901V96.633ZM880.961 104.955C879.023 104.955 877.465 103.549 877.465 101.326C877.465 99.084 879.023 97.678 880.961 97.678C882.728 97.678 884.457 99.084 884.457 101.326C884.457 103.549 882.728 104.955 880.961 104.955ZM894.385 104.309C893.91 104.651 893.321 104.879 892.789 104.879C891.744 104.879 891.06 104.195 891.06 102.979V97.849H894.404V96.633H891.06V93.65H889.597V96.633H887.564V97.849H889.597V103.074C889.597 105.145 890.832 106.247 892.694 106.247C893.454 106.247 894.1 106.038 894.86 105.506L894.385 104.309ZM895.916 103.473C896.144 105.297 897.854 106.247 900.001 106.247C902.243 106.247 903.782 105.202 903.782 103.359C903.782 101.934 902.737 101.212 901.369 100.908L899.108 100.414C898.196 100.205 897.683 99.863 897.683 99.122C897.683 98.229 898.424 97.583 899.754 97.583C901.141 97.583 902.034 98.286 902.224 99.312L903.611 99.008C903.269 97.488 901.901 96.405 899.792 96.405C897.645 96.405 896.239 97.545 896.239 99.236C896.239 100.528 897.113 101.307 898.671 101.63L900.818 102.105C901.768 102.314 902.357 102.675 902.357 103.454C902.357 104.423 901.464 105.05 900.115 105.05C898.633 105.05 897.493 104.385 897.36 103.15L895.916 103.473Z" fill="#2B2B59"/>
<path d="M1034.44 68.936C1034.44 66.536 1032.95 65.144 1030.31 64.544L1027.22 63.848C1026.38 63.656 1026.04 63.224 1026.04 62.6C1026.04 61.736 1026.83 61.088 1028.03 61.088C1029.16 61.088 1030.53 61.64 1030.67 63.56L1034.32 62.936C1034.08 60.488 1032.33 58.808 1029.81 58.256V55.52H1026.62V58.184C1023.93 58.616 1022.08 60.296 1022.08 62.912C1022.08 65.504 1023.98 66.704 1026.21 67.184L1029.26 67.856C1030.31 68.096 1030.62 68.552 1030.62 69.176C1030.62 70.064 1029.74 70.712 1028.42 70.712C1027.1 70.712 1025.7 70.112 1025.46 68.168L1021.72 68.888C1021.98 71.408 1024.07 73.088 1026.62 73.64V76.4H1029.81V73.712C1032.38 73.304 1034.44 71.696 1034.44 68.936ZM1045.68 65.768C1047.19 65.072 1048.08 63.776 1048.08 62.072C1048.08 59.432 1045.71 57.56 1042.3 57.56C1038.89 57.56 1036.51 59.432 1036.51 62.072C1036.51 63.8 1037.38 65.072 1038.89 65.768C1037.02 66.464 1035.96 67.832 1035.96 69.608C1035.96 72.392 1038.51 74.36 1042.3 74.36C1046.07 74.36 1048.59 72.392 1048.59 69.608C1048.59 67.856 1047.53 66.488 1045.68 65.768ZM1042.27 60.536C1043.38 60.536 1044.41 61.184 1044.41 62.384C1044.41 63.584 1043.38 64.256 1042.27 64.256C1041.17 64.256 1040.19 63.608 1040.19 62.408C1040.19 61.184 1041.17 60.536 1042.27 60.536ZM1042.27 71.24C1041.1 71.24 1040.09 70.568 1040.09 69.32C1040.09 68.024 1041.1 67.352 1042.27 67.352C1043.43 67.352 1044.51 68.024 1044.51 69.272C1044.51 70.544 1043.43 71.24 1042.27 71.24Z" fill="#000003"/>
<path d="M1062.71 59.403H1060.84L1055.94 73.224H1057.81L1062.71 59.403ZM1074.39 63.262C1073.03 63.262 1072 63.789 1071.3 64.656C1070.69 63.755 1069.65 63.262 1068.51 63.262C1067.41 63.262 1066.57 63.619 1065.98 64.214V63.517H1063.73V72H1065.98V67.92C1065.98 66.135 1066.73 65.319 1067.92 65.319C1068.85 65.319 1069.58 66.016 1069.58 67.155V72H1071.83V67.92C1071.83 66.135 1072.61 65.319 1073.8 65.319C1074.73 65.319 1075.46 66.016 1075.46 67.155V72H1077.69V66.696C1077.69 64.622 1076.16 63.262 1074.39 63.262ZM1083.81 63.313C1081.28 63.313 1079.19 65.098 1079.19 67.767C1079.19 70.436 1081.28 72.221 1083.81 72.221C1086.3 72.221 1088.39 70.436 1088.39 67.767C1088.39 65.098 1086.3 63.313 1083.81 63.313ZM1083.81 70.3C1082.59 70.3 1081.37 69.348 1081.37 67.767C1081.37 66.186 1082.59 65.234 1083.81 65.234C1084.99 65.234 1086.21 66.186 1086.21 67.767C1086.21 69.348 1084.99 70.3 1083.81 70.3ZM1094.99 63.262C1093.87 63.262 1092.99 63.619 1092.32 64.282V63.517H1090.08V72H1092.32V68.243C1092.32 66.169 1093.16 65.319 1094.43 65.319C1095.47 65.319 1096.15 66.118 1096.15 67.308V72H1098.39V66.832C1098.39 64.724 1097.03 63.262 1094.99 63.262ZM1106.08 69.756C1105.64 69.994 1105.06 70.164 1104.67 70.164C1103.92 70.164 1103.43 69.722 1103.43 68.702V65.353H1106.2V63.517H1103.43V60.95H1101.19V63.517H1099.37V65.353H1101.19V68.872C1101.19 71.201 1102.51 72.255 1104.52 72.255C1105.23 72.255 1105.84 72.102 1106.73 71.626L1106.08 69.756ZM1112.84 63.262C1111.72 63.262 1110.83 63.619 1110.17 64.282V59.76H1107.93V72H1110.17V68.243C1110.17 66.169 1111 65.319 1112.28 65.319C1113.32 65.319 1114 66.118 1114 67.308V72H1116.24V66.832C1116.24 64.724 1114.88 63.262 1112.84 63.262Z" fill="#66717E"/>
<path d="M1020.02 98.305L1020.21 94.619H1026.35V93.27H1018.82L1018.54 99.654H1022.55C1024.28 99.654 1025.42 100.49 1025.42 102.143C1025.42 103.796 1024.2 104.879 1022.4 104.879C1020.57 104.879 1019.22 103.701 1019.22 101.592L1017.78 101.877C1017.8 104.632 1019.77 106.247 1022.38 106.247C1025.08 106.247 1026.84 104.556 1026.84 102.124C1026.84 99.654 1025.19 98.305 1022.66 98.305H1020.02ZM1034.03 93.023C1030.88 93.023 1028.75 95.702 1028.75 99.635C1028.75 103.587 1030.88 106.247 1034.03 106.247C1037.19 106.247 1039.3 103.587 1039.3 99.635C1039.3 95.702 1037.19 93.023 1034.03 93.023ZM1034.03 104.841C1031.75 104.841 1030.27 102.732 1030.27 99.635C1030.27 96.519 1031.75 94.41 1034.03 94.41C1036.29 94.41 1037.78 96.519 1037.78 99.635C1037.78 102.732 1036.29 104.841 1034.03 104.841ZM1046.67 93.023C1043.52 93.023 1041.39 95.702 1041.39 99.635C1041.39 103.587 1043.52 106.247 1046.67 106.247C1049.82 106.247 1051.93 103.587 1051.93 99.635C1051.93 95.702 1049.82 93.023 1046.67 93.023ZM1046.67 104.841C1044.39 104.841 1042.91 102.732 1042.91 99.635C1042.91 96.519 1044.39 94.41 1046.67 94.41C1048.93 94.41 1050.41 96.519 1050.41 99.635C1050.41 102.732 1048.93 104.841 1046.67 104.841ZM1062.58 100.851V99.559H1059.04V95.987H1057.75V99.559H1054.22V100.851H1057.75V104.423H1059.04V100.851H1062.58ZM1074.6 93.023C1071.89 93.023 1070.08 94.486 1070.08 96.671C1070.08 98.704 1071.51 99.559 1073.14 99.92L1076.01 100.547C1077.43 100.87 1078.08 101.345 1078.08 102.542C1078.08 103.948 1076.92 104.917 1074.98 104.917C1073.01 104.917 1071.54 103.91 1071.26 102.124L1069.68 102.447C1069.99 104.86 1072.15 106.247 1074.85 106.247C1077.7 106.247 1079.58 104.784 1079.58 102.466C1079.58 100.433 1078.14 99.54 1076.37 99.16L1073.6 98.533C1072.4 98.286 1071.68 97.773 1071.68 96.633C1071.68 95.265 1072.85 94.334 1074.56 94.334C1076.31 94.334 1077.59 95.322 1077.87 96.861L1079.37 96.519C1078.93 94.429 1077.15 93.023 1074.6 93.023ZM1090.87 101.079C1090.77 98.286 1088.79 96.405 1086.27 96.405C1083.68 96.405 1081.42 98.343 1081.42 101.345C1081.42 104.328 1083.68 106.247 1086.17 106.247C1088.28 106.247 1089.92 105.221 1090.66 103.264L1089.36 102.96C1088.7 104.461 1087.5 104.974 1086.17 104.974C1084.56 104.974 1082.96 103.72 1082.83 101.611H1090.87V101.079ZM1086.27 97.678C1087.83 97.678 1089.14 98.685 1089.4 100.528H1082.89C1083.17 98.685 1084.75 97.678 1086.27 97.678ZM1102.25 96.633H1100.8V98.134C1099.97 97.032 1098.64 96.405 1097.08 96.405C1094.59 96.405 1092.41 98.362 1092.41 101.326C1092.41 104.29 1094.59 106.247 1097.08 106.247C1098.64 106.247 1099.97 105.62 1100.8 104.518V106H1102.25V96.633ZM1097.31 104.955C1095.37 104.955 1093.81 103.549 1093.81 101.326C1093.81 99.084 1095.37 97.678 1097.31 97.678C1099.07 97.678 1100.8 99.084 1100.8 101.326C1100.8 103.549 1099.07 104.955 1097.31 104.955ZM1110.73 104.309C1110.26 104.651 1109.67 104.879 1109.14 104.879C1108.09 104.879 1107.41 104.195 1107.41 102.979V97.849H1110.75V96.633H1107.41V93.65H1105.94V96.633H1103.91V97.849H1105.94V103.074C1105.94 105.145 1107.18 106.247 1109.04 106.247C1109.8 106.247 1110.45 106.038 1111.21 105.506L1110.73 104.309ZM1112.26 103.473C1112.49 105.297 1114.2 106.247 1116.35 106.247C1118.59 106.247 1120.13 105.202 1120.13 103.359C1120.13 101.934 1119.08 101.212 1117.72 100.908L1115.45 100.414C1114.54 100.205 1114.03 99.863 1114.03 99.122C1114.03 98.229 1114.77 97.583 1116.1 97.583C1117.49 97.583 1118.38 98.286 1118.57 99.312L1119.96 99.008C1119.62 97.488 1118.25 96.405 1116.14 96.405C1113.99 96.405 1112.59 97.545 1112.59 99.236C1112.59 100.528 1113.46 101.307 1115.02 101.63L1117.16 102.105C1118.11 102.314 1118.7 102.675 1118.7 103.454C1118.7 104.423 1117.81 105.05 1116.46 105.05C1114.98 105.05 1113.84 104.385 1113.71 103.15L1112.26 103.473Z" fill="#2B2B59"/>
<rect x="221" y="27" width="2" height="107" rx="1" fill="#DDDBDB"/>
<rect x="462" y="27" width="2" height="107" rx="1" fill="#DDDBDB"/>
<rect x="709" y="27" width="2" height="107" rx="1" fill="#DDDBDB"/>
<rect x="960" y="27" width="2" height="107" rx="1" fill="#DDDBDB"/>
<defs>
<filter id="filter0_d_1104_1105" x="0.503356" y="0.503356" width="1179.99" height="164.987" filterUnits="userSpaceOnUse" color-interpolation-filters="sRGB">
<feFlood flood-opacity="0" result="BackgroundImageFix"/>
<feColorMatrix in="SourceAlpha" type="matrix" values="0 0 0 0 0 0 0 0 0 0 0 0 0 0 0 0 0 0 127 0" result="hardAlpha"/>
<feOffset dx="2.49664" dy="2.49664"/>
<feGaussianBlur stdDeviation="2.49664"/>
<feComposite in2="hardAlpha" operator="out"/>
<feColorMatrix type="matrix" values="0 0 0 0 0 0 0 0 0 0 0 0 0 0 0.0352941 0 0 0 0.04 0"/>
<feBlend mode="normal" in2="BackgroundImageFix" result="effect1_dropShadow_1104_1105"/>
<feBlend mode="normal" in="SourceGraphic" in2="effect1_dropShadow_1104_1105" result="shape"/>
</filter>
</defs>
</svg>
