<svg width="770" height="269" viewBox="0 0 770 269" fill="none" xmlns="http://www.w3.org/2000/svg">
<path d="M2.418 5.551H7.397V4.29H1.027V13H2.418V9.399H6.916V8.138H2.418V5.551ZM14.5994 6.552H13.2474V9.529C13.2474 11.154 12.4934 11.934 11.3364 11.934C10.4004 11.934 9.78941 11.219 9.78941 10.166V6.552H8.43741V10.439C8.43741 12.064 9.46441 13.182 11.0244 13.182C11.9734 13.182 12.7274 12.831 13.2474 12.207V13H14.5994V6.552ZM18.0069 13V3.64H16.6549V13H18.0069ZM21.4093 13V3.64H20.0573V13H21.4093ZM30.2595 6.37C29.2975 6.37 28.5435 6.721 28.0235 7.345V6.552H26.6715V13H28.0235V10.023C28.0235 8.398 28.7905 7.618 29.9475 7.618C30.8705 7.618 31.4815 8.32 31.4815 9.373V13H32.8465V9.1C32.8465 7.488 31.8065 6.37 30.2595 6.37ZM41.0381 6.552H39.6861V7.293C39.1271 6.708 38.3211 6.37 37.3461 6.37C35.6561 6.37 34.1481 7.748 34.1481 9.776C34.1481 11.817 35.6561 13.182 37.3461 13.182C38.3211 13.182 39.1271 12.844 39.6861 12.259V13H41.0381V6.552ZM37.5671 11.986C36.3841 11.986 35.4611 11.141 35.4611 9.776C35.4611 8.424 36.3841 7.566 37.5671 7.566C38.6331 7.566 39.6861 8.424 39.6861 9.776C39.6861 11.141 38.6331 11.986 37.5671 11.986ZM51.0556 6.37C49.9896 6.37 49.1706 6.825 48.6506 7.553C48.2346 6.799 47.4286 6.37 46.5056 6.37C45.5826 6.37 44.9066 6.708 44.4386 7.28V6.552H43.0866V13H44.4386V9.802C44.4386 8.359 45.1146 7.618 46.1546 7.618C46.9866 7.618 47.6106 8.216 47.6106 9.165V13H48.9626V9.802C48.9626 8.359 49.6516 7.618 50.7046 7.618C51.5366 7.618 52.1606 8.216 52.1606 9.165V13H53.4996V8.892C53.4996 7.371 52.3946 6.37 51.0556 6.37ZM61.4197 9.633C61.3547 7.696 59.9247 6.37 58.1957 6.37C56.3757 6.37 54.8547 7.735 54.8547 9.789C54.8547 11.83 56.3887 13.182 58.1437 13.182C59.5737 13.182 60.7177 12.506 61.2507 11.154L60.0417 10.894C59.5867 11.804 58.8587 12.012 58.1437 12.012C57.1947 12.012 56.3237 11.297 56.1937 10.101H61.4197V9.633ZM58.1957 7.566C59.0797 7.566 59.8207 8.086 60.0287 9.139H56.2327C56.4407 8.099 57.3507 7.566 58.1957 7.566Z" fill="#000009"/>
<path d="M68.7936 5.993L70.2756 5.135L69.8596 4.394L68.4166 5.226V3.64H67.4676V5.226L66.0246 4.394L65.6086 5.135L67.0906 5.993L65.6086 6.851L66.0246 7.579L67.4676 6.747V8.346H68.4166V6.747L69.8596 7.579L70.2756 6.851L68.7936 5.993Z" fill="#E71D36"/>
<rect x="0.5" y="26.5" width="369" height="50" rx="5.5" fill="white"/>
<path d="M23.03 48.405V46.95H14.345V48.405H17.87V57H19.49V48.405H23.03ZM31.2037 49.545H29.4637L27.0787 54.915L24.7537 49.545H23.0137L26.2237 56.82L25.0087 59.55H26.7487L31.2037 49.545ZM36.8473 49.35C35.7223 49.35 34.7923 49.74 34.1473 50.415V49.56H32.5873V59.55H34.1473V56.145C34.7923 56.82 35.7223 57.21 36.8473 57.21C38.7973 57.21 40.5373 55.635 40.5373 53.28C40.5373 50.94 38.7973 49.35 36.8473 49.35ZM36.5923 55.83C35.3623 55.83 34.1473 54.855 34.1473 53.28C34.1473 51.72 35.3623 50.73 36.5923 50.73C37.9573 50.73 39.0223 51.72 39.0223 53.28C39.0223 54.855 37.9573 55.83 36.5923 55.83ZM49.1853 53.115C49.1103 50.88 47.4603 49.35 45.4653 49.35C43.3653 49.35 41.6103 50.925 41.6103 53.295C41.6103 55.65 43.3803 57.21 45.4053 57.21C47.0553 57.21 48.3753 56.43 48.9903 54.87L47.5953 54.57C47.0703 55.62 46.2303 55.86 45.4053 55.86C44.3103 55.86 43.3053 55.035 43.1553 53.655H49.1853V53.115ZM45.4653 50.73C46.4853 50.73 47.3403 51.33 47.5803 52.545H43.2003C43.4403 51.345 44.4903 50.73 45.4653 50.73ZM61.8336 49.545H60.0936L57.7086 54.915L55.3836 49.545H53.6436L56.8536 56.82L55.6386 59.55H57.3786L61.8336 49.545ZM66.3575 49.395C64.1525 49.395 62.3525 50.97 62.3525 53.28C62.3525 55.59 64.1525 57.18 66.3575 57.18C68.5475 57.18 70.3325 55.59 70.3325 53.28C70.3325 50.97 68.5475 49.395 66.3575 49.395ZM66.3575 55.83C65.0525 55.83 63.8825 54.825 63.8825 53.28C63.8825 51.735 65.0525 50.73 66.3575 50.73C67.6325 50.73 68.8175 51.735 68.8175 53.28C68.8175 54.825 67.6325 55.83 66.3575 55.83ZM79.0095 49.56H77.4495V52.995C77.4495 54.87 76.5795 55.77 75.2445 55.77C74.1645 55.77 73.4595 54.945 73.4595 53.73V49.56H71.8995V54.045C71.8995 55.92 73.0845 57.21 74.8845 57.21C75.9795 57.21 76.8495 56.805 77.4495 56.085V57H79.0095V49.56ZM89.2273 49.35C88.1173 49.35 87.2473 49.755 86.6473 50.475V49.56H85.0873V57H86.6473V53.565C86.6473 51.69 87.5323 50.79 88.8673 50.79C89.9323 50.79 90.6373 51.6 90.6373 52.815V57H92.2123V52.5C92.2123 50.64 91.0123 49.35 89.2273 49.35ZM101.664 49.56H100.104V50.415C99.4591 49.74 98.5291 49.35 97.4041 49.35C95.4541 49.35 93.7141 50.94 93.7141 53.28C93.7141 55.635 95.4541 57.21 97.4041 57.21C98.5291 57.21 99.4591 56.82 100.104 56.145V57H101.664V49.56ZM97.6591 55.83C96.2941 55.83 95.2291 54.855 95.2291 53.28C95.2291 51.72 96.2941 50.73 97.6591 50.73C98.8891 50.73 100.104 51.72 100.104 53.28C100.104 54.855 98.8891 55.83 97.6591 55.83ZM113.223 49.35C111.993 49.35 111.048 49.875 110.448 50.715C109.968 49.845 109.038 49.35 107.973 49.35C106.908 49.35 106.128 49.74 105.588 50.4V49.56H104.028V57H105.588V53.31C105.588 51.645 106.368 50.79 107.568 50.79C108.528 50.79 109.248 51.48 109.248 52.575V57H110.808V53.31C110.808 51.645 111.603 50.79 112.818 50.79C113.778 50.79 114.498 51.48 114.498 52.575V57H116.043V52.26C116.043 50.505 114.768 49.35 113.223 49.35ZM125.181 53.115C125.106 50.88 123.456 49.35 121.461 49.35C119.361 49.35 117.606 50.925 117.606 53.295C117.606 55.65 119.376 57.21 121.401 57.21C123.051 57.21 124.371 56.43 124.986 54.87L123.591 54.57C123.066 55.62 122.226 55.86 121.401 55.86C120.306 55.86 119.301 55.035 119.151 53.655H125.181V53.115ZM121.461 50.73C122.481 50.73 123.336 51.33 123.576 52.545H119.196C119.436 51.345 120.486 50.73 121.461 50.73Z" fill="#B4B4CA"/>
<rect x="0.5" y="26.5" width="369" height="50" rx="5.5" stroke="#DDDBDB"/>
<path d="M407.514 11.739H402.418V9.256H407.111V8.008H402.418V5.551H407.501V4.29H401.027V13H407.514V11.739ZM417.261 6.37C416.195 6.37 415.376 6.825 414.856 7.553C414.44 6.799 413.634 6.37 412.711 6.37C411.788 6.37 411.112 6.708 410.644 7.28V6.552H409.292V13H410.644V9.802C410.644 8.359 411.32 7.618 412.36 7.618C413.192 7.618 413.816 8.216 413.816 9.165V13H415.168V9.802C415.168 8.359 415.857 7.618 416.91 7.618C417.742 7.618 418.366 8.216 418.366 9.165V13H419.705V8.892C419.705 7.371 418.6 6.37 417.261 6.37ZM427.924 6.552H426.572V7.293C426.013 6.708 425.207 6.37 424.232 6.37C422.542 6.37 421.034 7.748 421.034 9.776C421.034 11.817 422.542 13.182 424.232 13.182C425.207 13.182 426.013 12.844 426.572 12.259V13H427.924V6.552ZM424.453 11.986C423.27 11.986 422.347 11.141 422.347 9.776C422.347 8.424 423.27 7.566 424.453 7.566C425.519 7.566 426.572 8.424 426.572 9.776C426.572 11.141 425.519 11.986 424.453 11.986ZM430.752 3.77C430.245 3.77 429.881 4.16 429.881 4.615C429.881 5.096 430.245 5.447 430.752 5.447C431.246 5.447 431.61 5.096 431.61 4.615C431.61 4.16 431.246 3.77 430.752 3.77ZM431.428 13V6.552H430.076V13H431.428ZM434.93 13V3.64H433.578V13H434.93Z" fill="#000009"/>
<path d="M442.857 5.993L444.339 5.135L443.923 4.394L442.48 5.226V3.64H441.531V5.226L440.088 4.394L439.672 5.135L441.154 5.993L439.672 6.851L440.088 7.579L441.531 6.747V8.346H442.48V6.747L443.923 7.579L444.339 6.851L442.857 5.993Z" fill="#E71D36"/>
<rect x="400.5" y="26.5" width="369" height="50" rx="5.5" fill="white"/>
<path d="M423.03 48.405V46.95H414.345V48.405H417.87V57H419.49V48.405H423.03ZM431.204 49.545H429.464L427.079 54.915L424.754 49.545H423.014L426.224 56.82L425.009 59.55H426.749L431.204 49.545ZM436.847 49.35C435.722 49.35 434.792 49.74 434.147 50.415V49.56H432.587V59.55H434.147V56.145C434.792 56.82 435.722 57.21 436.847 57.21C438.797 57.21 440.537 55.635 440.537 53.28C440.537 50.94 438.797 49.35 436.847 49.35ZM436.592 55.83C435.362 55.83 434.147 54.855 434.147 53.28C434.147 51.72 435.362 50.73 436.592 50.73C437.957 50.73 439.022 51.72 439.022 53.28C439.022 54.855 437.957 55.83 436.592 55.83ZM449.185 53.115C449.11 50.88 447.46 49.35 445.465 49.35C443.365 49.35 441.61 50.925 441.61 53.295C441.61 55.65 443.38 57.21 445.405 57.21C447.055 57.21 448.375 56.43 448.99 54.87L447.595 54.57C447.07 55.62 446.23 55.86 445.405 55.86C444.31 55.86 443.305 55.035 443.155 53.655H449.185V53.115ZM445.465 50.73C446.485 50.73 447.34 51.33 447.58 52.545H443.2C443.44 51.345 444.49 50.73 445.465 50.73ZM461.834 49.545H460.094L457.709 54.915L455.384 49.545H453.644L456.854 56.82L455.639 59.55H457.379L461.834 49.545ZM466.358 49.395C464.153 49.395 462.353 50.97 462.353 53.28C462.353 55.59 464.153 57.18 466.358 57.18C468.548 57.18 470.333 55.59 470.333 53.28C470.333 50.97 468.548 49.395 466.358 49.395ZM466.358 55.83C465.053 55.83 463.883 54.825 463.883 53.28C463.883 51.735 465.053 50.73 466.358 50.73C467.633 50.73 468.818 51.735 468.818 53.28C468.818 54.825 467.633 55.83 466.358 55.83ZM479.01 49.56H477.45V52.995C477.45 54.87 476.58 55.77 475.245 55.77C474.165 55.77 473.46 54.945 473.46 53.73V49.56H471.9V54.045C471.9 55.92 473.085 57.21 474.885 57.21C475.98 57.21 476.85 56.805 477.45 56.085V57H479.01V49.56ZM485.776 49.47C484.486 49.47 483.541 50.16 482.941 51.15V49.56H481.381V57H482.941V54.375C482.941 52.335 483.871 51.015 485.761 51.015C485.896 51.015 486.076 51.015 486.196 51.03L486.301 49.53C486.106 49.47 485.956 49.47 485.776 49.47ZM498.316 53.115C498.241 50.88 496.591 49.35 494.596 49.35C492.496 49.35 490.741 50.925 490.741 53.295C490.741 55.65 492.511 57.21 494.536 57.21C496.186 57.21 497.506 56.43 498.121 54.87L496.726 54.57C496.201 55.62 495.361 55.86 494.536 55.86C493.441 55.86 492.436 55.035 492.286 53.655H498.316V53.115ZM494.596 50.73C495.616 50.73 496.471 51.33 496.711 52.545H492.331C492.571 51.345 493.621 50.73 494.596 50.73ZM509.238 49.35C508.008 49.35 507.063 49.875 506.463 50.715C505.983 49.845 505.053 49.35 503.988 49.35C502.923 49.35 502.143 49.74 501.603 50.4V49.56H500.043V57H501.603V53.31C501.603 51.645 502.383 50.79 503.583 50.79C504.543 50.79 505.263 51.48 505.263 52.575V57H506.823V53.31C506.823 51.645 507.618 50.79 508.833 50.79C509.793 50.79 510.513 51.48 510.513 52.575V57H512.058V52.26C512.058 50.505 510.783 49.35 509.238 49.35ZM521.542 49.56H519.982V50.415C519.337 49.74 518.407 49.35 517.282 49.35C515.332 49.35 513.592 50.94 513.592 53.28C513.592 55.635 515.332 57.21 517.282 57.21C518.407 57.21 519.337 56.82 519.982 56.145V57H521.542V49.56ZM517.537 55.83C516.172 55.83 515.107 54.855 515.107 53.28C515.107 51.72 516.172 50.73 517.537 50.73C518.767 50.73 519.982 51.72 519.982 53.28C519.982 54.855 518.767 55.83 517.537 55.83ZM524.806 46.35C524.221 46.35 523.801 46.8 523.801 47.325C523.801 47.88 524.221 48.285 524.806 48.285C525.376 48.285 525.796 47.88 525.796 47.325C525.796 46.8 525.376 46.35 524.806 46.35ZM525.586 57V49.56H524.026V57H525.586ZM529.626 57V46.2H528.066V57H529.626Z" fill="#B4B4CA"/>
<rect x="400.5" y="26.5" width="369" height="50" rx="5.5" stroke="#DDDBDB"/>
<path d="M1.027 113.29V122H2.418V118.932H4.953C6.877 118.932 8.086 117.788 8.086 116.098C8.086 114.434 6.877 113.29 4.953 113.29H1.027ZM2.418 117.658V114.551H4.953C6.045 114.551 6.695 115.201 6.695 116.098C6.695 117.034 6.045 117.658 4.953 117.658H2.418ZM13.1716 115.37C12.2096 115.37 11.4556 115.721 10.9356 116.345V112.64H9.58364V122H10.9356V119.023C10.9356 117.398 11.7026 116.618 12.8596 116.618C13.7826 116.618 14.3936 117.32 14.3936 118.373V122H15.7586V118.1C15.7586 116.488 14.7186 115.37 13.1716 115.37ZM20.5699 115.409C18.6589 115.409 17.0989 116.774 17.0989 118.776C17.0989 120.778 18.6589 122.156 20.5699 122.156C22.4679 122.156 24.0149 120.778 24.0149 118.776C24.0149 116.774 22.4679 115.409 20.5699 115.409ZM20.5699 120.986C19.4389 120.986 18.4249 120.115 18.4249 118.776C18.4249 117.437 19.4389 116.566 20.5699 116.566C21.6749 116.566 22.7019 117.437 22.7019 118.776C22.7019 120.115 21.6749 120.986 20.5699 120.986ZM29.117 115.37C28.155 115.37 27.401 115.721 26.881 116.345V115.552H25.529V122H26.881V119.023C26.881 117.398 27.648 116.618 28.805 116.618C29.728 116.618 30.339 117.32 30.339 118.373V122H31.704V118.1C31.704 116.488 30.664 115.37 29.117 115.37ZM39.5965 118.633C39.5315 116.696 38.1015 115.37 36.3725 115.37C34.5525 115.37 33.0315 116.735 33.0315 118.789C33.0315 120.83 34.5655 122.182 36.3205 122.182C37.7505 122.182 38.8945 121.506 39.4275 120.154L38.2185 119.894C37.7635 120.804 37.0355 121.012 36.3205 121.012C35.3715 121.012 34.5005 120.297 34.3705 119.101H39.5965V118.633ZM36.3725 116.566C37.2565 116.566 37.9975 117.086 38.2055 118.139H34.4095C34.6175 117.099 35.5275 116.566 36.3725 116.566Z" fill="#000009"/>
<rect x="0.5" y="135.5" width="369" height="50" rx="5.5" fill="white"/>
<path d="M23.03 157.405V155.95H14.345V157.405H17.87V166H19.49V157.405H23.03ZM31.2037 158.545H29.4637L27.0787 163.915L24.7537 158.545H23.0137L26.2237 165.82L25.0087 168.55H26.7487L31.2037 158.545ZM36.8473 158.35C35.7223 158.35 34.7923 158.74 34.1473 159.415V158.56H32.5873V168.55H34.1473V165.145C34.7923 165.82 35.7223 166.21 36.8473 166.21C38.7973 166.21 40.5373 164.635 40.5373 162.28C40.5373 159.94 38.7973 158.35 36.8473 158.35ZM36.5923 164.83C35.3623 164.83 34.1473 163.855 34.1473 162.28C34.1473 160.72 35.3623 159.73 36.5923 159.73C37.9573 159.73 39.0223 160.72 39.0223 162.28C39.0223 163.855 37.9573 164.83 36.5923 164.83ZM49.1853 162.115C49.1103 159.88 47.4603 158.35 45.4653 158.35C43.3653 158.35 41.6103 159.925 41.6103 162.295C41.6103 164.65 43.3803 166.21 45.4053 166.21C47.0553 166.21 48.3753 165.43 48.9903 163.87L47.5953 163.57C47.0703 164.62 46.2303 164.86 45.4053 164.86C44.3103 164.86 43.3053 164.035 43.1553 162.655H49.1853V162.115ZM45.4653 159.73C46.4853 159.73 47.3403 160.33 47.5803 161.545H43.2003C43.4403 160.345 44.4903 159.73 45.4653 159.73ZM61.8336 158.545H60.0936L57.7086 163.915L55.3836 158.545H53.6436L56.8536 165.82L55.6386 168.55H57.3786L61.8336 158.545ZM66.3575 158.395C64.1525 158.395 62.3525 159.97 62.3525 162.28C62.3525 164.59 64.1525 166.18 66.3575 166.18C68.5475 166.18 70.3325 164.59 70.3325 162.28C70.3325 159.97 68.5475 158.395 66.3575 158.395ZM66.3575 164.83C65.0525 164.83 63.8825 163.825 63.8825 162.28C63.8825 160.735 65.0525 159.73 66.3575 159.73C67.6325 159.73 68.8175 160.735 68.8175 162.28C68.8175 163.825 67.6325 164.83 66.3575 164.83ZM79.0095 158.56H77.4495V161.995C77.4495 163.87 76.5795 164.77 75.2445 164.77C74.1645 164.77 73.4595 163.945 73.4595 162.73V158.56H71.8995V163.045C71.8995 164.92 73.0845 166.21 74.8845 166.21C75.9795 166.21 76.8495 165.805 77.4495 165.085V166H79.0095V158.56ZM85.7763 158.47C84.4863 158.47 83.5413 159.16 82.9413 160.15V158.56H81.3813V166H82.9413V163.375C82.9413 161.335 83.8713 160.015 85.7613 160.015C85.8963 160.015 86.0763 160.015 86.1963 160.03L86.3013 158.53C86.1063 158.47 85.9563 158.47 85.7763 158.47ZM95.6462 158.35C94.5212 158.35 93.5912 158.74 92.9462 159.415V158.56H91.3862V168.55H92.9462V165.145C93.5912 165.82 94.5212 166.21 95.6462 166.21C97.5962 166.21 99.3362 164.635 99.3362 162.28C99.3362 159.94 97.5962 158.35 95.6462 158.35ZM95.3912 164.83C94.1612 164.83 92.9462 163.855 92.9462 162.28C92.9462 160.72 94.1612 159.73 95.3912 159.73C96.7562 159.73 97.8212 160.72 97.8212 162.28C97.8212 163.855 96.7562 164.83 95.3912 164.83ZM105.194 158.35C104.084 158.35 103.214 158.755 102.614 159.475V155.2H101.054V166H102.614V162.565C102.614 160.69 103.499 159.79 104.834 159.79C105.899 159.79 106.604 160.6 106.604 161.815V166H108.179V161.5C108.179 159.64 106.979 158.35 105.194 158.35ZM113.731 158.395C111.526 158.395 109.726 159.97 109.726 162.28C109.726 164.59 111.526 166.18 113.731 166.18C115.921 166.18 117.706 164.59 117.706 162.28C117.706 159.97 115.921 158.395 113.731 158.395ZM113.731 164.83C112.426 164.83 111.256 163.825 111.256 162.28C111.256 160.735 112.426 159.73 113.731 159.73C115.006 159.73 116.191 160.735 116.191 162.28C116.191 163.825 115.006 164.83 113.731 164.83ZM123.593 158.35C122.483 158.35 121.613 158.755 121.013 159.475V158.56H119.453V166H121.013V162.565C121.013 160.69 121.898 159.79 123.233 159.79C124.298 159.79 125.003 160.6 125.003 161.815V166H126.578V161.5C126.578 159.64 125.378 158.35 123.593 158.35ZM135.684 162.115C135.609 159.88 133.959 158.35 131.964 158.35C129.864 158.35 128.109 159.925 128.109 162.295C128.109 164.65 129.879 166.21 131.904 166.21C133.554 166.21 134.874 165.43 135.489 163.87L134.094 163.57C133.569 164.62 132.729 164.86 131.904 164.86C130.809 164.86 129.804 164.035 129.654 162.655H135.684V162.115ZM131.964 159.73C132.984 159.73 133.839 160.33 134.079 161.545H129.699C129.939 160.345 130.989 159.73 131.964 159.73ZM145.258 158.35C144.148 158.35 143.278 158.755 142.678 159.475V158.56H141.118V166H142.678V162.565C142.678 160.69 143.563 159.79 144.898 159.79C145.963 159.79 146.668 160.6 146.668 161.815V166H148.243V161.5C148.243 159.64 147.043 158.35 145.258 158.35ZM157.32 158.56H155.76V161.995C155.76 163.87 154.89 164.77 153.555 164.77C152.475 164.77 151.77 163.945 151.77 162.73V158.56H150.21V163.045C150.21 164.92 151.395 166.21 153.195 166.21C154.29 166.21 155.16 165.805 155.76 165.085V166H157.32V158.56ZM168.887 158.35C167.657 158.35 166.712 158.875 166.112 159.715C165.632 158.845 164.702 158.35 163.637 158.35C162.572 158.35 161.792 158.74 161.252 159.4V158.56H159.692V166H161.252V162.31C161.252 160.645 162.032 159.79 163.232 159.79C164.192 159.79 164.912 160.48 164.912 161.575V166H166.472V162.31C166.472 160.645 167.267 159.79 168.482 159.79C169.442 159.79 170.162 160.48 170.162 161.575V166H171.707V161.26C171.707 159.505 170.432 158.35 168.887 158.35ZM178.175 158.35C177.05 158.35 176.12 158.74 175.475 159.415V155.2H173.915V166H175.475V165.145C176.12 165.82 177.05 166.21 178.175 166.21C180.125 166.21 181.865 164.635 181.865 162.28C181.865 159.94 180.125 158.35 178.175 158.35ZM177.92 164.83C176.69 164.83 175.475 163.855 175.475 162.28C175.475 160.72 176.69 159.73 177.92 159.73C179.285 159.73 180.35 160.72 180.35 162.28C180.35 163.855 179.285 164.83 177.92 164.83ZM190.513 162.115C190.438 159.88 188.788 158.35 186.793 158.35C184.693 158.35 182.938 159.925 182.938 162.295C182.938 164.65 184.708 166.21 186.733 166.21C188.383 166.21 189.703 165.43 190.318 163.87L188.923 163.57C188.398 164.62 187.558 164.86 186.733 164.86C185.638 164.86 184.633 164.035 184.483 162.655H190.513V162.115ZM186.793 159.73C187.813 159.73 188.668 160.33 188.908 161.545H184.528C184.768 160.345 185.818 159.73 186.793 159.73ZM196.636 158.47C195.346 158.47 194.401 159.16 193.801 160.15V158.56H192.241V166H193.801V163.375C193.801 161.335 194.731 160.015 196.621 160.015C196.756 160.015 196.936 160.015 197.056 160.03L197.161 158.53C196.966 158.47 196.816 158.47 196.636 158.47Z" fill="#B4B4CA"/>
<rect x="0.5" y="135.5" width="369" height="50" rx="5.5" stroke="#DDDBDB"/>
<path d="M412.272 113.29H410.803L408.892 119.855L406.89 113.29H405.551L403.549 119.855L401.638 113.29H400.182L402.782 122H404.264L406.227 115.526L408.177 122H409.659L412.272 113.29ZM418.992 118.633C418.927 116.696 417.497 115.37 415.768 115.37C413.948 115.37 412.427 116.735 412.427 118.789C412.427 120.83 413.961 122.182 415.716 122.182C417.146 122.182 418.29 121.506 418.823 120.154L417.614 119.894C417.159 120.804 416.431 121.012 415.716 121.012C414.767 121.012 413.896 120.297 413.766 119.101H418.992V118.633ZM415.768 116.566C416.652 116.566 417.393 117.086 417.601 118.139H413.805C414.013 117.099 414.923 116.566 415.768 116.566ZM424.181 115.37C423.206 115.37 422.4 115.708 421.841 116.293V112.64H420.489V122H421.841V121.259C422.4 121.844 423.206 122.182 424.181 122.182C425.871 122.182 427.379 120.817 427.379 118.776C427.379 116.748 425.871 115.37 424.181 115.37ZM423.96 120.986C422.894 120.986 421.841 120.141 421.841 118.776C421.841 117.424 422.894 116.566 423.96 116.566C425.143 116.566 426.066 117.424 426.066 118.776C426.066 120.141 425.143 120.986 423.96 120.986ZM428.322 120.271C428.491 121.571 429.726 122.182 431.169 122.182C432.781 122.182 433.886 121.454 433.886 120.102C433.886 119.192 433.249 118.581 432.209 118.36L430.675 118.022C430.103 117.892 429.895 117.658 429.895 117.294C429.895 116.839 430.246 116.449 431.039 116.449C431.871 116.449 432.404 116.878 432.508 117.502L433.795 117.229C433.561 116.15 432.56 115.37 431.078 115.37C429.531 115.37 428.53 116.215 428.53 117.411C428.53 118.321 429.167 118.919 430.285 119.166L431.689 119.452C432.287 119.582 432.56 119.829 432.56 120.219C432.56 120.726 432.066 121.077 431.286 121.077C430.441 121.077 429.765 120.752 429.674 119.985L428.322 120.271ZM436.199 112.77C435.692 112.77 435.328 113.16 435.328 113.615C435.328 114.096 435.692 114.447 436.199 114.447C436.693 114.447 437.057 114.096 437.057 113.615C437.057 113.16 436.693 112.77 436.199 112.77ZM436.875 122V115.552H435.523V122H436.875ZM442.898 120.557C442.56 120.778 442.144 120.908 441.806 120.908C441.169 120.908 440.74 120.518 440.74 119.712V116.67H442.95V115.552H440.74V113.55H439.388V115.552H437.997V116.67H439.388V119.803C439.388 121.402 440.324 122.182 441.715 122.182C442.261 122.182 442.703 122.052 443.314 121.688L442.898 120.557ZM450.248 118.633C450.183 116.696 448.753 115.37 447.024 115.37C445.204 115.37 443.683 116.735 443.683 118.789C443.683 120.83 445.217 122.182 446.972 122.182C448.402 122.182 449.546 121.506 450.079 120.154L448.87 119.894C448.415 120.804 447.687 121.012 446.972 121.012C446.023 121.012 445.152 120.297 445.022 119.101H450.248V118.633ZM447.024 116.566C447.908 116.566 448.649 117.086 448.857 118.139H445.061C445.269 117.099 446.179 116.566 447.024 116.566Z" fill="#000009"/>
<rect x="400.5" y="135.5" width="369" height="50" rx="5.5" fill="white"/>
<path d="M415.185 155.95V166H416.79V162.46H419.715C421.935 162.46 423.33 161.14 423.33 159.19C423.33 157.27 421.935 155.95 419.715 155.95H415.185ZM416.79 160.99V157.405H419.715C420.975 157.405 421.725 158.155 421.725 159.19C421.725 160.27 420.975 160.99 419.715 160.99H416.79ZM432.333 158.56H430.773V159.415C430.128 158.74 429.198 158.35 428.073 158.35C426.123 158.35 424.383 159.94 424.383 162.28C424.383 164.635 426.123 166.21 428.073 166.21C429.198 166.21 430.128 165.82 430.773 165.145V166H432.333V158.56ZM428.328 164.83C426.963 164.83 425.898 163.855 425.898 162.28C425.898 160.72 426.963 159.73 428.328 159.73C429.558 159.73 430.773 160.72 430.773 162.28C430.773 163.855 429.558 164.83 428.328 164.83ZM434.067 164.005C434.262 165.505 435.687 166.21 437.352 166.21C439.212 166.21 440.487 165.37 440.487 163.81C440.487 162.76 439.752 162.055 438.552 161.8L436.782 161.41C436.122 161.26 435.882 160.99 435.882 160.57C435.882 160.045 436.287 159.595 437.202 159.595C438.162 159.595 438.777 160.09 438.897 160.81L440.382 160.495C440.112 159.25 438.957 158.35 437.247 158.35C435.462 158.35 434.307 159.325 434.307 160.705C434.307 161.755 435.042 162.445 436.332 162.73L437.952 163.06C438.642 163.21 438.957 163.495 438.957 163.945C438.957 164.53 438.387 164.935 437.487 164.935C436.512 164.935 435.732 164.56 435.627 163.675L434.067 164.005ZM446.725 164.335C446.335 164.59 445.855 164.74 445.465 164.74C444.73 164.74 444.235 164.29 444.235 163.36V159.85H446.785V158.56H444.235V156.25H442.675V158.56H441.07V159.85H442.675V163.465C442.675 165.31 443.755 166.21 445.36 166.21C445.99 166.21 446.5 166.06 447.205 165.64L446.725 164.335ZM455.206 162.115C455.131 159.88 453.481 158.35 451.486 158.35C449.386 158.35 447.631 159.925 447.631 162.295C447.631 164.65 449.401 166.21 451.426 166.21C453.076 166.21 454.396 165.43 455.011 163.87L453.616 163.57C453.091 164.62 452.251 164.86 451.426 164.86C450.331 164.86 449.326 164.035 449.176 162.655H455.206V162.115ZM451.486 159.73C452.506 159.73 453.361 160.33 453.601 161.545H449.221C449.461 160.345 450.511 159.73 451.486 159.73ZM465.109 164.335C464.719 164.59 464.239 164.74 463.849 164.74C463.114 164.74 462.619 164.29 462.619 163.36V159.85H465.169V158.56H462.619V156.25H461.059V158.56H459.454V159.85H461.059V163.465C461.059 165.31 462.139 166.21 463.744 166.21C464.374 166.21 464.884 166.06 465.589 165.64L465.109 164.335ZM470.99 158.35C469.88 158.35 469.01 158.755 468.41 159.475V155.2H466.85V166H468.41V162.565C468.41 160.69 469.295 159.79 470.63 159.79C471.695 159.79 472.4 160.6 472.4 161.815V166H473.975V161.5C473.975 159.64 472.775 158.35 470.99 158.35ZM483.096 162.115C483.021 159.88 481.371 158.35 479.376 158.35C477.276 158.35 475.521 159.925 475.521 162.295C475.521 164.65 477.291 166.21 479.316 166.21C480.966 166.21 482.286 165.43 482.901 163.87L481.506 163.57C480.981 164.62 480.141 164.86 479.316 164.86C478.221 164.86 477.216 164.035 477.066 162.655H483.096V162.115ZM479.376 159.73C480.396 159.73 481.251 160.33 481.491 161.545H477.111C477.351 160.345 478.401 159.73 479.376 159.73ZM490.09 166V155.2H488.53V166H490.09ZM493.356 155.35C492.771 155.35 492.351 155.8 492.351 156.325C492.351 156.88 492.771 157.285 493.356 157.285C493.926 157.285 494.346 156.88 494.346 156.325C494.346 155.8 493.926 155.35 493.356 155.35ZM494.136 166V158.56H492.576V166H494.136ZM500.756 158.35C499.646 158.35 498.776 158.755 498.176 159.475V158.56H496.616V166H498.176V162.565C498.176 160.69 499.061 159.79 500.396 159.79C501.461 159.79 502.166 160.6 502.166 161.815V166H503.741V161.5C503.741 159.64 502.541 158.35 500.756 158.35ZM513.477 166L509.142 162.16L513.042 158.56H511.047L507.942 161.365H507.477V155.2H505.917V166H507.477V162.91H507.927L511.362 166H513.477ZM522.883 164.335C522.493 164.59 522.013 164.74 521.623 164.74C520.888 164.74 520.393 164.29 520.393 163.36V159.85H522.943V158.56H520.393V156.25H518.833V158.56H517.228V159.85H518.833V163.465C518.833 165.31 519.913 166.21 521.518 166.21C522.148 166.21 522.658 166.06 523.363 165.64L522.883 164.335ZM527.793 158.395C525.588 158.395 523.788 159.97 523.788 162.28C523.788 164.59 525.588 166.18 527.793 166.18C529.983 166.18 531.768 164.59 531.768 162.28C531.768 159.97 529.983 158.395 527.793 158.395ZM527.793 164.83C526.488 164.83 525.318 163.825 525.318 162.28C525.318 160.735 526.488 159.73 527.793 159.73C529.068 159.73 530.253 160.735 530.253 162.28C530.253 163.825 529.068 164.83 527.793 164.83ZM544.436 158.545H542.696L540.311 163.915L537.986 158.545H536.246L539.456 165.82L538.241 168.55H539.981L544.436 158.545ZM548.96 158.395C546.755 158.395 544.955 159.97 544.955 162.28C544.955 164.59 546.755 166.18 548.96 166.18C551.15 166.18 552.935 164.59 552.935 162.28C552.935 159.97 551.15 158.395 548.96 158.395ZM548.96 164.83C547.655 164.83 546.485 163.825 546.485 162.28C546.485 160.735 547.655 159.73 548.96 159.73C550.235 159.73 551.42 160.735 551.42 162.28C551.42 163.825 550.235 164.83 548.96 164.83ZM561.612 158.56H560.052V161.995C560.052 163.87 559.182 164.77 557.847 164.77C556.767 164.77 556.062 163.945 556.062 162.73V158.56H554.502V163.045C554.502 164.92 555.687 166.21 557.487 166.21C558.582 166.21 559.452 165.805 560.052 165.085V166H561.612V158.56ZM568.379 158.47C567.089 158.47 566.144 159.16 565.544 160.15V158.56H563.984V166H565.544V163.375C565.544 161.335 566.474 160.015 568.364 160.015C568.499 160.015 568.679 160.015 568.799 160.03L568.904 158.53C568.709 158.47 568.559 158.47 568.379 158.47ZM584.264 158.56H582.704L581.009 163.735L579.254 158.56H578.024L576.269 163.735L574.574 158.56H573.014L575.504 166.03H576.929L578.639 161.02L580.349 166.03H581.774L584.264 158.56ZM592.535 162.115C592.46 159.88 590.81 158.35 588.815 158.35C586.715 158.35 584.96 159.925 584.96 162.295C584.96 164.65 586.73 166.21 588.755 166.21C590.405 166.21 591.725 165.43 592.34 163.87L590.945 163.57C590.42 164.62 589.58 164.86 588.755 164.86C587.66 164.86 586.655 164.035 586.505 162.655H592.535V162.115ZM588.815 159.73C589.835 159.73 590.69 160.33 590.93 161.545H586.55C586.79 160.345 587.84 159.73 588.815 159.73ZM598.522 158.35C597.397 158.35 596.467 158.74 595.822 159.415V155.2H594.262V166H595.822V165.145C596.467 165.82 597.397 166.21 598.522 166.21C600.472 166.21 602.212 164.635 602.212 162.28C602.212 159.94 600.472 158.35 598.522 158.35ZM598.267 164.83C597.037 164.83 595.822 163.855 595.822 162.28C595.822 160.72 597.037 159.73 598.267 159.73C599.632 159.73 600.697 160.72 600.697 162.28C600.697 163.855 599.632 164.83 598.267 164.83ZM603.3 164.005C603.495 165.505 604.92 166.21 606.585 166.21C608.445 166.21 609.72 165.37 609.72 163.81C609.72 162.76 608.985 162.055 607.785 161.8L606.015 161.41C605.355 161.26 605.115 160.99 605.115 160.57C605.115 160.045 605.52 159.595 606.435 159.595C607.395 159.595 608.01 160.09 608.13 160.81L609.615 160.495C609.345 159.25 608.19 158.35 606.48 158.35C604.695 158.35 603.54 159.325 603.54 160.705C603.54 161.755 604.275 162.445 605.565 162.73L607.185 163.06C607.875 163.21 608.19 163.495 608.19 163.945C608.19 164.53 607.62 164.935 606.72 164.935C605.745 164.935 604.965 164.56 604.86 163.675L603.3 164.005ZM612.389 155.35C611.804 155.35 611.384 155.8 611.384 156.325C611.384 156.88 611.804 157.285 612.389 157.285C612.959 157.285 613.379 156.88 613.379 156.325C613.379 155.8 612.959 155.35 612.389 155.35ZM613.169 166V158.56H611.609V166H613.169ZM620.119 164.335C619.729 164.59 619.249 164.74 618.859 164.74C618.124 164.74 617.629 164.29 617.629 163.36V159.85H620.179V158.56H617.629V156.25H616.069V158.56H614.464V159.85H616.069V163.465C616.069 165.31 617.149 166.21 618.754 166.21C619.384 166.21 619.894 166.06 620.599 165.64L620.119 164.335ZM628.599 162.115C628.524 159.88 626.874 158.35 624.879 158.35C622.779 158.35 621.024 159.925 621.024 162.295C621.024 164.65 622.794 166.21 624.819 166.21C626.469 166.21 627.789 165.43 628.404 163.87L627.009 163.57C626.484 164.62 625.644 164.86 624.819 164.86C623.724 164.86 622.719 164.035 622.569 162.655H628.599V162.115ZM624.879 159.73C625.899 159.73 626.754 160.33 626.994 161.545H622.614C622.854 160.345 623.904 159.73 624.879 159.73Z" fill="#B4B4CA"/>
<rect x="400.5" y="135.5" width="369" height="50" rx="5.5" stroke="#DDDBDB"/>
<rect x="200" y="218" width="370" height="51" rx="6" fill="#25E85F"/>
<path d="M342.26 236.94V249H346.706C350.684 249 353.33 246.57 353.33 242.97C353.33 239.37 350.684 236.94 346.706 236.94H342.26ZM344.708 246.786V239.154H346.706C349.208 239.154 350.864 240.63 350.864 242.97C350.864 245.31 349.208 246.786 346.706 246.786H344.708ZM359.479 239.802C356.797 239.802 354.583 241.692 354.583 244.518C354.583 247.344 356.797 249.234 359.479 249.234C362.107 249.234 364.321 247.344 364.321 244.518C364.321 241.692 362.107 239.802 359.479 239.802ZM359.479 247.2C358.183 247.2 356.887 246.192 356.887 244.518C356.887 242.844 358.183 241.836 359.479 241.836C360.721 241.836 362.017 242.844 362.017 244.518C362.017 246.192 360.721 247.2 359.479 247.2ZM378.752 240.018H376.394L374.612 245.562L372.776 240.018H370.922L369.086 245.544L367.304 240.018H364.946L367.934 249.018H370.076L371.858 243.726L373.622 249.018H375.764L378.752 240.018ZM385.396 239.748C384.208 239.748 383.272 240.126 382.57 240.828V240.018H380.194V249H382.57V245.022C382.57 242.826 383.452 241.926 384.802 241.926C385.9 241.926 386.62 242.772 386.62 244.032V249H388.996V243.528C388.996 241.296 387.556 239.748 385.396 239.748ZM393.661 249V236.04H391.285V249H393.661ZM400.366 239.802C397.684 239.802 395.47 241.692 395.47 244.518C395.47 247.344 397.684 249.234 400.366 249.234C402.994 249.234 405.208 247.344 405.208 244.518C405.208 241.692 402.994 239.802 400.366 239.802ZM400.366 247.2C399.07 247.2 397.774 246.192 397.774 244.518C397.774 242.844 399.07 241.836 400.366 241.836C401.608 241.836 402.904 242.844 402.904 244.518C402.904 246.192 401.608 247.2 400.366 247.2ZM416.036 240.018H413.66V240.738C412.904 240.108 411.914 239.748 410.69 239.748C408.404 239.748 406.28 241.692 406.28 244.518C406.28 247.344 408.404 249.27 410.69 249.27C411.914 249.27 412.904 248.91 413.66 248.298V249H416.036V240.018ZM411.104 247.2C409.664 247.2 408.584 246.174 408.584 244.518C408.584 242.862 409.664 241.818 411.104 241.818C412.382 241.818 413.66 242.862 413.66 244.518C413.66 246.174 412.382 247.2 411.104 247.2ZM427.585 236.04H425.209V240.738C424.453 240.108 423.463 239.748 422.239 239.748C419.953 239.748 417.829 241.692 417.829 244.518C417.829 247.344 419.953 249.27 422.239 249.27C423.463 249.27 424.453 248.91 425.209 248.298V249H427.585V236.04ZM422.653 247.2C421.213 247.2 420.133 246.174 420.133 244.518C420.133 242.862 421.213 241.818 422.653 241.818C423.931 241.818 425.209 242.862 425.209 244.518C425.209 246.174 423.931 247.2 422.653 247.2Z" fill="#1D2027"/>
</svg>
