<?xml version="1.0" encoding="UTF-8"?>
<svg fill="none" viewBox="0 0 577 487" xmlns="http://www.w3.org/2000/svg">
<g filter="url(#a)">
<rect x="2" y="2" width="569" height="479" rx="6" fill="#fff"/>
<rect x="2.5" y="2.5" width="568" height="478" rx="5.5" stroke="#E6E6EA"/>
</g>
<path d="m31.826 29.551v-1.261h-7.527v1.261h3.055v7.449h1.404v-7.449h3.068zm6.1513 4.082c-0.065-1.937-1.495-3.263-3.224-3.263-1.82 0-3.341 1.365-3.341 3.419 0 2.041 1.534 3.393 3.289 3.393 1.43 0 2.574-0.676 3.107-2.028l-1.209-0.26c-0.455 0.91-1.183 1.118-1.898 1.118-0.949 0-1.82-0.715-1.95-1.911h5.226v-0.468zm-3.224-2.067c0.884 0 1.625 0.52 1.833 1.573h-3.796c0.208-1.04 1.118-1.573 1.963-1.573zm12.69-1.196c-1.066 0-1.885 0.455-2.405 1.183-0.416-0.754-1.222-1.183-2.145-1.183s-1.599 0.338-2.067 0.91v-0.728h-1.352v6.448h1.352v-3.198c0-1.443 0.676-2.184 1.716-2.184 0.832 0 1.456 0.598 1.456 1.547v3.835h1.352v-3.198c0-1.443 0.689-2.184 1.742-2.184 0.832 0 1.456 0.598 1.456 1.547v3.835h1.339v-4.108c0-1.521-1.105-2.522-2.444-2.522zm8.0501 0c-0.975 0-1.781 0.338-2.34 0.923v-0.741h-1.352v8.658h1.352v-2.951c0.559 0.585 1.365 0.923 2.34 0.923 1.69 0 3.198-1.365 3.198-3.406 0-2.028-1.508-3.406-3.198-3.406zm-0.221 5.616c-1.066 0-2.119-0.845-2.119-2.21 0-1.352 1.053-2.21 2.119-2.21 1.183 0 2.106 0.858 2.106 2.21 0 1.365-0.923 2.21-2.106 2.21zm6.2599 1.014v-9.36h-1.352v9.36h1.352zm8.3554-6.448h-1.352v0.741c-0.559-0.585-1.365-0.923-2.34-0.923-1.69 0-3.198 1.378-3.198 3.406 0 2.041 1.508 3.406 3.198 3.406 0.975 0 1.781-0.338 2.34-0.923v0.741h1.352v-6.448zm-3.471 5.434c-1.183 0-2.106-0.845-2.106-2.21 0-1.352 0.923-2.21 2.106-2.21 1.066 0 2.119 0.858 2.119 2.21 0 1.365-1.053 2.21-2.119 2.21zm9.3935-0.429c-0.338 0.221-0.754 0.351-1.092 0.351-0.637 0-1.066-0.39-1.066-1.196v-3.042h2.21v-1.118h-2.21v-2.002h-1.352v2.002h-1.391v1.118h1.391v3.133c0 1.599 0.936 2.379 2.327 2.379 0.546 0 0.988-0.13 1.599-0.494l-0.416-1.131zm7.3498-1.924c-0.065-1.937-1.495-3.263-3.224-3.263-1.82 0-3.341 1.365-3.341 3.419 0 2.041 1.534 3.393 3.289 3.393 1.43 0 2.574-0.676 3.107-2.028l-1.209-0.26c-0.455 0.91-1.183 1.118-1.898 1.118-0.949 0-1.82-0.715-1.95-1.911h5.226v-0.468zm-3.224-2.067c0.884 0 1.625 0.52 1.833 1.573h-3.796c0.208-1.04 1.118-1.573 1.963-1.573zm11.521-1.196c-0.962 0-1.716 0.351-2.236 0.975v-0.793h-1.352v6.448h1.352v-2.977c0-1.625 0.767-2.405 1.924-2.405 0.923 0 1.534 0.702 1.534 1.755v3.627h1.365v-3.9c0-1.612-1.04-2.73-2.587-2.73zm10.778 0.182h-1.352v0.741c-0.559-0.585-1.3647-0.923-2.3397-0.923-1.69 0-3.198 1.378-3.198 3.406 0 2.041 1.508 3.406 3.198 3.406 0.975 0 1.7807-0.338 2.3397-0.923v0.741h1.352v-6.448zm-3.4707 5.434c-1.183 0-2.106-0.845-2.106-2.21 0-1.352 0.923-2.21 2.106-2.21 1.066 0 2.1187 0.858 2.1187 2.21 0 1.365-1.0527 2.21-2.1187 2.21zm13.489-5.616c-1.066 0-1.885 0.455-2.405 1.183-0.416-0.754-1.222-1.183-2.145-1.183s-1.599 0.338-2.067 0.91v-0.728h-1.352v6.448h1.352v-3.198c0-1.443 0.676-2.184 1.716-2.184 0.832 0 1.456 0.598 1.456 1.547v3.835h1.352v-3.198c0-1.443 0.689-2.184 1.742-2.184 0.832 0 1.456 0.598 1.456 1.547v3.835h1.339v-4.108c0-1.521-1.105-2.522-2.444-2.522zm10.364 3.263c-0.065-1.937-1.495-3.263-3.224-3.263-1.82 0-3.341 1.365-3.341 3.419 0 2.041 1.534 3.393 3.289 3.393 1.43 0 2.574-0.676 3.107-2.028l-1.209-0.26c-0.455 0.91-1.183 1.118-1.898 1.118-0.949 0-1.82-0.715-1.95-1.911h5.226v-0.468zm-3.224-2.067c0.884 0 1.625 0.52 1.833 1.573h-3.796c0.208-1.04 1.118-1.573 1.963-1.573z" fill="#6D696A"/>
<rect x="24.5" y="54.5" width="524" height="43" rx="5.5" fill="#fff"/>
<path d="m47.03 72.405v-1.455h-8.685v1.455h3.525v8.595h1.62v-8.595h3.54zm7.0977 4.71c-0.075-2.235-1.725-3.765-3.72-3.765-2.1 0-3.855 1.575-3.855 3.945 0 2.355 1.77 3.915 3.795 3.915 1.65 0 2.97-0.78 3.585-2.34l-1.395-0.3c-0.525 1.05-1.365 1.29-2.19 1.29-1.095 0-2.1-0.825-2.25-2.205h6.03v-0.54zm-3.72-2.385c1.02 0 1.875 0.6 2.115 1.815h-4.38c0.24-1.2 1.29-1.815 2.265-1.815zm14.642-1.38c-1.23 0-2.175 0.525-2.775 1.365-0.48-0.87-1.41-1.365-2.475-1.365s-1.845 0.39-2.385 1.05v-0.84h-1.56v7.44h1.56v-3.69c0-1.665 0.78-2.52 1.98-2.52 0.96 0 1.68 0.69 1.68 1.785v4.425h1.56v-3.69c0-1.665 0.795-2.52 2.01-2.52 0.96 0 1.68 0.69 1.68 1.785v4.425h1.545v-4.74c0-1.755-1.275-2.91-2.82-2.91zm9.2887 0c-1.125 0-2.055 0.39-2.7 1.065v-0.855h-1.56v9.99h1.56v-3.405c0.645 0.675 1.575 1.065 2.7 1.065 1.95 0 3.69-1.575 3.69-3.93 0-2.34-1.74-3.93-3.69-3.93zm-0.255 6.48c-1.23 0-2.445-0.975-2.445-2.55 0-1.56 1.215-2.55 2.445-2.55 1.365 0 2.43 0.99 2.43 2.55 0 1.575-1.065 2.55-2.43 2.55zm7.2229 1.17v-10.8h-1.56v10.8h1.56zm9.6408-7.44h-1.56v0.855c-0.645-0.675-1.575-1.065-2.7-1.065-1.95 0-3.69 1.59-3.69 3.93 0 2.355 1.74 3.93 3.69 3.93 1.125 0 2.055-0.39 2.7-1.065v0.855h1.56v-7.44zm-4.005 6.27c-1.365 0-2.43-0.975-2.43-2.55 0-1.56 1.065-2.55 2.43-2.55 1.23 0 2.445 0.99 2.445 2.55 0 1.575-1.215 2.55-2.445 2.55zm10.839-0.495c-0.39 0.255-0.87 0.405-1.26 0.405-0.735 0-1.23-0.45-1.23-1.38v-3.51h2.55v-1.29h-2.55v-2.31h-1.56v2.31h-1.605v1.29h1.605v3.615c0 1.845 1.08 2.745 2.685 2.745 0.63 0 1.14-0.15 1.845-0.57l-0.48-1.305zm8.48-2.22c-0.075-2.235-1.725-3.765-3.72-3.765-2.1 0-3.8545 1.575-3.8545 3.945 0 2.355 1.7695 3.915 3.7945 3.915 1.65 0 2.97-0.78 3.585-2.34l-1.395-0.3c-0.525 1.05-1.365 1.29-2.19 1.29-1.095 0-2.1-0.825-2.25-2.205h6.03v-0.54zm-3.72-2.385c1.02 0 1.875 0.6 2.115 1.815h-4.38c0.24-1.2 1.29-1.815 2.265-1.815zm13.519 0.12v-1.29h-2.475v-0.885c0-0.825 0.51-1.305 1.29-1.305 0.24 0 0.525 0.045 0.795 0.15l0.375-1.275c-0.405-0.18-0.81-0.27-1.275-0.27-1.65 0-2.745 1.035-2.745 2.7v0.885h-1.215v1.29h1.215v6.15h1.56v-6.15h2.475zm4.4-1.455c-2.205 0-4.005 1.575-4.005 3.885s1.8 3.9 4.005 3.9c2.19 0 3.975-1.59 3.975-3.9s-1.785-3.885-3.975-3.885zm0 6.435c-1.305 0-2.475-1.005-2.475-2.55s1.17-2.55 2.475-2.55c1.275 0 2.46 1.005 2.46 2.55s-1.185 2.55-2.46 2.55zm10.117-6.36c-1.29 0-2.235 0.69-2.835 1.68v-1.59h-1.56v7.44h1.56v-2.625c0-2.04 0.93-3.36 2.82-3.36 0.135 0 0.315 0 0.435 0.015l0.105-1.5c-0.195-0.06-0.345-0.06-0.525-0.06zm6.51-3.12c-0.585 0-1.005 0.45-1.005 0.975 0 0.555 0.42 0.96 1.005 0.96 0.57 0 0.99-0.405 0.99-0.96 0-0.525-0.42-0.975-0.99-0.975zm0.78 10.65v-7.44h-1.56v7.44h1.56zm2.48-10.05v10.05h1.605v-3.54h2.925c2.22 0 3.615-1.32 3.615-3.27 0-1.92-1.395-3.24-3.615-3.24h-4.53zm1.605 5.04v-3.585h2.925c1.26 0 2.01 0.75 2.01 1.785 0 1.08-0.75 1.8-2.01 1.8h-2.925zm12.408-2.64c-1.11 0-1.98 0.405-2.58 1.125v-4.275h-1.56v10.8h1.56v-3.435c0-1.875 0.885-2.775 2.22-2.775 1.065 0 1.77 0.81 1.77 2.025v4.185h1.575v-4.5c0-1.86-1.2-3.15-2.985-3.15zm8.537 0.045c-2.205 0-4.005 1.575-4.005 3.885s1.8 3.9 4.005 3.9c2.19 0 3.975-1.59 3.975-3.9s-1.785-3.885-3.975-3.885zm0 6.435c-1.305 0-2.475-1.005-2.475-2.55s1.17-2.55 2.475-2.55c1.275 0 2.46 1.005 2.46 2.55s-1.185 2.55-2.46 2.55zm9.862-6.48c-1.11 0-1.98 0.405-2.58 1.125v-0.915h-1.56v7.44h1.56v-3.435c0-1.875 0.885-2.775 2.22-2.775 1.065 0 1.77 0.81 1.77 2.025v4.185h1.575v-4.5c0-1.86-1.2-3.15-2.985-3.15zm12.091 3.765c-0.075-2.235-1.725-3.765-3.72-3.765-2.1 0-3.855 1.575-3.855 3.945 0 2.355 1.77 3.915 3.795 3.915 1.65 0 2.97-0.78 3.585-2.34l-1.395-0.3c-0.525 1.05-1.365 1.29-2.19 1.29-1.095 0-2.1-0.825-2.25-2.205h6.03v-0.54zm-3.72-2.385c1.02 0 1.875 0.6 2.115 1.815h-4.38c0.24-1.2 1.29-1.815 2.265-1.815zm12.184-3.78h-0.99l-3.15 1.83v1.455l2.58-1.38v8.145h1.56v-10.05zm5.449 0h-0.99l-3.15 1.83v1.455l2.58-1.38v8.145h1.56v-10.05zm6.125 0v10.05h1.605v-3.54h2.925c2.22 0 3.615-1.32 3.615-3.27 0-1.92-1.395-3.24-3.615-3.24h-4.53zm1.605 5.04v-3.585h2.925c1.26 0 2.01 0.75 2.01 1.785 0 1.08-0.75 1.8-2.01 1.8h-2.925zm12.663-2.52c-1.29 0-2.235 0.69-2.835 1.68v-1.59h-1.56v7.44h1.56v-2.625c0-2.04 0.93-3.36 2.82-3.36 0.135 0 0.315 0 0.435 0.015l0.105-1.5c-0.195-0.06-0.345-0.06-0.525-0.06zm5.132-0.075c-2.205 0-4.005 1.575-4.005 3.885s1.8 3.9 4.005 3.9c2.19 0 3.975-1.59 3.975-3.9s-1.785-3.885-3.975-3.885zm0 6.435c-1.305 0-2.475-1.005-2.475-2.55s1.17-2.55 2.475-2.55c1.275 0 2.46 1.005 2.46 2.55s-1.185 2.55-2.46 2.55zm20.438-8.88h-1.395l-4.11 7.605-4.095-7.605h-1.41v10.05h1.56v-6.645l3.57 6.645h0.765l3.555-6.645v6.645h1.56v-10.05zm9.639 2.61h-1.56v0.855c-0.645-0.675-1.575-1.065-2.7-1.065-1.95 0-3.69 1.59-3.69 3.93 0 2.355 1.74 3.93 3.69 3.93 1.125 0 2.055-0.39 2.7-1.065v0.855h1.56v-7.44zm-4.005 6.27c-1.365 0-2.43-0.975-2.43-2.55 0-1.56 1.065-2.55 2.43-2.55 1.23 0 2.445 0.99 2.445 2.55 0 1.575-1.215 2.55-2.445 2.55zm10.719-2.475 2.67-3.81h-1.875l-1.95 2.82-1.95-2.82h-1.86l2.67 3.81-2.67 3.645h1.86l1.95-2.685 1.95 2.685h1.875l-2.67-3.645z" fill="#000009"/>
<rect x="24.5" y="54.5" width="524" height="43" rx="5.5" stroke="#DDDBDB"/>
<path d="m28.069 126.11c-1.937 0-3.198 1.04-3.198 2.574 0 1.547 1.118 2.119 2.197 2.366l1.898 0.39c0.871 0.182 1.222 0.494 1.222 1.157 0 0.793-0.663 1.352-1.833 1.352s-2.041-0.546-2.249-1.664l-1.482 0.312c0.221 1.69 1.755 2.587 3.601 2.587 2.002 0 3.341-1.027 3.341-2.665 0-1.365-0.936-2.093-2.236-2.379l-1.885-0.403c-0.754-0.156-1.105-0.481-1.105-1.092 0-0.767 0.676-1.326 1.703-1.326 1.04 0 1.833 0.611 1.989 1.534l1.391-0.286c-0.312-1.495-1.586-2.457-3.354-2.457zm11.203 5.525c-0.065-1.937-1.495-3.263-3.224-3.263-1.82 0-3.341 1.365-3.341 3.419 0 2.041 1.534 3.393 3.289 3.393 1.43 0 2.574-0.676 3.107-2.028l-1.209-0.26c-0.455 0.91-1.183 1.118-1.898 1.118-0.949 0-1.82-0.715-1.95-1.911h5.226v-0.468zm-3.224-2.067c0.884 0 1.625 0.52 1.833 1.573h-3.796c0.208-1.04 1.118-1.573 1.963-1.573zm6.0729 5.434v-9.36h-1.352v9.36h1.352zm8.0563-3.367c-0.065-1.937-1.495-3.263-3.224-3.263-1.82 0-3.341 1.365-3.341 3.419 0 2.041 1.534 3.393 3.289 3.393 1.43 0 2.574-0.676 3.107-2.028l-1.209-0.26c-0.455 0.91-1.183 1.118-1.898 1.118-0.949 0-1.82-0.715-1.95-1.911h5.226v-0.468zm-3.224-2.067c0.884 0 1.625 0.52 1.833 1.573h-3.796c0.208-1.04 1.118-1.573 1.963-1.573zm7.568 4.368c-1.196 0-2.08-0.845-2.08-2.158 0-1.274 0.884-2.158 2.08-2.158 0.858 0 1.599 0.442 1.846 1.391l1.3-0.377c-0.403-1.378-1.69-2.262-3.146-2.262-1.846 0-3.406 1.391-3.406 3.406 0 2.041 1.56 3.406 3.406 3.406 1.495 0 2.795-0.884 3.146-2.275l-1.248-0.325c-0.312 0.936-1.04 1.352-1.898 1.352zm8.5299-0.377c-0.338 0.221-0.754 0.351-1.092 0.351-0.637 0-1.066-0.39-1.066-1.196v-3.042h2.21v-1.118h-2.21v-2.002h-1.352v2.002h-1.391v1.118h1.391v3.133c0 1.599 0.936 2.379 2.327 2.379 0.546 0 0.988-0.13 1.599-0.494l-0.416-1.131zm8.5947 0c-0.338 0.221-0.754 0.351-1.092 0.351-0.637 0-1.066-0.39-1.066-1.196v-3.042h2.21v-1.118h-2.21v-2.002h-1.352v2.002h-1.391v1.118h1.391v3.133c0 1.599 0.936 2.379 2.327 2.379 0.546 0 0.988-0.13 1.599-0.494l-0.416-1.131zm5.0968-5.187c-0.962 0-1.716 0.351-2.236 0.975v-3.705h-1.352v9.36h1.352v-2.977c0-1.625 0.767-2.405 1.924-2.405 0.923 0 1.534 0.702 1.534 1.755v3.627h1.365v-3.9c0-1.612-1.04-2.73-2.587-2.73zm10.492 3.263c-0.065-1.937-1.495-3.263-3.224-3.263-1.82 0-3.341 1.365-3.341 3.419 0 2.041 1.534 3.393 3.289 3.393 1.43 0 2.574-0.676 3.107-2.028l-1.209-0.26c-0.455 0.91-1.183 1.118-1.898 1.118-0.949 0-1.82-0.715-1.95-1.911h5.226v-0.468zm-3.224-2.067c0.884 0 1.625 0.52 1.833 1.573h-3.796c0.208-1.04 1.118-1.573 1.963-1.573zm12.69-1.196c-1.066 0-1.885 0.455-2.405 1.183-0.416-0.754-1.222-1.183-2.145-1.183s-1.599 0.338-2.067 0.91v-0.728h-1.352v6.448h1.352v-3.198c0-1.443 0.676-2.184 1.716-2.184 0.832 0 1.456 0.598 1.456 1.547v3.835h1.352v-3.198c0-1.443 0.689-2.184 1.742-2.184 0.832 0 1.456 0.598 1.456 1.547v3.835h1.339v-4.108c0-1.521-1.105-2.522-2.444-2.522zm10.364 3.263c-0.065-1.937-1.495-3.263-3.224-3.263-1.82 0-3.341 1.365-3.341 3.419 0 2.041 1.534 3.393 3.289 3.393 1.43 0 2.574-0.676 3.107-2.028l-1.209-0.26c-0.455 0.91-1.183 1.118-1.898 1.118-0.949 0-1.82-0.715-1.95-1.911h5.226v-0.468zm-3.224-2.067c0.884 0 1.625 0.52 1.833 1.573h-3.796c0.208-1.04 1.118-1.573 1.963-1.573zm11.807 3.991c-0.338 0.221-0.754 0.351-1.092 0.351-0.637 0-1.066-0.39-1.066-1.196v-3.042h2.21v-1.118h-2.21v-2.002h-1.352v2.002h-1.391v1.118h1.391v3.133c0 1.599 0.936 2.379 2.327 2.379 0.546 0 0.988-0.13 1.599-0.494l-0.416-1.131zm7.762-5.018h-1.508l-2.067 4.654-2.015-4.654h-1.508l2.782 6.305-1.053 2.366h1.508l3.861-8.671zm4.891-0.169c-0.975 0-1.781 0.338-2.34 0.923v-0.741h-1.352v8.658h1.352v-2.951c0.559 0.585 1.365 0.923 2.34 0.923 1.69 0 3.198-1.365 3.198-3.406 0-2.028-1.508-3.406-3.198-3.406zm-0.221 5.616c-1.066 0-2.119-0.845-2.119-2.21 0-1.352 1.053-2.21 2.119-2.21 1.183 0 2.106 0.858 2.106 2.21 0 1.365-0.923 2.21-2.106 2.21zm10.914-2.353c-0.065-1.937-1.495-3.263-3.224-3.263-1.82 0-3.341 1.365-3.341 3.419 0 2.041 1.534 3.393 3.289 3.393 1.43 0 2.574-0.676 3.107-2.028l-1.209-0.26c-0.455 0.91-1.183 1.118-1.898 1.118-0.949 0-1.82-0.715-1.95-1.911h5.226v-0.468zm-3.224-2.067c0.884 0 1.625 0.52 1.833 1.573h-3.796c0.208-1.04 1.118-1.573 1.963-1.573z" fill="#6D696A"/>
<rect x="24.5" y="152.5" width="115" height="51" rx="5.5" fill="#fff"/>
<path d="m64.28 181.54h-5.49v-8.595h-1.605v10.05h7.095v-1.455zm9.013-5.985h-1.56v0.855c-0.645-0.675-1.575-1.065-2.7-1.065-1.95 0-3.69 1.59-3.69 3.93 0 2.355 1.74 3.93 3.69 3.93 1.125 0 2.055-0.39 2.7-1.065v0.855h1.56v-7.44zm-4.005 6.27c-1.365 0-2.43-0.975-2.43-2.55 0-1.56 1.065-2.55 2.43-2.55 1.23 0 2.445 0.99 2.445 2.55 0 1.575-1.215 2.55-2.445 2.55zm13.584-6.285h-1.74l-2.385 5.37-2.325-5.37h-1.74l3.21 7.275-1.215 2.73h1.74l4.455-10.005zm4.5239-0.15c-2.205 0-4.005 1.575-4.005 3.885s1.8 3.9 4.005 3.9c2.19 0 3.975-1.59 3.975-3.9s-1.785-3.885-3.975-3.885zm0 6.435c-1.305 0-2.475-1.005-2.475-2.55s1.17-2.55 2.475-2.55c1.275 0 2.46 1.005 2.46 2.55s-1.185 2.55-2.46 2.55zm12.652-6.27h-1.5604v3.435c0 1.875-0.87 2.775-2.205 2.775-1.08 0-1.785-0.825-1.785-2.04v-4.17h-1.56v4.485c0 1.875 1.185 3.165 2.985 3.165 1.095 0 1.965-0.405 2.565-1.125v0.915h1.5604v-7.44zm6.841 5.775c-0.39 0.255-0.87 0.405-1.26 0.405-0.735 0-1.23-0.45-1.23-1.38v-3.51h2.55v-1.29h-2.55v-2.31h-1.56v2.31h-1.605v1.29h1.605v3.615c0 1.845 1.08 2.745 2.685 2.745 0.63 0 1.14-0.15 1.845-0.57l-0.48-1.305z" fill="#000009"/>
<rect x="24.5" y="152.5" width="115" height="51" rx="5.5" stroke="#DDDBDB"/>
<rect x="156.5" y="152.5" width="121" height="51" rx="5.5" fill="#03CEA4" fill-opacity=".1"/>
<path d="m197.03 174.4v-1.455h-8.685v1.455h3.525v8.595h1.62v-8.595h3.54zm5.67 0.945c-1.11 0-1.98 0.405-2.58 1.125v-4.275h-1.56v10.8h1.56v-3.435c0-1.875 0.885-2.775 2.22-2.775 1.065 0 1.77 0.81 1.77 2.025v4.185h1.575v-4.5c0-1.86-1.2-3.15-2.985-3.15zm12.106 3.765c-0.075-2.235-1.725-3.765-3.72-3.765-2.1 0-3.855 1.575-3.855 3.945 0 2.355 1.77 3.915 3.795 3.915 1.65 0 2.97-0.78 3.585-2.34l-1.395-0.3c-0.525 1.05-1.365 1.29-2.19 1.29-1.095 0-2.1-0.825-2.25-2.205h6.03v-0.54zm-3.72-2.385c1.02 0 1.875 0.6 2.115 1.815h-4.38c0.24-1.2 1.29-1.815 2.265-1.815zm14.643-1.38c-1.23 0-2.175 0.525-2.775 1.365-0.48-0.87-1.41-1.365-2.475-1.365s-1.845 0.39-2.385 1.05v-0.84h-1.56v7.44h1.56v-3.69c0-1.665 0.78-2.52 1.98-2.52 0.96 0 1.68 0.69 1.68 1.785v4.425h1.56v-3.69c0-1.665 0.795-2.52 2.01-2.52 0.96 0 1.68 0.69 1.68 1.785v4.425h1.545v-4.74c0-1.755-1.275-2.91-2.82-2.91zm11.958 3.765c-0.075-2.235-1.725-3.765-3.72-3.765-2.1 0-3.855 1.575-3.855 3.945 0 2.355 1.77 3.915 3.795 3.915 1.65 0 2.97-0.78 3.585-2.34l-1.395-0.3c-0.525 1.05-1.365 1.29-2.19 1.29-1.095 0-2.1-0.825-2.25-2.205h6.03v-0.54zm-3.72-2.385c1.02 0 1.875 0.6 2.115 1.815h-4.38c0.24-1.2 1.29-1.815 2.265-1.815zm4.817 4.275c0.195 1.5 1.62 2.205 3.285 2.205 1.86 0 3.135-0.84 3.135-2.4 0-1.05-0.735-1.755-1.935-2.01l-1.77-0.39c-0.66-0.15-0.9-0.42-0.9-0.84 0-0.525 0.405-0.975 1.32-0.975 0.96 0 1.575 0.495 1.695 1.215l1.485-0.315c-0.27-1.245-1.425-2.145-3.135-2.145-1.785 0-2.94 0.975-2.94 2.355 0 1.05 0.735 1.74 2.025 2.025l1.62 0.33c0.69 0.15 1.005 0.435 1.005 0.885 0 0.585-0.57 0.99-1.47 0.99-0.975 0-1.755-0.375-1.86-1.26l-1.56 0.33z" fill="#000009"/>
<rect x="156.5" y="152.5" width="121" height="51" rx="5.5" stroke="#03CEA4"/>
<rect x="294.5" y="152.5" width="173" height="51" rx="5.5" fill="#fff"/>
<path d="m331.96 181.7c-2.025 0-3.615-1.605-3.615-3.72s1.59-3.72 3.615-3.72c1.575 0 2.865 0.84 3.315 2.535l1.56-0.45c-0.57-2.22-2.505-3.6-4.875-3.6-2.925 0-5.235 2.31-5.235 5.235 0 2.94 2.31 5.235 5.235 5.235 2.37 0 4.32-1.365 4.875-3.72l-1.56-0.33c-0.45 1.695-1.74 2.535-3.315 2.535zm10.133-6.3c-2.205 0-4.005 1.575-4.005 3.885s1.8 3.9 4.005 3.9c2.19 0 3.975-1.59 3.975-3.9s-1.785-3.885-3.975-3.885zm0 6.435c-1.305 0-2.475-1.005-2.475-2.55s1.17-2.55 2.475-2.55c1.275 0 2.46 1.005 2.46 2.55s-1.185 2.55-2.46 2.55zm13.042-9.63h-1.575v4.215c-0.66-0.675-1.575-1.065-2.7-1.065-1.935 0-3.69 1.59-3.69 3.93 0 2.355 1.755 3.93 3.69 3.93 1.125 0 2.04-0.39 2.7-1.05v0.84h1.575v-10.8zm-4.02 9.63c-1.35 0-2.415-0.975-2.415-2.55 0-1.56 1.065-2.55 2.415-2.55 1.245 0 2.445 0.99 2.445 2.55 0 1.575-1.2 2.55-2.445 2.55zm13.298-2.715c-0.075-2.235-1.725-3.765-3.72-3.765-2.1 0-3.855 1.575-3.855 3.945 0 2.355 1.77 3.915 3.795 3.915 1.65 0 2.97-0.78 3.585-2.34l-1.395-0.3c-0.525 1.05-1.365 1.29-2.19 1.29-1.095 0-2.1-0.825-2.25-2.205h6.03v-0.54zm-3.72-2.385c1.02 0 1.875 0.6 2.115 1.815h-4.38c0.24-1.2 1.29-1.815 2.265-1.815zm16.368-1.185h-1.74l-2.385 5.37-2.325-5.37h-1.74l3.21 7.275-1.215 2.73h1.74l4.455-10.005zm4.524-0.15c-2.205 0-4.005 1.575-4.005 3.885s1.8 3.9 4.005 3.9c2.19 0 3.975-1.59 3.975-3.9s-1.785-3.885-3.975-3.885zm0 6.435c-1.305 0-2.475-1.005-2.475-2.55s1.17-2.55 2.475-2.55c1.275 0 2.46 1.005 2.46 2.55s-1.185 2.55-2.46 2.55zm12.652-6.27h-1.56v3.435c0 1.875-0.87 2.775-2.205 2.775-1.08 0-1.785-0.825-1.785-2.04v-4.17h-1.56v4.485c0 1.875 1.185 3.165 2.985 3.165 1.095 0 1.965-0.405 2.565-1.125v0.915h1.56v-7.44zm6.767-0.09c-1.29 0-2.235 0.69-2.835 1.68v-1.59h-1.56v7.44h1.56v-2.625c0-2.04 0.93-3.36 2.82-3.36 0.135 0 0.315 0 0.435 0.015l0.105-1.5c-0.195-0.06-0.345-0.06-0.525-0.06zm8.97-0.075c-2.205 0-4.005 1.575-4.005 3.885s1.8 3.9 4.005 3.9c2.19 0 3.975-1.59 3.975-3.9s-1.785-3.885-3.975-3.885zm0 6.435c-1.305 0-2.475-1.005-2.475-2.55s1.17-2.55 2.475-2.55c1.275 0 2.46 1.005 2.46 2.55s-1.185 2.55-2.46 2.55zm15.938-6.27h-1.56l-1.695 5.175-1.755-5.175h-1.23l-1.755 5.175-1.695-5.175h-1.56l2.49 7.47h1.425l1.71-5.01 1.71 5.01h1.425l2.49-7.47zm5.54-0.21c-1.11 0-1.98 0.405-2.58 1.125v-0.915h-1.56v7.44h1.56v-3.435c0-1.875 0.885-2.775 2.22-2.775 1.065 0 1.77 0.81 1.77 2.025v4.185h1.575v-4.5c0-1.86-1.2-3.15-2.985-3.15z" fill="#000009"/>
<rect x="294.5" y="152.5" width="173" height="51" rx="5.5" stroke="#DDDBDB"/>
<path d="m31.176 239.74h-4.758v-7.449h-1.391v8.71h6.149v-1.261zm7.8113-5.187h-1.352v0.741c-0.559-0.585-1.365-0.923-2.34-0.923-1.69 0-3.198 1.378-3.198 3.406 0 2.041 1.508 3.406 3.198 3.406 0.975 0 1.781-0.338 2.34-0.923v0.741h1.352v-6.448zm-3.471 5.434c-1.183 0-2.106-0.845-2.106-2.21 0-1.352 0.923-2.21 2.106-2.21 1.066 0 2.119 0.858 2.119 2.21 0 1.365-1.053 2.21-2.119 2.21zm11.772-5.447h-1.508l-2.067 4.654-2.015-4.654h-1.508l2.782 6.305-1.053 2.366h1.508l3.861-8.671zm3.9207-0.13c-1.911 0-3.471 1.365-3.471 3.367s1.56 3.38 3.471 3.38c1.898 0 3.445-1.378 3.445-3.38s-1.547-3.367-3.445-3.367zm0 5.577c-1.131 0-2.145-0.871-2.145-2.21s1.014-2.21 2.145-2.21c1.105 0 2.132 0.871 2.132 2.21s-1.027 2.21-2.132 2.21zm10.965-5.434h-1.352v2.977c0 1.625-0.754 2.405-1.911 2.405-0.936 0-1.547-0.715-1.547-1.768v-3.614h-1.352v3.887c0 1.625 1.027 2.743 2.587 2.743 0.949 0 1.703-0.351 2.223-0.975v0.793h1.352v-6.448zm5.9295 5.005c-0.338 0.221-0.754 0.351-1.092 0.351-0.637 0-1.066-0.39-1.066-1.196v-3.042h2.21v-1.118h-2.21v-2.002h-1.352v2.002h-1.391v1.118h1.391v3.133c0 1.599 0.936 2.379 2.327 2.379 0.546 0 0.988-0.13 1.599-0.494l-0.416-1.131zm11.52-6.006v-1.261h-7.527v1.261h3.055v7.449h1.404v-7.449h3.068zm7.0838 0.988h-1.508l-2.067 4.654-2.015-4.654h-1.508l2.782 6.305-1.053 2.366h1.508l3.861-8.671zm4.8912-0.169c-0.975 0-1.781 0.338-2.34 0.923v-0.741h-1.352v8.658h1.352v-2.951c0.559 0.585 1.365 0.923 2.34 0.923 1.69 0 3.198-1.365 3.198-3.406 0-2.028-1.508-3.406-3.198-3.406zm-0.221 5.616c-1.066 0-2.119-0.845-2.119-2.21 0-1.352 1.053-2.21 2.119-2.21 1.183 0 2.106 0.858 2.106 2.21 0 1.365-0.923 2.21-2.106 2.21zm10.914-2.353c-0.065-1.937-1.495-3.263-3.2242-3.263-1.82 0-3.341 1.365-3.341 3.419 0 2.041 1.534 3.393 3.289 3.393 1.4302 0 2.5742-0.676 3.1072-2.028l-1.209-0.26c-0.455 0.91-1.1832 1.118-1.8982 1.118-0.949 0-1.82-0.715-1.95-1.911h5.2262v-0.468zm-3.2242-2.067c0.884 0 1.6252 0.52 1.8332 1.573h-3.7962c0.208-1.04 1.118-1.573 1.963-1.573z" fill="#6D696A"/>
<rect x="24.5" y="258.5" width="119" height="200" rx="5.5" fill="#fff" stroke="#DDDBDB"/>
<circle cx="64" cy="298" r="16" fill="#03CEA4" opacity=".07"/>
<g clip-path="url(#c)">
<path d="m71 297.51c-5e-4 -0.426-0.1696-0.833-0.4704-1.134-0.3007-0.301-0.7085-0.47-1.1338-0.47h-3.3366c-0.0228 0-0.0453-6e-3 -0.0656-0.016-0.0204-0.01-0.038-0.025-0.0516-0.043-0.0136-0.019-0.0226-0.04-0.0265-0.062-0.0039-0.023-0.0024-0.046 0.0043-0.068 0.2919-0.787 0.3766-1.637 0.2461-2.467-0.3692-1.316-1.1987-1.683-1.799-1.602-0.3147 0.052-0.5998 0.217-0.8016 0.464s-0.3065 0.559-0.2945 0.878c0 1.761-1.5715 3.686-2.9476 4.223-0.0317-0.122-0.103-0.231-0.2029-0.309s-0.2227-0.121-0.3495-0.122h-2.1875c-0.1547 0-0.303 0.061-0.4124 0.171-0.1094 0.109-0.1709 0.257-0.1709 0.412v6.417c0 0.155 0.0615 0.303 0.1709 0.412 0.1094 0.11 0.2577 0.171 0.4124 0.171h2.1875c0.1547 0 0.3031-0.061 0.4125-0.171 0.1094-0.109 0.1709-0.257 0.1709-0.412v-0.192c0.6002 0.086 1.05 0.168 1.4361 0.238 0.7744 0.164 1.5639 0.247 2.3555 0.245h3.7917c1.316 0 1.4583-0.816 1.4583-1.166 1e-4 -0.177-0.0321-0.352-0.0951-0.518 0.2841-0.179 0.4973-0.452 0.6036-0.771s0.0991-0.664-0.0202-0.979c0.3055-0.193 0.5284-0.493 0.6254-0.841 0.0971-0.348 0.0612-0.72-0.1004-1.043 0.1848-0.151 0.3337-0.341 0.436-0.556 0.1022-0.215 0.1551-0.451 0.1549-0.689zm-11.812 5.25c0 0.086-0.0257 0.171-0.0737 0.243-0.0481 0.072-0.1164 0.128-0.1964 0.161-0.0799 0.033-0.1679 0.042-0.2528 0.025-0.0848-0.017-0.1628-0.059-0.224-0.12-0.0611-0.061-0.1028-0.139-0.1197-0.224s-0.0082-0.173 0.0249-0.253 0.0892-0.148 0.1611-0.196c0.072-0.048 0.1566-0.074 0.2431-0.074 0.116 0 0.2273 0.046 0.3094 0.128 0.082 0.082 0.1281 0.194 0.1281 0.31zm10.646-5.25c-1e-4 0.116-0.0463 0.227-0.1283 0.309s-0.1932 0.128-0.3092 0.128h-0.2916c-0.1547 0-0.3031 0.062-0.4125 0.171-0.1094 0.11-0.1709 0.258-0.1709 0.413 0 0.154 0.0615 0.303 0.1709 0.412 0.1094 0.11 0.2578 0.171 0.4125 0.171 0.0773 0 0.1515 0.031 0.2062 0.085 0.0547 0.055 0.0854 0.129 0.0854 0.207 0 0.077-0.0307 0.151-0.0854 0.206s-0.1289 0.085-0.2062 0.085h-0.5834c-0.1547 0-0.3031 0.062-0.4124 0.171-0.1094 0.11-0.1709 0.258-0.1709 0.413 0 0.154 0.0615 0.303 0.1709 0.412 0.1093 0.11 0.2577 0.171 0.4124 0.171 0.0774 0 0.1516 0.031 0.2063 0.085 0.0547 0.055 0.0854 0.129 0.0854 0.207 0 0.077-0.0307 0.151-0.0854 0.206s-0.1289 0.085-0.2063 0.085h-0.5833c-0.1547 0-0.3031 0.062-0.4125 0.171-0.1094 0.11-0.1708 0.258-0.1708 0.413 0 0.154 0.0614 0.303 0.1708 0.412 0.1094 0.11 0.2578 0.171 0.4125 0.171 0.0727 1e-3 0.1424 0.029 0.1955 0.079 0.053 0.049 0.0857 0.117 0.0915 0.189-0.0945 0.019-0.1908 0.026-0.287 0.024h-3.7917c-0.7209 1e-3 -1.4399-0.075-2.1449-0.226-0.4282-0.079-0.9456-0.175-1.6467-0.268v-3.985c2.0387-0.53 4.0833-3.126 4.0833-5.438 0-0.112 0.0461-0.175 0.0887-0.184 0.0951-0.013 0.35 0.161 0.5162 0.761 0.1715 0.61-0.2514 1.976-0.5577 2.694-0.0379 0.088-0.0532 0.185-0.0445 0.281 0.0086 0.096 0.0409 0.189 0.094 0.269 0.0531 0.081 0.1254 0.147 0.2103 0.193 0.0849 0.045 0.1799 0.069 0.2763 0.069h4.375c0.116 0 0.2272 0.047 0.3092 0.129s0.1282 0.193 0.1283 0.309z" fill="#03CEA4"/>
</g>
<circle cx="104" cy="298" r="16" fill="#E71D36" opacity=".07"/>
<g clip-path="url(#b)">
<path d="m97 298.49c5e-4 0.425 0.1696 0.833 0.4704 1.134 0.3007 0.301 0.7085 0.47 1.1338 0.47h3.3368c0.023 0 0.045 6e-3 0.065 0.016 0.021 0.01 0.038 0.025 0.052 0.043 0.014 0.019 0.023 0.04 0.026 0.062 4e-3 0.023 3e-3 0.046-4e-3 0.068-0.292 0.787-0.376 1.637-0.246 2.467 0.369 1.313 1.199 1.683 1.799 1.601 0.315-0.051 0.6-0.216 0.802-0.463s0.306-0.559 0.294-0.878c0-1.761 1.572-3.686 2.948-4.224 0.031 0.123 0.103 0.232 0.203 0.31s0.222 0.121 0.349 0.122h2.188c0.154 0 0.303-0.061 0.412-0.171 0.11-0.109 0.171-0.258 0.171-0.412v-6.417c0-0.155-0.061-0.303-0.171-0.412-0.109-0.11-0.258-0.171-0.412-0.171h-2.188c-0.155 0-0.303 0.061-0.412 0.171-0.11 0.109-0.171 0.257-0.171 0.412v0.192c-0.6-0.086-1.05-0.168-1.436-0.238-0.775-0.165-1.564-0.247-2.356-0.246h-3.791c-1.3165 0-1.4588 0.817-1.4588 1.167-1e-4 0.177 0.0321 0.352 0.0951 0.518-0.2841 0.179-0.4973 0.452-0.6036 0.771-0.1063 0.318-0.0991 0.664 0.0202 0.979-0.3055 0.193-0.5284 0.493-0.6254 0.841-0.0971 0.348-0.0612 0.72 0.1004 1.043-0.1848 0.151-0.3337 0.341-0.436 0.556-0.1022 0.215-0.1551 0.451-0.1549 0.689zm11.813-5.25c0-0.086 0.025-0.171 0.073-0.243s0.117-0.128 0.197-0.161 0.167-0.042 0.252-0.025 0.163 0.059 0.224 0.12c0.062 0.061 0.103 0.139 0.12 0.224s8e-3 0.173-0.025 0.253c-0.033 0.079-0.089 0.148-0.161 0.196s-0.156 0.074-0.243 0.074c-0.057 0-0.114-0.012-0.167-0.034-0.054-0.022-0.102-0.054-0.142-0.095-0.041-0.04-0.073-0.088-0.095-0.141-0.022-0.054-0.033-0.11-0.033-0.168zm-10.646 5.25c1e-4 -0.116 0.0463-0.227 0.1283-0.309s0.1932-0.128 0.3092-0.128h0.2916c0.1547 0 0.3031-0.062 0.4125-0.171 0.1094-0.11 0.1709-0.258 0.1709-0.413 0-0.154-0.0615-0.303-0.1709-0.412-0.1094-0.11-0.2578-0.171-0.4125-0.171-0.0773 0-0.1515-0.031-0.2062-0.085-0.0547-0.055-0.0854-0.129-0.0854-0.207 0-0.077 0.0307-0.151 0.0854-0.206s0.1289-0.085 0.2062-0.085h0.5834c0.1547 0 0.303-0.062 0.4124-0.171 0.1094-0.11 0.1714-0.258 0.1714-0.413 0-0.154-0.062-0.303-0.1714-0.412-0.1094-0.11-0.2577-0.171-0.4124-0.171-0.0774 0-0.1516-0.031-0.2063-0.085-0.0547-0.055-0.0854-0.129-0.0854-0.207 0-0.077 0.0307-0.151 0.0854-0.206s0.1289-0.085 0.2063-0.085h0.5838c0.154 0 0.303-0.062 0.412-0.171 0.109-0.11 0.171-0.258 0.171-0.413 0-0.154-0.062-0.303-0.171-0.412-0.109-0.11-0.258-0.171-0.412-0.171-0.0732-1e-3 -0.1429-0.029-0.196-0.079-0.053-0.049-0.0857-0.117-0.0915-0.189 0.0945-0.019 0.1908-0.027 0.2875-0.024h3.791c0.721-1e-3 1.44 0.075 2.145 0.226 0.428 0.079 0.946 0.172 1.647 0.268v3.985c-2.039 0.53-4.083 3.126-4.083 5.438 0 0.112-0.047 0.175-0.089 0.184-0.095 0.013-0.35-0.161-0.516-0.758-0.172-0.61 0.251-1.976 0.557-2.694 0.038-0.089 0.053-0.185 0.045-0.281-9e-3 -0.096-0.041-0.189-0.094-0.269-0.053-0.081-0.126-0.147-0.211-0.193-0.084-0.045-0.179-0.069-0.276-0.069h-4.3748c-0.0577-1e-3 -0.1148-0.012-0.168-0.034-0.0533-0.022-0.1016-0.055-0.1423-0.096-0.0406-0.041-0.0728-0.089-0.0946-0.143-0.0219-0.053-0.0329-0.11-0.0326-0.168z" fill="#E71D36"/>
</g>
<rect x="25" y="338" width="118" height="1" fill="#DDDBDB"/>
<path d="m65.982 357.18h4.589v-1.885h-6.734v8.71h2.145v-3.12h4.082v-1.872h-4.082v-1.833zm12.036 0.299h-2.08v3.029c0 1.261-0.533 1.82-1.352 1.82-0.663 0-1.118-0.52-1.118-1.287v-3.562h-2.067v4.004c0 1.638 1.014 2.717 2.535 2.717 0.819 0 1.508-0.299 2.002-0.819v0.624h2.08v-6.526zm5.5921-0.195c-0.819 0-1.508 0.299-2.002 0.819v-0.624h-2.08v6.526h2.08v-3.029c0-1.261 0.533-1.82 1.352-1.82 0.663 0 1.118 0.52 1.118 1.287v3.562h2.067v-4.004c0-1.638-1.014-2.717-2.535-2.717zm8.0361 0c-0.819 0-1.508 0.299-2.002 0.819v-0.624h-2.08v6.526h2.08v-3.029c0-1.261 0.533-1.82 1.352-1.82 0.663 0 1.118 0.52 1.118 1.287v3.562h2.067v-4.004c0-1.638-1.014-2.717-2.535-2.717zm10.35 3.458c-0.039-2.132-1.521-3.458-3.3673-3.458-1.898 0-3.458 1.404-3.458 3.458 0 2.067 1.56 3.458 3.445 3.458 1.4953 0 2.6783-0.663 3.2373-2.041l-1.846-0.377c-0.3513 0.637-0.9103 0.754-1.3913 0.754-0.702 0-1.235-0.481-1.404-1.261h4.7843v-0.533zm-3.3673-1.768c0.598 0 1.118 0.325 1.313 1.027h-2.691c0.195-0.663 0.793-1.027 1.378-1.027zm6.5283 5.031v-9.36h-2.08v9.36h2.08zm-48.665 13.632c0-1.664 0.572-2.808 1.794-4.147l-1.43-1.287c-1.625 1.508-2.561 3.263-2.561 5.434s0.936 3.926 2.561 5.434l1.469-1.287c-1.261-1.339-1.833-2.483-1.833-4.147zm10.32-2.47v-1.872h-7.774v1.872h2.821v6.838h2.132v-6.838h2.821zm5.105 0.117c-0.832 0-1.508 0.299-2.015 0.819v-3.458h-2.08v9.36h2.08v-3.029c0-1.261 0.533-1.82 1.339-1.82 0.676 0 1.131 0.52 1.131 1.287v3.562h2.067v-4.004c0-1.638-1.014-2.717-2.522-2.717zm10.429 0.195h-2.08v3.029c0 1.261-0.533 1.82-1.352 1.82-0.663 0-1.118-0.52-1.118-1.287v-3.562h-2.067v4.004c0 1.638 1.014 2.717 2.535 2.717 0.819 0 1.508-0.299 2.002-0.819v0.624h2.08v-6.526zm9.9601-0.195c-1.014 0-1.794 0.429-2.314 1.105-0.442-0.715-1.222-1.105-2.132-1.105-0.845 0-1.482 0.299-1.924 0.793v-0.598h-2.08v6.526h2.08v-3.198c0-1.092 0.494-1.651 1.248-1.651 0.624 0 1.105 0.468 1.105 1.209v3.64h2.08v-3.198c0-1.092 0.507-1.651 1.274-1.651 0.611 0 1.092 0.468 1.092 1.209v3.64h2.067v-4.082c0-1.586-1.105-2.639-2.496-2.639zm8.0235 0c-0.8452 0-1.5213 0.26-2.0282 0.715v-3.354h-2.08v9.36h2.08v-0.52c0.5069 0.455 1.183 0.715 2.0282 0.715 1.729 0 3.185-1.391 3.185-3.458 0-2.054-1.456-3.458-3.185-3.458zm-0.4292 5.148c-0.845 0-1.599-0.676-1.599-1.69 0-1.001 0.754-1.69 1.599-1.69 0.9102 0 1.5732 0.689 1.5732 1.69 0 1.014-0.663 1.69-1.5732 1.69zm4.2452-0.13c0.221 1.339 1.534 1.898 3.068 1.898 1.716 0 2.964-0.754 2.964-2.197 0-0.962-0.572-1.703-1.807-1.963l-1.534-0.312c-0.416-0.091-0.494-0.273-0.494-0.455 0-0.234 0.182-0.507 0.741-0.507 0.637 0 1.027 0.364 1.092 0.767l1.898-0.377c-0.26-1.131-1.339-1.872-2.964-1.872-1.651 0-2.808 0.871-2.808 2.21 0 1.027 0.689 1.677 1.898 1.898l1.326 0.26c0.481 0.091 0.65 0.26 0.65 0.481 0 0.286-0.299 0.52-0.845 0.52-0.559 0-1.066-0.208-1.157-0.767l-2.028 0.416zm6.568-6.812c1.209 1.339 1.794 2.483 1.794 4.147s-0.585 2.808-1.833 4.147l1.456 1.287c1.638-1.508 2.574-3.263 2.574-5.434s-0.936-3.926-2.574-5.434l-1.417 1.287z" fill="#000009"/>
<path d="m50.175 404.12v-1.164h-6.948v1.164h2.82v6.876h1.296v-6.876h2.832zm5.6781 3.768c-0.06-1.788-1.38-3.012-2.976-3.012-1.68 0-3.084 1.26-3.084 3.156 0 1.884 1.416 3.132 3.036 3.132 1.32 0 2.376-0.624 2.868-1.872l-1.116-0.24c-0.42 0.84-1.092 1.032-1.752 1.032-0.876 0-1.68-0.66-1.8-1.764h4.824v-0.432zm-2.976-1.908c0.816 0 1.5 0.48 1.692 1.452h-3.504c0.192-0.96 1.032-1.452 1.812-1.452zm11.714-1.104c-0.984 0-1.74 0.42-2.22 1.092-0.384-0.696-1.128-1.092-1.98-1.092s-1.476 0.312-1.908 0.84v-0.672h-1.248v5.952h1.248v-2.952c0-1.332 0.624-2.016 1.584-2.016 0.768 0 1.344 0.552 1.344 1.428v3.54h1.248v-2.952c0-1.332 0.636-2.016 1.608-2.016 0.768 0 1.344 0.552 1.344 1.428v3.54h1.236v-3.792c0-1.404-1.02-2.328-2.256-2.328zm7.4309 0c-0.9 0-1.644 0.312-2.16 0.852v-0.684h-1.248v7.992h1.248v-2.724c0.516 0.54 1.26 0.852 2.16 0.852 1.56 0 2.952-1.26 2.952-3.144 0-1.872-1.392-3.144-2.952-3.144zm-0.204 5.184c-0.984 0-1.956-0.78-1.956-2.04 0-1.248 0.972-2.04 1.956-2.04 1.092 0 1.944 0.792 1.944 2.04 0 1.26-0.852 2.04-1.944 2.04zm5.7784 0.936v-8.64h-1.248v8.64h1.248zm7.7126-5.952h-1.248v0.684c-0.516-0.54-1.26-0.852-2.16-0.852-1.56 0-2.952 1.272-2.952 3.144 0 1.884 1.392 3.144 2.952 3.144 0.9 0 1.644-0.312 2.16-0.852v0.684h1.248v-5.952zm-3.204 5.016c-1.092 0-1.944-0.78-1.944-2.04 0-1.248 0.852-2.04 1.944-2.04 0.984 0 1.956 0.792 1.956 2.04 0 1.26-0.972 2.04-1.956 2.04zm8.671-0.396c-0.312 0.204-0.696 0.324-1.008 0.324-0.588 0-0.984-0.36-0.984-1.104v-2.808h2.04v-1.032h-2.04v-1.848h-1.248v1.848h-1.284v1.032h1.284v2.892c0 1.476 0.864 2.196 2.148 2.196 0.504 0 0.912-0.12 1.476-0.456l-0.384-1.044zm6.7844-1.776c-0.06-1.788-1.38-3.012-2.976-3.012-1.68 0-3.084 1.26-3.084 3.156 0 1.884 1.416 3.132 3.036 3.132 1.32 0 2.376-0.624 2.868-1.872l-1.116-0.24c-0.42 0.84-1.092 1.032-1.752 1.032-0.876 0-1.68-0.66-1.8-1.764h4.824v-0.432zm-2.976-1.908c0.816 0 1.5 0.48 1.692 1.452h-3.504c0.192-0.96 1.032-1.452 1.812-1.452zm15.543-0.936h-1.248l-1.356 4.14-1.404-4.14h-0.984l-1.404 4.14-1.356-4.14h-1.248l1.992 5.976h1.14l1.368-4.008 1.368 4.008h1.14l1.992-5.976zm1.84-2.568c-0.468 0-0.804 0.36-0.804 0.78 0 0.444 0.336 0.768 0.804 0.768 0.456 0 0.792-0.324 0.792-0.768 0-0.42-0.336-0.78-0.792-0.78zm0.624 8.52v-5.952h-1.248v5.952h1.248zm5.56-1.332c-0.312 0.204-0.696 0.324-1.008 0.324-0.588 0-0.984-0.36-0.984-1.104v-2.808h2.04v-1.032h-2.04v-1.848h-1.248v1.848h-1.284v1.032h1.284v2.892c0 1.476 0.864 2.196 2.148 2.196 0.504 0 0.912-0.12 1.476-0.456l-0.384-1.044zm4.705-4.788c-0.888 0-1.584 0.324-2.064 0.9v-3.42h-1.248v8.64h1.248v-2.748c0-1.5 0.708-2.22 1.776-2.22 0.852 0 1.416 0.648 1.416 1.62v3.348h1.26v-3.6c0-1.488-0.96-2.52-2.388-2.52zm-77.572 20.788c-0.312 0.204-0.696 0.324-1.008 0.324-0.588 0-0.984-0.36-0.984-1.104v-2.808h2.04v-1.032h-2.04v-1.848h-1.248v1.848h-1.284v1.032h1.284v2.892c0 1.476 0.864 2.196 2.148 2.196 0.504 0 0.912-0.12 1.476-0.456l-0.384-1.044zm4.7047-4.788c-0.888 0-1.584 0.324-2.064 0.9v-3.42h-1.248v8.64h1.248v-2.748c0-1.5 0.708-2.22 1.776-2.22 0.852 0 1.416 0.648 1.416 1.62v3.348h1.26v-3.6c0-1.488-0.96-2.52-2.388-2.52zm9.6617 0.168h-1.248v2.748c0 1.5-0.696 2.22-1.764 2.22-0.864 0-1.428-0.66-1.428-1.632v-3.336h-1.248v3.588c0 1.5 0.948 2.532 2.388 2.532 0.876 0 1.572-0.324 2.052-0.9v0.732h1.248v-5.952zm9.2534-0.168c-0.984 0-1.74 0.42-2.22 1.092-0.384-0.696-1.128-1.092-1.98-1.092s-1.476 0.312-1.908 0.84v-0.672h-1.248v5.952h1.248v-2.952c0-1.332 0.624-2.016 1.584-2.016 0.768 0 1.344 0.552 1.344 1.428v3.54h1.248v-2.952c0-1.332 0.636-2.016 1.608-2.016 0.768 0 1.344 0.552 1.344 1.428v3.54h1.236v-3.792c0-1.404-1.02-2.328-2.256-2.328zm7.4309 0c-0.9 0-1.644 0.312-2.16 0.852v-3.372h-1.248v8.64h1.248v-0.684c0.516 0.54 1.26 0.852 2.16 0.852 1.56 0 2.952-1.26 2.952-3.144 0-1.872-1.392-3.144-2.952-3.144zm-0.204 5.184c-0.984 0-1.956-0.78-1.956-2.04 0-1.248 0.972-2.04 1.956-2.04 1.092 0 1.944 0.792 1.944 2.04 0 1.26-0.852 2.04-1.944 2.04zm4.0264-0.66c0.156 1.2 1.296 1.764 2.628 1.764 1.488 0 2.508-0.672 2.508-1.92 0-0.84-0.588-1.404-1.548-1.608l-1.416-0.312c-0.528-0.12-0.72-0.336-0.72-0.672 0-0.42 0.324-0.78 1.056-0.78 0.768 0 1.26 0.396 1.356 0.972l1.188-0.252c-0.216-0.996-1.14-1.716-2.508-1.716-1.428 0-2.352 0.78-2.352 1.884 0 0.84 0.588 1.392 1.62 1.62l1.296 0.264c0.552 0.12 0.804 0.348 0.804 0.708 0 0.468-0.456 0.792-1.176 0.792-0.78 0-1.404-0.3-1.488-1.008l-1.248 0.264zm13.008-3.324v-1.032h-1.98v-0.708c0-0.66 0.408-1.044 1.032-1.044 0.192 0 0.42 0.036 0.636 0.12l0.3-1.02c-0.324-0.144-0.648-0.216-1.02-0.216-1.32 0-2.196 0.828-2.196 2.16v0.708h-0.972v1.032h0.972v4.92h1.248v-4.92h1.98zm6.5286-1.032h-1.248v2.748c0 1.5-0.696 2.22-1.764 2.22-0.864 0-1.428-0.66-1.428-1.632v-3.336h-1.248v3.588c0 1.5 0.948 2.532 2.388 2.532 0.876 0 1.572-0.324 2.052-0.9v0.732h1.248v-5.952zm5.2098-0.168c-0.888 0-1.584 0.324-2.064 0.9v-0.732h-1.248v5.952h1.248v-2.748c0-1.5 0.708-2.22 1.776-2.22 0.852 0 1.416 0.648 1.416 1.62v3.348h1.26v-3.6c0-1.488-0.96-2.52-2.388-2.52zm7.441 0c-0.888 0-1.584 0.324-2.064 0.9v-0.732h-1.248v5.952h1.248v-2.748c0-1.5 0.708-2.22 1.776-2.22 0.852 0 1.416 0.648 1.416 1.62v3.348h1.26v-3.6c0-1.488-0.96-2.52-2.388-2.52zm9.673 3.012c-0.06-1.788-1.38-3.012-2.976-3.012-1.68 0-3.084 1.26-3.084 3.156 0 1.884 1.416 3.132 3.036 3.132 1.32 0 2.376-0.624 2.868-1.872l-1.116-0.24c-0.42 0.84-1.092 1.032-1.752 1.032-0.876 0-1.68-0.66-1.8-1.764h4.824v-0.432zm-2.976-1.908c0.816 0 1.5 0.48 1.692 1.452h-3.504c0.192-0.96 1.032-1.452 1.812-1.452zm5.606 5.016v-8.64h-1.248v8.64h1.248zm2.277-1.476c-0.456 0-0.792 0.348-0.792 0.756 0 0.432 0.336 0.768 0.792 0.768s0.78-0.336 0.78-0.768c0-0.408-0.324-0.756-0.78-0.756z" fill="#66717E"/>
<rect x="159.5" y="258.5" width="119" height="200" rx="5.5" fill="#fff" stroke="#DDDBDB"/>
<rect x="192" y="273" width="54" height="5" rx="2.5" fill="#DDDBDB"/>
<rect x="197" y="283" width="44" height="5" rx="2.5" fill="#DDDBDB"/>
<rect x="194" y="293" width="50" height="5" rx="2.5" fill="#DDDBDB"/>
<rect x="180" y="303" width="78" height="21" rx="6" fill="#25E85F"/>
<rect x="160" y="338" width="118" height="1" fill="#DDDBDB"/>
<path d="m196.74 360.32c-0.299 1.3-1.183 1.924-2.288 1.924-1.378 0-2.483-1.118-2.483-2.6s1.105-2.587 2.483-2.587c1.118 0 2.002 0.611 2.275 1.872l2.106-0.494c-0.416-2.067-2.236-3.341-4.381-3.341-2.587 0-4.628 2.002-4.628 4.55 0 2.561 2.041 4.55 4.628 4.55 2.236 0 3.991-1.274 4.394-3.458l-2.106-0.416zm6.495-3.016c-1.976 0-3.614 1.378-3.614 3.432 0 2.067 1.638 3.445 3.614 3.445 1.937 0 3.575-1.378 3.575-3.445 0-2.054-1.638-3.432-3.575-3.432zm0 5.122c-0.845 0-1.612-0.663-1.612-1.69 0-1.014 0.767-1.69 1.612-1.69 0.806 0 1.573 0.676 1.573 1.69 0 1.027-0.767 1.69-1.573 1.69zm6.728 1.573v-9.36h-2.08v9.36h2.08zm8.039-6.526h-2.08v3.029c0 1.261-0.533 1.82-1.352 1.82-0.663 0-1.118-0.52-1.118-1.287v-3.562h-2.067v4.004c0 1.638 1.014 2.717 2.535 2.717 0.819 0 1.508-0.299 2.002-0.819v0.624h2.08v-6.526zm9.96-0.195c-1.014 0-1.794 0.429-2.314 1.105-0.442-0.715-1.222-1.105-2.132-1.105-0.845 0-1.482 0.299-1.924 0.793v-0.598h-2.08v6.526h2.08v-3.198c0-1.092 0.494-1.651 1.248-1.651 0.624 0 1.105 0.468 1.105 1.209v3.64h2.08v-3.198c0-1.092 0.507-1.651 1.274-1.651 0.611 0 1.092 0.468 1.092 1.209v3.64h2.067v-4.082c0-1.586-1.105-2.639-2.496-2.639zm7.998 0c-0.819 0-1.508 0.299-2.002 0.819v-0.624h-2.08v6.526h2.08v-3.029c0-1.261 0.533-1.82 1.352-1.82 0.663 0 1.118 0.52 1.118 1.287v3.562h2.067v-4.004c0-1.638-1.014-2.717-2.535-2.717zm13.02 3.627v-1.703h-2.223v-2.262h-1.703v2.262h-2.223v1.703h2.223v2.262h1.703v-2.262h2.223zm-44.777 16.596c0.585-0.065 1.43-0.637 1.43-1.833 0-1.43-1.04-2.379-2.639-2.379h-4.511v8.71h4.524c1.898 0 2.873-1.001 2.873-2.444 0-1.313-0.871-1.937-1.677-2.002v-0.052zm-3.575-2.483h1.95c0.546 0 0.975 0.351 0.975 0.897 0 0.585-0.416 0.975-1.053 0.975h-1.872v-1.872zm0 5.252v-1.911h2.041c0.611 0 1.027 0.364 1.027 0.936 0 0.598-0.377 0.975-1.066 0.975h-2.002zm12.899-4.797h-2.08v3.029c0 1.261-0.533 1.82-1.352 1.82-0.663 0-1.118-0.52-1.118-1.287v-3.562h-2.067v4.004c0 1.638 1.014 2.717 2.535 2.717 0.819 0 1.508-0.299 2.002-0.819v0.624h2.08v-6.526zm5.865 4.602c-0.273 0.156-0.663 0.26-0.949 0.26-0.546 0-0.871-0.273-0.871-0.949v-2.262h1.924v-1.651h-1.924v-1.924h-2.08v1.924h-1.183v1.651h1.183v2.47c0 1.716 0.975 2.6 2.6 2.6 0.741 0 1.274-0.208 1.781-0.481l-0.481-1.638zm5.624 0c-0.273 0.156-0.663 0.26-0.949 0.26-0.546 0-0.871-0.273-0.871-0.949v-2.262h1.924v-1.651h-1.924v-1.924h-2.08v1.924h-1.183v1.651h1.183v2.47c0 1.716 0.975 2.6 2.6 2.6 0.741 0 1.274-0.208 1.781-0.481l-0.481-1.638zm4.327-4.771c-1.976 0-3.614 1.378-3.614 3.432 0 2.067 1.638 3.445 3.614 3.445 1.937 0 3.575-1.378 3.575-3.445 0-2.054-1.638-3.432-3.575-3.432zm0 5.122c-0.845 0-1.612-0.663-1.612-1.69 0-1.014 0.767-1.69 1.612-1.69 0.806 0 1.573 0.676 1.573 1.69 0 1.027-0.767 1.69-1.573 1.69zm8.73-5.148c-0.819 0-1.508 0.299-2.002 0.819v-0.624h-2.08v6.526h2.08v-3.029c0-1.261 0.533-1.82 1.352-1.82 0.663 0 1.118 0.52 1.118 1.287v3.562h2.067v-4.004c0-1.638-1.014-2.717-2.535-2.717z" fill="#000009"/>
<path d="m189.04 402.79c-2.352 0-4.188 1.86-4.188 4.2 0 2.328 1.836 4.176 4.188 4.176s4.2-1.848 4.2-4.176c0-2.34-1.848-4.2-4.2-4.2zm0 7.164c-1.62 0-2.892-1.272-2.892-2.964 0-1.704 1.272-2.988 2.892-2.988 1.632 0 2.904 1.284 2.904 2.988 0 1.692-1.272 2.964-2.904 2.964zm9.024-5.076c-0.888 0-1.584 0.324-2.064 0.9v-0.732h-1.248v5.952h1.248v-2.748c0-1.5 0.708-2.22 1.776-2.22 0.852 0 1.416 0.648 1.416 1.62v3.348h1.26v-3.6c0-1.488-0.96-2.52-2.388-2.52zm9.673 3.012c-0.06-1.788-1.38-3.012-2.976-3.012-1.68 0-3.084 1.26-3.084 3.156 0 1.884 1.416 3.132 3.036 3.132 1.32 0 2.376-0.624 2.868-1.872l-1.116-0.24c-0.42 0.84-1.092 1.032-1.752 1.032-0.876 0-1.68-0.66-1.8-1.764h4.824v-0.432zm-2.976-1.908c0.816 0 1.5 0.48 1.692 1.452h-3.504c0.192-0.96 1.032-1.452 1.812-1.452zm9.951 4.032c-1.104 0-1.92-0.78-1.92-1.992 0-1.176 0.816-1.992 1.92-1.992 0.792 0 1.476 0.408 1.704 1.284l1.2-0.348c-0.372-1.272-1.56-2.088-2.904-2.088-1.704 0-3.144 1.284-3.144 3.144 0 1.884 1.44 3.144 3.144 3.144 1.38 0 2.58-0.816 2.904-2.1l-1.152-0.3c-0.288 0.864-0.96 1.248-1.752 1.248zm6.986-5.1c-1.764 0-3.204 1.26-3.204 3.108s1.44 3.12 3.204 3.12c1.752 0 3.18-1.272 3.18-3.12s-1.428-3.108-3.18-3.108zm0 5.148c-1.044 0-1.98-0.804-1.98-2.04s0.936-2.04 1.98-2.04c1.02 0 1.968 0.804 1.968 2.04s-0.948 2.04-1.968 2.04zm5.825 0.936v-8.64h-1.248v8.64h1.248zm7.437-5.952h-1.248v2.748c0 1.5-0.696 2.22-1.764 2.22-0.864 0-1.428-0.66-1.428-1.632v-3.336h-1.248v3.588c0 1.5 0.948 2.532 2.388 2.532 0.876 0 1.572-0.324 2.052-0.9v0.732h1.248v-5.952zm9.253-0.168c-0.984 0-1.74 0.42-2.22 1.092-0.384-0.696-1.128-1.092-1.98-1.092s-1.476 0.312-1.908 0.84v-0.672h-1.248v5.952h1.248v-2.952c0-1.332 0.624-2.016 1.584-2.016 0.768 0 1.344 0.552 1.344 1.428v3.54h1.248v-2.952c0-1.332 0.636-2.016 1.608-2.016 0.768 0 1.344 0.552 1.344 1.428v3.54h1.236v-3.792c0-1.404-1.02-2.328-2.256-2.328zm7.335 0c-0.888 0-1.584 0.324-2.064 0.9v-0.732h-1.248v5.952h1.248v-2.748c0-1.5 0.708-2.22 1.776-2.22 0.852 0 1.416 0.648 1.416 1.62v3.348h1.26v-3.6c0-1.488-0.96-2.52-2.388-2.52zm-68.273 20.788c-0.312 0.204-0.696 0.324-1.008 0.324-0.588 0-0.984-0.36-0.984-1.104v-2.808h2.04v-1.032h-2.04v-1.848h-1.248v1.848h-1.284v1.032h1.284v2.892c0 1.476 0.864 2.196 2.148 2.196 0.504 0 0.912-0.12 1.476-0.456l-0.384-1.044zm6.784-1.776c-0.06-1.788-1.38-3.012-2.976-3.012-1.68 0-3.084 1.26-3.084 3.156 0 1.884 1.416 3.132 3.036 3.132 1.32 0 2.376-0.624 2.868-1.872l-1.116-0.24c-0.42 0.84-1.092 1.032-1.752 1.032-0.876 0-1.68-0.66-1.8-1.764h4.824v-0.432zm-2.976-1.908c0.816 0 1.5 0.48 1.692 1.452h-3.504c0.192-0.96 1.032-1.452 1.812-1.452zm11.714-1.104c-0.984 0-1.74 0.42-2.22 1.092-0.384-0.696-1.128-1.092-1.98-1.092s-1.476 0.312-1.908 0.84v-0.672h-1.248v5.952h1.248v-2.952c0-1.332 0.624-2.016 1.584-2.016 0.768 0 1.344 0.552 1.344 1.428v3.54h1.248v-2.952c0-1.332 0.636-2.016 1.608-2.016 0.768 0 1.344 0.552 1.344 1.428v3.54h1.236v-3.792c0-1.404-1.02-2.328-2.256-2.328zm7.431 0c-0.9 0-1.644 0.312-2.16 0.852v-0.684h-1.248v7.992h1.248v-2.724c0.516 0.54 1.26 0.852 2.16 0.852 1.56 0 2.952-1.26 2.952-3.144 0-1.872-1.392-3.144-2.952-3.144zm-0.204 5.184c-0.984 0-1.956-0.78-1.956-2.04 0-1.248 0.972-2.04 1.956-2.04 1.092 0 1.944 0.792 1.944 2.04 0 1.26-0.852 2.04-1.944 2.04zm5.779 0.936v-8.64h-1.248v8.64h1.248zm7.712-5.952h-1.248v0.684c-0.516-0.54-1.26-0.852-2.16-0.852-1.56 0-2.952 1.272-2.952 3.144 0 1.884 1.392 3.144 2.952 3.144 0.9 0 1.644-0.312 2.16-0.852v0.684h1.248v-5.952zm-3.204 5.016c-1.092 0-1.944-0.78-1.944-2.04 0-1.248 0.852-2.04 1.944-2.04 0.984 0 1.956 0.792 1.956 2.04 0 1.26-0.972 2.04-1.956 2.04zm8.671-0.396c-0.312 0.204-0.696 0.324-1.008 0.324-0.588 0-0.984-0.36-0.984-1.104v-2.808h2.04v-1.032h-2.04v-1.848h-1.248v1.848h-1.284v1.032h1.284v2.892c0 1.476 0.864 2.196 2.148 2.196 0.504 0 0.912-0.12 1.476-0.456l-0.384-1.044zm6.784-1.776c-0.06-1.788-1.38-3.012-2.976-3.012-1.68 0-3.084 1.26-3.084 3.156 0 1.884 1.416 3.132 3.036 3.132 1.32 0 2.376-0.624 2.868-1.872l-1.116-0.24c-0.42 0.84-1.092 1.032-1.752 1.032-0.876 0-1.68-0.66-1.8-1.764h4.824v-0.432zm-2.976-1.908c0.816 0 1.5 0.48 1.692 1.452h-3.504c0.192-0.96 1.032-1.452 1.812-1.452zm15.543-0.936h-1.248l-1.356 4.14-1.404-4.14h-0.984l-1.404 4.14-1.356-4.14h-1.248l1.992 5.976h1.14l1.368-4.008 1.368 4.008h1.14l1.992-5.976zm1.84-2.568c-0.468 0-0.804 0.36-0.804 0.78 0 0.444 0.336 0.768 0.804 0.768 0.456 0 0.792-0.324 0.792-0.768 0-0.42-0.336-0.78-0.792-0.78zm0.624 8.52v-5.952h-1.248v5.952h1.248zm5.56-1.332c-0.312 0.204-0.696 0.324-1.008 0.324-0.588 0-0.984-0.36-0.984-1.104v-2.808h2.04v-1.032h-2.04v-1.848h-1.248v1.848h-1.284v1.032h1.284v2.892c0 1.476 0.864 2.196 2.148 2.196 0.504 0 0.912-0.12 1.476-0.456l-0.384-1.044zm4.705-4.788c-0.888 0-1.584 0.324-2.064 0.9v-3.42h-1.248v8.64h1.248v-2.748c0-1.5 0.708-2.22 1.776-2.22 0.852 0 1.416 0.648 1.416 1.62v3.348h1.26v-3.6c0-1.488-0.96-2.52-2.388-2.52zm-74.908 22.12v-8.64h-1.248v8.64h1.248zm2.613-8.52c-0.468 0-0.804 0.36-0.804 0.78 0 0.444 0.336 0.768 0.804 0.768 0.456 0 0.792-0.324 0.792-0.768 0-0.42-0.336-0.78-0.792-0.78zm0.624 8.52v-5.952h-1.248v5.952h1.248zm9.34-6.12c-0.984 0-1.74 0.42-2.22 1.092-0.384-0.696-1.128-1.092-1.98-1.092s-1.476 0.312-1.908 0.84v-0.672h-1.248v5.952h1.248v-2.952c0-1.332 0.624-2.016 1.584-2.016 0.768 0 1.344 0.552 1.344 1.428v3.54h1.248v-2.952c0-1.332 0.636-2.016 1.608-2.016 0.768 0 1.344 0.552 1.344 1.428v3.54h1.236v-3.792c0-1.404-1.02-2.328-2.256-2.328zm4.743-2.4c-0.468 0-0.804 0.36-0.804 0.78 0 0.444 0.336 0.768 0.804 0.768 0.456 0 0.792-0.324 0.792-0.768 0-0.42-0.336-0.78-0.792-0.78zm0.624 8.52v-5.952h-1.248v5.952h1.248zm5.56-1.332c-0.312 0.204-0.696 0.324-1.008 0.324-0.588 0-0.984-0.36-0.984-1.104v-2.808h2.04v-1.032h-2.04v-1.848h-1.248v1.848h-1.284v1.032h1.284v2.892c0 1.476 0.864 2.196 2.148 2.196 0.504 0 0.912-0.12 1.476-0.456l-0.384-1.044zm6.784-1.776c-0.06-1.788-1.38-3.012-2.976-3.012-1.68 0-3.084 1.26-3.084 3.156 0 1.884 1.416 3.132 3.036 3.132 1.32 0 2.376-0.624 2.868-1.872l-1.116-0.24c-0.42 0.84-1.092 1.032-1.752 1.032-0.876 0-1.68-0.66-1.8-1.764h4.824v-0.432zm-2.976-1.908c0.816 0 1.5 0.48 1.692 1.452h-3.504c0.192-0.96 1.032-1.452 1.812-1.452zm10.214-3.624h-1.26v3.372c-0.528-0.54-1.26-0.852-2.16-0.852-1.548 0-2.952 1.272-2.952 3.144 0 1.884 1.404 3.144 2.952 3.144 0.9 0 1.632-0.312 2.16-0.84v0.672h1.26v-8.64zm-3.216 7.704c-1.08 0-1.932-0.78-1.932-2.04 0-1.248 0.852-2.04 1.932-2.04 0.996 0 1.956 0.792 1.956 2.04 0 1.26-0.96 2.04-1.956 2.04zm16.279-5.016h-1.248l-1.356 4.14-1.404-4.14h-0.984l-1.404 4.14-1.356-4.14h-1.248l1.992 5.976h1.14l1.368-4.008 1.368 4.008h1.14l1.992-5.976zm1.84-2.568c-0.468 0-0.804 0.36-0.804 0.78 0 0.444 0.336 0.768 0.804 0.768 0.456 0 0.792-0.324 0.792-0.768 0-0.42-0.336-0.78-0.792-0.78zm0.624 8.52v-5.952h-1.248v5.952h1.248zm7.84-8.64h-1.26v3.372c-0.528-0.54-1.26-0.852-2.16-0.852-1.548 0-2.952 1.272-2.952 3.144 0 1.884 1.404 3.144 2.952 3.144 0.9 0 1.632-0.312 2.16-0.84v0.672h1.26v-8.64zm-3.216 7.704c-1.08 0-1.932-0.78-1.932-2.04 0-1.248 0.852-2.04 1.932-2.04 0.996 0 1.956 0.792 1.956 2.04 0 1.26-0.96 2.04-1.956 2.04zm8.671-0.396c-0.312 0.204-0.696 0.324-1.008 0.324-0.588 0-0.984-0.36-0.984-1.104v-2.808h2.04v-1.032h-2.04v-1.848h-1.248v1.848h-1.284v1.032h1.284v2.892c0 1.476 0.864 2.196 2.148 2.196 0.504 0 0.912-0.12 1.476-0.456l-0.384-1.044zm4.704-4.788c-0.888 0-1.584 0.324-2.064 0.9v-3.42h-1.248v8.64h1.248v-2.748c0-1.5 0.708-2.22 1.776-2.22 0.852 0 1.416 0.648 1.416 1.62v3.348h1.26v-3.6c0-1.488-0.96-2.52-2.388-2.52zm4.525 4.644c-0.456 0-0.792 0.348-0.792 0.756 0 0.432 0.336 0.768 0.792 0.768s0.78-0.336 0.78-0.768c0-0.408-0.324-0.756-0.78-0.756z" fill="#66717E"/>
<rect x="294.5" y="258.5" width="119" height="200" rx="5.5" fill="#03CEA4" fill-opacity=".1" stroke="#03CEA4"/>
<rect x="300" y="273" width="108" height="5" rx="2.5" fill="#DDDBDB"/>
<rect x="307" y="283" width="94" height="5" rx="2.5" fill="#DDDBDB"/>
<rect x="307" y="293" width="94" height="5" rx="2.5" fill="#DDDBDB"/>
<rect x="315" y="303" width="78" height="21" rx="6" fill="#25E85F"/>
<rect x="295" y="338" width="118" height="1" fill="#03CEA4"/>
<path d="m325.21 357.18h4.589v-1.885h-6.734v8.71h2.145v-3.12h4.082v-1.872h-4.082v-1.833zm12.036 0.299h-2.08v3.029c0 1.261-0.533 1.82-1.352 1.82-0.663 0-1.118-0.52-1.118-1.287v-3.562h-2.067v4.004c0 1.638 1.014 2.717 2.535 2.717 0.819 0 1.508-0.299 2.002-0.819v0.624h2.08v-6.526zm3.59 6.526v-9.36h-2.08v9.36h2.08zm3.593 0v-9.36h-2.08v9.36h2.08zm16.351-8.71h-2.21l-1.521 5.486-1.495-5.486h-2.041l-1.495 5.486-1.521-5.486h-2.197l2.483 8.71h2.288l1.469-5.382 1.456 5.382h2.301l2.483-8.71zm1.972-0.923c-0.702 0-1.196 0.546-1.196 1.183 0 0.663 0.494 1.157 1.196 1.157s1.209-0.494 1.209-1.157c0-0.637-0.507-1.183-1.209-1.183zm1.04 9.633v-6.526h-2.08v6.526h2.08zm8.476-9.36h-2.08v3.354c-0.507-0.455-1.183-0.715-2.028-0.715-1.729 0-3.185 1.404-3.185 3.458 0 2.067 1.456 3.458 3.185 3.458 0.845 0 1.521-0.26 2.028-0.715v0.52h2.08v-9.36zm-3.679 7.787c-0.91 0-1.573-0.676-1.573-1.69 0-1.001 0.663-1.69 1.573-1.69 0.845 0 1.599 0.689 1.599 1.69 0 1.014-0.754 1.69-1.599 1.69zm9.536-0.351c-0.273 0.156-0.663 0.26-0.949 0.26-0.546 0-0.871-0.273-0.871-0.949v-2.262h1.924v-1.651h-1.924v-1.924h-2.08v1.924h-1.183v1.651h1.183v2.47c0 1.716 0.975 2.6 2.6 2.6 0.741 0 1.274-0.208 1.781-0.481l-0.481-1.638zm5.364-4.797c-0.832 0-1.508 0.299-2.015 0.819v-3.458h-2.08v9.36h2.08v-3.029c0-1.261 0.533-1.82 1.339-1.82 0.676 0 1.131 0.52 1.131 1.287v3.562h2.067v-4.004c0-1.638-1.014-2.717-2.522-2.717zm-60.815 21.042c-0.299 1.3-1.183 1.924-2.288 1.924-1.378 0-2.483-1.118-2.483-2.6s1.105-2.587 2.483-2.587c1.118 0 2.002 0.611 2.275 1.872l2.106-0.494c-0.416-2.067-2.236-3.341-4.381-3.341-2.587 0-4.628 2.002-4.628 4.55 0 2.561 2.041 4.55 4.628 4.55 2.236 0 3.991-1.274 4.394-3.458l-2.106-0.416zm6.496-3.016c-1.976 0-3.614 1.378-3.614 3.432 0 2.067 1.638 3.445 3.614 3.445 1.937 0 3.575-1.378 3.575-3.445 0-2.054-1.638-3.432-3.575-3.432zm0 5.122c-0.845 0-1.612-0.663-1.612-1.69 0-1.014 0.767-1.69 1.612-1.69 0.806 0 1.573 0.676 1.573 1.69 0 1.027-0.767 1.69-1.573 1.69zm6.728 1.573v-9.36h-2.08v9.36h2.08zm10.579-3.094v-1.703h-2.223v-2.262h-1.703v2.262h-2.223v1.703h2.223v2.262h1.703v-2.262h2.223zm10.149-1.404c0.585-0.065 1.43-0.637 1.43-1.833 0-1.43-1.04-2.379-2.639-2.379h-4.511v8.71h4.524c1.898 0 2.873-1.001 2.873-2.444 0-1.313-0.871-1.937-1.677-2.002v-0.052zm-3.575-2.483h1.95c0.546 0 0.975 0.351 0.975 0.897 0 0.585-0.416 0.975-1.053 0.975h-1.872v-1.872zm0 5.252v-1.911h2.041c0.611 0 1.027 0.364 1.027 0.936 0 0.598-0.377 0.975-1.066 0.975h-2.002zm12.899-4.797h-2.08v3.029c0 1.261-0.533 1.82-1.352 1.82-0.663 0-1.118-0.52-1.118-1.287v-3.562h-2.067v4.004c0 1.638 1.014 2.717 2.535 2.717 0.819 0 1.508-0.299 2.002-0.819v0.624h2.08v-6.526zm5.866 4.602c-0.273 0.156-0.663 0.26-0.949 0.26-0.546 0-0.871-0.273-0.871-0.949v-2.262h1.924v-1.651h-1.924v-1.924h-2.08v1.924h-1.183v1.651h1.183v2.47c0 1.716 0.975 2.6 2.6 2.6 0.741 0 1.274-0.208 1.781-0.481l-0.481-1.638zm5.624 0c-0.273 0.156-0.663 0.26-0.949 0.26-0.546 0-0.871-0.273-0.871-0.949v-2.262h1.924v-1.651h-1.924v-1.924h-2.08v1.924h-1.183v1.651h1.183v2.47c0 1.716 0.975 2.6 2.6 2.6 0.741 0 1.274-0.208 1.781-0.481l-0.481-1.638zm4.327-4.771c-1.976 0-3.614 1.378-3.614 3.432 0 2.067 1.638 3.445 3.614 3.445 1.937 0 3.575-1.378 3.575-3.445 0-2.054-1.638-3.432-3.575-3.432zm0 5.122c-0.845 0-1.612-0.663-1.612-1.69 0-1.014 0.767-1.69 1.612-1.69 0.806 0 1.573 0.676 1.573 1.69 0 1.027-0.767 1.69-1.573 1.69zm8.73-5.148c-0.819 0-1.508 0.299-2.002 0.819v-0.624h-2.08v6.526h2.08v-3.029c0-1.261 0.533-1.82 1.352-1.82 0.663 0 1.118 0.52 1.118 1.287v3.562h2.067v-4.004c0-1.638-1.014-2.717-2.535-2.717z" fill="#000009"/>
<path d="m324.04 402.79c-2.352 0-4.188 1.86-4.188 4.2 0 2.328 1.836 4.176 4.188 4.176s4.2-1.848 4.2-4.176c0-2.34-1.848-4.2-4.2-4.2zm0 7.164c-1.62 0-2.892-1.272-2.892-2.964 0-1.704 1.272-2.988 2.892-2.988 1.632 0 2.904 1.284 2.904 2.988 0 1.692-1.272 2.964-2.904 2.964zm9.024-5.076c-0.888 0-1.584 0.324-2.064 0.9v-0.732h-1.248v5.952h1.248v-2.748c0-1.5 0.708-2.22 1.776-2.22 0.852 0 1.416 0.648 1.416 1.62v3.348h1.26v-3.6c0-1.488-0.96-2.52-2.388-2.52zm9.673 3.012c-0.06-1.788-1.38-3.012-2.976-3.012-1.68 0-3.084 1.26-3.084 3.156 0 1.884 1.416 3.132 3.036 3.132 1.32 0 2.376-0.624 2.868-1.872l-1.116-0.24c-0.42 0.84-1.092 1.032-1.752 1.032-0.876 0-1.68-0.66-1.8-1.764h4.824v-0.432zm-2.976-1.908c0.816 0 1.5 0.48 1.692 1.452h-3.504c0.192-0.96 1.032-1.452 1.812-1.452zm9.951 4.032c-1.104 0-1.92-0.78-1.92-1.992 0-1.176 0.816-1.992 1.92-1.992 0.792 0 1.476 0.408 1.704 1.284l1.2-0.348c-0.372-1.272-1.56-2.088-2.904-2.088-1.704 0-3.144 1.284-3.144 3.144 0 1.884 1.44 3.144 3.144 3.144 1.38 0 2.58-0.816 2.904-2.1l-1.152-0.3c-0.288 0.864-0.96 1.248-1.752 1.248zm6.986-5.1c-1.764 0-3.204 1.26-3.204 3.108s1.44 3.12 3.204 3.12c1.752 0 3.18-1.272 3.18-3.12s-1.428-3.108-3.18-3.108zm0 5.148c-1.044 0-1.98-0.804-1.98-2.04s0.936-2.04 1.98-2.04c1.02 0 1.968 0.804 1.968 2.04s-0.948 2.04-1.968 2.04zm5.825 0.936v-8.64h-1.248v8.64h1.248zm7.437-5.952h-1.248v2.748c0 1.5-0.696 2.22-1.764 2.22-0.864 0-1.428-0.66-1.428-1.632v-3.336h-1.248v3.588c0 1.5 0.948 2.532 2.388 2.532 0.876 0 1.572-0.324 2.052-0.9v0.732h1.248v-5.952zm9.253-0.168c-0.984 0-1.74 0.42-2.22 1.092-0.384-0.696-1.128-1.092-1.98-1.092s-1.476 0.312-1.908 0.84v-0.672h-1.248v5.952h1.248v-2.952c0-1.332 0.624-2.016 1.584-2.016 0.768 0 1.344 0.552 1.344 1.428v3.54h1.248v-2.952c0-1.332 0.636-2.016 1.608-2.016 0.768 0 1.344 0.552 1.344 1.428v3.54h1.236v-3.792c0-1.404-1.02-2.328-2.256-2.328zm7.335 0c-0.888 0-1.584 0.324-2.064 0.9v-0.732h-1.248v5.952h1.248v-2.748c0-1.5 0.708-2.22 1.776-2.22 0.852 0 1.416 0.648 1.416 1.62v3.348h1.26v-3.6c0-1.488-0.96-2.52-2.388-2.52zm-78.855 20.788c-0.312 0.204-0.696 0.324-1.008 0.324-0.588 0-0.984-0.36-0.984-1.104v-2.808h2.04v-1.032h-2.04v-1.848h-1.248v1.848h-1.284v1.032h1.284v2.892c0 1.476 0.864 2.196 2.148 2.196 0.504 0 0.912-0.12 1.476-0.456l-0.384-1.044zm6.784-1.776c-0.06-1.788-1.38-3.012-2.976-3.012-1.68 0-3.084 1.26-3.084 3.156 0 1.884 1.416 3.132 3.036 3.132 1.32 0 2.376-0.624 2.868-1.872l-1.116-0.24c-0.42 0.84-1.092 1.032-1.752 1.032-0.876 0-1.68-0.66-1.8-1.764h4.824v-0.432zm-2.976-1.908c0.816 0 1.5 0.48 1.692 1.452h-3.504c0.192-0.96 1.032-1.452 1.812-1.452zm11.714-1.104c-0.984 0-1.74 0.42-2.22 1.092-0.384-0.696-1.128-1.092-1.98-1.092s-1.476 0.312-1.908 0.84v-0.672h-1.248v5.952h1.248v-2.952c0-1.332 0.624-2.016 1.584-2.016 0.768 0 1.344 0.552 1.344 1.428v3.54h1.248v-2.952c0-1.332 0.636-2.016 1.608-2.016 0.768 0 1.344 0.552 1.344 1.428v3.54h1.236v-3.792c0-1.404-1.02-2.328-2.256-2.328zm7.431 0c-0.9 0-1.644 0.312-2.16 0.852v-0.684h-1.248v7.992h1.248v-2.724c0.516 0.54 1.26 0.852 2.16 0.852 1.56 0 2.952-1.26 2.952-3.144 0-1.872-1.392-3.144-2.952-3.144zm-0.204 5.184c-0.984 0-1.956-0.78-1.956-2.04 0-1.248 0.972-2.04 1.956-2.04 1.092 0 1.944 0.792 1.944 2.04 0 1.26-0.852 2.04-1.944 2.04zm5.778 0.936v-8.64h-1.248v8.64h1.248zm7.713-5.952h-1.248v0.684c-0.516-0.54-1.26-0.852-2.16-0.852-1.56 0-2.952 1.272-2.952 3.144 0 1.884 1.392 3.144 2.952 3.144 0.9 0 1.644-0.312 2.16-0.852v0.684h1.248v-5.952zm-3.204 5.016c-1.092 0-1.944-0.78-1.944-2.04 0-1.248 0.852-2.04 1.944-2.04 0.984 0 1.956 0.792 1.956 2.04 0 1.26-0.972 2.04-1.956 2.04zm8.671-0.396c-0.312 0.204-0.696 0.324-1.008 0.324-0.588 0-0.984-0.36-0.984-1.104v-2.808h2.04v-1.032h-2.04v-1.848h-1.248v1.848h-1.284v1.032h1.284v2.892c0 1.476 0.864 2.196 2.148 2.196 0.504 0 0.912-0.12 1.476-0.456l-0.384-1.044zm6.784-1.776c-0.06-1.788-1.38-3.012-2.976-3.012-1.68 0-3.084 1.26-3.084 3.156 0 1.884 1.416 3.132 3.036 3.132 1.32 0 2.376-0.624 2.868-1.872l-1.116-0.24c-0.42 0.84-1.092 1.032-1.752 1.032-0.876 0-1.68-0.66-1.8-1.764h4.824v-0.432zm-2.976-1.908c0.816 0 1.5 0.48 1.692 1.452h-3.504c0.192-0.96 1.032-1.452 1.812-1.452zm15.543-0.936h-1.248l-1.356 4.14-1.404-4.14h-0.984l-1.404 4.14-1.356-4.14h-1.248l1.992 5.976h1.14l1.368-4.008 1.368 4.008h1.14l1.992-5.976zm1.84-2.568c-0.468 0-0.804 0.36-0.804 0.78 0 0.444 0.336 0.768 0.804 0.768 0.456 0 0.792-0.324 0.792-0.768 0-0.42-0.336-0.78-0.792-0.78zm0.624 8.52v-5.952h-1.248v5.952h1.248zm5.56-1.332c-0.312 0.204-0.696 0.324-1.008 0.324-0.588 0-0.984-0.36-0.984-1.104v-2.808h2.04v-1.032h-2.04v-1.848h-1.248v1.848h-1.284v1.032h1.284v2.892c0 1.476 0.864 2.196 2.148 2.196 0.504 0 0.912-0.12 1.476-0.456l-0.384-1.044zm4.705-4.788c-0.888 0-1.584 0.324-2.064 0.9v-3.42h-1.248v8.64h1.248v-2.748c0-1.5 0.708-2.22 1.776-2.22 0.852 0 1.416 0.648 1.416 1.62v3.348h1.26v-3.6c0-1.488-0.96-2.52-2.388-2.52zm10.598 1.2v-1.032h-1.98v-0.708c0-0.66 0.408-1.044 1.032-1.044 0.192 0 0.42 0.036 0.636 0.12l0.3-1.02c-0.324-0.144-0.648-0.216-1.02-0.216-1.32 0-2.196 0.828-2.196 2.16v0.708h-0.972v1.032h0.972v4.92h1.248v-4.92h1.98zm6.528-1.032h-1.248v2.748c0 1.5-0.696 2.22-1.764 2.22-0.864 0-1.428-0.66-1.428-1.632v-3.336h-1.248v3.588c0 1.5 0.948 2.532 2.388 2.532 0.876 0 1.572-0.324 2.052-0.9v0.732h1.248v-5.952zm3.146 5.952v-8.64h-1.248v8.64h1.248zm3.14 0v-8.64h-1.248v8.64h1.248zm-58.957 10.048h-1.248l-1.356 4.14-1.404-4.14h-0.984l-1.404 4.14-1.356-4.14h-1.248l1.992 5.976h1.14l1.368-4.008 1.368 4.008h1.14l1.992-5.976zm1.84-2.568c-0.468 0-0.804 0.36-0.804 0.78 0 0.444 0.336 0.768 0.804 0.768 0.456 0 0.792-0.324 0.792-0.768 0-0.42-0.336-0.78-0.792-0.78zm0.624 8.52v-5.952h-1.248v5.952h1.248zm7.84-8.64h-1.26v3.372c-0.528-0.54-1.26-0.852-2.16-0.852-1.548 0-2.952 1.272-2.952 3.144 0 1.884 1.404 3.144 2.952 3.144 0.9 0 1.632-0.312 2.16-0.84v0.672h1.26v-8.64zm-3.216 7.704c-1.08 0-1.932-0.78-1.932-2.04 0-1.248 0.852-2.04 1.932-2.04 0.996 0 1.956 0.792 1.956 2.04 0 1.26-0.96 2.04-1.956 2.04zm8.67-0.396c-0.312 0.204-0.696 0.324-1.008 0.324-0.588 0-0.984-0.36-0.984-1.104v-2.808h2.04v-1.032h-2.04v-1.848h-1.248v1.848h-1.284v1.032h1.284v2.892c0 1.476 0.864 2.196 2.148 2.196 0.504 0 0.912-0.12 1.476-0.456l-0.384-1.044zm4.705-4.788c-0.888 0-1.584 0.324-2.064 0.9v-3.42h-1.248v8.64h1.248v-2.748c0-1.5 0.708-2.22 1.776-2.22 0.852 0 1.416 0.648 1.416 1.62v3.348h1.26v-3.6c0-1.488-0.96-2.52-2.388-2.52zm4.525 4.644c-0.456 0-0.792 0.348-0.792 0.756 0 0.432 0.336 0.768 0.792 0.768s0.78-0.336 0.78-0.768c0-0.408-0.324-0.756-0.78-0.756z" fill="#66717E"/>
<rect x="429.5" y="258.5" width="119" height="200" rx="5.5" fill="#fff" stroke="#DDDBDB"/>
<rect x="435" y="281" width="108" height="5" rx="2.5" fill="#DDDBDB"/>
<rect x="435" y="291" width="94" height="5" rx="2.5" fill="#DDDBDB"/>
<rect x="435" y="301" width="94" height="5" rx="2.5" fill="#DDDBDB"/>
<rect x="435" y="311" width="90" height="5" rx="2.5" fill="#DDDBDB"/>
<rect x="430" y="338" width="118" height="1" fill="#DDDBDB"/>
<path d="m471.67 355.1c-2.041 0-3.445 1.053-3.445 2.743 0 1.586 1.092 2.236 2.34 2.522l1.82 0.39c0.624 0.13 0.806 0.377 0.806 0.767 0 0.533-0.481 0.897-1.287 0.897-0.871 0-1.495-0.39-1.716-1.287l-2.21 0.429c0.234 1.703 1.846 2.639 3.809 2.639 1.937 0 3.588-0.962 3.588-2.821 0-1.378-0.884-2.197-2.392-2.535l-1.807-0.403c-0.546-0.117-0.702-0.377-0.702-0.728 0-0.494 0.455-0.884 1.17-0.884 0.689 0 1.365 0.403 1.521 1.222l2.106-0.429c-0.325-1.586-1.703-2.522-3.601-2.522zm6.129-0.728c-0.702 0-1.196 0.546-1.196 1.183 0 0.663 0.494 1.157 1.196 1.157s1.209-0.494 1.209-1.157c0-0.637-0.507-1.183-1.209-1.183zm1.04 9.633v-6.526h-2.08v6.526h2.08zm10.062-6.721c-1.014 0-1.794 0.429-2.314 1.105-0.442-0.715-1.222-1.105-2.132-1.105-0.845 0-1.482 0.299-1.924 0.793v-0.598h-2.08v6.526h2.08v-3.198c0-1.092 0.494-1.651 1.248-1.651 0.624 0 1.105 0.468 1.105 1.209v3.64h2.08v-3.198c0-1.092 0.507-1.651 1.274-1.651 0.611 0 1.092 0.468 1.092 1.209v3.64h2.067v-4.082c0-1.586-1.105-2.639-2.496-2.639zm8.023 0c-0.845 0-1.521 0.26-2.028 0.715v-0.52h-2.08v8.736h2.08v-2.73c0.507 0.455 1.183 0.715 2.028 0.715 1.729 0 3.185-1.391 3.185-3.458 0-2.054-1.456-3.458-3.185-3.458zm-0.429 5.148c-0.845 0-1.599-0.676-1.599-1.69 0-1.001 0.754-1.69 1.599-1.69 0.91 0 1.573 0.689 1.573 1.69 0 1.014-0.663 1.69-1.573 1.69zm6.768 1.573v-9.36h-2.08v9.36h2.08zm7.908-3.263c-0.039-2.132-1.521-3.458-3.367-3.458-1.898 0-3.458 1.404-3.458 3.458 0 2.067 1.56 3.458 3.445 3.458 1.495 0 2.678-0.663 3.237-2.041l-1.846-0.377c-0.351 0.637-0.91 0.754-1.391 0.754-0.702 0-1.235-0.481-1.404-1.261h4.784v-0.533zm-3.367-1.768c0.598 0 1.118 0.325 1.313 1.027h-2.691c0.195-0.663 0.793-1.027 1.378-1.027zm-24.218 16.193v-1.872h-7.774v1.872h2.821v6.838h2.132v-6.838h2.821zm6.365 3.575c-0.039-2.132-1.521-3.458-3.367-3.458-1.898 0-3.458 1.404-3.458 3.458 0 2.067 1.56 3.458 3.445 3.458 1.495 0 2.678-0.663 3.237-2.041l-1.846-0.377c-0.351 0.637-0.91 0.754-1.391 0.754-0.702 0-1.235-0.481-1.404-1.261h4.784v-0.533zm-3.367-1.768c0.598 0 1.118 0.325 1.313 1.027h-2.691c0.195-0.663 0.793-1.027 1.378-1.027zm8.798 1.872 2.158-3.38h-2.392l-1.248 2.028-1.261-2.028h-2.379l2.145 3.38-2.145 3.159h2.379l1.261-1.885 1.248 1.885h2.392l-2.158-3.159zm7.547 1.235c-0.273 0.156-0.663 0.26-0.949 0.26-0.546 0-0.871-0.273-0.871-0.949v-2.262h1.924v-1.651h-1.924v-1.924h-2.08v1.924h-1.183v1.651h1.183v2.47c0 1.716 0.975 2.6 2.6 2.6 0.741 0 1.274-0.208 1.781-0.481l-0.481-1.638z" fill="#000009"/>
<path d="m462.46 402.96v8.04h1.284v-2.832h2.34c1.776 0 2.892-1.056 2.892-2.616 0-1.536-1.116-2.592-2.892-2.592h-3.624zm1.284 4.032v-2.868h2.34c1.008 0 1.608 0.6 1.608 1.428 0 0.864-0.6 1.44-1.608 1.44h-2.34zm7.862 4.008v-8.64h-1.248v8.64h1.248zm7.713-5.952h-1.248v0.684c-0.516-0.54-1.26-0.852-2.16-0.852-1.56 0-2.952 1.272-2.952 3.144 0 1.884 1.392 3.144 2.952 3.144 0.9 0 1.644-0.312 2.16-0.852v0.684h1.248v-5.952zm-3.204 5.016c-1.092 0-1.944-0.78-1.944-2.04 0-1.248 0.852-2.04 1.944-2.04 0.984 0 1.956 0.792 1.956 2.04 0 1.26-0.972 2.04-1.956 2.04zm5.815-7.584c-0.468 0-0.804 0.36-0.804 0.78 0 0.444 0.336 0.768 0.804 0.768 0.456 0 0.792-0.324 0.792-0.768 0-0.42-0.336-0.78-0.792-0.78zm0.624 8.52v-5.952h-1.248v5.952h1.248zm5.296-6.12c-0.888 0-1.584 0.324-2.064 0.9v-0.732h-1.248v5.952h1.248v-2.748c0-1.5 0.708-2.22 1.776-2.22 0.852 0 1.416 0.648 1.416 1.62v3.348h1.26v-3.6c0-1.488-0.96-2.52-2.388-2.52zm10.67 4.788c-0.312 0.204-0.696 0.324-1.008 0.324-0.588 0-0.984-0.36-0.984-1.104v-2.808h2.04v-1.032h-2.04v-1.848h-1.248v1.848h-1.284v1.032h1.284v2.892c0 1.476 0.864 2.196 2.148 2.196 0.504 0 0.912-0.12 1.476-0.456l-0.384-1.044zm6.784-1.776c-0.06-1.788-1.38-3.012-2.976-3.012-1.68 0-3.084 1.26-3.084 3.156 0 1.884 1.416 3.132 3.036 3.132 1.32 0 2.376-0.624 2.868-1.872l-1.116-0.24c-0.42 0.84-1.092 1.032-1.752 1.032-0.876 0-1.68-0.66-1.8-1.764h4.824v-0.432zm-2.976-1.908c0.816 0 1.5 0.48 1.692 1.452h-3.504c0.192-0.96 1.032-1.452 1.812-1.452zm7.604 2.1 2.136-3.048h-1.5l-1.56 2.256-1.56-2.256h-1.488l2.136 3.048-2.136 2.916h1.488l1.56-2.148 1.56 2.148h1.5l-2.136-2.916zm7.104 1.584c-0.312 0.204-0.696 0.324-1.008 0.324-0.588 0-0.984-0.36-0.984-1.104v-2.808h2.04v-1.032h-2.04v-1.848h-1.248v1.848h-1.284v1.032h1.284v2.892c0 1.476 0.864 2.196 2.148 2.196 0.504 0 0.912-0.12 1.476-0.456l-0.384-1.044zm-50.989 16c-0.312 0.204-0.696 0.324-1.008 0.324-0.588 0-0.984-0.36-0.984-1.104v-2.808h2.04v-1.032h-2.04v-1.848h-1.248v1.848h-1.284v1.032h1.284v2.892c0 1.476 0.864 2.196 2.148 2.196 0.504 0 0.912-0.12 1.476-0.456l-0.384-1.044zm6.785-1.776c-0.06-1.788-1.38-3.012-2.976-3.012-1.68 0-3.084 1.26-3.084 3.156 0 1.884 1.416 3.132 3.036 3.132 1.32 0 2.376-0.624 2.868-1.872l-1.116-0.24c-0.42 0.84-1.092 1.032-1.752 1.032-0.876 0-1.68-0.66-1.8-1.764h4.824v-0.432zm-2.976-1.908c0.816 0 1.5 0.48 1.692 1.452h-3.504c0.192-0.96 1.032-1.452 1.812-1.452zm11.714-1.104c-0.984 0-1.74 0.42-2.22 1.092-0.384-0.696-1.128-1.092-1.98-1.092s-1.476 0.312-1.908 0.84v-0.672h-1.248v5.952h1.248v-2.952c0-1.332 0.624-2.016 1.584-2.016 0.768 0 1.344 0.552 1.344 1.428v3.54h1.248v-2.952c0-1.332 0.636-2.016 1.608-2.016 0.768 0 1.344 0.552 1.344 1.428v3.54h1.236v-3.792c0-1.404-1.02-2.328-2.256-2.328zm7.43 0c-0.9 0-1.644 0.312-2.16 0.852v-0.684h-1.248v7.992h1.248v-2.724c0.516 0.54 1.26 0.852 2.16 0.852 1.56 0 2.952-1.26 2.952-3.144 0-1.872-1.392-3.144-2.952-3.144zm-0.204 5.184c-0.984 0-1.956-0.78-1.956-2.04 0-1.248 0.972-2.04 1.956-2.04 1.092 0 1.944 0.792 1.944 2.04 0 1.26-0.852 2.04-1.944 2.04zm5.779 0.936v-8.64h-1.248v8.64h1.248zm7.712-5.952h-1.248v0.684c-0.516-0.54-1.26-0.852-2.16-0.852-1.56 0-2.952 1.272-2.952 3.144 0 1.884 1.392 3.144 2.952 3.144 0.9 0 1.644-0.312 2.16-0.852v0.684h1.248v-5.952zm-3.204 5.016c-1.092 0-1.944-0.78-1.944-2.04 0-1.248 0.852-2.04 1.944-2.04 0.984 0 1.956 0.792 1.956 2.04 0 1.26-0.972 2.04-1.956 2.04zm8.671-0.396c-0.312 0.204-0.696 0.324-1.008 0.324-0.588 0-0.984-0.36-0.984-1.104v-2.808h2.04v-1.032h-2.04v-1.848h-1.248v1.848h-1.284v1.032h1.284v2.892c0 1.476 0.864 2.196 2.148 2.196 0.504 0 0.912-0.12 1.476-0.456l-0.384-1.044zm6.785-1.776c-0.06-1.788-1.38-3.012-2.976-3.012-1.68 0-3.084 1.26-3.084 3.156 0 1.884 1.416 3.132 3.036 3.132 1.32 0 2.376-0.624 2.868-1.872l-1.116-0.24c-0.42 0.84-1.092 1.032-1.752 1.032-0.876 0-1.68-0.66-1.8-1.764h4.824v-0.432zm-2.976-1.908c0.816 0 1.5 0.48 1.692 1.452h-3.504c0.192-0.96 1.032-1.452 1.812-1.452zm4.589 3.54c-0.456 0-0.792 0.348-0.792 0.756 0 0.432 0.336 0.768 0.792 0.768s0.78-0.336 0.78-0.768c0-0.408-0.324-0.756-0.78-0.756z" fill="#66717E"/>
<defs>
<filter id="a" x="0" y="0" width="577" height="487" color-interpolation-filters="sRGB" filterUnits="userSpaceOnUse">
<feFlood flood-opacity="0" result="BackgroundImageFix"/>
<feColorMatrix in="SourceAlpha" result="hardAlpha" values="0 0 0 0 0 0 0 0 0 0 0 0 0 0 0 0 0 0 127 0"/>
<feOffset dx="2" dy="2"/>
<feGaussianBlur stdDeviation="2"/>
<feComposite in2="hardAlpha" operator="out"/>
<feColorMatrix values="0 0 0 0 0 0 0 0 0 0 0 0 0 0 0 0 0 0 0.04 0"/>
<feBlend in2="BackgroundImageFix" result="effect1_dropShadow_515_1451"/>
<feBlend in="SourceGraphic" in2="effect1_dropShadow_515_1451" result="shape"/>
</filter>
<clipPath id="c">
<rect transform="translate(57 291)" width="14" height="14" fill="#fff"/>
</clipPath>
<clipPath id="b">
<rect transform="translate(97 291)" width="14" height="14" fill="#fff"/>
</clipPath>
</defs>
</svg>
