<svg width="73" height="72" viewBox="0 0 73 72" fill="none" xmlns="http://www.w3.org/2000/svg">
<circle opacity="0.07" cx="36.5836" cy="36.0875" r="35.7584" fill="#03CEA4"/>
<g clip-path="url(#clip0_1715_9859)">
<path d="M51.0805 35.07C51.0795 34.1892 50.7292 33.3448 50.1064 32.722C49.4835 32.0992 48.6391 31.7489 47.7583 31.7479H40.8482C40.801 31.7479 40.7545 31.7368 40.7124 31.7155C40.6702 31.6943 40.6337 31.6635 40.6056 31.6255C40.5775 31.5876 40.5587 31.5436 40.5507 31.4971C40.5427 31.4506 40.5457 31.4028 40.5595 31.3577C41.1641 29.7265 41.3396 27.9673 41.0693 26.2488C40.3046 23.5235 38.5868 22.7624 37.3437 22.9315C36.6918 23.0387 36.1015 23.3802 35.6836 23.8918C35.2656 24.4034 35.0488 25.0499 35.0737 25.71C35.0737 29.3572 31.8192 33.3437 28.9694 34.4564C28.9038 34.2022 28.756 33.9768 28.5492 33.8152C28.3423 33.6535 28.0879 33.5647 27.8254 33.5624H23.2952C22.9748 33.5624 22.6675 33.6897 22.441 33.9162C22.2144 34.1428 22.0872 34.4501 22.0872 34.7704V48.059C22.0872 48.3794 22.2144 48.6867 22.441 48.9133C22.6675 49.1398 22.9748 49.2671 23.2952 49.2671H27.8254C28.1458 49.2671 28.4531 49.1398 28.6796 48.9133C28.9062 48.6867 29.0335 48.3794 29.0335 48.059V47.6616C30.2766 47.8392 31.208 48.0095 32.0077 48.1545C33.6113 48.4953 35.2464 48.6658 36.8858 48.6631H44.7382C47.4635 48.6631 47.7583 46.9718 47.7583 46.247C47.7585 45.8808 47.6918 45.5176 47.5614 45.1754C48.1496 44.8031 48.5911 44.239 48.8112 43.5786C49.0314 42.9182 49.0166 42.202 48.7694 41.5513C49.4022 41.1511 49.8638 40.5302 50.0647 39.809C50.2656 39.0878 50.1915 38.3177 49.8567 37.648C50.2395 37.3363 50.5479 36.9431 50.7596 36.4972C50.9713 36.0512 51.0809 35.5637 51.0805 35.07ZM26.6174 45.9425C26.6174 46.1217 26.5642 46.2969 26.4647 46.4459C26.3651 46.5949 26.2236 46.711 26.058 46.7796C25.8925 46.8482 25.7103 46.8661 25.5346 46.8312C25.3588 46.7962 25.1974 46.7099 25.0707 46.5832C24.9439 46.4565 24.8576 46.295 24.8227 46.1193C24.7877 45.9435 24.8057 45.7614 24.8742 45.5958C24.9428 45.4302 25.059 45.2887 25.208 45.1892C25.3569 45.0896 25.5321 45.0365 25.7113 45.0365C25.9516 45.0365 26.1821 45.1319 26.352 45.3019C26.5219 45.4718 26.6174 45.7022 26.6174 45.9425ZM48.6643 35.07C48.664 35.3102 48.5685 35.5405 48.3986 35.7104C48.2288 35.8802 47.9985 35.9758 47.7583 35.9761H47.1543C46.8339 35.9761 46.5266 36.1034 46.3001 36.3299C46.0735 36.5565 45.9462 36.8637 45.9462 37.1841C45.9462 37.5045 46.0735 37.8118 46.3001 38.0384C46.5266 38.2649 46.8339 38.3922 47.1543 38.3922C47.3145 38.3922 47.4681 38.4558 47.5814 38.5691C47.6947 38.6824 47.7583 38.836 47.7583 38.9962C47.7583 39.1564 47.6947 39.3101 47.5814 39.4233C47.4681 39.5366 47.3145 39.6002 47.1543 39.6002H45.9462C45.6258 39.6002 45.3186 39.7275 45.092 39.9541C44.8654 40.1806 44.7382 40.4879 44.7382 40.8083C44.7382 41.1287 44.8654 41.436 45.092 41.6625C45.3186 41.8891 45.6258 42.0164 45.9462 42.0164C46.1064 42.0164 46.2601 42.08 46.3733 42.1933C46.4866 42.3065 46.5503 42.4602 46.5503 42.6204C46.5503 42.7806 46.4866 42.9342 46.3733 43.0475C46.2601 43.1608 46.1064 43.2244 45.9462 43.2244H44.7382C44.4178 43.2244 44.1105 43.3517 43.8839 43.5782C43.6574 43.8048 43.5301 44.1121 43.5301 44.4325C43.5301 44.7529 43.6574 45.0601 43.8839 45.2867C44.1105 45.5132 44.4178 45.6405 44.7382 45.6405C44.8887 45.6424 45.033 45.7005 45.143 45.8033C45.2529 45.9061 45.3205 46.0462 45.3325 46.1962C45.1368 46.2341 44.9375 46.2503 44.7382 46.2445H36.8858C35.3928 46.2464 33.9038 46.0896 32.4438 45.777C31.5571 45.6139 30.4855 45.4146 29.0335 45.2213V36.9703C33.2556 35.8722 37.4898 30.4964 37.4898 25.7076C37.4898 25.4757 37.5853 25.3452 37.6735 25.3259C37.8704 25.3005 38.3983 25.6593 38.7426 26.9024C39.0978 28.166 38.2219 30.9941 37.5877 32.4812C37.5092 32.6649 37.4775 32.8651 37.4953 33.0641C37.5132 33.2631 37.5802 33.4545 37.6902 33.6212C37.8002 33.7879 37.9498 33.9248 38.1257 34.0195C38.3015 34.1143 38.4981 34.1639 38.6979 34.164H47.7583C47.9985 34.1643 48.2288 34.2599 48.3986 34.4297C48.5685 34.5996 48.664 34.8298 48.6643 35.07Z" fill="#03CEA4"/>
</g>
<defs>
<clipPath id="clip0_1715_9859">
<rect width="28.9933" height="28.9933" fill="white" transform="translate(22.0872 21.5908)"/>
</clipPath>
</defs>
</svg>
