<svg width="73" height="72" viewBox="0 0 73 72" fill="none" xmlns="http://www.w3.org/2000/svg">
<circle opacity="0.07" cx="36.4163" cy="36.0875" r="35.7584" fill="#E71D36"/>
<g clip-path="url(#clip0_1715_9866)">
<path d="M21.9199 37.1053C21.9209 37.986 22.2712 38.8305 22.894 39.4533C23.5168 40.0761 24.3613 40.4264 25.2421 40.4274H32.1521C32.1993 40.4274 32.2459 40.4385 32.288 40.4597C32.3301 40.481 32.3667 40.5118 32.3948 40.5498C32.4229 40.5877 32.4417 40.6317 32.4497 40.6782C32.4577 40.7247 32.4546 40.7725 32.4409 40.8176C31.8363 42.4488 31.6608 44.2079 31.9311 45.9265C32.6958 48.647 34.4136 49.4129 35.6567 49.2438C36.3085 49.1365 36.8988 48.7951 37.3168 48.2835C37.7347 47.7719 37.9516 47.1254 37.9266 46.4653C37.9266 42.8181 41.1811 38.8316 44.0309 37.7189C44.0966 37.9731 44.2443 38.1985 44.4512 38.3601C44.658 38.5218 44.9125 38.6106 45.175 38.6129H49.7052C50.0256 38.6129 50.3328 38.4856 50.5594 38.2591C50.7859 38.0325 50.9132 37.7252 50.9132 37.4048V24.1163C50.9132 23.7959 50.7859 23.4886 50.5594 23.262C50.3328 23.0355 50.0256 22.9082 49.7052 22.9082H45.175C44.8546 22.9082 44.5473 23.0355 44.3207 23.262C44.0942 23.4886 43.9669 23.7959 43.9669 24.1163V24.5137C42.7238 24.3361 41.7924 24.1658 40.9927 24.0208C39.3891 23.68 37.754 23.5095 36.1146 23.5122H28.2622C25.5368 23.5122 25.2421 25.2035 25.2421 25.9283C25.2418 26.2945 25.3086 26.6577 25.439 26.9999C24.8508 27.3722 24.4093 27.9363 24.1891 28.5967C23.969 29.2571 23.9838 29.9733 24.2309 30.624C23.5981 31.0242 23.1365 31.6451 22.9356 32.3663C22.7347 33.0875 22.8089 33.8576 23.1437 34.5273C22.7609 34.839 22.4525 35.2322 22.2408 35.6781C22.0291 36.1241 21.9195 36.6116 21.9199 37.1053ZM46.383 26.2328C46.383 26.0536 46.4362 25.8784 46.5357 25.7294C46.6353 25.5804 46.7768 25.4643 46.9423 25.3957C47.1079 25.3271 47.2901 25.3092 47.4658 25.3441C47.6416 25.3791 47.803 25.4654 47.9297 25.5921C48.0564 25.7188 48.1427 25.8803 48.1777 26.056C48.2126 26.2318 48.1947 26.4139 48.1261 26.5795C48.0576 26.7451 47.9414 26.8866 47.7924 26.9861C47.6434 27.0857 47.4683 27.1388 47.2891 27.1388C47.1701 27.1388 47.0523 27.1154 46.9423 27.0698C46.8324 27.0243 46.7325 26.9576 46.6484 26.8734C46.5643 26.7893 46.4975 26.6894 46.452 26.5795C46.4065 26.4696 46.383 26.3517 46.383 26.2328ZM24.336 37.1053C24.3364 36.8651 24.4319 36.6348 24.6018 36.4649C24.7716 36.2951 25.0019 36.1995 25.2421 36.1992H25.8461C26.1665 36.1992 26.4738 36.0719 26.7003 35.8454C26.9269 35.6188 27.0542 35.3116 27.0542 34.9912C27.0542 34.6708 26.9269 34.3635 26.7003 34.1369C26.4738 33.9104 26.1665 33.7831 25.8461 33.7831C25.6859 33.7831 25.5323 33.7195 25.419 33.6062C25.3057 33.4929 25.2421 33.3393 25.2421 33.1791C25.2421 33.0189 25.3057 32.8652 25.419 32.752C25.5323 32.6387 25.6859 32.575 25.8461 32.575H27.0542C27.3745 32.575 27.6818 32.4478 27.9084 32.2212C28.1349 31.9947 28.2622 31.6874 28.2622 31.367C28.2622 31.0466 28.1349 30.7393 27.9084 30.5128C27.6818 30.2862 27.3745 30.1589 27.0542 30.1589C26.894 30.1589 26.7403 30.0953 26.627 29.982C26.5138 29.8687 26.4501 29.7151 26.4501 29.5549C26.4501 29.3947 26.5138 29.2411 26.627 29.1278C26.7403 29.0145 26.894 28.9509 27.0542 28.9509H28.2622C28.5826 28.9509 28.8899 28.8236 29.1164 28.5971C29.343 28.3705 29.4703 28.0632 29.4703 27.7428C29.4703 27.4224 29.343 27.1152 29.1164 26.8886C28.8899 26.6621 28.5826 26.5348 28.2622 26.5348C28.1117 26.5329 27.9674 26.4748 27.8574 26.372C27.7475 26.2692 27.6799 26.1291 27.6678 25.9791C27.8636 25.9412 28.0629 25.925 28.2622 25.9308H36.1146C37.6076 25.9289 39.0966 26.0857 40.5566 26.3983C41.4433 26.5614 42.5148 26.7546 43.9669 26.954V35.205C39.7448 36.3031 35.5105 41.6789 35.5105 46.4677C35.5105 46.6996 35.4151 46.8301 35.3269 46.8494C35.13 46.8748 34.6021 46.516 34.2578 45.2789C33.9026 44.0153 34.7784 41.1873 35.4127 39.7001C35.4912 39.5165 35.5229 39.3162 35.505 39.1172C35.4871 38.9183 35.4202 38.7269 35.3102 38.5601C35.2002 38.3934 35.0506 38.2565 34.8747 38.1618C34.6988 38.0671 34.5022 38.0174 34.3025 38.0173H25.2421C25.1226 38.0172 25.0044 37.9934 24.8941 37.9475C24.7839 37.9015 24.6838 37.8342 24.5996 37.7495C24.5154 37.6647 24.4488 37.5642 24.4036 37.4536C24.3584 37.3431 24.3354 37.2247 24.336 37.1053Z" fill="#E71D36"/>
</g>
<defs>
<clipPath id="clip0_1715_9866">
<rect width="28.9933" height="28.9933" fill="white" transform="translate(21.9199 21.5908)"/>
</clipPath>
</defs>
</svg>
