<?xml version="1.0" encoding="UTF-8"?>
<svg fill="none" viewBox="0 0 1170 204" xmlns="http://www.w3.org/2000/svg">
<path d="m11.745 25.62h-1.302l-3.836 7.098-3.822-7.098h-1.316v9.38h1.456v-6.202l3.332 6.202h0.714l3.318-6.202v6.202h1.456v-9.38zm8.6744 5.754c-0.07-2.086-1.61-3.514-3.472-3.514-1.96 0-3.598 1.47-3.598 3.682 0 2.198 1.652 3.654 3.542 3.654 1.54 0 2.772-0.728 3.346-2.184l-1.302-0.28c-0.49 0.98-1.274 1.204-2.044 1.204-1.022 0-1.96-0.77-2.1-2.058h5.628v-0.504zm-3.472-2.226c0.952 0 1.75 0.56 1.974 1.694h-4.088c0.224-1.12 1.204-1.694 2.114-1.694zm9.1861-1.176c-1.204 0-2.086 0.644-2.646 1.568v-1.484h-1.456v6.944h1.456v-2.45c0-1.904 0.868-3.136 2.632-3.136 0.126 0 0.294 0 0.406 0.014l0.098-1.4c-0.182-0.056-0.322-0.056-0.49-0.056zm4.7198 5.88c-1.288 0-2.24-0.91-2.24-2.324 0-1.372 0.952-2.324 2.24-2.324 0.924 0 1.722 0.476 1.988 1.498l1.4-0.406c-0.434-1.484-1.82-2.436-3.388-2.436-1.988 0-3.668 1.498-3.668 3.668 0 2.198 1.68 3.668 3.668 3.668 1.61 0 3.01-0.952 3.388-2.45l-1.344-0.35c-0.336 1.008-1.12 1.456-2.044 1.456zm11.482-2.478c-0.07-2.086-1.61-3.514-3.472-3.514-1.96 0-3.598 1.47-3.598 3.682 0 2.198 1.652 3.654 3.542 3.654 1.54 0 2.772-0.728 3.346-2.184l-1.302-0.28c-0.49 0.98-1.274 1.204-2.044 1.204-1.022 0-1.96-0.77-2.1-2.058h5.628v-0.504zm-3.472-2.226c0.952 0 1.75 0.56 1.974 1.694h-4.088c0.224-1.12 1.204-1.694 2.114-1.694zm11.916-4.228h-1.47v3.934c-0.616-0.63-1.47-0.994-2.52-0.994-1.806 0-3.444 1.484-3.444 3.668 0 2.198 1.638 3.668 3.444 3.668 1.05 0 1.904-0.364 2.52-0.98v0.784h1.47v-10.08zm-3.752 8.988c-1.26 0-2.254-0.91-2.254-2.38 0-1.456 0.994-2.38 2.254-2.38 1.162 0 2.282 0.924 2.282 2.38 0 1.47-1.12 2.38-2.282 2.38zm12.411-2.534c-0.07-2.086-1.61-3.514-3.472-3.514-1.96 0-3.598 1.47-3.598 3.682 0 2.198 1.652 3.654 3.542 3.654 1.54 0 2.772-0.728 3.346-2.184l-1.302-0.28c-0.49 0.98-1.274 1.204-2.044 1.204-1.022 0-1.96-0.77-2.1-2.058h5.628v-0.504zm-3.472-2.226c0.952 0 1.75 0.56 1.974 1.694h-4.088c0.224-1.12 1.204-1.694 2.114-1.694zm4.4961 3.99c0.182 1.4 1.512 2.058 3.066 2.058 1.736 0 2.926-0.784 2.926-2.24 0-0.98-0.686-1.638-1.806-1.876l-1.652-0.364c-0.616-0.14-0.84-0.392-0.84-0.784 0-0.49 0.378-0.91 1.232-0.91 0.896 0 1.47 0.462 1.582 1.134l1.386-0.294c-0.252-1.162-1.33-2.002-2.926-2.002-1.666 0-2.744 0.91-2.744 2.198 0 0.98 0.686 1.624 1.89 1.89l1.512 0.308c0.644 0.14 0.938 0.406 0.938 0.826 0 0.546-0.532 0.924-1.372 0.924-0.91 0-1.638-0.35-1.736-1.176l-1.456 0.308z" fill="#66717E"/>
<path d="m28.766 81.978v-1.358h-8.106v1.358h3.29v8.022h1.512v-8.022h3.304zm3.2925 0.924c-2.058 0-3.738 1.47-3.738 3.626s1.68 3.64 3.738 3.64c2.044 0 3.71-1.484 3.71-3.64s-1.666-3.626-3.71-3.626zm0 6.006c-1.218 0-2.31-0.938-2.31-2.38s1.092-2.38 2.31-2.38c1.19 0 2.296 0.938 2.296 2.38s-1.106 2.38-2.296 2.38zm11.87-5.866h-1.624l-2.226 5.012-2.17-5.012h-1.624l2.996 6.79-1.134 2.548h1.624l4.158-9.338zm4.2223-0.14c-2.058 0-3.738 1.47-3.738 3.626s1.68 3.64 3.738 3.64c2.044 0 3.71-1.484 3.71-3.64s-1.666-3.626-3.71-3.626zm0 6.006c-1.218 0-2.31-0.938-2.31-2.38s1.092-2.38 2.31-2.38c1.19 0 2.296 0.938 2.296 2.38s-1.106 2.38-2.296 2.38zm9.5126-0.462c-0.364 0.238-0.812 0.378-1.176 0.378-0.686 0-1.148-0.42-1.148-1.288v-3.276h2.38v-1.204h-2.38v-2.156h-1.456v2.156h-1.498v1.204h1.498v3.374c0 1.722 1.008 2.562 2.506 2.562 0.588 0 1.064-0.14 1.722-0.532l-0.448-1.218zm8.2371-5.39h-1.456v0.798c-0.602-0.63-1.47-0.994-2.52-0.994-1.82 0-3.444 1.484-3.444 3.668 0 2.198 1.624 3.668 3.444 3.668 1.05 0 1.918-0.364 2.52-0.994v0.798h1.456v-6.944zm-3.738 5.852c-1.274 0-2.268-0.91-2.268-2.38 0-1.456 0.994-2.38 2.268-2.38 1.148 0 2.282 0.924 2.282 2.38 0 1.47-1.134 2.38-2.282 2.38z" fill="#66717E"/>
<path d="m23.481 135.62v9.38h3.276c3.192 0 5.18-1.96 5.18-4.69s-1.988-4.69-5.18-4.69h-3.276zm1.498 8.022v-6.664h1.778c2.282 0 3.668 1.386 3.668 3.332s-1.386 3.332-3.668 3.332h-1.778zm11.865-5.74c-2.058 0-3.738 1.47-3.738 3.626s1.68 3.64 3.738 3.64c2.044 0 3.71-1.484 3.71-3.64s-1.666-3.626-3.71-3.626zm0 6.006c-1.218 0-2.31-0.938-2.31-2.38s1.092-2.38 2.31-2.38c1.19 0 2.296 0.938 2.296 2.38s-1.106 2.38-2.296 2.38zm12.172-8.988h-1.47v3.934c-0.616-0.63-1.47-0.994-2.52-0.994-1.806 0-3.444 1.484-3.444 3.668 0 2.198 1.638 3.668 3.444 3.668 1.05 0 1.904-0.364 2.52-0.98v0.784h1.47v-10.08zm-3.752 8.988c-1.26 0-2.254-0.91-2.254-2.38 0-1.456 0.994-2.38 2.254-2.38 1.162 0 2.282 0.924 2.282 2.38 0 1.47-1.12 2.38-2.282 2.38zm12.552-5.852h-1.414v0.686c-0.532-0.56-1.33-0.868-2.394-0.868-1.778 0-3.402 1.414-3.402 3.346s1.624 3.374 3.402 3.374c1.064 0 1.862-0.308 2.394-0.868v0.448c0 1.344-0.868 2.17-2.184 2.17-1.106 0-1.68-0.42-2.198-1.232l-1.19 0.882c0.56 1.036 1.722 1.666 3.388 1.666 2.17 0 3.598-1.204 3.598-3.276v-6.328zm-3.57 5.278c-1.246 0-2.226-0.84-2.226-2.114 0-1.288 0.98-2.114 2.226-2.114 1.134 0 2.156 0.826 2.156 2.114 0 1.274-1.022 2.114-2.156 2.114zm12.248-1.96c-0.07-2.086-1.61-3.514-3.472-3.514-1.96 0-3.598 1.47-3.598 3.682 0 2.198 1.652 3.654 3.542 3.654 1.54 0 2.772-0.728 3.346-2.184l-1.302-0.28c-0.49 0.98-1.274 1.204-2.044 1.204-1.022 0-1.96-0.77-2.1-2.058h5.628v-0.504zm-3.472-2.226c0.952 0 1.75 0.56 1.974 1.694h-4.088c0.224-1.12 1.204-1.694 2.114-1.694z" fill="#66717E"/>
<path d="m82 189.42c-2.366 0-3.962 1.974-3.962 4.886s1.596 4.886 3.962 4.886 3.962-1.974 3.962-4.886-1.596-4.886-3.962-4.886zm0 8.386c-1.484 0-2.436-1.428-2.436-3.5s0.952-3.5 2.436-3.5 2.436 1.428 2.436 3.5-0.952 3.5-2.436 3.5z" fill="#66717E"/>
<rect x="81.25" y=".25" width=".5" height="164.5" stroke="#E0E0E0" stroke-dasharray="2 5" stroke-width=".5"/>
<rect x="179.25" y=".25" width=".5" height="164.5" stroke="#E0E0E0" stroke-dasharray="2 5" stroke-width=".5"/>
<rect x="277.25" y=".25" width=".5" height="164.5" stroke="#E0E0E0" stroke-dasharray="2 5" stroke-width=".5"/>
<rect x="375.25" y=".25" width=".5" height="164.5" stroke="#E0E0E0" stroke-dasharray="2 5" stroke-width=".5"/>
<rect x="473.25" y=".25" width=".5" height="164.5" stroke="#E0E0E0" stroke-dasharray="2 5" stroke-width=".5"/>
<rect x="571.25" y=".25" width=".5" height="164.5" stroke="#E0E0E0" stroke-dasharray="2 5" stroke-width=".5"/>
<rect x="669.25" y=".25" width=".5" height="164.5" stroke="#E0E0E0" stroke-dasharray="2 5" stroke-width=".5"/>
<rect x="767.25" y=".25" width=".5" height="164.5" stroke="#E0E0E0" stroke-dasharray="2 5" stroke-width=".5"/>
<rect x="865.25" y=".25" width=".5" height="164.5" stroke="#E0E0E0" stroke-dasharray="2 5" stroke-width=".5"/>
<rect x="963.25" y=".25" width=".5" height="164.5" stroke="#E0E0E0" stroke-dasharray="2 5" stroke-width=".5"/>
<rect x="1061.2" y=".25" width=".5" height="164.5" stroke="#E0E0E0" stroke-dasharray="2 5" stroke-width=".5"/>
<rect x="1159.2" y=".25" width=".5" height="164.5" stroke="#E0E0E0" stroke-dasharray="2 5" stroke-width=".5"/>
<path d="m172.89 193.13 0.098-2.156h4.326v-1.358h-5.712l-0.182 4.858h3.038c1.092 0 1.82 0.588 1.82 1.596 0 1.064-0.77 1.764-1.904 1.764-1.148 0-2.016-0.714-2.016-2.156l-1.456 0.28c0 2.086 1.54 3.234 3.43 3.234 2.044 0 3.388-1.302 3.388-3.15 0-1.82-1.26-2.912-3.15-2.912h-1.68zm10.086-3.71c-2.366 0-3.962 1.974-3.962 4.886s1.596 4.886 3.962 4.886 3.962-1.974 3.962-4.886-1.596-4.886-3.962-4.886zm0 8.386c-1.484 0-2.436-1.428-2.436-3.5s0.952-3.5 2.436-3.5 2.436 1.428 2.436 3.5-0.952 3.5-2.436 3.5z" fill="#66717E"/>
<path d="m269.07 189.62h-0.924l-2.94 1.708v1.358l2.408-1.288v7.602h1.456v-9.38zm5.814-0.196c-2.366 0-3.962 1.974-3.962 4.886s1.596 4.886 3.962 4.886 3.962-1.974 3.962-4.886-1.596-4.886-3.962-4.886zm0 8.386c-1.484 0-2.436-1.428-2.436-3.5s0.952-3.5 2.436-3.5 2.436 1.428 2.436 3.5-0.952 3.5-2.436 3.5zm9.324-8.386c-2.366 0-3.962 1.974-3.962 4.886s1.596 4.886 3.962 4.886 3.962-1.974 3.962-4.886-1.596-4.886-3.962-4.886zm0 8.386c-1.484 0-2.436-1.428-2.436-3.5s0.952-3.5 2.436-3.5 2.436 1.428 2.436 3.5-0.952 3.5-2.436 3.5z" fill="#66717E"/>
<path d="m367.26 189.62h-0.924l-2.94 1.708v1.358l2.408-1.288v7.602h1.456v-9.38zm3.672 3.514 0.098-2.156h4.326v-1.358h-5.712l-0.182 4.858h3.038c1.092 0 1.82 0.588 1.82 1.596 0 1.064-0.77 1.764-1.904 1.764-1.148 0-2.016-0.714-2.016-2.156l-1.456 0.28c0 2.086 1.54 3.234 3.43 3.234 2.044 0 3.388-1.302 3.388-3.15 0-1.82-1.26-2.912-3.15-2.912h-1.68zm10.086-3.71c-2.366 0-3.962 1.974-3.962 4.886s1.596 4.886 3.962 4.886 3.962-1.974 3.962-4.886-1.596-4.886-3.962-4.886zm0 8.386c-1.484 0-2.436-1.428-2.436-3.5s0.952-3.5 2.436-3.5 2.436 1.428 2.436 3.5-0.952 3.5-2.436 3.5z" fill="#66717E"/>
<path d="m467.85 197.64h-4.046l1.848-1.764c1.414-1.344 2.114-2.212 2.114-3.556 0-1.722-1.274-2.898-3.136-2.898-1.876 0-3.164 1.162-3.234 2.996l1.372 0.28c0.07-1.302 0.756-1.974 1.848-1.974 1.008 0 1.708 0.658 1.708 1.624 0 1.12-0.742 1.778-1.568 2.548l-3.248 3.136v0.966h6.342v-1.358zm5.104-8.218c-2.366 0-3.962 1.974-3.962 4.886s1.596 4.886 3.962 4.886 3.962-1.974 3.962-4.886-1.596-4.886-3.962-4.886zm0 8.386c-1.484 0-2.436-1.428-2.436-3.5s0.952-3.5 2.436-3.5 2.436 1.428 2.436 3.5-0.952 3.5-2.436 3.5zm9.324-8.386c-2.366 0-3.962 1.974-3.962 4.886s1.596 4.886 3.962 4.886 3.962-1.974 3.962-4.886-1.596-4.886-3.962-4.886zm0 8.386c-1.484 0-2.436-1.428-2.436-3.5s0.952-3.5 2.436-3.5 2.436 1.428 2.436 3.5-0.952 3.5-2.436 3.5z" fill="#66717E"/>
<path d="m565.03 197.64h-4.046l1.848-1.764c1.414-1.344 2.114-2.212 2.114-3.556 0-1.722-1.274-2.898-3.136-2.898-1.876 0-3.164 1.162-3.234 2.996l1.372 0.28c0.07-1.302 0.756-1.974 1.848-1.974 1.008 0 1.708 0.658 1.708 1.624 0 1.12-0.742 1.778-1.568 2.548l-3.248 3.136v0.966h6.342v-1.358zm2.99-4.508 0.098-2.156h4.326v-1.358h-5.712l-0.182 4.858h3.038c1.092 0 1.82 0.588 1.82 1.596 0 1.064-0.77 1.764-1.904 1.764-1.148 0-2.016-0.714-2.016-2.156l-1.456 0.28c0 2.086 1.54 3.234 3.43 3.234 2.044 0 3.388-1.302 3.388-3.15 0-1.82-1.26-2.912-3.15-2.912h-1.68zm10.085-3.71c-2.366 0-3.962 1.974-3.962 4.886s1.596 4.886 3.962 4.886 3.962-1.974 3.962-4.886-1.596-4.886-3.962-4.886zm0 8.386c-1.484 0-2.436-1.428-2.436-3.5s0.952-3.5 2.436-3.5 2.436 1.428 2.436 3.5-0.952 3.5-2.436 3.5z" fill="#66717E"/>
<path d="m662.14 194.24c0.756-0.322 1.218-1.036 1.218-1.988 0-1.68-1.26-2.828-3.122-2.828-1.89 0-3.164 1.218-3.304 2.982l1.386 0.28c0.084-1.288 0.84-1.946 1.918-1.946 1.05 0 1.736 0.602 1.736 1.512 0 0.826-0.63 1.33-1.666 1.33h-1.246v1.302h1.33c1.106 0 1.75 0.532 1.75 1.4 0 0.952-0.784 1.596-1.89 1.596-1.204 0-1.904-0.756-2.03-1.974l-1.414 0.28c0.14 1.792 1.484 3.01 3.444 3.01 1.946 0 3.262-1.176 3.262-2.926 0-0.994-0.518-1.722-1.372-2.03zm6.75-4.816c-2.366 0-3.962 1.974-3.962 4.886s1.596 4.886 3.962 4.886 3.962-1.974 3.962-4.886-1.596-4.886-3.962-4.886zm0 8.386c-1.484 0-2.436-1.428-2.436-3.5s0.952-3.5 2.436-3.5 2.436 1.428 2.436 3.5-0.952 3.5-2.436 3.5zm9.324-8.386c-2.366 0-3.962 1.974-3.962 4.886s1.596 4.886 3.962 4.886 3.962-1.974 3.962-4.886-1.596-4.886-3.962-4.886zm0 8.386c-1.484 0-2.436-1.428-2.436-3.5s0.952-3.5 2.436-3.5 2.436 1.428 2.436 3.5-0.952 3.5-2.436 3.5z" fill="#66717E"/>
<path d="m761.32 194.24c0.756-0.322 1.218-1.036 1.218-1.988 0-1.68-1.26-2.828-3.122-2.828-1.89 0-3.164 1.218-3.304 2.982l1.386 0.28c0.084-1.288 0.84-1.946 1.918-1.946 1.05 0 1.736 0.602 1.736 1.512 0 0.826-0.63 1.33-1.666 1.33h-1.246v1.302h1.33c1.106 0 1.75 0.532 1.75 1.4 0 0.952-0.784 1.596-1.89 1.596-1.204 0-1.904-0.756-2.03-1.974l-1.414 0.28c0.14 1.792 1.484 3.01 3.444 3.01 1.946 0 3.262-1.176 3.262-2.926 0-0.994-0.518-1.722-1.372-2.03zm4.608-1.106 0.098-2.156h4.326v-1.358h-5.712l-0.182 4.858h3.038c1.092 0 1.82 0.588 1.82 1.596 0 1.064-0.77 1.764-1.904 1.764-1.148 0-2.016-0.714-2.016-2.156l-1.456 0.28c0 2.086 1.54 3.234 3.43 3.234 2.044 0 3.388-1.302 3.388-3.15 0-1.82-1.26-2.912-3.15-2.912h-1.68zm10.085-3.71c-2.366 0-3.962 1.974-3.962 4.886s1.596 4.886 3.962 4.886 3.962-1.974 3.962-4.886-1.596-4.886-3.962-4.886zm0 8.386c-1.484 0-2.436-1.428-2.436-3.5s0.952-3.5 2.436-3.5 2.436 1.428 2.436 3.5-0.952 3.5-2.436 3.5z" fill="#66717E"/>
<path d="m859.61 196.93v-1.232h-1.316v-6.076h-1.96l-4.592 5.908v1.4h5.082v2.072h1.47v-2.072h1.316zm-2.786-1.232h-3.43l3.43-4.564v4.564zm7.842-6.272c-2.366 0-3.962 1.974-3.962 4.886s1.596 4.886 3.962 4.886 3.962-1.974 3.962-4.886-1.596-4.886-3.962-4.886zm0 8.386c-1.484 0-2.436-1.428-2.436-3.5s0.952-3.5 2.436-3.5 2.436 1.428 2.436 3.5-0.952 3.5-2.436 3.5zm9.324-8.386c-2.366 0-3.962 1.974-3.962 4.886s1.596 4.886 3.962 4.886 3.962-1.974 3.962-4.886-1.596-4.886-3.962-4.886zm0 8.386c-1.484 0-2.436-1.428-2.436-3.5s0.952-3.5 2.436-3.5 2.436 1.428 2.436 3.5-0.952 3.5-2.436 3.5z" fill="#66717E"/>
<path d="m959.3 196.93v-1.232h-1.316v-6.076h-1.96l-4.592 5.908v1.4h5.082v2.072h1.47v-2.072h1.316zm-2.786-1.232h-3.43l3.43-4.564v4.564zm5.7-2.562 0.098-2.156h4.326v-1.358h-5.712l-0.182 4.858h3.038c1.092 0 1.82 0.588 1.82 1.596 0 1.064-0.77 1.764-1.904 1.764-1.148 0-2.016-0.714-2.016-2.156l-1.456 0.28c0 2.086 1.54 3.234 3.43 3.234 2.044 0 3.388-1.302 3.388-3.15 0-1.82-1.26-2.912-3.15-2.912h-1.68zm10.086-3.71c-2.366 0-3.962 1.974-3.962 4.886s1.596 4.886 3.962 4.886 3.962-1.974 3.962-4.886-1.596-4.886-3.962-4.886zm0 8.386c-1.484 0-2.436-1.428-2.436-3.5s0.952-3.5 2.436-3.5 2.436 1.428 2.436 3.5-0.952 3.5-2.436 3.5z" fill="#66717E"/>
<path d="m1050.7 193.13 0.1-2.156h4.33v-1.358h-5.71l-0.19 4.858h3.04c1.09 0 1.82 0.588 1.82 1.596 0 1.064-0.77 1.764-1.9 1.764-1.15 0-2.02-0.714-2.02-2.156l-1.45 0.28c0 2.086 1.54 3.234 3.43 3.234 2.04 0 3.38-1.302 3.38-3.15 0-1.82-1.26-2.912-3.15-2.912h-1.68zm10.09-3.71c-2.37 0-3.96 1.974-3.96 4.886s1.59 4.886 3.96 4.886 3.96-1.974 3.96-4.886-1.59-4.886-3.96-4.886zm0 8.386c-1.48 0-2.44-1.428-2.44-3.5s0.96-3.5 2.44-3.5 2.44 1.428 2.44 3.5-0.96 3.5-2.44 3.5zm9.32-8.386c-2.36 0-3.96 1.974-3.96 4.886s1.6 4.886 3.96 4.886c2.37 0 3.97-1.974 3.97-4.886s-1.6-4.886-3.97-4.886zm0 8.386c-1.48 0-2.43-1.428-2.43-3.5s0.95-3.5 2.43-3.5c1.49 0 2.44 1.428 2.44 3.5s-0.95 3.5-2.44 3.5z" fill="#66717E"/>
<path d="m1146.9 193.13 0.1-2.156h4.33v-1.358h-5.71l-0.19 4.858h3.04c1.09 0 1.82 0.588 1.82 1.596 0 1.064-0.77 1.764-1.9 1.764-1.15 0-2.02-0.714-2.02-2.156l-1.45 0.28c0 2.086 1.54 3.234 3.43 3.234 2.04 0 3.38-1.302 3.38-3.15 0-1.82-1.26-2.912-3.15-2.912h-1.68zm7.95 0 0.1-2.156h4.32v-1.358h-5.71l-0.18 4.858h3.04c1.09 0 1.82 0.588 1.82 1.596 0 1.064-0.77 1.764-1.91 1.764-1.15 0-2.01-0.714-2.01-2.156l-1.46 0.28c0 2.086 1.54 3.234 3.43 3.234 2.04 0 3.39-1.302 3.39-3.15 0-1.82-1.26-2.912-3.15-2.912h-1.68zm10.08-3.71c-2.36 0-3.96 1.974-3.96 4.886s1.6 4.886 3.96 4.886c2.37 0 3.97-1.974 3.97-4.886s-1.6-4.886-3.97-4.886zm0 8.386c-1.48 0-2.43-1.428-2.43-3.5s0.95-3.5 2.43-3.5c1.49 0 2.44 1.428 2.44 3.5s-0.95 3.5-2.44 3.5z" fill="#66717E"/>
<rect x="82" y="130" width="430" height="22" rx="6" fill="#03CEA4"/>
<rect x="513" y="130" width="222" height="22" rx="6" fill="#FFA630"/>
<rect x="736" y="130" width="53" height="22" rx="6" fill="#3772FF"/>
<rect x="82" y="75" width="350" height="22" rx="6" fill="#03CEA4"/>
<rect x="433" y="75" width="222" height="22" rx="6" fill="#FFA630"/>
<rect x="656" y="75" width="53" height="22" rx="6" fill="#3772FF"/>
<rect x="82" y="20" width="296" height="22" rx="6" fill="#03CEA4"/>
<rect x="379" y="20" width="222" height="22" rx="6" fill="#FFA630"/>
<rect x="602" y="20" width="167" height="22" rx="6" fill="#3772FF"/>
</svg>
