<?xml version="1.0" encoding="UTF-8"?>
<svg fill="none" viewBox="0 0 1009 471" xmlns="http://www.w3.org/2000/svg">
<path d="m761.77 122.82-0.232-0.155v0.232l0.232-0.077zm-2.32-2.088 0.542-0.232v-0.309l-0.542 0.541zm9.588-6.031-0.078-1.082-0.154-0.619 0.232 1.701zm-33.788-7.963-0.541 0.231-4.407 1.315-1.547 0.541-1.778 0.541-0.619 0.232v0.232l0.232 4.021 0.232 3.711 0.232 3.402 0.387 0.232 1.392-0.387 6.262-1.855 0.155 0.386 11.134-4.252 0.077 0.154 1.005-0.386 3.557-1.392 3.402 4.098 0.464-0.387 0.232-1.159-0.078 1.855h0.773l0.232 0.928 0.696 1.315 3.634-4.408 3.016 1.006 0.695-1.547 4.949-2.629-2.088-4.097 0.541 2.628-2.551 1.933-2.861 0.232-5.721-6.108-2.552-3.866 2.552-2.706-2.629-0.155-1.083-2.551-0.077-0.1547-4.407 4.7937-9.742 3.247-3.17 1.006z" fill="#25E85F" stroke="#1DBE4D" stroke-linejoin="round" stroke-width=".77318"/>
<path d="m444.92 59.734 1.546 5.4896 3.248 19.793 1.546 7.8864 0.464 6.9586 1.778 4.1755 0.387 3.556 0.309 1.16-0.077 0.232-3.093 5.103 2.01 3.402 3.866 27.216 0.155 3.557 3.866-0.232 15.231-0.851 38.041-3.17 3.788-0.386v-0.387l-1.082-5.954-4.717-2.396-3.711-3.866-5.876-3.557-1.856-0.155-2.86-2.164 0.773-10.67-2.706-2.475 0.928-4.329 4.948-4.485-0.851-9.2779 1.779-2.0103 6.03-6.3401 6.882-8.8142 2.629-1.8556 4.639-2.2423 4.871-3.6339-3.248 0.6185-1.933-1.469-7.422 1.0051-1.16-1.3917-6.649 2.7061-5.335-2.2422-1.469-1.7783-4.253 0.3093-2.86-1.4691 0.927-1.0824-3.634-1.1598h-3.247l-5.18 2.2422-1.005-1.5463-8.196-1.1598-2.784-6.9586-0.309-2.0876-3.556-1.0051 0.309 5.9535-9.433 0.6958-11.675 0.4639-0.773 0.0773z" fill="#5CF489" stroke="#1DBE4D" stroke-linejoin="round" stroke-width=".77318"/>
<path d="m370.93 59.038-25.592-1.701-18.634-1.7783-18.556-2.1649-11.521-1.5464-18.401-2.8607-9.201-1.5464-20.567-3.9432-2.165-0.4639-3.324 15.773 1.469 2.8607 1.16 4.4071-0.696 0.6186 1.469 4.0205 2.01 1.701 5.722 9.5874 0.541 1.6237 2.319-0.1546-2.706 12.68-1.082 0.3093-1.469 4.2521 7.654 0.542 0.619 3.556 4.329 10.593 0.774 0.618 3.015 6.186 0.773-0.619 6.418-0.077 8.118 0.85 2.01-2.628 2.397 4.329 0.464 0.232 0.077-0.464 1.083-7.577 26.443 3.248 21.107 2.01 11.134 0.928 19.871 1.159 1.005 0.078h0.232l0.077-1.083 0.232-5.335 0.31-7.035 0.077-1.779 0.154-3.093 1.238-24.277 1.005-18.866 0.077-3.0928-1.469-0.0773z" fill="#5CF489" stroke="#1DBE4D" stroke-linejoin="round" stroke-width=".77318"/>
<path d="m443.3 59.734-23.35 0.4639-16.315-0.0773-13.994-0.3093-16.392-0.6185-0.85-0.0774-0.077 3.0928-1.005 18.866-1.238 24.278-0.154 3.093 3.015 0.155 34.097 0.928 31.469-0.232 13.067-0.387 2.628-0.155-0.309-1.159-0.386-3.557-1.779-4.1752-0.464-6.9586-1.546-7.8864-3.247-19.793-1.547-5.4896h-1.624 1e-3z" fill="#FFA630" stroke="#1DBE4D" stroke-linejoin="round" stroke-width=".77318"/>
<path d="m331.65 411.14-2.397-1.778-2.087 0.541 0.464 4.33-2.861 3.557 2.474 5.644 0.696 5.799 2.861 1.855 1.778-2.86 3.17-2.32 3.866-1.005 4.252-3.634-4.175-3.557-0.077-2.164-7.964-4.408zm-14.072-6.262-1.16-1.005-1.082 1.469 2.242-0.464zm-5.799-3.325 0.31-2.861-1.469-0.232 1.159 3.093zm4.871-4.716-1.314 0.618 0.928 2.938 2.01 0.155 0.619 2.551 2.164 0.928 4.794-2.242-4.484-3.711-4.717-1.237zm-9.896-3.17-0.696 2.087 3.324-0.077 3.093 0.773-1.623-2.552-4.098-0.231zm-9.742-6.109-1.779-1.701-3.402 2.629 2.165 4.021 1.547-1.624 4.407 0.928-0.387-1.856-2.551-2.397zm-34.639-3.402 0.464-1.082 1.314-0.696-1.778 1.778zm12.294-7.035-5.413 2.01-0.541 1.469 2.165 1.546 3.016 0.773 2.164-4.252-1.391-1.546zm-37.499-14.227v-0.077h-0.155l0.155 0.077zm-40.979-10.129v0.155h0.077l-0.077-0.155zm-21.494-3.556 0.077 0.077-0.077-0.077zm-1.547-2.32h-0.154v0.078l0.154-0.078zm0.541 0h-0.077 0.077zm-0.077-0.077v0.077-0.077zm-24.278-19.948-0.077-0.232v0.077l0.077 0.155zm-52.962-16.933-0.232 0.232 0.1547 0.077 0.0773-0.309zm-54.123-38.968h-0.0773 0.0773zm-33.401-14.536 0.23195-0.077v-0.155l-0.23195 0.232z" fill="#25E85F" stroke="#1DBE4D" stroke-linejoin="round" stroke-width=".77318"/>
<path d="m246.22 43.034-6.881-1.3917-2.242-0.5412-1.006-0.232-8.968 40.36 0.386 3.3247-0.309 3.4793 0.155 0.7732v0.0773l0.077 1.469 2.629 2.8608-3.789 9.5106-8.041 10.515-0.232 1.933 2.088 4.948-7.346 30.463-0.309 1.624 2.165 0.464 21.881 4.33 8.737 1.623 2.242 0.387 2.165 0.387 11.134 1.778 19.948 3.015 2.242 0.31 0.309-2.552 0.696-5.026 2.629-20.102 1.392-9.974 0.309-2.552-0.464-0.232-2.397-4.33-2.01 2.629-8.118-0.85-6.418 0.077-0.773 0.619-3.015-6.186-0.773-0.618-4.33-10.593-0.619-3.556-7.654-0.542 1.469-4.2522 1.082-0.3093 2.706-12.68-2.319 0.1546-0.541-1.6237-5.722-9.5874-2.01-1.701-1.469-4.0205 0.696-0.6186-1.16-4.4071-1.469-2.8607 3.324-15.773h-0.077v-1e-4z" fill="#7AFFA2" stroke="#1DBE4D" stroke-linejoin="round" stroke-width=".77318"/>
<path d="m153.05 62.286 0.077-1.3144-0.154 0.0773 0.077 1.2371zm16.469-7.0359 0.463-0.7732-0.541-0.0773 0.078 0.8505zm-1.47-1.3917 0.464-1.5464-0.464-0.1546v1.701zm5.645-2.2422-0.078-1.5464-1.314 2.0103 1.392-0.4639zm0.154-3.2474 0.232-1.5464-0.154-0.3865-0.078 1.9329zm0.232-7.5772-0.077-0.8505-0.309-0.0773 0.386 0.9278zm2.474-5.1029-0.695-0.0774-1.392 2.1649 2.087-2.0875zm-1.932-2.0876 0.386-0.3093 0.077-0.232-0.463 0.5413zm-0.387 0.2319-0.232-1.5463-0.696 1.3144 0.928 0.2319zm-0.387-2.1649-0.696-0.3092 0.542 0.7731 0.154-0.4639zm2.32 1.3144v-1.0051l-0.232 0.3866 0.232 0.6185zm0.696-1.0051-0.31-0.232h-0.077l0.387 0.232zm-4.407-1.701-0.387-0.3093-0.155-0.0773 0.542 0.3866zm2.86-0.3093-2.087 0.5413 0.541 0.1546 1.546-0.6959zm-1.701-0.1546-0.386-0.4639-0.078 0.0773 0.464 0.3866zm1.624-0.9278h-0.309l0.386 0.1546-0.077-0.1546zm-15.154 39.664 2.783 3.0154-0.464 5.7988 0.541 1.4691 4.176 2.2422 11.752 1.0824 0.464 1.3918 5.567 0.0773 5.257 0.6959 8.583-0.9278 4.252 0.6958 1.16-0.5412 21.726 4.9483 1.469 0.3093-0.154-0.7732 0.309-3.4793-0.387-3.3246 8.969-40.36-1.237-0.232-18.092-4.2524-15.773-4.0206-17.861-4.9483-5.334-1.3144 1.237 6.7266-1.16 2.1649-2.088-1.0824 2.011 9.3554-2.165 3.0928-1.005 2.8607v2.9381l-4.562 3.17-1.933-1.237-1.856 0.9278 3.402-4.4071-0.85 3.0154 1.933-2.0876 1.546 0.3092-0.464-3.8659 1.005 0.1547 2.088-4.6391-0.696-0.6959-2.706 3.4793-1.779 0.0774 1.933-2.1649 2.165-0.5413-0.773-3.9432-2.165-0.5412-1.082-1.8556-1.315 0.6958-7.113-3.0927-6.263-4.871-1.701 4.7164-0.154 2.0102 1.314 3.5567-0.85 11.52-0.619 1.7783 3.479 0.3093-3.479 2.4742 1.856 0.9278-1.469 4.9484-0.696-3.8659-1.315 4.4844 1.779 2.1649 1.933-0.1546 2.319 1.3917 1.16 2.2422h1.392z" fill="#9BFFB8" stroke="#1DBE4D" stroke-linejoin="round" stroke-width=".77318"/>
<path d="m296.47 247.77-26.056-3.247-13.994-2.011-19.948-3.17-2.011-0.309v0.155l-3.402 14.999-1.778-0.077-2.706-2.397-3.402 2.861-0.077 12.294-1.237 2.628v0.31l-0.155 1.933 2.706 7.268 2.397 3.247-4.33 2.551-1.701 3.17-2.783 6.804-1.392 0.31-0.077 5.644 2.397 1.778-1.238 3.402-2.783 0.155-1.624 3.015 5.567 3.48 10.515 5.876 32.474 17.242 27.525 3.402h0.309l2.165-22.809 0.542-5.644 5.798-59.845 0.31-2.783-2.011-0.232z" fill="#FFA630" stroke="#1DBE4D" stroke-linejoin="round" stroke-width=".77318"/>
<path d="m164.1 290.68 0.309 1.701v0.309l-0.309-2.01zm-11.366-6.649 0.542 1.159 0.309-0.077-0.851-1.082zm13.531-0.232 0.232 2.01 1.392 1.005-1.624-3.015zm-9.355-10.979-0.851-0.232 0.696 0.309 0.155-0.077zm-8.583-2.32-2.087 1.237 0.541 0.541 1.546-1.778zm-4.02-1.469-0.155 0.619 0.696 0.154-0.541-0.773zm6.804 1.546 3.402 1.933 0.618-0.541-4.02-1.392zm-26.366-68.117-0.077 0.078 0.077-0.078zm8.273 0.387-0.077-0.232v0.309l0.077-0.077zm44.613-58.684-3.016-0.774-33.092-9.123-12.293-3.711v0.309l-0.696 7.654-3.248 9.047-5.412 6.726-0.154 3.402 2.628 4.717 1.315 6.185-1.856 5.026 0.309 5.025-0.927 2.088 3.17 6.881 2.01 2.629-0.155 7.5 4.794 4.562 2.783-4.639 3.016 2.396 1.16-1.082-4.176 0.773-0.077 3.943 0.851 4.949-2.32-2.242-1.314-3.016-0.387 4.175 1.083 8.273 4.329 5.335-2.86 3.711 0.463 4.717 3.093 4.794 5.412 14.845 1.701 0.927-0.541 10.284 0.851 1.237 11.597 4.175 3.557 3.789 1.237 2.474 3.402 1.933 3.711 0.696 1.547 4.252 3.092 1.469 4.64 5.49 4.329 7.19-0.309 6.65 2.397 3.17 31.623 3.092 2.783-0.154 1.237-3.402-2.396-1.779 0.077-5.644 1.392-0.309 2.783-6.804 1.701-3.17 4.33-2.552-2.397-3.247-2.706-7.268 0.155-1.933v-0.077l-2.011-2.706-6.185-8.273-11.984-16.856-16.701-23.968-9.433-13.067-9.123-13.144 10.515-44.612 0.696-2.938z" fill="#D6FFE2" stroke="#1DBE4D" stroke-linejoin="round" stroke-width=".77318"/>
<path d="m390.03 204.47 0.31-15.155-3.712-0.154-18.865-0.696-1.856-0.077-1.546-0.078-22.964-1.469-15.309-1.237-19.097-1.856-1.856-0.231-0.232 2.01-4.175 40.282-1.469 14.072-0.618 6.108-0.155 2.011 2.397 0.232 38.968 3.402 17.165 1.082 17.087 0.773 2.474 0.078 1.546 0.077 3.248 0.077 1.546 0.078 4.871 0.154h1.237v-1.546l0.851-40.901 0.077-4.562v-1.469l0.077-1.005z" fill="#5CF489" stroke="#1DBE4D" stroke-linejoin="round" stroke-width=".77318"/>
<path d="m234.85 236.56 8.041-50.025 4.098-25.051 0.464-2.474-2.242-0.387-8.737-1.623-21.881-4.33-4.33-0.928-10.902-2.397-19.561-4.639-2.165-0.541-0.696 2.938-10.515 44.613 9.123 13.144 9.433 13.066 16.701 23.969 11.984 16.855 6.185 8.273 2.011 2.706v-0.232l1.237-2.628 0.077-12.294 3.402-2.861 2.706 2.397 1.779 0.077 3.402-14.999v-0.155l0.386-2.474z" fill="#9BFFB8" stroke="#1DBE4D" stroke-linejoin="round" stroke-width=".77318"/>
<path d="m376.34 259.6 0.078-2.011 0.154-4.02-2.474-0.078-17.087-0.773-17.165-1.082-38.968-3.402-2.397-0.232-0.309 2.783-5.799 59.844-0.541 5.645-2.165 22.808 0.309 0.078 10.67 1.005 1.005-5.412 1.933-1.547 21.649 1.933h0.155l-1.933-3.788 9.819 0.696 24.51 1.391 15.309 0.696 2.629-72.524 0.541 0.077 0.077-2.087z" fill="#9BFFB8" stroke="#1DBE4D" stroke-linejoin="round" stroke-width=".77318"/>
<path d="m129.24 130.56 12.293 3.711 33.092 9.123 3.016 0.774 2.165 0.541 19.561 4.639 10.902 2.397 2.165 0.464 0.309-1.624 7.345-30.463-2.087-4.949 0.232-1.933 8.041-10.515 3.788-9.5099-2.629-2.8607-0.077-1.4691v-0.0773l-1.469-0.3093-21.726-4.9483-1.16 0.5412-4.253-0.6959-8.582 0.9278-5.257-0.6958-5.567-0.0774-0.464-1.3917-11.753-1.0824-4.175-2.2423-0.541-1.469 0.464-5.7988-2.784-3.0154-0.231 0.0773-0.542 0.3866-3.866-2.0103-2.319 0.6959-1.546-0.7732-1.624 6.6493-1.083 1.8557-4.793 11.675-1.392 6.4174-0.851 0.0773-4.484 10.67-3.015 4.561-1.083 0.774-2.783 5.412-0.542 5.721-1.701 5.103 1.006 4.639v0.078zm28.298-63.478-0.232-0.6959-0.077 0.5412 0.309 0.1547z" fill="#5CF489" stroke="#1DBE4D" stroke-linejoin="round" stroke-width=".77318"/>
<path d="m280.7 164.19-19.948-3.015-11.134-1.779-2.165-0.386-0.464 2.474-4.097 25.051-8.042 50.025-0.386 2.474 2.01 0.309 19.948 3.17 13.995 2.01 26.056 3.248 2.01 0.232 0.155-2.011 0.618-6.108 1.469-14.072 4.175-40.282 0.232-2.01-1.546-0.155-19.716-2.397-3.015-0.387 1.933-15.077 0.154-1.005-2.242-0.309z" fill="#BBFFCF" stroke="#1DBE4D" stroke-linejoin="round" stroke-width=".77318"/>
<path d="m367.53 153.98 0.618-12.061 0.774-16.237 0.077-2.011-1.005-0.077-19.871-1.16-11.134-0.927-21.107-2.011-26.443-3.247-1.083 7.577-0.077 0.464-0.309 2.551-1.392 9.974-2.629 20.103-0.696 5.026-0.309 2.551-0.155 1.005-1.933 15.077 3.016 0.387 19.716 2.397 1.546 0.155 1.856 0.231 19.097 1.856 15.309 1.237 22.964 1.469 1.546 0.078 0.078-2.011 0.386-8.118 0.696-14.149 0.309-6.031 0.078-2.01 0.077-2.088z" fill="#25E85F" stroke="#1DBE4D" stroke-linejoin="round" stroke-width=".77318"/>
<path d="m550 262.23-8.35 1.237 3.402-5.413-1.469-3.015-29.458 2.861-24.897 2.01-3.634 0.232 0.464 2.165 3.016 15.618 0.077 3.479 0.85 21.031 0.078 3.479 0.232 0.078 1.16 1.237 4.639-0.155 0.464 6.804 0.154 1.933 2.397-0.232 7.345-0.541 29.149-2.706h0.155l-0.078-1.701 0.774-0.542-1.392-2.628 2.938-12.371-1.16-1.392 4.407-4.871-0.309-4.175 3.247-5.412v-0.078l-0.154-0.154 2.783-2.552-0.773-3.093 2.165-3.402-0.464-3.17 2.319-4.484v-0.077h-0.077z" fill="#25E85F" stroke="#1DBE4D" stroke-linejoin="round" stroke-width=".77318"/>
<path d="m526.96 158.39-4.253-2.242-2.319-3.171-0.774-4.561 0.619-2.088-2.242-2.706-3.789 0.387-38.04 3.17-15.232 0.85-3.866 0.232-1.624 0.077 1.315 8.583-1.083 4.098 1.701 2.551v0.541l0.542 0.078 2.474 7.268 2.397 3.788 0.154 4.33 2.629 3.634-0.464 1.546 2.397 9.742v0.232l15.85-0.464 16.933-1.469 16.623-2.087 3.789 3.324 0.154 0.155 0.696-0.309-0.541-3.016 2.861-1.778 1.16-7.886-1.16-0.542 0.696-4.02 3.479-0.696 3.866-2.783 1.701-4.872 0.077-2.474-3.092-2.938-0.928-1.855-2.938-1.856 0.154-0.387 0.078-0.386z" fill="#25E85F" stroke="#1DBE4D" stroke-linejoin="round" stroke-width=".77318"/>
<path d="m485.05 250.01-1.933-32.706-3.479-2.01-0.31-1.547-2.783-2.474 2.706-3.324-1.082-1.933-2.011 0.077-1.855-1.314-0.774-0.619-2.628 0.155-28.531 1.082-13.066 0.309h-25.979l-10.438-0.154-2.938-0.078v1.469l-0.078 4.562-0.85 40.901v1.547l3.325 0.077 17.937 0.232 41.984-0.618 29.922-1.392 2.938-0.232-0.077-2.01z" fill="#5CF489" stroke="#1DBE4D" stroke-linejoin="round" stroke-width=".77318"/>
<path d="m520.7 194.04-3.788-3.325-16.624 2.088-16.932 1.469-15.85 0.463-0.078 0.464 1.933 3.712 1.779 1.237 2.087 3.711 0.309 0.309 0.774 0.619 1.855 1.314 2.011-0.077 1.082 1.933-2.706 3.324 2.783 2.475 0.31 1.546 3.479 2.01 1.933 32.706 0.077 2.01 0.155 2.01 0.077 2.011 0.155 2.087 0.077 2.01 3.634-0.232 24.896-2.01 29.459-2.861 1.469 3.016-3.402 5.412 8.35-1.237h0.077v-0.619l0.155-3.556 1.546-1.933-0.464-2.165-0.077-0.077-0.077-0.078 0.309-1.005 0.464 0.155 0.232 0.618-0.078 0.232v0.696l0.31 0.078 0.618-0.774v-0.077l0.078-0.232 2.01-1.237 0.309-0.155 0.696-6.34-0.155-0.309-0.232-0.077-5.489-4.485 0.85-1.623-1.546-4.408-2.783-2.164-5.258-2.32-3.325-2.706 0.387-5.567 1.005-5.18-5.567 0.309-1.701-1.778-0.773-3.557-8.814-7.423-2.474-6.881 0.618-3.402-0.155-0.154z" fill="#BBFFCF" stroke="#1DBE4D" stroke-linejoin="round" stroke-width=".77318"/>
<path d="m455.9 163.96-2.397-2.397-8.428-2.474-2.706-0.078-4.098 1.16-4.871-3.093-15.231 0.155-22.19-0.232-26.211-0.85-2.32-0.078-0.077 2.011-0.309 6.03-0.696 14.15-0.387 8.118-0.077 2.01 1.855 0.078 18.866 0.695 3.711 0.155-0.309 15.154-0.077 1.005 2.938 0.078 10.438 0.154h25.978l13.067-0.309 28.531-1.082 2.628-0.155-0.309-0.309-2.088-3.711-1.778-1.238-1.933-3.711 0.078-0.464v-0.232l-2.397-9.742 0.464-1.546-2.629-3.634-0.155-4.33-2.397-3.788-2.474-7.268-0.541-0.078-1.469-0.154z" fill="#7AFFA2" stroke="#1DBE4D" stroke-linejoin="round" stroke-width=".77318"/>
<path d="m485.52 258.13-0.155-2.088-0.077-2.01-0.155-2.011-2.938 0.232-29.922 1.392-41.983 0.619-17.938-0.232-3.325-0.078h-1.237l-4.871-0.154-1.546-0.078-3.248-0.077-1.546-0.077-0.077 2.01-0.078 2.01-0.077 2.01-0.077 2.088h0.464l18.71 0.464 19.794 0.232 0.232 26.443 1.392 4.639 3.092 2.938 3.325 0.154 0.696-1.391 4.562 4.175 5.953 0.618 1.082 1.238 2.165-1.006 5.413 2.552v1.469l2.01-0.077 2.087-1.779 3.866 2.474 3.634 1.315 2.475-3.402 7.886 3.711 2.938-2.397 2.397-0.928 1.933 0.464 7.268-2.087 3.866 1.623 3.479 2.243 3.015 0.541h0.078l-0.078-3.479-0.85-21.031-0.078-3.479-3.015-15.618-0.464-2.165-0.077-2.011v1e-3z" fill="#E71D36" stroke="#1DBE4D" stroke-linejoin="round" stroke-width=".77318"/>
<path d="m451.57 108.91-13.066 0.387-31.469 0.232-34.097-0.928-3.016-0.155-0.077 1.779-0.309 7.036-0.232 5.335-0.077 1.082h-0.232l-0.078 2.01-0.773 16.237-0.618 12.062-0.078 2.087 2.32 0.078 26.21 0.85 22.191 0.232 15.231-0.155 4.871 3.093 4.098-1.16 2.706 0.078 8.428 2.474 2.397 2.397 1.469 0.154v-0.541l-1.701-2.551 1.082-4.098-1.314-8.583 1.624-0.077-0.155-3.557-3.866-27.215-2.01-3.402 3.093-5.103 0.077-0.232-2.629 0.154z" fill="#7AFFA1" stroke="#1DBE4D" stroke-linejoin="round" stroke-width=".77318"/>
<path d="m548.84 374.73-1.005 0.232-0.464 0.463 1.469-0.695zm3.248 0-0.542-0.232-0.154 0.232h0.696zm1.855-0.619h-0.541l-0.309 0.387 0.85-0.387zm-0.928-0.541-0.154-0.232-0.077 0.232h0.231zm6.186-4.098-0.232 0.155h0.387l-0.155-0.155zm10.824-4.562 0.464-0.618-0.541 0.696 0.077-0.078zm1.547-2.01-0.155 0.077v0.078l0.155-0.155zm-39.742 6.804 1.16-1.469-3.17-0.851-1.392 1.16 3.402 1.16zm32.087-6.727-0.309-0.309-0.077 0.155 0.386 0.154zm0.851-1.391-0.773-0.232 0.232 0.773 0.541-0.541zm6.34-1.315v-0.232 0.232zm1.546-1.005-0.077-0.077 0.077 0.154v-0.077zm-0.618-0.155-0.155-0.077-0.077 0.232 0.232-0.155zm-5.413-0.232 0.696-0.231v-0.232l-0.696 0.463zm0.387-0.386 0.387-0.387-0.078-0.077-0.309 0.464zm-2.706-2.861-0.155 0.155h0.078l0.077-0.155zm-28.53-43.298h-0.155l-29.149 2.706-7.345 0.541-2.397 0.232 0.077 1.856 1.547 14.922 2.551 3.557 0.078 2.088 2.474 4.329 2.01 6.34-0.696 3.557-0.541 8.814-1.16 2.861h0.155l0.232 2.01-1.315 1.856 9.588-1.082 7.5 2.087 5.335 0.696 2.706-1.933-1.469-1.933 4.948-1.546-0.155 1.701 2.552-0.619 2.087 3.247 1.779-0.618 4.639 3.17-2.861 1.005 6.572 1.933h2.474l1.469-1.778 3.17-1.701 2.243 3.247 1.546-2.938-0.464-4.639 4.175 1.624 0.464 1.391 4.948 0.619 2.475 2.01-0.31 1.624 3.48-3.247-1.315-1.702-5.799-1.469-2.164-1.237-0.078-2.319 2.397 0.309 1.856-3.788-2.397-3.325-1.315 3.17-3.015-0.541 2.088-3.402-1.392-0.387-3.402 2.397-4.871 0.309-1.392-1.082 2.242-3.943 2.629-0.078 4.485 1.469 3.247 0.31-1.778-2.243-3.402-6.649 0.927-3.711-26.674 2.938 1.005-1.005-1.083-2.784 1.624-2.397 0.928-6.03 5.876-10.052-2.861-3.479 0.155-2.552-1.778-4.175v-0.541z" fill="#E71D36" stroke="#1DBE4D" stroke-linejoin="round" stroke-width=".77318"/>
<path d="m457.22 428.62-3.712-13.994v2.628l3.712 11.366zm-0.851-24.587-2.629 4.948-0.309 1.624 2.938-6.572zm2.088-3.634 2.474-3.247-1.778 1.082-0.696 2.165zm8.737-7.886-5.799 3.015 1.623-0.309 4.176-2.706zm0.773-1.083 1.623-1.314-0.618 0.154-1.005 1.16zm-91.699-129.74-0.542-0.078-2.628 72.525-15.309-0.696-24.51-1.392-9.819-0.696 1.932 3.789 0.078 0.077 8.35 8.35 4.794 5.645 6.34 4.716 4.484 8.196 1.701 8.582 3.634 2.397 2.861 3.17 4.098 1.469 5.953 3.789 2.707 1.005 3.711-3.712 1.16-3.943 1.933-3.788 6.03-2.397 2.32 1.16 6.727 0.541 6.108 3.788 4.175 0.773-1.16 2.165 2.397 1.547 2.242 2.706 0.464 2.861 1.469 1.933 3.402 8.195 3.402 2.861 2.629 4.33 3.324 3.402 1.47 0.464 1.237 8.814 3.634 2.01 0.154 2.784 0.928-0.232 6.34 7.732 3.17 0.695 4.021 2.397h6.185l4.485 2.474 5.334-1.159-2.396-2.243-2.165-6.494-0.851-5.644-1.237-1.856 0.541-3.789-1.623-0.154-2.165-3.557 2.474 2.629 2.861-1.005 1.546-4.098-3.093-4.175 4.639 0.541 2.165-3.325-0.309-1.159 1.933-2.552-0.464 2.242 2.165-1.701-0.85-3.015 2.783 1.469 3.557-2.01-3.48-3.634 2.165 0.85 4.021 0.232 5.257-1.16 5.876-3.943 3.557-2.938 0.541-2.165 2.165-2.242-1.16-3.711 0.232-2.32 3.866-1.701-0.309 4.098h2.32l-2.552 2.165 10.283-5.412 1.701-0.078 1.083-4.948h0.309l1.16-2.861 0.541-8.814 0.696-3.557-2.01-6.34-2.474-4.33-0.078-2.087-2.551-3.557-1.547-14.922-0.077-1.856-0.155-1.933-0.464-6.804-4.639 0.155-1.159-1.237-0.232-0.077h-0.078l-3.015-0.542-3.479-2.242-3.866-1.624-7.268 2.088-1.933-0.464-2.397 0.928-2.938 2.397-7.887-3.712-2.474 3.402-3.634-1.314-3.866-2.474-2.087 1.778-2.01 0.078v-1.469l-5.413-2.552-2.165 1.005-1.082-1.237-5.953-0.618-4.562-4.176-0.696 1.392-3.325-0.155-3.092-2.938-1.392-4.639-0.232-26.442-19.794-0.232-18.71-0.464h-0.464z" fill="#5CF489" stroke="#1DBE4D" stroke-linejoin="round" stroke-width=".77318"/>
<path d="m746.39 115.09-11.134 4.252-0.155-0.386-6.262 1.855-1.392 0.387 0.155 0.773 2.938 11.366 0.927 1.16-2.01 2.474 1.392 1.314 4.484-4.33 2.397-3.324 0.464 0.927 11.288-5.025 0.232-0.232-0.077-1.856-0.464-1.623-2.397-6.727-0.309-0.851-0.077-0.154z" fill="#25E85F" stroke="#1DBE4D" stroke-linejoin="round" stroke-width=".77318"/>
<path d="m735.95 61.434-1.006 1.2371-1.159-0.232-0.619 5.103v0.0773l1.856 6.9586-0.155 1.3918-3.324 4.4071 0.85 4.0205v5.0257l-0.619 4.6391 3.48 12.68 3.17-1.005 9.742-3.248 4.407-4.7933v-1.2371l0.232-2.0102-0.541 0.2319-0.078-0.4639-4.871-5.9535-0.154-0.5412-11.211-26.288z" fill="#7AFFA2" stroke="#1DBE4D" stroke-linejoin="round" stroke-width=".77318"/>
<path d="m753.96 122.06-0.078-1.624-0.232 0.619 0.31 1.005zm1.546-1.237-1.005-1.933-0.077 2.01 1.082-0.077zm-0.464-2.397 0.541 1.392 0.696 1.237 0.464-0.928-0.696-1.314-0.232-0.928h-0.773v0.541zm-8.582-3.17 0.309 0.85 2.397 6.727 0.464 1.624 0.077 1.855 0.155-0.232 3.711-2.938-0.696-5.257 1.547-0.309-3.402-4.098-3.557 1.391-1.005 0.387z" fill="#25E85F" stroke="#1DBE4D" stroke-linejoin="round" stroke-width=".77318"/>
<path d="m735.25 106.74-3.479-12.68 0.618-4.639v-5.0257l-0.85-4.0205 3.324-4.4072 0.155-1.3917-1.856-6.9586-1.005 0.3866-4.252 1.5463-4.175 1.6237-9.588 3.4793-0.541 0.1547 3.479 8.1184 1.16 7.6544 4.098 6.4174 3.866 12.68 0.154-0.077 0.619-0.232 1.778-0.541 1.547-0.542 4.407-1.314 0.541-0.232z" fill="#25E85F" stroke="#1DBE4D" stroke-linejoin="round" stroke-width=".77318"/>
<path d="m572.19 275.61 0.309 0.618 1.083 0.696 0.464 31.701 0.154 17.396 3.944 23.814 0.309-0.077 3.479 0.696 0.928-6.882 1.546 3.866 2.629 2.397 5.026-2.938-0.541-0.464 0.154 0.077-3.479-7.963 33.401-5.413 2.243-0.386v-0.077l-2.088-3.944-0.155-5.644-1.701-3.093 0.851-6.03 1.392-1.547-5.722-10.206-10.361-31.545-0.077-0.155-2.319 0.387-12.371 2.01-6.186 0.773-12.989 1.778 0.077 0.155z" fill="#25E85F" stroke="#1DBE4D" stroke-linejoin="round" stroke-width=".77318"/>
<path d="m680.82 427.3h-0.154l0.077 0.077 0.077-0.077zm-0.696-0.078v0.078h0.078l-0.078-0.078zm0.155-0.077v-0.077 0.077zm-10.515 1.16v0.077-0.077zm-0.155 0.077v-0.077 0.077zm-0.696 0h-0.077v0.077l0.077-0.077zm21.959-4.871h-0.078l0.078 0.155v-0.155zm2.087-0.541v-0.155l-0.155 0.232 0.155-0.077zm-0.773-0.155-0.309-0.309-0.078 0.077 0.387 0.232zm-0.232 0.619-0.928-1.16 0.541 1.005 0.387 0.155zm7.345-4.562v0.309l0.155-0.154-0.155-0.155zm1.083-0.773 0.232-0.387-0.31 0.31 0.078 0.077zm0.232-0.773h-0.078v0.077l0.078-0.077zm-1.392-0.232-0.077-0.078 0.077 0.078zm0.696-1.16-0.078-0.077v0.154l0.078-0.077zm-2.088-0.077-0.077-0.078 0.077 0.078zm2.629-1.779-0.155 0.078 0.232 0.077-0.077-0.155zm0.309 0-0.154-0.154 0.077 0.232 0.077-0.078zm-0.541-0.154-0.077-0.078v0.155l0.077-0.077zm2.861-0.542v-0.077l-0.155 0.309 0.155-0.232zm-3.248 0.31h-0.154l0.154 0.077v-0.077zm1.624-0.928h-0.232l-0.077 0.077 0.309-0.077zm0.619-0.387h-0.078 0.078zm-6.495 0.31v-0.155l-0.077 0.155h0.077zm0.696-0.232h-0.232l0.232 0.463v-0.463zm-1.856 0.077v-0.464l-0.386 0.077 0.386 0.387zm-1.082-0.773 0.386 0.386v-0.154l-0.386-0.232zm11.365 0.464-1.391 0.618 0.464 0.078 0.927-0.696zm-10.824-0.696h-0.464v0.154l0.464-0.154zm12.216-3.866 0.078-0.387 0.077-1.005-0.155 1.392zm0.078-4.33-0.31-0.773-0.154 0.309 0.464 0.464zm-17.861 1.933-0.155 0.232 0.387 0.077-0.232-0.309zm-1.469-0.696-0.696 0.232 0.541 0.077 0.155-0.309zm-1.546 0.155v-0.232l-0.078 0.077 0.078 0.155zm-1.624-0.078-0.464 0.31 0.619 0.309-0.155-0.619zm2.165 0.078-0.077-0.232-0.387-0.077 0.464 0.309zm-10.129-7.577-0.464 0.232 0.928 0.309-0.464-0.541zm-1.855-2.475-0.619-0.927 0.232 0.696 0.387 0.231zm2.396 1.547-1.082-2.474-0.773-0.232 1.855 2.706zm-3.092-3.093-0.232-0.618-0.155-0.387 0.387 1.005zm-6.418-8.582-1.391-1.005 0.541 0.541 0.85 0.464zm34.793-5.18-5.644-9.433h-0.309l5.953 9.433zm-39.045-15.077-0.232-0.078 0.232 0.155v-0.078 1e-3zm-0.464-0.542-0.077 0.078 0.077 0.077v-0.155zm-0.541-0.773v-0.077l-0.078 0.077h0.078zm0.309-0.309 0.232 0.154v-0.154h-0.232zm0.464-0.309-0.309 0.077h0.077l0.232-0.077zm-0.541-0.078-0.232-0.232 0.077 0.078 0.155 0.154zm-0.541-0.85h-0.155l0.232 0.077-0.078-0.077h1e-3zm0.541-0.928h-0.31l-0.077 0.077 0.387-0.077zm0.309 0.155-0.387-0.387 0.155 0.077 0.232 0.31zm-2.938-3.325-0.155-0.077v0.077h0.155zm-3.325 0-0.232-0.309 0.078 0.386 0.154-0.077zm-28.144-2.552 2.32-1.778-2.551 1.701 0.231 0.077zm4.64-3.711 0.232-0.232-0.928 0.387 0.696-0.155zm-29.381-5.18-8.428 2.706 4.639-1.314 3.789-1.392zm20.953-13.144-2.242 0.386-33.402 5.413 3.48 7.963 0.232 0.078-0.851 3.17 2.474-1.083 2.706-2.397 4.639-0.154 5.335-1.933 3.634 0.541-0.85 1.315 6.649 2.242 5.722 2.783 1.314 3.093 4.253-0.928 10.051-8.196 3.711 0.155 15.155 11.443 3.092-0.618 3.248 4.329 0.618 6.882-1.005 4.329 0.464 2.165 2.706 5.413-1.237-4.253 3.479-0.077 0.31 3.092-1.856 4.794 6.417 8.814 2.397 0.078-2.01-2.706 2.474 0.309 1.469-0.928-0.618 4.948 3.324 2.629 2.242 6.031 3.016 1.856 3.866 1.005 5.335 6.804 2.783 1.469-3.711 0.232 1.701 1.933 6.108-2.011 3.015-1.7 2.784-9.743-1.392-15.154-0.309-1.546-7.423-12.371-6.34-8.969-3.556-7.345 3.015 2.551 0.619-0.464 1.314 6.418 3.402 4.871-3.325-6.495 0.155-3.093-9.974-12.139-2.397-3.788-3.17-6.417-2.165-5.413-1.701-1.933-0.386-2.474-0.078-0.077-5.335-0.31-2.087 1.624-1.16 5.954-1.083-2.784-36.494 4.562-2.628-4.098 0.077-0.077z" fill="#D6FFE2" stroke="#1DBE4D" stroke-linejoin="round" stroke-width=".77318"/>
<path d="m673.78 316.43-0.077-2.32-0.541 2.011 0.618 0.309zm0.851-3.557-0.309-1.778-0.232 1.083 0.541 0.695zm-36.185-48.71-1.005 0.232-2.938 0.619-10.825 2.242-1.005 0.232-1.082 0.154-6.031 1.16-1.624 0.309-6.572 1.238-1.391 0.154 0.077 0.155 10.36 31.546 5.722 10.206-1.392 1.546-0.85 6.031 1.701 3.092 0.154 5.645 2.088 3.943v0.077l-0.077 0.077 2.628 4.098 36.495-4.561 1.082 2.783 1.16-5.953 2.087-1.624 5.335 0.309-0.464-8.35 1.006-1.779-0.542-3.324 1.083-3.17 1.623-1.779-1.159-1.082 2.706-3.325h-0.078l-4.639-4.329-6.34-9.047-3.479-1.623-14.922-12.526-3.634-4.639-7.036-2.938-0.387-1.546 2.165-4.253z" fill="#5CF489" stroke="#1DBE4D" stroke-linejoin="round" stroke-width=".77318"/>
<path d="m570.95 353.62-0.386 0.078v0.077l0.386-0.155zm7.191-0.928h-1.082l1.005 0.078 0.077-0.078zm-8.969 0.774-0.309 0.309 0.077 0.077 0.232-0.386zm7.268-0.619h-2.938l2.783 0.077 0.155-0.077zm-32.242-73.684v0.077l-3.247 5.413 0.309 4.175-4.407 4.871 1.16 1.392-2.938 12.371 1.392 2.628-0.774 0.542 0.078 1.701v0.541l1.778 4.175-0.155 2.551 2.861 3.48-5.876 10.051-0.928 6.031-1.623 2.397 1.082 2.783-1.005 1.005 26.675-2.938-0.928 3.711 3.402 6.65 1.778 2.242v-0.077l2.861-3.248 6.031-1.314 5.567 0.618 0.85-1.082v-0.077l-3.943-23.814-0.155-17.397-0.464-31.7-1.082-0.696-0.309-0.619h-0.155l-3.866 0.542-6.804 0.928-15.464 1.932-1.701 0.155z" fill="#7AFFA2" stroke="#1DBE4D" stroke-linejoin="round" stroke-width=".77318"/>
<path d="m638.45 264.16-2.165 4.253 0.387 1.546 7.036 2.938 3.634 4.639 14.922 12.526 3.479 1.624 6.34 9.046 4.639 4.33 0.774-3.557-1.237-3.402 3.324 2.474 1.856-1.469-3.17-2.629 3.866-0.232 6.031-5.103-0.696-1.314 3.711-2.861-0.387-1.392 2.706-1.701 0.155-3.943 4.253-7.886 2.86-3.634 0.31-0.155-17.242-10.902-6.418 1.237-8.737-0.309-4.329-2.242-25.67 8.118h-0.232z" fill="#25E85F" stroke="#1DBE4D" stroke-linejoin="round" stroke-width=".77318"/>
<path d="m526.88 158.78-0.155 0.386 2.938 1.856 0.928 1.856 3.093 2.938-0.078 2.474-1.701 4.871-3.865 2.783-3.48 0.696-0.696 4.021 1.16 0.541-1.16 7.886-2.86 1.779 0.541 3.015-0.696 0.309-0.619 3.402 2.475 6.882 8.814 7.422 0.773 3.557 1.701 1.778 5.567-0.309-1.005 5.18-0.387 5.567 3.325 2.706 5.258 2.32 2.783 2.165 1.546 4.407-0.85 1.623 5.489 4.485 0.232 0.077-0.464-0.464 1.547-3.634 5.953 1.624 1.469-1.701-1.159-3.402 4.871-2.861-1.315-1.855 1.16-2.629v-0.232l-0.309-0.078 0.077-6.881 1.701-1.237 2.938-6.881-0.618-3.016-1.933-3.634 1.082-4.097-5.412-38.118-0.773-0.851-2.011-4.561-1.623-1.701-0.696-4.485v-0.154l-10.438 1.469-6.263 0.773-16.855 1.933z" fill="#25E85F" stroke="#1DBE4D" stroke-linejoin="round" stroke-width=".77318"/>
<path d="m597.7 160.4-11.829 2.088-2.706 0.541-9.588 1.547-2.01 1.623-3.016 1.392-1.159-0.077-1.392-0.696-0.464-0.464 5.412 38.118-1.082 4.097 1.933 3.634 0.618 3.016-2.938 6.881-1.701 1.237-0.077 6.881 0.309 0.078 0.309-0.078 1.16-2.164h2.861l3.479-1.16 4.33 1.623 0.464-1.778 2.474-1.855 3.711 0.541 2.011-3.943 5.489 0.463-0.077-2.242 4.871-6.417-0.773-2.938 3.402-0.078 4.175-3.324-1.005-3.789 0.154-0.154-0.154-1.315-4.639-27.37-2.088-11.675-0.232-1.238-0.232-1.005z" fill="#9BFFB8" stroke="#1DBE4D" stroke-linejoin="round" stroke-width=".77318"/>
<path d="m552.16 253.57-0.232-0.618-0.464-0.155-0.309 1.005 0.078 0.078 0.85-0.078 0.077-0.232zm52.886-50.566-0.155 0.155 1.005 3.789-4.175 3.324-3.402 0.078 0.773 2.938-4.871 6.417 0.078 2.242-5.49-0.464-2.01 3.944-3.711-0.542-2.475 1.856-0.464 1.778-4.329-1.623-3.48 1.159h-2.86l-1.16 2.165-0.309 0.078v0.232l-1.16 2.628 1.314 1.856-4.871 2.861 1.16 3.402-1.469 1.701-5.954-1.624-1.546 3.634 0.464 0.464 0.155 0.309-0.696 6.34-0.31 0.155-2.01 1.237-0.077 0.232 2.242-0.309 15.618-2.088-0.773-3.093 2.629-0.077 31.468-4.175 22.113-3.711 0.309-0.232 0.542-0.619 5.799-3.093 4.484-5.876 0.619-2.01 2.938-2.32 3.711-4.716 0.541-0.773-0.232-0.078h-1.933l-2.474-1.391-4.407-5.335-1.546-5.412v-0.155l-0.155-0.155-3.247-1.855-1.47-2.475-2.938 2.861-1.855 0.464-2.32-0.928-2.01 1.547-4.175-1.856-1.083 0.464-3.943-3.402-2.01-1.005-3.789 0.464-0.618 0.618z" fill="#7AFFA2" stroke="#1DBE4D" stroke-linejoin="round" stroke-width=".77318"/>
<path d="m709.12 265.55-0.85 0.85 0.155 0.155 0.695-1.005zm0.619-4.485-0.387 0.619 0.155 0.619 0.232-1.238zm4.639-7.19-1.16 0.773-0.618 0.928 1.778-1.701zm9.974-4.871-0.464-0.309-1.005-0.078 1.469 0.387zm-2.088-0.464h-0.695l-1.16 0.619 1.855-0.619zm2.397 0.85 2.242-5.566-1.546 2.319-0.696 3.247zm3.325-7.345 1.005-1.469h-0.541l-0.464 1.469zm6.495-6.031-1.701-8.582 1.469 4.485 0.232 4.097zm-9.433-19.561-0.155 0.077-0.232 0.078h0.078l4.252 7.19 3.325 3.325-7.268-10.67zm-1.392 0.464-0.618 0.155 0.154 0.077h1.315l-0.155-0.464-0.232 0.077h-0.232v0.155l-0.155 0.077-0.077-0.077zm-71.519 17.628-0.387 1.16 0.078 3.325-0.851-0.077-2.01 4.097-2.242 0.232-4.175 4.098-1.856-0.696-2.397 3.557-6.34 5.721-3.093 0.774-3.247 3.015-0.155 2.01-2.86 1.547 0.077 3.402v0.773l1.005-0.232 10.825-2.242 2.938-0.619 1.005-0.232h0.232l25.669-8.118 4.33 2.242 8.737 0.309 6.417-1.237 17.242 10.902 0.31-0.232 7.963-3.247 0.078-4.253 2.86-5.18 3.093-2.938 6.418-4.253 0.85-1.546 1.701 0.773 0.773-5.103-0.928 1.779-3.247 1.082-3.093 0.077 3.789-2.783-1.16-1.237 1.315-2.784-7.268-1.159-0.31-0.387 6.186-1.16 2.01 1.005 2.552-0.232 2.087-1.546 1.547-3.015 1.391-0.387-0.232-4.252-1.778-1.701-1.778 1.623 0.386 4.098-1.314-5.026-1.005-0.232-7.655 3.17 3.402-3.324 0.155-1.315 3.557-0.85 1.005-2.629 2.397 1.392-2.552-3.789-1.778-1.546-30.927 8.814-19.717 5.026-19.948 3.711-0.077-0.155z" fill="#BBFFCF" stroke="#1DBE4D" stroke-linejoin="round" stroke-width=".77318"/>
<path d="m651.75 165.5-1.933-8.351-0.386-1.701-2.165-9.51-2.784 1.779-5.953 4.561-3.866 4.717-3.015 0.464-5.567 3.17-3.093-1.856-9.355-1.082-4.949 1.237-4.871 1.16-5.103 1.082-0.773 0.232 0.232 1.237 2.088 11.675 4.639 27.371 0.154 1.314 0.619-0.619 3.788-0.463 2.011 1.005 3.943 3.402 1.082-0.464 4.176 1.855 2.01-1.546 2.319 0.928 1.856-0.464 2.938-2.861 1.469 2.474 3.247 1.856 0.155 0.155 3.325-1.624 1.16-2.552-0.928-2.628 2.629-4.021 1.932-0.309-0.232-3.402 3.171-4.33 0.541 0.619 2.861-2.165 2.474-3.712 0.386-16.932 0.155-0.078-0.387-1.623z" fill="#25E85F" stroke="#1DBE4D" stroke-linejoin="round" stroke-width=".77318"/>
<path d="m626.31 240.27-22.113 3.711-31.468 4.176-2.629 0.077 0.773 3.093-15.618 2.087-2.242 0.31v0.077l-0.619 0.773-0.309-0.077v-0.696l-0.851 0.077 0.078 0.078 0.464 2.164-1.547 1.933-0.154 3.557v0.696l-2.32 4.484 0.464 3.17-2.165 3.402 0.773 3.093-2.783 2.552 0.155 0.154 1.701-0.154 15.463-1.933 6.804-0.928 3.866-0.541h0.155l-0.078-0.155 12.99-1.778 6.185-0.774 12.371-2.01 2.32-0.386 1.391-0.155 6.572-1.237 1.624-0.309 6.031-1.16 1.082-0.155v-0.773l-0.077-3.402 2.861-1.546 0.154-2.011 3.248-3.015 3.092-0.773 6.34-5.722 2.397-3.556 1.856 0.696 4.175-4.098 2.242-0.232 2.011-4.098 0.85 0.077-0.077-3.324 0.386-1.16-1.237 0.232-4.407 1.237-5.258 1.082-13.221 2.706-1.392 0.232-0.309 0.232z" fill="#25E85F" stroke="#1DBE4D" stroke-linejoin="round" stroke-width=".77318"/>
<path d="m723.89 216.76h0.232l0.232-0.077-0.155-0.387-0.309 0.464zm-2.629-8.66v0.387l0.387-0.232-0.387-0.155zm1.392-2.706-0.077-0.618 0.077 0.618zm-0.464 0.928-0.155 1.005-0.232 0.387 0.387-1.392zm0.696-2.01 0.077-0.464-0.154 0.464h0.077zm0.464-2.088 0.232-0.541-0.387 1.392 0.155-0.851zm0.077-1.16 0.309-1.701-0.386 0.387 0.077 1.314zm1.392-7.654 0.154-0.696-0.077 0.155-0.077 0.541zm-0.309-1.778-1.006 0.386-1.546 0.696-0.541 0.696 0.232 0.077-1.856 11.521 0.696 1.855 1.082-4.793 2.011-6.263 0.928-4.098v-0.077zm1.546-0.619-0.232 0.077-0.077 0.31-0.387 2.397 0.309-0.851 0.387-1.933zm-80.797 29.613-0.542 0.773-3.711 4.716-2.938 2.32-0.618 2.01-4.485 5.876-5.799 3.093-0.541 0.619 1.392-0.232 13.221-2.706 5.258-1.083 4.407-1.237 1.237-0.232 0.077 0.155 19.948-3.712 19.716-5.025 30.928-8.814-0.232-0.387-0.078-0.232 0.542 0.541 0.618-0.154-0.077-0.078-0.541-2.629 0.386 0.078 1.237 2.319 0.232-0.077 0.155-0.077-0.309-0.619-3.171-4.871-3.943 0.696-1.778 1.469-1.701-1.546-5.799-1.933-4.02-0.155 7.809-0.696 4.33 2.938 1.237-1.933-3.48-4.407 2.474 0.155-1.314-3.557-3.093 0.155-7.345-5.954h-0.928l10.361 5.103-0.696-3.556 0.696-1.16-5.258-2.01-4.561-0.31-2.243-2.01-1.855 1.16-0.696-5.335 0.773 0.155-0.155-4.33-0.154-0.155-0.155 0.077-0.155-0.077-0.386-0.309-0.232-0.232-2.474-1.083-2.552-1.855-3.556-0.928-0.232-0.077v0.077l-0.464 3.247-7.191-3.092 0.155 4.484-3.943 7.5-2.397 2.629-1.547 4.561-4.716-1.623-2.32 10.515-1.855 3.557-0.309 4.639-1.392 2.242-5.18 1.546-4.253 3.325-2.01 0.309-1.933 1.701-4.871-1.778-0.851-2.397-0.154-0.077z" fill="#25E85F" stroke="#1DBE4D" stroke-linejoin="round" stroke-width=".77318"/>
<path d="m562.22 108.29-1.933 2.397-1.16 3.479 0.541 1.933 2.552-7.809zm-44.381-18.17 1.16-1.6237-0.851 0.7732-0.309 0.8505zm1.778-2.5515-0.386-0.464-0.851 0.5413 1.237-0.0774v1e-4zm-16.855 4.3298-1.778 2.0102 0.85 9.2785-4.948 4.484-0.928 4.33 2.706 2.474-0.773 10.67 2.861 2.165 1.855 0.155 5.877 3.556 3.711 3.866 4.716 2.397 1.083 5.953v0.387l2.242 2.706-0.619 2.088 0.774 4.561 2.319 3.17 4.253 2.243-0.078 0.386 16.856-1.933 6.262-0.773 10.438-1.469-0.309-1.16v-3.634l-2.088-3.865-0.541-4.872 1.005-5.412-0.541-4.175 1.856-5.18-0.696-0.851 0.154-4.793 1.006-3.634-1.16-1.237-2.242 0.773-1.237 3.247-2.939 1.701 0.928-4.098 2.629-3.479 0.155-1.546 0.077-0.078-3.711-3.711v-5.258l-4.175-3.4017-5.722-0.3866-5.876-1.5464-12.68-3.8658-2.474-1.3918-0.232 0.232-3.944-0.5412-1.314 0.7731 0.541-5.6442-6.34 3.2474-7.732 1.2371-0.077-0.1547v1e-4zm15.154-4.0979-0.154-0.5412-0.541 0.2319 0.695 0.3093zm-2.783-0.5412 0.232-0.4639-0.155-0.1547-0.077 0.6186zm5.644-1.3144-0.232-1.0825-0.232 1.3144 0.464-0.2319z" fill="#9BFFB8" stroke="#1DBE4D" stroke-linejoin="round" stroke-width=".77318"/>
<path d="m666.52 179.11-10.979 2.706-3.402-14.69-0.155 0.077-0.386 16.933-2.474 3.711-2.861 2.165-0.541-0.619-3.17 4.33 0.232 3.402-1.933 0.31-2.629 4.02 0.928 2.629-1.16 2.551-3.325 1.624v0.155l1.546 5.412 4.408 5.335 2.474 1.392h1.933l0.232 0.077 0.154 0.077 0.851 2.397 4.871 1.779 1.933-1.702 2.01-0.309 4.253-3.324 5.18-1.547 1.392-2.242 0.309-4.639 1.855-3.557 2.32-10.515 4.716 1.624 1.547-4.562 2.397-2.629 3.943-7.5-0.155-4.484 7.191 3.093 0.464-3.248v-0.077l-2.243-3.866-4.639-0.541-2.706 2.087v1.547l-2.319 0.541-3.402 2.397-1.779 0.386-3.556 5.026-1.779-8.118-1.546 0.386z" fill="#FFA630" stroke="#1DBE4D" stroke-linejoin="round" stroke-width=".77318"/>
<path d="m711.98 166.36 0.309 1.16 6.418 18.324 7.345-2.164-0.077-0.155h0.154l0.232 0.077 0.155-0.077-0.155-0.309-1.855-4.949-9.047-8.582 0.387-5.953h-1.856l-1.391 1.082-0.619 1.546z" fill="#25E85F" stroke="#1DBE4D" stroke-linejoin="round" stroke-width=".77318"/>
<path d="m699.53 183.44 0.387 0.309 0.154 0.078 0.155-0.078 0.155 0.078 0.541 0.309 0.155 0.232v0.541l0.154 0.309 1.005-1.855-1.082-0.619-1.315 0.077-0.309 0.619z" fill="#25E85F" stroke="#1DBE4D" stroke-linejoin="round" stroke-width=".77318"/>
<path d="m726.13 190.71 0.541-4.176-0.463 3.093-0.31 1.315-0.077 0.154 0.232-0.077 0.077-0.309zm0.387-7.191-0.155 0.077 0.155 0.464v0.928-1.469zm-58.453-4.794 1.779 8.119 3.556-5.026 1.779-0.386 3.402-2.397 2.319-0.542v-1.546l2.706-2.088 4.639 0.542 2.243 3.866 0.232 0.077 3.556 0.928 2.552 1.855 2.474 1.083 0.232 0.232 0.309-0.619 1.315-0.077 1.082 0.618-1.005 1.856v0.077l-1.469 4.485 4.794 3.093 4.793 0.232 3.17 1.469-1.314-3.712-4.098-1.391-1.005-3.17 2.551 3.402 2.088 0.309-1.856-1.856-1.469-5.489 0.387-3.17-1.624-3.48 1.701-1.391 1.237-4.485-0.464 6.649 1.315 2.243 1.237-2.629 0.696 4.33-1.315 3.17 3.789 1.391-3.247 1.083 1.701 3.17 2.783 0.928 1.546-2.706-0.154 3.788 2.629-0.077 1.701 1.933h0.077l0.541-0.696 1.546-0.696 1.006-0.387-0.078-0.154 2.011-5.954v-0.232l-0.387-1.546v-0.077l-7.345 2.165-6.418-18.325-0.309-1.16-1.314 0.387-5.49 1.701-30.231 8.428-5.49 1.469-1.392 0.386z" fill="#9BFFB8" stroke="#1DBE4D" stroke-linejoin="round" stroke-width=".77318"/>
<path d="m730.3 166.05-0.387-0.928v0.928h0.387zm0.773-2.861 0.232-2.32-0.464 2.011 0.232 0.309zm-3.17-23.737-8.119-2.01-1.391-0.387-1.315-0.309-3.247 7.191 1.392 1.701-0.078 5.18 1.469 0.232 3.016 7.886-0.155 0.232-3.788 5.567 0.386 4.253 9.124 3.092 0.077 3.557 2.088-2.938 0.309-4.252 2.165-1.469-0.851-3.171 1.624-3.788v-8.273l-0.541-2.706-3.634 0.077 0.928-3.711 0.541-5.954z" fill="#25E85F" stroke="#1DBE4D" stroke-linejoin="round" stroke-width=".77318"/>
<path d="m727.68 145.71-1.16 1.624-0.309 0.464 1.469-2.088zm10.67-3.789 3.865-3.401v-0.155l-3.865 3.556zm-10.129 2.397v-2.628l-0.232 1.391 0.232 1.237zm17.938-12.371-0.928-0.231-0.155 0.695 1.083-0.464zm2.087-1.391-0.077 0.773 0.154-0.464-0.077-0.309zm-2.165 0.077-5.18 4.794-7.964 3.402-2.087 1.778-0.155 1.701-2.165 1.778 0.309 2.32 3.325-1.314 4.871-3.944 5.412-2.86 8.196-7.732-5.799 4.407-1.855 0.773 3.092-5.103zm2.397-3.247 0.309-0.464-0.927 1.082 0.618-0.618zm-86.905-2.861-1.237-0.155 0.927 1.237 0.31-1.082zm25.669-23.659 0.155-0.851-0.619 0.773 0.464 0.078zm0.387-5.5672-0.309 0.1546-0.387 0.8505 0.696-1.0051zm-32.706 43.916 0.542 2.32 4.098 1.005 23.504-6.417 23.659-7.114 4.33 3.325 0.851 1.933 5.025 2.165 0.155 0.309 1.314 0.309 1.392 0.387 8.119 2.01-0.155-0.386 0.696 3.17 1.546-0.387 0.851-3.479v-0.077l-1.392-1.315 2.01-2.474-0.928-1.16-2.938-11.366-0.154-0.773-0.387-0.232-0.232-3.402-0.232-3.711-0.232-4.02v-0.232l-0.154 0.077-3.866-12.68-4.098-6.4174-1.16-7.6545-3.479-8.1184-0.464 0.232-16.16 5.4123-3.247 3.4793-3.634 6.9586 0.155 1.5463-4.794 7.2679 2.938 1.0051 0.851 5.49-3.402 4.484-10.206 6.186-1.933-0.774-7.577 1.083-7.036 4.252 0.386 2.242 2.474 2.165-1.391 6.804-5.567 6.495-0.078 0.077z" fill="#BBFFCF" stroke="#1DBE4D" stroke-linejoin="round" stroke-width=".77318"/>
<path d="m716.93 136.43-5.026-2.165-0.851-1.933-4.329-3.324-23.66 7.113-23.504 6.417-4.098-1.005-0.541-2.319-1.315 1.005-2.087 1.469-3.789 3.866-0.464 0.386 2.165 9.511 0.387 1.7 1.933 8.351 0.386 1.624 3.402 14.69 10.979-2.706 1.547-0.387 1.391-0.386 5.49-1.469 30.231-8.428 5.49-1.701 1.314-0.387 0.619-1.546 1.392-1.082h1.855l0.232-0.696 3.016-3.402 0.309-0.542 0.232-0.154-3.016-7.887-1.469-0.232 0.078-5.18-1.392-1.701 3.247-7.19-0.154-0.31z" fill="#25E85F" stroke="#1DBE4D" stroke-linejoin="round" stroke-width=".77318"/>
<path d="m754.2 95.222h-0.078l0.155 0.0774-0.077-0.0774zm5.721-16.469-0.618-0.9278v0.4639l0.618 0.4639zm-1.082-0.8505v-0.7732l-0.077-0.4639 0.077 1.2371zm2.783-3.2474-0.154-0.0773 0.077 0.232 0.077-0.1547zm7.732-3.8659-0.155-1.1597-0.309 0.5412 0.464 0.6185zm-1.933 0.4639 0.077-0.8505-0.927 0.1547 0.85 0.6958zm2.861-2.5514h-0.309v0.1546l0.309-0.1546zm-3.866 1.1597-0.696-0.1546-0.077 0.6958 0.773-0.5412zm3.943-2.3968 0.696 0.5412-0.232-0.6186-0.464 0.0774zm-2.087 0.0773-0.696 1.3144 0.928-0.4639-0.232-0.8505zm-3.325 0.0773-0.309 0.4639 0.232 0.6959 0.077-1.1598zm4.562-2.5515-0.078-0.6185-0.232 0.3865 0.31 0.232zm-0.387 0.3093-0.696-0.6186v0.5413l0.696 0.0773zm-4.33 1.7783-0.154-0.8505-0.31 0.6958 0.464 0.1547zm7.346-2.7061-1.16 1.7009-0.078-1.237 1.238-0.4639zm5.644-5.1803-0.541-0.7732-0.31 0.1546 0.851 0.6186zm2.087-3.4794-0.464-0.2319-0.077 0.2319h0.541zm1.005-6.0308h-0.695l0.773 0.232-0.078-0.232zm1.16 0.7732-0.232-1.3917-0.618-0.0773 0.85 1.469zm-1.237-1.2371-0.155-1.469-0.541 1.0051 0.696 0.4639zm-44.844 12.139 11.211 26.288 0.154 0.5412 4.871 5.9535v-0.0774l0.774-0.2319 0.154-4.4072 1.237-1.5463 0.774-4.0979-0.696-0.6958 1.314-4.0206 4.485-2.0876 2.938-3.5566 1.082-6.1854 4.716-0.3093-0.618-3.17 5.876-2.2422 0.387-3.4793 1.391 0.3092 3.866-3.17 1.701-4.0979-3.943-3.9432-4.175-0.8505-1.546-3.17v-1.8556l-2.552 0.7731-2.861-1.0051v-3.17l-7.731-16.701-5.645-2.9381-6.262 5.2576-1.701-0.3092-1.469-2.7062-2.011 0.7732-2.86 14.226 1.005 4.6391 0.85 9.4328-2.242 7.2679 1.546 1.1597-1.855 3.5567-2.011-0.3093-0.154 0.1546v1e-4z" fill="#BBFFCF" stroke="#1DBE4D" stroke-linejoin="round" stroke-width=".77318"/>
<path d="m573.5 111-0.387-0.618-0.077 0.773 0.464-0.155zm1.237-1.391-0.928-1.238-0.155 0.542 1.083 0.696zm0.773-5.567-0.773-0.696v0.154l0.773 0.542zm-1.933 60.54 9.588-1.547 2.706-0.541 11.829-2.088 0.232 1.006 0.773-0.232 5.103-1.083 4.872-1.16 4.948-1.237-0.077-0.232 2.551-5.025-0.232-4.176 2.861-7.19 2.242 1.314 0.851-1.623-0.232-6.186-2.088-3.866-3.093-8.195-2.706-3.016-1.392-0.386-5.025 3.479 0.541 0.696-2.629 4.948-2.551-0.464-0.774-5.18 1.083-0.387 2.242-5.18 0.232-9.123-3.479-7.732-7.732-1.3147-0.773-1.1598-7.191-2.0875-3.247 4.0205 0.309 3.4795-2.474 3.093 0.541 4.793-2.397 1.701v-6.031l-2.165 4.562-2.551 4.021-1.701 1.314 0.85 4.253-1.082 4.407 0.619 5.489-0.774 2.706 5.567 10.67 0.696 4.098-0.696 7.577-3.711 8.505-0.464 0.31zm16.546-69.664-2.01 0.1546 1.237 0.9279 0.773-1.0825zm-11.752 2.0103h-0.619l0.696 0.3092-0.077-0.3092zm13.53-9.8194-0.773-1.2371-0.309 0.0773 1.082 1.1598zm-70.05 5.6442 2.475 1.3917 12.68 3.8659 5.876 1.5464 5.721 0.3866 4.176 3.4022v5.257l3.711 3.712v-0.078l3.015-8.737 3.634-2.551 2.784-3.0928 0.464 2.7838 2.86-4.4075 6.882-2.6288 0.541-1.0825 6.958 0.8505 2.707 1.3917 1.314-3.402 1.237 0.7732 5.412-0.8505-1.314-2.1649-2.397-1.3917 0.464-5.0257-4.716 2.6288-4.33-0.5412-1.392-3.3246 0.464-1.0825-5.876 2.7834-3.789 0.232-6.804 4.1752-0.773 1.5463-4.175-1.0051-2.629 1.1598-5.257-4.5618-11.676-3.5566-0.231-1.3917-7.5 7.1905-4.253 1.0825-6.031 4.5617-0.232 0.1547zm27.371-17.551-9.046 4.4845 3.015 2.9381 1.16-2.9381 3.093-3.7886 1.778-0.6959zm-10.129-10.592-6.185 4.2525-0.309 2.0875 4.871-3.5566 1.623-2.7834z" fill="#7AFFA2" stroke="#1DBE4D" stroke-linejoin="round" stroke-width=".77318"/>
<path d="m80.679 433.41-0.3866 0.154 0.3093 0.078 0.0773-0.232zm2.8608 0.464v0.077-0.077zm-1.3918-1.315v0.232l0.1547-0.077-0.1547-0.155zm-0.6958-0.386v-0.078 0.078zm1.469 0.773v-0.155l-0.0773 0.078 0.0773 0.077zm-0.1546-0.155v-0.077h-0.1546l0.1546 0.077zm-60.308-50.798-0.0773 0.542 0.1546 1.546-0.0773-2.088zm-0.3866-2.087 0.0773 0.696 0.0773-0.232-0.1546-0.464zm60.695 51.957 0.0773-0.463-0.3092 0.154 0.2319 0.309zm8.8142 3.789-0.0773-0.077 0.1546 0.309-0.0773-0.232zm-5.7215-2.706-0.8505-0.773v1.855l0.8505-1.082zm1.933 1.701-0.0774-0.541-1.3144-0.078 1.3917 0.619h1e-4zm4.639 1.082-0.0773 0.155h0.1546l-0.0773-0.155zm0.3093 0.078h-0.1546l0.3092 0.077-0.1546-0.077zm0.9278 0.309h-0.1547 0.1547zm-68.272-52.422 0.3092 0.078 0.232-0.078h-0.5412zm66.571 51.339-0.6185-0.077 0.2319 0.232 0.3866-0.155zm-70.746-57.369-1.0824-0.464-0.0774 0.232 1.1598 0.232zm72.679 57.524-0.1547-0.077v0.077h0.1547zm4.7164 0.928-3.0154 0.232-0.6959 0.309 3.7113-0.541zm-82.885-70.591h-0.8505l0.1547 0.232 0.6958-0.232zm92.241 74.148v-0.31h-0.155l0.155 0.31zm4.02 0.077 0.155-0.155-0.155-0.154v0.309zm3.016 0.85 0.154-0.077h-0.077l-0.077 0.077zm-2.475-1.391-0.077-0.31h-0.155l0.232 0.31zm5.181 1.159-0.078 0.078h0.078v-0.078zm-101.52-78.787-1.1597 0.155 1.469 1.315-0.3093-1.47zm97.421 77.628 0.154-0.464h-0.077l-0.077 0.464zm13.067-1.16 0.077-0.155-0.155-0.077 0.078 0.232zm-1.933-0.696-2.707 2.397 1.933-0.155 2.243-1.778-1.469-0.464zm4.871 0.851-0.542-0.155 0.387 0.309 0.155-0.154zm1.082 0.077-0.85-0.232-0.155 0.077 1.005 0.155zm-2.938-1.083h-0.85l1.469 0.387-0.619-0.387zm3.557 0.774-0.078-0.155-0.309 0.077 0.387 0.078zm-2.32-0.928-0.309-0.155v0.851l0.309-0.696zm9.897 1.933-0.078-0.078h-0.154l0.232 0.078zm0.154-0.078v-0.077l-0.154-0.077 0.154 0.154zm-1.314-0.464 0.155 0.31v-0.078l-0.155-0.232zm0.696 0-0.696-0.231 0.851 0.618-0.155-0.387zm1.005-0.773v0.078-0.078zm9.201 1.16-0.155-0.309h-0.077l0.232 0.309zm83.194-5.18-0.155-0.155 0.078 0.155h0.077zm-93.709 2.397v-0.078l-0.078 0.078h0.078zm95.951-3.789 0.232 0.309h0.155l-0.387-0.309zm-84.508 5.799-0.078 0.077v0.232l0.078-0.309zm-9.588-1.392 0.155-0.618h-0.077l-0.078 0.618zm98.581-6.185-0.696 0.386 0.618 0.31 0.078-0.696zm-97.189 5.799-0.077-0.155 0.077 0.155zm-5.799-1.701-1.933 0.386-1.701 2.242 3.634-2.628zm13.84 2.938-0.464 0.386 0.464-0.077v-0.309zm89.148-7.423-0.155-0.309-0.077 0.155 0.232 0.154zm-96.57 5.412-0.542-0.077 0.542 0.541v-0.464zm91.467-4.407-0.155 0.155 0.155 0.541v-0.696zm-90.23 4.33-0.232 0.077 0.309 0.232-0.077-0.309zm5.721 1.624h-0.232l-0.154-0.155 0.386 0.155zm-6.34-1.624-0.387-0.232 0.155 0.232h0.232zm5.18 0.851-0.695 0.232-0.464 1.237 1.159-1.469zm83.968-5.413v0.542l0.309-0.387-0.309-0.155zm-93.091 2.938 0.618-0.154h-0.077l-0.541 0.154zm-0.773-0.463-0.155-0.155v0.077l0.155 0.078zm93.864-3.016-0.155-0.077-0.077 0.232 0.232-0.155zm-84.818 4.639-0.155-0.077-0.154 0.232 0.309-0.155zm84.044-4.484 0.078-0.387-0.155-0.077 0.078 0.464h-1e-3zm-0.618-0.387-0.232 0.309 0.387 0.078-0.155-0.387zm-80.179 3.789-0.154-0.155h-0.078l0.232 0.155zm79.947-5.181 0.619 0.232 0.231-0.309-0.85 0.077zm0.928-0.541-0.232 0.155 0.386 0.232-0.154-0.387zm-1.779 0.464-0.154-0.309-0.155 0.155 0.309 0.154zm7.732-2.861-1.005 2.861 1.005-0.618v-2.243zm-91.621 5.954h-0.078 0.078zm84.817-4.871-0.696 0.696 0.155 0.773 0.541-1.469zm-71.983 6.185v-0.309l-0.077 0.155 0.077 0.154zm71.133-6.958 2.242 3.402 5.026 3.17-1.16-2.706-4.794-4.098-1.314 0.232zm-74.225 5.721-0.078-0.232-0.154 0.078 0.232 0.154zm76.854-7.036-0.31 1.16 0.542-0.387-0.232-0.773zm1.623 0-0.077 0.773 0.696 0.232-0.619-1.005zm-76.003 6.031-0.387-0.077-0.386 0.154 0.773-0.077zm7.964 0.619-0.31 0.541 0.155-0.464 0.155-0.077zm1.159 0.077-0.696 0.077 0.387 0.464 0.309-0.541zm-46.854-9.897 0.773 0.387-0.155-0.155-0.618-0.232zm30.695 7.655 0.077-0.078-0.077 0.078zm0.232-0.078h0.077v-0.077l-0.077 0.077zm79.947-5.953 0.386 1.469 0.773-0.464-1.159-1.005zm-77.86 5.103 0.078-0.078-0.078 0.078zm74.535-4.485 0.386 3.557 0.774-0.773-1.16-2.784zm0.386-1.159 1.779 2.474-0.232-1.624-1.547-0.85zm-5.489 0.618-0.464 1.469 0.618-1.005-0.154-0.464zm-61.854 3.789-0.078-0.078 0.078 0.078zm7.345 0.154-0.155-0.232 0.155 0.31v-0.078zm54.663-5.103 3.093 5.103-0.464-3.479-2.629-1.624zm-50.333 2.707-0.232 0.231 0.386 0.155-0.154-0.386zm-1.006 0.154 0.078-0.232h-0.31l0.232 0.232zm-0.773 0-2.01 1.315-2.474 3.247 1.237 1.314 5.721-4.252-2.474-1.624zm48.788-5.025-0.541-0.31v0.464l0.541-0.154zm-49.252 4.097 0.078 0.31 0.541 0.309-0.619-0.619zm50.721-5.566-1.546 0.773 1.469 0.464 0.077-1.237zm-1.005 0-0.155-0.155-0.077 0.155h0.232zm4.716-1.238-0.618-0.232-0.155 0.464 0.773-0.232zm-3.325 0.542-0.541-0.078v0.155l0.541-0.077zm1.701-0.619 3.17 4.639-0.85-4.252-2.32-0.387zm-51.029 5.026-1.856 1.391 0.85 0.928 2.475-1.855-1.469-0.464zm-21.031-2.938-0.077-0.078v0.078h0.077zm-0.85-0.387-0.078-0.386v0.154l0.078 0.232zm23.736 1.005-0.154 0.078v0.077l0.154-0.155zm-0.773-0.154h-0.077l-0.155 0.232 0.232-0.232zm1.856-0.619-0.232-0.155v0.078l0.232 0.077zm0.618-0.077-0.232-0.155v0.077l0.232 0.078zm-1.005-0.232h-0.309v0.077l0.309-0.077zm15.386-1.547 0.078-0.232-0.155 0.155 0.077 0.077zm4.717-2.474 0.928-1.16-0.31 0.232-0.618 0.928zm-9.433-0.154 0.309-0.232 0.078-0.31-0.387 0.542zm0-0.851-0.309 0.232 0.541-0.155-0.232-0.077zm-12.68 0-0.078-0.309h-0.077l0.155 0.309zm12.371-0.077-0.31 0.309-0.154 0.309 0.464-0.618zm8.505-0.928h0.154-0.154zm0.386 0-0.154-0.077v0.077h0.154zm-0.928-0.077 0.078 0.077v-0.077h-0.078zm-6.34 0.463 0.31-0.309-0.387 0.309h0.077zm0.928-0.695-1.855 3.015 2.396-2.783-0.541-0.232zm-2.397 0.386-0.232-0.309-0.077 0.155 0.309 0.154zm5.877-0.696-0.155-0.077 0.077 0.077h0.078zm2.01 0.155v-0.541l-0.155 0.232 0.155 0.309zm-56.752-5.954-3.711-0.154 2.552 2.706 1.159-2.552zm52.809 5.49 0.154 0.541 0.387-0.618-0.541 0.077zm-3.093-0.077-0.232 1.701 0.386-1.083-0.154-0.618zm-67.112-12.835 0.077-0.309-0.077 0.309zm66.339 11.752 0.077 0.232 0.155-0.077-0.232-0.155zm-0.387 0.31-0.155-0.464-0.232 0.154 0.387 0.31zm3.634-0.928v-0.31l-0.232 0.155 0.232 0.155zm-3.479-0.464v0.773l0.232-0.541-0.232-0.232zm-5.876-0.928v-0.232 0.232zm-40.36-9.587 0.154-0.464-0.077 0.077-0.077 0.387zm0.232-0.774-0.078-0.077-0.077 0.077h0.155zm3.402-1.855v-0.078 0.078zm0-0.31-0.078-0.154 0.078 0.154zm1.391-2.01h-0.077 0.077zm0.464 0.155-0.309-0.155v0.078l0.309 0.077zm-0.464-0.309v-0.155l-0.154 0.155h0.154zm-12.371-3.634-0.154-0.387-0.078-0.232 0.232 0.619zm1.16-1.392h0.078l0.077 0.077-0.155-0.077zm-2.087-0.387-0.619-0.773 0.464 0.619 0.155 0.154zm-1.238-1.237h-0.154l0.232 0.078-0.078-0.078zm0-0.928 0.155 0.078-0.155-0.078zm20.49 6.109-0.851 0.077 0.464 0.232 0.387-0.309zm-21.34-7.5-0.619 2.319 1.933 0.309 2.552 2.629 1.546-0.696-5.412-4.561zm13.531 0.927v-0.154 0.155-1e-3zm-3.866-8.195-0.155-0.078 0.077 0.078h0.078zm2.242 0.773 0.232-0.077h-0.077l-0.155 0.077zm1.546-0.464h0.232l0.696-0.309-0.928 0.309zm2.784-0.85 0.154-0.155-0.232 0.155h0.078zm0.386-0.078 0.464-0.232-0.386 0.078-0.078 0.154zm1.16-0.464-0.386 0.078v0.077l0.386-0.155zm49.638-13.994-0.309-0.232-0.541-0.232 0.85 0.464zm-40.514-1.701 0.695-0.928-0.386 0.309-0.309 0.619zm0.927-1.083 0.31-0.464-0.155 0.155-0.155 0.309zm0.464-0.618 0.542-0.464-0.31 0.154-0.232 0.31zm24.356 0.154 0.386 0.387h0.232l-0.618-0.387zm-12.449-5.103-3.17 2.629-1.933-0.541-4.484 2.551-0.851-0.541-5.103 5.722-5.18 1.16 0.464 2.783 2.32 3.17 4.329 4.175-0.695 1.624 3.247 1.392-1.701 0.309-2.088-1.624 1.083 2.397-1.392 0.851-4.407-4.021-3.479 0.619-5.954 2.242 2.706 3.015-0.386 1.856 1.778 2.165 5.876 2.319 4.253-2.165 0.695 1.624-1.159 4.871h-3.557l-4.175 1.856-0.232-1.315-2.165 0.851-1.005 2.242-3.557 2.706v3.943l1.392 0.619-1.082 3.325 4.639 4.02 2.938-1.237-0.619 4.948 0.851 1.083 3.556 0.773 1.315 1.469 3.092 0.232 1.469 1.546 3.17-0.928-1.469 2.011-1.159 4.098-9.433 6.108-1.237 1.237-1.779-0.696-2.86 0.696-4.098 2.706 6.417-1.856 0.928 1.392 8.273-2.706 0.232 1.082 3.247-3.247 6.804-4.716 0.542 0.309 5.953-4.716-1.546-1.856 2.01-3.325 5.258-6.263 4.02-0.773 1.237 0.851-4.871 1.391-1.314 5.181 0.154 2.783 1.701-0.154 8.196-4.949 0.619-1.855-0.696-2.861 2.474 0.618 1.778-1.159 5.103 3.092-0.386 0.851 11.597 1.469 2.707-0.851 0.773 1.16 10.051 4.794 1.701-1.005 0.155-5.799 1.314 2.629 6.495 4.716 0.541 1.933 5.644 3.17 1.469 4.098 1.392-3.17 2.861 5.567 1.933-3.17-1.547-3.943-5.953-0.619-9.124-8.737-4.948-3.634-3.789 3.711h-2.242l-5.18-3.402-5.103-0.232-7.268-45.849-1.237-2.165-2.938-1.778-4.407 0.85-3.402-0.696-4.33-1.701-4.562 0.31-1.16-2.165-3.634-0.542-0.618-1.314-1.624 1.856-0.464-3.48z" fill="#5CF489" stroke="#1DBE4D" stroke-linejoin="round" stroke-width=".77318"/>
<g filter="url(#b)">
<mask id="a" fill="white">
<path d="m666 32c-3.314 0-6 2.6863-6 6v156.76c0 1.072-0.572 2.063-1.5 2.598l-7 4.042c-2 1.155-2 4.041 0 5.196l7 4.042c0.928 0.535 1.5 1.526 1.5 2.598v187.76c0 3.314 2.686 6 6 6h331c3.31 0 6-2.686 6-6v-363c0-3.3137-2.69-6-6-6h-331z" clip-rule="evenodd" fill-rule="evenodd"/>
</mask>
<path d="m666 32c-3.314 0-6 2.6863-6 6v156.76c0 1.072-0.572 2.063-1.5 2.598l-7 4.042c-2 1.155-2 4.041 0 5.196l7 4.042c0.928 0.535 1.5 1.526 1.5 2.598v187.76c0 3.314 2.686 6 6 6h331c3.31 0 6-2.686 6-6v-363c0-3.3137-2.69-6-6-6h-331z" clip-rule="evenodd" fill="#fff" fill-rule="evenodd"/>
<path d="m658.5 210.64 0.5-0.867-0.5 0.867zm-7-4.042 0.5-0.866-0.5 0.866zm7-9.238 0.5 0.867-0.5-0.867zm2.5-159.36c0-2.7614 2.239-5 5-5v-2c-3.866 0-7 3.134-7 7h2zm0 156.76v-156.76h-2v156.76h2zm-9 7.506 7-4.041-1-1.733-7 4.042 1 1.732zm7 7.505-7-4.041-1 1.732 7 4.042 1-1.733zm2 191.23v-187.76h-2v187.76h2zm5 5c-2.761 0-5-2.239-5-5h-2c0 3.866 3.134 7 7 7v-2zm331 0h-331v2h331v-2zm5-5c0 2.761-2.239 5-5 5v2c3.87 0 7-3.134 7-7h-2zm0-363v363h2v-363h-2zm-5-5c2.761 0 5 2.2386 5 5h2c0-3.866-3.13-7-7-7v2zm-331 0h331v-2h-331v2zm-8 178.51c0.619 0.357 1 1.017 1 1.732h2c0-1.429-0.762-2.75-2-3.465l-1 1.733zm-7-10.97c-2.667 1.54-2.667 5.388 0 6.928l1-1.732c-1.333-0.77-1.333-2.694 0-3.464l-1-1.732zm8-5.774c0 0.715-0.381 1.375-1 1.732l1 1.733c1.238-0.715 2-2.036 2-3.465h-2z" fill="#E6E6EA" mask="url(#a)"/>
</g>
<path d="m691.73 60.278h-4.844v-7.658h-1.904v9.38h6.748v-1.722zm4.785-5.432c-2.086 0-3.808 1.47-3.808 3.668s1.722 3.668 3.808 3.668c2.044 0 3.766-1.47 3.766-3.668s-1.722-3.668-3.766-3.668zm0 5.754c-1.008 0-2.016-0.784-2.016-2.086s1.008-2.086 2.016-2.086c0.966 0 1.974 0.784 1.974 2.086s-1.008 2.086-1.974 2.086zm8.338-0.084c-1.162 0-1.946-0.798-1.946-2.002 0-1.19 0.784-2.016 1.946-2.016 0.812 0 1.47 0.406 1.722 1.386l1.778-0.504c-0.462-1.568-1.876-2.576-3.5-2.576-2.044 0-3.738 1.512-3.738 3.71s1.694 3.696 3.738 3.696c1.666 0 3.108-1.022 3.5-2.618l-1.708-0.434c-0.322 0.966-0.98 1.358-1.792 1.358zm11.93-5.502h-1.848v0.56c-0.588-0.49-1.358-0.77-2.31-0.77-1.778 0-3.43 1.512-3.43 3.71s1.652 3.696 3.43 3.696c0.952 0 1.722-0.28 2.31-0.756v0.546h1.848v-6.986zm-3.836 5.586c-1.12 0-1.96-0.798-1.96-2.086s0.84-2.1 1.96-2.1c0.994 0 1.988 0.812 1.988 2.1s-0.994 2.086-1.988 2.086zm10.341-0.448c-0.364 0.196-0.84 0.336-1.162 0.336-0.616 0-1.022-0.364-1.022-1.204v-2.758h2.282v-1.512h-2.282v-2.114h-1.848v2.114h-1.498v1.512h1.498v2.898c0 1.918 1.092 2.786 2.744 2.786 0.588 0 1.092-0.126 1.82-0.518l-0.532-1.54zm2.542-8.33c-0.658 0-1.12 0.518-1.12 1.106 0 0.616 0.462 1.078 1.12 1.078 0.644 0 1.12-0.462 1.12-1.078 0-0.588-0.476-1.106-1.12-1.106zm0.924 10.178v-6.986h-1.848v6.986h1.848zm5.308-7.154c-2.086 0-3.808 1.47-3.808 3.668s1.722 3.668 3.808 3.668c2.044 0 3.766-1.47 3.766-3.668s-1.722-3.668-3.766-3.668zm0 5.754c-1.008 0-2.016-0.784-2.016-2.086s1.008-2.086 2.016-2.086c0.966 0 1.974 0.784 1.974 2.086s-1.008 2.086-1.974 2.086zm9.206-5.796c-0.924 0-1.652 0.294-2.198 0.84v-0.63h-1.848v6.986h1.848v-3.094c0-1.708 0.686-2.408 1.736-2.408 0.854 0 1.414 0.658 1.414 1.638v3.864h1.848v-4.256c0-1.736-1.12-2.94-2.8-2.94z" fill="#000003"/>
<path d="m688.94 77.49c-1.065 0-2.1 0.495-2.67 1.275-0.03-1.065 0.195-2.145 0.885-2.895 0.39-0.42 0.96-0.72 1.635-0.72 0.9 0 1.56 0.345 1.815 1.185l1.545-0.3c-0.405-1.485-1.68-2.295-3.3-2.295-1.125 0-2.055 0.435-2.73 1.125-1.005 1.02-1.365 2.49-1.365 4.32 0 3.18 1.56 5.025 4.05 5.025 2.145 0 3.6-1.44 3.6-3.405 0-1.92-1.32-3.315-3.465-3.315zm-0.18 5.28c-1.08 0-2.025-0.795-2.025-1.95 0-1.14 0.885-1.995 2.025-1.995 1.125 0 2.04 0.81 2.04 1.965 0 1.14-0.9 1.98-2.04 1.98zm10.835-3.87c0.81-0.345 1.305-1.11 1.305-2.13 0-1.8-1.35-3.03-3.345-3.03-2.025 0-3.39 1.305-3.54 3.195l1.485 0.3c0.09-1.38 0.9-2.085 2.055-2.085 1.125 0 1.86 0.645 1.86 1.62 0 0.885-0.675 1.425-1.785 1.425h-1.335v1.395h1.425c1.185 0 1.875 0.57 1.875 1.5 0 1.02-0.84 1.71-2.025 1.71-1.29 0-2.04-0.81-2.175-2.115l-1.515 0.3c0.15 1.92 1.59 3.225 3.69 3.225 2.085 0 3.495-1.26 3.495-3.135 0-1.065-0.555-1.845-1.47-2.175z" fill="#2B2B59"/>
<path d="m693.3 137-3.15-3.486c1.638-0.238 2.688-1.358 2.688-2.926 0-1.778-1.344-2.968-3.36-2.968h-4.494v9.38h1.904v-3.444h0.994l3.094 3.444h2.324zm-6.412-5.166v-2.492h2.59c0.882 0 1.47 0.504 1.47 1.246s-0.588 1.246-1.47 1.246h-2.59zm13.85 1.54c-0.07-2.128-1.68-3.57-3.542-3.57-2.002 0-3.612 1.512-3.612 3.71s1.61 3.696 3.584 3.696c1.526 0 2.772-0.7 3.388-2.156l-1.652-0.35c-0.504 0.854-1.19 0.924-1.736 0.924-0.854 0-1.568-0.616-1.75-1.624h5.32v-0.63zm-3.542-1.96c0.742 0 1.414 0.392 1.652 1.288h-3.374c0.224-0.868 1.022-1.288 1.722-1.288zm11.685-1.414h-1.988l-1.904 4.746-1.904-4.746h-1.988l2.912 7h1.96l2.912-7zm2.145-3.178c-0.658 0-1.12 0.518-1.12 1.106 0 0.616 0.462 1.078 1.12 1.078 0.644 0 1.12-0.462 1.12-1.078 0-0.588-0.476-1.106-1.12-1.106zm0.924 10.178v-6.986h-1.848v6.986h1.848zm8.653-3.626c-0.07-2.128-1.68-3.57-3.542-3.57-2.002 0-3.612 1.512-3.612 3.71s1.61 3.696 3.584 3.696c1.526 0 2.772-0.7 3.388-2.156l-1.652-0.35c-0.504 0.854-1.19 0.924-1.736 0.924-0.854 0-1.568-0.616-1.75-1.624h5.32v-0.63zm-3.542-1.96c0.742 0 1.414 0.392 1.652 1.288h-3.374c0.224-0.868 1.022-1.288 1.722-1.288zm14.776-1.4h-1.834l-1.386 4.312-1.428-4.312h-1.442l-1.428 4.298-1.386-4.298h-1.834l2.324 7h1.666l1.386-4.116 1.372 4.116h1.666l2.324-7zm7.704 5.502c-1.162 0-1.946-0.798-1.946-2.002 0-1.19 0.784-2.016 1.946-2.016 0.812 0 1.47 0.406 1.722 1.386l1.778-0.504c-0.462-1.568-1.876-2.576-3.5-2.576-2.044 0-3.738 1.512-3.738 3.71s1.694 3.696 3.738 3.696c1.666 0 3.108-1.022 3.5-2.618l-1.708-0.434c-0.322 0.966-0.98 1.358-1.792 1.358zm8.15-5.67c-2.086 0-3.808 1.47-3.808 3.668s1.722 3.668 3.808 3.668c2.044 0 3.766-1.47 3.766-3.668s-1.722-3.668-3.766-3.668zm0 5.754c-1.008 0-2.016-0.784-2.016-2.086s1.008-2.086 2.016-2.086c0.966 0 1.974 0.784 1.974 2.086s-1.008 2.086-1.974 2.086zm11.824-5.586h-1.848v3.094c0 1.708-0.686 2.408-1.736 2.408-0.854 0-1.414-0.658-1.414-1.638v-3.864h-1.848v4.256c0 1.736 1.12 2.94 2.8 2.94 0.924 0 1.652-0.294 2.198-0.84v0.63h1.848v-6.986zm6.009-0.21c-0.924 0-1.652 0.294-2.198 0.84v-0.63h-1.848v6.986h1.848v-3.094c0-1.708 0.686-2.408 1.736-2.408 0.854 0 1.414 0.658 1.414 1.638v3.864h1.848v-4.256c0-1.736-1.12-2.94-2.8-2.94zm9.131 5.348c-0.364 0.196-0.84 0.336-1.162 0.336-0.616 0-1.022-0.364-1.022-1.204v-2.758h2.282v-1.512h-2.282v-2.114h-1.848v2.114h-1.498v1.512h1.498v2.898c0 1.918 1.092 2.786 2.744 2.786 0.588 0 1.092-0.126 1.82-0.518l-0.532-1.54z" fill="#000003"/>
<path d="m688.22 148.95h-0.99l-3.15 1.83v1.455l2.58-1.38v8.145h1.56v-10.05zm8.509 8.595h-4.335l1.98-1.89c1.515-1.44 2.265-2.37 2.265-3.81 0-1.845-1.365-3.105-3.36-3.105-2.01 0-3.39 1.245-3.465 3.21l1.47 0.3c0.075-1.395 0.81-2.115 1.98-2.115 1.08 0 1.83 0.705 1.83 1.74 0 1.2-0.795 1.905-1.68 2.73l-3.48 3.36v1.035h6.795v-1.455zm6.939-3.645c0.81-0.345 1.305-1.11 1.305-2.13 0-1.8-1.35-3.03-3.345-3.03-2.025 0-3.39 1.305-3.54 3.195l1.485 0.3c0.09-1.38 0.9-2.085 2.055-2.085 1.125 0 1.86 0.645 1.86 1.62 0 0.885-0.675 1.425-1.785 1.425h-1.335v1.395h1.425c1.185 0 1.875 0.57 1.875 1.5 0 1.02-0.84 1.71-2.025 1.71-1.29 0-2.04-0.81-2.175-2.115l-1.515 0.3c0.15 1.92 1.59 3.225 3.69 3.225 2.085 0 3.495-1.26 3.495-3.135 0-1.065-0.555-1.845-1.47-2.175zm3.353 7.08 1.575-3.945v-0.045h-1.815l-0.945 3.99h1.185zm6.896-12.24c-2.535 0-4.245 2.115-4.245 5.235s1.71 5.235 4.245 5.235 4.245-2.115 4.245-5.235-1.71-5.235-4.245-5.235zm0 8.985c-1.59 0-2.61-1.53-2.61-3.75s1.02-3.75 2.61-3.75 2.61 1.53 2.61 3.75-1.02 3.75-2.61 3.75zm11.025-3.84c1.155-0.435 1.71-1.365 1.71-2.43 0-1.62-1.365-2.715-3.435-2.715-2.085 0-3.465 1.095-3.465 2.715 0 1.095 0.57 2.01 1.725 2.43-1.335 0.42-2.025 1.38-2.025 2.43 0 1.71 1.515 2.895 3.765 2.895 2.235 0 3.735-1.185 3.735-2.895 0-1.035-0.675-2.01-2.01-2.43zm-1.74-3.84c1.02 0 1.875 0.555 1.875 1.515s-0.825 1.545-1.89 1.545c-1.05 0-1.83-0.555-1.83-1.515 0-0.99 0.81-1.545 1.845-1.545zm-0.015 7.8c-1.095 0-1.95-0.57-1.95-1.605s0.84-1.635 1.965-1.635 1.995 0.6 1.995 1.605c0 1.05-0.915 1.635-2.01 1.635zm10.627-3.945c0.81-0.345 1.305-1.11 1.305-2.13 0-1.8-1.35-3.03-3.345-3.03-2.025 0-3.39 1.305-3.54 3.195l1.485 0.3c0.09-1.38 0.9-2.085 2.055-2.085 1.125 0 1.86 0.645 1.86 1.62 0 0.885-0.675 1.425-1.785 1.425h-1.335v1.395h1.425c1.185 0 1.875 0.57 1.875 1.5 0 1.02-0.84 1.71-2.025 1.71-1.29 0-2.04-0.81-2.175-2.115l-1.515 0.3c0.15 1.92 1.59 3.225 3.69 3.225 2.085 0 3.495-1.26 3.495-3.135 0-1.065-0.555-1.845-1.47-2.175z" fill="#2B2B59"/>
<path d="m693.9 212-4.06-9.38h-1.778l-4.06 9.38h2.058l0.826-2.002h4.144l0.812 2.002h2.058zm-3.584-3.724h-2.73l1.372-3.346 1.358 3.346zm10.811-3.276h-1.988l-1.904 4.746-1.904-4.746h-1.988l2.912 7h1.96l2.912-7zm7.512 3.374c-0.07-2.128-1.68-3.57-3.542-3.57-2.002 0-3.612 1.512-3.612 3.71s1.61 3.696 3.584 3.696c1.526 0 2.772-0.7 3.387-2.156l-1.651-0.35c-0.504 0.854-1.19 0.924-1.736 0.924-0.854 0-1.568-0.616-1.75-1.624h5.32v-0.63zm-3.542-1.96c0.742 0 1.414 0.392 1.652 1.288h-3.374c0.224-0.868 1.022-1.288 1.722-1.288zm9.3-1.498c-1.134 0-1.946 0.56-2.506 1.372v-1.274h-1.848v6.986h1.848v-2.254c0-1.946 0.784-2.996 2.492-2.996h0.406l0.098-1.778c-0.168-0.056-0.308-0.056-0.49-0.056zm8.607 0.098h-1.848v0.56c-0.588-0.49-1.358-0.77-2.31-0.77-1.778 0-3.43 1.512-3.43 3.71s1.652 3.696 3.43 3.696c0.952 0 1.722-0.28 2.31-0.756v0.546h1.848v-6.986zm-3.836 5.586c-1.12 0-1.96-0.798-1.96-2.086s0.84-2.1 1.96-2.1c0.994 0 1.988 0.812 1.988 2.1s-0.994 2.086-1.988 2.086zm12.595-5.586h-1.778v0.434c-0.518-0.406-1.232-0.644-2.198-0.644-1.75 0-3.388 1.47-3.388 3.374 0 1.918 1.638 3.402 3.388 3.402 0.966 0 1.68-0.224 2.198-0.644v0.112c0 1.218-0.77 1.946-1.946 1.946-0.91 0-1.358-0.322-1.904-1.008l-1.498 1.134c0.602 0.966 1.778 1.54 3.402 1.54 2.254 0 3.738-1.19 3.738-3.332l-0.014-6.314zm-3.654 4.984c-1.106 0-1.932-0.728-1.932-1.82s0.826-1.82 1.932-1.82c0.98 0 1.876 0.728 1.876 1.82s-0.896 1.82-1.876 1.82zm12.221-1.624c-0.07-2.128-1.68-3.57-3.542-3.57-2.002 0-3.612 1.512-3.612 3.71s1.61 3.696 3.584 3.696c1.526 0 2.772-0.7 3.388-2.156l-1.652-0.35c-0.504 0.854-1.19 0.924-1.736 0.924-0.854 0-1.568-0.616-1.75-1.624h5.32v-0.63zm-3.542-1.96c0.742 0 1.414 0.392 1.652 1.288h-3.374c0.224-0.868 1.022-1.288 1.722-1.288zm12.704-1.498c-1.134 0-1.946 0.56-2.506 1.372v-1.274h-1.848v6.986h1.848v-2.254c0-1.946 0.784-2.996 2.492-2.996h0.406l0.098-1.778c-0.168-0.056-0.308-0.056-0.49-0.056zm8.608 0.098h-1.848v0.56c-0.588-0.49-1.358-0.77-2.31-0.77-1.778 0-3.43 1.512-3.43 3.71s1.652 3.696 3.43 3.696c0.952 0 1.722-0.28 2.31-0.756v0.546h1.848v-6.986zm-3.836 5.586c-1.12 0-1.96-0.798-1.96-2.086s0.84-2.1 1.96-2.1c0.994 0 1.988 0.812 1.988 2.1s-0.994 2.086-1.988 2.086zm10.34-0.448c-0.364 0.196-0.84 0.336-1.162 0.336-0.616 0-1.022-0.364-1.022-1.204v-2.758h2.282v-1.512h-2.282v-2.114h-1.848v2.114h-1.498v1.512h1.498v2.898c0 1.918 1.092 2.786 2.744 2.786 0.588 0 1.092-0.126 1.82-0.518l-0.532-1.54zm2.543-8.33c-0.658 0-1.12 0.518-1.12 1.106 0 0.616 0.462 1.078 1.12 1.078 0.644 0 1.12-0.462 1.12-1.078 0-0.588-0.476-1.106-1.12-1.106zm0.924 10.178v-6.986h-1.848v6.986h1.848zm6.105-7.196c-0.924 0-1.652 0.294-2.198 0.84v-0.63h-1.848v6.986h1.848v-3.094c0-1.708 0.686-2.408 1.736-2.408 0.854 0 1.414 0.658 1.414 1.638v3.864h1.848v-4.256c0-1.736-1.12-2.94-2.8-2.94zm11.385 0.21h-1.778v0.434c-0.518-0.406-1.232-0.644-2.198-0.644-1.75 0-3.388 1.47-3.388 3.374 0 1.918 1.638 3.402 3.388 3.402 0.966 0 1.68-0.224 2.198-0.644v0.112c0 1.218-0.77 1.946-1.946 1.946-0.91 0-1.358-0.322-1.904-1.008l-1.498 1.134c0.602 0.966 1.778 1.54 3.402 1.54 2.254 0 3.738-1.19 3.738-3.332l-0.014-6.314zm-3.654 4.984c-1.106 0-1.932-0.728-1.932-1.82s0.826-1.82 1.932-1.82c0.98 0 1.876 0.728 1.876 1.82s-0.896 1.82-1.876 1.82z" fill="#000003"/>
<path d="m692.85 231.78v-1.32h-1.41v-6.51h-2.1l-4.92 6.33v1.5h5.445v2.22h1.575v-2.22h1.41zm-2.985-1.32h-3.675l3.675-4.89v4.89zm5.072 1.695c-0.57 0-0.99 0.435-0.99 0.945 0 0.54 0.42 0.96 0.99 0.96s0.975-0.42 0.975-0.96c0-0.51-0.405-0.945-0.975-0.945zm8.773-8.205h-6.915v1.455h5.16l-3.705 8.595h1.77l3.69-8.91v-1.14z" fill="#2B2B59"/>
<path d="m693.3 287-3.15-3.486c1.638-0.238 2.688-1.358 2.688-2.926 0-1.778-1.344-2.968-3.36-2.968h-4.494v9.38h1.904v-3.444h0.994l3.094 3.444h2.324zm-6.412-5.166v-2.492h2.59c0.882 0 1.47 0.504 1.47 1.246s-0.588 1.246-1.47 1.246h-2.59zm13.85 1.54c-0.07-2.128-1.68-3.57-3.542-3.57-2.002 0-3.612 1.512-3.612 3.71s1.61 3.696 3.584 3.696c1.526 0 2.772-0.7 3.388-2.156l-1.652-0.35c-0.504 0.854-1.19 0.924-1.736 0.924-0.854 0-1.568-0.616-1.75-1.624h5.32v-0.63zm-3.542-1.96c0.742 0 1.414 0.392 1.652 1.288h-3.374c0.224-0.868 1.022-1.288 1.722-1.288zm4.358 3.738c0.182 1.456 1.596 2.058 3.136 2.058 1.82 0 3.066-0.798 3.066-2.338 0-0.938-0.602-1.708-1.834-1.974l-1.666-0.364c-0.546-0.126-0.63-0.364-0.63-0.588 0-0.322 0.21-0.686 0.952-0.686 0.77 0 1.26 0.406 1.33 0.966l1.764-0.35c-0.238-1.218-1.386-2.072-3.038-2.072-1.764 0-2.856 0.966-2.856 2.31 0 1.008 0.714 1.722 1.974 1.988l1.428 0.294c0.602 0.126 0.77 0.378 0.77 0.63 0 0.392-0.406 0.7-1.092 0.7-0.728 0-1.344-0.238-1.442-0.952l-1.862 0.378zm11.787-5.348c-0.952 0-1.722 0.28-2.31 0.77v-0.56h-1.848v9.366h1.848v-2.926c0.588 0.476 1.358 0.756 2.31 0.756 1.778 0 3.43-1.498 3.43-3.696s-1.652-3.71-3.43-3.71zm-0.322 5.796c-0.994 0-1.988-0.798-1.988-2.086s0.994-2.1 1.988-2.1c1.12 0 1.96 0.812 1.96 2.1s-0.84 2.086-1.96 2.086zm8.395-5.754c-2.086 0-3.808 1.47-3.808 3.668s1.722 3.668 3.808 3.668c2.044 0 3.766-1.47 3.766-3.668s-1.722-3.668-3.766-3.668zm0 5.754c-1.008 0-2.016-0.784-2.016-2.086s1.008-2.086 2.016-2.086c0.966 0 1.974 0.784 1.974 2.086s-1.008 2.086-1.974 2.086zm9.206-5.796c-0.924 0-1.652 0.294-2.198 0.84v-0.63h-1.848v6.986h1.848v-3.094c0-1.708 0.686-2.408 1.736-2.408 0.854 0 1.414 0.658 1.414 1.638v3.864h1.848v-4.256c0-1.736-1.12-2.94-2.8-2.94zm3.993 5.348c0.182 1.456 1.596 2.058 3.136 2.058 1.82 0 3.066-0.798 3.066-2.338 0-0.938-0.602-1.708-1.834-1.974l-1.666-0.364c-0.546-0.126-0.63-0.364-0.63-0.588 0-0.322 0.21-0.686 0.952-0.686 0.77 0 1.26 0.406 1.33 0.966l1.764-0.35c-0.238-1.218-1.386-2.072-3.038-2.072-1.764 0-2.856 0.966-2.856 2.31 0 1.008 0.714 1.722 1.974 1.988l1.428 0.294c0.602 0.126 0.77 0.378 0.77 0.63 0 0.392-0.406 0.7-1.092 0.7-0.728 0-1.344-0.238-1.442-0.952l-1.862 0.378zm14.223-1.778c-0.07-2.128-1.68-3.57-3.542-3.57-2.002 0-3.612 1.512-3.612 3.71s1.61 3.696 3.584 3.696c1.526 0 2.772-0.7 3.388-2.156l-1.652-0.35c-0.504 0.854-1.19 0.924-1.736 0.924-0.854 0-1.568-0.616-1.75-1.624h5.32v-0.63zm-3.542-1.96c0.742 0 1.414 0.392 1.652 1.288h-3.374c0.224-0.868 1.022-1.288 1.722-1.288zm12.704-1.498c-1.134 0-1.946 0.56-2.506 1.372v-1.274h-1.848v6.986h1.848v-2.254c0-1.946 0.784-2.996 2.492-2.996h0.406l0.098-1.778c-0.168-0.056-0.308-0.056-0.49-0.056zm8.608 0.098h-1.848v0.56c-0.588-0.49-1.358-0.77-2.31-0.77-1.778 0-3.43 1.512-3.43 3.71s1.652 3.696 3.43 3.696c0.952 0 1.722-0.28 2.31-0.756v0.546h1.848v-6.986zm-3.836 5.586c-1.12 0-1.96-0.798-1.96-2.086s0.84-2.1 1.96-2.1c0.994 0 1.988 0.812 1.988 2.1s-0.994 2.086-1.988 2.086zm10.34-0.448c-0.364 0.196-0.84 0.336-1.162 0.336-0.616 0-1.022-0.364-1.022-1.204v-2.758h2.282v-1.512h-2.282v-2.114h-1.848v2.114h-1.498v1.512h1.498v2.898c0 1.918 1.092 2.786 2.744 2.786 0.588 0 1.092-0.126 1.82-0.518l-0.532-1.54zm7.978-1.778c-0.07-2.128-1.68-3.57-3.542-3.57-2.002 0-3.612 1.512-3.612 3.71s1.61 3.696 3.584 3.696c1.526 0 2.772-0.7 3.388-2.156l-1.652-0.35c-0.504 0.854-1.19 0.924-1.736 0.924-0.854 0-1.568-0.616-1.75-1.624h5.32v-0.63zm-3.542-1.96c0.742 0 1.414 0.392 1.652 1.288h-3.374c0.224-0.868 1.022-1.288 1.722-1.288z" fill="#000003"/>
<path d="m690.44 303.9c0.81-0.345 1.305-1.11 1.305-2.13 0-1.8-1.35-3.03-3.345-3.03-2.025 0-3.39 1.305-3.54 3.195l1.485 0.3c0.09-1.38 0.9-2.085 2.055-2.085 1.125 0 1.86 0.645 1.86 1.62 0 0.885-0.675 1.425-1.785 1.425h-1.335v1.395h1.425c1.185 0 1.875 0.57 1.875 1.5 0 1.02-0.84 1.71-2.025 1.71-1.29 0-2.04-0.81-2.175-2.115l-1.515 0.3c0.15 1.92 1.59 3.225 3.69 3.225 2.085 0 3.495-1.26 3.495-3.135 0-1.065-0.555-1.845-1.47-2.175zm11.204 2.88v-1.32h-1.41v-6.51h-2.1l-4.92 6.33v1.5h5.445v2.22h1.575v-2.22h1.41zm-2.985-1.32h-3.675l3.675-4.89v4.89zm6.309-6.72c-1.335 0-2.49 0.93-2.49 2.415 0 1.44 1.155 2.4 2.49 2.4s2.49-0.96 2.49-2.4c0-1.485-1.155-2.415-2.49-2.415zm-1.185 10.26h1.065l7.44-10.05h-1.065l-7.44 10.05zm1.185-9.18c0.66 0 1.305 0.495 1.305 1.32 0 0.84-0.645 1.335-1.305 1.335s-1.305-0.495-1.305-1.335c0-0.825 0.645-1.32 1.305-1.32zm6.27 4.575c-1.335 0-2.49 0.93-2.49 2.4 0 1.455 1.155 2.415 2.49 2.415s2.49-0.96 2.49-2.415c0-1.47-1.155-2.4-2.49-2.4zm0 1.065c0.66 0 1.305 0.51 1.305 1.335s-0.645 1.32-1.305 1.32-1.305-0.495-1.305-1.32 0.645-1.335 1.305-1.335z" fill="#2B2B59"/>
<rect x="684" y="106" width="295" height="1" fill="#E6E6EA"/>
<rect x="684" y="181" width="295" height="1" fill="#E6E6EA"/>
<rect x="684" y="256" width="295" height="1" fill="#E6E6EA"/>
<rect x="684" y="331" width="295" height="1" fill="#E6E6EA"/>
<path d="m688.42 352.41c-2.198 0-3.57 1.176-3.57 2.856 0 1.834 1.344 2.45 2.464 2.688l1.988 0.378c0.84 0.168 1.092 0.49 1.092 1.022 0 0.672-0.574 1.19-1.666 1.19-1.064 0-1.848-0.462-2.1-1.526l-2.002 0.406c0.238 1.876 1.96 2.786 3.92 2.786 2.226 0 3.724-1.134 3.724-2.954 0-1.456-0.938-2.366-2.464-2.688l-2.016-0.406c-0.728-0.14-0.938-0.476-0.938-0.952 0-0.63 0.574-1.162 1.526-1.162 0.938 0 1.708 0.574 1.848 1.456l1.904-0.392c-0.364-1.666-1.806-2.702-3.71-2.702zm12.119 5.964c-0.07-2.128-1.68-3.57-3.542-3.57-2.002 0-3.612 1.512-3.612 3.71s1.61 3.696 3.584 3.696c1.526 0 2.772-0.7 3.388-2.156l-1.652-0.35c-0.504 0.854-1.19 0.924-1.736 0.924-0.854 0-1.568-0.616-1.75-1.624h5.32v-0.63zm-3.542-1.96c0.742 0 1.414 0.392 1.652 1.288h-3.374c0.224-0.868 1.022-1.288 1.722-1.288zm8.992-1.61c-0.924 0-1.652 0.294-2.198 0.84v-0.63h-1.848v6.986h1.848v-3.094c0-1.708 0.686-2.408 1.736-2.408 0.854 0 1.414 0.658 1.414 1.638v3.864h1.848v-4.256c0-1.736-1.12-2.94-2.8-2.94zm9.131 5.348c-0.364 0.196-0.84 0.336-1.162 0.336-0.616 0-1.022-0.364-1.022-1.204v-2.758h2.282v-1.512h-2.282v-2.114h-1.848v2.114h-1.498v1.512h1.498v2.898c0 1.918 1.092 2.786 2.744 2.786 0.588 0 1.092-0.126 1.82-0.518l-0.532-1.54zm2.542-8.33c-0.658 0-1.12 0.518-1.12 1.106 0 0.616 0.462 1.078 1.12 1.078 0.644 0 1.12-0.462 1.12-1.078 0-0.588-0.476-1.106-1.12-1.106zm0.924 10.178v-6.986h-1.848v6.986h1.848zm10.838-7.196c-1.12 0-1.974 0.434-2.548 1.148-0.504-0.742-1.358-1.148-2.296-1.148-0.91 0-1.596 0.294-2.086 0.784v-0.574h-1.848v6.986h1.848v-3.36c0-1.47 0.616-2.142 1.596-2.142 0.77 0 1.372 0.574 1.372 1.512v3.99h1.848v-3.36c0-1.47 0.644-2.142 1.624-2.142 0.77 0 1.372 0.574 1.372 1.512v3.99h1.834v-4.368c0-1.708-1.26-2.828-2.716-2.828zm11.105 3.57c-0.07-2.128-1.68-3.57-3.542-3.57-2.002 0-3.612 1.512-3.612 3.71s1.61 3.696 3.584 3.696c1.526 0 2.772-0.7 3.388-2.156l-1.652-0.35c-0.504 0.854-1.19 0.924-1.736 0.924-0.854 0-1.568-0.616-1.75-1.624h5.32v-0.63zm-3.542-1.96c0.742 0 1.414 0.392 1.652 1.288h-3.374c0.224-0.868 1.022-1.288 1.722-1.288zm8.992-1.61c-0.924 0-1.652 0.294-2.198 0.84v-0.63h-1.848v6.986h1.848v-3.094c0-1.708 0.686-2.408 1.736-2.408 0.854 0 1.414 0.658 1.414 1.638v3.864h1.848v-4.256c0-1.736-1.12-2.94-2.8-2.94zm9.131 5.348c-0.364 0.196-0.84 0.336-1.162 0.336-0.616 0-1.022-0.364-1.022-1.204v-2.758h2.282v-1.512h-2.282v-2.114h-1.848v2.114h-1.498v1.512h1.498v2.898c0 1.918 1.092 2.786 2.744 2.786 0.588 0 1.092-0.126 1.82-0.518l-0.532-1.54z" fill="#000003"/>
<rect x="684" y="379" width="295" height="9" rx="4.5" fill="#FFA630"/>
<path d="m684 383.5c0-2.485 2.015-4.5 4.5-4.5h93.833v9h-93.833c-2.485 0-4.5-2.015-4.5-4.5z" fill="#03CEA4"/>
<path d="m880.67 379h93.833c2.486 0 4.5 2.015 4.5 4.5s-2.014 4.5-4.5 4.5h-93.833v-9z" fill="#E71D36"/>
<defs>
<filter id="b" x="648" y="30" width="361" height="383" color-interpolation-filters="sRGB" filterUnits="userSpaceOnUse">
<feFlood flood-opacity="0" result="BackgroundImageFix"/>
<feColorMatrix in="SourceAlpha" result="hardAlpha" values="0 0 0 0 0 0 0 0 0 0 0 0 0 0 0 0 0 0 127 0"/>
<feOffset dx="2" dy="2"/>
<feGaussianBlur stdDeviation="2"/>
<feComposite in2="hardAlpha" operator="out"/>
<feColorMatrix values="0 0 0 0 0 0 0 0 0 0 0 0 0 0 0 0 0 0 0.04 0"/>
<feBlend in2="BackgroundImageFix" result="effect1_dropShadow_1201_2659"/>
<feBlend in="SourceGraphic" in2="effect1_dropShadow_1201_2659" result="shape"/>
</filter>
</defs>
</svg>
