<?xml version="1.0" encoding="UTF-8"?>
<svg fill="none" viewBox="0 0 355 378" xmlns="http://www.w3.org/2000/svg">
<g filter="url(#b)">
<rect x="1.5986" y="2" width="168.49" height="371" rx="2.3647" fill="#fff"/>
<rect x="1.9928" y="2.3941" width="167.7" height="370.21" rx="1.9706" stroke="#E6E6EA" stroke-width=".78824"/>
</g>
<path d="m51.322 27.27v-1.8161h-7.5419v1.8161h2.7368v6.6338h2.0683v-6.6338h2.7368zm3.0598 0.1387c-1.917 0-3.5061 1.3369-3.5061 3.3295 0 2.0053 1.5891 3.3422 3.5061 3.3422 1.8792 0 3.4683-1.3369 3.4683-3.3422 0-1.9926-1.5891-3.3295-3.4683-3.3295zm0 4.9691c-0.8197 0-1.5638-0.6432-1.5638-1.6396 0-0.9837 0.7441-1.6395 1.5638-1.6395 0.782 0 1.5261 0.6558 1.5261 1.6395 0 0.9964-0.7441 1.6396-1.5261 1.6396zm8.7342-0.3406c-0.2649 0.1514-0.6432 0.2523-0.9207 0.2523-0.5297 0-0.845-0.2649-0.845-0.9207v-2.1944h1.8666v-1.6017h-1.8666v-1.8666h-2.0178v1.8666h-1.1477v1.6017h1.1477v2.3962c0 1.6648 0.9458 2.5224 2.5223 2.5224 0.7189 0 1.236-0.2018 1.7278-0.4667l-0.4666-1.5891zm7.767-4.4645h-2.0179v0.5044c-0.4919-0.4414-1.1477-0.6936-1.9674-0.6936-1.6774 0-3.0899 1.3621-3.0899 3.3547 0 2.0053 1.4125 3.3548 3.0899 3.3548 0.8197 0 1.4755-0.2523 1.9674-0.6937v0.5045h2.0179v-6.3311zm-3.5691 4.8051c-0.8829 0-1.5261-0.6558-1.5261-1.6396 0-0.9711 0.6432-1.6395 1.5261-1.6395 0.8197 0 1.5512 0.6684 1.5512 1.6395 0 0.9838-0.7315 1.6396-1.5512 1.6396zm7.0443 1.526v-9.0805h-2.0178v9.0805h2.0178zm12.143 0-2.6485-3.0016c1.3621-0.3027 2.2197-1.299 2.2197-2.6863 0-1.6522-1.2108-2.762-3.0395-2.762h-4.2754v8.4499h2.081v-2.9007h0.6053l2.5476 2.9007h2.5098zm-5.6627-4.6412v-2.0305h1.9674c0.7441 0 1.2233 0.4036 1.2233 1.009 0 0.618-0.4792 1.0215-1.2233 1.0215h-1.9674zm12.388 1.4756c-0.0378-2.0683-1.4756-3.3547-3.2665-3.3547-1.8413 0-3.3547 1.3621-3.3547 3.3547 0 2.0053 1.5134 3.3548 3.3421 3.3548 1.4504 0 2.5981-0.6432 3.1404-1.9801l-1.7909-0.3657c-0.3405 0.618-0.8828 0.7315-1.3495 0.7315-0.681 0-1.1981-0.4667-1.362-1.2234h4.6411v-0.5171zm-3.2665-1.7152c0.5802 0 1.0847 0.3153 1.2738 0.9964h-2.6106c0.1892-0.6432 0.7693-0.9964 1.3368-0.9964zm10.753-1.4629h-2.131l-1.5134 3.9096-1.526-3.9096h-2.1314l2.6232 6.3437h2.0557l2.6229-6.3437zm1.927-3.0017c-0.681 0-1.16 0.5297-1.16 1.1477 0 0.6432 0.479 1.1225 1.16 1.1225s1.173-0.4793 1.173-1.1225c0-0.618-0.492-1.1477-1.173-1.1477zm1.009 9.3454v-6.3311h-2.018v6.3311h2.018zm7.769-3.1656c-0.038-2.0683-1.476-3.3547-3.267-3.3547-1.841 0-3.354 1.3621-3.354 3.3547 0 2.0053 1.513 3.3548 3.342 3.3548 1.45 0 2.598-0.6432 3.14-1.9801l-1.791-0.3657c-0.34 0.618-0.883 0.7315-1.349 0.7315-0.681 0-1.198-0.4667-1.362-1.2234h4.641v-0.5171zm-3.267-1.7152c0.581 0 1.085 0.3153 1.274 0.9964h-2.61c0.189-0.6432 0.769-0.9964 1.336-0.9964zm13.387-1.4503h-1.98l-1.034 3.4178-1.198-3.4178h-1.425l-1.198 3.4052-1.035-3.4052h-1.98l2.031 6.3437h1.753l1.148-3.4304 1.135 3.4304h1.753l2.03-6.3437zm0.304 4.6789c0.214 1.2991 1.488 1.8414 2.976 1.8414 1.665 0 2.876-0.7315 2.876-2.1314 0-0.9333-0.555-1.6522-1.753-1.9044l-1.488-0.3027c-0.404-0.0883-0.48-0.2648-0.48-0.4414 0-0.227 0.177-0.4919 0.719-0.4919 0.618 0 0.997 0.3532 1.06 0.7441l1.841-0.3657c-0.252-1.0972-1.299-1.8161-2.875-1.8161-1.602 0-2.725 0.845-2.725 2.144 0 0.9963 0.669 1.6269 1.842 1.8413l1.286 0.2523c0.467 0.0882 0.631 0.2522 0.631 0.4666 0 0.2775-0.29 0.5045-0.82 0.5045-0.542 0-1.034-0.2018-1.123-0.7441l-1.967 0.4035z" fill="#2B2B59"/>
<path d="m17.74 61.687h-0.8324l-2.6485 1.5386v1.2234l2.1693-1.1603v6.8482h1.3116v-8.4499zm2.4376 6.8987c-0.4792 0-0.8323 0.3657-0.8323 0.7945 0 0.454 0.3531 0.8072 0.8323 0.8072 0.4793 0 0.8198-0.3532 0.8198-0.8072 0-0.4288-0.3405-0.7945-0.8198-0.7945z" fill="#2B2B59"/>
<path d="m34.398 61.687h-1.3494v3.5818h-4.5655v-3.5818h-1.3495v8.4499h1.3495v-3.6322h4.5655v3.6322h1.3494v-8.4499zm2.7541-0.5045c-0.4918 0-0.845 0.3784-0.845 0.8198 0 0.4666 0.3532 0.8072 0.845 0.8072 0.4793 0 0.8324-0.3406 0.8324-0.8072 0-0.4414-0.3531-0.8198-0.8324-0.8198zm0.6559 8.9544v-6.2554h-1.3117v6.2554h1.3117zm3.3969 0v-9.0805h-1.3117v9.0805h1.3117zm5.7474-1.3999c-0.3279 0.2144-0.7315 0.3405-1.0594 0.3405-0.618 0-1.0342-0.3783-1.0342-1.1603v-2.9511h2.1441v-1.0846h-2.1441v-1.9423h-1.3116v1.9423h-1.3494v1.0846h1.3494v3.0394c0 1.5513 0.9081 2.308 2.2575 2.308 0.5297 0 0.9585-0.1261 1.5513-0.4793l-0.4036-1.0972zm4.1287-4.9943c-1.8539 0-3.3674 1.3243-3.3674 3.2665s1.5135 3.2791 3.3674 3.2791c1.8413 0 3.3421-1.3369 3.3421-3.2791s-1.5008-3.2665-3.3421-3.2665zm0 5.4105c-1.0972 0-2.0809-0.845-2.0809-2.144s0.9837-2.144 2.0809-2.144c1.072 0 2.0683 0.845 2.0683 2.144s-0.9963 2.144-2.0683 2.144zm8.2919-5.4483c-0.9333 0-1.6648 0.3405-2.1693 0.9459v-0.7693h-1.3116v6.2554h1.3116v-2.8881c0-1.5765 0.7441-2.3332 1.8666-2.3332 0.8954 0 1.4882 0.6811 1.4882 1.7026v3.5187h1.3242v-3.7835c0-1.5639-1.0089-2.6485-2.5097-2.6485zm14.72-2.0179h-1.3494v3.5818h-4.5655v-3.5818h-1.3495v8.4499h1.3495v-3.6322h4.5655v3.6322h1.3494v-8.4499zm4.8225 2.0557c-1.854 0-3.3674 1.3243-3.3674 3.2665s1.5134 3.2791 3.3674 3.2791c1.8413 0 3.3421-1.3369 3.3421-3.2791s-1.5008-3.2665-3.3421-3.2665zm0 5.4105c-1.0973 0-2.081-0.845-2.081-2.144s0.9837-2.144 2.081-2.144c1.072 0 2.0683 0.845 2.0683 2.144s-0.9963 2.144-2.0683 2.144zm8.5693-0.4162c-0.3279 0.2144-0.7315 0.3405-1.0594 0.3405-0.618 0-1.0342-0.3783-1.0342-1.1603v-2.9511h2.144v-1.0846h-2.144v-1.9423h-1.3116v1.9423h-1.3495v1.0846h1.3495v3.0394c0 1.5513 0.9081 2.308 2.2575 2.308 0.5297 0 0.9585-0.1261 1.5513-0.4793l-0.4036-1.0972zm7.1303-1.8665c-0.0631-1.8792-1.4504-3.1656-3.1277-3.1656-1.7657 0-3.2413 1.3242-3.2413 3.3169 0 1.9801 1.4882 3.2917 3.1908 3.2917 1.3873 0 2.4972-0.6558 3.0143-1.9675l-1.1729-0.2522c-0.4415 0.8828-1.1477 1.0846-1.8414 1.0846-0.9206 0-1.7656-0.6936-1.8917-1.8539h5.0699v-0.454zm-3.1277-2.0053c0.8576 0 1.5765 0.5045 1.7782 1.526h-3.6826c0.2018-1.0089 1.0846-1.526 1.9044-1.526zm5.8916 5.2717v-9.0805h-1.3117v9.0805h1.3117zm1.4594-1.6774c0.1639 1.2612 1.362 1.854 2.762 1.854 1.564 0 2.636-0.7063 2.636-2.0179 0-0.8828-0.618-1.4756-1.627-1.69l-1.488-0.3279c-0.555-0.1261-0.757-0.3531-0.757-0.7063 0-0.4414 0.341-0.8197 1.11-0.8197 0.807 0 1.324 0.4162 1.425 1.0215l1.249-0.2648c-0.227-1.0468-1.199-1.8035-2.636-1.8035-1.501 0-2.4722 0.8198-2.4722 1.98 0 0.8829 0.618 1.463 1.7022 1.7026l1.362 0.2775c0.581 0.1261 0.845 0.3657 0.845 0.7441 0 0.4919-0.479 0.8324-1.236 0.8324-0.819 0-1.475-0.3153-1.563-1.0594l-1.312 0.2774z" fill="#2B2B59"/>
<rect x="14.196" y="78.078" width="143.46" height="7.8824" rx="3.9412" fill="#E0E0E0"/>
<rect x="14.196" y="78.078" width="126.12" height="7.8824" rx="3.9412" fill="#03CEA4"/>
<path d="m130.45 97.182c0.519-0.2759 0.828-0.8167 0.828-1.534 0-1.3683-1.005-2.3063-2.505-2.3063-1.501 0-2.517 0.9711-2.638 2.3726l1.368 0.2758c0.067-0.9269 0.585-1.3352 1.27-1.3352 0.684 0 1.125 0.3972 1.125 0.9931 0 0.5408-0.386 0.8718-1.081 0.8718h-0.982v1.3022h1.07c0.728 0 1.115 0.3421 1.115 0.8939 0 0.629-0.53 1.0483-1.247 1.0483-0.795 0-1.225-0.4966-1.336-1.3132l-1.401 0.2759c0.121 1.4016 1.192 2.3396 2.737 2.3396 1.556 0 2.615-0.938 2.615-2.3617 0-0.7173-0.353-1.269-0.938-1.5228zm8.056 2.2291v-1.2139h-0.916v-4.69h-1.986l-3.388 4.5245v1.3794h3.918v1.4894h1.456v-1.4894h0.916zm-2.372-1.2139h-2.274l2.274-3.2333v3.2333zm4.869-2.0746 0.055-1.2581h3.255v-1.3573h-4.646l-0.121 3.9506h2.472c0.717 0 1.203 0.4304 1.203 1.0705 0 0.7173-0.508 1.1918-1.258 1.1918-0.729 0-1.336-0.4525-1.336-1.5008l-1.445 0.2869c0 1.6883 1.269 2.5603 2.748 2.5603 1.655 0 2.725-1.0705 2.725-2.5603 0-1.4567-1.015-2.3836-2.527-2.3836h-1.125zm6.304 0 0.055-1.2581h3.256v-1.3573h-4.646l-0.122 3.9506h2.472c0.718 0 1.203 0.4304 1.203 1.0705 0 0.7173-0.508 1.1918-1.258 1.1918-0.728 0-1.335-0.4525-1.335-1.5008l-1.446 0.2869c0 1.6883 1.269 2.5603 2.748 2.5603 1.655 0 2.726-1.0705 2.726-2.5603 0-1.4567-1.016-2.3836-2.527-2.3836h-1.126zm8.633 1.0373c0.75-0.3311 1.159-0.9822 1.159-1.7877 0-1.2139-1.027-2.0305-2.561-2.0305-1.545 0-2.571 0.8166-2.571 2.0305 0 0.8166 0.408 1.4566 1.159 1.7877-0.883 0.32-1.391 0.9821-1.391 1.7436 0 1.28 1.126 2.163 2.803 2.163 1.667 0 2.781-0.883 2.781-2.163 0-0.7504-0.496-1.4236-1.379-1.7436zm-1.424-2.6154c0.563 0 1.104 0.32 1.104 0.938 0 0.6401-0.541 0.9601-1.104 0.9601s-1.059-0.309-1.059-0.938c0-0.6401 0.507-0.9601 1.059-0.9601zm0 5.2749c-0.607 0-1.125-0.3311-1.125-0.9932 0-0.6842 0.529-1.0152 1.125-1.0152s1.17 0.331 1.17 0.9932c0 0.6731-0.574 1.0152-1.17 1.0152z" fill="#2B2B59"/>
<path d="m20.313 132.72h-3.6448l1.6648-1.589c1.2738-1.211 1.9043-1.993 1.9043-3.203 0-1.552-1.1476-2.611-2.825-2.611-1.69 0-2.8503 1.047-2.9133 2.699l1.2359 0.252c0.0631-1.173 0.6811-1.778 1.6648-1.778 0.908 0 1.5386 0.593 1.5386 1.463 0 1.009-0.6684 1.602-1.4125 2.295l-2.9259 2.825v0.87h5.7131v-1.223zm2.0448-0.328c-0.4792 0-0.8324 0.366-0.8324 0.795 0 0.454 0.3532 0.807 0.8324 0.807 0.4793 0 0.8198-0.353 0.8198-0.807 0-0.429-0.3405-0.795-0.8198-0.795z" fill="#2B2B59"/>
<path d="m34.33 129.59c0.618-0.101 1.3368-0.744 1.3368-1.816 0-1.362-0.9584-2.282-2.5097-2.282h-4.0232v8.449h4.1115c1.7909 0 2.6737-0.958 2.6737-2.32 0-1.186-0.7693-1.892-1.5891-1.98v-0.051zm-3.8466-2.938h2.535c0.7819 0 1.3368 0.479 1.3368 1.198 0 0.782-0.5423 1.299-1.3494 1.299h-2.5224v-2.497zm0 6.129v-2.547h2.6611c0.8198 0 1.3873 0.491 1.3873 1.261 0 0.769-0.5171 1.286-1.4251 1.286h-2.6233zm13.142-5.095h-1.3116v0.719c-0.5423-0.568-1.3243-0.896-2.2702-0.896-1.6395 0-3.1025 1.337-3.1025 3.305 0 1.98 1.463 3.304 3.1025 3.304 0.9459 0 1.7279-0.328 2.2702-0.895v0.718h1.3116v-6.255zm-3.3674 5.272c-1.1476 0-2.0431-0.82-2.0431-2.144 0-1.312 0.8955-2.144 2.0431-2.144 1.0342 0 2.0558 0.832 2.0558 2.144 0 1.324-1.0216 2.144-2.0558 2.144zm6.6664 0.983v-9.08h-1.3117v9.08h1.3117zm5.7474-1.399c-0.3279 0.214-0.7315 0.34-1.0594 0.34-0.618 0-1.0342-0.378-1.0342-1.16v-2.951h2.1441v-1.085h-2.1441v-1.942h-1.3116v1.942h-1.3494v1.085h1.3494v3.039c0 1.551 0.9081 2.308 2.2575 2.308 0.5297 0 0.9585-0.126 1.5513-0.479l-0.4036-1.097zm2.2205-7.555c-0.4919 0-0.845 0.378-0.845 0.82 0 0.466 0.3531 0.807 0.845 0.807 0.4792 0 0.8324-0.341 0.8324-0.807 0-0.442-0.3532-0.82-0.8324-0.82zm0.6558 8.954v-6.255h-1.3116v6.255h1.3116zm9.8163-6.432c-1.0342 0-1.8287 0.442-2.3332 1.148-0.4036-0.731-1.1855-1.148-2.0809-1.148-0.8955 0-1.5513 0.328-2.0053 0.883v-0.706h-1.3116v6.255h1.3116v-3.102c0-1.4 0.6558-2.119 1.6648-2.119 0.8071 0 1.4125 0.58 1.4125 1.501v3.72h1.3116v-3.102c0-1.4 0.6684-2.119 1.69-2.119 0.8072 0 1.4125 0.58 1.4125 1.501v3.72h1.299v-3.985c0-1.475-1.072-2.447-2.371-2.447zm7.0531 0.038c-1.854 0-3.3674 1.324-3.3674 3.267 0 1.942 1.5134 3.279 3.3674 3.279 1.8413 0 3.3421-1.337 3.3421-3.279 0-1.943-1.5008-3.267-3.3421-3.267zm0 5.411c-1.0973 0-2.081-0.845-2.081-2.144s0.9837-2.144 2.081-2.144c1.072 0 2.0683 0.845 2.0683 2.144s-0.9963 2.144-2.0683 2.144zm8.5062-5.348c-1.0846 0-1.8791 0.58-2.3836 1.413v-1.337h-1.3116v6.255h1.3116v-2.207c0-1.715 0.7819-2.825 2.371-2.825 0.1135 0 0.2649 0 0.3658 0.013l0.0883-1.261c-0.164-0.051-0.2901-0.051-0.4415-0.051zm7.3166 3.065c-0.0631-1.879-1.4504-3.166-3.1278-3.166-1.7656 0-3.2412 1.325-3.2412 3.317 0 1.98 1.4882 3.292 3.1908 3.292 1.3873 0 2.4971-0.656 3.0142-1.967l-1.1729-0.253c-0.4414 0.883-1.1477 1.085-1.8413 1.085-0.9207 0-1.7657-0.694-1.8918-1.854h5.07v-0.454zm-3.1278-2.005c0.8576 0 1.5765 0.504 1.7783 1.526h-3.6826c0.2017-1.009 1.0846-1.526 1.9043-1.526z" fill="#2B2B59"/>
<rect x="14.196" y="141.88" width="143.46" height="7.8824" rx="3.9412" fill="#E0E0E0"/>
<rect x="14.196" y="141.88" width="28.377" height="7.8824" rx="3.9412" fill="#E71D36"/>
<path d="m136.64 160.96c0.75-0.331 1.158-0.982 1.158-1.788 0-1.214-1.026-2.03-2.56-2.03-1.545 0-2.571 0.816-2.571 2.03 0 0.817 0.408 1.457 1.159 1.788-0.883 0.32-1.391 0.982-1.391 1.744 0 1.28 1.126 2.163 2.803 2.163 1.667 0 2.781-0.883 2.781-2.163 0-0.751-0.496-1.424-1.379-1.744zm-1.424-2.615c0.563 0 1.104 0.32 1.104 0.938 0 0.64-0.541 0.96-1.104 0.96s-1.059-0.309-1.059-0.938c0-0.64 0.507-0.96 1.059-0.96zm0 5.275c-0.607 0-1.125-0.331-1.125-0.994 0-0.684 0.529-1.015 1.125-1.015s1.17 0.331 1.17 0.993c0 0.674-0.574 1.016-1.17 1.016zm5.346-3.697 0.055-1.258h3.255v-1.358h-4.646l-0.121 3.951h2.472c0.717 0 1.203 0.43 1.203 1.07 0 0.718-0.508 1.192-1.258 1.192-0.728 0-1.335-0.452-1.335-1.501l-1.446 0.287c0 1.689 1.269 2.561 2.748 2.561 1.655 0 2.725-1.071 2.725-2.561 0-1.456-1.015-2.383-2.527-2.383h-1.125zm7.308-2.781c-1.6 0-2.714 1.059-2.714 2.516 0 1.423 0.982 2.439 2.582 2.439 0.673 0 1.346-0.276 1.766-0.74 0 0.674-0.155 1.292-0.563 1.733-0.254 0.276-0.618 0.463-1.038 0.463-0.573 0-0.96-0.176-1.136-0.717l-1.435 0.276c0.309 1.137 1.269 1.755 2.516 1.755 0.85 0 1.556-0.331 2.064-0.85 0.728-0.751 0.993-1.799 0.993-3.123 0-2.395-1.214-3.752-3.035-3.752zm0.033 3.73c-0.64 0-1.247-0.475-1.247-1.192s0.607-1.203 1.247-1.203c0.629 0 1.203 0.475 1.203 1.181 0 0.739-0.574 1.214-1.203 1.214zm8.038 0.088c0.75-0.331 1.159-0.982 1.159-1.788 0-1.214-1.027-2.03-2.561-2.03-1.545 0-2.571 0.816-2.571 2.03 0 0.817 0.408 1.457 1.159 1.788-0.883 0.32-1.391 0.982-1.391 1.744 0 1.28 1.126 2.163 2.803 2.163 1.667 0 2.781-0.883 2.781-2.163 0-0.751-0.496-1.424-1.379-1.744zm-1.424-2.615c0.563 0 1.104 0.32 1.104 0.938 0 0.64-0.541 0.96-1.104 0.96s-1.059-0.309-1.059-0.938c0-0.64 0.507-0.96 1.059-0.96zm0 5.275c-0.607 0-1.125-0.331-1.125-0.994 0-0.684 0.529-1.015 1.125-1.015s1.17 0.331 1.17 0.993c0 0.674-0.574 1.016-1.17 1.016z" fill="#2B2B59"/>
<path d="m19.607 193.46c0.681-0.29 1.0972-0.933 1.0972-1.791 0-1.513-1.1351-2.547-2.8124-2.547-1.7026 0-2.8503 1.097-2.9764 2.686l1.2485 0.252c0.0757-1.16 0.7567-1.753 1.7279-1.753 0.9458 0 1.5638 0.542 1.5638 1.362 0 0.744-0.5675 1.198-1.5008 1.198h-1.1224v1.173h1.1981c0.9963 0 1.5765 0.48 1.5765 1.261 0 0.858-0.7063 1.438-1.7026 1.438-1.0847 0-1.7152-0.681-1.8288-1.778l-1.2737 0.252c0.1261 1.614 1.3368 2.712 3.1025 2.712 1.753 0 2.9385-1.06 2.9385-2.636 0-0.896-0.4666-1.551-1.2359-1.829zm3.219 2.737c-0.4792 0-0.8324 0.366-0.8324 0.794 0 0.454 0.3532 0.808 0.8324 0.808 0.4793 0 0.8198-0.354 0.8198-0.808 0-0.428-0.3405-0.794-0.8198-0.794z" fill="#2B2B59"/>
<path d="m34.145 196.65c-1.7026 0-3.0395-1.35-3.0395-3.128s1.3369-3.128 3.0395-3.128c1.3242 0 2.4088 0.707 2.7872 2.132l1.3116-0.379c-0.4792-1.866-2.1061-3.026-4.0988-3.026-2.4593 0-4.4015 1.942-4.4015 4.401 0 2.472 1.9422 4.402 4.4015 4.402 1.9927 0 3.6322-1.148 4.0988-3.128l-1.3116-0.277c-0.3784 1.425-1.463 2.131-2.7872 2.131zm9.1755-5.335c-0.9333 0-1.6648 0.341-2.1693 0.946v-3.594h-1.3116v9.08h1.3116v-2.888c0-1.576 0.7441-2.333 1.8666-2.333 0.8954 0 1.4882 0.681 1.4882 1.702v3.519h1.3242v-3.783c0-1.564-1.0089-2.649-2.5097-2.649zm5.1089-2.522c-0.4918 0-0.845 0.378-0.845 0.82 0 0.466 0.3532 0.807 0.845 0.807 0.4793 0 0.8324-0.341 0.8324-0.807 0-0.442-0.3531-0.82-0.8324-0.82zm0.6559 8.954v-6.255h-1.3117v6.255h1.3117zm4.8472-1.034c-1.1603 0-2.0179-0.82-2.0179-2.094 0-1.236 0.8576-2.093 2.0179-2.093 0.8324 0 1.5513 0.429 1.7909 1.349l1.2612-0.365c-0.391-1.337-1.6395-2.195-3.0521-2.195-1.7908 0-3.3043 1.35-3.3043 3.304 0 1.98 1.5135 3.305 3.3043 3.305 1.4504 0 2.7116-0.858 3.0521-2.207l-1.2107-0.316c-0.3027 0.908-1.009 1.312-1.8414 1.312zm10.634-5.221h-1.3117v0.719c-0.5423-0.568-1.3242-0.896-2.2701-0.896-1.6395 0-3.1025 1.337-3.1025 3.304 0 1.98 1.463 3.305 3.1025 3.305 0.9459 0 1.7278-0.328 2.2701-0.896v0.719h1.3117v-6.255zm-3.3674 5.271c-1.1477 0-2.0431-0.819-2.0431-2.144 0-1.311 0.8954-2.144 2.0431-2.144 1.0342 0 2.0557 0.833 2.0557 2.144 0 1.325-1.0215 2.144-2.0557 2.144zm11.308-5.271h-1.2738v0.618c-0.4793-0.505-1.1981-0.782-2.1566-0.782-1.6017 0-3.0647 1.274-3.0647 3.014s1.463 3.039 3.0647 3.039c0.9585 0 1.6773-0.277 2.1566-0.782v0.404c0 1.211-0.7819 1.955-1.9675 1.955-0.9963 0-1.5134-0.378-1.98-1.11l-1.072 0.795c0.5045 0.933 1.5512 1.5 3.052 1.5 1.9549 0 3.2413-1.084 3.2413-2.951v-5.7zm-3.216 4.754c-1.1225 0-2.0053-0.756-2.0053-1.904 0-1.16 0.8828-1.904 2.0053-1.904 1.0215 0 1.9422 0.744 1.9422 1.904 0 1.148-0.9207 1.904-1.9422 1.904zm8.0322-4.893c-1.8539 0-3.3673 1.324-3.3673 3.266 0 1.943 1.5134 3.279 3.3673 3.279 1.8413 0 3.3421-1.336 3.3421-3.279 0-1.942-1.5008-3.266-3.3421-3.266zm0 5.41c-1.0972 0-2.0809-0.845-2.0809-2.144s0.9837-2.144 2.0809-2.144c1.072 0 2.0684 0.845 2.0684 2.144s-0.9964 2.144-2.0684 2.144z" fill="#2B2B59"/>
<rect x="14.196" y="205.69" width="143.46" height="7.8824" rx="3.9412" fill="#E0E0E0"/>
<rect x="14.196" y="205.69" width="18.918" height="7.8824" rx="3.9412" fill="#FFA630"/>
<path d="m140.82 221.12h-5.164v1.357h3.542l-2.56 6.037h1.644l2.538-6.323v-1.071zm5.724 6.036h-2.792l1.137-1.114c1.081-1.06 1.611-1.755 1.611-2.781 0-1.368-1.027-2.306-2.516-2.306-1.501 0-2.538 0.904-2.605 2.361l1.369 0.287c0.066-0.938 0.496-1.357 1.214-1.357 0.64 0 1.092 0.43 1.092 1.048 0 0.828-0.596 1.324-1.048 1.777l-2.494 2.472v0.971h5.032v-1.358zm6.848-0.132v-1.214h-0.916v-4.69h-1.986l-3.388 4.525v1.379h3.917v1.49h1.457v-1.49h0.916zm-2.373-1.214h-2.273l2.273-3.233v3.233zm5.81-4.69h-0.927l-2.351 1.357v1.336l1.821-0.938v5.639h1.457v-7.394z" fill="#2B2B59"/>
<path d="m21.637 259.68v-1.109h-1.1856v-5.474h-1.7656l-4.1367 5.322v1.261h4.5781v1.867h1.3242v-1.867h1.1856zm-2.5098-1.109h-3.0899l3.0899-4.112v4.112zm4.2649 1.425c-0.4793 0-0.8324 0.365-0.8324 0.794 0 0.454 0.3531 0.807 0.8324 0.807 0.4792 0 0.8197-0.353 0.8197-0.807 0-0.429-0.3405-0.794-0.8197-0.794z" fill="#2B2B59"/>
<path d="m37.903 261.55-3.7205-8.45h-1.2612l-3.7204 8.45h1.4629l0.8324-1.968h4.1115l0.8323 1.968h1.463zm-2.825-3.204h-3.0521l1.526-3.594 1.5261 3.594zm9.578-3.052h-1.3116v2.889c0 1.576-0.7315 2.333-1.8539 2.333-0.9081 0-1.5008-0.694-1.5008-1.715v-3.507h-1.3117v3.771c0 1.577 0.9964 2.661 2.5098 2.661 0.9207 0 1.6521-0.34 2.1566-0.945v0.769h1.3116v-6.256zm1.3783 4.579c0.1639 1.261 1.3621 1.853 2.762 1.853 1.5638 0 2.6358-0.706 2.6358-2.017 0-0.883-0.6179-1.476-1.6269-1.69l-1.4882-0.328c-0.5549-0.126-0.7567-0.353-0.7567-0.707 0-0.441 0.3405-0.819 1.1098-0.819 0.8072 0 1.3243 0.416 1.4252 1.021l1.2486-0.265c-0.2271-1.046-1.1982-1.803-2.6359-1.803-1.5008 0-2.4719 0.82-2.4719 1.98 0 0.883 0.6179 1.463 1.7026 1.703l1.362 0.277c0.5802 0.126 0.845 0.366 0.845 0.744 0 0.492-0.4792 0.832-1.2359 0.832-0.8198 0-1.4756-0.315-1.5639-1.059l-1.3116 0.278zm10.643 0.277c-0.3279 0.214-0.7315 0.341-1.0594 0.341-0.618 0-1.0342-0.379-1.0342-1.161v-2.951h2.144v-1.085h-2.144v-1.942h-1.3116v1.942h-1.3495v1.085h1.3495v3.04c0 1.551 0.908 2.307 2.2575 2.307 0.5297 0 0.9585-0.126 1.5512-0.479l-0.4035-1.097zm2.2204-7.554c-0.4918 0-0.845 0.378-0.845 0.819 0 0.467 0.3532 0.807 0.845 0.807 0.4793 0 0.8324-0.34 0.8324-0.807 0-0.441-0.3531-0.819-0.8324-0.819zm0.6558 8.954v-6.256h-1.3116v6.256h1.3116zm5.5662-6.432c-0.9333 0-1.6648 0.34-2.1692 0.946v-0.77h-1.3117v6.256h1.3117v-2.888c0-1.577 0.7441-2.333 1.8665-2.333 0.8954 0 1.4882 0.681 1.4882 1.702v3.519h1.3242v-3.784c0-1.564-1.0089-2.648-2.5097-2.648z" fill="#2B2B59"/>
<rect x="14.196" y="269.49" width="143.46" height="7.8824" rx="3.9412" fill="#E0E0E0"/>
<rect x="14.196" y="269.49" width="11.035" height="7.8824" rx="3.9412" fill="#3772FF"/>
<path d="m140.89 284.92h-0.927l-2.35 1.357v1.335l1.82-0.938v5.64h1.457v-7.394zm6.159 0h-5.164v1.357h3.542l-2.56 6.037h1.644l2.538-6.324v-1.07zm3.475 0h-0.927l-2.35 1.357v1.335l1.821-0.938v5.64h1.456v-7.394zm5.696 3.675c0.519-0.276 0.828-0.817 0.828-1.534 0-1.369-1.005-2.307-2.505-2.307-1.501 0-2.516 0.971-2.638 2.373l1.369 0.276c0.066-0.927 0.584-1.335 1.269-1.335 0.684 0 1.125 0.397 1.125 0.993 0 0.54-0.386 0.872-1.081 0.872h-0.982v1.302h1.07c0.728 0 1.115 0.342 1.115 0.894 0 0.629-0.53 1.048-1.247 1.048-0.795 0-1.225-0.497-1.336-1.313l-1.401 0.276c0.121 1.401 1.192 2.339 2.737 2.339 1.556 0 2.615-0.938 2.615-2.361 0-0.718-0.353-1.27-0.938-1.523z" fill="#2B2B59"/>
<path d="m21.637 323.48v-1.11h-1.1856v-5.473h-1.7656l-4.1367 5.322v1.261h4.5781v1.867h1.3242v-1.867h1.1856zm-2.5098-1.11h-3.0899l3.0899-4.111v4.111zm4.2649 1.425c-0.4793 0-0.8324 0.366-0.8324 0.795 0 0.454 0.3531 0.807 0.8324 0.807 0.4792 0 0.8197-0.353 0.8197-0.807 0-0.429-0.3405-0.795-0.8197-0.795z" fill="#2B2B59"/>
<path d="m33.085 316.72c-1.8792 0-3.1025 1.009-3.1025 2.497 0 1.501 1.0846 2.056 2.1314 2.296l1.8413 0.378c0.845 0.177 1.1855 0.479 1.1855 1.122 0 0.77-0.6432 1.312-1.7782 1.312-1.1351 0-1.9801-0.53-2.1819-1.614l-1.4377 0.302c0.2144 1.64 1.7026 2.51 3.4934 2.51 1.9423 0 3.2413-0.996 3.2413-2.585 0-1.324-0.9081-2.031-2.1693-2.308l-1.8287-0.391c-0.7315-0.151-1.072-0.467-1.072-1.06 0-0.744 0.6558-1.286 1.6522-1.286 1.0089 0 1.7782 0.593 1.9296 1.488l1.3494-0.277c-0.3026-1.451-1.5386-2.384-3.2538-2.384zm10.869 5.36c-0.063-1.879-1.4503-3.165-3.1277-3.165-1.7657 0-3.2412 1.324-3.2412 3.317 0 1.98 1.4881 3.291 3.1907 3.291 1.3873 0 2.4972-0.656 3.0143-1.967l-1.1729-0.252c-0.4414 0.882-1.1477 1.084-1.8414 1.084-0.9206 0-1.7656-0.694-1.8917-1.854h5.0699v-0.454zm-3.1277-2.005c0.8576 0 1.5765 0.504 1.7783 1.526h-3.6827c0.2018-1.009 1.0846-1.526 1.9044-1.526zm10.697-0.984h-1.3117v0.719c-0.5423-0.567-1.3242-0.895-2.2701-0.895-1.6395 0-3.1025 1.336-3.1025 3.304 0 1.98 1.463 3.304 3.1025 3.304 0.9459 0 1.7278-0.328 2.2701-0.895v0.719h1.3117v-6.256zm-3.3674 5.272c-1.1477 0-2.0431-0.82-2.0431-2.144 0-1.312 0.8954-2.144 2.0431-2.144 1.0342 0 2.0557 0.832 2.0557 2.144 0 1.324-1.0215 2.144-2.0557 2.144zm9.113-0.416c-0.3279 0.214-0.7314 0.34-1.0593 0.34-0.618 0-1.0342-0.378-1.0342-1.16v-2.951h2.144v-1.085h-2.144v-1.942h-1.3116v1.942h-1.3495v1.085h1.3495v3.039c0 1.551 0.908 2.308 2.2575 2.308 0.5297 0 0.9585-0.126 1.5512-0.479l-0.4036-1.097zm5.2221 0c-0.3279 0.214-0.7315 0.34-1.0594 0.34-0.6179 0-1.0341-0.378-1.0341-1.16v-2.951h2.144v-1.085h-2.144v-1.942h-1.3117v1.942h-1.3494v1.085h1.3494v3.039c0 1.551 0.9081 2.308 2.2575 2.308 0.5297 0 0.9585-0.126 1.5513-0.479l-0.4036-1.097zm2.7754 1.4v-9.081h-1.3116v9.081h1.3116zm7.8158-3.267c-0.0631-1.879-1.4504-3.165-3.1277-3.165-1.7657 0-3.2413 1.324-3.2413 3.317 0 1.98 1.4882 3.291 3.1908 3.291 1.3873 0 2.4972-0.656 3.0142-1.967l-1.1729-0.252c-0.4414 0.882-1.1476 1.084-1.8413 1.084-0.9207 0-1.7656-0.694-1.8918-1.854h5.07v-0.454zm-3.1277-2.005c0.8576 0 1.5764 0.504 1.7782 1.526h-3.6826c0.2018-1.009 1.0846-1.526 1.9044-1.526z" fill="#2B2B59"/>
<rect x="14.196" y="333.29" width="143.46" height="7.8824" rx="3.9412" fill="#E0E0E0"/>
<rect x="14.196" y="333.29" width="6.3059" height="7.8824" rx="3.153" fill="#6D696A"/>
<path d="m137.68 348.72h-0.927l-2.351 1.357v1.335l1.821-0.938v5.639h1.457v-7.393zm5.695 3.674c0.519-0.276 0.828-0.816 0.828-1.534 0-1.368-1.004-2.306-2.505-2.306s-2.516 0.971-2.638 2.373l1.369 0.276c0.066-0.927 0.585-1.336 1.269-1.336s1.125 0.398 1.125 0.993c0 0.541-0.386 0.872-1.081 0.872h-0.982v1.302h1.07c0.729 0 1.115 0.343 1.115 0.894 0 0.629-0.53 1.049-1.247 1.049-0.795 0-1.225-0.497-1.335-1.314l-1.402 0.276c0.121 1.402 1.192 2.34 2.737 2.34 1.556 0 2.615-0.938 2.615-2.362 0-0.717-0.353-1.269-0.938-1.523zm6.768-3.674h-5.165v1.357h3.543l-2.56 6.036h1.644l2.538-6.323v-1.07zm3.841-0.166c-1.898 0-3.178 1.567-3.178 3.862 0 2.307 1.28 3.863 3.178 3.863s3.178-1.556 3.178-3.863c0-2.295-1.28-3.862-3.178-3.862zm0 6.345c-1.015 0-1.655-1.015-1.655-2.483 0-1.467 0.64-2.483 1.655-2.483s1.655 1.016 1.655 2.483c0 1.468-0.64 2.483-1.655 2.483z" fill="#2B2B59"/>
<g filter="url(#a)">
<rect x="181.11" y="2" width="168.49" height="371" rx="2.3647" fill="#fff"/>
<rect x="181.5" y="2.3941" width="167.7" height="370.21" rx="1.9706" stroke="#E6E6EA" stroke-width=".78824"/>
</g>
<path d="m225.77 25.265c-2.523 0-4.503 1.9548-4.503 4.4268 0 2.4593 1.98 4.4015 4.503 4.4015 2.522 0 4.502-1.9422 4.502-4.4015 0-2.472-1.98-4.4268-4.502-4.4268zm0 6.9239c-1.375 0-2.422-1.0594-2.422-2.4971 0-1.4504 1.047-2.5224 2.422-2.5224 1.374 0 2.421 1.072 2.421 2.5224 0 1.4377-1.047 2.4971-2.421 2.4971zm12.336-4.6285h-2.131l-1.514 3.9096-1.526-3.9096h-2.131l2.623 6.3437h2.056l2.623-6.3437zm6.8 3.1781c-0.037-2.0683-1.475-3.3547-3.266-3.3547-1.841 0-3.355 1.3621-3.355 3.3547 0 2.0053 1.514 3.3548 3.342 3.3548 1.451 0 2.598-0.6432 3.141-1.9801l-1.791-0.3657c-0.341 0.618-0.883 0.7315-1.35 0.7315-0.681 0-1.198-0.4667-1.362-1.2234h4.641v-0.5171zm-3.266-1.7152c0.58 0 1.085 0.3153 1.274 0.9964h-2.611c0.189-0.6432 0.769-0.9964 1.337-0.9964zm8.515-1.5386c-1.034 0-1.727 0.5423-2.182 1.299v-1.2107h-2.017v6.3311h2.017v-1.9801c0-1.6395 0.77-2.371 2.182-2.371h0.366l0.088-2.0179c-0.151-0.0378-0.277-0.0504-0.454-0.0504zm7.928 0.0883h-2.018v0.5044c-0.492-0.4414-1.148-0.6936-1.967-0.6936-1.678 0-3.09 1.3621-3.09 3.3547 0 2.0053 1.412 3.3548 3.09 3.3548 0.819 0 1.475-0.2523 1.967-0.6937v0.5045h2.018v-6.3311zm-3.569 4.8051c-0.883 0-1.526-0.6558-1.526-1.6396 0-0.9711 0.643-1.6395 1.526-1.6395 0.82 0 1.551 0.6684 1.551 1.6395 0 0.9838-0.731 1.6396-1.551 1.6396zm7.044 1.526v-9.0805h-2.018v9.0805h2.018zm3.486 0v-9.0805h-2.018v9.0805h2.018zm12.142 0-2.648-3.0016c1.362-0.3027 2.219-1.299 2.219-2.6863 0-1.6522-1.21-2.762-3.039-2.762h-4.275v8.4499h2.081v-2.9007h0.605l2.548 2.9007h2.509zm-5.662-4.6412v-2.0305h1.967c0.744 0 1.223 0.4036 1.223 1.009 0 0.618-0.479 1.0215-1.223 1.0215h-1.967zm12.842-1.6899h-2.018v0.5044c-0.492-0.4414-1.148-0.6936-1.967-0.6936-1.678 0-3.09 1.3621-3.09 3.3547 0 2.0053 1.412 3.3548 3.09 3.3548 0.819 0 1.475-0.2523 1.967-0.6937v0.5045h2.018v-6.3311zm-3.569 4.8051c-0.883 0-1.526-0.6558-1.526-1.6396 0-0.9711 0.643-1.6395 1.526-1.6395 0.819 0 1.551 0.6684 1.551 1.6395 0 0.9838-0.732 1.6396-1.551 1.6396zm9.251-0.3406c-0.265 0.1514-0.643 0.2523-0.92 0.2523-0.53 0-0.845-0.2649-0.845-0.9207v-2.1944h1.866v-1.6017h-1.866v-1.8666h-2.018v1.8666h-1.148v1.6017h1.148v2.3962c0 1.6648 0.946 2.5224 2.522 2.5224 0.719 0 1.236-0.2018 1.728-0.4667l-0.467-1.5891zm2.341-7.4788c-0.681 0-1.16 0.5297-1.16 1.1477 0 0.6432 0.479 1.1225 1.16 1.1225s1.173-0.4793 1.173-1.1225c0-0.618-0.492-1.1477-1.173-1.1477zm1.009 9.3454v-6.3311h-2.018v6.3311h2.018zm5.524-6.5203c-0.795 0-1.463 0.2901-1.942 0.7945v-0.6053h-2.018v6.3311h2.018v-2.9386c0-1.2233 0.517-1.7656 1.311-1.7656 0.644 0 1.085 0.5045 1.085 1.2486v3.4556h2.005v-3.8844c0-1.5891-0.983-2.6359-2.459-2.6359zm10.356 0.1892h-1.98v0.4162c-0.454-0.391-1.084-0.6054-1.904-0.6054-1.652 0-3.052 1.299-3.052 3.052 0 1.7909 1.4 3.1026 3.052 3.1026 0.82 0 1.45-0.2144 1.904-0.6054v0.1766c0 0.9963-0.656 1.5386-1.576 1.5386-0.656 0-1.009-0.2144-1.488-0.7819l-1.678 0.908c0.618 1.0216 1.728 1.526 3.178 1.526 2.056 0 3.544-1.072 3.544-3.0268v-5.7005zm-3.455 4.3132c-0.883 0-1.514-0.6054-1.514-1.4504 0-0.8449 0.631-1.4377 1.514-1.4377 0.807 0 1.475 0.5928 1.475 1.4377 0 0.845-0.668 1.4504-1.475 1.4504z" fill="#2B2B59"/>
<path d="m197.25 61.687h-0.832l-2.649 1.5386v1.2234l2.169-1.1603v6.8482h1.312v-8.4499zm2.438 6.8987c-0.48 0-0.833 0.3657-0.833 0.7945 0 0.454 0.353 0.8072 0.833 0.8072 0.479 0 0.819-0.3532 0.819-0.8072 0-0.4288-0.34-0.7945-0.819-0.7945z" fill="#2B2B59"/>
<path d="m214.41 70.137-3.721-8.4499h-1.261l-3.721 8.4499h1.463l0.833-1.9674h4.111l0.833 1.9674h1.463zm-2.825-3.2034h-3.052l1.526-3.5943 1.526 3.5943zm9.578-3.052h-1.312v2.8881c0 1.5764-0.731 2.3332-1.854 2.3332-0.908 0-1.501-0.6937-1.501-1.7153v-3.506h-1.311v3.7709c0 1.5765 0.996 2.6611 2.509 2.6611 0.921 0 1.653-0.3405 2.157-0.9459v0.7693h1.312v-6.2554zm1.378 4.578c0.164 1.2612 1.362 1.854 2.762 1.854 1.564 0 2.636-0.7063 2.636-2.0179 0-0.8828-0.618-1.4756-1.627-1.69l-1.488-0.3279c-0.555-0.1261-0.757-0.3531-0.757-0.7063 0-0.4414 0.34-0.8197 1.11-0.8197 0.807 0 1.324 0.4162 1.425 1.0215l1.248-0.2648c-0.227-1.0468-1.198-1.8035-2.635-1.8035-1.501 0-2.472 0.8198-2.472 1.98 0 0.8829 0.618 1.463 1.702 1.7026l1.362 0.2775c0.581 0.1261 0.845 0.3657 0.845 0.7441 0 0.4919-0.479 0.8324-1.236 0.8324-0.819 0-1.475-0.3153-1.563-1.0594l-1.312 0.2774zm10.643 0.2775c-0.328 0.2144-0.731 0.3405-1.059 0.3405-0.618 0-1.034-0.3783-1.034-1.1603v-2.9511h2.144v-1.0846h-2.144v-1.9423h-1.312v1.9423h-1.35v1.0846h1.35v3.0394c0 1.5513 0.908 2.308 2.257 2.308 0.53 0 0.959-0.1261 1.552-0.4793l-0.404-1.0972zm2.221-7.5545c-0.492 0-0.845 0.3784-0.845 0.8198 0 0.4666 0.353 0.8072 0.845 0.8072 0.479 0 0.832-0.3406 0.832-0.8072 0-0.4414-0.353-0.8198-0.832-0.8198zm0.655 8.9544v-6.2554h-1.311v6.2554h1.311zm5.567-6.432c-0.934 0-1.665 0.3405-2.17 0.9459v-0.7693h-1.311v6.2554h1.311v-2.8881c0-1.5765 0.744-2.3332 1.867-2.3332 0.895 0 1.488 0.6811 1.488 1.7026v3.5187h1.324v-3.7835c0-1.5639-1.009-2.6485-2.509-2.6485z" fill="#2B2B59"/>
<g clip-path="url(#aa)">
<path d="m204.13 87.667-1.062-3.4971c-0.21-0.6864-1.178-0.6864-1.38 0l-1.07 3.4971h-3.215c-0.701 0-0.99 0.9032-0.419 1.3079l2.63 1.8786-1.033 3.331c-0.21 0.6719 0.57 1.2138 1.127 0.7875l2.666-2.0231 2.666 2.0304c0.557 0.4263 1.337-0.1156 1.127-0.7876l-1.033-3.331 2.63-1.8786c0.571-0.4119 0.282-1.3078-0.419-1.3078h-3.215v-0.0073z" fill="#FFA630"/>
</g>
<g clip-path="url(#p)">
<path d="m221.48 87.666-1.062-3.4972c-0.21-0.6864-1.178-0.6864-1.38 0l-1.07 3.4972h-3.215c-0.701 0-0.99 0.9032-0.419 1.3078l2.63 1.8786-1.033 3.331c-0.21 0.672 0.571 1.2139 1.127 0.7876l2.666-2.0232 2.667 2.0304c0.556 0.4263 1.336-0.1156 1.127-0.7876l-1.034-3.331 2.631-1.8786c0.57-0.4118 0.281-1.3078-0.42-1.3078h-3.215v-0.0072z" fill="#FFA630"/>
</g>
<g clip-path="url(#j)">
<path d="m238.82 87.666-1.062-3.4972c-0.209-0.6864-1.178-0.6864-1.38 0l-1.069 3.4972h-3.216c-0.7 0-0.989 0.9032-0.419 1.3078l2.63 1.8786-1.033 3.331c-0.209 0.672 0.571 1.2139 1.127 0.7876l2.667-2.0232 2.666 2.0304c0.556 0.4263 1.337-0.1156 1.127-0.7876l-1.033-3.331 2.63-1.8786c0.571-0.4118 0.282-1.3078-0.419-1.3078h-3.216v-0.0072z" fill="#FFA630"/>
</g>
<g clip-path="url(#i)">
<path d="m256.16 87.666-1.062-3.4972c-0.21-0.6864-1.178-0.6864-1.381 0l-1.069 3.4972h-3.215c-0.701 0-0.99 0.9032-0.419 1.3078l2.63 1.8786-1.033 3.331c-0.21 0.672 0.57 1.2139 1.127 0.7876l2.666-2.0232 2.666 2.0304c0.556 0.4263 1.337-0.1156 1.127-0.7876l-1.033-3.331 2.63-1.8786c0.571-0.4118 0.282-1.3078-0.419-1.3078h-3.215v-0.0072z" fill="#FFA630"/>
</g>
<g clip-path="url(#h)">
<path d="m271.4 84.271c0.099-0.3349 0.58-0.3481 0.688 0.0031v2e-4l1.046 3.4453v0.3149h3.577c0.347 0 0.496 0.4447 0.208 0.6531v4e-4l-2.629 1.8777-0.213 0.1517 0.078 0.2493 1.033 3.3309v6e-4c0.104 0.334-0.285 0.6061-0.562 0.3932l-1e-3 -6e-4 -2.666-2.0304-0.219-0.1664-0.219 0.166-2.666 2.0232-1e-3 1e-3c-0.278 0.2128-0.667-0.0592-0.563-0.3933v-5e-4l1.034-3.3309 0.077-0.2493-0.212-0.1518-2.631-1.8786-1e-3 -8e-4c-0.281-0.1995-0.141-0.6518 0.211-0.6518h3.482l0.078-0.2556 1.07-3.4971 1e-3 -0.0035z" fill="#F6F6F6" stroke="#FFA630" stroke-width=".72255"/>
</g>
<path d="m328.47 91.124v-1.2139h-0.915v-4.69h-1.987l-3.388 4.5245v1.3794h3.918v1.4898h1.457v-1.4898h0.915zm-2.372-1.2139h-2.273l2.273-3.2333v3.2333zm3.975 1.0594c-0.508 0-0.872 0.3973-0.872 0.8497 0 0.4746 0.364 0.8387 0.872 0.8387s0.872-0.3641 0.872-0.8387c0-0.4524-0.364-0.8497-0.872-0.8497zm6.701 0.2869h-2.792l1.137-1.1145c1.082-1.0594 1.611-1.7547 1.611-2.7809 0-1.3684-1.026-2.3064-2.516-2.3064-1.501 0-2.538 0.9049-2.604 2.3615l1.368 0.287c0.066-0.938 0.497-1.3574 1.214-1.3574 0.64 0 1.093 0.4304 1.093 1.0484 0 0.8276-0.596 1.3242-1.049 1.7767l-2.494 2.4719v0.9711h5.032v-1.3574z" fill="#2B2B59"/>
<path d="m199.82 132.72h-3.645l1.665-1.589c1.273-1.211 1.904-1.993 1.904-3.203 0-1.552-1.148-2.611-2.825-2.611-1.69 0-2.85 1.047-2.913 2.699l1.236 0.252c0.063-1.173 0.681-1.778 1.664-1.778 0.908 0 1.539 0.593 1.539 1.463 0 1.009-0.668 1.602-1.412 2.295l-2.926 2.825v0.87h5.713v-1.223zm2.045-0.328c-0.48 0-0.833 0.366-0.833 0.795 0 0.454 0.353 0.807 0.833 0.807 0.479 0 0.819-0.353 0.819-0.807 0-0.429-0.34-0.795-0.819-0.795z" fill="#2B2B59"/>
<path d="m215.91 125.49h-1.349v3.581h-4.566v-3.581h-1.349v8.449h1.349v-3.632h4.566v3.632h1.349v-8.449zm2.754-0.505c-0.492 0-0.845 0.378-0.845 0.82 0 0.466 0.353 0.807 0.845 0.807 0.48 0 0.833-0.341 0.833-0.807 0-0.442-0.353-0.82-0.833-0.82zm0.656 8.954v-6.255h-1.312v6.255h1.312zm3.397 0v-9.08h-1.312v9.08h1.312zm5.747-1.399c-0.327 0.214-0.731 0.34-1.059 0.34-0.618 0-1.034-0.378-1.034-1.16v-2.951h2.144v-1.085h-2.144v-1.942h-1.312v1.942h-1.349v1.085h1.349v3.039c0 1.551 0.908 2.308 2.258 2.308 0.529 0 0.958-0.126 1.551-0.479l-0.404-1.097zm4.129-4.995c-1.854 0-3.367 1.324-3.367 3.267 0 1.942 1.513 3.279 3.367 3.279 1.841 0 3.342-1.337 3.342-3.279 0-1.943-1.501-3.267-3.342-3.267zm0 5.411c-1.097 0-2.081-0.845-2.081-2.144s0.984-2.144 2.081-2.144c1.072 0 2.068 0.845 2.068 2.144s-0.996 2.144-2.068 2.144zm8.292-5.449c-0.933 0-1.665 0.341-2.169 0.946v-0.769h-1.312v6.255h1.312v-2.888c0-1.576 0.744-2.333 1.866-2.333 0.896 0 1.489 0.681 1.489 1.703v3.518h1.324v-3.783c0-1.564-1.009-2.649-2.51-2.649zm14.72-2.017h-1.349v3.581h-4.566v-3.581h-1.349v8.449h1.349v-3.632h4.566v3.632h1.349v-8.449zm4.823 2.055c-1.854 0-3.368 1.324-3.368 3.267 0 1.942 1.514 3.279 3.368 3.279 1.841 0 3.342-1.337 3.342-3.279 0-1.943-1.501-3.267-3.342-3.267zm0 5.411c-1.097 0-2.081-0.845-2.081-2.144s0.984-2.144 2.081-2.144c1.072 0 2.068 0.845 2.068 2.144s-0.996 2.144-2.068 2.144zm8.569-0.416c-0.328 0.214-0.731 0.34-1.059 0.34-0.618 0-1.034-0.378-1.034-1.16v-2.951h2.144v-1.085h-2.144v-1.942h-1.312v1.942h-1.35v1.085h1.35v3.039c0 1.551 0.908 2.308 2.257 2.308 0.53 0 0.959-0.126 1.552-0.479l-0.404-1.097zm7.13-1.867c-0.063-1.879-1.45-3.166-3.127-3.166-1.766 0-3.242 1.325-3.242 3.317 0 1.98 1.489 3.292 3.191 3.292 1.388 0 2.497-0.656 3.014-1.967l-1.172-0.253c-0.442 0.883-1.148 1.085-1.842 1.085-0.92 0-1.765-0.694-1.892-1.854h5.07v-0.454zm-3.127-2.005c0.857 0 1.576 0.504 1.778 1.526h-3.683c0.202-1.009 1.085-1.526 1.905-1.526zm5.891 5.271v-9.08h-1.311v9.08h1.311zm1.46-1.677c0.164 1.261 1.362 1.854 2.762 1.854 1.564 0 2.636-0.706 2.636-2.018 0-0.883-0.618-1.475-1.627-1.69l-1.489-0.328c-0.554-0.126-0.756-0.353-0.756-0.706 0-0.441 0.34-0.82 1.11-0.82 0.807 0 1.324 0.416 1.425 1.022l1.248-0.265c-0.227-1.047-1.198-1.804-2.636-1.804-1.5 0-2.471 0.82-2.471 1.98 0 0.883 0.617 1.463 1.702 1.703l1.362 0.278c0.58 0.126 0.845 0.365 0.845 0.744 0 0.491-0.479 0.832-1.236 0.832-0.82 0-1.475-0.315-1.564-1.059l-1.311 0.277z" fill="#2B2B59"/>
<g clip-path="url(#g)">
<path d="m204.13 151.47-1.062-3.497c-0.209-0.687-1.178-0.687-1.38 0l-1.069 3.497h-3.216c-0.701 0-0.99 0.903-0.419 1.308l2.63 1.878-1.033 3.331c-0.209 0.672 0.571 1.214 1.127 0.788l2.666-2.023 2.667 2.03c0.556 0.426 1.336-0.115 1.127-0.787l-1.033-3.331 2.63-1.879c0.571-0.412 0.282-1.308-0.419-1.308h-3.216v-7e-3z" fill="#FFA630"/>
</g>
<g clip-path="url(#f)">
<path d="m221.48 151.47-1.062-3.497c-0.21-0.687-1.178-0.687-1.38 0l-1.07 3.497h-3.215c-0.701 0-0.99 0.903-0.419 1.308l2.63 1.878-1.033 3.331c-0.21 0.672 0.571 1.214 1.127 0.788l2.666-2.023 2.667 2.03c0.556 0.426 1.336-0.115 1.127-0.787l-1.034-3.331 2.631-1.879c0.57-0.412 0.281-1.308-0.42-1.308h-3.215v-7e-3z" fill="#FFA630"/>
</g>
<g clip-path="url(#e)">
<path d="m238.82 151.47-1.062-3.497c-0.21-0.687-1.178-0.687-1.38 0l-1.07 3.497h-3.215c-0.701 0-0.99 0.903-0.419 1.308l2.63 1.878-1.033 3.331c-0.21 0.672 0.571 1.214 1.127 0.788l2.666-2.023 2.666 2.03c0.557 0.426 1.337-0.115 1.127-0.787l-1.033-3.331 2.63-1.879c0.571-0.412 0.282-1.308-0.419-1.308h-3.215v-7e-3z" fill="#FFA630"/>
</g>
<g clip-path="url(#d)">
<path d="m256.16 151.47-1.062-3.497c-0.21-0.687-1.178-0.687-1.381 0l-1.069 3.497h-3.215c-0.701 0-0.99 0.903-0.419 1.308l2.63 1.878-1.033 3.331c-0.21 0.672 0.57 1.214 1.127 0.788l2.666-2.023 2.666 2.03c0.556 0.426 1.337-0.115 1.127-0.787l-1.033-3.331 2.63-1.879c0.571-0.412 0.282-1.308-0.419-1.308h-3.215v-7e-3z" fill="#FFA630"/>
</g>
<g clip-path="url(#c)">
<path d="m271.4 148.08c0.099-0.335 0.58-0.348 0.688 3e-3l1.046 3.446v0.314h3.577c0.347 0 0.496 0.445 0.208 0.654l-2.629 1.878-0.213 0.151 0.078 0.25 1.033 3.331c0.104 0.334-0.285 0.606-0.562 0.393h-1e-3l-2.666-2.031-0.219-0.166-0.219 0.166-2.666 2.023-1e-3 1e-3c-0.278 0.213-0.667-0.059-0.563-0.393v-1e-3l1.034-3.331 0.077-0.249-0.212-0.152-2.631-1.878-1e-3 -1e-3c-0.281-0.199-0.141-0.652 0.211-0.652h3.482l0.078-0.255 1.07-3.498 1e-3 -3e-3z" fill="#F6F6F6" stroke="#FFA630" stroke-width=".72255"/>
</g>
<path d="m328.47 154.93v-1.214h-0.915v-4.69h-1.987l-3.388 4.525v1.379h3.918v1.49h1.457v-1.49h0.915zm-2.372-1.214h-2.273l2.273-3.233v3.233zm3.975 1.06c-0.508 0-0.872 0.397-0.872 0.849 0 0.475 0.364 0.839 0.872 0.839s0.872-0.364 0.872-0.839c0-0.452-0.364-0.849-0.872-0.849zm6.701 0.287h-2.792l1.137-1.115c1.082-1.059 1.611-1.755 1.611-2.781 0-1.368-1.026-2.306-2.516-2.306-1.501 0-2.538 0.905-2.604 2.361l1.368 0.287c0.066-0.938 0.497-1.357 1.214-1.357 0.64 0 1.093 0.43 1.093 1.048 0 0.828-0.596 1.325-1.049 1.777l-2.494 2.472v0.971h5.032v-1.357z" fill="#2B2B59"/>
<path d="m199.12 193.46c0.682-0.29 1.098-0.933 1.098-1.791 0-1.513-1.135-2.547-2.813-2.547-1.702 0-2.85 1.097-2.976 2.686l1.248 0.252c0.076-1.16 0.757-1.753 1.728-1.753 0.946 0 1.564 0.542 1.564 1.362 0 0.744-0.567 1.198-1.501 1.198h-1.122v1.173h1.198c0.996 0 1.576 0.48 1.576 1.261 0 0.858-0.706 1.438-1.702 1.438-1.085 0-1.715-0.681-1.829-1.778l-1.274 0.252c0.127 1.614 1.337 2.712 3.103 2.712 1.753 0 2.938-1.06 2.938-2.636 0-0.896-0.466-1.551-1.236-1.829zm3.22 2.737c-0.48 0-0.833 0.366-0.833 0.794 0 0.454 0.353 0.808 0.833 0.808 0.479 0 0.819-0.354 0.819-0.808 0-0.428-0.34-0.794-0.819-0.794z" fill="#2B2B59"/>
<path d="m214.84 193.39c0.618-0.101 1.337-0.744 1.337-1.816 0-1.362-0.959-2.283-2.51-2.283h-4.023v8.45h4.111c1.791 0 2.674-0.958 2.674-2.32 0-1.186-0.769-1.892-1.589-1.98v-0.051zm-3.847-2.938h2.535c0.782 0 1.337 0.479 1.337 1.198 0 0.782-0.542 1.299-1.349 1.299h-2.523v-2.497zm0 6.129v-2.548h2.661c0.82 0 1.388 0.492 1.388 1.261 0 0.77-0.517 1.287-1.426 1.287h-2.623zm13.143-5.095h-1.312v0.719c-0.542-0.568-1.324-0.896-2.27-0.896-1.64 0-3.103 1.337-3.103 3.304 0 1.98 1.463 3.305 3.103 3.305 0.946 0 1.728-0.328 2.27-0.896v0.719h1.312v-6.255zm-3.368 5.271c-1.147 0-2.043-0.819-2.043-2.144 0-1.311 0.896-2.144 2.043-2.144 1.034 0 2.056 0.833 2.056 2.144 0 1.325-1.022 2.144-2.056 2.144zm6.667 0.984v-9.08h-1.312v9.08h1.312zm5.747-1.4c-0.328 0.215-0.732 0.341-1.059 0.341-0.618 0-1.035-0.379-1.035-1.161v-2.951h2.144v-1.084h-2.144v-1.943h-1.311v1.943h-1.35v1.084h1.35v3.04c0 1.551 0.908 2.308 2.257 2.308 0.53 0 0.959-0.126 1.552-0.48l-0.404-1.097zm2.22-7.554c-0.491 0-0.845 0.378-0.845 0.82 0 0.466 0.354 0.807 0.845 0.807 0.48 0 0.833-0.341 0.833-0.807 0-0.442-0.353-0.82-0.833-0.82zm0.656 8.954v-6.255h-1.311v6.255h1.311zm9.817-6.432c-1.035 0-1.829 0.442-2.334 1.148-0.403-0.732-1.185-1.148-2.081-1.148-0.895 0-1.551 0.328-2.005 0.883v-0.706h-1.311v6.255h1.311v-3.102c0-1.4 0.656-2.119 1.665-2.119 0.807 0 1.412 0.58 1.412 1.501v3.72h1.312v-3.102c0-1.4 0.668-2.119 1.69-2.119 0.807 0 1.413 0.58 1.413 1.501v3.72h1.299v-3.985c0-1.476-1.072-2.447-2.371-2.447zm7.053 0.038c-1.854 0-3.368 1.324-3.368 3.266 0 1.943 1.514 3.279 3.368 3.279 1.841 0 3.342-1.336 3.342-3.279 0-1.942-1.501-3.266-3.342-3.266zm0 5.41c-1.098 0-2.081-0.845-2.081-2.144s0.983-2.144 2.081-2.144c1.072 0 2.068 0.845 2.068 2.144s-0.996 2.144-2.068 2.144zm8.506-5.347c-1.085 0-1.879 0.58-2.384 1.413v-1.337h-1.311v6.255h1.311v-2.207c0-1.715 0.782-2.825 2.371-2.825 0.114 0 0.265 0 0.366 0.013l0.088-1.262c-0.164-0.05-0.29-0.05-0.441-0.05zm7.316 3.065c-0.063-1.879-1.45-3.166-3.127-3.166-1.766 0-3.242 1.324-3.242 3.317 0 1.98 1.489 3.292 3.191 3.292 1.388 0 2.497-0.656 3.014-1.968l-1.172-0.252c-0.442 0.883-1.148 1.085-1.842 1.085-0.92 0-1.765-0.694-1.892-1.854h5.07v-0.454zm-3.127-2.006c0.857 0 1.576 0.505 1.778 1.526h-3.683c0.202-1.009 1.085-1.526 1.905-1.526z" fill="#2B2B59"/>
<g clip-path="url(#z)">
<path d="m204.13 215.28-1.062-3.497c-0.21-0.687-1.178-0.687-1.38 0l-1.07 3.497h-3.215c-0.701 0-0.99 0.903-0.419 1.307l2.63 1.879-1.033 3.331c-0.21 0.672 0.57 1.214 1.127 0.788l2.666-2.023 2.666 2.03c0.557 0.426 1.337-0.116 1.127-0.788l-1.033-3.331 2.63-1.878c0.571-0.412 0.282-1.308-0.419-1.308h-3.215v-7e-3z" fill="#FFA630"/>
</g>
<g clip-path="url(#y)">
<path d="m221.48 215.27-1.063-3.497c-0.209-0.687-1.177-0.687-1.38 0l-1.069 3.497h-3.215c-0.701 0-0.99 0.903-0.419 1.308l2.63 1.878-1.034 3.331c-0.209 0.672 0.571 1.214 1.128 0.788l2.666-2.023 2.666 2.03c0.556 0.426 1.337-0.116 1.127-0.788l-1.033-3.331 2.63-1.878c0.571-0.412 0.282-1.308-0.419-1.308h-3.215v-7e-3z" fill="#FFA630"/>
</g>
<g clip-path="url(#x)">
<path d="m238.82 215.27-1.062-3.497c-0.209-0.687-1.178-0.687-1.38 0l-1.069 3.497h-3.216c-0.7 0-0.989 0.903-0.419 1.308l2.63 1.878-1.033 3.331c-0.209 0.672 0.571 1.214 1.127 0.788l2.667-2.023 2.666 2.03c0.556 0.426 1.337-0.116 1.127-0.788l-1.033-3.331 2.63-1.878c0.571-0.412 0.282-1.308-0.419-1.308h-3.216v-7e-3z" fill="#FFA630"/>
</g>
<g clip-path="url(#w)">
<path d="m256.16 215.27-1.062-3.497c-0.21-0.687-1.178-0.687-1.38 0l-1.07 3.497h-3.215c-0.701 0-0.99 0.903-0.419 1.308l2.63 1.878-1.033 3.331c-0.21 0.672 0.57 1.214 1.127 0.788l2.666-2.023 2.666 2.03c0.557 0.426 1.337-0.116 1.127-0.788l-1.033-3.331 2.63-1.878c0.571-0.412 0.282-1.308-0.419-1.308h-3.215v-7e-3z" fill="#FFA630"/>
</g>
<g clip-path="url(#v)">
<path d="m271.4 211.88c0.099-0.335 0.581-0.348 0.688 3e-3l1.047 3.445v0.315h3.576c0.348 0 0.496 0.445 0.209 0.653-1e-3 0-1e-3 1e-3 -1e-3 1e-3l-2.629 1.877-0.212 0.152 0.077 0.249 1.034 3.331v1e-3c0.104 0.334-0.285 0.606-0.563 0.393l-1e-3 -1e-3 -2.666-2.03-0.218-0.166-0.219 0.166-2.666 2.023-2e-3 1e-3c-0.277 0.213-0.666-0.059-0.562-0.393v-1e-3l1.033-3.331 0.077-0.249-0.212-0.152-2.63-1.878-1e-3 -1e-3c-0.282-0.2-0.141-0.652 0.21-0.652h3.483l0.078-0.256 1.069-3.497 1e-3 -3e-3z" fill="#F6F6F6" stroke="#FFA630" stroke-width=".72255"/>
</g>
<path d="m328.47 218.73v-1.214h-0.915v-4.69h-1.987l-3.388 4.525v1.379h3.918v1.49h1.457v-1.49h0.915zm-2.372-1.214h-2.273l2.273-3.233v3.233zm3.975 1.059c-0.508 0-0.872 0.398-0.872 0.85 0 0.475 0.364 0.839 0.872 0.839s0.872-0.364 0.872-0.839c0-0.452-0.364-0.85-0.872-0.85zm6.701 0.287h-2.792l1.137-1.114c1.082-1.06 1.611-1.755 1.611-2.781 0-1.368-1.026-2.307-2.516-2.307-1.501 0-2.538 0.905-2.604 2.362l1.368 0.287c0.066-0.938 0.497-1.357 1.214-1.357 0.64 0 1.093 0.43 1.093 1.048 0 0.828-0.596 1.324-1.049 1.777l-2.494 2.472v0.971h5.032v-1.358z" fill="#2B2B59"/>
<path d="m201.15 259.68v-1.109h-1.186v-5.474h-1.765l-4.137 5.322v1.261h4.578v1.867h1.324v-1.867h1.186zm-2.51-1.109h-3.09l3.09-4.112v4.112zm4.265 1.425c-0.479 0-0.832 0.365-0.832 0.794 0 0.454 0.353 0.807 0.832 0.807s0.82-0.353 0.82-0.807c0-0.429-0.341-0.794-0.82-0.794z" fill="#2B2B59"/>
<path d="m213.66 260.45c-1.702 0-3.039-1.35-3.039-3.128s1.337-3.128 3.039-3.128c1.325 0 2.409 0.706 2.788 2.132l1.311-0.379c-0.479-1.866-2.106-3.027-4.099-3.027-2.459 0-4.401 1.943-4.401 4.402 0 2.472 1.942 4.401 4.401 4.401 1.993 0 3.633-1.147 4.099-3.127l-1.311-0.278c-0.379 1.425-1.463 2.132-2.788 2.132zm9.176-5.335c-0.933 0-1.665 0.34-2.169 0.946v-3.595h-1.312v9.081h1.312v-2.888c0-1.577 0.744-2.333 1.866-2.333 0.896 0 1.488 0.681 1.488 1.702v3.519h1.325v-3.784c0-1.564-1.009-2.648-2.51-2.648zm5.109-2.522c-0.492 0-0.845 0.378-0.845 0.819 0 0.467 0.353 0.807 0.845 0.807 0.479 0 0.832-0.34 0.832-0.807 0-0.441-0.353-0.819-0.832-0.819zm0.656 8.954v-6.256h-1.312v6.256h1.312zm4.847-1.034c-1.16 0-2.018-0.82-2.018-2.094 0-1.236 0.858-2.093 2.018-2.093 0.832 0 1.551 0.428 1.791 1.349l1.261-0.366c-0.391-1.337-1.64-2.194-3.052-2.194-1.791 0-3.304 1.349-3.304 3.304 0 1.98 1.513 3.304 3.304 3.304 1.45 0 2.711-0.857 3.052-2.207l-1.211-0.315c-0.302 0.908-1.009 1.312-1.841 1.312zm10.634-5.222h-1.312v0.719c-0.542-0.567-1.324-0.895-2.27-0.895-1.64 0-3.103 1.337-3.103 3.304 0 1.98 1.463 3.304 3.103 3.304 0.946 0 1.728-0.327 2.27-0.895v0.719h1.312v-6.256zm-3.368 5.272c-1.148 0-2.043-0.82-2.043-2.144 0-1.311 0.895-2.144 2.043-2.144 1.034 0 2.056 0.833 2.056 2.144 0 1.324-1.022 2.144-2.056 2.144zm11.308-5.272h-1.274v0.618c-0.479-0.504-1.198-0.782-2.157-0.782-1.601 0-3.064 1.274-3.064 3.015 0 1.74 1.463 3.039 3.064 3.039 0.959 0 1.678-0.277 2.157-0.782v0.404c0 1.211-0.782 1.955-1.968 1.955-0.996 0-1.513-0.379-1.98-1.11l-1.072 0.794c0.505 0.934 1.552 1.501 3.052 1.501 1.955 0 3.242-1.084 3.242-2.951v-5.701zm-3.216 4.755c-1.123 0-2.006-0.757-2.006-1.904 0-1.161 0.883-1.905 2.006-1.905 1.021 0 1.942 0.744 1.942 1.905 0 1.147-0.921 1.904-1.942 1.904zm8.032-4.893c-1.854 0-3.367 1.324-3.367 3.266s1.513 3.279 3.367 3.279c1.841 0 3.342-1.337 3.342-3.279s-1.501-3.266-3.342-3.266zm0 5.41c-1.097 0-2.081-0.845-2.081-2.144s0.984-2.144 2.081-2.144c1.072 0 2.068 0.845 2.068 2.144s-0.996 2.144-2.068 2.144z" fill="#2B2B59"/>
<g clip-path="url(#u)">
<path d="m204.13 279.08-1.062-3.497c-0.209-0.686-1.178-0.686-1.38 0l-1.069 3.497h-3.216c-0.701 0-0.99 0.904-0.419 1.308l2.63 1.879-1.033 3.331c-0.209 0.672 0.571 1.214 1.127 0.787l2.666-2.023 2.667 2.031c0.556 0.426 1.336-0.116 1.127-0.788l-1.033-3.331 2.63-1.879c0.571-0.411 0.282-1.307-0.419-1.307h-3.216v-8e-3z" fill="#FFA630"/>
</g>
<g clip-path="url(#t)">
<path d="m221.48 279.08-1.063-3.497c-0.209-0.686-1.177-0.686-1.38 0l-1.069 3.497h-3.215c-0.701 0-0.99 0.904-0.419 1.308l2.63 1.879-1.034 3.331c-0.209 0.672 0.571 1.214 1.128 0.787l2.666-2.023 2.666 2.031c0.556 0.426 1.337-0.116 1.127-0.788l-1.033-3.331 2.63-1.879c0.571-0.411 0.282-1.307-0.419-1.307h-3.215v-8e-3z" fill="#FFA630"/>
</g>
<g clip-path="url(#s)">
<path d="m238.82 279.08-1.062-3.497c-0.21-0.686-1.178-0.686-1.38 0l-1.07 3.497h-3.215c-0.701 0-0.99 0.904-0.419 1.308l2.63 1.879-1.033 3.331c-0.21 0.672 0.571 1.214 1.127 0.787l2.666-2.023 2.666 2.031c0.557 0.426 1.337-0.116 1.128-0.788l-1.034-3.331 2.63-1.879c0.571-0.411 0.282-1.307-0.419-1.307h-3.215v-8e-3z" fill="#FFA630"/>
</g>
<g clip-path="url(#r)">
<path d="m256.16 279.08-1.062-3.497c-0.209-0.686-1.178-0.686-1.38 0l-1.069 3.497h-3.216c-0.701 0-0.99 0.904-0.419 1.308l2.63 1.879-1.033 3.331c-0.21 0.672 0.571 1.214 1.127 0.787l2.666-2.023 2.667 2.031c0.556 0.426 1.336-0.116 1.127-0.788l-1.033-3.331 2.63-1.879c0.57-0.411 0.281-1.307-0.419-1.307h-3.216v-8e-3z" fill="#FFA630"/>
</g>
<g clip-path="url(#q)">
<path d="m271.4 275.68c0.099-0.334 0.58-0.348 0.688 4e-3l1.046 3.445v0.315h3.577c0.347 0 0.496 0.445 0.208 0.653l-2.629 1.878-0.213 0.152 0.078 0.249 1.033 3.331v1e-3c0.104 0.334-0.285 0.606-0.562 0.393l-1e-3 -1e-3 -2.666-2.03-0.219-0.167-0.219 0.166-2.666 2.024-1e-3 1e-3c-0.278 0.212-0.667-0.06-0.563-0.394l1.034-3.331 0.077-0.249-0.212-0.152-2.631-1.879h-1e-3c-0.281-0.2-0.141-0.652 0.211-0.652h3.482l0.078-0.256 1.07-3.497 1e-3 -4e-3z" fill="#F6F6F6" stroke="#FFA630" stroke-width=".72255"/>
</g>
<path d="m328.47 282.53v-1.214h-0.915v-4.69h-1.987l-3.388 4.524v1.38h3.918v1.489h1.457v-1.489h0.915zm-2.372-1.214h-2.273l2.273-3.234v3.234zm3.975 1.059c-0.508 0-0.872 0.397-0.872 0.85 0 0.474 0.364 0.839 0.872 0.839s0.872-0.365 0.872-0.839c0-0.453-0.364-0.85-0.872-0.85zm6.701 0.287h-2.792l1.137-1.114c1.082-1.06 1.611-1.755 1.611-2.781 0-1.369-1.026-2.307-2.516-2.307-1.501 0-2.538 0.905-2.604 2.362l1.368 0.287c0.066-0.938 0.497-1.358 1.214-1.358 0.64 0 1.093 0.431 1.093 1.049 0 0.827-0.596 1.324-1.049 1.776l-2.494 2.472v0.971h5.032v-1.357z" fill="#2B2B59"/>
<path d="m195.98 320.06 0.088-1.942h3.897v-1.223h-5.145l-0.164 4.376h2.737c0.983 0 1.639 0.53 1.639 1.438 0 0.958-0.693 1.589-1.715 1.589-1.034 0-1.816-0.643-1.816-1.942l-1.312 0.252c0 1.879 1.388 2.913 3.09 2.913 1.841 0 3.052-1.173 3.052-2.837 0-1.64-1.135-2.624-2.837-2.624h-1.514zm6.286 3.733c-0.48 0-0.833 0.366-0.833 0.795 0 0.454 0.353 0.807 0.833 0.807 0.479 0 0.819-0.353 0.819-0.807 0-0.429-0.34-0.795-0.819-0.795z" fill="#2B2B59"/>
<path d="m211.6 316.72c-1.879 0-3.103 1.009-3.103 2.497 0 1.501 1.085 2.056 2.132 2.296l1.841 0.378c0.845 0.177 1.186 0.479 1.186 1.122 0 0.77-0.644 1.312-1.779 1.312s-1.98-0.53-2.181-1.614l-1.438 0.302c0.214 1.64 1.702 2.51 3.493 2.51 1.942 0 3.242-0.996 3.242-2.585 0-1.324-0.909-2.031-2.17-2.308l-1.828-0.391c-0.732-0.151-1.072-0.467-1.072-1.06 0-0.744 0.655-1.286 1.652-1.286 1.009 0 1.778 0.593 1.929 1.488l1.35-0.277c-0.303-1.451-1.539-2.384-3.254-2.384zm10.869 5.36c-0.063-1.879-1.451-3.165-3.128-3.165-1.766 0-3.241 1.324-3.241 3.317 0 1.98 1.488 3.291 3.19 3.291 1.388 0 2.498-0.656 3.015-1.967l-1.173-0.252c-0.442 0.882-1.148 1.084-1.842 1.084-0.92 0-1.765-0.694-1.891-1.854h5.07v-0.454zm-3.128-2.005c0.858 0 1.576 0.504 1.778 1.526h-3.682c0.201-1.009 1.084-1.526 1.904-1.526zm10.697-0.984h-1.312v0.719c-0.542-0.567-1.324-0.895-2.27-0.895-1.64 0-3.103 1.336-3.103 3.304 0 1.98 1.463 3.304 3.103 3.304 0.946 0 1.728-0.328 2.27-0.895v0.719h1.312v-6.256zm-3.368 5.272c-1.147 0-2.043-0.82-2.043-2.144 0-1.312 0.896-2.144 2.043-2.144 1.034 0 2.056 0.832 2.056 2.144 0 1.324-1.022 2.144-2.056 2.144zm9.113-0.416c-0.328 0.214-0.731 0.34-1.059 0.34-0.618 0-1.034-0.378-1.034-1.16v-2.951h2.144v-1.085h-2.144v-1.942h-1.312v1.942h-1.349v1.085h1.349v3.039c0 1.551 0.908 2.308 2.258 2.308 0.529 0 0.958-0.126 1.551-0.479l-0.404-1.097zm5.222 0c-0.328 0.214-0.731 0.34-1.059 0.34-0.618 0-1.034-0.378-1.034-1.16v-2.951h2.144v-1.085h-2.144v-1.942h-1.312v1.942h-1.349v1.085h1.349v3.039c0 1.551 0.908 2.308 2.258 2.308 0.529 0 0.958-0.126 1.551-0.479l-0.404-1.097zm2.776 1.4v-9.081h-1.312v9.081h1.312zm7.816-3.267c-0.064-1.879-1.451-3.165-3.128-3.165-1.766 0-3.241 1.324-3.241 3.317 0 1.98 1.488 3.291 3.19 3.291 1.388 0 2.497-0.656 3.015-1.967l-1.173-0.252c-0.442 0.882-1.148 1.084-1.842 1.084-0.92 0-1.765-0.694-1.891-1.854h5.07v-0.454zm-3.128-2.005c0.857 0 1.576 0.504 1.778 1.526h-3.683c0.202-1.009 1.085-1.526 1.905-1.526z" fill="#2B2B59"/>
<g clip-path="url(#o)">
<path d="m204.13 342.88-1.062-3.497c-0.21-0.686-1.178-0.686-1.38 0l-1.07 3.497h-3.215c-0.701 0-0.99 0.903-0.419 1.308l2.63 1.879-1.033 3.331c-0.21 0.672 0.57 1.213 1.127 0.787l2.666-2.023 2.666 2.03c0.557 0.427 1.337-0.115 1.127-0.787l-1.033-3.331 2.63-1.879c0.571-0.412 0.282-1.308-0.419-1.308h-3.215v-7e-3z" fill="#FFA630"/>
</g>
<g clip-path="url(#n)">
<path d="m221.48 342.88-1.063-3.497c-0.209-0.686-1.177-0.686-1.38 0l-1.069 3.497h-3.215c-0.701 0-0.99 0.903-0.419 1.308l2.63 1.879-1.034 3.331c-0.209 0.672 0.571 1.213 1.128 0.787l2.666-2.023 2.666 2.03c0.556 0.427 1.337-0.115 1.127-0.787l-1.033-3.331 2.63-1.879c0.571-0.412 0.282-1.308-0.419-1.308h-3.215v-7e-3z" fill="#FFA630"/>
</g>
<g clip-path="url(#m)">
<path d="m238.82 342.88-1.062-3.497c-0.209-0.686-1.178-0.686-1.38 0l-1.069 3.497h-3.216c-0.7 0-0.989 0.903-0.419 1.308l2.63 1.879-1.033 3.331c-0.209 0.672 0.571 1.213 1.127 0.787l2.667-2.023 2.666 2.03c0.556 0.427 1.337-0.115 1.127-0.787l-1.033-3.331 2.63-1.879c0.571-0.412 0.282-1.308-0.419-1.308h-3.216v-7e-3z" fill="#FFA630"/>
</g>
<g clip-path="url(#l)">
<path d="m256.16 342.88-1.062-3.497c-0.209-0.686-1.178-0.686-1.38 0l-1.069 3.497h-3.216c-0.701 0-0.99 0.903-0.419 1.308l2.63 1.879-1.033 3.331c-0.21 0.672 0.571 1.213 1.127 0.787l2.666-2.023 2.667 2.03c0.556 0.427 1.336-0.115 1.127-0.787l-1.033-3.331 2.63-1.879c0.57-0.412 0.281-1.308-0.419-1.308h-3.216v-7e-3z" fill="#FFA630"/>
</g>
<g clip-path="url(#k)">
<path d="m271.4 339.48c0.099-0.335 0.58-0.348 0.688 3e-3v1e-3l1.046 3.445v0.315h3.577c0.347 0 0.496 0.444 0.208 0.653l-2.629 1.878-0.213 0.152 0.078 0.249 1.033 3.331c0.104 0.334-0.285 0.606-0.562 0.394l-1e-3 -1e-3 -2.666-2.03-0.219-0.167-0.219 0.166-2.666 2.023-1e-3 1e-3c-0.278 0.213-0.667-0.059-0.563-0.393l1.034-3.331 0.077-0.25-0.212-0.151-2.631-1.879-1e-3 -1e-3c-0.281-0.199-0.141-0.652 0.211-0.652h3.482l0.078-0.255 1.07-3.497 1e-3 -4e-3z" fill="#F6F6F6" stroke="#FFA630" stroke-width=".72255"/>
</g>
<path d="m328.47 346.34v-1.213h-0.915v-4.69h-1.987l-3.388 4.524v1.379h3.918v1.49h1.457v-1.49h0.915zm-2.372-1.213h-2.273l2.273-3.234v3.234zm3.975 1.059c-0.508 0-0.872 0.397-0.872 0.85 0 0.474 0.364 0.838 0.872 0.838s0.872-0.364 0.872-0.838c0-0.453-0.364-0.85-0.872-0.85zm6.701 0.287h-2.792l1.137-1.115c1.082-1.059 1.611-1.754 1.611-2.781 0-1.368-1.026-2.306-2.516-2.306-1.501 0-2.538 0.905-2.604 2.362l1.368 0.286c0.066-0.938 0.497-1.357 1.214-1.357 0.64 0 1.093 0.431 1.093 1.048 0 0.828-0.596 1.325-1.049 1.777l-2.494 2.472v0.971h5.032v-1.357z" fill="#2B2B59"/>
<defs>
<filter id="b" x=".022156" y=".42352" width="174.8" height="377.31" color-interpolation-filters="sRGB" filterUnits="userSpaceOnUse">
<feFlood flood-opacity="0" result="BackgroundImageFix"/>
<feColorMatrix in="SourceAlpha" result="hardAlpha" values="0 0 0 0 0 0 0 0 0 0 0 0 0 0 0 0 0 0 127 0"/>
<feOffset dx="1.57648" dy="1.57648"/>
<feGaussianBlur stdDeviation="1.57648"/>
<feComposite in2="hardAlpha" operator="out"/>
<feColorMatrix values="0 0 0 0 0 0 0 0 0 0 0 0 0 0 0 0 0 0 0.04 0"/>
<feBlend in2="BackgroundImageFix" result="effect1_dropShadow_1724_7747"/>
<feBlend in="SourceGraphic" in2="effect1_dropShadow_1724_7747" result="shape"/>
</filter>
<filter id="a" x="179.53" y=".42352" width="174.8" height="377.31" color-interpolation-filters="sRGB" filterUnits="userSpaceOnUse">
<feFlood flood-opacity="0" result="BackgroundImageFix"/>
<feColorMatrix in="SourceAlpha" result="hardAlpha" values="0 0 0 0 0 0 0 0 0 0 0 0 0 0 0 0 0 0 127 0"/>
<feOffset dx="1.57648" dy="1.57648"/>
<feGaussianBlur stdDeviation="1.57648"/>
<feComposite in2="hardAlpha" operator="out"/>
<feColorMatrix values="0 0 0 0 0 0 0 0 0 0 0 0 0 0 0 0 0 0 0.04 0"/>
<feBlend in2="BackgroundImageFix" result="effect1_dropShadow_1724_7747"/>
<feBlend in="SourceGraphic" in2="effect1_dropShadow_1724_7747" result="shape"/>
</filter>
<clipPath id="aa">
<rect transform="translate(193.71 80.442)" width="17.341" height="17.341" fill="#fff"/>
</clipPath>
<clipPath id="p">
<rect transform="translate(211.05 80.442)" width="17.341" height="17.341" fill="#fff"/>
</clipPath>
<clipPath id="j">
<rect transform="translate(228.39 80.442)" width="17.341" height="17.341" fill="#fff"/>
</clipPath>
<clipPath id="i">
<rect transform="translate(245.73 80.442)" width="17.341" height="17.341" fill="#fff"/>
</clipPath>
<clipPath id="h">
<rect transform="translate(263.07 80.442)" width="17.341" height="17.341" fill="#fff"/>
</clipPath>
<clipPath id="g">
<rect transform="translate(193.71 144.25)" width="17.341" height="17.341" fill="#fff"/>
</clipPath>
<clipPath id="f">
<rect transform="translate(211.05 144.25)" width="17.341" height="17.341" fill="#fff"/>
</clipPath>
<clipPath id="e">
<rect transform="translate(228.39 144.25)" width="17.341" height="17.341" fill="#fff"/>
</clipPath>
<clipPath id="d">
<rect transform="translate(245.73 144.25)" width="17.341" height="17.341" fill="#fff"/>
</clipPath>
<clipPath id="c">
<rect transform="translate(263.07 144.25)" width="17.341" height="17.341" fill="#fff"/>
</clipPath>
<clipPath id="z">
<rect transform="translate(193.71 208.05)" width="17.341" height="17.341" fill="#fff"/>
</clipPath>
<clipPath id="y">
<rect transform="translate(211.05 208.05)" width="17.341" height="17.341" fill="#fff"/>
</clipPath>
<clipPath id="x">
<rect transform="translate(228.39 208.05)" width="17.341" height="17.341" fill="#fff"/>
</clipPath>
<clipPath id="w">
<rect transform="translate(245.73 208.05)" width="17.341" height="17.341" fill="#fff"/>
</clipPath>
<clipPath id="v">
<rect transform="translate(263.07 208.05)" width="17.341" height="17.341" fill="#fff"/>
</clipPath>
<clipPath id="u">
<rect transform="translate(193.71 271.85)" width="17.341" height="17.341" fill="#fff"/>
</clipPath>
<clipPath id="t">
<rect transform="translate(211.05 271.85)" width="17.341" height="17.341" fill="#fff"/>
</clipPath>
<clipPath id="s">
<rect transform="translate(228.39 271.85)" width="17.341" height="17.341" fill="#fff"/>
</clipPath>
<clipPath id="r">
<rect transform="translate(245.73 271.85)" width="17.341" height="17.341" fill="#fff"/>
</clipPath>
<clipPath id="q">
<rect transform="translate(263.07 271.85)" width="17.341" height="17.341" fill="#fff"/>
</clipPath>
<clipPath id="o">
<rect transform="translate(193.71 335.65)" width="17.341" height="17.341" fill="#fff"/>
</clipPath>
<clipPath id="n">
<rect transform="translate(211.05 335.65)" width="17.341" height="17.341" fill="#fff"/>
</clipPath>
<clipPath id="m">
<rect transform="translate(228.39 335.65)" width="17.341" height="17.341" fill="#fff"/>
</clipPath>
<clipPath id="l">
<rect transform="translate(245.73 335.65)" width="17.341" height="17.341" fill="#fff"/>
</clipPath>
<clipPath id="k">
<rect transform="translate(263.07 335.65)" width="17.341" height="17.341" fill="#fff"/>
</clipPath>
</defs>
</svg>
