<svg width="1500px" height="365px" viewBox="0 0 1500 365" version="1.1" xmlns="http://www.w3.org/2000/svg" xmlns:xlink="http://www.w3.org/1999/xlink">
 <title>
  Birdeye_FullLogo_Color
 </title>
 <g id="Birdeye_FullLogo_Color" stroke="none" stroke-width="1" fill="none" fill-rule="evenodd">
  <g id="Group">
   <path d="M507.560594,57.3079415 C555.447858,57.3079415 583.15406,84.9539689 583.15406,122.156648 C583.15406,147.072203 567.419674,167.550742 547.580665,174.035613 C569.471985,179.155247 590.679202,199.292477 590.679202,230.692903 C590.679202,269.888827 561.177637,298.714725 516.113998,299.287324 L514.743684,299.296009 L416.916845,299.296009 L416.916845,57.3079415 L507.560594,57.3079415 Z M503.455972,198.609859 L469.592835,198.609859 L469.592835,255.26715 L503.455972,255.26715 C524.321137,255.26715 536.977056,244.345263 536.977056,226.938505 C536.977056,210.381606 524.908234,198.842461 504.089517,198.613334 L503.455972,198.609859 Z M498.325193,102.019418 L469.592835,102.019418 L469.592835,154.239692 L499.009297,154.239692 C517.822151,154.239692 530.136019,144.341731 530.136019,127.9589 C530.136019,112.415689 519.743422,102.224749 498.958229,102.022485 L498.325193,102.019418 Z" id="Shape" fill="#212121" fill-rule="nonzero">
   </path>
   <path d="M634.577943,108.477224 C651.646348,108.477224 665.301073,94.8225 665.301073,78.0954627 C665.301073,61.3684253 651.646348,47.7137009 634.577943,47.7137009 C618.192274,47.7137009 604.537549,61.3684253 604.537549,78.0954627 C604.537549,94.8225 618.192274,108.477224 634.577943,108.477224 Z" id="Path" fill="#212121" fill-rule="nonzero">
   </path>
   <polygon id="Path" fill="#212121" fill-rule="nonzero" points="661.036966 299.296009 661.036966 129.797759 608.801656 129.797759 608.801656 299.296009">
   </polygon>
   <path d="M739.477641,299.296009 L739.477641,225.10522 C739.477641,191.25781 758.217447,178.949661 779.001594,178.949661 C784.11245,178.949661 789.56403,179.291554 795.356333,180.659126 L795.356333,129.375171 C791.949096,128.349492 786.83824,127.665705 781.727384,127.665705 C768.098435,127.665705 746.63284,133.135994 737.774023,152.282004 L737.774023,129.375171 L687.687634,129.375171 L687.687634,299.296009 L739.477641,299.296009 Z" id="Path" fill="#212121" fill-rule="nonzero">
   </path>
   <path d="M977.350673,51.9778078 L977.351331,269.084241 L977.360932,271.073748 L977.360932,271.073748 L977.381296,273.01315 L977.381296,273.01315 L977.400417,274.27738 L977.400417,274.27738 L977.436767,276.129369 L977.436767,276.129369 L977.48154,277.926569 L977.48154,277.926569 L977.515634,279.093397 L977.515634,279.093397 L977.592842,281.349579 L977.592842,281.349579 L977.680345,283.498993 L977.680345,283.498993 L977.776061,285.537476 L977.776061,285.537476 L977.90409,287.923244 L977.90409,287.923244 L978.064659,290.537339 L978.064659,290.537339 L978.252679,293.226283 L978.252679,293.226283 L978.430828,295.505391 L978.430828,295.505391 L978.71293,298.744865 L928.990542,298.744865 L928.863868,297.935208 L928.863868,297.935208 L928.634014,296.284438 L928.634014,296.284438 L928.486002,295.109255 L928.486002,295.109255 L928.333261,293.792056 L928.333261,293.792056 L928.181702,292.354144 L928.181702,292.354144 L928.108213,291.596577 L928.108213,291.596577 L927.969514,290.017536 L927.969514,290.017536 L927.905782,289.201388 L927.905782,289.201388 L927.819283,287.95137 L927.819283,287.95137 L927.768761,287.10471 L927.768761,287.10471 L927.724817,286.250506 L927.724817,286.250506 L927.672851,284.960878 L927.672851,284.960878 L927.639842,283.669253 C927.63732,283.525961 927.635195,283.382799 927.633483,283.239821 L927.628285,282.384619 L927.628285,282.384619 C919.795306,293.973127 902.767091,302.494089 882.333232,302.494089 C834.65423,302.494089 798.554414,265.683533 798.554414,213.535246 C798.554414,163.091151 832.610844,125.25808 880.630411,125.25808 C902.920345,125.25808 915.518091,131.724741 921.999662,137.655881 L922.492404,138.116841 C922.972892,138.576472 923.416807,139.031747 923.825842,139.479353 L924.223312,139.92428 C924.351969,140.071655 924.476812,140.218056 924.597905,140.363358 L924.949996,140.795852 C925.063651,140.938837 925.173619,141.080602 925.279962,141.221024 L925.588177,141.638139 L925.588177,141.638139 L925.875019,142.04646 L925.875019,142.04646 L926.140862,142.445251 L926.140862,142.445251 L926.266028,142.640843 L926.266028,51.9778078 L977.350673,51.9778078 Z M888.803954,171.952952 C868.71066,171.952952 850.660752,185.586491 850.660752,213.876085 C850.660752,241.82484 868.71066,256.140056 888.803954,256.140056 C908.897248,256.140056 926.947156,241.82484 926.947156,213.876085 C926.947156,185.586491 908.897248,171.952952 888.803954,171.952952 Z" id="Shape" fill="#212121" fill-rule="nonzero">
   </path>
   <path d="M1076.08385,124.467625 C1128.60444,124.467625 1161.0035,156.944018 1161.0035,211.641101 C1161.0035,212.270837 1160.99825,212.905834 1160.98845,213.541016 L1160.97454,214.302998 L1160.97454,214.302998 L1160.95651,215.063208 C1160.79661,221.132598 1160.26757,226.844731 1159.98037,227.708369 L1159.98037,227.708369 L1041.97958,227.708369 C1043.00271,246.852348 1060.39589,260.526619 1080.51741,260.526619 C1099.27476,260.526619 1109.84709,251.638343 1114.62169,238.305929 L1114.62169,238.305929 L1157.93412,250.612773 C1149.74909,280.012455 1122.80671,304.626142 1079.83532,304.626142 C1033.11247,304.626142 991.505251,271.124179 991.505251,214.034099 C991.505251,159.337016 1032.08934,124.467625 1076.08385,124.467625 Z M1076.76594,165.490437 C1054.9392,165.490437 1044.02584,181.557706 1043.00271,194.206406 L1043.00271,194.206406 L1110.87022,194.206406 C1110.18813,181.215849 1101.32102,165.490437 1076.76594,165.490437 Z" id="Combined-Shape" fill="#212121" fill-rule="nonzero">
   </path>
   <polygon id="Path" fill="#212121" fill-rule="nonzero" points="1237.74984 364.323639 1342.22804 129.797759 1287.25748 129.797759 1249.69996 220.472009 1208.38668 129.797759 1150.34323 129.797759 1221.70253 276.376434 1183.12071 364.323639">
   </polygon>
   <path d="M1415.08035,124.467625 C1467.60094,124.467625 1500,156.944018 1500,211.641101 C1500,212.270837 1499.99475,212.905834 1499.98495,213.541016 L1499.97103,214.302998 L1499.97103,214.302998 L1499.95301,215.063208 C1499.79311,221.132598 1499.26407,226.844731 1498.97687,227.708369 L1498.97687,227.708369 L1380.97608,227.708369 C1381.99921,246.852348 1399.39239,260.526619 1419.51391,260.526619 C1438.27126,260.526619 1448.84359,251.638343 1453.61819,238.305929 L1453.61819,238.305929 L1496.93062,250.612773 C1488.74559,280.012455 1461.80321,304.626142 1418.83182,304.626142 C1372.10897,304.626142 1330.50175,271.124179 1330.50175,214.034099 C1330.50175,159.337016 1371.08584,124.467625 1415.08035,124.467625 Z M1415.76244,165.490437 C1393.9357,165.490437 1383.02233,181.557706 1381.99921,194.206406 L1381.99921,194.206406 L1449.86671,194.206406 C1449.18463,181.215849 1440.31752,165.490437 1415.76244,165.490437 Z" id="Combined-Shape" fill="#212121" fill-rule="nonzero">
   </path>
   <path d="M214.489196,178.721494 L214.489981,178.719157 L214.436639,178.697342 C213.70397,178.381802 212.961888,178.087297 212.206471,177.816946 L135.844204,147.674678 L135.837928,147.685585 C133.747391,146.762338 131.438779,146.239554 129.003872,146.239554 C119.692548,146.239554 112.143865,153.736945 112.143865,162.984999 C112.143865,166.808099 113.448392,170.320334 115.619727,173.13916 L115.609529,173.150068 L115.741315,173.300436 C116.127261,173.789718 116.534386,174.26186 116.972104,174.705174 L171.720647,237.179014 L171.722216,237.177455 C178.548428,244.825214 188.508485,249.651811 199.607552,249.651811 C220.184243,249.651811 236.864613,233.084003 236.864613,212.647128 C236.864613,197.466139 227.656835,184.427707 214.489196,178.721494 M189.336682,52.7639327 C206.652,47.3522004 225.308304,56.2899708 231.007492,72.7245639 C236.70903,89.1583781 227.293934,106.866457 209.977832,112.278969 C192.665647,117.688364 174.00856,108.750594 168.307022,92.3175587 C162.608617,75.8821867 172.023714,58.1733284 189.336682,52.7639327 M309.18195,72.8283535 C306.66372,69.2875426 303.003548,67.0197097 299.029087,66.0209595 L299.025952,65.9625303 L284.097624,62.057121 C283.881305,61.3590866 283.740228,60.6524825 283.505883,59.9552271 C268.004623,14.2113779 217.271661,-10.6631109 170.185547,4.39682655 C145.793283,12.1967383 127.24397,29.2183396 117.109134,50.1406757 L90.135156,92.924111 L26.1119292,67.7083955 L26.069606,67.7551389 C22.0371467,66.1206787 17.4372432,65.7615338 12.9627418,67.1918811 C3.07400729,70.3564079 -2.30495639,80.707729 0.950010267,90.3173886 C1.42732178,91.721248 2.10370902,93.0004585 2.86944521,94.2033214 L2.75815091,94.3310867 L69.5551141,182.593492 C69.6154638,182.672177 69.6452468,182.76021 69.7055965,182.838116 C69.7651625,182.920696 69.8435387,182.984578 69.9070235,183.066379 L117.696173,249.929666 C138.577963,287.155313 183.755615,309.558636 227.367309,295.610411 C274.449504,280.552811 300.0566,231.262698 284.554557,185.518848 C279.72893,171.281594 271.486881,159.070666 261.005622,149.451658 C274.218294,136.855096 283.18454,120.601644 286.535126,102.96381 L300.973603,98.8005327 L300.964198,98.6431633 C302.244082,98.1609275 303.496535,97.5774143 304.67453,96.7866721 C312.727693,91.3800214 314.747449,80.6547532 309.18195,72.8283535" id="Fill-1" fill="#1976D2">
   </path>
  </g>
 </g>
</svg>