<svg data-name="Layer 1" height="157" id="Layer_1" viewBox="0 0 683 157" width="683" xmlns="http://www.w3.org/2000/svg">
<defs>
<style>
      .cls-1 {
        fill: #0396a6;
      }

      .cls-2 {
        fill: #f23869;
      }
    </style>
</defs>
<title>GatherUp-Logo-PACK-v3-SVG</title>
<g>
<path class="cls-1" d="M200.647,108.235q-10.5,10.855-24.159,10.855a34.9,34.9,0,0,1-15.4-3.444,39.7,39.7,0,0,1-12.372-9.278,43.378,43.378,0,0,1-8.228-13.539,44.3,44.3,0,0,1-2.976-16.1,43.4,43.4,0,0,1,2.976-15.991,42.3,42.3,0,0,1,8.228-13.3A38.717,38.717,0,0,1,161.2,38.384a37.252,37.252,0,0,1,15.756-3.326q11.905,0,19.958,4.96a32.05,32.05,0,0,1,12.138,13.129l-10.037,7.237a23.288,23.288,0,0,0-9.337-10.155,26.005,26.005,0,0,0-13.072-3.383,22.534,22.534,0,0,0-10.621,2.508,26.086,26.086,0,0,0-8.17,6.653,29.787,29.787,0,0,0-5.193,9.629,36.255,36.255,0,0,0-1.809,11.437,33.5,33.5,0,0,0,2.042,11.788,30.657,30.657,0,0,0,5.6,9.571,26.518,26.518,0,0,0,8.461,6.477,23.875,23.875,0,0,0,10.621,2.393,26.447,26.447,0,0,0,12.079-2.918,35.453,35.453,0,0,0,11.029-9.22v-8.87h-17.39V76.606h28.361v41.9H200.647Z"></path>
<path class="cls-1" d="M241.146,119.673a22.717,22.717,0,0,1-8.229-1.459,19.867,19.867,0,0,1-6.536-4.026,18.763,18.763,0,0,1-4.318-6.07,18.269,18.269,0,0,1-1.575-7.586,16.339,16.339,0,0,1,1.867-7.819,18.265,18.265,0,0,1,5.311-6.069,25.772,25.772,0,0,1,8.169-3.968,36.665,36.665,0,0,1,10.446-1.4,47.939,47.939,0,0,1,8.52.758,43.213,43.213,0,0,1,7.586,2.043v-4.2q0-6.766-3.851-10.562t-11.088-3.793a26.758,26.758,0,0,0-9.629,1.809,48.786,48.786,0,0,0-9.745,5.193l-3.969-8.169q11.787-7.935,24.51-7.936,12.6,0,19.608,6.419t7,18.44v22.058q0,4.088,3.385,4.2v10.971q-1.869.35-3.21.467c-.895.076-1.771.117-2.626.117A8.246,8.246,0,0,1,267,117.222a7.967,7.967,0,0,1-2.509-4.785l-.35-3.852a27.222,27.222,0,0,1-10.1,8.228A29.648,29.648,0,0,1,241.146,119.673Zm3.5-9.453a23.063,23.063,0,0,0,8.811-1.693,15.2,15.2,0,0,0,6.478-4.727,5.917,5.917,0,0,0,2.451-4.435V91.312a38.885,38.885,0,0,0-6.945-1.984,38.292,38.292,0,0,0-7.177-.7q-6.888,0-11.263,2.976a9.12,9.12,0,0,0-4.377,7.878,9.938,9.938,0,0,0,3.385,7.645A12.308,12.308,0,0,0,244.647,110.22Z"></path>
<path class="cls-1" d="M324.244,115.354a63.763,63.763,0,0,1-6.77,2.626,28.607,28.607,0,0,1-9.22,1.459,19.59,19.59,0,0,1-5.719-.816,13.963,13.963,0,0,1-4.726-2.451,11.11,11.11,0,0,1-3.21-4.26,15.593,15.593,0,0,1-1.167-6.361V67.387h-8.053V57.466h8.053V37.392H306.27V57.466h13.305v9.921H306.27v34.079a6.327,6.327,0,0,0,2.042,4.726,6.914,6.914,0,0,0,4.494,1.459,14.27,14.27,0,0,0,5.135-.933q2.451-.933,3.618-1.517Z"></path>
<path class="cls-1" d="M387.85,118.506H375.011V84.31q0-8.4-2.976-12.43a10.013,10.013,0,0,0-8.578-4.026,14.636,14.636,0,0,0-5.369,1.049,19.27,19.27,0,0,0-5.077,2.977,22.622,22.622,0,0,0-4.26,4.552,19.384,19.384,0,0,0-2.8,5.777v36.3H333.112v-85.2H345.95V69.721a25.331,25.331,0,0,1,9.512-9.8,25.623,25.623,0,0,1,13.13-3.5,19.222,19.222,0,0,1,9.4,2.042,16.5,16.5,0,0,1,5.894,5.427,21.869,21.869,0,0,1,3.093,7.878,49.669,49.669,0,0,1,.876,9.512Z"></path>
<path class="cls-1" d="M430.447,119.673a32.472,32.472,0,0,1-12.954-2.509,30.11,30.11,0,0,1-9.979-6.828A30.748,30.748,0,0,1,401.1,100.3a32.5,32.5,0,0,1-2.276-12.138,32.96,32.96,0,0,1,2.276-12.2,31.277,31.277,0,0,1,6.419-10.154,29.714,29.714,0,0,1,9.979-6.886,32.776,32.776,0,0,1,13.071-2.509,31.435,31.435,0,0,1,12.9,2.567,30.88,30.88,0,0,1,9.862,6.828,29.27,29.27,0,0,1,6.244,9.92,32.974,32.974,0,0,1,2.159,11.846q0,1.4-.117,2.626t-.233,2.043h-48.9A20.885,20.885,0,0,0,414.4,99.6a19.316,19.316,0,0,0,4.084,5.66,17.94,17.94,0,0,0,12.43,4.961,20.371,20.371,0,0,0,5.077-.643,17.855,17.855,0,0,0,4.61-1.867,16.321,16.321,0,0,0,3.735-2.976,13.947,13.947,0,0,0,2.568-3.851l10.971,3.15A25.429,25.429,0,0,1,447.429,115.3,32.37,32.37,0,0,1,430.447,119.673ZM449,83.376a20.532,20.532,0,0,0-1.925-7.119,18.336,18.336,0,0,0-4.027-5.544,17.981,17.981,0,0,0-5.719-3.56,18.686,18.686,0,0,0-6.886-1.284,18.263,18.263,0,0,0-12.488,4.844,17.517,17.517,0,0,0-3.968,5.544,21.346,21.346,0,0,0-1.867,7.119Z"></path>
<path class="cls-1" d="M506.542,68.554A28.73,28.73,0,0,0,493.294,72a18.157,18.157,0,0,0-8.228,9.162v37.348H472.229V57.466h11.9V71.121a27.943,27.943,0,0,1,8.228-10.1,19.964,19.964,0,0,1,10.912-4.142H505.2a7.073,7.073,0,0,1,1.343.116Z"></path>
<path class="cls-1" d="M552.058,107.3a20.952,20.952,0,0,0,10.854-2.568,20.478,20.478,0,0,0,6.944-6.711,28.276,28.276,0,0,0,3.735-9.454A53.249,53.249,0,0,0,574.7,77.657V35.641h13.188V77.657A62.781,62.781,0,0,1,585.9,93.705a37.094,37.094,0,0,1-6.3,13.189,30.082,30.082,0,0,1-11.146,8.927,37.682,37.682,0,0,1-16.4,3.269q-9.923,0-16.748-3.444a30.148,30.148,0,0,1-11.03-9.22,37.864,37.864,0,0,1-6.069-13.246,63.765,63.765,0,0,1-1.867-15.523V35.641h13.072V77.657a53.786,53.786,0,0,0,1.108,11.03,28.279,28.279,0,0,0,3.735,9.453,19.806,19.806,0,0,0,7,6.652A21.39,21.39,0,0,0,552.058,107.3Z"></path>
<path class="cls-1" d="M638.307,119.673a23.932,23.932,0,0,1-12.955-3.5,26.123,26.123,0,0,1-8.87-9.1v36.3H603.644v-85.9h11.321V68.437a26.641,26.641,0,0,1,9.045-8.753,24.241,24.241,0,0,1,12.546-3.268,25.963,25.963,0,0,1,11.555,2.567,29.371,29.371,0,0,1,9.1,6.886,31.834,31.834,0,0,1,6.011,10.037,33.766,33.766,0,0,1,2.159,12.022,38.033,38.033,0,0,1-1.984,12.429,30.811,30.811,0,0,1-5.6,10.038,27.363,27.363,0,0,1-8.578,6.769A23.842,23.842,0,0,1,638.307,119.673Zm-4.2-10.971a15.672,15.672,0,0,0,7.412-1.751,18.407,18.407,0,0,0,5.718-4.668,21.348,21.348,0,0,0,3.677-6.652,23.555,23.555,0,0,0,1.284-7.7,21.637,21.637,0,0,0-1.459-7.937,21.362,21.362,0,0,0-3.968-6.536,18.475,18.475,0,0,0-6.011-4.434,17.719,17.719,0,0,0-7.586-1.634,15.623,15.623,0,0,0-5.135.933,20.381,20.381,0,0,0-5.019,2.568,19.975,19.975,0,0,0-4.085,3.793,12.807,12.807,0,0,0-2.451,4.726V95.4a23.542,23.542,0,0,0,3.035,5.252,22.285,22.285,0,0,0,4.143,4.2,20.076,20.076,0,0,0,4.96,2.8A14.917,14.917,0,0,0,634.105,108.7Z"></path>
</g>
<g>
<path class="cls-2" d="M96.552,74.186v45.293l-42.858,0a5.563,5.563,0,0,0-4.023,1.726L34.1,137.843V124.909a5.294,5.294,0,0,0-5.294-5.294H11.7V34.761H41.914a1.018,1.018,0,0,0,.591-1.847l-11.247-8.02a1.7,1.7,0,0,0-.986-.316H11.8A10.319,10.319,0,0,0,1.515,34.866v84.612a10.35,10.35,0,0,0,10.32,10.32H22.22a1.7,1.7,0,0,1,1.7,1.7V149.9a5.457,5.457,0,0,0,3.5,5.053,5.614,5.614,0,0,0,2.034.383,5.434,5.434,0,0,0,3.974-1.731l22.345-23.945,41.135,0a9.84,9.84,0,0,0,9.827-9.843V79.739a1.7,1.7,0,0,0-.7-1.377L98.7,73.084A1.359,1.359,0,0,0,96.552,74.186Z"></path>
<path class="cls-1" d="M84.678,52.11,65.858,65.95a1.7,1.7,0,0,1-2.628-1.866l6.9-22.457L51,27.991a1.7,1.7,0,0,1,.984-3.078l23.686-.025L82.665,2.719a1.7,1.7,0,0,1,3.224-.039l7.609,22.2,23.178.053A1.7,1.7,0,0,1,117.667,28L98.992,41.516l7.675,22.64a1.7,1.7,0,0,1-2.6,1.922Z"></path>
</g>
<path class="cls-1" d="M674.759,66.384a6.224,6.224,0,0,1-2.329-.427,5.681,5.681,0,0,1-1.856-1.18A5.3,5.3,0,0,1,669.355,63a5.923,5.923,0,0,1,0-4.456,5.237,5.237,0,0,1,1.219-1.771A5.762,5.762,0,0,1,672.43,55.6a6.224,6.224,0,0,1,2.329-.427,6.289,6.289,0,0,1,2.337.427,5.832,5.832,0,0,1,1.871,1.172,5.279,5.279,0,0,1,1.235,1.771,5.836,5.836,0,0,1,0,4.456,5.347,5.347,0,0,1-1.235,1.778,5.75,5.75,0,0,1-1.871,1.18A6.289,6.289,0,0,1,674.759,66.384Zm0-.761a5.384,5.384,0,0,0,1.972-.357,4.859,4.859,0,0,0,1.592-.994,4.59,4.59,0,0,0,1.063-1.529,4.835,4.835,0,0,0,.388-1.949,4.779,4.779,0,0,0-.38-1.91,4.725,4.725,0,0,0-1.048-1.537,4.846,4.846,0,0,0-1.584-1.025,5.259,5.259,0,0,0-2-.373,5.193,5.193,0,0,0-2,.373,4.779,4.779,0,0,0-1.569,1.025,4.712,4.712,0,0,0-1.032,1.529,4.785,4.785,0,0,0-.373,1.887,4.88,4.88,0,0,0,.373,1.91,4.706,4.706,0,0,0,2.6,2.578A5.211,5.211,0,0,0,674.759,65.623Zm-2.515-8.292h3.027a1.912,1.912,0,0,1,.87.2,2.249,2.249,0,0,1,.691.529,2.49,2.49,0,0,1,.45.729,2.175,2.175,0,0,1,.163.823,2.254,2.254,0,0,1-.341,1.2,1.812,1.812,0,0,1-.9.776l1.6,2.578h-1.662l-1.429-2.3h-.993v2.3h-1.475Zm2.9,3.261a.776.776,0,0,0,.614-.256,1.058,1.058,0,0,0,.225-.722.969.969,0,0,0-.257-.738.864.864,0,0,0-.613-.24h-1.4v1.956Z"></path>
</svg>