<svg id="Layer_1" data-name="Layer 1" xmlns="http://www.w3.org/2000/svg" viewBox="0 0 1336 238.62"><defs><style>.cls-1{fill:#08a7e0;}.cls-2{fill:#4d4e50;}.cls-3{fill:#f05923;}.cls-4{fill:#f89d1c;}.cls-5{fill:#30b66a;}</style></defs><title>local-clarity-logo-vector_rgb</title><path class="cls-1" d="M1239.87,503.21c-.19-1,.53-1.68.94-2.43q19.31-36.21,38.69-72.38a3,3,0,0,0-.1-3.37q-22.29-40.27-44.51-80.58c-.27-.49-.52-1-.82-1.45-.83-1.28-.39-1.61,1-1.6,8.33,0,16.65.06,25,0,1.37,0,1.78.74,2.28,1.67q14.81,27.88,29.64,55.77c.42.79.86,1.57,1.31,2.39.89-.48,1-1.38,1.32-2.08q14-28.17,28-56.36c.39-.8.72-1.38,1.78-1.37,8.53,0,17.06,0,25.6.05.12,0,.23.1.56.25-1.85,3.62-3.68,7.23-5.54,10.83q-22.65,44-45.33,87.89L1268.43,501c-.38.74-.72,1.5-1.08,2.25Z" transform="translate(-14.57 -264.59)"/><path class="cls-1" d="M14.57,330c.7-3.5,1.24-7,2.12-10.48a65.78,65.78,0,0,1,14.54-27.9L49,309.35c-.54.72-1.09,1.44-1.62,2.16-8.68,11.75-11.2,24.86-8.21,39,2.12,10,7.66,18.14,15.28,24.89q-3.55,3.63-7.12,7.25-7.08,7.16-14.17,14.3c-8.92-14.75-15.36-30.42-17.81-47.6-.19-1.31,0-2.73-.8-3.93Z" transform="translate(-14.57 -264.59)"/><path class="cls-1" d="M832.69,407.15v9.3c0,6.17-.07,12.35,0,18.52,0,1.75-.65,2.53-2.12,3.3a98,98,0,0,1-28.1,9.83,93.75,93.75,0,0,1-20.64,1,81.25,81.25,0,0,1-30.26-7.25A83.4,83.4,0,0,1,731.56,429c-12.55-10.77-21.62-23.88-26.41-39.76a76.39,76.39,0,0,1-3.25-17.08,104,104,0,0,1-.29-12.22,87.27,87.27,0,0,1,5.69-27.22A89.86,89.86,0,0,1,722.1,308c13.57-16.28,30.63-26.53,51.65-29.81a87.34,87.34,0,0,1,56.46,9.58c1.76.91,2.58,1.9,2.54,4.06-.15,8.88-.06,17.76-.06,26.79a5.71,5.71,0,0,1-2.24-1.46c-8.69-6.85-18.16-12.2-29-14.79a61.18,61.18,0,0,0-18.49-1.46c-15.73,1.09-28.71,7.79-39.39,19.32a59,59,0,0,0-15.11,29c-2.88,14.57-2,28.93,4.64,42.49A61.29,61.29,0,0,0,758,418.21a56.53,56.53,0,0,0,22.79,7.19c11.33,1.18,22.2-.19,32.44-5.35a86.31,86.31,0,0,0,16-10.62c1-.82,2.18-1.39,2.89-2.57Z" transform="translate(-14.57 -264.59)"/><path class="cls-1" d="M988.82,353.43c0-3.71,0-7,0-10.23,0-1.29.23-1.83,1.68-1.81q10.51.11,21,0c1.4,0,1.74.47,1.74,1.8q0,50.69,0,101.36c0,1.42-.5,1.72-1.8,1.71q-10.52-.09-21,0c-1.28,0-1.68-.34-1.63-1.63.09-2.89,0-5.79,0-8.87a5.16,5.16,0,0,0-2.09,1.49c-9.1,7.83-19.46,12.42-31.66,12.06-26.19-.77-40.59-19.05-45.42-35.49-5-17-4.56-33.81,4.08-49.62,7.63-13.95,19.19-22.95,35.34-25.2,14.51-2,26.93,2.39,37.51,12.34Zm1.43,40.64A38.29,38.29,0,0,0,987.56,379c-4.71-11.24-13-17.86-25.32-18.49-11.81-.61-20.85,4.62-26.26,15-6.86,13.13-6.45,26.6,1.25,39.25,10.42,17.12,32.47,15.28,42.57,5.78C987.44,413.35,990.19,404.24,990.25,394.07Z" transform="translate(-14.57 -264.59)"/><path class="cls-2" d="M597.52,435.54a79.76,79.76,0,0,1-8.17,6.36c-21.32,13.78-49.18,8-63.82-13.37-8.55-12.47-11-26.42-9.85-41.19,1.05-13.38,6-25.1,15.41-34.78a45,45,0,0,1,30.22-13.9c13.19-.89,24.31,3.62,33.84,12.52l2.09,1.92a3.78,3.78,0,0,0,.27-2.18c.17-3.09-.31-6.2.27-9.28,3.1-.45,6.22-.15,9.32-.19,4.37-.06,8.74,0,13.11,0,1.32,0,1.77.33,1.77,1.74q-.06,50.67,0,101.34c0,1.32-.3,1.79-1.72,1.78q-10.5-.11-21,0c-1.36,0-1.81-.35-1.76-1.74C597.59,441.69,597.52,438.85,597.52,435.54Zm-28.21-8c12.41,0,22.09-6.34,26.78-17.81a41.11,41.11,0,0,0,.9-28.88c-3.9-12.13-13.36-19.44-25.88-20.34-11.33-.83-22,5.28-27.11,16.33-5.71,12.25-5.34,24.72,1.14,36.55C550.25,422.69,558.47,427.57,569.31,427.52Z" transform="translate(-14.57 -264.59)"/><path class="cls-2" d="M337.58,449.28a54.58,54.58,0,0,1-57.09-50.46c-1.15-16.6,3.21-31.09,14.84-43.17a53.45,53.45,0,0,1,33.91-16.74c13.57-1.38,26.45.81,37.9,8.59,18.05,12.26,26.08,29.42,24.77,51.2-1.55,25.65-21.35,44.94-43.2,49.31A71.85,71.85,0,0,1,337.58,449.28Zm-32.45-55.61a47.45,47.45,0,0,0,.46,6.84c1.4,9.75,5.65,17.76,14.31,23,5.93,3.56,12.47,4.42,19.23,3.95,10.52-.73,18.65-5.52,23.79-14.79,4.82-8.71,5.35-18.16,3.41-27.68-5.72-28-36.71-29.22-49.82-17.88C308.35,374.13,305.16,383.2,305.13,393.67Z" transform="translate(-14.57 -264.59)"/><path class="cls-2" d="M194.08,362.92q0-40.28,0-80.55c0-1.81.39-2.34,2.27-2.31q10.41.19,20.81,0c1.89,0,2.27.5,2.27,2.31q-.07,68.69,0,137.37c0,2.88,0,2.88,2.83,2.88,14.57,0,29.14,0,43.71,0,1.71,0,2.24.41,2.21,2.17-.1,6.59-.08,13.18,0,19.77,0,1.36-.37,1.75-1.75,1.75q-35.28-.07-70.55,0c-1.9,0-1.71-1-1.71-2.19Q194.1,403.5,194.08,362.92Z" transform="translate(-14.57 -264.59)"/><path class="cls-2" d="M496.63,378.39a89.27,89.27,0,0,0-10-10.47c-9.41-7.94-20.09-9.54-31.35-5.38s-17.67,12.72-19.7,24.34c-2,11.27-.15,21.84,7.63,30.79,9.75,11.21,28.47,13.3,40.53,4.59a68.44,68.44,0,0,0,11.35-11c.4-.47.81-.93,1.21-1.38.61.28.36.76.36,1.12,0,9.64,0,19.28,0,28.93a2.11,2.11,0,0,1-1.24,2.3c-18.66,9-37.65,10.18-56.16.46-19.88-10.44-29.49-27.51-29.22-50.07.34-28.33,22.66-49.78,47.08-53.37,13.33-2,26.1-.21,38.15,6,.65.34,1.39.5,1.39,1.54C496.62,357.18,496.63,367.5,496.63,378.39Z" transform="translate(-14.57 -264.59)"/><path class="cls-1" d="M882.48,355.63q0,44.12,0,88.23c0,1.87-.42,2.46-2.38,2.42q-10-.19-20,0c-1.79,0-2.13-.52-2.12-2.2q.06-67.43,0-134.85c0-14.22,0-28.44,0-42.66,0-1.5.29-2,1.91-2q10.18.15,20.39,0c1.73,0,2.17.44,2.17,2.18Q882.43,311.2,882.48,355.63Z" transform="translate(-14.57 -264.59)"/><path class="cls-2" d="M675.31,355.55q0,44.22,0,88.44c0,1.77-.32,2.34-2.22,2.3q-9.68-.21-19.35,0c-2.08,0-2.75-.39-2.74-2.65q.11-84.79.05-169.59c0-2.57.07-5.14,0-7.7,0-1.34.32-1.76,1.71-1.74,6.87.07,13.73.1,20.6,0,1.75,0,2,.6,2,2.11Q675.28,311.13,675.31,355.55Z" transform="translate(-14.57 -264.59)"/><path class="cls-1" d="M1181.17,405c0-12.9-.05-25.81,0-38.71,0-1.91-.54-2.34-2.31-2.22-2.28.15-4.58,0-6.86.06-1,0-1.32-.29-1.31-1.29q.06-10.1,0-20.19c0-1,.4-1.3,1.35-1.28,2.42,0,4.86-.08,7.28,0,1.5.08,1.83-.46,1.83-1.87-.06-11.45,0-22.9-.08-34.34,0-1.85.45-2.31,2.28-2.28q10,.18,20,0c1.71,0,2,.54,2,2.12-.06,11.24,0,22.47,0,33.71,0,2.63,0,2.63,2.73,2.63,4.78,0,9.57.05,14.36,0,1.49,0,1.87.48,1.85,1.9q-.09,9.57,0,19.15c0,1.36-.37,1.76-1.75,1.74-5.06-.08-10.13,0-15.19-.07-1.69-.05-2,.5-2,2.09.05,25.87,0,51.75.08,77.63,0,2.07-.58,2.49-2.53,2.45-6.45-.13-12.9-.15-19.35,0-2.1,0-2.44-.62-2.43-2.54C1181.21,430.85,1181.17,417.94,1181.17,405Z" transform="translate(-14.57 -264.59)"/><path class="cls-3" d="M33.18,396.94q7.09-7.14,14.17-14.3,3.57-3.61,7.12-7.25a1.82,1.82,0,0,1,.37.18,45.3,45.3,0,0,0,28.39,10.68c1.6,0,1.35,1,1.35,1.9q0,11.55,0,23.08v7.3c4.56-2.78,24.23-23.11,33.77-39.6,6,5.49,11.37,11.56,17.18,17.21a217.35,217.35,0,0,1-20.19,28.46,288.44,288.44,0,0,1-29.5,31c-1,.86-1.52,1-2.55.08C63.91,439,47.12,420,33.74,398.05,33.52,397.7,33.37,397.31,33.18,396.94Z" transform="translate(-14.57 -264.59)"/><path class="cls-1" d="M1066.67,350.55c1.41-1.32,2.51-2.34,3.58-3.39,9.94-9.67,21.39-10.68,33.81-5.83,2,.77,3.85,1.89,5.78,2.82.82.39,1.13.79.64,1.75-3.53,7-7,14-10.57,21.11-1.25-.74-2.4-1.43-3.57-2.1-9.45-5.48-23.9-4-28,12.11a53.88,53.88,0,0,0-1.67,13.37q0,26.83,0,53.68c0,1.66-.31,2.24-2.11,2.21-6.87-.12-13.73-.09-20.6,0-1.4,0-1.75-.44-1.74-1.77q0-50.67,0-101.33c0-1.35.4-1.79,1.77-1.78q10.5.09,21,0c1.23,0,1.73.27,1.67,1.6C1066.6,345.36,1066.67,347.72,1066.67,350.55Z" transform="translate(-14.57 -264.59)"/><path class="cls-4" d="M49,309.35,31.23,291.63c9.08-10.94,20.46-18.53,34.17-22.06,28-7.21,52-.05,71.79,21a7.25,7.25,0,0,1,.7,1l-17.73,17.79-1-1c-11.82-12.53-26.24-17.51-43.22-14.58C65.1,295.64,56.22,301.1,49,309.35Z" transform="translate(-14.57 -264.59)"/><path class="cls-1" d="M1149.88,393.93c0,16.71,0,33.42,0,50.13,0,1.69-.38,2.24-2.15,2.21-6.86-.1-13.73-.07-20.59,0-1.36,0-1.77-.36-1.77-1.74q.06-50.65,0-101.31c0-1.32.32-1.83,1.72-1.82,7,.06,14,.09,21,0,1.86,0,1.75.95,1.75,2.2Q1149.86,368.75,1149.88,393.93Z" transform="translate(-14.57 -264.59)"/><path class="cls-5" d="M120.16,309.38l17.73-17.79a64.16,64.16,0,0,1,12.84,22.08c5.08,14.21,5,28.65,1.55,43.14-3.32,14.05-9.24,27-16.75,39.33-5.81-5.65-11.2-11.72-17.18-17.21a102,102,0,0,0,9.69-21c2.72-8.83,4-17.78,2.29-27A48.62,48.62,0,0,0,120.16,309.38Z" transform="translate(-14.57 -264.59)"/><path class="cls-1" d="M1138.39,313.89c-8.45.69-15.73-5.94-16.56-15.08-.74-8.11,6.1-15.81,14.79-16.47a15.79,15.79,0,0,1,16.87,15.21C1153.84,307.09,1145.82,314.1,1138.39,313.89Z" transform="translate(-14.57 -264.59)"/></svg>