<svg xmlns="http://www.w3.org/2000/svg" viewBox="0 0 3257.16 698.87" xmlns:xlink="http://www.w3.org/1999/xlink">
 <g id="Layer_2" data-name="Layer 2">
  <g id="Layer_1-2" data-name="Layer 1">
   <polygon points="0 0 0 411.89 196.28 698.87 423.62 698.87 304.52 411.89 572.84 411.89 572.84 0 0 0">
   </polygon>
   <path d="M1057.12,440.11H969.94V596.73H859.26V102.53h197.86c99.54,0,174,73.78,174,169.14s-74.48,168.44-174,168.44m-4.87-233.18H969.94V336.4h82.31c39.67,0,68.21-28.54,68.21-64.73,0-36.9-28.54-64.74-68.21-64.74">
   </path>
   <path d="M1252,422.71C1252,320.39,1334.86,241,1435.09,241s183.07,79.35,183.07,181.67-82.84,181.67-183.07,181.67S1252,525,1252,422.71m260.32,0c0-49.42-33.41-83.53-77.26-83.53s-77.26,34.11-77.26,83.53,33.41,83.53,77.26,83.53,77.26-34.11,77.26-83.53">
   </path>
   <path d="M1662,422.71c0-98.84,70.29-181.67,161.48-181.67,46.63,0,84.67,23.67,98.59,42.46V89.89h105.1V596.72H1922.1V551.78c-15.06,26.5-52,52.6-98.59,52.6-91.19,0-161.48-82.83-161.48-181.67m264.49,0c0-50.11-32-86.31-79.35-86.31s-79.34,36.2-79.34,86.31,32,86.31,79.34,86.31,79.35-36.19,79.35-86.31">
   </path>
   <rect x="2113.53" y="248.7" width="105.1" height="348.03">
   </rect>
   <path d="M2300.77,447.08V248.7h105.1V429c0,50.81,14.62,80,53.6,80,39.67,0,65.43-27.14,65.43-91.18V248.7H2630v348H2524.9V551.09c-15.45,31.43-47.33,53.29-92.58,53.29-86.31,0-131.55-62.64-131.55-157.3">
   </path>
   <path d="M2716.33,248.7h105.1v45.64c13.46-27.35,48-53.3,89.1-53.3,50.12,0,97.33,25.59,112.54,72.29,15.22-44.92,53.42-72.29,101.84-72.29,84.92,0,132.25,60.56,132.25,157.31V596.73h-105.1V416.45c0-50.82-14.62-80.05-50.12-80.05-36.89,0-62.65,27.84-62.65,91.19V596.73h-105.1V416.45c0-50.82-14.62-80.05-50.12-80.05-36.89,0-62.64,27.84-62.64,91.19V596.73h-105.1Z">
   </path>
   <rect x="2112.82" y="89.89" width="105.82" height="95.67">
   </rect>
  </g>
 </g>
</svg>