<?xml version="1.0" standalone="no"?>
<!DOCTYPE svg PUBLIC "-//W3C//DTD SVG 20010904//EN"
 "http://www.w3.org/TR/2001/REC-SVG-20010904/DTD/svg10.dtd">
<svg version="1.0" xmlns="http://www.w3.org/2000/svg"
 width="512.000000pt" height="512.000000pt" viewBox="0 0 512.000000 512.000000"
 preserveAspectRatio="xMidYMid meet">
<metadata>
Created by potrace 1.14, written by Peter Selinger 2001-2017
</metadata>
<g transform="translate(0.000000,512.000000) scale(0.100000,-0.100000)"
fill="#000000" stroke="none">
<path d="M2647 4974 c-2 -2 -17 -4 -35 -6 -18 -1 -32 -6 -32 -10 0 -4 -3 -7
-7 -6 -16 3 -63 -14 -58 -22 3 -4 -7 -11 -20 -14 -14 -4 -23 -11 -20 -16 3 -6
1 -10 -4 -10 -34 0 -74 -94 -200 -478 -149 -457 -234 -717 -234 -717 0 0 -43
-130 -96 -289 -65 -198 -101 -290 -111 -292 -32 -5 -86 -15 -100 -19 -8 -2
-26 -6 -40 -9 -14 -3 -36 -7 -50 -10 -14 -3 -41 -9 -60 -13 -47 -10 -50 -10
-52 -13 -2 -1 -14 -3 -28 -5 -14 -2 -36 -6 -50 -9 -111 -26 -260 -58 -285 -61
-16 -2 -30 -4 -30 -5 0 -3 -84 -22 -110 -24 -11 -1 -24 -4 -30 -8 -5 -3 -18
-4 -27 -3 -10 2 -18 0 -18 -4 0 -4 -6 -8 -12 -8 -7 0 -29 -4 -48 -8 -19 -5
-45 -8 -57 -8 -13 1 -23 -2 -23 -6 0 -4 -8 -7 -17 -8 -18 -2 -49 -7 -100 -19
-16 -4 -36 -6 -45 -6 -10 0 -18 -3 -18 -8 0 -4 -10 -8 -22 -8 -29 1 -100 -12
-113 -20 -5 -4 -19 -8 -30 -9 -18 -2 -48 -7 -95 -16 -8 -1 -19 -5 -25 -8 -5
-4 -18 -5 -27 -4 -10 2 -18 0 -18 -4 0 -4 -10 -8 -22 -8 -56 -3 -112 -28 -172
-75 -27 -21 -45 -38 -41 -38 5 0 -1 -10 -12 -22 -35 -38 -56 -120 -50 -188 8
-79 34 -135 87 -189 37 -37 102 -77 113 -69 2 2 11 -3 20 -11 10 -7 17 -11 17
-7 0 4 14 0 30 -9 17 -9 30 -13 30 -9 0 4 7 0 17 -7 9 -8 18 -13 20 -11 1 1 5
1 8 1 12 -3 21 -6 35 -11 8 -3 35 -11 60 -19 25 -7 50 -16 55 -20 6 -4 22 -9
35 -11 14 -2 34 -9 45 -15 11 -6 22 -11 25 -11 17 -1 67 -16 77 -24 7 -5 17
-7 23 -3 5 3 10 1 10 -4 0 -6 9 -11 19 -11 11 0 40 -9 65 -20 26 -11 48 -20
51 -20 3 0 6 0 8 -1 1 0 10 -2 19 -4 9 -2 31 -10 48 -18 17 -9 28 -12 25 -7
-3 5 7 3 22 -5 15 -8 35 -15 44 -15 9 0 19 -3 23 -8 4 -4 12 -8 17 -8 5 -1 11
-3 14 -4 3 -1 8 -3 13 -4 19 -4 119 -38 137 -47 11 -5 29 -10 40 -12 11 -2 29
-8 40 -14 11 -6 23 -11 28 -12 7 -1 11 -2 25 -6 51 -14 62 -18 62 -26 0 -5
-11 -41 -24 -81 -44 -134 -334 -1022 -366 -1122 -26 -78 -31 -111 -28 -160 7
-109 72 -206 167 -249 59 -27 65 -28 131 -27 77 0 90 2 90 12 0 5 5 6 11 3 5
-4 19 1 30 11 10 9 19 13 19 8 0 -5 4 -4 8 1 4 6 27 24 52 40 25 17 47 33 48
38 2 4 10 7 17 7 7 0 15 3 17 8 3 7 79 61 147 104 14 9 33 23 41 30 8 7 16 11
19 10 2 -2 7 0 10 5 5 8 195 143 256 183 42 27 170 115 175 120 9 9 100 70
105 70 3 0 13 8 24 17 10 10 69 52 131 93 61 41 132 90 156 108 42 31 46 33
82 21 20 -6 45 -16 55 -21 11 -5 21 -7 24 -4 3 3 15 0 27 -6 11 -7 26 -13 31
-14 6 -1 71 -23 145 -49 74 -26 142 -48 150 -49 8 -2 29 -9 45 -15 17 -7 50
-18 75 -24 25 -6 47 -14 50 -17 3 -3 25 -12 50 -18 25 -7 54 -17 65 -21 11 -5
52 -18 90 -31 39 -12 77 -24 85 -27 8 -4 20 -7 25 -9 6 -1 29 -9 52 -17 22 -9
44 -13 47 -10 3 4 6 2 6 -4 0 -16 113 -36 169 -30 102 11 195 79 239 175 40
89 34 153 -33 357 -30 94 -117 357 -191 585 -107 327 -143 425 -170 461 -34
47 -102 99 -128 99 -8 0 -18 5 -22 11 -3 6 -15 9 -25 6 -11 -3 -19 -2 -19 2 0
7 -59 6 -110 -2 -77 -12 -167 -84 -207 -164 -45 -94 -40 -160 31 -373 32 -96
71 -213 86 -260 16 -47 32 -94 36 -104 6 -17 4 -18 -17 -12 -13 4 -31 9 -39
11 -8 2 -15 4 -15 4 0 2 -140 51 -159 56 -10 2 -35 10 -55 17 -20 7 -38 13
-41 13 -3 1 -12 5 -20 8 -36 15 -325 107 -337 107 -7 0 -13 4 -13 8 0 8 -7 10
-50 14 -11 1 -20 5 -20 9 0 12 -46 16 -57 5 -6 -6 -77 -56 -158 -111 -81 -55
-153 -105 -159 -110 -6 -6 -39 -28 -73 -50 -35 -22 -63 -43 -63 -47 0 -5 -7
-8 -15 -8 -8 0 -15 -3 -15 -7 0 -5 -23 -21 -50 -38 -28 -16 -50 -33 -50 -37 0
-4 -5 -8 -10 -8 -6 0 -36 -18 -66 -41 -31 -22 -57 -39 -59 -37 -2 1 3 21 10
43 219 664 295 902 295 917 0 11 -7 18 -18 18 -10 0 -22 3 -26 7 -3 4 -17 8
-29 10 -12 2 -29 6 -37 10 -8 3 -17 7 -20 8 -11 2 -116 37 -130 42 -8 4 -17 7
-20 7 -3 1 -11 5 -18 10 -7 4 -16 5 -19 2 -3 -3 -15 0 -27 6 -11 7 -32 14 -46
16 -13 2 -29 7 -35 11 -12 10 -107 36 -117 33 -5 -1 -8 2 -8 8 0 5 -7 10 -16
10 -9 0 -45 10 -81 22 -55 19 -61 23 -42 30 13 5 29 6 36 4 7 -3 13 -1 13 5 0
6 7 9 15 5 8 -3 15 -2 15 2 0 5 10 9 23 10 28 2 70 9 77 12 3 2 10 4 15 5 6 2
13 4 18 5 4 1 15 3 25 4 9 1 31 5 47 9 17 4 40 10 53 12 12 3 32 7 45 10 43
10 82 17 95 18 6 0 12 4 12 9 0 5 4 7 8 4 5 -3 34 1 65 8 31 7 57 11 57 8 0
-2 7 2 17 9 9 8 18 12 20 10 3 -3 25 0 93 14 14 3 38 8 55 11 16 3 30 6 31 7
1 1 45 137 99 302 172 531 256 785 260 785 3 0 186 -556 282 -855 28 -86 39
-106 51 -90 4 6 18 11 32 12 28 3 62 9 100 18 43 10 74 16 93 18 9 1 17 4 17
8 0 3 11 5 25 4 14 -2 25 0 25 5 0 5 8 7 17 6 10 -2 40 3 68 10 27 7 62 15 78
19 15 3 37 7 50 10 12 2 42 9 67 14 25 5 56 12 70 15 39 9 124 26 156 32 16 3
47 10 69 16 22 5 49 11 60 13 11 1 29 5 40 8 11 3 36 9 55 12 19 3 55 11 80
16 25 6 55 13 68 15 36 7 65 13 102 22 19 5 38 9 43 10 4 1 9 3 12 3 3 1 13 2
23 3 9 1 33 6 52 11 19 5 42 10 50 11 8 1 31 6 50 10 19 4 43 7 53 8 9 0 17 3
17 6 0 4 6 7 13 7 17 1 78 13 100 19 11 3 31 8 45 10 44 8 67 12 67 14 0 1 11
3 25 5 27 5 62 12 70 15 3 1 10 3 15 4 61 12 149 96 180 173 35 85 30 177 -15
261 -18 34 -36 62 -40 62 -3 0 -16 9 -28 20 -35 33 -93 61 -136 67 -71 8 -116
8 -116 -1 0 -4 -6 -6 -14 -3 -8 3 -17 3 -20 -1 -4 -3 -14 -7 -24 -8 -20 -3
-21 -3 -242 -51 -91 -20 -175 -36 -187 -37 -13 0 -23 -3 -23 -7 0 -4 -8 -6
-17 -4 -10 1 -22 0 -28 -4 -10 -6 -22 -8 -65 -14 -14 -2 -43 -9 -65 -15 -22
-6 -53 -13 -70 -16 -26 -4 -58 -11 -100 -20 -48 -11 -74 -16 -95 -20 -14 -3
-36 -8 -50 -11 -14 -4 -36 -8 -50 -10 -14 -2 -26 -4 -27 -5 -3 -3 -6 -3 -53
-13 -19 -4 -46 -10 -60 -13 -14 -3 -35 -6 -47 -7 -13 -1 -23 -4 -23 -7 0 -3
-10 -7 -22 -7 -13 -1 -37 -4 -53 -8 -31 -6 -31 -5 -54 67 -12 40 -26 82 -31
93 -5 11 -79 236 -165 500 -226 691 -224 686 -253 729 -37 54 -146 129 -180
125 -4 -1 -9 0 -12 1 -9 4 -80 7 -83 4z"/>
</g>
</svg>
