<?xml version="1.0" encoding="UTF-8"?>
<svg fill="none" viewBox="0 0 518 426" xmlns="http://www.w3.org/2000/svg">
<g filter="url(#ae)">
<rect x="2" y="88" width="248" height="74" rx="6" fill="#fff"/>
<rect x="2.5" y="88.5" width="247" height="73" rx="5.5" stroke="#E6E6EA"/>
</g>
<g filter="url(#t)">
<mask id="k" x="10" y="96" width="57" height="57" style="mask-type:alpha" maskUnits="userSpaceOnUse">
<rect x="10" y="96" width="57" height="57" rx="2" fill="#015A75"/>
</mask>
<g mask="url(#k)">
<rect x="10" y="96" width="57" height="57" rx="2" fill="#1877F2"/>
</g>
<g clip-path="url(#ak)">
<path d="m35.778 140.84c-7.8375-1.403-13.778-8.168-13.778-16.335 0-9.075 7.425-16.5 16.5-16.5s16.5 7.425 16.5 16.5c0 8.167-5.94 14.932-13.778 16.335l-0.9075-0.742h-3.63l-0.9075 0.742z" fill="url(#a)"/>
<path d="m44.935 129.12 0.7425-4.62h-4.3725v-3.218c0-1.32 0.495-2.31 2.475-2.31h2.145v-4.207c-1.155-0.165-2.475-0.33-3.63-0.33-3.795 0-6.435 2.31-6.435 6.435v3.63h-4.125v4.62h4.125v11.632c0.9075 0.165 1.815 0.248 2.7225 0.248s1.815-0.083 2.7225-0.248v-11.632h3.63z" fill="#fff"/>
</g>
</g>
<path d="m84.296 121.25h5.824v-1.968h-8v10.72h2.176v-4.16h5.2v-1.968h-5.2v-2.624zm15.137 0.768h-2.112v0.64c-0.672-0.56-1.552-0.88-2.64-0.88-2.032 0-3.92 1.728-3.92 4.24s1.888 4.224 3.92 4.224c1.088 0 1.968-0.32 2.64-0.864v0.624h2.112v-7.984zm-4.384 6.384c-1.28 0-2.24-0.912-2.24-2.384s0.96-2.4 2.24-2.4c1.136 0 2.272 0.928 2.272 2.4s-1.136 2.384-2.272 2.384zm10.25-0.096c-1.328 0-2.224-0.912-2.224-2.288 0-1.36 0.896-2.304 2.224-2.304 0.928 0 1.68 0.464 1.968 1.584l2.032-0.576c-0.528-1.792-2.144-2.944-4-2.944-2.336 0-4.272 1.728-4.272 4.24s1.936 4.224 4.272 4.224c1.904 0 3.552-1.168 4-2.992l-1.952-0.496c-0.368 1.104-1.12 1.552-2.048 1.552zm13.138-2.448c-0.08-2.432-1.92-4.08-4.048-4.08-2.288 0-4.128 1.728-4.128 4.24s1.84 4.224 4.096 4.224c1.744 0 3.168-0.8 3.872-2.464l-1.888-0.4c-0.576 0.976-1.36 1.056-1.984 1.056-0.976 0-1.792-0.704-2-1.856h6.08v-0.72zm-4.048-2.24c0.848 0 1.616 0.448 1.888 1.472h-3.856c0.256-0.992 1.168-1.472 1.968-1.472zm10.405-1.84c-1.088 0-1.968 0.32-2.64 0.88v-4.176h-2.112v11.52h2.112v-0.624c0.672 0.544 1.552 0.864 2.64 0.864 2.032 0 3.92-1.712 3.92-4.224s-1.888-4.24-3.92-4.24zm-0.368 6.624c-1.136 0-2.272-0.912-2.272-2.384s1.136-2.4 2.272-2.4c1.28 0 2.24 0.928 2.24 2.4s-0.96 2.384-2.24 2.384zm9.594-6.576c-2.384 0-4.352 1.68-4.352 4.192s1.968 4.192 4.352 4.192c2.336 0 4.304-1.68 4.304-4.192s-1.968-4.192-4.304-4.192zm0 6.576c-1.152 0-2.304-0.896-2.304-2.384s1.152-2.384 2.304-2.384c1.104 0 2.256 0.896 2.256 2.384s-1.152 2.384-2.256 2.384zm9.609-6.576c-2.384 0-4.352 1.68-4.352 4.192s1.968 4.192 4.352 4.192c2.336 0 4.304-1.68 4.304-4.192s-1.968-4.192-4.304-4.192zm0 6.576c-1.152 0-2.304-0.896-2.304-2.384s1.152-2.384 2.304-2.384c1.104 0 2.256 0.896 2.256 2.384s-1.152 2.384-2.256 2.384zm14.329 1.6-4.272-4.16 3.856-3.824h-2.656l-2.864 2.784h-0.384v-6.32h-2.112v11.52h2.112v-3.12h0.368l3.136 3.12h2.816z" fill="#000"/>
<circle cx="230" cy="125" r="12" fill="#03CEA4"/>
<path d="m235.57 121.7-1.396-1.4c-0.024-0.023-0.051-0.042-0.081-0.054-0.031-0.013-0.063-0.019-0.096-0.019s-0.066 6e-3 -0.096 0.019c-0.03 0.012-0.058 0.031-0.081 0.054l-5.896 5.9c-0.024 0.023-0.051 0.042-0.081 0.054-0.031 0.013-0.063 0.019-0.096 0.019s-0.066-6e-3 -0.096-0.019c-0.03-0.012-0.058-0.031-0.081-0.054l-1.396-1.4c-0.024-0.023-0.051-0.042-0.081-0.054-0.031-0.013-0.063-0.019-0.096-0.019s-0.066 6e-3 -0.096 0.019c-0.03 0.012-0.058 0.031-0.081 0.054l-1.396 1.4c-0.047 0.047-0.073 0.11-0.073 0.177 0 0.066 0.026 0.13 0.073 0.177l3.146 3.146c0.023 0.023 0.051 0.042 0.081 0.054 0.03 0.013 0.063 0.019 0.096 0.019s0.065-6e-3 0.096-0.019c0.03-0.012 0.057-0.031 0.081-0.054l7.646-7.65c0.046-0.047 0.071-0.11 0.071-0.175s-0.025-0.128-0.071-0.175z" fill="#fff"/>
<g filter="url(#s)">
<rect x="2" y="174" width="248" height="74" rx="6" fill="#fff"/>
<rect x="2.5" y="174.5" width="247" height="73" rx="5.5" stroke="#E6E6EA"/>
</g>
<g filter="url(#r)">
<mask id="j" x="10" y="182" width="57" height="57" style="mask-type:alpha" maskUnits="userSpaceOnUse">
<rect x="10" y="182" width="57" height="57" rx="2" fill="#C4C4C4"/>
</mask>
<g mask="url(#j)">
<rect x="10" y="182" width="57" height="57" rx="2" fill="#FF492C"/>
</g>
<g clip-path="url(#aj)" fill="#fff">
<path d="m45.124 217.31c1.2053 2.092 2.3972 4.16 3.5881 6.225-5.2738 4.038-13.479 4.526-19.553-0.124-6.9899-5.355-8.1387-14.492-4.3964-21.069 4.3041-7.565 12.359-9.238 17.545-8.011-0.1402 0.304-3.2463 6.748-3.2463 6.748s-0.2455 0.016-0.3844 0.019c-1.5329 0.065-2.6745 0.421-3.8982 1.054-1.3426 0.701-2.4931 1.719-3.351 2.967-0.858 1.248-1.3972 2.687-1.5706 4.192-0.181 1.525 0.03 3.072 0.6129 4.493 0.4929 1.202 1.1901 2.269 2.1248 3.17 1.4338 1.384 3.1401 2.241 5.1178 2.524 1.873 0.269 3.6742 3e-3 5.3621-0.845 0.6331-0.318 1.1717-0.669 1.8012-1.15 0.0802-0.052 0.1515-0.118 0.2483-0.193z"/>
<path d="m45.136 198.96c-0.306-0.301-0.5897-0.579-0.8719-0.858-0.1685-0.167-0.3307-0.34-0.5032-0.503-0.0619-0.059-0.1344-0.139-0.1344-0.139s0.0587-0.125 0.0837-0.176c0.3303-0.662 0.8478-1.147 1.4616-1.532 0.6789-0.429 1.4697-0.648 2.2727-0.628 1.0274 0.02 1.9827 0.276 2.7888 0.965 0.595 0.509 0.9001 1.154 0.9539 1.924 0.0896 1.3-0.4481 2.295-1.5158 2.989-0.6273 0.409-1.3039 0.725-1.9823 1.099-0.3741 0.207-0.6941 0.388-1.0597 0.762-0.3217 0.375-0.3374 0.728-0.3374 0.728l4.8602-6e-3v2.165h-7.502v-0.209c-0.0287-1.064 0.0954-2.065 0.5825-3.031 0.4481-0.887 1.1444-1.535 1.9809-2.035 0.6443-0.385 1.3227-0.712 1.9684-1.095 0.3983-0.237 0.6797-0.583 0.6775-1.085 0-0.431-0.3137-0.814-0.7617-0.934-1.0566-0.285-2.132 0.17-2.6912 1.137-0.0815 0.141-0.1649 0.281-0.2706 0.462z"/>
<path d="m54.537 215.01-4.0958-7.073h-8.1052l-4.1222 7.146h8.1647l4.0291 7.04 4.1294-7.113z"/>
</g>
</g>
<path d="m86.856 209.74v1.984h3.76c-0.368 1.52-1.584 2.48-3.216 2.48-2 0-3.552-1.536-3.552-3.568 0-2.016 1.504-3.552 3.424-3.552 1.168 0 2.416 0.368 3.2 1.872l1.952-0.688c-0.768-2.176-2.896-3.232-5.152-3.232-3.152 0-5.632 2.464-5.632 5.6 0 3.152 2.496 5.6 5.696 5.6 3.168 0 5.44-2.384 5.44-5.568 0-0.256-0.016-0.56-0.048-0.928h-5.872zm14.374 4.288h-4.0481l1.648-1.616c1.5681-1.536 2.3361-2.544 2.3361-4.032 0-1.984-1.4881-3.344-3.6481-3.344-2.176 0-3.68 1.312-3.776 3.424l1.984 0.416c0.096-1.36 0.72-1.968 1.76-1.968 0.928 0 1.584 0.624 1.584 1.52 0 1.2-0.864 1.92-1.52 2.576l-3.616 3.584v1.408h7.2961v-1.968z" fill="#000"/>
<circle cx="230" cy="211" r="11.5" fill="#fff" stroke="#E6E6EA"/>
<g filter="url(#q)">
<rect x="264" y="174" width="248" height="74" rx="6" fill="#fff"/>
<rect x="264.5" y="174.5" width="247" height="73" rx="5.5" stroke="#E6E6EA"/>
</g>
<g filter="url(#p)">
<mask id="i" x="272" y="182" width="57" height="57" style="mask-type:alpha" maskUnits="userSpaceOnUse">
<rect x="272" y="182" width="57" height="57" rx="2" fill="#C4C4C4"/>
</mask>
<g mask="url(#i)">
<rect x="272" y="182" width="57" height="57" rx="2" fill="#34E0A1"/>
<path d="m300.32 234.07c13.116 0 23.748-10.632 23.748-23.748s-10.632-23.749-23.748-23.749-23.749 10.633-23.749 23.749 10.633 23.748 23.749 23.748z" fill="#34E0A1"/>
<path d="m314.99 205.69 2.866-3.118h-6.355c-3.182-2.174-7.024-3.439-11.179-3.439-4.15 0-7.982 1.268-11.158 3.439h-6.371l2.866 3.118c-1.757 1.602-2.858 3.911-2.858 6.474 0 4.837 3.922 8.759 8.759 8.759 2.298 0 4.391-0.886 5.954-2.335l2.808 3.057 2.807-3.054c1.563 1.449 3.654 2.332 5.952 2.332 4.837 0 8.764-3.922 8.764-8.759 3e-3 -2.566-1.098-4.874-2.855-6.474zm-23.427 12.402c-3.275 0-5.928-2.654-5.928-5.928s2.653-5.928 5.928-5.928c3.274 0 5.927 2.654 5.927 5.928s-2.653 5.928-5.927 5.928zm8.761-6.1c0-3.901-2.836-7.25-6.58-8.68 2.024-0.847 4.245-1.316 6.578-1.316 2.332 0 4.556 0.469 6.58 1.316-3.741 1.433-6.578 4.779-6.578 8.68zm8.76 6.1c-3.275 0-5.928-2.654-5.928-5.928s2.653-5.928 5.928-5.928c3.274 0 5.927 2.654 5.927 5.928s-2.653 5.928-5.927 5.928zm0-9.038c-1.717 0-3.108 1.391-3.108 3.107 0 1.717 1.391 3.108 3.108 3.108 1.716 0 3.107-1.391 3.107-3.108 0-1.714-1.391-3.107-3.107-3.107zm-14.414 3.11c0 1.717-1.391 3.107-3.107 3.107-1.717 0-3.108-1.39-3.108-3.107s1.391-3.107 3.108-3.107c1.716-3e-3 3.107 1.39 3.107 3.107z" fill="#000"/>
</g>
</g>
<path d="m352.63 207.25v-1.968h-9.312v1.968h3.568v8.752h2.176v-8.752h3.568zm5.933 0.656c-1.296 0-2.224 0.64-2.864 1.568v-1.456h-2.112v7.984h2.112v-2.576c0-2.224 0.896-3.424 2.848-3.424h0.464l0.112-2.032c-0.192-0.064-0.352-0.064-0.56-0.064zm3.051-3.536c-0.752 0-1.28 0.592-1.28 1.264 0 0.704 0.528 1.232 1.28 1.232 0.736 0 1.28-0.528 1.28-1.232 0-0.672-0.544-1.264-1.28-1.264zm1.056 11.632v-7.984h-2.112v7.984h2.112zm7.106-8.224c-1.088 0-1.968 0.32-2.64 0.88v-0.64h-2.112v10.704h2.112v-3.344c0.672 0.544 1.552 0.864 2.64 0.864 2.032 0 3.92-1.712 3.92-4.224s-1.888-4.24-3.92-4.24zm-0.368 6.624c-1.136 0-2.272-0.912-2.272-2.384s1.136-2.4 2.272-2.4c1.28 0 2.24 0.928 2.24 2.4s-0.96 2.384-2.24 2.384zm13.914-6.384h-2.112v0.64c-0.672-0.56-1.552-0.88-2.64-0.88-2.032 0-3.92 1.728-3.92 4.24s1.888 4.224 3.92 4.224c1.088 0 1.968-0.32 2.64-0.864v0.624h2.112v-7.984zm-4.384 6.384c-1.28 0-2.24-0.912-2.24-2.384s0.96-2.4 2.24-2.4c1.136 0 2.272 0.928 2.272 2.4s-1.136 2.384-2.272 2.384zm14.65-9.92h-2.112v4.176c-0.672-0.56-1.552-0.88-2.64-0.88-2.032 0-3.92 1.728-3.92 4.24s1.888 4.224 3.92 4.224c1.088 0 1.968-0.32 2.64-0.864v0.624h2.112v-11.52zm-4.384 9.92c-1.28 0-2.24-0.912-2.24-2.384s0.96-2.4 2.24-2.4c1.136 0 2.272 0.928 2.272 2.4s-1.136 2.384-2.272 2.384zm14.553-6.4h-2.272l-2.176 5.424-2.176-5.424h-2.272l3.328 8h2.24l3.328-8zm2.451-3.632c-0.752 0-1.28 0.592-1.28 1.264 0 0.704 0.528 1.232 1.28 1.232 0.736 0 1.28-0.528 1.28-1.232 0-0.672-0.544-1.264-1.28-1.264zm1.056 11.632v-7.984h-2.112v7.984h2.112zm1.682-2.112c0.208 1.664 1.824 2.352 3.584 2.352 2.08 0 3.504-0.912 3.504-2.672 0-1.072-0.688-1.952-2.096-2.256l-1.904-0.416c-0.624-0.144-0.72-0.416-0.72-0.672 0-0.368 0.24-0.784 1.088-0.784 0.88 0 1.44 0.464 1.52 1.104l2.016-0.4c-0.272-1.392-1.584-2.368-3.472-2.368-2.016 0-3.264 1.104-3.264 2.64 0 1.152 0.816 1.968 2.256 2.272l1.632 0.336c0.688 0.144 0.88 0.432 0.88 0.72 0 0.448-0.464 0.8-1.248 0.8-0.832 0-1.536-0.272-1.648-1.088l-2.128 0.432zm12.431-6.064c-2.384 0-4.352 1.68-4.352 4.192s1.968 4.192 4.352 4.192c2.336 0 4.304-1.68 4.304-4.192s-1.968-4.192-4.304-4.192zm0 6.576c-1.152 0-2.304-0.896-2.304-2.384s1.152-2.384 2.304-2.384c1.104 0 2.256 0.896 2.256 2.384s-1.152 2.384-2.256 2.384zm10.873-6.496c-1.296 0-2.224 0.64-2.864 1.568v-1.456h-2.112v7.984h2.112v-2.576c0-2.224 0.896-3.424 2.848-3.424h0.464l0.112-2.032c-0.192-0.064-0.352-0.064-0.56-0.064z" fill="#000"/>
<circle cx="492" cy="211" r="12" fill="#03CEA4"/>
<path d="m497.57 207.7-1.396-1.4c-0.024-0.023-0.051-0.042-0.081-0.054-0.031-0.013-0.063-0.019-0.096-0.019s-0.066 6e-3 -0.096 0.019c-0.03 0.012-0.058 0.031-0.081 0.054l-5.896 5.9c-0.024 0.023-0.051 0.042-0.081 0.054-0.031 0.013-0.063 0.019-0.096 0.019s-0.066-6e-3 -0.096-0.019c-0.03-0.012-0.058-0.031-0.081-0.054l-1.396-1.4c-0.024-0.023-0.051-0.042-0.081-0.054-0.031-0.013-0.063-0.019-0.096-0.019s-0.066 6e-3 -0.096 0.019c-0.03 0.012-0.058 0.031-0.081 0.054l-1.396 1.4c-0.047 0.047-0.073 0.11-0.073 0.177 0 0.066 0.026 0.13 0.073 0.177l3.146 3.146c0.023 0.023 0.051 0.042 0.081 0.054 0.03 0.013 0.063 0.019 0.096 0.019s0.065-6e-3 0.096-0.019c0.03-0.012 0.057-0.031 0.081-0.054l7.646-7.65c0.046-0.047 0.071-0.11 0.071-0.175s-0.025-0.128-0.071-0.175z" fill="#fff"/>
<g filter="url(#o)">
<rect x="2" y="260" width="248" height="74" rx="6" fill="#fff"/>
<rect x="2.5" y="260.5" width="247" height="73" rx="5.5" stroke="#E6E6EA"/>
</g>
<g filter="url(#n)">
<mask id="h" x="10" y="268" width="57" height="57" style="mask-type:alpha" maskUnits="userSpaceOnUse">
<rect x="10" y="268" width="57" height="57" rx="2" fill="#000130"/>
</mask>
<g mask="url(#h)">
<rect x="10" y="268" width="57" height="57" rx="2" fill="#000130"/>
</g>
<g clip-path="url(#ai)">
<path d="m55.034 293.14h-12.359l-3.8175-11.767-3.8292 11.767-12.359-0.011 10.009 7.279-3.8296 11.756 10.009-7.268 9.9967 7.268-3.8175-11.756 9.997-7.268z" fill="#00B67A"/>
<path d="m45.896 303.07-0.859-2.662-6.1792 4.488 7.0382-1.826z" fill="#005128"/>
</g>
</g>
<path d="m90.632 293.25v-1.968h-9.312v1.968h3.568v8.752h2.176v-8.752h3.568zm5.9328 0.656c-1.296 0-2.224 0.64-2.864 1.568v-1.456h-2.112v7.984h2.112v-2.576c0-2.224 0.896-3.424 2.848-3.424h0.464l0.112-2.032c-0.192-0.064-0.352-0.064-0.56-0.064zm9.4992 0.112h-2.112v3.536c0 1.952-0.784 2.752-1.984 2.752-0.976 0-1.616-0.752-1.616-1.872v-4.416h-2.1119v4.864c0 1.984 1.28 3.36 3.1999 3.36 1.056 0 1.888-0.336 2.512-0.96v0.72h2.112v-7.984zm1.493 5.872c0.208 1.664 1.824 2.352 3.584 2.352 2.08 0 3.504-0.912 3.504-2.672 0-1.072-0.688-1.952-2.096-2.256l-1.904-0.416c-0.624-0.144-0.72-0.416-0.72-0.672 0-0.368 0.24-0.784 1.088-0.784 0.88 0 1.44 0.464 1.52 1.104l2.016-0.4c-0.272-1.392-1.584-2.368-3.472-2.368-2.016 0-3.264 1.104-3.264 2.64 0 1.152 0.816 1.968 2.256 2.272l1.632 0.336c0.688 0.144 0.88 0.432 0.88 0.72 0 0.448-0.464 0.8-1.248 0.8-0.832 0-1.536-0.272-1.648-1.088l-2.128 0.432zm13.919 0c-0.416 0.224-0.96 0.384-1.328 0.384-0.704 0-1.168-0.416-1.168-1.376v-3.152h2.608v-1.728h-2.608v-2.416h-2.112v2.416h-1.712v1.728h1.712v3.312c0 2.192 1.248 3.184 3.136 3.184 0.672 0 1.248-0.144 2.08-0.592l-0.608-1.76zm6.49-6.112c-1.088 0-1.968 0.32-2.64 0.88v-0.64h-2.112v10.704h2.112v-3.344c0.672 0.544 1.552 0.864 2.64 0.864 2.032 0 3.92-1.712 3.92-4.224s-1.888-4.24-3.92-4.24zm-0.368 6.624c-1.136 0-2.272-0.912-2.272-2.384s1.136-2.4 2.272-2.4c1.28 0 2.24 0.928 2.24 2.4s-0.96 2.384-2.24 2.384zm7.049-10.032c-0.752 0-1.28 0.592-1.28 1.264 0 0.704 0.528 1.232 1.28 1.232 0.736 0 1.28-0.528 1.28-1.232 0-0.672-0.544-1.264-1.28-1.264zm1.056 11.632v-7.984h-2.112v7.984h2.112zm4.467 0v-11.52h-2.112v11.52h2.112zm5.959-8.176c-2.384 0-4.352 1.68-4.352 4.192s1.968 4.192 4.352 4.192c2.336 0 4.304-1.68 4.304-4.192s-1.968-4.192-4.304-4.192zm0 6.576c-1.152 0-2.304-0.896-2.304-2.384s1.152-2.384 2.304-2.384c1.104 0 2.256 0.896 2.256 2.384s-1.152 2.384-2.256 2.384zm11.097-0.512c-0.416 0.224-0.96 0.384-1.328 0.384-0.704 0-1.168-0.416-1.168-1.376v-3.152h2.608v-1.728h-2.608v-2.416h-2.112v2.416h-1.712v1.728h1.712v3.312c0 2.192 1.248 3.184 3.136 3.184 0.672 0 1.248-0.144 2.08-0.592l-0.608-1.76z" fill="#000"/>
<circle cx="230" cy="297" r="12" fill="#03CEA4"/>
<path d="m235.57 293.7-1.396-1.4c-0.024-0.023-0.051-0.042-0.081-0.054-0.031-0.013-0.063-0.019-0.096-0.019s-0.066 6e-3 -0.096 0.019c-0.03 0.012-0.058 0.031-0.081 0.054l-5.896 5.9c-0.024 0.023-0.051 0.042-0.081 0.054-0.031 0.013-0.063 0.019-0.096 0.019s-0.066-6e-3 -0.096-0.019c-0.03-0.012-0.058-0.031-0.081-0.054l-1.396-1.4c-0.024-0.023-0.051-0.042-0.081-0.054-0.031-0.013-0.063-0.019-0.096-0.019s-0.066 6e-3 -0.096 0.019c-0.03 0.012-0.058 0.031-0.081 0.054l-1.396 1.4c-0.047 0.047-0.073 0.11-0.073 0.177 0 0.066 0.026 0.13 0.073 0.177l3.146 3.146c0.023 0.023 0.051 0.042 0.081 0.054 0.03 0.013 0.063 0.019 0.096 0.019s0.065-6e-3 0.096-0.019c0.03-0.012 0.057-0.031 0.081-0.054l7.646-7.65c0.046-0.047 0.071-0.11 0.071-0.175s-0.025-0.128-0.071-0.175z" fill="#fff"/>
<g filter="url(#m)">
<rect x="264" y="260" width="248" height="74" rx="6" fill="#fff"/>
<rect x="264.5" y="260.5" width="247" height="73" rx="5.5" stroke="#E6E6EA"/>
</g>
<g filter="url(#l)">
<mask id="g" x="272" y="268" width="57" height="57" style="mask-type:alpha" maskUnits="userSpaceOnUse">
<rect x="272" y="268" width="57" height="57" rx="2" fill="#D32323"/>
</mask>
<g mask="url(#g)">
<rect x="272" y="268" width="57" height="57" rx="2" fill="#D32323"/>
</g>
<g clip-path="url(#ah)">
<path d="m324.07 273.63h-46.444v46.444h46.444v-46.444z" fill="#D32323"/>
<path d="m300.15 280.36c-0.116-0.425-0.464-0.735-0.929-0.89-1.47-0.387-7.198 1.239-8.243 2.359-0.349 0.348-0.465 0.816-0.349 1.2 0.155 0.348 7.238 11.65 7.238 11.65 1.045 1.703 1.896 1.471 2.167 1.354 0.272-0.077 1.122-0.348 1.045-2.358-0.155-2.36-0.852-12.811-0.929-13.315zm-3.058 21.21c0.581-0.155 0.968-0.697 1.007-1.355 0.038-0.696-0.31-1.316-0.89-1.548l-1.623-0.658c-5.534-2.322-5.767-2.399-6.038-2.399-0.426-0.039-0.816 0.193-1.083 0.618-0.544 0.891-0.775 3.755-0.581 5.652 0.077 0.618 0.193 1.161 0.349 1.47 0.232 0.426 0.58 0.697 1.006 0.697 0.272 0 0.425-0.039 5.573-1.703l2.28-0.774zm2.903 2.129c-0.618-0.273-1.315-0.117-1.702 0.387l-1.123 1.354c-3.87 4.645-4.025 4.838-4.141 5.109-0.064 0.16-0.09 0.332-0.078 0.504 0.012 0.263 0.122 0.511 0.31 0.696 0.891 1.083 5.187 2.709 6.58 2.477 0.217-0.028 0.423-0.115 0.593-0.252 0.171-0.138 0.3-0.319 0.374-0.526 0.078-0.272 0.116-0.464 0.116-5.921v-2.474c0.078-0.581-0.309-1.122-0.929-1.354zm13.469 1.088c-0.232-0.155-0.386-0.232-5.533-1.936 0 0-2.245-0.773-2.284-0.773-0.544-0.233-1.161-0.039-1.587 0.503s-0.503 1.238-0.154 1.78l0.89 1.509c3.058 5.032 3.29 5.38 3.483 5.574 0.348 0.272 0.774 0.31 1.238 0.116 1.316-0.545 4.142-4.18 4.335-5.612 0.077-0.469-0.04-0.895-0.388-1.165v4e-3zm-8.282-5.728c0.817-0.155 7.469-1.742 8.012-2.129 0.348-0.233 0.544-0.658 0.502-1.161v-0.039c-0.154-1.471-2.67-5.261-3.908-5.883-0.426-0.193-0.89-0.193-1.239 0.039-0.232 0.155-0.387 0.387-3.522 4.721l-1.432 1.969c-0.387 0.464-0.387 1.123 0 1.703 0.387 0.62 0.774 0.928 1.587 0.775v5e-3z" fill="#fff"/>
</g>
</g>
<path d="m349.58 298.58 4.32-7.296h-2.496l-2.912 5.056-2.928-5.056h-2.4l4.24 7.328v3.392h2.176v-3.424zm11.221-0.72c-0.08-2.432-1.92-4.08-4.048-4.08-2.288 0-4.128 1.728-4.128 4.24s1.84 4.224 4.096 4.224c1.744 0 3.168-0.8 3.872-2.464l-1.888-0.4c-0.576 0.976-1.36 1.056-1.984 1.056-0.976 0-1.792-0.704-2-1.856h6.08v-0.72zm-4.048-2.24c0.848 0 1.616 0.448 1.888 1.472h-3.856c0.256-0.992 1.168-1.472 1.968-1.472zm7.764 6.384v-11.52h-2.112v11.52h2.112zm7-8.224c-1.088 0-1.968 0.32-2.64 0.88v-0.64h-2.112v10.704h2.112v-3.344c0.672 0.544 1.552 0.864 2.64 0.864 2.032 0 3.92-1.712 3.92-4.224s-1.888-4.24-3.92-4.24zm-0.368 6.624c-1.136 0-2.272-0.912-2.272-2.384s1.136-2.4 2.272-2.4c1.28 0 2.24 0.928 2.24 2.4s-0.96 2.384-2.24 2.384z" fill="#000"/>
<circle cx="492" cy="297" r="11.5" fill="#fff" stroke="#E6E6EA"/>
<g filter="url(#ad)">
<rect x="2" y="346" width="248" height="74" rx="6" fill="#fff"/>
<rect x="2.5" y="346.5" width="247" height="73" rx="5.5" stroke="#E6E6EA"/>
</g>
<path d="m91.592 377.28h-2.176v4.352h-5.12v-4.352h-2.176v10.72h2.176v-4.4h5.12v4.4h2.176v-10.72zm9.783 6.576c-0.08-2.432-1.9202-4.08-4.0482-4.08-2.288 0-4.128 1.728-4.128 4.24s1.84 4.224 4.096 4.224c1.744 0 3.1682-0.8 3.8722-2.464l-1.8882-0.4c-0.576 0.976-1.36 1.056-1.984 1.056-0.976 0-1.792-0.704-2-1.856h6.0802v-0.72zm-4.0482-2.24c0.848 0 1.616 0.448 1.888 1.472h-3.856c0.256-0.992 1.168-1.472 1.968-1.472zm13.684-1.6h-2.112v0.64c-0.672-0.56-1.552-0.88-2.64-0.88-2.032 0-3.92 1.728-3.92 4.24s1.888 4.224 3.92 4.224c1.088 0 1.968-0.32 2.64-0.864v0.624h2.112v-7.984zm-4.384 6.384c-1.28 0-2.24-0.912-2.24-2.384s0.96-2.4 2.24-2.4c1.136 0 2.272 0.928 2.272 2.4s-1.136 2.384-2.272 2.384zm8.73 1.6v-11.52h-2.112v11.52h2.112zm7.447-2.112c-0.416 0.224-0.96 0.384-1.328 0.384-0.704 0-1.168-0.416-1.168-1.376v-3.152h2.608v-1.728h-2.608v-2.416h-2.112v2.416h-1.712v1.728h1.712v3.312c0 2.192 1.248 3.184 3.136 3.184 0.672 0 1.248-0.144 2.08-0.592l-0.608-1.76zm6.362-6.112c-1.056 0-1.888 0.336-2.512 0.96v-4.256h-2.112v11.52h2.112v-3.536c0-1.952 0.784-2.752 1.984-2.752 0.976 0 1.616 0.752 1.616 1.872v4.416h2.112v-4.864c0-1.984-1.28-3.36-3.2-3.36zm9.987 1.968v1.984h3.76c-0.368 1.52-1.584 2.48-3.216 2.48-2 0-3.552-1.536-3.552-3.568 0-2.016 1.504-3.552 3.424-3.552 1.168 0 2.416 0.368 3.2 1.872l1.952-0.688c-0.768-2.176-2.896-3.232-5.152-3.232-3.152 0-5.632 2.464-5.632 5.6 0 3.152 2.496 5.6 5.696 5.6 3.168 0 5.44-2.384 5.44-5.568 0-0.256-0.016-0.56-0.048-0.928h-5.872zm12.662-1.84c-1.296 0-2.224 0.64-2.864 1.568v-1.456h-2.112v7.984h2.112v-2.576c0-2.224 0.896-3.424 2.848-3.424h0.464l0.112-2.032c-0.192-0.064-0.352-0.064-0.56-0.064zm9.837 0.112h-2.112v0.64c-0.672-0.56-1.552-0.88-2.64-0.88-2.032 0-3.92 1.728-3.92 4.24s1.888 4.224 3.92 4.224c1.088 0 1.968-0.32 2.64-0.864v0.624h2.112v-7.984zm-4.384 6.384c-1.28 0-2.24-0.912-2.24-2.384s0.96-2.4 2.24-2.4c1.136 0 2.272 0.928 2.272 2.4s-1.136 2.384-2.272 2.384zm14.65-9.92h-2.112v4.176c-0.672-0.56-1.552-0.88-2.64-0.88-2.032 0-3.92 1.728-3.92 4.24s1.888 4.224 3.92 4.224c1.088 0 1.968-0.32 2.64-0.864v0.624h2.112v-11.52zm-4.384 9.92c-1.28 0-2.24-0.912-2.24-2.384s0.96-2.4 2.24-2.4c1.136 0 2.272 0.928 2.272 2.4s-1.136 2.384-2.272 2.384zm14.153-2.544c-0.08-2.432-1.92-4.08-4.048-4.08-2.288 0-4.128 1.728-4.128 4.24s1.84 4.224 4.096 4.224c1.744 0 3.168-0.8 3.872-2.464l-1.888-0.4c-0.576 0.976-1.36 1.056-1.984 1.056-0.976 0-1.792-0.704-2-1.856h6.08v-0.72zm-4.048-2.24c0.848 0 1.616 0.448 1.888 1.472h-3.856c0.256-0.992 1.168-1.472 1.968-1.472zm4.981 4.272c0.208 1.664 1.824 2.352 3.584 2.352 2.08 0 3.504-0.912 3.504-2.672 0-1.072-0.688-1.952-2.096-2.256l-1.904-0.416c-0.624-0.144-0.72-0.416-0.72-0.672 0-0.368 0.24-0.784 1.088-0.784 0.88 0 1.44 0.464 1.52 1.104l2.016-0.4c-0.272-1.392-1.584-2.368-3.472-2.368-2.016 0-3.264 1.104-3.264 2.64 0 1.152 0.816 1.968 2.256 2.272l1.632 0.336c0.688 0.144 0.88 0.432 0.88 0.72 0 0.448-0.464 0.8-1.248 0.8-0.832 0-1.536-0.272-1.648-1.088l-2.128 0.432z" fill="#000"/>
<g filter="url(#ac)">
<mask id="f" x="10" y="354" width="57" height="57" style="mask-type:alpha" maskUnits="userSpaceOnUse">
<rect x="10" y="354" width="57" height="57" rx="2" fill="#FF5A5F"/>
</mask>
<g mask="url(#f)">
<rect x="10" y="354" width="57" height="57" rx="2" fill="#0202EA"/>
</g>
<path d="m43.991 380.45c0.2461 0.245 0.5792 0.384 0.9267 0.385 0.3391 0 0.6556-0.136 0.9273-0.385l4.6571-4.657c0.4973-0.497 0.4973-1.334 0-1.831-0.4975-0.498-1.3339-0.498-1.8314 0l-4.6574 4.657c-0.5373 0.488-0.5476 1.33-0.0223 1.831z" fill="#fff"/>
<path d="m48.196 382.67c-0.4972-0.497-1.2661-0.497-1.7862-0.045l-6.6919 6.692c-0.3843 0.384-0.9948 0.384-1.3565 0-0.3843-0.384-0.3843-0.995 0-1.357l2.3965-2.396v-0.023l2.4868-2.487c0.4975-0.497 0.4975-1.334 0-1.831-0.4972-0.497-1.3339-0.497-1.8312 0l-1.4468 1.447-0.2262 0.226c-0.3843 0.384-0.9719 0.384-1.3565 0-0.3843-0.384-0.3843-0.972 0-1.356l0.9948-0.995 4.7929-4.793c0.4976-0.498 0.4976-1.334 0-1.832-0.4972-0.497-1.3339-0.497-1.8311 0l-2.8712 2.804c-0.249 0.249-0.5882 0.384-0.9044 0.384-0.3259 1e-3 -0.6404-0.12-0.8818-0.339l-2.6905-2.69c-2.2835-2.284-5.9913-2.284-8.2745 0-1.1083 1.107-1.7185 2.577-1.7185 4.137s0.6105 3.03 1.7182 4.137l10.852 10.852c0 0.023 0.0226 0.023 0.0226 0.046 0.2462 0.245 0.5792 0.383 0.9267 0.384 0.3392 0 0.6557-0.136 0.9274-0.384l8.7266-8.727c0.515-0.507 0.5251-1.335 0.0225-1.854z" fill="#fff"/>
<path d="m49.711 382.13c0.7118 0 1.2888-0.577 1.2888-1.288 0-0.712-0.577-1.289-1.2888-1.289-0.7117 0-1.2887 0.577-1.2887 1.289 0 0.711 0.577 1.288 1.2887 1.288z" fill="#fff"/>
</g>
<circle cx="230" cy="383" r="11.5" fill="#fff" stroke="#E6E6EA"/>
<g filter="url(#ab)">
<rect x="264" y="2" width="248" height="74" rx="6" fill="#fff"/>
<rect x="264.5" y="2.5" width="247" height="73" rx="5.5" stroke="#E6E6EA"/>
</g>
<g filter="url(#aa)">
<mask id="e" x="272" y="10" width="57" height="57" style="mask-type:alpha" maskUnits="userSpaceOnUse">
<rect x="272" y="10" width="57" height="57" rx="2" fill="#C4C4C4"/>
</mask>
<g mask="url(#e)">
<rect x="272" y="10" width="57" height="57" rx="2" fill="#fff"/>
</g>
<g clip-path="url(#ag)">
<path d="m311.74 39.27c0-0.79-0.07-1.54-0.19-2.27h-11.3v4.51h6.47c-0.29 1.48-1.14 2.73-2.4 3.58v3h3.86c2.26-2.09 3.56-5.17 3.56-8.82z" fill="#4285F4"/>
<path d="m300.26 51c3.24 0 5.95-1.08 7.93-2.91l-3.86-3c-1.08 0.72-2.45 1.16-4.07 1.16-3.13 0-5.78-2.11-6.73-4.96h-3.98v3.09c1.97 3.92 6.02 6.62 10.71 6.62z" fill="#34A853"/>
<path d="m293.52 41.29c-0.25-0.72-0.38-1.49-0.38-2.29s0.14-1.57 0.38-2.29v-3.09h-3.98c-0.82 1.62-1.29 3.44-1.29 5.38s0.47 3.76 1.29 5.38l3.98-3.09z" fill="#FBBC05"/>
<path d="m300.26 31.75c1.77 0 3.35 0.61 4.6 1.8l3.42-3.42c-2.07-1.94-4.78-3.13-8.02-3.13-4.69 0-8.74 2.7-10.71 6.62l3.98 3.09c0.95-2.85 3.6-4.96 6.73-4.96z" fill="#EA4335"/>
</g>
</g>
<path d="m348.86 37.744v1.984h3.76c-0.368 1.52-1.584 2.48-3.216 2.48-2 0-3.552-1.536-3.552-3.568 0-2.016 1.504-3.552 3.424-3.552 1.168 0 2.416 0.368 3.2 1.872l1.952-0.688c-0.768-2.176-2.896-3.232-5.152-3.232-3.152 0-5.632 2.464-5.632 5.6 0 3.152 2.496 5.6 5.696 5.6 3.168 0 5.44-2.384 5.44-5.568 0-0.256-0.016-0.56-0.048-0.928h-5.872zm11.398-1.92c-2.384 0-4.352 1.68-4.352 4.192s1.968 4.192 4.352 4.192c2.336 0 4.304-1.68 4.304-4.192s-1.968-4.192-4.304-4.192zm0 6.576c-1.152 0-2.304-0.896-2.304-2.384s1.152-2.384 2.304-2.384c1.104 0 2.256 0.896 2.256 2.384s-1.152 2.384-2.256 2.384zm9.609-6.576c-2.384 0-4.352 1.68-4.352 4.192s1.968 4.192 4.352 4.192c2.336 0 4.304-1.68 4.304-4.192s-1.968-4.192-4.304-4.192zm0 6.576c-1.152 0-2.304-0.896-2.304-2.384s1.152-2.384 2.304-2.384c1.104 0 2.256 0.896 2.256 2.384s-1.152 2.384-2.256 2.384zm13.674-6.384h-2.032v0.496c-0.592-0.464-1.408-0.736-2.512-0.736-2 0-3.872 1.68-3.872 3.856 0 2.192 1.872 3.888 3.872 3.888 1.104 0 1.92-0.256 2.512-0.736v0.128c0 1.392-0.88 2.224-2.224 2.224-1.04 0-1.552-0.368-2.176-1.152l-1.712 1.296c0.688 1.104 2.032 1.76 3.888 1.76 2.576 0 4.272-1.36 4.272-3.808l-0.016-7.216zm-4.176 5.696c-1.264 0-2.208-0.832-2.208-2.08s0.944-2.08 2.208-2.08c1.12 0 2.144 0.832 2.144 2.08s-1.024 2.08-2.144 2.08zm8.543 2.288v-11.52h-2.112v11.52h2.112zm9.783-4.144c-0.08-2.432-1.92-4.08-4.048-4.08-2.288 0-4.128 1.728-4.128 4.24s1.84 4.224 4.096 4.224c1.744 0 3.168-0.8 3.872-2.464l-1.888-0.4c-0.576 0.976-1.36 1.056-1.984 1.056-0.976 0-1.792-0.704-2-1.856h6.08v-0.72zm-4.048-2.24c0.848 0 1.616 0.448 1.888 1.472h-3.856c0.256-0.992 1.168-1.472 1.968-1.472z" fill="#000"/>
<circle cx="492" cy="39" r="11.5" fill="#fff" stroke="#E6E6EA"/>
<g filter="url(#z)">
<rect x="2" y="2" width="248" height="74" rx="6" fill="#fff"/>
<rect x="2.5" y="2.5" width="247" height="73" rx="5.5" stroke="#E6E6EA"/>
</g>
<path d="m92.312 44-4.64-10.72h-2.032l-4.64 10.72h2.352l0.944-2.288h4.736l0.928 2.288h2.352zm-4.096-4.256h-3.12l1.568-3.824 1.552 3.824zm15.249-3.968c-1.28 0-2.256 0.496-2.912 1.312-0.5765-0.848-1.5525-1.312-2.6245-1.312-1.04 0-1.824 0.336-2.384 0.896v-0.656h-2.112v7.984h2.112v-3.84c0-1.68 0.704-2.448 1.824-2.448 0.88 0 1.568 0.656 1.568 1.728v4.56h2.1125v-3.84c0-1.68 0.736-2.448 1.856-2.448 0.88 0 1.568 0.656 1.568 1.728v4.56h2.096v-4.992c0-1.952-1.44-3.232-3.104-3.232zm13.187 0.24h-2.112v0.64c-0.672-0.56-1.552-0.88-2.64-0.88-2.032 0-3.92 1.728-3.92 4.24s1.888 4.224 3.92 4.224c1.088 0 1.968-0.32 2.64-0.864v0.624h2.112v-7.984zm-4.384 6.384c-1.28 0-2.24-0.912-2.24-2.384s0.96-2.4 2.24-2.4c1.136 0 2.272 0.928 2.272 2.4s-1.136 2.384-2.272 2.384zm13.226-0.128h-4.48l4.288-4.848v-1.408h-6.784v1.728h4.176l-4.288 4.88v1.376h7.088v-1.728zm5.244-6.448c-2.384 0-4.352 1.68-4.352 4.192s1.968 4.192 4.352 4.192c2.336 0 4.304-1.68 4.304-4.192s-1.968-4.192-4.304-4.192zm0 6.576c-1.152 0-2.304-0.896-2.304-2.384s1.152-2.384 2.304-2.384c1.104 0 2.256 0.896 2.256 2.384s-1.152 2.384-2.256 2.384zm10.522-6.624c-1.056 0-1.888 0.336-2.512 0.96v-0.72h-2.112v7.984h2.112v-3.536c0-1.952 0.784-2.752 1.984-2.752 0.976 0 1.616 0.752 1.616 1.872v4.416h2.112v-4.864c0-1.984-1.28-3.36-3.2-3.36z" fill="#000"/>
<g filter="url(#y)">
<mask id="d" x="10" y="10" width="57" height="57" style="mask-type:alpha" maskUnits="userSpaceOnUse">
<rect x="10" y="10" width="57" height="57" rx="2" fill="#FF5A5F"/>
</mask>
<g mask="url(#d)">
<rect x="10" y="10" width="57" height="57" rx="2" fill="#000"/>
</g>
<g clip-path="url(#af)">
<path d="m47.383 46.991c-10.525 5.0089-17.057 0.8181-21.238-1.7273-0.2587-0.1604-0.6985 0.0375-0.3169 0.4757 1.393 1.689 5.958 5.76 11.917 5.76 5.9628 0 9.5101-3.2536 9.9539-3.8211 0.4407-0.5628 0.1294-0.8732-0.316-0.6873h1e-4zm2.9558-1.6324c-0.2826-0.3681-1.7186-0.4367-2.6223-0.3256-0.9051 0.1078-2.2637 0.6609-2.1456 0.9931 0.0606 0.1244 0.1844 0.0686 0.8061 0.0127 0.6235-0.0622 2.3701-0.2827 2.7341 0.1931 0.3656 0.4791-0.5571 2.7611-0.7256 3.1292-0.1628 0.368 0.0622 0.4629 0.368 0.2178 0.3017-0.245 0.8477-0.8796 1.2142-1.7776 0.3639-0.9029 0.5858-2.1625 0.371-2.4427h1e-4z" fill="#f90"/>
<path d="m40.306 36.77c0 1.3142 0.0332 2.4103-0.631 3.5774-0.5362 0.949-1.3855 1.5326-2.3344 1.5326-1.2954 0-2.0498-0.9869-2.0498-2.4435 0-2.8753 2.5763-3.3972 5.0152-3.3972v0.7307zm3.4019 8.2226c-0.223 0.1992-0.5456 0.2135-0.7971 0.0806-1.1197-0.9299-1.319-1.3617-1.9358-2.249-1.8504 1.8884-3.16 2.453-5.5608 2.453-2.8373 0-5.0484-1.7508-5.0484-5.2571 0-2.7377 1.4852-4.6024 3.5965-5.5133 1.8315-0.8067 4.3889-0.949 6.3437-1.1719v-0.4366c0-0.8019 0.0616-1.7508-0.408-2.4435-0.4129-0.6215-1.2005-0.8778-1.8932-0.8778-1.2858 0-2.434 0.6595-2.714 2.026-0.057 0.3037-0.2799 0.6026-0.5835 0.6168l-3.2739-0.351c-0.2752-0.0618-0.5788-0.2847-0.5029-0.7071 0.7544-3.9665 4.3365-5.1622 7.5439-5.1622 1.6417 0 3.7863 0.4366 5.0816 1.6797 1.6417 1.5325 1.4851 3.5774 1.4851 5.8027v5.2571c0 1.58 0.6548 2.2727 1.2715 3.1268 0.2183 0.3036 0.2658 0.6691-0.0095 0.8967-0.6879 0.5741-1.9121 1.6417-2.5858 2.2396l-0.0095-0.0095" clip-rule="evenodd" fill="#000" fill-rule="evenodd"/>
<path d="m47.383 46.991c-10.525 5.0089-17.057 0.8181-21.238-1.7273-0.2587-0.1604-0.6985 0.0375-0.3169 0.4757 1.393 1.689 5.958 5.76 11.917 5.76 5.9628 0 9.5101-3.2536 9.9539-3.8211 0.4407-0.5628 0.1294-0.8732-0.316-0.6873h1e-4zm2.9558-1.6324c-0.2826-0.3681-1.7186-0.4367-2.6223-0.3256-0.9051 0.1078-2.2637 0.6609-2.1456 0.9931 0.0606 0.1244 0.1844 0.0686 0.8061 0.0127 0.6235-0.0622 2.3701-0.2827 2.7341 0.1931 0.3656 0.4791-0.5571 2.7611-0.7256 3.1292-0.1628 0.368 0.0622 0.4629 0.368 0.2178 0.3017-0.245 0.8477-0.8796 1.2142-1.7776 0.3639-0.9029 0.5858-2.1625 0.371-2.4427h1e-4z" fill="#f90"/>
<path d="m40.306 36.77c0 1.3142 0.0332 2.4103-0.631 3.5774-0.5362 0.949-1.3855 1.5326-2.3344 1.5326-1.2954 0-2.0498-0.9869-2.0498-2.4435 0-2.8753 2.5763-3.3972 5.0152-3.3972v0.7307zm3.4019 8.2226c-0.223 0.1992-0.5456 0.2135-0.7971 0.0806-1.1197-0.9299-1.319-1.3617-1.9358-2.249-1.8504 1.8884-3.16 2.453-5.5608 2.453-2.8373 0-5.0484-1.7508-5.0484-5.2571 0-2.7377 1.4852-4.6024 3.5965-5.5133 1.8315-0.8067 4.3889-0.949 6.3437-1.1719v-0.4366c0-0.8019 0.0616-1.7508-0.408-2.4435-0.4129-0.6215-1.2005-0.8778-1.8932-0.8778-1.2858 0-2.434 0.6595-2.714 2.026-0.057 0.3037-0.2799 0.6026-0.5835 0.6168l-3.2739-0.351c-0.2752-0.0618-0.5788-0.2847-0.5029-0.7071 0.7544-3.9665 4.3365-5.1622 7.5439-5.1622 1.6417 0 3.7863 0.4366 5.0816 1.6797 1.6417 1.5325 1.4851 3.5774 1.4851 5.8027v5.2571c0 1.58 0.6548 2.2727 1.2715 3.1268 0.2183 0.3036 0.2658 0.6691-0.0095 0.8967-0.6879 0.5741-1.9121 1.6417-2.5858 2.2396l-0.0095-0.0095" clip-rule="evenodd" fill="#fff" fill-rule="evenodd"/>
</g>
</g>
<circle cx="230" cy="39" r="11.5" fill="#fff" stroke="#E6E6EA"/>
<g filter="url(#x)">
<rect x="264" y="346" width="248" height="74" rx="6" fill="#fff"/>
<rect x="264.5" y="346.5" width="247" height="73" rx="5.5" stroke="#E6E6EA"/>
</g>
<g filter="url(#w)">
<mask id="c" x="272" y="354" width="57" height="57" style="mask-type:alpha" maskUnits="userSpaceOnUse">
<rect x="272" y="354" width="57" height="57" rx="2" fill="#C4C4C4"/>
</mask>
<g mask="url(#c)">
<rect x="272" y="354" width="57" height="57" rx="2" fill="#fff"/>
<path d="m308.99 396.67c-6.375 3.042-17.96-5.278-21.002-11.742s0.738-12.771 7.135-15.746c2.08-0.962 4.316-1.476 6.598-1.566 4.227 0 8.164 2.013 10.177 6.24 2.952 6.487 3.466 19.862-2.908 22.814z" fill="#FFCD00"/>
<path d="m294.43 374.33h4.093c1.41 0 3.713 0.224 4.966 2.751l6.173 12.839c-0.604 0.604-1.633 0.604-2.237 0-0.067-0.067-0.156-0.157-0.156-0.224l-5.279-7.493c-0.738-1.029-2.236-1.342-3.265-0.604l-0.224 0.224-1.476 1.409c-0.671 0.604-1.633 0.604-2.304-0.067l-0.156-0.157 1.409-1.856c0.961-1.342 1.028-3.109 0.156-4.451l-1.7-2.371zm2.371 13.442c-0.223 0.381-0.291 0.828-0.223 1.186 0.067 0.827 1.118 1.566 1.118 1.566l3.869-6.532c0.157-0.29 0.157-0.738 0-1.028-0.827-1.342-2.013-0.895-2.013-0.895l-2.751 5.703z" fill="#000"/>
</g>
</g>
<path d="m349.58 384.58 4.32-7.296h-2.496l-2.912 5.056-2.928-5.056h-2.4l4.24 7.328v3.392h2.176v-3.424zm11.221-0.72c-0.08-2.432-1.92-4.08-4.048-4.08-2.288 0-4.128 1.728-4.128 4.24s1.84 4.224 4.096 4.224c1.744 0 3.168-0.8 3.872-2.464l-1.888-0.4c-0.576 0.976-1.36 1.056-1.984 1.056-0.976 0-1.792-0.704-2-1.856h6.08v-0.72zm-4.048-2.24c0.848 0 1.616 0.448 1.888 1.472h-3.856c0.256-0.992 1.168-1.472 1.968-1.472zm7.764 6.384v-11.52h-2.112v11.52h2.112zm4.36 0v-11.52h-2.112v11.52h2.112zm5.959-8.176c-2.384 0-4.352 1.68-4.352 4.192s1.968 4.192 4.352 4.192c2.336 0 4.304-1.68 4.304-4.192s-1.968-4.192-4.304-4.192zm0 6.576c-1.152 0-2.304-0.896-2.304-2.384s1.152-2.384 2.304-2.384c1.104 0 2.256 0.896 2.256 2.384s-1.152 2.384-2.256 2.384zm17.131-6.384h-2.096l-1.584 4.928-1.632-4.928h-1.648l-1.632 4.912-1.584-4.912h-2.096l2.656 8h1.904l1.584-4.704 1.568 4.704h1.904l2.656-8zm9.925-0.24c-1.088 0-1.968 0.32-2.64 0.88v-0.64h-2.112v10.704h2.112v-3.344c0.672 0.544 1.552 0.864 2.64 0.864 2.032 0 3.92-1.712 3.92-4.224s-1.888-4.24-3.92-4.24zm-0.368 6.624c-1.136 0-2.272-0.912-2.272-2.384s1.136-2.4 2.272-2.4c1.28 0 2.24 0.928 2.24 2.4s-0.96 2.384-2.24 2.384zm13.913-6.384h-2.112v0.64c-0.672-0.56-1.552-0.88-2.64-0.88-2.032 0-3.92 1.728-3.92 4.24s1.888 4.224 3.92 4.224c1.088 0 1.968-0.32 2.64-0.864v0.624h2.112v-7.984zm-4.384 6.384c-1.28 0-2.24-0.912-2.24-2.384s0.96-2.4 2.24-2.4c1.136 0 2.272 0.928 2.272 2.4s-1.136 2.384-2.272 2.384zm14.394-6.384h-2.032v0.496c-0.592-0.464-1.408-0.736-2.512-0.736-2 0-3.872 1.68-3.872 3.856 0 2.192 1.872 3.888 3.872 3.888 1.104 0 1.92-0.256 2.512-0.736v0.128c0 1.392-0.88 2.224-2.224 2.224-1.04 0-1.552-0.368-2.176-1.152l-1.712 1.296c0.688 1.104 2.032 1.76 3.888 1.76 2.576 0 4.272-1.36 4.272-3.808l-0.016-7.216zm-4.176 5.696c-1.264 0-2.208-0.832-2.208-2.08s0.944-2.08 2.208-2.08c1.12 0 2.144 0.832 2.144 2.08s-1.024 2.08-2.144 2.08zm13.967-1.856c-0.08-2.432-1.92-4.08-4.048-4.08-2.288 0-4.128 1.728-4.128 4.24s1.84 4.224 4.096 4.224c1.744 0 3.168-0.8 3.872-2.464l-1.888-0.4c-0.576 0.976-1.36 1.056-1.984 1.056-0.976 0-1.792-0.704-2-1.856h6.08v-0.72zm-4.048-2.24c0.848 0 1.616 0.448 1.888 1.472h-3.856c0.256-0.992 1.168-1.472 1.968-1.472zm4.981 4.272c0.208 1.664 1.824 2.352 3.584 2.352 2.08 0 3.504-0.912 3.504-2.672 0-1.072-0.688-1.952-2.096-2.256l-1.904-0.416c-0.624-0.144-0.72-0.416-0.72-0.672 0-0.368 0.24-0.784 1.088-0.784 0.88 0 1.44 0.464 1.52 1.104l2.016-0.4c-0.272-1.392-1.584-2.368-3.472-2.368-2.016 0-3.264 1.104-3.264 2.64 0 1.152 0.816 1.968 2.256 2.272l1.632 0.336c0.688 0.144 0.88 0.432 0.88 0.72 0 0.448-0.464 0.8-1.248 0.8-0.832 0-1.536-0.272-1.648-1.088l-2.128 0.432z" fill="#000"/>
<circle cx="492" cy="383" r="11.5" fill="#fff" stroke="#E6E6EA"/>
<g filter="url(#v)">
<rect x="264" y="88" width="248" height="74" rx="6" fill="#fff"/>
<rect x="264.5" y="88.5" width="247" height="73" rx="5.5" stroke="#E6E6EA"/>
</g>
<g filter="url(#u)">
<mask id="b" x="272" y="96" width="57" height="57" style="mask-type:alpha" maskUnits="userSpaceOnUse">
<rect x="272" y="96" width="57" height="57" rx="2" fill="#C4C4C4"/>
</mask>
<g mask="url(#b)">
<rect x="272" y="96" width="57" height="57" rx="2" fill="#0CAA41"/>
</g>
</g>
<path d="m348.86 123.74v1.984h3.76c-0.368 1.52-1.584 2.48-3.216 2.48-2 0-3.552-1.536-3.552-3.568 0-2.016 1.504-3.552 3.424-3.552 1.168 0 2.416 0.368 3.2 1.872l1.952-0.688c-0.768-2.176-2.896-3.232-5.152-3.232-3.152 0-5.632 2.464-5.632 5.6 0 3.152 2.496 5.6 5.696 5.6 3.168 0 5.44-2.384 5.44-5.568 0-0.256-0.016-0.56-0.048-0.928h-5.872zm9.798 6.256v-11.52h-2.112v11.52h2.112zm10.279-7.984h-2.112v0.64c-0.672-0.56-1.552-0.88-2.64-0.88-2.032 0-3.92 1.728-3.92 4.24s1.888 4.224 3.92 4.224c1.088 0 1.968-0.32 2.64-0.864v0.624h2.112v-7.984zm-4.384 6.384c-1.28 0-2.24-0.912-2.24-2.384s0.96-2.4 2.24-2.4c1.136 0 2.272 0.928 2.272 2.4s-1.136 2.384-2.272 2.384zm5.946-0.512c0.208 1.664 1.824 2.352 3.584 2.352 2.08 0 3.504-0.912 3.504-2.672 0-1.072-0.688-1.952-2.096-2.256l-1.904-0.416c-0.624-0.144-0.72-0.416-0.72-0.672 0-0.368 0.24-0.784 1.088-0.784 0.88 0 1.44 0.464 1.52 1.104l2.016-0.4c-0.272-1.392-1.584-2.368-3.472-2.368-2.016 0-3.264 1.104-3.264 2.64 0 1.152 0.816 1.968 2.256 2.272l1.632 0.336c0.688 0.144 0.88 0.432 0.88 0.72 0 0.448-0.464 0.8-1.248 0.8-0.832 0-1.536-0.272-1.648-1.088l-2.128 0.432zm7.891 0c0.208 1.664 1.824 2.352 3.584 2.352 2.08 0 3.504-0.912 3.504-2.672 0-1.072-0.688-1.952-2.096-2.256l-1.904-0.416c-0.624-0.144-0.72-0.416-0.72-0.672 0-0.368 0.24-0.784 1.088-0.784 0.88 0 1.44 0.464 1.52 1.104l2.016-0.4c-0.272-1.392-1.584-2.368-3.472-2.368-2.016 0-3.264 1.104-3.264 2.64 0 1.152 0.816 1.968 2.256 2.272l1.632 0.336c0.688 0.144 0.88 0.432 0.88 0.72 0 0.448-0.464 0.8-1.249 0.8-0.831 0-1.535-0.272-1.647-1.088l-2.128 0.432zm16.75-9.408h-2.112v4.176c-0.672-0.56-1.552-0.88-2.64-0.88-2.032 0-3.92 1.728-3.92 4.24s1.888 4.224 3.92 4.224c1.088 0 1.968-0.32 2.64-0.864v0.624h2.112v-11.52zm-4.384 9.92c-1.28 0-2.24-0.912-2.24-2.384s0.96-2.4 2.24-2.4c1.136 0 2.272 0.928 2.272 2.4s-1.136 2.384-2.272 2.384zm10.33-6.576c-2.384 0-4.352 1.68-4.352 4.192s1.968 4.192 4.352 4.192c2.336 0 4.304-1.68 4.304-4.192s-1.968-4.192-4.304-4.192zm0 6.576c-1.152 0-2.304-0.896-2.304-2.384s1.152-2.384 2.304-2.384c1.104 0 2.256 0.896 2.256 2.384s-1.152 2.384-2.256 2.384zm9.609-6.576c-2.384 0-4.352 1.68-4.352 4.192s1.968 4.192 4.352 4.192c2.336 0 4.304-1.68 4.304-4.192s-1.968-4.192-4.304-4.192zm0 6.576c-1.152 0-2.304-0.896-2.304-2.384s1.152-2.384 2.304-2.384c1.104 0 2.256 0.896 2.256 2.384s-1.152 2.384-2.256 2.384zm10.874-6.496c-1.296 0-2.224 0.64-2.864 1.568v-1.456h-2.112v7.984h2.112v-2.576c0-2.224 0.896-3.424 2.848-3.424h0.464l0.112-2.032c-0.192-0.064-0.352-0.064-0.56-0.064z" fill="#000"/>
<circle cx="492" cy="125" r="11.5" fill="#fff" stroke="#E6E6EA"/>
<defs>
<filter id="ae" x="0" y="86" width="256" height="82" color-interpolation-filters="sRGB" filterUnits="userSpaceOnUse">
<feFlood flood-opacity="0" result="BackgroundImageFix"/>
<feColorMatrix in="SourceAlpha" result="hardAlpha" values="0 0 0 0 0 0 0 0 0 0 0 0 0 0 0 0 0 0 127 0"/>
<feOffset dx="2" dy="2"/>
<feGaussianBlur stdDeviation="2"/>
<feComposite in2="hardAlpha" operator="out"/>
<feColorMatrix values="0 0 0 0 0 0 0 0 0 0 0 0 0 0 0 0 0 0 0.04 0"/>
<feBlend in2="BackgroundImageFix" result="effect1_dropShadow_1037_1339"/>
<feBlend in="SourceGraphic" in2="effect1_dropShadow_1037_1339" result="shape"/>
</filter>
<filter id="t" x=".85185" y="86.852" width="79.518" height="79.518" color-interpolation-filters="sRGB" filterUnits="userSpaceOnUse">
<feFlood flood-opacity="0" result="BackgroundImageFix"/>
<feColorMatrix in="SourceAlpha" result="hardAlpha" values="0 0 0 0 0 0 0 0 0 0 0 0 0 0 0 0 0 0 127 0"/>
<feOffset dx="2.11111" dy="2.11111"/>
<feGaussianBlur stdDeviation="5.62963"/>
<feComposite in2="hardAlpha" operator="out"/>
<feColorMatrix values="0 0 0 0 0 0 0 0 0 0 0 0 0 0 0.0117647 0 0 0 0.15 0"/>
<feBlend in2="BackgroundImageFix" result="effect1_dropShadow_1037_1339"/>
<feBlend in="SourceGraphic" in2="effect1_dropShadow_1037_1339" result="shape"/>
</filter>
<filter id="s" x="0" y="172" width="256" height="82" color-interpolation-filters="sRGB" filterUnits="userSpaceOnUse">
<feFlood flood-opacity="0" result="BackgroundImageFix"/>
<feColorMatrix in="SourceAlpha" result="hardAlpha" values="0 0 0 0 0 0 0 0 0 0 0 0 0 0 0 0 0 0 127 0"/>
<feOffset dx="2" dy="2"/>
<feGaussianBlur stdDeviation="2"/>
<feComposite in2="hardAlpha" operator="out"/>
<feColorMatrix values="0 0 0 0 0 0 0 0 0 0 0 0 0 0 0 0 0 0 0.04 0"/>
<feBlend in2="BackgroundImageFix" result="effect1_dropShadow_1037_1339"/>
<feBlend in="SourceGraphic" in2="effect1_dropShadow_1037_1339" result="shape"/>
</filter>
<filter id="r" x=".85185" y="172.85" width="79.518" height="79.518" color-interpolation-filters="sRGB" filterUnits="userSpaceOnUse">
<feFlood flood-opacity="0" result="BackgroundImageFix"/>
<feColorMatrix in="SourceAlpha" result="hardAlpha" values="0 0 0 0 0 0 0 0 0 0 0 0 0 0 0 0 0 0 127 0"/>
<feOffset dx="2.11111" dy="2.11111"/>
<feGaussianBlur stdDeviation="5.62963"/>
<feComposite in2="hardAlpha" operator="out"/>
<feColorMatrix values="0 0 0 0 0 0 0 0 0 0 0 0 0 0 0.0117647 0 0 0 0.15 0"/>
<feBlend in2="BackgroundImageFix" result="effect1_dropShadow_1037_1339"/>
<feBlend in="SourceGraphic" in2="effect1_dropShadow_1037_1339" result="shape"/>
</filter>
<filter id="q" x="262" y="172" width="256" height="82" color-interpolation-filters="sRGB" filterUnits="userSpaceOnUse">
<feFlood flood-opacity="0" result="BackgroundImageFix"/>
<feColorMatrix in="SourceAlpha" result="hardAlpha" values="0 0 0 0 0 0 0 0 0 0 0 0 0 0 0 0 0 0 127 0"/>
<feOffset dx="2" dy="2"/>
<feGaussianBlur stdDeviation="2"/>
<feComposite in2="hardAlpha" operator="out"/>
<feColorMatrix values="0 0 0 0 0 0 0 0 0 0 0 0 0 0 0 0 0 0 0.04 0"/>
<feBlend in2="BackgroundImageFix" result="effect1_dropShadow_1037_1339"/>
<feBlend in="SourceGraphic" in2="effect1_dropShadow_1037_1339" result="shape"/>
</filter>
<filter id="p" x="262.85" y="172.85" width="79.518" height="79.518" color-interpolation-filters="sRGB" filterUnits="userSpaceOnUse">
<feFlood flood-opacity="0" result="BackgroundImageFix"/>
<feColorMatrix in="SourceAlpha" result="hardAlpha" values="0 0 0 0 0 0 0 0 0 0 0 0 0 0 0 0 0 0 127 0"/>
<feOffset dx="2.11111" dy="2.11111"/>
<feGaussianBlur stdDeviation="5.62963"/>
<feComposite in2="hardAlpha" operator="out"/>
<feColorMatrix values="0 0 0 0 0 0 0 0 0 0 0 0 0 0 0.0117647 0 0 0 0.15 0"/>
<feBlend in2="BackgroundImageFix" result="effect1_dropShadow_1037_1339"/>
<feBlend in="SourceGraphic" in2="effect1_dropShadow_1037_1339" result="shape"/>
</filter>
<filter id="o" x="0" y="258" width="256" height="82" color-interpolation-filters="sRGB" filterUnits="userSpaceOnUse">
<feFlood flood-opacity="0" result="BackgroundImageFix"/>
<feColorMatrix in="SourceAlpha" result="hardAlpha" values="0 0 0 0 0 0 0 0 0 0 0 0 0 0 0 0 0 0 127 0"/>
<feOffset dx="2" dy="2"/>
<feGaussianBlur stdDeviation="2"/>
<feComposite in2="hardAlpha" operator="out"/>
<feColorMatrix values="0 0 0 0 0 0 0 0 0 0 0 0 0 0 0 0 0 0 0.04 0"/>
<feBlend in2="BackgroundImageFix" result="effect1_dropShadow_1037_1339"/>
<feBlend in="SourceGraphic" in2="effect1_dropShadow_1037_1339" result="shape"/>
</filter>
<filter id="n" x=".85185" y="258.85" width="79.518" height="79.518" color-interpolation-filters="sRGB" filterUnits="userSpaceOnUse">
<feFlood flood-opacity="0" result="BackgroundImageFix"/>
<feColorMatrix in="SourceAlpha" result="hardAlpha" values="0 0 0 0 0 0 0 0 0 0 0 0 0 0 0 0 0 0 127 0"/>
<feOffset dx="2.11111" dy="2.11111"/>
<feGaussianBlur stdDeviation="5.62963"/>
<feComposite in2="hardAlpha" operator="out"/>
<feColorMatrix values="0 0 0 0 0 0 0 0 0 0 0 0 0 0 0.0117647 0 0 0 0.15 0"/>
<feBlend in2="BackgroundImageFix" result="effect1_dropShadow_1037_1339"/>
<feBlend in="SourceGraphic" in2="effect1_dropShadow_1037_1339" result="shape"/>
</filter>
<filter id="m" x="262" y="258" width="256" height="82" color-interpolation-filters="sRGB" filterUnits="userSpaceOnUse">
<feFlood flood-opacity="0" result="BackgroundImageFix"/>
<feColorMatrix in="SourceAlpha" result="hardAlpha" values="0 0 0 0 0 0 0 0 0 0 0 0 0 0 0 0 0 0 127 0"/>
<feOffset dx="2" dy="2"/>
<feGaussianBlur stdDeviation="2"/>
<feComposite in2="hardAlpha" operator="out"/>
<feColorMatrix values="0 0 0 0 0 0 0 0 0 0 0 0 0 0 0 0 0 0 0.04 0"/>
<feBlend in2="BackgroundImageFix" result="effect1_dropShadow_1037_1339"/>
<feBlend in="SourceGraphic" in2="effect1_dropShadow_1037_1339" result="shape"/>
</filter>
<filter id="l" x="262.85" y="258.85" width="79.518" height="79.518" color-interpolation-filters="sRGB" filterUnits="userSpaceOnUse">
<feFlood flood-opacity="0" result="BackgroundImageFix"/>
<feColorMatrix in="SourceAlpha" result="hardAlpha" values="0 0 0 0 0 0 0 0 0 0 0 0 0 0 0 0 0 0 127 0"/>
<feOffset dx="2.11111" dy="2.11111"/>
<feGaussianBlur stdDeviation="5.62963"/>
<feComposite in2="hardAlpha" operator="out"/>
<feColorMatrix values="0 0 0 0 0 0 0 0 0 0 0 0 0 0 0.0117647 0 0 0 0.15 0"/>
<feBlend in2="BackgroundImageFix" result="effect1_dropShadow_1037_1339"/>
<feBlend in="SourceGraphic" in2="effect1_dropShadow_1037_1339" result="shape"/>
</filter>
<filter id="ad" x="0" y="344" width="256" height="82" color-interpolation-filters="sRGB" filterUnits="userSpaceOnUse">
<feFlood flood-opacity="0" result="BackgroundImageFix"/>
<feColorMatrix in="SourceAlpha" result="hardAlpha" values="0 0 0 0 0 0 0 0 0 0 0 0 0 0 0 0 0 0 127 0"/>
<feOffset dx="2" dy="2"/>
<feGaussianBlur stdDeviation="2"/>
<feComposite in2="hardAlpha" operator="out"/>
<feColorMatrix values="0 0 0 0 0 0 0 0 0 0 0 0 0 0 0 0 0 0 0.04 0"/>
<feBlend in2="BackgroundImageFix" result="effect1_dropShadow_1037_1339"/>
<feBlend in="SourceGraphic" in2="effect1_dropShadow_1037_1339" result="shape"/>
</filter>
<filter id="ac" x=".85185" y="344.85" width="79.518" height="79.518" color-interpolation-filters="sRGB" filterUnits="userSpaceOnUse">
<feFlood flood-opacity="0" result="BackgroundImageFix"/>
<feColorMatrix in="SourceAlpha" result="hardAlpha" values="0 0 0 0 0 0 0 0 0 0 0 0 0 0 0 0 0 0 127 0"/>
<feOffset dx="2.11111" dy="2.11111"/>
<feGaussianBlur stdDeviation="5.62963"/>
<feComposite in2="hardAlpha" operator="out"/>
<feColorMatrix values="0 0 0 0 0 0 0 0 0 0 0 0 0 0 0.0117647 0 0 0 0.15 0"/>
<feBlend in2="BackgroundImageFix" result="effect1_dropShadow_1037_1339"/>
<feBlend in="SourceGraphic" in2="effect1_dropShadow_1037_1339" result="shape"/>
</filter>
<filter id="ab" x="262" y="0" width="256" height="82" color-interpolation-filters="sRGB" filterUnits="userSpaceOnUse">
<feFlood flood-opacity="0" result="BackgroundImageFix"/>
<feColorMatrix in="SourceAlpha" result="hardAlpha" values="0 0 0 0 0 0 0 0 0 0 0 0 0 0 0 0 0 0 127 0"/>
<feOffset dx="2" dy="2"/>
<feGaussianBlur stdDeviation="2"/>
<feComposite in2="hardAlpha" operator="out"/>
<feColorMatrix values="0 0 0 0 0 0 0 0 0 0 0 0 0 0 0 0 0 0 0.04 0"/>
<feBlend in2="BackgroundImageFix" result="effect1_dropShadow_1037_1339"/>
<feBlend in="SourceGraphic" in2="effect1_dropShadow_1037_1339" result="shape"/>
</filter>
<filter id="aa" x="262.85" y=".85185" width="79.518" height="79.518" color-interpolation-filters="sRGB" filterUnits="userSpaceOnUse">
<feFlood flood-opacity="0" result="BackgroundImageFix"/>
<feColorMatrix in="SourceAlpha" result="hardAlpha" values="0 0 0 0 0 0 0 0 0 0 0 0 0 0 0 0 0 0 127 0"/>
<feOffset dx="2.11111" dy="2.11111"/>
<feGaussianBlur stdDeviation="5.62963"/>
<feComposite in2="hardAlpha" operator="out"/>
<feColorMatrix values="0 0 0 0 0 0 0 0 0 0 0 0 0 0 0.0117647 0 0 0 0.15 0"/>
<feBlend in2="BackgroundImageFix" result="effect1_dropShadow_1037_1339"/>
<feBlend in="SourceGraphic" in2="effect1_dropShadow_1037_1339" result="shape"/>
</filter>
<filter id="z" x="0" y="0" width="256" height="82" color-interpolation-filters="sRGB" filterUnits="userSpaceOnUse">
<feFlood flood-opacity="0" result="BackgroundImageFix"/>
<feColorMatrix in="SourceAlpha" result="hardAlpha" values="0 0 0 0 0 0 0 0 0 0 0 0 0 0 0 0 0 0 127 0"/>
<feOffset dx="2" dy="2"/>
<feGaussianBlur stdDeviation="2"/>
<feComposite in2="hardAlpha" operator="out"/>
<feColorMatrix values="0 0 0 0 0 0 0 0 0 0 0 0 0 0 0 0 0 0 0.04 0"/>
<feBlend in2="BackgroundImageFix" result="effect1_dropShadow_1037_1339"/>
<feBlend in="SourceGraphic" in2="effect1_dropShadow_1037_1339" result="shape"/>
</filter>
<filter id="y" x=".85185" y=".85185" width="79.518" height="79.518" color-interpolation-filters="sRGB" filterUnits="userSpaceOnUse">
<feFlood flood-opacity="0" result="BackgroundImageFix"/>
<feColorMatrix in="SourceAlpha" result="hardAlpha" values="0 0 0 0 0 0 0 0 0 0 0 0 0 0 0 0 0 0 127 0"/>
<feOffset dx="2.11111" dy="2.11111"/>
<feGaussianBlur stdDeviation="5.62963"/>
<feComposite in2="hardAlpha" operator="out"/>
<feColorMatrix values="0 0 0 0 0 0 0 0 0 0 0 0 0 0 0.0117647 0 0 0 0.15 0"/>
<feBlend in2="BackgroundImageFix" result="effect1_dropShadow_1037_1339"/>
<feBlend in="SourceGraphic" in2="effect1_dropShadow_1037_1339" result="shape"/>
</filter>
<filter id="x" x="262" y="344" width="256" height="82" color-interpolation-filters="sRGB" filterUnits="userSpaceOnUse">
<feFlood flood-opacity="0" result="BackgroundImageFix"/>
<feColorMatrix in="SourceAlpha" result="hardAlpha" values="0 0 0 0 0 0 0 0 0 0 0 0 0 0 0 0 0 0 127 0"/>
<feOffset dx="2" dy="2"/>
<feGaussianBlur stdDeviation="2"/>
<feComposite in2="hardAlpha" operator="out"/>
<feColorMatrix values="0 0 0 0 0 0 0 0 0 0 0 0 0 0 0 0 0 0 0.04 0"/>
<feBlend in2="BackgroundImageFix" result="effect1_dropShadow_1037_1339"/>
<feBlend in="SourceGraphic" in2="effect1_dropShadow_1037_1339" result="shape"/>
</filter>
<filter id="w" x="262.85" y="344.85" width="79.518" height="79.518" color-interpolation-filters="sRGB" filterUnits="userSpaceOnUse">
<feFlood flood-opacity="0" result="BackgroundImageFix"/>
<feColorMatrix in="SourceAlpha" result="hardAlpha" values="0 0 0 0 0 0 0 0 0 0 0 0 0 0 0 0 0 0 127 0"/>
<feOffset dx="2.11111" dy="2.11111"/>
<feGaussianBlur stdDeviation="5.62963"/>
<feComposite in2="hardAlpha" operator="out"/>
<feColorMatrix values="0 0 0 0 0 0 0 0 0 0 0 0 0 0 0.0117647 0 0 0 0.15 0"/>
<feBlend in2="BackgroundImageFix" result="effect1_dropShadow_1037_1339"/>
<feBlend in="SourceGraphic" in2="effect1_dropShadow_1037_1339" result="shape"/>
</filter>
<filter id="v" x="262" y="86" width="256" height="82" color-interpolation-filters="sRGB" filterUnits="userSpaceOnUse">
<feFlood flood-opacity="0" result="BackgroundImageFix"/>
<feColorMatrix in="SourceAlpha" result="hardAlpha" values="0 0 0 0 0 0 0 0 0 0 0 0 0 0 0 0 0 0 127 0"/>
<feOffset dx="2" dy="2"/>
<feGaussianBlur stdDeviation="2"/>
<feComposite in2="hardAlpha" operator="out"/>
<feColorMatrix values="0 0 0 0 0 0 0 0 0 0 0 0 0 0 0 0 0 0 0.04 0"/>
<feBlend in2="BackgroundImageFix" result="effect1_dropShadow_1037_1339"/>
<feBlend in="SourceGraphic" in2="effect1_dropShadow_1037_1339" result="shape"/>
</filter>
<filter id="u" x="262.85" y="86.852" width="79.518" height="79.518" color-interpolation-filters="sRGB" filterUnits="userSpaceOnUse">
<feFlood flood-opacity="0" result="BackgroundImageFix"/>
<feColorMatrix in="SourceAlpha" result="hardAlpha" values="0 0 0 0 0 0 0 0 0 0 0 0 0 0 0 0 0 0 127 0"/>
<feOffset dx="2.11111" dy="2.11111"/>
<feGaussianBlur stdDeviation="5.62963"/>
<feComposite in2="hardAlpha" operator="out"/>
<feColorMatrix values="0 0 0 0 0 0 0 0 0 0 0 0 0 0 0.0117647 0 0 0 0.15 0"/>
<feBlend in2="BackgroundImageFix" result="effect1_dropShadow_1037_1339"/>
<feBlend in="SourceGraphic" in2="effect1_dropShadow_1037_1339" result="shape"/>
</filter>
<linearGradient id="a" x1="38.501" x2="38.501" y1="139.85" y2="107.99" gradientUnits="userSpaceOnUse">
<stop stop-color="#0062E0" offset="0"/>
<stop stop-color="#19AFFF" offset="1"/>
</linearGradient>
<clipPath id="ak">
<rect transform="translate(22 108)" width="33" height="33" fill="#fff"/>
</clipPath>
<clipPath id="aj">
<rect transform="translate(22.666 193.96)" width="31.871" height="32.766" fill="#fff"/>
</clipPath>
<clipPath id="ai">
<rect transform="translate(22.666 281.37)" width="32.37" height="30.791" fill="#fff"/>
</clipPath>
<clipPath id="ah">
<rect transform="translate(277.63 273.63)" width="46.444" height="46.444" fill="#fff"/>
</clipPath>
<clipPath id="ag">
<rect transform="translate(288 27)" width="24" height="24" fill="#fff"/>
</clipPath>
<clipPath id="af">
<rect transform="translate(25 26)" width="26" height="26" fill="#fff"/>
</clipPath>
</defs>
</svg>
