<?xml version="1.0" encoding="UTF-8"?>
<svg fill="none" viewBox="0 0 491 377" xmlns="http://www.w3.org/2000/svg">
<g filter="url(#b)">
<rect x="3" y="3" width="480" height="178" rx="6" fill="#fff"/>
<rect x="3.6242" y="3.6242" width="478.75" height="176.75" rx="5.3758" stroke="#E6E6EA" stroke-width="1.2483"/>
</g>
<g clip-path="url(#w)">
<path d="m138.32 36.058c-0.372 0-0.674 0.3023-0.674 0.6745 0 0.3723 0.302 0.6746 0.674 0.6746 0.373 0 0.675-0.3023 0.675-0.6746 0-0.3722-0.302-0.6745-0.675-0.6745zm0 1.2421c-0.313 0-0.567-0.2553-0.567-0.5676 0-0.3137 0.255-0.5675 0.567-0.5675 0.314 0 0.569 0.2552 0.569 0.5675s-0.255 0.5676-0.569 0.5676zm0.22-0.6831c0-0.1226-0.087-0.1954-0.215-0.1954h-0.216v0.6147h0.106v-0.2225h0.115l0.112 0.2225h0.114l-0.123-0.2453c0.066-0.03 0.107-0.0899 0.107-0.174zm-0.22 0.1013h-0.104v-0.2039h0.104c0.072 0 0.114 0.0356 0.114 0.1012 0 0.067-0.044 0.1027-0.114 0.1027zm-81.276-7.4869v-1.6315h-2.5013v9.7059h2.5013v-5.8198c0-1.0539 0.676-1.5716 1.7299-1.5716h1.369v-2.3144h-1.1694c-0.9155-1e-4 -1.7113 0.4777-1.9295 1.6314zm5.4419-5.4705c-0.8556 0-1.5116 0.676-1.5116 1.5317 0 0.8356 0.656 1.5116 1.5116 1.5116 0.8557 0 1.5117-0.676 1.5117-1.5116 0-0.8557-0.656-1.5317-1.5117-1.5317zm-1.2478 13.545h2.4957v-9.7059h-2.4957v9.7059zm14.383-4.8529c0 2.7708-2.246 5.0169-5.0169 5.0169-1.1181 0-2.132-0.3665-2.9449-0.9854v3.6707h-2.4956v-12.555h2.4956v0.8214c0.8129-0.6189 1.8268-0.9854 2.9449-0.9854 2.7709 0 5.0169 2.2461 5.0169 5.017zm-2.5113 0c0-1.5045-1.2207-2.7253-2.7252-2.7253-1.5046 0-2.7253 1.2208-2.7253 2.7253s1.2208 2.7252 2.7253 2.7252 2.7252-1.2193 2.7252-2.7252zm45.887-0.8514-1.456-0.3993c-0.958-0.2496-1.33-0.5433-1.33-1.0496 0-0.4934 0.524-0.8385 1.274-0.8385 0.715 0 1.275 0.4677 1.275 1.0667v0.0556h2.301v-0.0556c0-1.7613-1.436-2.9449-3.576-2.9449-2.117 0-3.656 1.1822-3.656 2.8122 0 1.2678 0.84 2.2233 2.306 2.6197l1.395 0.3808c1.059 0.2937 1.453 0.6189 1.453 1.2022 0 0.6146-0.569 1.0282-1.416 1.0282-0.883 0-1.478-0.5591-1.478-1.389v-0.0557h-2.441v0.0557c0 1.9908 1.603 3.3826 3.899 3.3826 2.212 0 3.817-1.359 3.817-3.23 0-0.9184-0.41-2.1191-2.367-2.6411zm-34.522-4.0016h2.4956v9.7059h-2.4956v-0.8215c-0.8129 0.619-1.8268 0.9855-2.9448 0.9855-2.7709 0-5.0169-2.2461-5.0169-5.017s2.246-5.0169 5.0169-5.0169c1.118 0 2.132 0.3665 2.9448 0.9854v-0.8214zm0 4.853c0-1.506-1.2207-2.7253-2.7252-2.7253-1.5046 0-2.7252 1.2208-2.7252 2.7253s1.2206 2.7252 2.7252 2.7252c1.5059 0 2.7252-1.2193 2.7252-2.7252zm11.507-8.3069h2.4957v13.161h-2.4957v-0.8214c-0.8129 0.6189-1.8268 0.9854-2.9448 0.9854-2.7709 0-5.017-2.2461-5.017-5.0169 0-2.7709 2.2461-5.017 5.017-5.017 1.118 0 2.1319 0.3665 2.9448 0.9854v-4.2767zm0 8.3069c0-1.5045-1.2207-2.7253-2.7252-2.7253s-2.7253 1.2208-2.7253 2.7253 1.2193 2.7252 2.7253 2.7252c1.5045 0 2.7252-1.2193 2.7252-2.7252zm14.082 4.8529h2.496v-9.7059h-2.496v9.7059zm1.248-13.545c-0.856 0-1.512 0.676-1.512 1.5317 0 0.8356 0.656 1.5116 1.512 1.5116s1.512-0.676 1.512-1.5116c0-0.8557-0.656-1.5317-1.512-1.5317zm20.839 8.692c0 2.7708-2.246 5.0169-5.017 5.0169s-5.017-2.2461-5.017-5.0169c0-2.7709 2.246-5.017 5.017-5.017s5.017 2.2461 5.017 5.017zm-2.291 0c0-1.5045-1.221-2.7253-2.726-2.7253-1.504 0-2.725 1.2208-2.725 2.7253s1.219 2.7252 2.725 2.7252c1.505 0 2.726-1.2193 2.726-2.7252zm-74.094-8.3069h-9.5732v2.2261h3.5438v10.934h2.4871v-10.934h3.5438v-2.2261h-0.0015zm48.414 10.502-2.22-7.0476h-2.6214l3.3294 9.7058h3.004l3.35-9.7058h-2.622l-2.22 7.0476zm31.628-5.4162v-1.6315h-2.502v9.7059h2.502v-5.8198c0-1.0539 0.676-1.5716 1.729-1.5716h1.369v-2.3144h-1.169c-0.915-1e-4 -1.71 0.4777-1.929 1.6314z" fill="#000"/>
<path d="m31.763 44.528c7.049 0 12.763-5.7143 12.763-12.763 0-7.049-5.7143-12.763-12.763-12.763s-12.763 5.7143-12.763 12.763c0 7.0491 5.7144 12.763 12.763 12.763z" fill="#34E0A1"/>
<path d="m39.647 29.275 1.5401-1.6756h-3.4154c-1.7099-1.168-3.7748-1.8482-6.0081-1.8482-2.2304 0-4.2896 0.6817-5.9966 1.8482h-3.424l1.5401 1.6756c-0.944 0.8614-1.5358 2.1021-1.5358 3.4797 0 2.5997 2.1077 4.7074 4.7075 4.7074 1.235 0 2.3601-0.4763 3.2001-1.2549l1.5088 1.6428 1.5088-1.6414c0.8399 0.7787 1.9636 1.2535 3.1986 1.2535 2.5998 0 4.7104-2.1077 4.7104-4.7074 0.0013-1.3791-0.5904-2.6197-1.5345-3.4797zm-12.591 6.6655c-1.7598 0-3.1859-1.426-3.1859-3.1858s1.4261-3.1859 3.1859-3.1859c1.7597 0 3.1858 1.4261 3.1858 3.1859s-1.4261 3.1858-3.1858 3.1858zm4.7089-3.2785c0-2.0964-1.5245-3.8961-3.5367-4.6647 1.0881-0.455 2.2817-0.7074 3.5352-0.7074s2.4486 0.2524 3.5367 0.7074c-2.0107 0.7701-3.5352 2.5684-3.5352 4.6647zm4.7075 3.2785c-1.7598 0-3.1859-1.426-3.1859-3.1858s1.4261-3.1859 3.1859-3.1859 3.1858 1.4261 3.1858 3.1859-1.4261 3.1858-3.1858 3.1858zm0-4.8572c-0.9227 0-1.67 0.7472-1.67 1.6699s0.7473 1.67 1.67 1.67c0.9226 0 1.6699-0.7473 1.6699-1.67 0-0.9212-0.7473-1.6699-1.6699-1.6699zm-7.7465 1.6714c0 0.9226-0.7473 1.6699-1.6699 1.6699-0.9227 0-1.67-0.7473-1.67-1.6699 0-0.9227 0.7473-1.67 1.67-1.67 0.9226-0.0014 1.6699 0.7473 1.6699 1.67z" fill="#000"/>
</g>
<path d="m28.44 65.158v-1.408h-1.504v-6.944h-2.24l-5.248 6.752v1.6h5.808v2.368h1.68v-2.368h1.504zm-3.184-1.408h-3.92l3.92-5.216v5.216zm5.4106 1.808c-0.608 0-1.056 0.464-1.056 1.008 0 0.576 0.448 1.024 1.056 1.024s1.04-0.448 1.04-1.024c0-0.544-0.432-1.008-1.04-1.008zm6.802-8.976c-2.704 0-4.528 2.256-4.528 5.584s1.824 5.584 4.528 5.584 4.528-2.256 4.528-5.584-1.824-5.584-4.528-5.584zm0 9.584c-1.696 0-2.784-1.632-2.784-4s1.088-4 2.784-4 2.784 1.632 2.784 4-1.088 4-2.784 4z" fill="#000009"/>
<g clip-path="url(#l)">
<path d="m62.025 59.86-1.225-4.0333c-0.2416-0.7917-1.3583-0.7917-1.5916 0l-1.2334 4.0333h-3.7083c-0.8083 0-1.1417 1.0417-0.4833 1.5083l3.0333 2.1667-1.1917 3.8417c-0.2416 0.775 0.6584 1.4 1.3 0.9083l3.075-2.3333 3.075 2.3416c0.6417 0.4917 1.5417-0.1333 1.3-0.9083l-1.1916-3.8417 3.0333-2.1666c0.6583-0.475 0.325-1.5084-0.4833-1.5084h-3.7084v-0.0083z" fill="#FFA630"/>
</g>
<g clip-path="url(#j)">
<path d="m82.025 59.86-1.225-4.0333c-0.2416-0.7917-1.3583-0.7917-1.5916 0l-1.2334 4.0333h-3.7083c-0.8083 0-1.1417 1.0417-0.4833 1.5083l3.0333 2.1667-1.1917 3.8417c-0.2416 0.775 0.6584 1.4 1.3 0.9083l3.075-2.3333 3.075 2.3416c0.6417 0.4917 1.5417-0.1333 1.3-0.9083l-1.1916-3.8417 3.0333-2.1666c0.6583-0.475 0.325-1.5084-0.4833-1.5084h-3.7084v-0.0083z" fill="#FFA630"/>
</g>
<g clip-path="url(#i)">
<path d="m102.02 59.86-1.225-4.0333c-0.242-0.7917-1.3584-0.7917-1.5917 0l-1.2334 4.0333h-3.7083c-0.8083 0-1.1417 1.0417-0.4833 1.5083l3.0333 2.1667-1.1917 3.8417c-0.2416 0.775 0.6584 1.4 1.3 0.9083l3.075-2.3333 3.0751 2.3416c0.642 0.4917 1.542-0.1333 1.3-0.9083l-1.192-3.8417 3.034-2.1666c0.658-0.475 0.325-1.5084-0.484-1.5084h-3.708v-0.0083z" fill="#FFA630"/>
</g>
<g clip-path="url(#h)">
<path d="m120.13 56.03 1.195 3.933v0.6043h4.408c0.047 0 0.068 0.0128 0.081 0.0223 0.016 0.0128 0.034 0.0356 0.044 0.0679 0.011 0.0323 0.01 0.0616 4e-3 0.0825-5e-3 0.0156-0.016 0.0395-0.054 0.0673 0 2e-4 -1e-3 5e-4 -1e-3 7e-4l-3.031 2.1647-0.411 0.294 0.15 0.483 1.191 3.8417 1e-3 1e-3c0.013 0.0438 8e-3 0.0678 2e-3 0.0822-7e-3 0.0197-0.024 0.0442-0.053 0.0643s-0.058 0.0278-0.08 0.0279c-0.016 2e-4 -0.04-0.0029-0.075-0.0301l-2e-3 -0.0013-3.075-2.3416-0.423-0.3224-0.424 0.3216-3.075 2.3334-3e-3 2e-3c-0.035 0.0272-0.06 0.0303-0.075 0.0301-0.022-2e-4 -0.051-0.0078-0.08-0.0279-0.029-0.0202-0.046-0.0446-0.053-0.0643-6e-3 -0.0145-0.011-0.0384 2e-3 -0.0822v-1e-3l1.192-3.8417 0.15-0.483-0.412-0.294-3.033-2.1667-2e-3 -0.0014c-0.036-0.0256-0.046-0.0471-0.05-0.0616-6e-3 -0.0198-7e-3 -0.0495 4e-3 -0.083 0.01-0.0336 0.029-0.0573 0.046-0.0706 0.012-0.0098 0.034-0.0221 0.079-0.0221h4.226l0.151-0.4953 1.234-4.0333 2e-3 -0.0068c0.013-0.0459 0.032-0.062 0.043-0.0699 0.016-0.0114 0.043-0.0218 0.078-0.0218s0.063 0.0105 0.081 0.0232c0.014 0.0094 0.034 0.0275 0.048 0.0746v3e-4z" fill="#fff" stroke="#FFA630" stroke-width="1.4"/>
</g>
<g clip-path="url(#g)">
<path d="m140.13 56.03 1.195 3.933v0.6043h4.408c0.047 0 0.068 0.0128 0.081 0.0223 0.016 0.0128 0.034 0.0356 0.044 0.0679 0.011 0.0323 0.01 0.0616 4e-3 0.0825-5e-3 0.0156-0.016 0.0395-0.054 0.0673 0 2e-4 -1e-3 5e-4 -1e-3 7e-4l-3.031 2.1647-0.411 0.294 0.15 0.483 1.191 3.8417 1e-3 1e-3c0.013 0.0438 8e-3 0.0678 2e-3 0.0822-7e-3 0.0197-0.024 0.0442-0.053 0.0643s-0.058 0.0278-0.08 0.0279c-0.016 2e-4 -0.04-0.0029-0.075-0.0301l-2e-3 -0.0013-3.075-2.3416-0.423-0.3224-0.424 0.3216-3.075 2.3334-3e-3 2e-3c-0.035 0.0272-0.06 0.0303-0.075 0.0301-0.022-2e-4 -0.051-0.0078-0.08-0.0279-0.029-0.0202-0.046-0.0446-0.053-0.0643-6e-3 -0.0145-0.011-0.0384 2e-3 -0.0822v-1e-3l1.192-3.8417 0.15-0.483-0.412-0.294-3.033-2.1667-2e-3 -0.0014c-0.036-0.0256-0.046-0.0471-0.05-0.0616-6e-3 -0.0198-7e-3 -0.0495 4e-3 -0.083 0.01-0.0336 0.029-0.0573 0.046-0.0706 0.012-0.0098 0.034-0.0221 0.079-0.0221h4.226l0.151-0.4953 1.234-4.0333 2e-3 -0.0068c0.013-0.0459 0.032-0.062 0.043-0.0699 0.016-0.0114 0.043-0.0218 0.078-0.0218s0.063 0.0105 0.081 0.0232c0.014 0.0094 0.034 0.0275 0.048 0.0746v3e-4z" fill="#fff" stroke="#FFA630" stroke-width="1.4"/>
</g>
<path d="m23.496 142.81h-1.056l-3.36 1.952v1.552l2.752-1.472v8.688h1.664v-10.72zm6.5805 3.776c-1.136 0-2.24 0.528-2.848 1.36-0.032-1.136 0.208-2.288 0.944-3.088 0.416-0.448 1.024-0.768 1.744-0.768 0.96 0 1.664 0.368 1.936 1.264l1.648-0.32c-0.432-1.584-1.792-2.448-3.52-2.448-1.2 0-2.192 0.464-2.912 1.2-1.072 1.088-1.456 2.656-1.456 4.608 0 3.392 1.664 5.36 4.32 5.36 2.288 0 3.84-1.536 3.84-3.632 0-2.048-1.408-3.536-3.696-3.536zm-0.192 5.632c-1.152 0-2.16-0.848-2.16-2.08 0-1.216 0.944-2.128 2.16-2.128 1.2 0 2.176 0.864 2.176 2.096 0 1.216-0.96 2.112-2.176 2.112zm5.5875 3.424 1.68-4.208v-0.048h-1.936l-1.008 4.256h1.264zm11.906-4.48v-1.408h-1.504v-6.944h-2.24l-5.248 6.752v1.6h5.808v2.368h1.68v-2.368h1.504zm-3.184-1.408h-3.92l3.92-5.216v5.216zm10.499-1.664c0.864-0.368 1.392-1.184 1.392-2.272 0-1.92-1.44-3.232-3.568-3.232-2.16 0-3.616 1.392-3.776 3.408l1.584 0.32c0.096-1.472 0.96-2.224 2.192-2.224 1.2 0 1.984 0.688 1.984 1.728 0 0.944-0.72 1.52-1.904 1.52h-1.424v1.488h1.52c1.264 0 2 0.608 2 1.6 0 1.088-0.896 1.824-2.16 1.824-1.376 0-2.176-0.864-2.32-2.256l-1.616 0.32c0.16 2.048 1.696 3.44 3.936 3.44 2.224 0 3.728-1.344 3.728-3.344 0-1.136-0.592-1.968-1.568-2.32zm7.042-5.504c-2.304 0-3.856 1.536-3.856 3.632 0 2.032 1.408 3.52 3.712 3.52 1.136 0 2.24-0.512 2.832-1.36 0.032 1.136-0.208 2.288-0.944 3.104-0.416 0.448-1.008 0.752-1.728 0.752-0.976 0-1.664-0.352-1.952-1.248l-1.648 0.32c0.448 1.584 1.792 2.448 3.536 2.448 1.184 0 2.192-0.464 2.912-1.2 1.056-1.088 1.44-2.672 1.44-4.608 0-3.408-1.664-5.36-4.304-5.36zm0.032 5.744c-1.2 0-2.176-0.88-2.176-2.096s0.976-2.112 2.176-2.112c1.168 0 2.16 0.848 2.16 2.08 0 1.216-0.928 2.128-2.16 2.128zm14.983-2.832c-1.376 0-2.384 0.736-3.024 1.792v-1.696h-1.664v7.936h1.664v-2.8c0-2.176 0.992-3.584 3.008-3.584 0.144 0 0.336 0 0.464 0.016l0.112-1.6c-0.208-0.064-0.368-0.064-0.56-0.064zm9.2821 3.888c-0.08-2.384-1.84-4.016-3.968-4.016-2.24 0-4.112 1.68-4.112 4.208 0 2.512 1.888 4.176 4.048 4.176 1.76 0 3.168-0.832 3.824-2.496l-1.488-0.32c-0.56 1.12-1.456 1.376-2.336 1.376-1.168 0-2.24-0.88-2.4-2.352h6.432v-0.576zm-3.968-2.544c1.088 0 2 0.64 2.256 1.936h-4.672c0.256-1.28 1.376-1.936 2.416-1.936zm13.144-1.264h-1.808l-2.496 5.968-2.496-5.968h-1.808l3.408 7.952h1.776l3.424-7.952zm2.4389-3.408c-0.624 0-1.072 0.48-1.072 1.04 0 0.592 0.448 1.024 1.072 1.024 0.608 0 1.056-0.432 1.056-1.024 0-0.56-0.448-1.04-1.056-1.04zm0.832 11.36v-7.936h-1.664v7.936h1.664zm10.037-4.144c-0.08-2.384-1.84-4.016-3.968-4.016-2.24 0-4.112 1.68-4.112 4.208 0 2.512 1.888 4.176 4.048 4.176 1.76 0 3.168-0.832 3.824-2.496l-1.488-0.32c-0.56 1.12-1.456 1.376-2.336 1.376-1.168 0-2.24-0.88-2.4-2.352h6.432v-0.576zm-3.968-2.544c1.088 0 2 0.64 2.256 1.936h-4.672c0.256-1.28 1.376-1.936 2.416-1.936zm16.708-1.248h-1.664l-1.808 5.52-1.872-5.52h-1.312l-1.872 5.52-1.808-5.52h-1.664l2.656 7.968h1.52l1.824-5.344 1.824 5.344h1.52l2.656-7.968zm0.821 5.808c0.208 1.6 1.728 2.352 3.504 2.352 1.984 0 3.344-0.896 3.344-2.56 0-1.12-0.784-1.872-2.064-2.144l-1.888-0.416c-0.704-0.16-0.96-0.448-0.96-0.896 0-0.56 0.432-1.04 1.408-1.04 1.024 0 1.68 0.528 1.808 1.296l1.584-0.336c-0.288-1.328-1.52-2.288-3.344-2.288-1.904 0-3.136 1.04-3.136 2.512 0 1.12 0.784 1.856 2.16 2.16l1.728 0.352c0.736 0.16 1.072 0.464 1.072 0.944 0 0.624-0.608 1.056-1.568 1.056-1.04 0-1.872-0.4-1.984-1.344l-1.664 0.352z" fill="#66717E"/>
<path d="m202.88 28.296 0.112-2.464h4.944v-1.552h-6.528l-0.208 5.552h3.472c1.248 0 2.08 0.672 2.08 1.824 0 1.216-0.88 2.016-2.176 2.016-1.312 0-2.304-0.816-2.304-2.464l-1.664 0.32c0 2.384 1.76 3.696 3.92 3.696 2.336 0 3.872-1.488 3.872-3.6 0-2.08-1.44-3.328-3.6-3.328h-1.92z" fill="#000009"/>
<g clip-path="url(#f)">
<path d="m222.02 27.333-1.225-4.0333c-0.242-0.7917-1.358-0.7917-1.592 0l-1.233 4.0333h-3.708c-0.809 0-1.142 1.0417-0.484 1.5084l3.034 2.1666-1.192 3.8417c-0.242 0.775 0.658 1.4 1.3 0.9083l3.075-2.3333 3.075 2.3417c0.642 0.4916 1.542-0.1334 1.3-0.9084l-1.192-3.8416 3.034-2.1667c0.658-0.475 0.325-1.5083-0.484-1.5083h-3.708v-0.0084z" fill="#FFA630"/>
</g>
<rect x="244" y="27.248" width="223" height="6" rx="3" fill="#25E85F" opacity=".23"/>
<rect x="244" y="26.752" width="174" height="6" rx="3" fill="#25E85F"/>
<path d="m209.44 63.632v-1.408h-1.504v-6.944h-2.24l-5.248 6.752v1.6h5.808v2.368h1.68v-2.368h1.504zm-3.184-1.408h-3.92l3.92-5.216v5.216z" fill="#000009"/>
<g clip-path="url(#e)">
<path d="m222.02 58.333-1.225-4.0333c-0.242-0.7917-1.358-0.7917-1.592 0l-1.233 4.0333h-3.708c-0.809 0-1.142 1.0417-0.484 1.5084l3.034 2.1666-1.192 3.8417c-0.242 0.775 0.658 1.4 1.3 0.9083l3.075-2.3333 3.075 2.3417c0.642 0.4916 1.542-0.1334 1.3-0.9084l-1.192-3.8416 3.034-2.1667c0.658-0.475 0.325-1.5083-0.484-1.5083h-3.708v-0.0084z" fill="#FFA630"/>
</g>
<rect x="244" y="58" width="223" height="6" rx="3" fill="#25E85F" opacity=".23"/>
<rect x="244" y="58" width="116" height="6" rx="3" fill="#25E85F"/>
<path d="m206.86 91.56c0.864-0.368 1.392-1.184 1.392-2.272 0-1.92-1.44-3.232-3.568-3.232-2.16 0-3.616 1.392-3.776 3.408l1.584 0.32c0.096-1.472 0.96-2.224 2.192-2.224 1.2 0 1.984 0.688 1.984 1.728 0 0.944-0.72 1.52-1.904 1.52h-1.424v1.488h1.52c1.264 0 2 0.608 2 1.6 0 1.088-0.896 1.824-2.16 1.824-1.376 0-2.176-0.864-2.32-2.256l-1.616 0.32c0.16 2.048 1.696 3.44 3.936 3.44 2.224 0 3.728-1.344 3.728-3.344 0-1.136-0.592-1.968-1.568-2.32z" fill="#000009"/>
<g clip-path="url(#d)">
<path d="m222.02 89.333-1.225-4.0333c-0.242-0.7917-1.358-0.7917-1.592 0l-1.233 4.0333h-3.708c-0.809 0-1.142 1.0417-0.484 1.5084l3.034 2.1666-1.192 3.8417c-0.242 0.775 0.658 1.4 1.3 0.9083l3.075-2.3333 3.075 2.3417c0.642 0.4916 1.542-0.1334 1.3-0.9084l-1.192-3.8416 3.034-2.1667c0.658-0.475 0.325-1.5083-0.484-1.5083h-3.708v-0.0084z" fill="#FFA630"/>
</g>
<rect x="244" y="89.248" width="223" height="6" rx="3" fill="#25E85F" opacity=".23"/>
<rect x="244" y="88.752" width="68" height="6" rx="3" fill="#25E85F"/>
<path d="m207.76 126.45h-4.624l2.112-2.016c1.616-1.536 2.416-2.528 2.416-4.064 0-1.968-1.456-3.312-3.584-3.312-2.144 0-3.616 1.328-3.696 3.424l1.568 0.32c0.08-1.488 0.864-2.256 2.112-2.256 1.152 0 1.952 0.752 1.952 1.856 0 1.28-0.848 2.032-1.792 2.912l-3.712 3.584v1.104h7.248v-1.552z" fill="#000009"/>
<g clip-path="url(#c)">
<path d="m221.02 120.33-1.225-4.033c-0.242-0.792-1.358-0.792-1.592 0l-1.233 4.033h-3.708c-0.809 0-1.142 1.042-0.484 1.508l3.034 2.167-1.192 3.842c-0.242 0.775 0.658 1.4 1.3 0.908l3.075-2.333 3.075 2.341c0.642 0.492 1.542-0.133 1.3-0.908l-1.192-3.842 3.034-2.166c0.658-0.475 0.325-1.509-0.484-1.509h-3.708v-8e-3z" fill="#FFA630"/>
</g>
<rect x="243" y="120.37" width="223" height="6" rx="3" fill="#25E85F" opacity=".23"/>
<rect x="243" y="119.63" width="8" height="6" rx="3" fill="#25E85F"/>
<path d="m204.5 148.28h-1.056l-3.36 1.952v1.552l2.752-1.472v8.688h1.664v-10.72z" fill="#000009"/>
<g clip-path="url(#v)">
<path d="m218.02 151.33-1.225-4.033c-0.242-0.792-1.358-0.792-1.592 0l-1.233 4.033h-3.708c-0.809 0-1.142 1.042-0.484 1.508l3.034 2.167-1.192 3.842c-0.242 0.775 0.658 1.4 1.3 0.908l3.075-2.333 3.075 2.341c0.642 0.492 1.542-0.133 1.3-0.908l-1.192-3.842 3.034-2.166c0.658-0.475 0.325-1.509-0.484-1.509h-3.708v-8e-3z" fill="#FFA630"/>
</g>
<rect x="240" y="151" width="223" height="6" rx="3" fill="#25E85F" opacity=".23"/>
<rect x="240" y="151" width="6" height="6" rx="3" fill="#25E85F"/>
<g filter="url(#a)">
<rect x="3" y="191" width="480" height="178" rx="6" fill="#fff"/>
<rect x="3.6242" y="191.62" width="478.75" height="176.75" rx="5.3758" stroke="#E6E6EA" stroke-width="1.2483"/>
</g>
<path d="m49.214 219.32c0 3.333-2.6077 5.79-5.8079 5.79s-5.8079-2.457-5.8079-5.79c0-3.357 2.6077-5.79 5.8079-5.79s5.8079 2.433 5.8079 5.79zm-2.5424 0c0-2.083-1.5114-3.508-3.2655-3.508s-3.2655 1.425-3.2655 3.508c0 2.062 1.5114 3.508 3.2655 3.508s3.2655-1.448 3.2655-3.508z" fill="#EA4335"/>
<path d="m61.744 219.32c0 3.333-2.6077 5.79-5.8079 5.79s-5.8079-2.457-5.8079-5.79c0-3.354 2.6077-5.79 5.8079-5.79s5.8079 2.433 5.8079 5.79zm-2.5424 0c0-2.083-1.5114-3.508-3.2655-3.508s-3.2655 1.425-3.2655 3.508c0 2.062 1.5114 3.508 3.2655 3.508s3.2655-1.448 3.2655-3.508z" fill="#FBBC05"/>
<path d="m73.751 213.88v10.394c0 4.276-2.5215 6.022-5.5025 6.022-2.806 0-4.4949-1.876-5.1318-3.411l2.2135-0.922c0.3942 0.943 1.36 2.055 2.9157 2.055 1.9081 0 3.0906-1.178 3.0906-3.394v-0.833h-0.0887c-0.5691 0.703-1.6654 1.316-3.0489 1.316-2.8948 0-5.5468-2.521-5.5468-5.766 0-3.268 2.652-5.811 5.5468-5.811 1.3809 0 2.4772 0.614 3.0489 1.295h0.0887v-0.942h2.4145v-3e-3zm-2.2344 5.461c0-2.039-1.3599-3.529-3.0906-3.529-1.7541 0-3.2237 1.49-3.2237 3.529 0 2.018 1.4696 3.487 3.2237 3.487 1.7307 0 3.0906-1.469 3.0906-3.487z" fill="#4285F4"/>
<path d="m77.732 207.78v16.967h-2.4797v-16.967h2.4797z" fill="#34A853"/>
<path d="m87.395 221.22 1.9734 1.316c-0.6369 0.942-2.1718 2.566-4.8238 2.566-3.289 0-5.7453-2.543-5.7453-5.79 0-3.443 2.4772-5.79 5.4608-5.79 3.0044 0 4.474 2.391 4.9543 3.684l0.2636 0.657-7.7395 3.206c0.5925 1.161 1.514 1.754 2.8061 1.754 1.2947 0 2.1926-0.637 2.8504-1.603zm-6.0741-2.083 5.1736-2.148c-0.2846-0.723-1.1407-1.227-2.1483-1.227-1.2921 0-3.0906 1.141-3.0253 3.375z" fill="#EA4335"/>
<path d="m28.212 217.81v-2.457h8.2772c0.0809 0.428 0.1227 0.935 0.1227 1.483 0 1.843-0.5038 4.122-2.1274 5.745-1.5792 1.645-3.597 2.522-6.2699 2.522-4.9544 0-9.1204-4.036-9.1204-8.99s4.166-8.99 9.1204-8.99c2.7408 0 4.6933 1.075 6.1603 2.477l-1.7333 1.733c-1.0519-0.986-2.4771-1.754-4.4296-1.754-3.6179 0-6.4475 2.916-6.4475 6.534s2.8296 6.533 6.4475 6.533c2.3466 0 3.6831-0.942 4.5393-1.798 0.6943-0.694 1.1511-1.686 1.3312-3.041l-5.8705 3e-3z" fill="#4285F4"/>
<path d="m28.44 251.65v-1.408h-1.504v-6.944h-2.24l-5.248 6.752v1.6h5.808v2.368h1.68v-2.368h1.504zm-3.184-1.408h-3.92l3.92-5.216v5.216zm5.4106 1.808c-0.608 0-1.056 0.464-1.056 1.008 0 0.576 0.448 1.024 1.056 1.024s1.04-0.448 1.04-1.024c0-0.544-0.432-1.008-1.04-1.008zm6.802-8.976c-2.704 0-4.528 2.256-4.528 5.584s1.824 5.584 4.528 5.584 4.528-2.256 4.528-5.584-1.824-5.584-4.528-5.584zm0 9.584c-1.696 0-2.784-1.632-2.784-4s1.088-4 2.784-4 2.784 1.632 2.784 4-1.088 4-2.784 4z" fill="#000009"/>
<g clip-path="url(#u)">
<path d="m62.025 246.35-1.225-4.034c-0.2416-0.791-1.3583-0.791-1.5916 0l-1.2334 4.034h-3.7083c-0.8083 0-1.1417 1.041-0.4833 1.508l3.0333 2.167-1.1917 3.841c-0.2416 0.775 0.6584 1.4 1.3 0.909l3.075-2.334 3.075 2.342c0.6417 0.492 1.5417-0.133 1.3-0.908l-1.1916-3.842 3.0333-2.167c0.6583-0.475 0.325-1.508-0.4833-1.508h-3.7084v-8e-3z" fill="#FFA630"/>
</g>
<g clip-path="url(#t)">
<path d="m82.025 246.35-1.225-4.034c-0.2416-0.791-1.3583-0.791-1.5916 0l-1.2334 4.034h-3.7083c-0.8083 0-1.1417 1.041-0.4833 1.508l3.0333 2.167-1.1917 3.841c-0.2416 0.775 0.6584 1.4 1.3 0.909l3.075-2.334 3.075 2.342c0.6417 0.492 1.5417-0.133 1.3-0.908l-1.1916-3.842 3.0333-2.167c0.6583-0.475 0.325-1.508-0.4833-1.508h-3.7084v-8e-3z" fill="#FFA630"/>
</g>
<g clip-path="url(#s)">
<path d="m102.02 246.35-1.225-4.034c-0.242-0.791-1.3584-0.791-1.5917 0l-1.2334 4.034h-3.7083c-0.8083 0-1.1417 1.041-0.4833 1.508l3.0333 2.167-1.1917 3.841c-0.2416 0.775 0.6584 1.4 1.3 0.909l3.075-2.334 3.0751 2.342c0.642 0.492 1.542-0.133 1.3-0.908l-1.192-3.842 3.034-2.167c0.658-0.475 0.325-1.508-0.484-1.508h-3.708v-8e-3z" fill="#FFA630"/>
</g>
<g clip-path="url(#r)">
<path d="m120.13 242.52 1.195 3.933v0.604h4.408c0.047 0 0.068 0.013 0.081 0.022 0.016 0.013 0.034 0.036 0.044 0.068 0.011 0.033 0.01 0.062 4e-3 0.083-5e-3 0.015-0.016 0.039-0.054 0.067l-1e-3 1e-3 -3.031 2.165-0.411 0.293 0.15 0.484 1.191 3.841 1e-3 1e-3c0.013 0.044 8e-3 0.068 2e-3 0.082-7e-3 0.02-0.024 0.045-0.053 0.065s-0.058 0.027-0.08 0.028c-0.016 0-0.04-3e-3 -0.075-0.031l-2e-3 -1e-3 -3.075-2.341-0.423-0.323-0.424 0.322-3.075 2.333-3e-3 2e-3c-0.035 0.027-0.06 0.03-0.075 0.03-0.022 0-0.051-8e-3 -0.08-0.028s-0.046-0.044-0.053-0.064c-6e-3 -0.014-0.011-0.038 2e-3 -0.082v-1e-3l1.192-3.842 0.15-0.483-0.412-0.294-3.033-2.166-2e-3 -2e-3c-0.036-0.025-0.046-0.047-0.05-0.061-6e-3 -0.02-7e-3 -0.05 4e-3 -0.084 0.01-0.033 0.029-0.057 0.046-0.07 0.012-0.01 0.034-0.022 0.079-0.022h4.226l0.151-0.496 1.234-4.033 2e-3 -7e-3c0.013-0.046 0.032-0.062 0.043-0.07 0.016-0.011 0.043-0.021 0.078-0.021s0.063 0.01 0.081 0.023c0.014 9e-3 0.034 0.027 0.048 0.075z" fill="#fff" stroke="#FFA630" stroke-width="1.4"/>
</g>
<g clip-path="url(#q)">
<path d="m140.13 242.52 1.195 3.933v0.604h4.408c0.047 0 0.068 0.013 0.081 0.022 0.016 0.013 0.034 0.036 0.044 0.068 0.011 0.033 0.01 0.062 4e-3 0.083-5e-3 0.015-0.016 0.039-0.054 0.067l-1e-3 1e-3 -3.031 2.165-0.411 0.293 0.15 0.484 1.191 3.841 1e-3 1e-3c0.013 0.044 8e-3 0.068 2e-3 0.082-7e-3 0.02-0.024 0.045-0.053 0.065s-0.058 0.027-0.08 0.028c-0.016 0-0.04-3e-3 -0.075-0.031l-2e-3 -1e-3 -3.075-2.341-0.423-0.323-0.424 0.322-3.075 2.333-3e-3 2e-3c-0.035 0.027-0.06 0.03-0.075 0.03-0.022 0-0.051-8e-3 -0.08-0.028s-0.046-0.044-0.053-0.064c-6e-3 -0.014-0.011-0.038 2e-3 -0.082v-1e-3l1.192-3.842 0.15-0.483-0.412-0.294-3.033-2.166-2e-3 -2e-3c-0.036-0.025-0.046-0.047-0.05-0.061-6e-3 -0.02-7e-3 -0.05 4e-3 -0.084 0.01-0.033 0.029-0.057 0.046-0.07 0.012-0.01 0.034-0.022 0.079-0.022h4.226l0.151-0.496 1.234-4.033 2e-3 -7e-3c0.013-0.046 0.032-0.062 0.043-0.07 0.016-0.011 0.043-0.021 0.078-0.021s0.063 0.01 0.081 0.023c0.014 9e-3 0.034 0.027 0.048 0.075z" fill="#fff" stroke="#FFA630" stroke-width="1.4"/>
</g>
<path d="m23.496 329.3h-1.056l-3.36 1.952v1.552l2.752-1.472v8.688h1.664v-10.72zm6.5805 3.776c-1.136 0-2.24 0.528-2.848 1.36-0.032-1.136 0.208-2.288 0.944-3.088 0.416-0.448 1.024-0.768 1.744-0.768 0.96 0 1.664 0.368 1.936 1.264l1.648-0.32c-0.432-1.584-1.792-2.448-3.52-2.448-1.2 0-2.192 0.464-2.912 1.2-1.072 1.088-1.456 2.656-1.456 4.608 0 3.392 1.664 5.36 4.32 5.36 2.288 0 3.84-1.536 3.84-3.632 0-2.048-1.408-3.536-3.696-3.536zm-0.192 5.632c-1.152 0-2.16-0.848-2.16-2.08 0-1.216 0.944-2.128 2.16-2.128 1.2 0 2.176 0.864 2.176 2.096 0 1.216-0.96 2.112-2.176 2.112zm5.5875 3.424 1.68-4.208v-0.048h-1.936l-1.008 4.256h1.264zm11.906-4.48v-1.408h-1.504v-6.944h-2.24l-5.248 6.752v1.6h5.808v2.368h1.68v-2.368h1.504zm-3.184-1.408h-3.92l3.92-5.216v5.216zm10.499-1.664c0.864-0.368 1.392-1.184 1.392-2.272 0-1.92-1.44-3.232-3.568-3.232-2.16 0-3.616 1.392-3.776 3.408l1.584 0.32c0.096-1.472 0.96-2.224 2.192-2.224 1.2 0 1.984 0.688 1.984 1.728 0 0.944-0.72 1.52-1.904 1.52h-1.424v1.488h1.52c1.264 0 2 0.608 2 1.6 0 1.088-0.896 1.824-2.16 1.824-1.376 0-2.176-0.864-2.32-2.256l-1.616 0.32c0.16 2.048 1.696 3.44 3.936 3.44 2.224 0 3.728-1.344 3.728-3.344 0-1.136-0.592-1.968-1.568-2.32zm7.042-5.504c-2.304 0-3.856 1.536-3.856 3.632 0 2.032 1.408 3.52 3.712 3.52 1.136 0 2.24-0.512 2.832-1.36 0.032 1.136-0.208 2.288-0.944 3.104-0.416 0.448-1.008 0.752-1.728 0.752-0.976 0-1.664-0.352-1.952-1.248l-1.648 0.32c0.448 1.584 1.792 2.448 3.536 2.448 1.184 0 2.192-0.464 2.912-1.2 1.056-1.088 1.44-2.672 1.44-4.608 0-3.408-1.664-5.36-4.304-5.36zm0.032 5.744c-1.2 0-2.176-0.88-2.176-2.096s0.976-2.112 2.176-2.112c1.168 0 2.16 0.848 2.16 2.08 0 1.216-0.928 2.128-2.16 2.128zm14.983-2.832c-1.376 0-2.384 0.736-3.024 1.792v-1.696h-1.664v7.936h1.664v-2.8c0-2.176 0.992-3.584 3.008-3.584 0.144 0 0.336 0 0.464 0.016l0.112-1.6c-0.208-0.064-0.368-0.064-0.56-0.064zm9.2821 3.888c-0.08-2.384-1.84-4.016-3.968-4.016-2.24 0-4.112 1.68-4.112 4.208 0 2.512 1.888 4.176 4.048 4.176 1.76 0 3.168-0.832 3.824-2.496l-1.488-0.32c-0.56 1.12-1.456 1.376-2.336 1.376-1.168 0-2.24-0.88-2.4-2.352h6.432v-0.576zm-3.968-2.544c1.088 0 2 0.64 2.256 1.936h-4.672c0.256-1.28 1.376-1.936 2.416-1.936zm13.144-1.264h-1.808l-2.496 5.968-2.496-5.968h-1.808l3.408 7.952h1.776l3.424-7.952zm2.4389-3.408c-0.624 0-1.072 0.48-1.072 1.04 0 0.592 0.448 1.024 1.072 1.024 0.608 0 1.056-0.432 1.056-1.024 0-0.56-0.448-1.04-1.056-1.04zm0.832 11.36v-7.936h-1.664v7.936h1.664zm10.037-4.144c-0.08-2.384-1.84-4.016-3.968-4.016-2.24 0-4.112 1.68-4.112 4.208 0 2.512 1.888 4.176 4.048 4.176 1.76 0 3.168-0.832 3.824-2.496l-1.488-0.32c-0.56 1.12-1.456 1.376-2.336 1.376-1.168 0-2.24-0.88-2.4-2.352h6.432v-0.576zm-3.968-2.544c1.088 0 2 0.64 2.256 1.936h-4.672c0.256-1.28 1.376-1.936 2.416-1.936zm16.708-1.248h-1.664l-1.808 5.52-1.872-5.52h-1.312l-1.872 5.52-1.808-5.52h-1.664l2.656 7.968h1.52l1.824-5.344 1.824 5.344h1.52l2.656-7.968zm0.821 5.808c0.208 1.6 1.728 2.352 3.504 2.352 1.984 0 3.344-0.896 3.344-2.56 0-1.12-0.784-1.872-2.064-2.144l-1.888-0.416c-0.704-0.16-0.96-0.448-0.96-0.896 0-0.56 0.432-1.04 1.408-1.04 1.024 0 1.68 0.528 1.808 1.296l1.584-0.336c-0.288-1.328-1.52-2.288-3.344-2.288-1.904 0-3.136 1.04-3.136 2.512 0 1.12 0.784 1.856 2.16 2.16l1.728 0.352c0.736 0.16 1.072 0.464 1.072 0.944 0 0.624-0.608 1.056-1.568 1.056-1.04 0-1.872-0.4-1.984-1.344l-1.664 0.352z" fill="#66717E"/>
<path d="m202.88 216.3 0.112-2.464h4.944v-1.552h-6.528l-0.208 5.552h3.472c1.248 0 2.08 0.672 2.08 1.824 0 1.216-0.88 2.016-2.176 2.016-1.312 0-2.304-0.816-2.304-2.464l-1.664 0.32c0 2.384 1.76 3.696 3.92 3.696 2.336 0 3.872-1.488 3.872-3.6 0-2.08-1.44-3.328-3.6-3.328h-1.92z" fill="#000009"/>
<g clip-path="url(#p)">
<path d="m222.02 215.33-1.225-4.033c-0.242-0.792-1.358-0.792-1.592 0l-1.233 4.033h-3.708c-0.809 0-1.142 1.042-0.484 1.508l3.034 2.167-1.192 3.842c-0.242 0.775 0.658 1.4 1.3 0.908l3.075-2.333 3.075 2.341c0.642 0.492 1.542-0.133 1.3-0.908l-1.192-3.842 3.034-2.166c0.658-0.475 0.325-1.509-0.484-1.509h-3.708v-8e-3z" fill="#FFA630"/>
</g>
<rect x="244" y="215.25" width="223" height="6" rx="3" fill="#25E85F" opacity=".23"/>
<rect x="244" y="214.75" width="174" height="6" rx="3" fill="#25E85F"/>
<path d="m209.44 251.63v-1.408h-1.504v-6.944h-2.24l-5.248 6.752v1.6h5.808v2.368h1.68v-2.368h1.504zm-3.184-1.408h-3.92l3.92-5.216v5.216z" fill="#000009"/>
<g clip-path="url(#o)">
<path d="m222.02 246.33-1.225-4.033c-0.242-0.792-1.358-0.792-1.592 0l-1.233 4.033h-3.708c-0.809 0-1.142 1.042-0.484 1.508l3.034 2.167-1.192 3.842c-0.242 0.775 0.658 1.4 1.3 0.908l3.075-2.333 3.075 2.341c0.642 0.492 1.542-0.133 1.3-0.908l-1.192-3.842 3.034-2.166c0.658-0.475 0.325-1.509-0.484-1.509h-3.708v-8e-3z" fill="#FFA630"/>
</g>
<rect x="244" y="246" width="223" height="6" rx="3" fill="#25E85F" opacity=".23"/>
<rect x="244" y="246" width="116" height="6" rx="3" fill="#25E85F"/>
<path d="m206.86 279.56c0.864-0.368 1.392-1.184 1.392-2.272 0-1.92-1.44-3.232-3.568-3.232-2.16 0-3.616 1.392-3.776 3.408l1.584 0.32c0.096-1.472 0.96-2.224 2.192-2.224 1.2 0 1.984 0.688 1.984 1.728 0 0.944-0.72 1.52-1.904 1.52h-1.424v1.488h1.52c1.264 0 2 0.608 2 1.6 0 1.088-0.896 1.824-2.16 1.824-1.376 0-2.176-0.864-2.32-2.256l-1.616 0.32c0.16 2.048 1.696 3.44 3.936 3.44 2.224 0 3.728-1.344 3.728-3.344 0-1.136-0.592-1.968-1.568-2.32z" fill="#000009"/>
<g clip-path="url(#n)">
<path d="m222.02 277.33-1.225-4.033c-0.242-0.792-1.358-0.792-1.592 0l-1.233 4.033h-3.708c-0.809 0-1.142 1.042-0.484 1.508l3.034 2.167-1.192 3.842c-0.242 0.775 0.658 1.4 1.3 0.908l3.075-2.333 3.075 2.341c0.642 0.492 1.542-0.133 1.3-0.908l-1.192-3.842 3.034-2.166c0.658-0.475 0.325-1.509-0.484-1.509h-3.708v-8e-3z" fill="#FFA630"/>
</g>
<rect x="244" y="277.25" width="223" height="6" rx="3" fill="#25E85F" opacity=".23"/>
<rect x="244" y="276.75" width="68" height="6" rx="3" fill="#25E85F"/>
<path d="m207.76 314.45h-4.624l2.112-2.016c1.616-1.536 2.416-2.528 2.416-4.064 0-1.968-1.456-3.312-3.584-3.312-2.144 0-3.616 1.328-3.696 3.424l1.568 0.32c0.08-1.488 0.864-2.256 2.112-2.256 1.152 0 1.952 0.752 1.952 1.856 0 1.28-0.848 2.032-1.792 2.912l-3.712 3.584v1.104h7.248v-1.552z" fill="#000009"/>
<g clip-path="url(#m)">
<path d="m221.02 308.33-1.225-4.033c-0.242-0.792-1.358-0.792-1.592 0l-1.233 4.033h-3.708c-0.809 0-1.142 1.042-0.484 1.508l3.034 2.167-1.192 3.842c-0.242 0.775 0.658 1.4 1.3 0.908l3.075-2.333 3.075 2.341c0.642 0.492 1.542-0.133 1.3-0.908l-1.192-3.842 3.034-2.166c0.658-0.475 0.325-1.509-0.484-1.509h-3.708v-8e-3z" fill="#FFA630"/>
</g>
<rect x="243" y="308.37" width="223" height="6" rx="3" fill="#25E85F" opacity=".23"/>
<rect x="243" y="307.63" width="8" height="6" rx="3" fill="#25E85F"/>
<path d="m204.5 336.28h-1.056l-3.36 1.952v1.552l2.752-1.472v8.688h1.664v-10.72z" fill="#000009"/>
<g clip-path="url(#k)">
<path d="m218.02 339.33-1.225-4.033c-0.242-0.792-1.358-0.792-1.592 0l-1.233 4.033h-3.708c-0.809 0-1.142 1.042-0.484 1.508l3.034 2.167-1.192 3.842c-0.242 0.775 0.658 1.4 1.3 0.908l3.075-2.333 3.075 2.341c0.642 0.492 1.542-0.133 1.3-0.908l-1.192-3.842 3.034-2.166c0.658-0.475 0.325-1.509-0.484-1.509h-3.708v-8e-3z" fill="#FFA630"/>
</g>
<rect x="240" y="339" width="223" height="6" rx="3" fill="#25E85F" opacity=".23"/>
<rect x="240" y="339" width="6" height="6" rx="3" fill="#25E85F"/>
<defs>
<filter id="b" x=".50336" y=".50336" width="489.99" height="187.99" color-interpolation-filters="sRGB" filterUnits="userSpaceOnUse">
<feFlood flood-opacity="0" result="BackgroundImageFix"/>
<feColorMatrix in="SourceAlpha" result="hardAlpha" values="0 0 0 0 0 0 0 0 0 0 0 0 0 0 0 0 0 0 127 0"/>
<feOffset dx="2.49664" dy="2.49664"/>
<feGaussianBlur stdDeviation="2.49664"/>
<feComposite in2="hardAlpha" operator="out"/>
<feColorMatrix values="0 0 0 0 0 0 0 0 0 0 0 0 0 0 0 0 0 0 0.04 0"/>
<feBlend in2="BackgroundImageFix" result="effect1_dropShadow_1517_4353"/>
<feBlend in="SourceGraphic" in2="effect1_dropShadow_1517_4353" result="shape"/>
</filter>
<filter id="a" x=".50336" y="188.5" width="489.99" height="187.99" color-interpolation-filters="sRGB" filterUnits="userSpaceOnUse">
<feFlood flood-opacity="0" result="BackgroundImageFix"/>
<feColorMatrix in="SourceAlpha" result="hardAlpha" values="0 0 0 0 0 0 0 0 0 0 0 0 0 0 0 0 0 0 127 0"/>
<feOffset dx="2.49664" dy="2.49664"/>
<feGaussianBlur stdDeviation="2.49664"/>
<feComposite in2="hardAlpha" operator="out"/>
<feColorMatrix values="0 0 0 0 0 0 0 0 0 0 0 0 0 0 0 0 0 0 0.04 0"/>
<feBlend in2="BackgroundImageFix" result="effect1_dropShadow_1517_4353"/>
<feBlend in="SourceGraphic" in2="effect1_dropShadow_1517_4353" result="shape"/>
</filter>
<clipPath id="w">
<rect transform="translate(19 19)" width="120" height="25.527" fill="#fff"/>
</clipPath>
<clipPath id="l">
<rect transform="translate(50 51.526)" width="20" height="20" fill="#fff"/>
</clipPath>
<clipPath id="j">
<rect transform="translate(70 51.526)" width="20" height="20" fill="#fff"/>
</clipPath>
<clipPath id="i">
<rect transform="translate(90 51.526)" width="20" height="20" fill="#fff"/>
</clipPath>
<clipPath id="h">
<rect transform="translate(110 51.526)" width="20" height="20" fill="#fff"/>
</clipPath>
<clipPath id="g">
<rect transform="translate(130 51.526)" width="20" height="20" fill="#fff"/>
</clipPath>
<clipPath id="f">
<rect transform="translate(210 19)" width="20" height="20" fill="#fff"/>
</clipPath>
<clipPath id="e">
<rect transform="translate(210 50)" width="20" height="20" fill="#fff"/>
</clipPath>
<clipPath id="d">
<rect transform="translate(210 81)" width="20" height="20" fill="#fff"/>
</clipPath>
<clipPath id="c">
<rect transform="translate(209 112)" width="20" height="20" fill="#fff"/>
</clipPath>
<clipPath id="v">
<rect transform="translate(206 143)" width="20" height="20" fill="#fff"/>
</clipPath>
<clipPath id="u">
<rect transform="translate(50 238.02)" width="20" height="20" fill="#fff"/>
</clipPath>
<clipPath id="t">
<rect transform="translate(70 238.02)" width="20" height="20" fill="#fff"/>
</clipPath>
<clipPath id="s">
<rect transform="translate(90 238.02)" width="20" height="20" fill="#fff"/>
</clipPath>
<clipPath id="r">
<rect transform="translate(110 238.02)" width="20" height="20" fill="#fff"/>
</clipPath>
<clipPath id="q">
<rect transform="translate(130 238.02)" width="20" height="20" fill="#fff"/>
</clipPath>
<clipPath id="p">
<rect transform="translate(210 207)" width="20" height="20" fill="#fff"/>
</clipPath>
<clipPath id="o">
<rect transform="translate(210 238)" width="20" height="20" fill="#fff"/>
</clipPath>
<clipPath id="n">
<rect transform="translate(210 269)" width="20" height="20" fill="#fff"/>
</clipPath>
<clipPath id="m">
<rect transform="translate(209 300)" width="20" height="20" fill="#fff"/>
</clipPath>
<clipPath id="k">
<rect transform="translate(206 331)" width="20" height="20" fill="#fff"/>
</clipPath>
</defs>
</svg>
