<?xml version="1.0" encoding="UTF-8"?>
<svg fill="none" viewBox="0 0 577 283" xmlns="http://www.w3.org/2000/svg">
<g filter="url(#a)">
<rect x="2" y="2" width="569" height="275" rx="3" fill="#fff"/>
<rect x="2.5" y="2.5" width="568" height="274" rx="2.5" stroke="#E6E6EA"/>
</g>
<path d="m31.176 35.739h-4.758v-7.449h-1.391v8.71h6.149v-1.261zm7.8113-5.187h-1.352v0.741c-0.559-0.585-1.365-0.923-2.34-0.923-1.69 0-3.198 1.378-3.198 3.406 0 2.041 1.508 3.406 3.198 3.406 0.975 0 1.781-0.338 2.34-0.923v0.741h1.352v-6.448zm-3.471 5.434c-1.183 0-2.106-0.845-2.106-2.21 0-1.352 0.923-2.21 2.106-2.21 1.066 0 2.119 0.858 2.119 2.21 0 1.365-1.053 2.21-2.119 2.21zm11.772-5.447h-1.508l-2.067 4.654-2.015-4.654h-1.508l2.782 6.305-1.053 2.366h1.508l3.861-8.671zm3.9207-0.13c-1.911 0-3.471 1.365-3.471 3.367s1.56 3.38 3.471 3.38c1.898 0 3.445-1.378 3.445-3.38s-1.547-3.367-3.445-3.367zm0 5.577c-1.131 0-2.145-0.871-2.145-2.21s1.014-2.21 2.145-2.21c1.105 0 2.132 0.871 2.132 2.21s-1.027 2.21-2.132 2.21zm10.965-5.434h-1.352v2.977c0 1.625-0.754 2.405-1.911 2.405-0.936 0-1.547-0.715-1.547-1.768v-3.614h-1.352v3.887c0 1.625 1.027 2.743 2.587 2.743 0.949 0 1.703-0.351 2.223-0.975v0.793h1.352v-6.448zm5.9295 5.005c-0.338 0.221-0.754 0.351-1.092 0.351-0.637 0-1.066-0.39-1.066-1.196v-3.042h2.21v-1.118h-2.21v-2.002h-1.352v2.002h-1.391v1.118h1.391v3.133c0 1.599 0.936 2.379 2.327 2.379 0.546 0 0.988-0.13 1.599-0.494l-0.416-1.131zm11.52-6.006v-1.261h-7.527v1.261h3.055v7.449h1.404v-7.449h3.068zm7.0838 0.988h-1.508l-2.067 4.654-2.015-4.654h-1.508l2.782 6.305-1.053 2.366h1.508l3.861-8.671zm4.8912-0.169c-0.975 0-1.781 0.338-2.34 0.923v-0.741h-1.352v8.658h1.352v-2.951c0.559 0.585 1.365 0.923 2.34 0.923 1.69 0 3.198-1.365 3.198-3.406 0-2.028-1.508-3.406-3.198-3.406zm-0.221 5.616c-1.066 0-2.119-0.845-2.119-2.21 0-1.352 1.053-2.21 2.119-2.21 1.183 0 2.106 0.858 2.106 2.21 0 1.365-0.923 2.21-2.106 2.21zm10.914-2.353c-0.065-1.937-1.495-3.263-3.2242-3.263-1.82 0-3.341 1.365-3.341 3.419 0 2.041 1.534 3.393 3.289 3.393 1.4302 0 2.5742-0.676 3.1072-2.028l-1.209-0.26c-0.455 0.91-1.1832 1.118-1.8982 1.118-0.949 0-1.82-0.715-1.95-1.911h5.2262v-0.468zm-3.2242-2.067c0.884 0 1.6252 0.52 1.8332 1.573h-3.7962c0.208-1.04 1.118-1.573 1.963-1.573z" fill="#6D696A"/>
<rect x="24.5" y="54.5" width="119" height="200" rx="5.5" fill="#fff" stroke="#DDDBDB"/>
<path d="m46 80h37c3.3137 0 6 2.6863 6 6v4c0 3.3137-2.6863 6-6 6h-37v-16z" fill="#E8E8E8"/>
<path d="m46 104h71c3.314 0 6 2.686 6 6v4c0 3.314-2.686 6-6 6h-71v-16z" fill="#E8E8E8"/>
<path d="m46 128h56c3.314 0 6 2.686 6 6v4c0 3.314-2.686 6-6 6h-56v-16z" fill="#E8E8E8"/>
<path d="m46 152h48c3.3137 0 6 2.686 6 6v4c0 3.314-2.6863 6-6 6h-48v-16z" fill="#E8E8E8"/>
<rect transform="matrix(-1 0 0 1 46 80)" width="1" height="87" fill="#DDDBDB"/>
<rect x="25" y="194" width="118" height="1" fill="#DDDBDB"/>
<path d="m76.265 213.16v-1.872h-7.774v1.872h2.821v6.838h2.132v-6.838h2.821zm3.154 0.143c-1.976 0-3.614 1.378-3.614 3.432 0 2.067 1.638 3.445 3.614 3.445 1.937 0 3.575-1.378 3.575-3.445 0-2.054-1.638-3.432-3.575-3.432zm0 5.122c-0.845 0-1.612-0.663-1.612-1.69 0-1.014 0.767-1.69 1.612-1.69 0.806 0 1.573 0.676 1.573 1.69 0 1.027-0.767 1.69-1.573 1.69zm9.003-0.351c-0.273 0.156-0.663 0.26-0.949 0.26-0.546 0-0.871-0.273-0.871-0.949v-2.262h1.924v-1.651h-1.924v-1.924h-2.08v1.924h-1.183v1.651h1.183v2.47c0 1.716 0.975 2.6 2.6 2.6 0.741 0 1.274-0.208 1.781-0.481l-0.481-1.638zm8.0061-4.602h-2.08v0.52c-0.507-0.455-1.183-0.715-2.028-0.715-1.729 0-3.185 1.404-3.185 3.458 0 2.067 1.456 3.458 3.185 3.458 0.845 0 1.521-0.26 2.028-0.715v0.52h2.08v-6.526zm-3.679 4.953c-0.91 0-1.573-0.676-1.573-1.69 0-1.001 0.663-1.69 1.573-1.69 0.845 0 1.599 0.689 1.599 1.69 0 1.014-0.754 1.69-1.599 1.69zm7.2609 1.573v-9.36h-2.0797v9.36h2.0797zm-32.546 18-2.73-3.094c1.404-0.312 2.288-1.339 2.288-2.769 0-1.703-1.248-2.847-3.133-2.847h-4.407v8.71h2.145v-2.99h0.624l2.626 2.99h2.587zm-5.837-4.784v-2.093h2.028c0.767 0 1.261 0.416 1.261 1.04 0 0.637-0.494 1.053-1.261 1.053h-2.028zm12.77 1.521c-0.039-2.132-1.521-3.458-3.367-3.458-1.898 0-3.458 1.404-3.458 3.458 0 2.067 1.56 3.458 3.445 3.458 1.495 0 2.678-0.663 3.237-2.041l-1.846-0.377c-0.351 0.637-0.91 0.754-1.391 0.754-0.702 0-1.235-0.481-1.404-1.261h4.784v-0.533zm-3.367-1.768c0.598 0 1.118 0.325 1.313 1.027h-2.691c0.195-0.663 0.793-1.027 1.378-1.027zm11.084-1.508h-2.197l-1.56 4.03-1.573-4.03h-2.197l2.704 6.539h2.119l2.704-6.539zm1.986-3.094c-0.702 0-1.196 0.546-1.196 1.183 0 0.663 0.494 1.157 1.196 1.157s1.209-0.494 1.209-1.157c0-0.637-0.507-1.183-1.209-1.183zm1.04 9.633v-6.526h-2.08v6.526h2.08zm8.0079-3.263c-0.039-2.132-1.521-3.458-3.367-3.458-1.898 0-3.458 1.404-3.458 3.458 0 2.067 1.56 3.458 3.445 3.458 1.495 0 2.678-0.663 3.237-2.041l-1.846-0.377c-0.351 0.637-0.91 0.754-1.391 0.754-0.702 0-1.235-0.481-1.404-1.261h4.784v-0.533zm-3.367-1.768c0.598 0 1.118 0.325 1.313 1.027h-2.691c0.195-0.663 0.793-1.027 1.378-1.027zm13.799-1.495h-2.041l-1.066 3.523-1.2351-3.523h-1.469l-1.235 3.51-1.066-3.51h-2.041l2.093 6.539h1.807l1.183-3.536 1.17 3.536h1.8071l2.093-6.539zm0.313 4.823c0.221 1.339 1.534 1.898 3.068 1.898 1.716 0 2.964-0.754 2.964-2.197 0-0.962-0.572-1.703-1.807-1.963l-1.534-0.312c-0.416-0.091-0.494-0.273-0.494-0.455 0-0.234 0.182-0.507 0.741-0.507 0.637 0 1.027 0.364 1.092 0.767l1.898-0.377c-0.26-1.131-1.339-1.872-2.964-1.872-1.651 0-2.808 0.871-2.808 2.21 0 1.027 0.689 1.677 1.898 1.898l1.326 0.26c0.481 0.091 0.65 0.26 0.65 0.481 0 0.286-0.299 0.52-0.845 0.52-0.559 0-1.066-0.208-1.157-0.767l-2.028 0.416z" fill="#000009"/>
<rect x="159.5" y="54.5" width="119" height="200" rx="5.5" fill="#fff" stroke="#DDDBDB"/>
<rect transform="matrix(-1 0 0 1 177 80)" width="1" height="87" fill="#DDDBDB"/>
<path d="m177 126.56 4 3.441 9.5-9.093 6.5 6.144 9.5-13.517 6 9.83 12.5-15.483 10.5 5.119 12-12 16 2.5" stroke="#E8E8E8" stroke-linecap="round" stroke-linejoin="round" stroke-width="2"/>
<path d="m177 147.56 4 3.441 9.5-9.093 6.5 6.144 9.5-13.517 6 9.83 12.5-15.483 11 11.305 11.5-18.186 15.5 17.449" stroke="#E8E8E8" stroke-linecap="round" stroke-linejoin="round" stroke-width="2"/>
<rect x="160" y="194" width="118" height="1" fill="#DDDBDB"/>
<path d="m211.26 213.16v-1.872h-7.774v1.872h2.821v6.838h2.132v-6.838h2.821zm3.154 0.143c-1.976 0-3.614 1.378-3.614 3.432 0 2.067 1.638 3.445 3.614 3.445 1.937 0 3.575-1.378 3.575-3.445 0-2.054-1.638-3.432-3.575-3.432zm0 5.122c-0.845 0-1.612-0.663-1.612-1.69 0-1.014 0.767-1.69 1.612-1.69 0.806 0 1.573 0.676 1.573 1.69 0 1.027-0.767 1.69-1.573 1.69zm9.003-0.351c-0.273 0.156-0.663 0.26-0.949 0.26-0.546 0-0.871-0.273-0.871-0.949v-2.262h1.924v-1.651h-1.924v-1.924h-2.08v1.924h-1.183v1.651h1.183v2.47c0 1.716 0.975 2.6 2.6 2.6 0.741 0 1.274-0.208 1.781-0.481l-0.481-1.638zm8.006-4.602h-2.08v0.52c-0.507-0.455-1.183-0.715-2.028-0.715-1.729 0-3.185 1.404-3.185 3.458 0 2.067 1.456 3.458 3.185 3.458 0.845 0 1.521-0.26 2.028-0.715v0.52h2.08v-6.526zm-3.679 4.953c-0.91 0-1.573-0.676-1.573-1.69 0-1.001 0.663-1.69 1.573-1.69 0.845 0 1.599 0.689 1.599 1.69 0 1.014-0.754 1.69-1.599 1.69zm7.261 1.573v-9.36h-2.08v9.36h2.08zm-31.409 18-2.73-3.094c1.404-0.312 2.288-1.339 2.288-2.769 0-1.703-1.248-2.847-3.133-2.847h-4.407v8.71h2.145v-2.99h0.624l2.626 2.99h2.587zm-5.837-4.784v-2.093h2.028c0.767 0 1.261 0.416 1.261 1.04 0 0.637-0.494 1.053-1.261 1.053h-2.028zm13.237-1.742h-2.08v0.52c-0.507-0.455-1.183-0.715-2.028-0.715-1.729 0-3.185 1.404-3.185 3.458 0 2.067 1.456 3.458 3.185 3.458 0.845 0 1.521-0.26 2.028-0.715v0.52h2.08v-6.526zm-3.679 4.953c-0.91 0-1.573-0.676-1.573-1.69 0-1.001 0.663-1.69 1.573-1.69 0.845 0 1.599 0.689 1.599 1.69 0 1.014-0.754 1.69-1.599 1.69zm9.537-0.351c-0.273 0.156-0.663 0.26-0.949 0.26-0.546 0-0.871-0.273-0.871-0.949v-2.262h1.924v-1.651h-1.924v-1.924h-2.08v1.924h-1.183v1.651h1.183v2.47c0 1.716 0.975 2.6 2.6 2.6 0.741 0 1.274-0.208 1.781-0.481l-0.481-1.638zm2.413-7.709c-0.702 0-1.196 0.546-1.196 1.183 0 0.663 0.494 1.157 1.196 1.157s1.209-0.494 1.209-1.157c0-0.637-0.507-1.183-1.209-1.183zm1.04 9.633v-6.526h-2.08v6.526h2.08zm5.693-6.721c-0.819 0-1.508 0.299-2.002 0.819v-0.624h-2.08v6.526h2.08v-3.029c0-1.261 0.533-1.82 1.352-1.82 0.663 0 1.118 0.52 1.118 1.287v3.562h2.067v-4.004c0-1.638-1.014-2.717-2.535-2.717zm10.676 0.195h-2.041v0.429c-0.468-0.403-1.118-0.624-1.963-0.624-1.703 0-3.146 1.339-3.146 3.146 0 1.846 1.443 3.198 3.146 3.198 0.845 0 1.495-0.221 1.963-0.624v0.182c0 1.027-0.676 1.586-1.625 1.586-0.676 0-1.04-0.221-1.534-0.806l-1.729 0.936c0.637 1.053 1.781 1.573 3.276 1.573 2.119 0 3.653-1.105 3.653-3.12v-5.876zm-3.562 4.446c-0.91 0-1.56-0.624-1.56-1.495s0.65-1.482 1.56-1.482c0.832 0 1.521 0.611 1.521 1.482s-0.689 1.495-1.521 1.495zm4.638 0.377c0.221 1.339 1.534 1.898 3.068 1.898 1.716 0 2.964-0.754 2.964-2.197 0-0.962-0.572-1.703-1.807-1.963l-1.534-0.312c-0.416-0.091-0.494-0.273-0.494-0.455 0-0.234 0.182-0.507 0.741-0.507 0.637 0 1.027 0.364 1.092 0.767l1.898-0.377c-0.26-1.131-1.339-1.872-2.964-1.872-1.651 0-2.808 0.871-2.808 2.21 0 1.027 0.689 1.677 1.898 1.898l1.326 0.26c0.481 0.091 0.65 0.26 0.65 0.481 0 0.286-0.299 0.52-0.845 0.52-0.559 0-1.066-0.208-1.157-0.767l-2.028 0.416z" fill="#000009"/>
<rect x="294.5" y="54.5" width="119" height="200" rx="5.5" fill="#03CEA4" fill-opacity=".1" stroke="#03CEA4"/>
<path d="m369.88 117.38c0.816 0 1.565 0.449 1.95 1.168l8.107 15.145c0.789 1.473-0.279 3.256-1.95 3.256h-47.665c-1.672 0-2.739-1.783-1.95-3.256l8.107-15.145c0.385-0.719 1.134-1.168 1.95-1.168h31.451zm-3.532-2.174c1.671 0 2.739-1.783 1.95-3.256l-12.193-22.779c-0.834-1.5575-3.067-1.5575-3.901 0l-12.193 22.779c-0.789 1.473 0.279 3.256 1.95 3.256h24.387zm-48.131 44.356c-1.671 0-2.739-1.783-1.95-3.256l8.572-16.015c0.385-0.719 1.135-1.168 1.951-1.168h54.729c0.816 0 1.565 0.449 1.95 1.168l8.573 16.015c0.789 1.473-0.279 3.256-1.95 3.256h-71.875z" clip-rule="evenodd" fill="#E8E8E8" fill-rule="evenodd"/>
<rect x="295" y="194" width="118" height="1" fill="#03CEA4"/>
<path d="m343.92 218.15h-4.641v-1.638h4.225v-1.742h-4.225v-1.638h4.602v-1.846h-6.747v8.71h6.786v-1.846zm9.789-4.875c-1.014 0-1.794 0.429-2.314 1.105-0.442-0.715-1.222-1.105-2.132-1.105-0.845 0-1.482 0.299-1.924 0.793v-0.598h-2.08v6.526h2.08v-3.198c0-1.092 0.494-1.651 1.248-1.651 0.624 0 1.105 0.468 1.105 1.209v3.64h2.08v-3.198c0-1.092 0.507-1.651 1.274-1.651 0.611 0 1.092 0.468 1.092 1.209v3.64h2.067v-4.082c0-1.586-1.105-2.639-2.496-2.639zm10.78 0.195h-2.08v0.52c-0.507-0.455-1.183-0.715-2.028-0.715-1.729 0-3.185 1.404-3.185 3.458 0 2.067 1.456 3.458 3.185 3.458 0.845 0 1.521-0.26 2.028-0.715v0.52h2.08v-6.526zm-3.679 4.953c-0.91 0-1.573-0.676-1.573-1.69 0-1.001 0.663-1.69 1.573-1.69 0.845 0 1.599 0.689 1.599 1.69 0 1.014-0.754 1.69-1.599 1.69zm6.325-8.06c-0.702 0-1.196 0.546-1.196 1.183 0 0.663 0.494 1.157 1.196 1.157s1.209-0.494 1.209-1.157c0-0.637-0.507-1.183-1.209-1.183zm1.04 9.633v-6.526h-2.08v6.526h2.08zm3.692 0v-9.36h-2.08v9.36h2.08zm-46.225 14.321c-0.299 1.3-1.183 1.924-2.288 1.924-1.378 0-2.483-1.118-2.483-2.6s1.105-2.587 2.483-2.587c1.118 0 2.002 0.611 2.275 1.872l2.106-0.494c-0.416-2.067-2.236-3.341-4.381-3.341-2.587 0-4.628 2.002-4.628 4.55 0 2.561 2.041 4.55 4.628 4.55 2.236 0 3.991-1.274 4.394-3.458l-2.106-0.416zm6.495-3.016c-1.976 0-3.614 1.378-3.614 3.432 0 2.067 1.638 3.445 3.614 3.445 1.937 0 3.575-1.378 3.575-3.445 0-2.054-1.638-3.432-3.575-3.432zm0 5.122c-0.845 0-1.612-0.663-1.612-1.69 0-1.014 0.767-1.69 1.612-1.69 0.806 0 1.573 0.676 1.573 1.69 0 1.027-0.767 1.69-1.573 1.69zm8.73-5.148c-0.819 0-1.508 0.299-2.002 0.819v-0.624h-2.08v6.526h2.08v-3.029c0-1.261 0.533-1.82 1.352-1.82 0.663 0 1.118 0.52 1.118 1.287v3.562h2.067v-4.004c0-1.638-1.014-2.717-2.535-2.717zm10.514 0.182h-2.197l-1.56 4.03-1.573-4.03h-2.197l2.704 6.539h2.119l2.704-6.539zm7.009 3.276c-0.039-2.132-1.521-3.458-3.367-3.458-1.898 0-3.458 1.404-3.458 3.458 0 2.067 1.56 3.458 3.445 3.458 1.495 0 2.678-0.663 3.237-2.041l-1.846-0.377c-0.351 0.637-0.91 0.754-1.391 0.754-0.702 0-1.235-0.481-1.404-1.261h4.784v-0.533zm-3.367-1.768c0.598 0 1.118 0.325 1.313 1.027h-2.691c0.195-0.663 0.793-1.027 1.378-1.027zm8.778-1.586c-1.066 0-1.781 0.559-2.249 1.339v-1.248h-2.08v6.526h2.08v-2.041c0-1.69 0.793-2.444 2.249-2.444h0.377l0.091-2.08c-0.156-0.039-0.286-0.052-0.468-0.052zm0.891 4.914c0.221 1.339 1.534 1.898 3.068 1.898 1.716 0 2.964-0.754 2.964-2.197 0-0.962-0.572-1.703-1.807-1.963l-1.534-0.312c-0.416-0.091-0.494-0.273-0.494-0.455 0-0.234 0.182-0.507 0.741-0.507 0.637 0 1.027 0.364 1.092 0.767l1.898-0.377c-0.26-1.131-1.339-1.872-2.964-1.872-1.651 0-2.808 0.871-2.808 2.21 0 1.027 0.689 1.677 1.898 1.898l1.326 0.26c0.481 0.091 0.65 0.26 0.65 0.481 0 0.286-0.299 0.52-0.845 0.52-0.559 0-1.066-0.208-1.157-0.767l-2.028 0.416zm8.276-7.93c-0.702 0-1.196 0.546-1.196 1.183 0 0.663 0.494 1.157 1.196 1.157s1.209-0.494 1.209-1.157c0-0.637-0.507-1.183-1.209-1.183zm1.04 9.633v-6.526h-2.08v6.526h2.08zm4.797-6.695c-1.976 0-3.614 1.378-3.614 3.432 0 2.067 1.638 3.445 3.614 3.445 1.937 0 3.575-1.378 3.575-3.445 0-2.054-1.638-3.432-3.575-3.432zm0 5.122c-0.845 0-1.612-0.663-1.612-1.69 0-1.014 0.767-1.69 1.612-1.69 0.806 0 1.573 0.676 1.573 1.69 0 1.027-0.767 1.69-1.573 1.69zm8.73-5.148c-0.819 0-1.508 0.299-2.002 0.819v-0.624h-2.08v6.526h2.08v-3.029c0-1.261 0.533-1.82 1.352-1.82 0.663 0 1.118 0.52 1.118 1.287v3.562h2.067v-4.004c0-1.638-1.014-2.717-2.535-2.717z" fill="#000009"/>
<rect x="429.5" y="54.5" width="119" height="200" rx="5.5" fill="#fff" stroke="#DDDBDB"/>
<path d="m489 87c-6.085 0-12.075 1.5006-17.442 4.3689-5.366 2.8683-9.942 7.0158-13.322 12.075-3.381 5.059-5.461 10.874-6.058 16.929-0.596 6.056 0.31 12.165 2.638 17.786 2.329 5.622 6.008 10.582 10.711 14.442 4.704 3.86 10.287 6.501 16.255 7.688 5.967 1.187 12.136 0.884 17.959-0.882 5.822-1.766 11.119-4.942 15.422-9.244l-26.163-26.163v-37z" fill="#E8E8E8"/>
<rect x="430" y="194" width="118" height="1" fill="#DDDBDB"/>
<path d="m475.76 220-2.73-3.094c1.404-0.312 2.288-1.339 2.288-2.769 0-1.703-1.248-2.847-3.133-2.847h-4.407v8.71h2.145v-2.99h0.624l2.626 2.99h2.587zm-5.837-4.784v-2.093h2.028c0.767 0 1.261 0.416 1.261 1.04 0 0.637-0.494 1.053-1.261 1.053h-2.028zm12.77 1.521c-0.039-2.132-1.521-3.458-3.367-3.458-1.898 0-3.458 1.404-3.458 3.458 0 2.067 1.56 3.458 3.445 3.458 1.495 0 2.678-0.663 3.237-2.041l-1.846-0.377c-0.351 0.637-0.91 0.754-1.391 0.754-0.702 0-1.235-0.481-1.404-1.261h4.784v-0.533zm-3.367-1.768c0.598 0 1.118 0.325 1.313 1.027h-2.691c0.195-0.663 0.793-1.027 1.378-1.027zm11.084-1.508h-2.197l-1.56 4.03-1.573-4.03h-2.197l2.704 6.539h2.119l2.704-6.539zm1.986-3.094c-0.702 0-1.196 0.546-1.196 1.183 0 0.663 0.494 1.157 1.196 1.157s1.209-0.494 1.209-1.157c0-0.637-0.507-1.183-1.209-1.183zm1.04 9.633v-6.526h-2.08v6.526h2.08zm8.008-3.263c-0.039-2.132-1.521-3.458-3.367-3.458-1.898 0-3.458 1.404-3.458 3.458 0 2.067 1.56 3.458 3.445 3.458 1.495 0 2.678-0.663 3.237-2.041l-1.846-0.377c-0.351 0.637-0.91 0.754-1.391 0.754-0.702 0-1.235-0.481-1.404-1.261h4.784v-0.533zm-3.367-1.768c0.598 0 1.118 0.325 1.313 1.027h-2.691c0.195-0.663 0.793-1.027 1.378-1.027zm13.799-1.495h-2.041l-1.066 3.523-1.235-3.523h-1.469l-1.235 3.51-1.066-3.51h-2.041l2.093 6.539h1.807l1.183-3.536 1.17 3.536h1.807l2.093-6.539zm-39.609 17.805c-0.845 0-1.521 0.26-2.028 0.715v-3.354h-2.08v9.36h2.08v-0.52c0.507 0.455 1.183 0.715 2.028 0.715 1.729 0 3.185-1.391 3.185-3.458 0-2.054-1.456-3.458-3.185-3.458zm-0.429 5.148c-0.845 0-1.599-0.676-1.599-1.69 0-1.001 0.754-1.69 1.599-1.69 0.91 0 1.573 0.689 1.573 1.69 0 1.014-0.663 1.69-1.573 1.69zm11.466-4.966h-2.236l-1.651 3.809-1.547-3.809h-2.236l2.704 6.318-1.053 2.431h2.249l3.77-8.749zm7.279-2.366c-2.041 0-3.445 1.053-3.445 2.743 0 1.586 1.092 2.236 2.34 2.522l1.82 0.39c0.624 0.13 0.806 0.377 0.806 0.767 0 0.533-0.481 0.897-1.287 0.897-0.871 0-1.495-0.39-1.716-1.287l-2.21 0.429c0.234 1.703 1.846 2.639 3.809 2.639 1.937 0 3.588-0.962 3.588-2.821 0-1.378-0.884-2.197-2.392-2.535l-1.807-0.403c-0.546-0.117-0.702-0.377-0.702-0.728 0-0.494 0.455-0.884 1.17-0.884 0.689 0 1.365 0.403 1.521 1.222l2.106-0.429c-0.325-1.586-1.703-2.522-3.601-2.522zm6.129-0.728c-0.702 0-1.196 0.546-1.196 1.183 0 0.663 0.494 1.157 1.196 1.157s1.209-0.494 1.209-1.157c0-0.637-0.507-1.183-1.209-1.183zm1.04 9.633v-6.526h-2.08v6.526h2.08zm5.967-1.924c-0.273 0.156-0.663 0.26-0.949 0.26-0.546 0-0.871-0.273-0.871-0.949v-2.262h1.924v-1.651h-1.924v-1.924h-2.08v1.924h-1.183v1.651h1.183v2.47c0 1.716 0.975 2.6 2.6 2.6 0.741 0 1.274-0.208 1.781-0.481l-0.481-1.638zm7.538-1.339c-0.039-2.132-1.521-3.458-3.367-3.458-1.898 0-3.458 1.404-3.458 3.458 0 2.067 1.56 3.458 3.445 3.458 1.495 0 2.678-0.663 3.237-2.041l-1.846-0.377c-0.351 0.637-0.91 0.754-1.391 0.754-0.702 0-1.235-0.481-1.404-1.261h4.784v-0.533zm-3.367-1.768c0.598 0 1.118 0.325 1.313 1.027h-2.691c0.195-0.663 0.793-1.027 1.378-1.027z" fill="#000009"/>
<defs>
<filter id="a" x="0" y="0" width="577" height="283" color-interpolation-filters="sRGB" filterUnits="userSpaceOnUse">
<feFlood flood-opacity="0" result="BackgroundImageFix"/>
<feColorMatrix in="SourceAlpha" result="hardAlpha" values="0 0 0 0 0 0 0 0 0 0 0 0 0 0 0 0 0 0 127 0"/>
<feOffset dx="2" dy="2"/>
<feGaussianBlur stdDeviation="2"/>
<feComposite in2="hardAlpha" operator="out"/>
<feColorMatrix values="0 0 0 0 0 0 0 0 0 0 0 0 0 0 0 0 0 0 0.04 0"/>
<feBlend in2="BackgroundImageFix" result="effect1_dropShadow_1037_1298"/>
<feBlend in="SourceGraphic" in2="effect1_dropShadow_1037_1298" result="shape"/>
</filter>
</defs>
</svg>
