<svg width="191" height="43" viewBox="0 0 191 43" fill="none" xmlns="http://www.w3.org/2000/svg">
<path fill-rule="evenodd" clip-rule="evenodd" d="M27.6437 26.4303C27.2029 25.0713 27.9467 23.6204 29.2966 23.1797C30.6556 22.7389 32.1065 23.4827 32.5473 24.8326L35.6235 34.2356C36.0643 35.5947 35.3204 37.0455 33.9706 37.4863C33.3645 37.6883 32.7401 37.6424 32.1891 37.4128L23.0156 34.355L12.4831 41.6369C11.3077 42.445 9.70992 42.1511 8.90184 40.9849C8.42434 40.2962 8.3325 39.4606 8.57125 38.726L12.079 28.0098L1.7669 24.5755C0.417041 24.1255 -0.317573 22.6746 0.132379 21.3248C0.426225 20.4249 1.17919 19.8005 2.04237 19.6168V19.6076L15.7889 16.6875L20.3894 2.61963C20.8302 1.26059 22.281 0.525957 23.64 0.966727C24.4573 1.23302 25.045 1.86665 25.293 2.61963L28.9936 13.8868L40.6189 11.4166C42.0146 11.1228 43.3828 12.0135 43.6767 13.4093C43.9705 14.8051 43.0798 16.1733 41.6841 16.4671L25.5225 19.9015C25.5225 19.9015 23.2452 12.941 22.8412 11.7105C22.079 14.0521 19.7742 21.1227 19.7833 21.0952L12.3821 22.693L18.608 24.7132L15.8623 33.0602L22.1984 28.6801L29.1405 30.985L27.6437 26.4303Z" fill="#25E85F"/>
<path fill-rule="evenodd" clip-rule="evenodd" d="M178.745 30.2229L172.813 23.8042L178.185 17.964H173.474L169.59 22.1421H169.048V14.3552H165.136V30.2321H169.048V25.8152H169.755L173.741 30.2321H178.745V30.2229ZM85.9723 12.1514C85.3204 12.1514 84.7878 12.3626 84.3654 12.7941C83.9429 13.2257 83.7317 13.7492 83.7317 14.3644C83.7317 14.9796 83.9429 15.4939 84.3654 15.9071C84.7878 16.3203 85.3204 16.5315 85.9723 16.5315C86.6243 16.5315 87.1661 16.3203 87.5885 15.9071C88.0201 15.4939 88.2313 14.9796 88.2313 14.3644C88.2313 13.7675 88.0201 13.2441 87.5885 12.8033C87.1661 12.3717 86.6243 12.1514 85.9723 12.1514ZM87.9191 30.1954V17.9732H87.9099V17.9456H84.0072V30.1954H84.0256H87.9099H87.9191ZM184.218 20.7555C184.806 20.7555 185.32 20.9208 185.751 21.2422C186.192 21.5636 186.504 22.0503 186.679 22.6839H181.628C181.803 22.0779 182.143 21.6095 182.629 21.2698C183.125 20.9208 183.649 20.7555 184.218 20.7555ZM190.536 24.0705V25.0714H181.555C181.72 25.806 182.032 26.3845 182.51 26.8069C182.978 27.2293 183.548 27.4405 184.19 27.4405C185.412 27.4405 186.284 26.9722 186.798 26.0264L190.26 26.7335C189.737 28.0007 188.956 28.9557 187.909 29.5985C186.863 30.2413 185.623 30.5627 184.19 30.5627C182.381 30.5627 180.857 29.9566 179.599 28.7445C178.35 27.5324 177.717 25.9713 177.717 24.0705C177.717 22.1788 178.341 20.627 179.599 19.4057C180.848 18.1844 182.391 17.5783 184.209 17.5783C185.981 17.5783 187.469 18.1752 188.672 19.3598C189.893 20.5535 190.508 22.1238 190.536 24.0705ZM54.7971 17.7712C52.9881 17.7712 51.5832 18.6068 50.5731 20.2872V17.9456H46.6704V30.1954H50.5731V26.3662C50.5731 23.3083 51.978 21.7748 54.7971 21.7748H55.5042V17.8355C55.2838 17.7987 55.0542 17.7712 54.7971 17.7712ZM62.5473 20.7555C63.135 20.7555 63.6492 20.9208 64.0808 21.2422C64.5216 21.5636 64.8338 22.0503 65.0082 22.6839H59.9578C60.1414 22.0779 60.472 21.6095 60.9587 21.2698C61.4454 20.9208 61.9779 20.7555 62.5473 20.7555ZM68.865 24.0705C68.8282 22.1146 68.213 20.5443 67.0101 19.3598C65.8071 18.1752 64.3195 17.5783 62.5473 17.5783C60.7291 17.5783 59.1864 18.1844 57.9376 19.4057C56.6887 20.627 56.0551 22.1788 56.0551 24.0705C56.0551 25.9713 56.6795 27.5324 57.9376 28.7445C59.1864 29.9566 60.7199 30.5627 62.5289 30.5627C63.9614 30.5627 65.2011 30.2413 66.2479 29.5985C67.2947 28.9557 68.0845 28.0007 68.5987 26.7335L65.1368 26.0264C64.6134 26.9722 63.7502 27.4405 62.5289 27.4405C61.8769 27.4405 61.3168 27.2293 60.8485 26.8069C60.3802 26.3845 60.0588 25.806 59.8935 25.0714H68.8742V24.0705H68.865ZM82.7125 17.9181L77.6345 30.1954H73.6583L68.5803 17.9181H72.7034L75.6602 25.4846L78.5894 17.9181H82.7125ZM96.1927 20.7555C96.7804 20.7555 97.2946 20.9208 97.7262 21.2422C98.167 21.5636 98.47 22.0503 98.6536 22.6839H93.6031C93.7868 22.0779 94.1174 21.6095 94.604 21.2698C95.0907 20.9208 95.6233 20.7555 96.1927 20.7555ZM102.51 24.0705C102.474 22.1146 101.858 20.5443 100.655 19.3598C99.4525 18.1752 97.9649 17.5783 96.1927 17.5783C94.3745 17.5783 92.8318 18.1844 91.583 19.4057C90.3341 20.627 89.7005 22.1788 89.7005 24.0705C89.7005 25.9713 90.3249 27.5324 91.583 28.7445C92.8318 29.9566 94.3653 30.5627 96.1743 30.5627C97.6068 30.5627 98.8465 30.2413 99.8933 29.5985C100.94 28.9557 101.73 28.0007 102.244 26.7335L98.7822 26.0264C98.2588 26.9722 97.3956 27.4405 96.1743 27.4405C95.5223 27.4405 94.9622 27.2293 94.4939 26.8069C94.0255 26.3845 93.7041 25.806 93.5389 25.0714H102.52V24.0705H102.51ZM121.647 17.9456H117.818L115.816 24.5572L113.502 17.9456H110.747L108.433 24.5388L106.431 17.9456H102.602L106.532 30.2229H109.921L112.143 23.5838L114.338 30.2229H117.726L121.647 17.9456ZM122.042 27.0181C122.235 28.2027 122.859 29.1026 123.906 29.6903C124.953 30.2872 126.257 30.581 127.8 30.581C129.462 30.581 130.802 30.2229 131.831 29.5066C132.859 28.7904 133.373 27.7711 133.373 26.458C133.373 25.5305 133.089 24.7408 132.519 24.098C131.95 23.4552 131.105 23.0145 129.976 22.7666L127.092 22.1789C126.477 22.0503 126.165 21.7656 126.165 21.3249C126.165 21.0678 126.275 20.8382 126.496 20.6545C126.716 20.4709 127.074 20.3699 127.561 20.3699C128.13 20.3699 128.598 20.5076 128.966 20.7831C129.333 21.0586 129.544 21.3983 129.608 21.8115L133.171 21.1045C132.923 20.0301 132.308 19.1761 131.326 18.5425C130.343 17.9089 129.103 17.5875 127.597 17.5875C126.036 17.5875 124.769 17.964 123.787 18.7262C122.813 19.4792 122.317 20.4893 122.317 21.7381C122.317 23.6756 123.502 24.8602 125.88 25.301L128.369 25.7876C129.186 25.9346 129.59 26.2376 129.59 26.6876C129.59 26.963 129.443 27.1926 129.159 27.3855C128.874 27.5691 128.488 27.6701 128.002 27.6701C126.716 27.6701 125.99 27.1926 125.825 26.2284L122.042 27.0181ZM142.887 17.5967C141.353 17.5967 140.095 18.1109 139.103 19.1394V14.3552H135.192V30.2321H139.103V24.5388C139.103 23.4002 139.324 22.5462 139.774 21.9768C140.224 21.4075 140.839 21.1228 141.619 21.1228C142.253 21.1228 142.767 21.3432 143.162 21.7932C143.557 22.2431 143.75 22.8216 143.75 23.5379V30.2321H147.634V22.7023C147.634 21.1688 147.203 19.9383 146.33 19.0016C145.449 18.065 144.301 17.5967 142.887 17.5967ZM156.091 27.2661C155.228 27.2661 154.521 26.9722 153.97 26.3845C153.419 25.7968 153.144 25.0347 153.144 24.0889C153.144 23.1614 153.419 22.3992 153.97 21.8024C154.521 21.2055 155.228 20.9116 156.091 20.9116C156.909 20.9116 157.607 21.2147 158.203 21.8115C158.8 22.4176 159.094 23.1706 159.094 24.0797C159.094 25.0071 158.8 25.7693 158.203 26.3662C157.607 26.9722 156.899 27.2661 156.091 27.2661ZM162.997 17.964H159.094V18.9374C158.102 18.0375 156.835 17.5967 155.283 17.5967C153.621 17.5967 152.207 18.2027 151.05 19.424C149.884 20.6453 149.305 22.1972 149.305 24.0889C149.305 25.9897 149.884 27.5507 151.05 28.7629C152.216 29.975 153.63 30.581 155.283 30.581C156.826 30.581 158.102 30.1311 159.094 29.2403V30.2137H162.997V17.964Z" fill="#000009"/>
</svg>
