<svg width="7" height="11" viewBox="0 0 7 11" fill="none" xmlns="http://www.w3.org/2000/svg">
<g clip-path="url(#clip0_1715_5559)">
<path d="M3.49968 8.85468C3.40428 8.85479 3.30995 8.83456 3.22299 8.79533C3.13603 8.7561 3.05844 8.69878 2.99539 8.62718L0.133849 5.37451C0.0434056 5.26672 -0.00127763 5.12783 0.00935353 4.98753C0.0199847 4.84723 0.0850864 4.71665 0.190738 4.62373C0.29639 4.5308 0.434206 4.4829 0.574717 4.49026C0.715228 4.49763 0.847281 4.55967 0.94264 4.66314L3.44485 7.50747C3.45169 7.51528 3.46012 7.52153 3.46958 7.52582C3.47904 7.5301 3.4893 7.53232 3.49968 7.53232C3.51006 7.53232 3.52033 7.5301 3.52978 7.52582C3.53924 7.52153 3.54767 7.51528 3.55452 7.50747L6.05672 4.66314C6.10288 4.60813 6.15956 4.56291 6.22344 4.53013C6.28731 4.49735 6.3571 4.47767 6.42869 4.47224C6.50029 4.46682 6.57224 4.47576 6.64033 4.49854C6.70842 4.52132 6.77127 4.55749 6.82518 4.60491C6.87909 4.65233 6.92298 4.71004 6.95427 4.77467C6.98556 4.83929 7.00361 4.90952 7.00737 4.98122C7.01113 5.05292 7.00051 5.12465 6.97615 5.19219C6.95179 5.25973 6.91418 5.32172 6.86552 5.37451L4.00485 8.62601C3.94169 8.69779 3.86398 8.7553 3.77688 8.79472C3.68978 8.83415 3.59529 8.85459 3.49968 8.85468Z" fill="#000009"/>
</g>
<defs>
<clipPath id="clip0_1715_5559">
<rect width="7" height="10" fill="white" transform="translate(0 0.5)"/>
</clipPath>
</defs>
</svg>
