<svg width="14" height="21" viewBox="0 0 14 21" fill="none" xmlns="http://www.w3.org/2000/svg">
<path d="M13.2158 10.6367C13.2162 10.9155 13.157 11.1913 13.0423 11.4455C12.9276 11.6997 12.7601 11.9266 12.5507 12.1109L3.04196 20.4763C2.72686 20.7407 2.32082 20.8713 1.91067 20.8402C1.50051 20.8091 1.11879 20.6188 0.847132 20.31C0.575473 20.0011 0.435434 19.5982 0.456963 19.1874C0.478491 18.7767 0.659877 18.3906 0.962334 18.1119L9.27741 10.797C9.30024 10.7769 9.31852 10.7523 9.33105 10.7246C9.34358 10.697 9.35007 10.667 9.35007 10.6367C9.35007 10.6063 9.34358 10.5763 9.33105 10.5487C9.31852 10.521 9.30024 10.4964 9.27741 10.4764L0.962334 3.16144C0.801544 3.02652 0.669348 2.86082 0.573514 2.67408C0.47768 2.48734 0.420143 2.28332 0.404284 2.07403C0.388425 1.86473 0.414563 1.65438 0.481164 1.45533C0.547765 1.25628 0.653486 1.07255 0.792109 0.914942C0.930733 0.757336 1.09946 0.62903 1.28838 0.537567C1.4773 0.446104 1.6826 0.393328 1.89221 0.382341C2.10182 0.371357 2.31151 0.402384 2.50895 0.473598C2.7064 0.544811 2.88762 0.654776 3.04196 0.797028L12.5473 9.15985C12.7572 9.34449 12.9253 9.57167 13.0406 9.82629C13.1558 10.0809 13.2156 10.3572 13.2158 10.6367Z" fill="#25E85F"/>
</svg>
