<svg width="13" height="13" viewBox="0 0 13 13" fill="none" xmlns="http://www.w3.org/2000/svg">
<g clip-path="url(#clip0_273_3389)">
<path d="M6.5 0C5.21442 0 3.95772 0.381218 2.8888 1.09545C1.81988 1.80968 0.986756 2.82484 0.494786 4.01256C0.00281636 5.20028 -0.125905 6.50721 0.124899 7.76809C0.375703 9.02896 0.994768 10.1872 1.90381 11.0962C2.81285 12.0052 3.97104 12.6243 5.23192 12.8751C6.49279 13.1259 7.79973 12.9972 8.98745 12.5052C10.1752 12.0132 11.1903 11.1801 11.9046 10.1112C12.6188 9.04229 13 7.78558 13 6.5C12.998 4.77671 12.3125 3.12457 11.094 1.90602C9.87543 0.687471 8.22329 0.002007 6.5 0V0ZM10.2521 4.44167L6.54442 9.47321C6.50065 9.53129 6.44574 9.58006 6.38291 9.61669C6.32008 9.65332 6.25059 9.67707 6.17848 9.68655C6.10638 9.69603 6.0331 9.69105 5.96294 9.67191C5.89278 9.65276 5.82713 9.61983 5.76984 9.57504L3.12217 7.45821C3.06661 7.41375 3.02036 7.35879 2.98605 7.29645C2.95174 7.23412 2.93004 7.16564 2.92219 7.09492C2.90634 6.95209 2.94788 6.80882 3.03767 6.69663C3.12746 6.58443 3.25814 6.51249 3.40096 6.49665C3.54379 6.4808 3.68706 6.52234 3.79925 6.61212L6.00709 8.3785L9.38004 3.80088C9.42065 3.73994 9.47319 3.68787 9.53449 3.64782C9.59578 3.60776 9.66457 3.58055 9.73668 3.56783C9.80879 3.5551 9.88273 3.55713 9.95403 3.57379C10.0253 3.59045 10.0925 3.6214 10.1515 3.66475C10.2105 3.70811 10.2601 3.76298 10.2973 3.82605C10.3345 3.88912 10.3586 3.95908 10.368 4.0317C10.3774 4.10431 10.372 4.17808 10.352 4.24855C10.3321 4.31901 10.2981 4.38471 10.2521 4.44167Z" fill="#25E85F"/>
</g>
<defs>
<clipPath id="clip0_273_3389">
<rect width="13" height="13" fill="white"/>
</clipPath>
</defs>
</svg>
