<svg width="19px" height="20px" viewBox="0 0 19 20" fill="none" xmlns="http://www.w3.org/2000/svg">
<path d="M11.3209 9.64625C11.3025 9.62786 11.2879 9.60602 11.2779 9.58198C11.2679 9.55793 11.2628 9.53216 11.2628 9.50612C11.2628 9.48009 11.2679 9.45432 11.2779 9.43027C11.2879 9.40623 11.3025 9.38438 11.3209 9.366L18.6541 2.03358C18.8768 1.8106 19.0018 1.5083 19.0016 1.19318C19.0013 0.878061 18.8759 0.575936 18.653 0.35327C18.43 0.130604 18.1277 0.00563698 17.8126 0.00585967C17.4974 0.00608237 17.1953 0.131477 16.9726 0.354458L9.64023 7.68371C9.62184 7.70214 9.6 7.71676 9.57596 7.72674C9.55191 7.73672 9.52613 7.74185 9.5001 7.74185C9.47407 7.74185 9.44829 7.73672 9.42425 7.72674C9.4002 7.71676 9.37836 7.70214 9.35998 7.68371L2.02756 0.354458C1.91731 0.244153 1.78641 0.156644 1.64233 0.0969273C1.49826 0.0372108 1.34384 0.0064562 1.18788 0.00641945C0.872909 0.00634521 0.570809 0.131396 0.348038 0.354062C0.125267 0.576728 7.42662e-05 0.878769 3.30311e-08 1.19374C-7.42001e-05 1.50871 0.124976 1.81081 0.347642 2.03358L7.67927 9.366C7.6977 9.38438 7.71232 9.40623 7.7223 9.43027C7.73228 9.45432 7.73741 9.48009 7.73741 9.50612C7.73741 9.53216 7.73228 9.55793 7.7223 9.58198C7.71232 9.60602 7.6977 9.62786 7.67927 9.64625L0.347642 16.9795C0.237389 17.0898 0.149942 17.2207 0.0902936 17.3648C0.0306451 17.5089 -3.67235e-05 17.6633 3.30311e-08 17.8193C7.42662e-05 18.1343 0.125267 18.4363 0.348038 18.659C0.458343 18.7692 0.589284 18.8567 0.733384 18.9163C0.877485 18.976 1.03192 19.0067 1.18788 19.0066C1.50285 19.0065 1.80489 18.8814 2.02756 18.6586L9.35998 11.3254C9.37836 11.3069 9.4002 11.2923 9.42425 11.2823C9.44829 11.2724 9.47407 11.2672 9.5001 11.2672C9.52613 11.2672 9.55191 11.2724 9.57596 11.2823C9.6 11.2923 9.62184 11.3069 9.64023 11.3254L16.9726 18.6586C17.1953 18.8814 17.4974 19.0065 17.8123 19.0066C18.1273 19.0067 18.4294 18.8816 18.6522 18.659C18.8749 18.4363 19.0001 18.1343 19.0002 17.8193C19.0003 17.5043 18.8752 17.2022 18.6526 16.9795L11.3209 9.64625Z" fill="#000009"/>
</svg>
