<svg width="18" height="21" viewBox="0 0 18 21" fill="none" xmlns="http://www.w3.org/2000/svg">
<path d="M4.02911 18.0001H0.297321V5.98268H4.02911V18.0001ZM2.16121 4.34339C0.967902 4.34339 0 3.355 0 2.16169C8.54116e-09 1.58851 0.227698 1.0388 0.633002 0.633491C1.03831 0.228186 1.58802 0.000488281 2.16121 0.000488281C2.73439 0.000488281 3.2841 0.228186 3.68941 0.633491C4.09471 1.0388 4.32241 1.58851 4.32241 2.16169C4.32241 3.355 3.35411 4.34339 2.16121 4.34339ZM17.996 18.0001H14.2722V12.1501C14.2722 10.7559 14.2441 8.96794 12.332 8.96794C10.3918 8.96794 10.0945 10.4827 10.0945 12.0496V18.0001H6.3667V5.98268H9.9458V7.62196H9.99804C10.4963 6.67777 11.7133 5.68134 13.5289 5.68134C17.3057 5.68134 18 8.16839 18 11.3987V18.0001H17.996Z" fill="#2B2B59"/>
</svg>
