<svg width="24" height="25" viewBox="0 0 24 25" fill="none" xmlns="http://www.w3.org/2000/svg">
<path d="M22.5 2.51196H1.5C0.947715 2.51196 0.5 2.95968 0.5 3.51196V4.51196C0.5 5.06425 0.947715 5.51196 1.5 5.51196H22.5C23.0523 5.51196 23.5 5.06425 23.5 4.51196V3.51196C23.5 2.95968 23.0523 2.51196 22.5 2.51196Z" fill="#000009"/>
<path d="M22.5 10.512H1.5C0.947715 10.512 0.5 10.9597 0.5 11.512V12.512C0.5 13.0642 0.947715 13.512 1.5 13.512H22.5C23.0523 13.512 23.5 13.0642 23.5 12.512V11.512C23.5 10.9597 23.0523 10.512 22.5 10.512Z" fill="#000009"/>
<path d="M22.5 18.512H1.5C0.947715 18.512 0.5 18.9597 0.5 19.512V20.512C0.5 21.0642 0.947715 21.512 1.5 21.512H22.5C23.0523 21.512 23.5 21.0642 23.5 20.512V19.512C23.5 18.9597 23.0523 18.512 22.5 18.512Z" fill="#000009"/>
</svg>
