<svg width="234" height="88" viewBox="0 0 234 88" fill="none" xmlns="http://www.w3.org/2000/svg">
<path d="M62.2282 44.5029C62.3125 44.5029 62.3125 44.5029 62.3968 44.5029C62.4811 44.5029 62.4811 44.5872 62.5654 44.5872L63.4925 45.5986C63.0711 46.1043 62.5654 46.61 61.8911 46.8629C61.2168 47.1157 60.5425 47.2843 59.6154 47.2843C58.8568 47.2843 58.0983 47.1157 57.5083 46.8629C56.9183 46.61 56.3283 46.2729 55.9069 45.7672C55.4854 45.2615 55.1483 44.7558 54.8954 44.0815C54.8111 43.4915 54.6426 42.8172 54.6426 41.9743C54.6426 41.1315 54.8111 40.4572 55.064 39.8672C55.3169 39.2772 55.654 38.6872 56.1597 38.1815C56.6654 37.6758 57.2554 37.3387 57.8454 37.0858C58.5197 36.833 59.2783 36.6644 60.0368 36.6644C60.4582 36.6644 60.7954 36.7487 61.1325 36.7487C61.4697 36.7487 61.8068 36.9172 62.1439 37.0015C62.3968 37.0858 62.7339 37.2544 62.9868 37.4229C63.2397 37.5915 63.4925 37.7601 63.6611 38.0129L62.8182 39.1086C62.7339 39.1929 62.7339 39.2772 62.6497 39.2772C62.6497 39.4458 62.5654 39.4458 62.3968 39.4458C62.3125 39.4458 62.2282 39.4458 62.1439 39.3615C62.0597 39.2772 61.9754 39.2772 61.8911 39.1929C61.8068 39.1086 61.7225 39.1086 61.6382 39.0244C61.554 38.9401 61.3854 38.9401 61.3011 38.8558C61.1325 38.7715 61.0482 38.7715 60.7954 38.6872C60.6268 38.6029 60.374 38.6029 60.1211 38.6029C59.6997 38.6029 59.2783 38.6872 58.9411 38.8558C58.604 39.0244 58.2668 39.2772 58.014 39.5301C57.7611 39.7829 57.5926 40.1201 57.424 40.5415C57.2554 41.0472 57.1711 41.4686 57.1711 41.9743C57.1711 42.4801 57.2554 42.9858 57.424 43.4072C57.5926 43.8286 57.7611 44.1658 58.014 44.4186C58.2668 44.6715 58.5197 44.9243 58.8568 45.0929C59.194 45.2615 59.5311 45.3457 59.9525 45.3457C60.2054 45.3457 60.374 45.3457 60.5425 45.3457C60.7111 45.3457 60.8797 45.2615 61.0482 45.2615C61.2168 45.1772 61.3011 45.1772 61.4697 45.0929C61.6382 45.0086 61.7225 44.9243 61.8911 44.7558C61.9754 44.6715 61.9754 44.6715 62.0597 44.6715C62.1439 44.5872 62.2282 44.5029 62.2282 44.5029Z" fill="#272626"/>
<path d="M68.1284 43.4054V47.2825H65.6841V36.8312H69.0555C69.8141 36.8312 70.4883 36.9155 70.994 37.084C71.584 37.2526 72.0055 37.4212 72.3426 37.7583C72.6797 38.0112 72.9326 38.3483 73.1012 38.7697C73.1855 39.1069 73.2697 39.444 73.2697 39.9497C73.2697 40.2869 73.1855 40.624 73.1012 40.8769C73.0169 41.1297 72.8483 41.4669 72.6797 41.7197C72.5955 41.9726 72.3426 42.1411 72.0898 42.394C71.8369 42.5626 71.4998 42.7311 71.1626 42.8997C71.3312 42.984 71.4998 43.0683 71.584 43.1526C71.7526 43.2368 71.8369 43.4054 71.9212 43.574L74.1126 47.1982H71.9212C71.4998 47.1982 71.2469 47.0297 71.0783 46.7768L69.3083 43.7426C69.2241 43.574 69.1398 43.4897 69.0555 43.4897C68.9712 43.4054 68.8026 43.4054 68.6341 43.4054H68.1284ZM68.1284 41.7197H69.1398C69.4769 41.7197 69.7298 41.6354 69.9826 41.5511C70.2355 41.4669 70.404 41.3826 70.5726 41.214C70.7412 41.0454 70.8255 40.8769 70.9098 40.7083C70.994 40.5397 70.994 40.2869 70.994 40.1183C70.994 39.6969 70.8255 39.2754 70.5726 39.0226C70.3198 38.7697 69.8141 38.6012 69.2241 38.6012H68.1284V41.7197Z" fill="#272626"/>
<path d="M86.1654 42.0619C86.1654 42.8205 85.9969 43.4948 85.744 44.169C85.4912 44.8433 85.154 45.349 84.6483 45.8547C84.1426 46.3605 83.6369 46.6976 82.9626 46.9504C82.2883 47.2033 81.614 47.3719 80.7712 47.3719C79.9283 47.3719 79.2541 47.2033 78.5798 46.9504C77.9055 46.6976 77.3155 46.2762 76.8941 45.8547C76.3884 45.349 76.0512 44.8433 75.7984 44.169C75.5455 43.4948 75.377 42.8205 75.377 42.0619C75.377 41.3033 75.5455 40.6291 75.7984 39.9548C76.0512 39.2805 76.3884 38.7748 76.8941 38.2691C77.3998 37.7634 77.9055 37.4262 78.5798 37.1734C79.2541 36.9205 80.0126 36.752 80.7712 36.752C81.5298 36.752 82.2883 36.9205 82.9626 37.1734C83.6369 37.4262 84.2269 37.8477 84.6483 38.2691C85.154 38.7748 85.4912 39.2805 85.744 39.9548C85.9969 40.6291 86.1654 41.3033 86.1654 42.0619ZM83.7212 42.0619C83.7212 41.5562 83.6369 41.0505 83.5526 40.6291C83.384 40.2076 83.2155 39.8705 82.9626 39.6176C82.7098 39.3648 82.3726 39.1119 82.0355 38.9434C81.6983 38.7748 81.2769 38.6905 80.7712 38.6905C80.2655 38.6905 79.9283 38.7748 79.5069 38.9434C79.0855 39.1119 78.8326 39.2805 78.5798 39.6176C78.3269 39.9548 78.1584 40.2076 77.9898 40.6291C77.8212 41.0505 77.8212 41.4719 77.8212 42.0619C77.8212 42.5676 77.9055 43.0733 77.9898 43.4948C78.1584 43.9162 78.3269 44.2533 78.5798 44.5062C78.8326 44.759 79.1698 45.0119 79.5069 45.1805C79.9283 45.2647 80.3498 45.349 80.7712 45.349C81.1926 45.349 81.614 45.2647 82.0355 45.0962C82.3726 44.9276 82.7098 44.759 82.9626 44.4219C83.2155 44.169 83.384 43.8319 83.5526 43.4105C83.6369 42.989 83.7212 42.5676 83.7212 42.0619Z" fill="#272626"/>
<path d="M87.5981 36.8312H89.621C89.7896 36.8312 90.0424 36.9155 90.1267 36.9997C90.2953 37.084 90.3796 37.2526 90.3796 37.4212L91.8124 42.8154C91.8967 42.984 91.8967 43.1526 91.981 43.4054C92.0653 43.6583 92.0653 43.8268 92.0653 43.9954C92.1495 43.7426 92.1495 43.574 92.2338 43.4054C92.3181 43.2368 92.3181 42.984 92.4024 42.8154L94.0881 37.4212C94.1724 37.2526 94.2567 37.1683 94.341 37.084C94.5095 36.9997 94.6781 36.9155 94.8467 36.9155H95.6052C95.7738 36.9155 96.0267 36.9997 96.1109 37.084C96.2795 37.1683 96.3638 37.3369 96.3638 37.5055L98.0495 42.8997C98.1338 43.0683 98.1338 43.2368 98.2181 43.4054C98.3023 43.574 98.3024 43.8268 98.3866 43.9954C98.4709 43.8268 98.4709 43.574 98.4709 43.4054C98.5552 43.2368 98.5552 43.0683 98.6395 42.8997L100.072 37.5055C100.157 37.3369 100.241 37.2526 100.325 37.1683C100.494 37.084 100.662 36.9997 100.831 36.9997H102.685L99.4823 47.3668H97.2909L95.3524 40.8769C95.3524 40.7926 95.2681 40.7083 95.2681 40.5397C95.1838 40.4554 95.1838 40.2869 95.1838 40.1183C95.1838 40.2869 95.0995 40.3712 95.0995 40.5397C95.0152 40.624 95.0152 40.7926 95.0152 40.8769L92.9924 47.3668H90.801L87.5981 36.8312Z" fill="#272626"/>
<path d="M106.309 36.8312C106.394 36.8312 106.478 36.8312 106.478 36.9155C106.562 36.9155 106.562 36.9997 106.646 36.9997C106.731 37.084 106.731 37.084 106.815 37.1683L111.788 43.4054C111.788 43.2368 111.788 42.984 111.704 42.8154C111.704 42.6468 111.704 42.4783 111.704 42.3097V36.8312H113.811V47.1982H112.546C112.378 47.1982 112.209 47.1982 112.041 47.114C111.872 47.0297 111.788 46.9454 111.704 46.7768L106.899 40.624C106.899 40.7926 106.899 40.9611 106.984 41.1297C106.984 41.2983 106.984 41.4669 106.984 41.6354V47.1982H104.876V36.8312H106.056C106.141 36.8312 106.225 36.8312 106.309 36.8312Z" fill="#272626"/>
<path d="M123.082 36.752C123.504 36.752 123.925 36.8362 124.262 36.9205C124.599 37.0891 124.936 37.2577 125.189 37.4262C125.442 37.6791 125.611 37.9319 125.779 38.1848C125.948 38.4377 126.032 38.7748 126.032 39.1119L124.599 39.4491H124.515H124.431C124.262 39.4491 124.094 39.3648 124.009 39.1119C123.925 38.8591 123.756 38.6905 123.588 38.5219C123.419 38.3534 123.251 38.3534 122.998 38.3534C122.829 38.3534 122.661 38.3534 122.576 38.4377C122.492 38.5219 122.324 38.6062 122.239 38.6905C122.155 38.7748 122.071 38.9434 122.071 39.0277C122.071 39.1962 122.071 39.2805 122.071 39.4491C122.071 39.5334 122.071 39.7019 122.071 39.7862C122.071 39.8705 122.155 40.0391 122.155 40.1234C122.239 40.2076 122.239 40.3762 122.324 40.4605C122.408 40.5448 122.492 40.7134 122.661 40.8819L125.274 43.579C125.442 43.3262 125.526 42.989 125.611 42.6519C125.695 42.3148 125.779 42.0619 125.779 41.6405C125.779 41.4719 125.864 41.3876 125.948 41.3033C126.032 41.2191 126.116 41.2191 126.285 41.2191H127.718C127.718 41.8933 127.634 42.5676 127.465 43.1576C127.296 43.7476 127.044 44.3376 126.706 44.8433L128.898 47.119H126.706C126.622 47.119 126.538 47.119 126.454 47.119C126.369 47.119 126.285 47.119 126.201 47.0347C126.116 47.0347 126.032 46.9504 126.032 46.9504C125.948 46.8662 125.864 46.8662 125.864 46.7819L125.442 46.2762C125.021 46.6133 124.515 46.8662 123.925 47.0347C123.419 47.2033 122.829 47.2876 122.239 47.2876C121.818 47.2876 121.396 47.2033 121.059 47.119C120.638 46.9504 120.301 46.7819 119.964 46.529C119.626 46.2762 119.374 45.939 119.205 45.5176C119.036 45.0962 118.952 44.759 118.952 44.2533C118.952 43.9162 119.036 43.6633 119.121 43.3262C119.205 43.0733 119.374 42.8205 119.542 42.5676C119.711 42.3148 119.964 42.1462 120.132 41.8933C120.385 41.7248 120.638 41.5562 120.975 41.3876C120.722 41.0505 120.554 40.7134 120.469 40.3762C120.385 40.0391 120.301 39.7019 120.301 39.3648C120.301 39.0277 120.385 38.6062 120.469 38.2691C120.554 37.9319 120.806 37.6791 121.059 37.4262C121.312 37.1734 121.649 37.0048 121.986 36.8362C122.155 36.8362 122.576 36.752 123.082 36.752ZM120.891 44.169C120.891 44.4219 120.975 44.5905 120.975 44.759C121.059 44.9276 121.144 45.0962 121.228 45.2647C121.396 45.4333 121.481 45.5176 121.649 45.6019C121.818 45.6862 122.071 45.6862 122.239 45.6862C122.576 45.6862 122.829 45.6019 123.082 45.5176C123.335 45.4333 123.588 45.349 123.841 45.1805L121.481 42.6519C121.228 42.8205 121.059 43.0733 120.891 43.3262C120.975 43.579 120.891 43.8319 120.891 44.169Z" fill="#272626"/>
<path d="M139.939 44.5029C140.023 44.5029 140.023 44.5029 140.108 44.5029C140.192 44.5029 140.192 44.5872 140.276 44.5872L141.203 45.5986C140.782 46.1043 140.276 46.61 139.602 46.8629C139.012 47.1157 138.253 47.2843 137.326 47.2843C136.568 47.2843 135.809 47.1157 135.219 46.8629C134.629 46.61 134.039 46.2729 133.618 45.7672C133.196 45.2615 132.859 44.7558 132.606 44.0815C132.353 43.4072 132.269 42.7329 132.269 41.9743C132.269 41.2158 132.438 40.4572 132.69 39.8672C132.943 39.2772 133.28 38.6872 133.786 38.1815C134.292 37.6758 134.882 37.3387 135.472 37.0858C136.146 36.833 136.905 36.6644 137.663 36.6644C138.085 36.6644 138.422 36.7487 138.759 36.7487C139.096 36.7487 139.433 36.9172 139.77 37.0015C140.023 37.0858 140.36 37.2544 140.613 37.4229C140.866 37.5915 141.119 37.7601 141.288 38.0129L140.445 39.1086C140.36 39.1929 140.36 39.2772 140.276 39.2772C140.36 39.4458 140.276 39.4458 140.192 39.4458C140.108 39.4458 140.023 39.4458 139.939 39.3615C139.855 39.2772 139.77 39.2772 139.686 39.1929C139.602 39.1086 139.518 39.1086 139.433 39.0244C139.349 38.9401 139.18 38.9401 139.096 38.8558C138.928 38.7715 138.843 38.7715 138.59 38.6872C138.422 38.6029 138.169 38.6029 137.916 38.6029C137.495 38.6029 137.073 38.6872 136.736 38.8558C136.399 39.0244 136.062 39.2772 135.809 39.5301C135.556 39.7829 135.388 40.1201 135.219 40.5415C135.05 40.9629 134.966 41.3843 134.966 41.8901C134.966 42.3958 135.05 42.9015 135.219 43.3229C135.388 43.7443 135.556 44.0815 135.809 44.3343C136.062 44.5872 136.315 44.84 136.652 45.0086C136.989 45.1772 137.326 45.2615 137.748 45.2615C138 45.2615 138.169 45.2615 138.338 45.2615C138.506 45.2615 138.675 45.1772 138.843 45.1772C139.012 45.1772 139.096 45.0929 139.265 45.0086C139.433 44.9243 139.518 44.84 139.686 44.6715C139.77 44.5872 139.77 44.5872 139.855 44.5872L139.939 44.5029Z" fill="#272626"/>
<path d="M153.088 47.2033H151.234C151.065 47.2033 150.812 47.119 150.728 47.0347C150.559 46.9504 150.475 46.7819 150.475 46.6133L149.885 44.8433H145.924L145.334 46.6133C145.249 46.7819 145.165 46.8662 145.081 46.9504C144.912 47.0347 144.744 47.119 144.575 47.119H142.721L146.766 36.752H149.211L153.088 47.2033ZM146.429 43.2419H149.295L148.368 40.3762C148.284 40.2076 148.199 39.9548 148.115 39.7862C148.031 39.5334 147.946 39.2805 147.862 39.0277C147.778 39.2805 147.694 39.6176 147.609 39.8705C147.525 40.1234 147.441 40.2919 147.356 40.4605L146.429 43.2419Z" fill="#272626"/>
<path d="M157.471 45.344H161.263V47.1982H155.026V36.8312H157.471V45.344Z" fill="#272626"/>
<path d="M166.236 47.1982H163.792V41.8883V36.8312H166.236V42.5626V47.1982Z" fill="#272626"/>
<path d="M169.102 47.1982V36.8312H172.894C173.653 36.8312 174.243 36.9155 174.749 36.9997C175.254 37.1683 175.676 37.3369 176.013 37.5897C176.35 37.8426 176.519 38.0955 176.687 38.4326C176.856 38.7697 176.94 39.1912 176.94 39.6126C176.94 39.8654 176.94 40.034 176.856 40.2869C176.772 40.5397 176.687 40.7083 176.519 40.8769C176.35 41.0454 176.182 41.214 176.013 41.3826C175.76 41.5511 175.507 41.6354 175.17 41.804C175.844 41.9726 176.35 42.2254 176.687 42.6468C177.024 43.0683 177.193 43.4897 177.193 44.0797C177.193 44.5011 177.109 44.9225 176.94 45.344C176.772 45.7654 176.519 46.1025 176.182 46.3554C175.844 46.6082 175.423 46.8611 175.002 47.0297C174.496 47.1982 173.99 47.2825 173.316 47.2825L169.102 47.1982ZM171.546 41.214H172.81C173.063 41.214 173.316 41.214 173.569 41.1297C173.737 41.0454 173.99 41.0454 174.074 40.9611C174.243 40.8769 174.327 40.7083 174.412 40.5397C174.496 40.3712 174.496 40.1183 174.496 39.9497C174.496 39.6969 174.496 39.5283 174.412 39.3597C174.327 39.1912 174.243 39.1069 174.159 38.9383C173.99 38.854 173.906 38.7697 173.653 38.7697C173.484 38.6854 173.232 38.6854 172.979 38.6854H171.546V41.214ZM171.546 42.8154V45.4283H173.232C173.569 45.4283 173.822 45.344 173.99 45.344C174.159 45.2597 174.327 45.1754 174.496 45.0068C174.58 44.8383 174.664 44.754 174.749 44.5854C174.833 44.4168 174.833 44.2483 174.833 44.0797C174.833 43.9111 174.833 43.7426 174.749 43.574C174.664 43.4054 174.58 43.3211 174.496 43.1526C174.412 43.0683 174.243 42.984 173.99 42.8997C173.822 42.8154 173.569 42.8154 173.232 42.8154H171.546Z" fill="#272626"/>
<path d="M186.296 36.8312V38.6854H181.997V41.1297H185.285V42.8997H181.997V45.344H186.296V47.1982H179.553V36.8312H186.296Z" fill="#272626"/>
<path d="M191.1 43.4054V47.2825H188.656V36.8312H192.027C192.786 36.8312 193.46 36.9155 193.966 37.084C194.471 37.2526 194.977 37.4212 195.314 37.7583C195.651 38.0112 195.904 38.3483 196.073 38.7697C196.241 39.1069 196.241 39.444 196.241 39.9497C196.241 40.2869 196.157 40.624 196.073 40.8769C195.989 41.1297 195.82 41.4669 195.651 41.7197C195.483 41.9726 195.23 42.2254 194.977 42.394C194.724 42.5626 194.387 42.7311 194.05 42.8997C194.219 42.984 194.387 43.0683 194.471 43.1526C194.64 43.2368 194.724 43.4054 194.809 43.574L197 47.1982H194.809C194.387 47.1982 194.134 47.0297 193.966 46.7768L192.196 43.7426C192.111 43.574 192.027 43.4897 191.943 43.4897C191.859 43.4054 191.69 43.4054 191.521 43.4054H191.1ZM191.1 41.7197H192.111C192.449 41.7197 192.701 41.6354 192.954 41.5511C193.207 41.4669 193.376 41.3826 193.544 41.214C193.713 41.0454 193.797 40.8769 193.881 40.7083C193.966 40.5397 193.966 40.2869 193.966 40.1183C193.966 39.6969 193.797 39.2754 193.544 39.0226C193.291 38.7697 192.786 38.6012 192.196 38.6012H191.184L191.1 41.7197Z" fill="#272626"/>
<path d="M37.8695 34.3928V35.5728H39.8924L43.348 41.1356L44.0223 40.0399L41.2409 35.5728H42.5895L45.3709 40.1242L36.9424 53.7783H55.3165L46.888 40.1242L49.6694 35.5728H51.018L48.2366 40.0399L48.9109 41.1356L52.3666 35.5728H54.3894V34.3928H37.8695ZM53.2094 52.5984H39.0495L46.1295 41.2199L53.2094 52.5984ZM48.2366 35.5728L46.1295 38.9442L44.0223 35.5728H48.2366Z" fill="#272626"/>
<path d="M46.1295 43.5788L40.4824 52.5973H51.8609L46.1295 43.5788Z" fill="#F05C22"/>
</svg>
