<svg width="234" height="88" viewBox="0 0 234 88" fill="none" xmlns="http://www.w3.org/2000/svg">
<path d="M177.904 57.2912C177.883 57.1819 177.962 57.1076 178.006 57.0256C179.413 54.3876 180.823 51.7511 182.234 49.116C182.27 49.0605 182.288 48.9958 182.286 48.9301C182.284 48.8645 182.262 48.8009 182.224 48.7477C180.6 45.8139 178.978 42.8786 177.359 39.9419C177.33 39.8884 177.303 39.8326 177.27 39.7835C177.179 39.6436 177.227 39.6075 177.379 39.6086C178.289 39.6086 179.199 39.6152 180.111 39.6086C180.261 39.6086 180.306 39.6895 180.36 39.7911C181.439 41.8223 182.519 43.8538 183.599 45.8856C183.645 45.972 183.693 46.0572 183.743 46.1468C183.84 46.0944 183.852 45.996 183.887 45.9195C184.907 43.8672 185.927 41.8142 186.947 39.7605C186.989 39.6731 187.025 39.6097 187.141 39.6108C188.073 39.6108 189.005 39.6108 189.939 39.6163C189.952 39.6163 189.964 39.6272 190 39.6436C189.798 40.0392 189.598 40.4337 189.394 40.8271C187.744 44.0326 186.093 47.2342 184.441 50.4317L181.025 57.0497C180.983 57.1306 180.946 57.2136 180.907 57.2956L177.904 57.2912Z" fill="#08A7E0"/>
<path d="M44.0032 38.3622C44.0797 37.9797 44.1387 37.5973 44.2348 37.217C44.5101 36.0871 45.0553 35.0409 45.8238 34.1681L47.7657 36.1056C47.7067 36.1843 47.6466 36.263 47.5886 36.3416C46.6401 37.6257 46.3647 39.0583 46.6914 40.6036C46.9231 41.6964 47.5285 42.5859 48.3612 43.3235C48.1026 43.588 47.8433 43.8521 47.5832 44.1158C47.0674 44.6374 46.5512 45.1583 46.0347 45.6785C45.0599 44.0666 44.3561 42.3542 44.0884 40.4768C44.0676 40.3336 44.0884 40.1785 44.001 40.0473L44.0032 38.3622Z" fill="#08A7E0"/>
<path d="M133.407 46.7942V47.8105C133.407 48.4847 133.399 49.1601 133.407 49.8343C133.407 50.0256 133.336 50.1108 133.175 50.1949C132.213 50.7073 131.177 51.0696 130.105 51.2692C129.359 51.3886 128.603 51.4252 127.849 51.3785C126.706 51.3299 125.583 51.0608 124.542 50.5862C123.75 50.2249 123.014 49.7521 122.356 49.1819C120.984 48.005 119.993 46.5723 119.47 44.837C119.28 44.2303 119.161 43.6041 119.114 42.9705C119.078 42.5263 119.067 42.0804 119.083 41.6351C119.13 40.6167 119.34 39.6124 119.704 38.6605C120.095 37.6789 120.641 36.7667 121.322 35.9591C122.805 34.18 124.669 33.0599 126.966 32.7014C129.082 32.3471 131.256 32.7159 133.136 33.7483C133.328 33.8478 133.418 33.956 133.414 34.192C133.397 35.1624 133.407 36.1328 133.407 37.1196C133.314 37.0865 133.23 37.0319 133.162 36.9601C132.213 36.2115 131.178 35.6268 129.993 35.3438C129.332 35.1882 128.65 35.1344 127.973 35.1843C126.254 35.3034 124.835 36.0355 123.668 37.2955C122.83 38.1752 122.258 39.2738 122.017 40.4647C121.702 42.0569 121.798 43.6261 122.524 45.108C123.117 46.3259 124.066 47.3353 125.245 48.0028C126.01 48.4392 126.859 48.7071 127.735 48.7885C128.974 48.9175 130.161 48.7677 131.28 48.2039C131.905 47.8833 132.491 47.494 133.029 47.0433C133.138 46.9537 133.267 46.8914 133.345 46.7625L133.407 46.7942Z" fill="#08A7E0"/>
<path d="M150.469 40.9248C150.469 40.5194 150.469 40.1599 150.469 39.8069C150.469 39.6659 150.494 39.6069 150.653 39.6091C151.418 39.6171 152.183 39.6171 152.948 39.6091C153.101 39.6091 153.138 39.6605 153.138 39.8058C153.138 43.4988 153.138 47.191 153.138 50.8824C153.138 51.0376 153.083 51.0704 152.941 51.0693C152.175 51.0627 151.41 51.0627 150.646 51.0693C150.506 51.0693 150.463 51.0321 150.468 50.8912C150.478 50.5754 150.468 50.2584 150.468 49.9219C150.379 49.956 150.301 50.012 150.24 50.0847C149.245 50.9404 148.113 51.4419 146.78 51.4026C143.918 51.3185 142.344 49.3208 141.816 47.5243C141.27 45.6665 141.318 43.8295 142.262 42.1018C143.096 40.5773 144.359 39.5938 146.124 39.3479C147.71 39.1294 149.067 39.6091 150.223 40.6965L150.469 40.9248ZM150.625 45.366C150.639 44.8028 150.539 44.2427 150.331 43.7191C149.817 42.4908 148.911 41.7674 147.565 41.6986C146.274 41.6319 145.286 42.2034 144.695 43.3377C143.945 44.7726 143.99 46.2446 144.831 47.627C145.97 49.4979 148.38 49.2968 149.483 48.2586C150.318 47.4729 150.619 46.4774 150.625 45.366Z" fill="#08A7E0"/>
<path d="M107.708 49.8954C107.426 50.1462 107.127 50.3783 106.815 50.5904C104.485 52.0963 101.441 51.4647 99.8408 49.1294C98.9065 47.7666 98.6388 46.2422 98.7644 44.6281C98.8792 43.1659 99.4201 41.8852 100.448 40.8274C101.315 39.9178 102.496 39.3743 103.751 39.3084C105.192 39.2111 106.407 39.704 107.449 40.6765L107.677 40.8864C107.711 40.8116 107.721 40.7287 107.707 40.6481C107.725 40.3105 107.673 39.9706 107.736 39.634C108.075 39.5848 108.416 39.6176 108.755 39.6133C109.232 39.6067 109.71 39.6133 110.187 39.6133C110.332 39.6133 110.381 39.6493 110.381 39.8034C110.377 43.4949 110.377 47.1864 110.381 50.8778C110.381 51.0221 110.348 51.0734 110.193 51.0724C109.428 51.0643 108.663 51.0643 107.898 51.0724C107.749 51.0724 107.7 51.0341 107.706 50.8822C107.716 50.5675 107.708 50.2571 107.708 49.8954ZM104.625 49.0212C105.981 49.0212 107.039 48.3283 107.552 47.0749C107.965 46.0694 108 44.9481 107.65 43.9189C107.224 42.5933 106.19 41.7945 104.822 41.6961C103.584 41.6054 102.418 42.2731 101.859 43.4807C101.235 44.8194 101.276 46.1821 101.984 47.4749C102.542 48.4912 103.441 49.0244 104.625 49.019V49.0212Z" fill="#4D4E50"/>
<path d="M79.3017 51.3998C77.7481 51.4756 76.2263 50.9415 75.0609 49.9114C73.8954 48.8813 73.1785 47.4366 73.0629 45.8855C72.9372 44.0714 73.4137 42.488 74.6846 41.1679C75.6557 40.1269 76.9734 39.4764 78.3903 39.3385C79.8732 39.1877 81.2808 39.427 82.532 40.2772C84.5045 41.617 85.382 43.4923 85.2389 45.8724C85.0695 48.6754 82.9058 50.7834 80.518 51.261C80.1168 51.3388 79.7101 51.3852 79.3017 51.3998ZM75.7556 45.3227C75.7543 45.5727 75.7711 45.8225 75.8058 46.0702C75.9588 47.1356 76.4233 48.011 77.3696 48.5836C78.0177 48.9726 78.7324 49.0666 79.4711 49.0153C80.6207 48.9355 81.5092 48.412 82.0709 47.399C82.5976 46.4472 82.6555 45.4145 82.4435 44.3741C81.8184 41.3143 78.4318 41.181 76.9992 42.4202C76.1075 43.1874 75.7589 44.1785 75.7556 45.3227Z" fill="#4D4E50"/>
<path d="M63.6201 41.9603C63.6201 39.0258 63.6201 36.0916 63.6201 33.1578C63.6201 32.96 63.6627 32.9021 63.8682 32.9054C64.6266 32.9192 65.3846 32.9192 66.1423 32.9054C66.3488 32.9054 66.3904 32.96 66.3904 33.1578C66.3853 38.1621 66.3853 43.166 66.3904 48.1696C66.3904 48.4843 66.3904 48.4843 66.6996 48.4843C68.2918 48.4843 69.884 48.4843 71.4763 48.4843C71.6631 48.4843 71.721 48.5291 71.7178 48.7215C71.7068 49.4416 71.709 50.1618 71.7178 50.8819C71.7178 51.0305 71.6773 51.0732 71.5265 51.0732C68.9563 51.0681 66.3864 51.0681 63.8168 51.0732C63.6092 51.0732 63.63 50.9639 63.63 50.8338C63.6249 47.8745 63.6216 44.9167 63.6201 41.9603Z" fill="#4D4E50"/>
<path d="M96.6829 43.6497C96.3502 43.2394 95.9847 42.8567 95.5901 42.5055C94.5618 41.6379 93.3946 41.463 92.1642 41.9176C90.9337 42.3722 90.2332 43.3077 90.0113 44.5775C89.7928 45.8091 89.9949 46.9642 90.8451 47.9422C91.9106 49.1673 93.9563 49.3956 95.2743 48.4438C95.7327 48.0924 96.149 47.689 96.5146 47.2417C96.5583 47.1904 96.6031 47.1401 96.6468 47.0909C96.7135 47.1215 96.6862 47.174 96.6862 47.2133C96.6862 48.2668 96.6862 49.3202 96.6862 50.3748C96.6951 50.4258 96.6866 50.4784 96.662 50.524C96.6374 50.5696 96.5982 50.6056 96.5507 50.6261C94.5115 51.6097 92.4363 51.7386 90.4135 50.6764C88.241 49.5355 87.1908 47.6701 87.2203 45.2048C87.2575 42.1089 89.6966 39.7648 92.3652 39.3725C93.8219 39.1539 95.2174 39.3495 96.5343 40.0282C96.6053 40.0653 96.6862 40.0828 96.6862 40.1965C96.6818 41.3319 96.6829 42.4597 96.6829 43.6497Z" fill="#4D4E50"/>
<path d="M138.848 41.1635C138.848 44.3778 138.848 47.5917 138.848 50.8052C138.848 51.0096 138.802 51.0741 138.588 51.0697C137.86 51.0558 137.131 51.0558 136.403 51.0697C136.207 51.0697 136.17 51.0129 136.171 50.8293C136.175 45.9168 136.175 41.0046 136.171 36.0929C136.171 34.5389 136.171 32.985 136.171 31.431C136.171 31.2671 136.203 31.2124 136.38 31.2124C137.121 31.2234 137.864 31.2234 138.608 31.2124C138.797 31.2124 138.845 31.2605 138.845 31.4507C138.844 34.689 138.845 37.9266 138.848 41.1635Z" fill="#08A7E0"/>
<path d="M116.209 41.1549C116.209 44.3765 116.209 47.5981 116.209 50.8197C116.209 51.0131 116.174 51.0754 115.966 51.071C115.261 51.0557 114.556 51.0557 113.852 51.071C113.624 51.071 113.551 51.0284 113.552 50.7814C113.56 44.6042 113.562 38.4266 113.558 32.2486C113.558 31.9678 113.565 31.6869 113.558 31.4072C113.558 31.2607 113.593 31.2148 113.745 31.217C114.495 31.2247 115.245 31.228 115.996 31.217C116.187 31.217 116.214 31.2826 116.214 31.4476C116.208 34.683 116.207 37.9188 116.209 41.1549Z" fill="#4D4E50"/>
<path d="M171.489 46.559C171.489 45.1493 171.484 43.7385 171.489 42.3288C171.489 42.1201 171.43 42.0731 171.237 42.0862C170.987 42.1026 170.736 42.0862 170.487 42.0927C170.378 42.0927 170.343 42.0611 170.344 41.9518C170.348 41.216 170.348 40.4805 170.344 39.7454C170.344 39.6361 170.387 39.6033 170.491 39.6055C170.756 39.6055 171.022 39.5968 171.287 39.6055C171.451 39.6143 171.487 39.5553 171.487 39.4012C171.48 38.1499 171.487 36.8987 171.478 35.6485C171.478 35.4463 171.527 35.3961 171.727 35.3993C172.456 35.4125 173.184 35.4125 173.913 35.3993C174.1 35.3993 174.131 35.4584 174.131 35.631C174.125 36.8593 174.131 38.0865 174.131 39.3148C174.131 39.6023 174.131 39.6023 174.43 39.6023C174.952 39.6023 175.476 39.6077 175.999 39.6023C176.162 39.6023 176.203 39.6547 176.201 39.8099C176.195 40.5071 176.195 41.2047 176.201 41.9026C176.201 42.0512 176.161 42.0949 176.01 42.0927C175.457 42.084 174.903 42.0927 174.35 42.0851C174.165 42.0796 174.131 42.1397 174.131 42.3135C174.137 45.1406 174.131 47.9687 174.14 50.7969C174.14 51.0231 174.077 51.069 173.864 51.0646C173.159 51.0504 172.454 51.0482 171.749 51.0646C171.52 51.0646 171.482 50.9969 171.484 50.7871C171.493 49.3839 171.489 47.9731 171.489 46.559Z" fill="#08A7E0"/>
<path d="M46.0371 45.6796C46.5536 45.1594 47.0698 44.6385 47.5856 44.1169C47.8457 43.8539 48.1051 43.5898 48.3637 43.3246C48.3779 43.3296 48.3914 43.3362 48.4041 43.3443C49.2734 44.0783 50.369 44.4904 51.5066 44.5114C51.6814 44.5114 51.6541 44.6207 51.6541 44.719C51.6541 45.5605 51.6541 46.4012 51.6541 47.2412V48.039C52.1524 47.7352 54.302 45.5135 55.3445 43.7115C56.0002 44.3114 56.587 44.9747 57.2219 45.5922C56.571 46.6863 55.8332 47.7264 55.0155 48.7023C54.0263 49.9098 52.9488 51.0421 51.7918 52.09C51.6825 52.1839 51.6257 52.1992 51.5131 52.0987C49.3953 50.2759 47.5605 48.1996 46.0983 45.8009C46.0743 45.7626 46.0579 45.72 46.0371 45.6796Z" fill="#F05923"/>
<path d="M158.977 40.6093C159.131 40.4651 159.251 40.3536 159.368 40.2389C160.454 39.1821 161.705 39.0717 163.063 39.6018C163.281 39.6859 163.483 39.8083 163.694 39.9099C163.784 39.9525 163.818 39.9963 163.764 40.1012C163.378 40.8661 162.999 41.6311 162.609 42.4081C162.472 42.3272 162.347 42.2518 162.219 42.1786C161.186 41.5797 159.607 41.7415 159.159 43.502C159.037 43.9794 158.976 44.4703 158.977 44.963C158.977 46.9177 158.977 48.8731 158.977 50.8292C158.977 51.0106 158.943 51.074 158.746 51.0707C157.995 51.0576 157.246 51.0609 156.495 51.0707C156.342 51.0707 156.304 51.0226 156.305 50.8773C156.305 47.1858 156.305 43.4947 156.305 39.8039C156.305 39.6564 156.348 39.6083 156.498 39.6094C157.263 39.616 158.028 39.616 158.793 39.6094C158.927 39.6094 158.982 39.6389 158.976 39.7843C158.969 40.0422 158.977 40.3001 158.977 40.6093Z" fill="#08A7E0"/>
<path d="M47.7656 36.1059L45.8237 34.1694C46.816 32.9739 48.0596 32.1445 49.5578 31.7587C52.6177 30.9708 55.2404 31.7532 57.403 34.0536C57.4316 34.0878 57.4571 34.1243 57.4795 34.1629L55.542 36.1069L55.4327 35.9977C54.141 34.6284 52.5652 34.0842 50.7096 34.4044C49.525 34.6076 48.5546 35.2043 47.7656 36.1059Z" fill="#F89D1C"/>
<path d="M168.07 45.3491C168.07 47.1751 168.07 49.0012 168.07 50.8273C168.07 51.012 168.029 51.0721 167.835 51.0688C167.085 51.0579 166.335 51.0611 165.585 51.0688C165.436 51.0688 165.392 51.0294 165.392 50.8786C165.396 47.1886 165.396 43.4982 165.392 39.8075C165.392 39.6632 165.427 39.6075 165.58 39.6086C166.345 39.6152 167.109 39.6184 167.874 39.6086C168.078 39.6086 168.066 39.7124 168.066 39.849C168.067 41.6813 168.069 43.5146 168.07 45.3491Z" fill="#08A7E0"/>
<path d="M55.542 36.1076L57.4796 34.1635C58.1043 34.8657 58.5814 35.6862 58.8827 36.5764C59.4379 38.1293 59.4291 39.7073 59.0521 41.2908C58.6893 42.8261 58.0424 44.2413 57.2217 45.5887C56.5868 44.9713 55.9977 44.308 55.3442 43.708C55.7831 42.9857 56.1383 42.2158 56.4032 41.4132C56.7004 40.4482 56.8403 39.4702 56.6534 38.4626C56.484 37.5976 56.1021 36.7883 55.542 36.1076Z" fill="#30B66A"/>
<path d="M166.814 36.6016C165.891 36.677 165.095 35.9524 165.005 34.9536C164.924 34.0673 165.671 33.2259 166.621 33.1538C166.852 33.1378 167.084 33.1685 167.303 33.2441C167.522 33.3196 167.723 33.4385 167.895 33.5936C168.067 33.7487 168.206 33.9369 168.304 34.1469C168.402 34.3569 168.456 34.5844 168.464 34.8159C168.503 35.8584 167.626 36.6245 166.814 36.6016Z" fill="#08A7E0"/>
</svg>
