<svg width="234" height="88" viewBox="0 0 234 88" fill="none" xmlns="http://www.w3.org/2000/svg">
<path d="M153 40.5982H126.55V33.8281H153V40.5982Z" fill="#E669A2"/>
<path d="M149.565 40.5967H126.55V23.6641H149.565V40.5967Z" fill="#F3BE26"/>
<path d="M140.056 40.5976H126.55V16.8984H140.056V40.5976Z" fill="#EE9C34"/>
<path d="M142.713 40.5977H126.55V19.543H142.713V40.5977Z" fill="#F3BC87"/>
<path d="M126.545 19.5469V40.5955H140.054V19.5469H126.545Z" fill="#E3721C"/>
<path d="M113.006 40.5977H126.55V43.9831H113.006V40.5977Z" fill="#AD1B02"/>
<path d="M126.545 23.6641V40.5983H142.72V23.6641H126.545Z" fill="#E88D14"/>
<path d="M126.545 23.6641V40.5983H140.054V23.6641H126.545Z" fill="#D85604"/>
<path d="M134.996 40.5969H126.55V30.4336H134.996V40.5969Z" fill="#C14303"/>
<path d="M126.545 33.832V40.5951H149.572V33.832H126.545Z" fill="#DB4E18"/>
<path d="M126.545 33.832V40.5951H142.72V33.832H126.545Z" fill="#D1390D"/>
<path d="M126.545 33.832V40.5951H140.054V33.832H126.545Z" fill="#C22303"/>
<path d="M126.545 33.832V40.5951H135.004V33.832H126.545Z" fill="#AD1B02"/>
<path d="M129.494 53.3488C127.19 53.7585 125.961 55.4996 125.961 58.521C125.961 61.5937 127.6 63.6421 130.007 63.6421C131.184 63.6421 132.209 63.2324 134.359 62.157C134.359 64.6663 134.359 64.6663 134.359 64.6663C131.748 65.8953 130.211 66.2026 128.163 66.2026C125.859 66.2026 124.22 65.6393 122.94 64.2566C121.608 62.9251 120.891 61.184 120.891 59.1868C120.891 54.8339 124.169 51.8125 128.931 51.8125C132.055 51.8125 134.257 53.2976 134.257 55.3972C134.257 56.7799 133.233 57.7529 131.748 57.7529C130.98 57.7529 130.365 57.4968 129.494 57.0359" fill="black"/>
<path d="M117.972 59.1868C120.072 56.5751 120.84 55.4996 120.84 54.2194C120.84 52.9391 119.816 51.8125 118.382 51.8125C117.563 51.8125 116.795 52.2734 116.436 52.6831C116.436 58.0602 116.436 58.0602 116.436 58.0602C113.005 62.6691 113.005 62.6691 113.005 62.6691C113.005 52.2222 113.005 52.2222 113.005 52.2222C109.728 52.2222 109.728 52.2222 109.728 52.2222C104.299 61.184 104.299 61.184 104.299 61.184C104.299 52.2222 104.299 52.2222 104.299 52.2222C102.456 52.2222 102.456 52.2222 102.456 52.2222C97.4883 53.3488 97.4883 53.3488 97.4883 53.3488C97.4883 54.6291 97.4883 54.6291 97.4883 54.6291C100.202 54.8851 100.202 54.8851 100.202 54.8851C100.202 65.9977 100.202 65.9977 100.202 65.9977C103.634 65.9977 103.634 65.9977 103.634 65.9977C108.857 57.3944 108.857 57.3944 108.857 57.3944C108.857 65.9977 108.857 65.9977 108.857 65.9977C112.698 65.9977 112.698 65.9977 112.698 65.9977" fill="black"/>
<path d="M87.0927 64.2557C87.5024 64.2557 87.6048 64.2557 87.8609 64.2557C90.6262 64.2557 92.1625 62.5658 92.1625 59.1859C92.1625 56.3694 90.9335 54.833 88.629 54.833C88.3218 54.833 87.8609 54.8843 87.0927 55.0379V64.2557ZM87.0927 70.2986C89.346 70.8107 89.346 70.8107 89.346 70.8107C89.346 72.0909 89.346 72.0909 89.346 72.0909C80.4866 72.0909 80.4866 72.0909 80.4866 72.0909C80.4866 70.8107 80.4866 70.8107 80.4866 70.8107C82.535 70.2986 82.535 70.2986 82.535 70.2986C82.535 54.833 82.535 54.833 82.535 54.833C80.2817 54.833 80.2817 54.833 80.2817 54.833C80.2817 53.5528 80.2817 53.5528 80.2817 53.5528C85.6588 51.9141 85.6588 51.9141 85.6588 51.9141C87.0927 51.9141 87.0927 51.9141 87.0927 51.9141C87.0927 53.7576 87.0927 53.7576 87.0927 53.7576C89.602 52.2213 90.4726 51.9653 91.8041 51.9653C94.7742 51.9653 97.0275 54.7306 97.0275 58.5714C97.0275 62.9755 94.0061 65.9969 89.3972 65.9969C88.8851 65.9969 88.0145 65.9457 87.0927 65.8945" fill="black"/>
</svg>
