<svg width="234" height="88" viewBox="0 0 234 88" fill="none" xmlns="http://www.w3.org/2000/svg">
<path d="M174.869 42.9751V45.6513H176.75V48.3066C176.756 48.5439 176.743 48.7998 176.702 49.0045C176.628 49.4998 176.157 50.3431 174.822 50.3431C173.495 50.3431 173.033 49.4998 172.953 49.0045C172.919 48.7998 172.905 48.5439 172.905 48.3066V39.9199C172.905 39.6233 172.925 39.2986 172.988 39.0528C173.079 38.6058 173.475 37.7243 174.812 37.7243C176.216 37.7243 176.566 38.6537 176.646 39.0528C176.699 39.3172 176.702 39.7606 176.702 39.7606V40.779H181.324V40.177C181.324 40.177 181.345 39.5488 181.288 38.9626C180.941 35.5203 178.105 34.4312 174.853 34.4312C171.595 34.4312 168.816 35.5304 168.411 38.9626C168.375 39.2764 168.319 39.841 168.319 40.177V47.8919C168.319 48.2279 168.33 48.488 168.392 49.1021C168.693 52.4496 171.595 53.6363 174.84 53.6363C178.105 53.6363 180.986 52.4496 181.293 49.1021C181.347 48.488 181.353 48.2279 181.36 47.8919V42.9751H174.869ZM143.004 34.9249H138.363V48.5C138.371 48.7366 138.363 49.0024 138.323 49.1973C138.226 49.653 137.839 50.53 136.559 50.53C135.295 50.53 134.899 49.653 134.809 49.1973C134.763 49.0024 134.757 48.7366 134.763 48.5V34.9249H130.123V48.0787C130.118 48.4178 130.144 49.1106 130.164 49.292C130.484 52.7197 133.186 53.8325 136.559 53.8325C139.939 53.8325 142.639 52.7197 142.965 49.292C142.991 49.1106 143.024 48.4178 143.004 48.0787V34.9249ZM100.363 34.9249L98.0477 49.2689L95.7341 34.9249H88.248L87.8509 53.275H92.4372L92.5613 36.2877L95.7169 53.275H100.37L103.528 36.2877L103.653 53.275H108.251L107.84 34.9249H100.363ZM72.6457 34.9249L69.2465 53.275H74.2034L76.7649 36.2877L79.2649 53.275H84.1874L80.8024 34.9249H72.6457ZM159.223 49.6989L154.902 34.9249H148.092V53.0837H152.597L152.336 37.837L156.976 53.0837H163.507V34.9249H158.973L159.223 49.6989ZM117.556 39.7005C117.474 39.3382 117.498 38.9531 117.54 38.7519C117.671 38.1645 118.066 37.5238 119.203 37.5238C120.263 37.5238 120.884 38.1845 120.884 39.176V40.2981H125.408V39.0191C125.408 35.0653 121.863 34.4442 119.297 34.4442C116.064 34.4442 113.425 35.5097 112.943 38.4847C112.815 39.2943 112.784 40.013 112.986 40.93C113.773 44.6395 120.23 45.7156 121.168 48.0615C121.333 48.5059 121.286 49.0726 121.201 49.4065C121.061 50.017 120.65 50.6311 119.433 50.6311C118.291 50.6311 117.604 49.9746 117.604 48.9852L117.602 47.2241H112.733V48.624C112.733 52.6803 115.91 53.9042 119.332 53.9042C122.609 53.9042 125.316 52.7842 125.75 49.7484C125.957 48.1798 125.801 47.1582 125.718 46.7734C124.959 42.9687 118.076 41.8243 117.556 39.7005ZM57.8775 39.6555C57.7886 39.2856 57.8094 38.8952 57.8589 38.6916C57.9842 38.107 58.3812 37.455 59.5384 37.455C60.6117 37.455 61.2436 38.1221 61.2436 39.1216V40.2573H65.8207V38.9682C65.8207 34.9765 62.2217 34.3403 59.6272 34.3403C56.3678 34.3403 53.7045 35.4223 53.2172 38.4187C53.0839 39.2413 53.061 39.9649 53.2538 40.8921C54.0483 44.6438 60.57 45.7286 61.5189 48.1025C61.6965 48.5439 61.6428 49.1106 61.5547 49.4574C61.4041 50.0743 60.9901 50.697 59.7625 50.697C58.6162 50.697 57.9305 50.0293 57.9305 49.0262L57.9241 47.2604H53V48.6636C53 52.7663 56.2222 54.0001 59.6708 54.0001C62.9863 54.0001 65.709 52.8702 66.1532 49.7993C66.374 48.2164 66.2083 47.1862 66.1339 46.7955C65.3594 42.9442 58.3999 41.8035 57.8775 39.6555Z" fill="#1428A0"/>
</svg>
