<?xml version="1.0" encoding="UTF-8"?>
<svg fill="none" viewBox="0 0 477 340" xmlns="http://www.w3.org/2000/svg">
<circle cx="29" cy="29" r="29" fill="#000009"/>
<path d="m33.756 33.091c-0.3628-1.1201 0.2495-2.3158 1.3606-2.6791 1.1188-0.3632 2.3131 0.2498 2.6759 1.3623l2.5323 7.7495c0.3628 1.1201-0.2495 2.3158-1.3606 2.6791-0.4989 0.1665-1.0129 0.1286-1.4665-0.0606l-7.5514-2.5201-8.6702 6.0014c-0.9676 0.666-2.2829 0.4238-2.9481-0.5373-0.393-0.5676-0.4686-1.2563-0.2721-1.8617l2.8876-8.8318-8.4888-2.8304c-1.1112-0.3709-1.7159-1.5666-1.3455-2.6791 0.2419-0.7416 0.8617-1.2563 1.5722-1.4076v-0.0076l11.316-2.4066 3.7871-11.594c0.3628-1.12 1.5571-1.7255 2.6759-1.3622 0.6727 0.2194 1.1565 0.7416 1.3606 1.3622l3.0463 9.2859 9.5697-2.0358c1.149-0.2422 2.2753 0.4919 2.5172 1.6423 0.2419 1.1503-0.4914 2.2779-1.6403 2.5201l-13.304 2.8304s-1.8747-5.7365-2.2073-6.7506c-0.6274 1.9298-2.5247 7.7571-2.5171 7.7344l-6.0926 1.3168 5.125 1.665-2.2601 6.8792 5.2157-3.6099 5.7146 1.8996-1.2321-3.7537z" clip-rule="evenodd" fill="#25E85F" fill-rule="evenodd"/>
<path d="m80.624 21-3.6-3.984c1.872-0.272 3.072-1.552 3.072-3.344 0-2.032-1.536-3.392-3.84-3.392h-5.136v10.72h2.176v-3.936h1.136l3.536 3.936h2.656zm-7.328-5.904v-2.848h2.96c1.008 0 1.68 0.576 1.68 1.424s-0.672 1.424-1.68 1.424h-2.96zm15.829 1.76c-0.08-2.432-1.92-4.08-4.048-4.08-2.288 0-4.128 1.728-4.128 4.24s1.84 4.224 4.096 4.224c1.744 0 3.168-0.8 3.8719-2.464l-1.8879-0.4c-0.576 0.976-1.36 1.056-1.984 1.056-0.976 0-1.792-0.704-2-1.856h6.08v-0.72zm-4.048-2.24c0.848 0 1.616 0.448 1.888 1.472h-3.856c0.256-0.992 1.168-1.472 1.968-1.472zm13.354-1.616h-2.272l-2.176 5.424-2.176-5.424h-2.272l3.328 8h2.24l3.328-8zm2.451-3.632c-0.752 0-1.2802 0.592-1.2802 1.264 0 0.704 0.5282 1.232 1.2802 1.232 0.736 0 1.28-0.528 1.28-1.232 0-0.672-0.544-1.264-1.28-1.264zm1.056 11.632v-7.984h-2.1122v7.984h2.1122zm9.89-4.144c-0.08-2.432-1.92-4.08-4.048-4.08-2.288 0-4.128 1.728-4.128 4.24s1.84 4.224 4.096 4.224c1.744 0 3.168-0.8 3.872-2.464l-1.888-0.4c-0.576 0.976-1.36 1.056-1.984 1.056-0.976 0-1.792-0.704-2-1.856h6.08v-0.72zm-4.048-2.24c0.848 0 1.616 0.448 1.888 1.472h-3.856c0.256-0.992 1.168-1.472 1.968-1.472zm16.886-1.6h-2.096l-1.584 4.928-1.632-4.928h-1.648l-1.632 4.912-1.584-4.912h-2.096l2.656 8h1.904l1.584-4.704 1.568 4.704h1.904l2.656-8zm0.61 5.872c0.208 1.664 1.824 2.352 3.584 2.352 2.08 0 3.504-0.912 3.504-2.672 0-1.072-0.688-1.952-2.096-2.256l-1.904-0.416c-0.624-0.144-0.72-0.416-0.72-0.672 0-0.368 0.24-0.784 1.088-0.784 0.88 0 1.44 0.464 1.52 1.104l2.016-0.4c-0.272-1.392-1.584-2.368-3.472-2.368-2.016 0-3.264 1.104-3.264 2.64 0 1.152 0.816 1.968 2.256 2.272l1.632 0.336c0.688 0.144 0.88 0.432 0.88 0.72 0 0.448-0.464 0.8-1.248 0.8-0.832 0-1.536-0.272-1.648-1.088l-2.128 0.432zm13.343-6.112c-1.056 0-1.888 0.336-2.512 0.96v-4.256h-2.112v11.52h2.112v-3.536c0-1.952 0.784-2.752 1.984-2.752 0.976 0 1.616 0.752 1.616 1.872v4.416h2.112v-4.864c0-1.984-1.28-3.36-3.2-3.36zm13.283 0.24h-2.112v0.64c-0.672-0.56-1.552-0.88-2.64-0.88-2.032 0-3.92 1.728-3.92 4.24s1.888 4.224 3.92 4.224c1.088 0 1.968-0.32 2.64-0.864v0.624h2.112v-7.984zm-4.384 6.384c-1.28 0-2.24-0.912-2.24-2.384s0.96-2.4 2.24-2.4c1.136 0 2.272 0.928 2.272 2.4s-1.136 2.384-2.272 2.384zm15.05 1.6-4.272-4.16 3.856-3.824h-2.656l-2.864 2.784h-0.384v-6.32h-2.112v11.52h2.112v-3.12h0.368l3.136 3.12h2.816zm8.166-4.144c-0.08-2.432-1.92-4.08-4.048-4.08-2.288 0-4.128 1.728-4.128 4.24s1.84 4.224 4.096 4.224c1.744 0 3.168-0.8 3.872-2.464l-1.888-0.4c-0.576 0.976-1.36 1.056-1.984 1.056-0.976 0-1.792-0.704-2-1.856h6.08v-0.72zm-4.048-2.24c0.848 0 1.616 0.448 1.888 1.472h-3.856c0.256-0.992 1.168-1.472 1.968-1.472z" fill="#000009"/>
<path d="m78.656 42.856c-0.08-2.384-1.84-4.016-3.968-4.016-2.24 0-4.112 1.68-4.112 4.208 0 2.512 1.888 4.176 4.048 4.176 1.76 0 3.168-0.832 3.824-2.496l-1.488-0.32c-0.56 1.12-1.456 1.376-2.336 1.376-1.168 0-2.24-0.88-2.4-2.352h6.432v-0.576zm-3.968-2.544c1.088 0 2 0.64 2.256 1.936h-4.672c0.256-1.28 1.376-1.936 2.416-1.936zm10.138 2.8 2.848-4.064h-2l-2.08 3.008-2.08-3.008h-1.984l2.848 4.064-2.848 3.888h1.984l2.08-2.864 2.08 2.864h2l-2.848-3.888zm12.151-4.048h-1.664v0.912c-0.688-0.72-1.68-1.136-2.88-1.136-2.08 0-3.936 1.696-3.936 4.192 0 2.512 1.856 4.192 3.936 4.192 1.2 0 2.192-0.416 2.88-1.136v0.912h1.664v-7.936zm-4.272 6.688c-1.456 0-2.592-1.04-2.592-2.72 0-1.664 1.136-2.72 2.592-2.72 1.312 0 2.608 1.056 2.608 2.72 0 1.68-1.296 2.72-2.608 2.72zm16.601-6.912c-1.312 0-2.32 0.56-2.96 1.456-0.512-0.928-1.504-1.456-2.64-1.456s-1.968 0.416-2.544 1.12v-0.896h-1.6636v7.936h1.6636v-3.936c0-1.776 0.832-2.688 2.112-2.688 1.024 0 1.792 0.736 1.792 1.904v4.72h1.664v-3.936c0-1.776 0.848-2.688 2.144-2.688 1.024 0 1.792 0.736 1.792 1.904v4.72h1.648v-5.056c0-1.872-1.36-3.104-3.008-3.104zm9.908 0c-1.2 0-2.192 0.416-2.88 1.136v-0.912h-1.664v10.656h1.664v-3.632c0.688 0.72 1.68 1.136 2.88 1.136 2.08 0 3.936-1.68 3.936-4.192 0-2.496-1.856-4.192-3.936-4.192zm-0.272 6.912c-1.312 0-2.608-1.04-2.608-2.72 0-1.664 1.296-2.72 2.608-2.72 1.456 0 2.592 1.056 2.592 2.72 0 1.68-1.136 2.72-2.592 2.72zm7.705 1.248v-11.52h-1.664v11.52h1.664zm9.915-4.144c-0.08-2.384-1.84-4.016-3.968-4.016-2.24 0-4.112 1.68-4.112 4.208 0 2.512 1.888 4.176 4.048 4.176 1.76 0 3.168-0.832 3.824-2.496l-1.488-0.32c-0.56 1.12-1.456 1.376-2.336 1.376-1.168 0-2.24-0.88-2.4-2.352h6.432v-0.576zm-3.968-2.544c1.088 0 2 0.64 2.256 1.936h-4.672c0.256-1.28 1.376-1.936 2.416-1.936zm15.155-0.88h-1.104v0.848c-0.544-0.624-1.312-0.976-2.224-0.976-1.776 0-3.216 1.296-3.216 3.344 0 1.984 1.408 3.296 3.216 3.296 1.024 0 1.824-0.384 2.336-1.056 0.256 0.672 0.896 1.104 1.872 1.104 2.08 0 2.816-2.096 2.816-3.872 0-3.52-2.976-6.064-6.624-6.064-3.84 0-6.752 2.768-6.752 6.544 0 3.808 2.976 6.528 6.608 6.528 1.552 0 3.28-0.496 4.4-1.36l-0.56-0.88c-1.104 0.8-2.576 1.216-3.872 1.216-3.024 0-5.488-2.336-5.488-5.52 0-3.168 2.416-5.536 5.664-5.536 3.072 0 5.52 2.096 5.52 5.152 0 1.296-0.448 2.8-1.552 2.8-0.576 0-1.04-0.352-1.04-0.944v-4.624zm-3.168 5.392c-1.088 0-2.08-0.816-2.08-2.192s0.992-2.176 2.08-2.176 2.064 0.816 2.064 2.176-0.976 2.192-2.064 2.192zm13.73-5.856c-1.376 0-2.384 0.736-3.024 1.792v-1.696h-1.664v7.936h1.664v-2.8c0-2.176 0.992-3.584 3.008-3.584 0.144 0 0.336 0 0.464 0.016l0.112-1.6c-0.208-0.064-0.368-0.064-0.56-0.064zm9.283 3.888c-0.08-2.384-1.84-4.016-3.968-4.016-2.24 0-4.112 1.68-4.112 4.208 0 2.512 1.888 4.176 4.048 4.176 1.76 0 3.168-0.832 3.823-2.496l-1.487-0.32c-0.56 1.12-1.456 1.376-2.336 1.376-1.168 0-2.24-0.88-2.4-2.352h6.432v-0.576zm-3.968-2.544c1.088 0 2 0.64 2.256 1.936h-4.672c0.256-1.28 1.376-1.936 2.416-1.936zm13.144-1.264h-1.808l-2.496 5.968-2.496-5.968h-1.808l3.408 7.952h1.776l3.424-7.952zm2.438-3.408c-0.624 0-1.072 0.48-1.072 1.04 0 0.592 0.448 1.024 1.072 1.024 0.608 0 1.056-0.432 1.056-1.024 0-0.56-0.448-1.04-1.056-1.04zm0.832 11.36v-7.936h-1.664v7.936h1.664zm10.038-4.144c-0.08-2.384-1.84-4.016-3.968-4.016-2.24 0-4.112 1.68-4.112 4.208 0 2.512 1.888 4.176 4.048 4.176 1.76 0 3.168-0.832 3.824-2.496l-1.488-0.32c-0.56 1.12-1.456 1.376-2.336 1.376-1.168 0-2.24-0.88-2.4-2.352h6.432v-0.576zm-3.968-2.544c1.088 0 2 0.64 2.256 1.936h-4.672c0.256-1.28 1.376-1.936 2.416-1.936zm16.708-1.248h-1.664l-1.808 5.52-1.872-5.52h-1.312l-1.872 5.52-1.808-5.52h-1.664l2.656 7.968h1.52l1.824-5.344 1.824 5.344h1.52l2.656-7.968zm0.821 5.808c0.208 1.6 1.728 2.352 3.504 2.352 1.984 0 3.344-0.896 3.344-2.56 0-1.12-0.784-1.872-2.064-2.144l-1.888-0.416c-0.704-0.16-0.96-0.448-0.96-0.896 0-0.56 0.432-1.04 1.408-1.04 1.024 0 1.68 0.528 1.808 1.296l1.584-0.336c-0.288-1.328-1.52-2.288-3.344-2.288-1.904 0-3.136 1.04-3.136 2.512 0 1.12 0.784 1.856 2.16 2.16l1.728 0.352c0.736 0.16 1.072 0.464 1.072 0.944 0 0.624-0.608 1.056-1.568 1.056-1.04 0-1.872-0.4-1.984-1.344l-1.664 0.352zm13.15-6.032c-1.184 0-2.112 0.432-2.752 1.2v-4.56h-1.664v11.52h1.664v-3.664c0-2 0.944-2.96 2.368-2.96 1.136 0 1.888 0.864 1.888 2.16v4.464h1.68v-4.8c0-1.984-1.28-3.36-3.184-3.36zm13.282 0.224h-1.664v0.912c-0.688-0.72-1.68-1.136-2.88-1.136-2.08 0-3.936 1.696-3.936 4.192 0 2.512 1.856 4.192 3.936 4.192 1.2 0 2.192-0.416 2.88-1.136v0.912h1.664v-7.936zm-4.272 6.688c-1.456 0-2.592-1.04-2.592-2.72 0-1.664 1.136-2.72 2.592-2.72 1.312 0 2.608 1.056 2.608 2.72 0 1.68-1.296 2.72-2.608 2.72zm14.857 1.248-4.624-4.096 4.16-3.84h-2.128l-3.312 2.992h-0.496v-6.576h-1.664v11.52h1.664v-3.296h0.48l3.664 3.296h2.256zm8.25-4.144c-0.08-2.384-1.84-4.016-3.968-4.016-2.24 0-4.112 1.68-4.112 4.208 0 2.512 1.888 4.176 4.048 4.176 1.76 0 3.168-0.832 3.824-2.496l-1.488-0.32c-0.56 1.12-1.456 1.376-2.336 1.376-1.168 0-2.24-0.88-2.4-2.352h6.432v-0.576zm-3.968-2.544c1.088 0 2 0.64 2.256 1.936h-4.672c0.256-1.28 1.376-1.936 2.416-1.936zm6.119 4.72c-0.608 0-1.056 0.464-1.056 1.008 0 0.576 0.448 1.024 1.056 1.024s1.04-0.448 1.04-1.024c0-0.544-0.432-1.008-1.04-1.008zm6.32 0.656c-1.472 0-2.56-1.04-2.56-2.656 0-1.568 1.088-2.656 2.56-2.656 1.056 0 1.968 0.544 2.272 1.712l1.6-0.464c-0.496-1.696-2.08-2.784-3.872-2.784-2.272 0-4.192 1.712-4.192 4.192 0 2.512 1.92 4.192 4.192 4.192 1.84 0 3.44-1.088 3.872-2.8l-1.536-0.4c-0.384 1.152-1.28 1.664-2.336 1.664zm9.315-6.8c-2.352 0-4.272 1.68-4.272 4.144s1.92 4.16 4.272 4.16c2.336 0 4.24-1.696 4.24-4.16s-1.904-4.144-4.24-4.144zm0 6.864c-1.392 0-2.64-1.072-2.64-2.72s1.248-2.72 2.64-2.72c1.36 0 2.624 1.072 2.624 2.72s-1.264 2.72-2.624 2.72zm15.911-6.912c-1.312 0-2.32 0.56-2.96 1.456-0.512-0.928-1.504-1.456-2.64-1.456s-1.968 0.416-2.544 1.12v-0.896h-1.664v7.936h1.664v-3.936c0-1.776 0.832-2.688 2.112-2.688 1.024 0 1.792 0.736 1.792 1.904v4.72h1.664v-3.936c0-1.776 0.848-2.688 2.144-2.688 1.024 0 1.792 0.736 1.792 1.904v4.72h1.648v-5.056c0-1.872-1.36-3.104-3.008-3.104z" fill="#66717E"/>
<path d="m10.368 94.28h-1.264v4.752h-6.432v-4.752h-1.264v10.72h1.264v-4.832h6.432v4.832h1.264v-10.72zm10.053 6.576c-0.08-2.352-1.744-3.936-3.872-3.936-2.176 0-4.08 1.632-4.08 4.16 0 2.512 1.904 4.128 4 4.128 1.776 0 3.152-0.864 3.776-2.512l-1.088-0.256c-0.56 1.264-1.568 1.696-2.688 1.696-1.36 0-2.704-1.056-2.816-2.832h6.768v-0.448zm-3.872-2.864c1.312 0 2.416 0.848 2.64 2.4h-5.488c0.24-1.552 1.568-2.4 2.848-2.4zm7.1841 7.008v-11.52h-1.216v11.52h1.216zm4.0312 0v-11.52h-1.216v11.52h1.216zm6.2873-8.064c-2.352 0-4.192 1.696-4.192 4.112s1.84 4.144 4.192 4.144c2.32 0 4.176-1.728 4.176-4.144s-1.856-4.112-4.176-4.112zm0 7.184c-1.632 0-3.008-1.248-3.008-3.072 0-1.808 1.376-3.04 3.008-3.04 1.616 0 2.976 1.232 2.976 3.04 0 1.824-1.36 3.072-2.976 3.072zm5.6481 2.992 1.536-4.176v-0.032h-1.44l-1.056 4.208h0.96z" fill="#000009"/>
<rect y="120" width="453" height="8" rx="4" fill="#E0E0E0"/>
<rect y="137" width="470" height="8" rx="4" fill="#E0E0E0"/>
<rect y="154" width="477" height="8" rx="4" fill="#E0E0E0"/>
<rect y="171" width="477" height="8" rx="4" fill="#E0E0E0"/>
<rect y="188" width="459" height="8" rx="4" fill="#E0E0E0"/>
<rect y="205" width="438" height="8" rx="4" fill="#E0E0E0"/>
<path d="m10.592 249.28h-2.176v4.352h-5.12v-4.352h-2.176v10.72h2.176v-4.4h5.12v4.4h2.176v-10.72zm5.9588 2.544c-2.384 0-4.352 1.68-4.352 4.192s1.968 4.192 4.352 4.192c2.336 0 4.304-1.68 4.304-4.192s-1.968-4.192-4.304-4.192zm0 6.576c-1.152 0-2.304-0.896-2.304-2.384s1.152-2.384 2.304-2.384c1.104 0 2.256 0.896 2.256 2.384s-1.152 2.384-2.256 2.384zm17.131-6.384h-2.096l-1.584 4.928-1.632-4.928h-1.648l-1.632 4.912-1.584-4.912h-2.096l2.656 8h1.904l1.584-4.704 1.568 4.704h1.904l2.656-8zm13.204-3.536h-2.112v4.176c-0.672-0.56-1.552-0.88-2.64-0.88-2.032 0-3.92 1.728-3.92 4.24s1.888 4.224 3.92 4.224c1.088 0 1.968-0.32 2.64-0.864v0.624h2.112v-11.52zm-4.384 9.92c-1.28 0-2.24-0.912-2.24-2.384s0.96-2.4 2.24-2.4c1.136 0 2.272 0.928 2.272 2.4s-1.136 2.384-2.272 2.384zm7.7856-10.032c-0.752 0-1.28 0.592-1.28 1.264 0 0.704 0.528 1.232 1.28 1.232 0.736 0 1.28-0.528 1.28-1.232 0-0.672-0.544-1.264-1.28-1.264zm1.056 11.632v-7.984h-2.112v7.984h2.112zm10.386-11.52h-2.112v4.176c-0.672-0.56-1.552-0.88-2.64-0.88-2.032 0-3.92 1.728-3.92 4.24s1.888 4.224 3.92 4.224c1.088 0 1.968-0.32 2.64-0.864v0.624h2.112v-11.52zm-4.384 9.92c-1.28 0-2.24-0.912-2.24-2.384s0.96-2.4 2.24-2.4c1.136 0 2.272 0.928 2.272 2.4s-1.136 2.384-2.272 2.384zm21.82-6.384h-2.096l-1.584 4.928-1.632-4.928h-1.648l-1.632 4.912-1.584-4.912h-2.096l2.656 8h1.904l1.584-4.704 1.568 4.704h1.904l2.656-8zm8.7396 3.84c-0.08-2.432-1.92-4.08-4.048-4.08-2.288 0-4.128 1.728-4.128 4.24s1.84 4.224 4.096 4.224c1.744 0 3.168-0.8 3.872-2.464l-1.888-0.4c-0.576 0.976-1.36 1.056-1.984 1.056-0.976 0-1.792-0.704-2-1.856h6.08v-0.72zm-4.048-2.24c0.848 0 1.616 0.448 1.888 1.472h-3.856c0.256-0.992 1.168-1.472 1.968-1.472zm17.575-5.136h-2.1117v4.176c-0.672-0.56-1.552-0.88-2.64-0.88-2.032 0-3.92 1.728-3.92 4.24s1.888 4.224 3.92 4.224c1.088 0 1.968-0.32 2.64-0.864v0.624h2.1117v-11.52zm-4.3837 9.92c-1.28 0-2.24-0.912-2.24-2.384s0.96-2.4 2.24-2.4c1.136 0 2.272 0.928 2.272 2.4s-1.136 2.384-2.272 2.384zm10.33-6.576c-2.384 0-4.352 1.68-4.352 4.192s1.968 4.192 4.352 4.192c2.336 0 4.304-1.68 4.304-4.192s-1.968-4.192-4.304-4.192zm0 6.576c-1.152 0-2.304-0.896-2.304-2.384s1.152-2.384 2.304-2.384c1.104 0 2.256 0.896 2.256 2.384s-1.152 2.384-2.256 2.384zm8.569-9.36c-2.256 0-3.824 1.552-3.952 3.312l2 0.4c0.192-1.104 0.88-1.84 1.952-1.84 0.992 0 1.664 0.656 1.664 1.6 0 0.832-0.672 1.392-1.664 1.392h-1.216v2.496h1.936v-0.896c1.824-0.224 2.992-1.376 2.992-2.992 0-2.064-1.488-3.472-3.712-3.472zm-0.272 8.576c-0.736 0-1.264 0.576-1.264 1.232 0 0.688 0.528 1.216 1.264 1.216s1.264-0.528 1.264-1.216c0-0.656-0.528-1.232-1.264-1.232z" fill="#000009"/>
<rect y="274" width="36" height="36" fill="#E71D36"/>
<g clip-path="url(#e)">
<path d="m29.555 288.73c-0.1068-0.287-0.2986-0.535-0.5499-0.71-0.2512-0.175-0.5499-0.269-0.8561-0.27h-6.087c-0.1036 0-0.2046-0.032-0.2892-0.092-0.0845-0.06-0.1484-0.145-0.1828-0.242l-2.185-6.193c-0.107-0.287-0.2989-0.533-0.55-0.707-0.2511-0.175-0.5494-0.268-0.855-0.268s-0.6039 0.093-0.855 0.268c-0.2511 0.174-0.443 0.42-0.55 0.707l-5e-3 0.016-2.18 6.177c-0.0343 0.097-0.0981 0.182-0.1824 0.242-0.0844 0.059-0.1852 0.092-0.2886 0.092h-6.089c-0.30819 0-0.60896 0.094-0.86142 0.271s-0.44435 0.427-0.54957 0.717c-0.10523 0.289-0.11867 0.604-0.03852 0.902 0.08016 0.297 0.25003 0.563 0.48651 0.761l5.184 4.3c0.0775 0.064 0.1338 0.15 0.1615 0.247s0.0254 0.2-0.0065 0.296l-2.178 6.531c-0.10065 0.302-0.10264 0.628-0.0057 0.931 0.097 0.303 0.2879 0.568 0.5451 0.755 0.2572 0.188 0.5674 0.289 0.8857 0.288 0.3183 0 0.6282-0.102 0.8849-0.29l5.346-3.92c0.0857-0.063 0.1892-0.097 0.2955-0.097s0.2098 0.034 0.2955 0.097l5.344 3.919c0.2566 0.189 0.5666 0.291 0.8852 0.292s0.6292-0.1 0.8868-0.288c0.2575-0.187 0.4487-0.452 0.5458-0.755 0.0971-0.304 0.0951-0.63-0.0058-0.932l-2.178-6.535c-0.0319-0.096-0.0341-0.199-0.0065-0.296 0.0277-0.097 0.084-0.183 0.1615-0.247l5.194-4.306c0.2335-0.2 0.4001-0.466 0.4776-0.763 0.0774-0.297 0.0619-0.61-0.0446-0.898z" fill="#fff" fill-opacity=".4"/>
</g>
<rect x="44" y="274" width="36" height="36" fill="#FF7B30"/>
<g clip-path="url(#d)">
<path d="m73.555 288.73c-0.1068-0.287-0.2986-0.535-0.5499-0.71-0.2512-0.175-0.5499-0.269-0.8561-0.27h-6.087c-0.1036 0-0.2046-0.032-0.2892-0.092-0.0845-0.06-0.1484-0.145-0.1828-0.242l-2.185-6.193c-0.107-0.287-0.2989-0.533-0.55-0.707-0.2511-0.175-0.5494-0.268-0.855-0.268s-0.6039 0.093-0.855 0.268c-0.2511 0.174-0.443 0.42-0.55 0.707l-5e-3 0.016-2.18 6.177c-0.0343 0.097-0.0981 0.182-0.1824 0.242-0.0844 0.059-0.1852 0.092-0.2886 0.092h-6.089c-0.3082 0-0.609 0.094-0.8614 0.271-0.2525 0.177-0.4444 0.427-0.5496 0.717-0.1052 0.289-0.1187 0.604-0.0385 0.902 0.0802 0.297 0.25 0.563 0.4865 0.761l5.184 4.3c0.0775 0.064 0.1338 0.15 0.1615 0.247s0.0254 0.2-0.0065 0.296l-2.178 6.531c-0.1007 0.302-0.1026 0.628-0.0057 0.931 0.097 0.303 0.2879 0.568 0.5451 0.755 0.2572 0.188 0.5674 0.289 0.8857 0.288 0.3183 0 0.6282-0.102 0.8849-0.29l5.346-3.92c0.0857-0.063 0.1892-0.097 0.2955-0.097s0.2098 0.034 0.2955 0.097l5.344 3.919c0.2566 0.189 0.5666 0.291 0.8852 0.292s0.6292-0.1 0.8868-0.288c0.2575-0.187 0.4487-0.452 0.5458-0.755 0.0971-0.304 0.0951-0.63-0.0058-0.932l-2.178-6.535c-0.0319-0.096-0.0341-0.199-0.0065-0.296 0.0277-0.097 0.084-0.183 0.1615-0.247l5.194-4.306c0.2335-0.2 0.4001-0.466 0.4776-0.763 0.0774-0.297 0.0619-0.61-0.0446-0.898z" fill="#fff" fill-opacity=".4"/>
</g>
<rect x="88" y="274" width="36" height="36" fill="#FFA630"/>
<g clip-path="url(#c)">
<path d="m117.56 288.73c-0.107-0.287-0.299-0.535-0.55-0.71s-0.55-0.269-0.856-0.27h-6.087c-0.104 0-0.205-0.032-0.289-0.092-0.085-0.06-0.149-0.145-0.183-0.242l-2.185-6.193c-0.107-0.287-0.299-0.533-0.55-0.707-0.251-0.175-0.549-0.268-0.855-0.268s-0.604 0.093-0.855 0.268c-0.251 0.174-0.443 0.42-0.55 0.707l-5e-3 0.016-2.18 6.177c-0.034 0.097-0.098 0.182-0.182 0.242-0.085 0.059-0.186 0.092-0.289 0.092h-6.089c-0.3082 0-0.609 0.094-0.8614 0.271-0.2525 0.177-0.4444 0.427-0.5496 0.717-0.1052 0.289-0.1187 0.604-0.0385 0.902 0.0802 0.297 0.25 0.563 0.4865 0.761l5.184 4.3c0.078 0.064 0.134 0.15 0.161 0.247 0.028 0.097 0.026 0.2-6e-3 0.296l-2.178 6.531c-0.1007 0.302-0.1026 0.628-0.0057 0.931 0.097 0.303 0.2879 0.568 0.5451 0.755 0.2572 0.188 0.5674 0.289 0.8857 0.288 0.3183 0 0.6279-0.102 0.8849-0.29l5.346-3.92c0.086-0.063 0.189-0.097 0.296-0.097 0.106 0 0.209 0.034 0.295 0.097l5.344 3.919c0.257 0.189 0.567 0.291 0.885 0.292 0.319 1e-3 0.629-0.1 0.887-0.288 0.258-0.187 0.449-0.452 0.546-0.755 0.097-0.304 0.095-0.63-6e-3 -0.932l-2.178-6.535c-0.032-0.096-0.034-0.199-6e-3 -0.296 0.027-0.097 0.083-0.183 0.161-0.247l5.194-4.306c0.233-0.2 0.4-0.466 0.478-0.763 0.077-0.297 0.061-0.61-0.045-0.898z" fill="#fff" fill-opacity=".4"/>
</g>
<rect x="132" y="274" width="36" height="36" fill="#FFD130"/>
<g clip-path="url(#b)">
<path d="m161.56 288.73c-0.107-0.287-0.299-0.535-0.55-0.71s-0.55-0.269-0.856-0.27h-6.087c-0.104 0-0.205-0.032-0.289-0.092-0.085-0.06-0.149-0.145-0.183-0.242l-2.185-6.193c-0.107-0.287-0.299-0.533-0.55-0.707-0.251-0.175-0.549-0.268-0.855-0.268s-0.604 0.093-0.855 0.268c-0.251 0.174-0.443 0.42-0.55 0.707l-5e-3 0.016-2.18 6.177c-0.034 0.097-0.098 0.182-0.182 0.242-0.085 0.059-0.186 0.092-0.289 0.092h-6.089c-0.308 0-0.609 0.094-0.861 0.271-0.253 0.177-0.445 0.427-0.55 0.717-0.105 0.289-0.119 0.604-0.038 0.902 0.08 0.297 0.25 0.563 0.486 0.761l5.184 4.3c0.078 0.064 0.134 0.15 0.161 0.247 0.028 0.097 0.026 0.2-6e-3 0.296l-2.178 6.531c-0.101 0.302-0.103 0.628-6e-3 0.931s0.288 0.568 0.545 0.755c0.258 0.188 0.568 0.289 0.886 0.288 0.318 0 0.628-0.102 0.885-0.29l5.346-3.92c0.086-0.063 0.189-0.097 0.296-0.097 0.106 0 0.209 0.034 0.295 0.097l5.344 3.919c0.257 0.189 0.567 0.291 0.885 0.292 0.319 1e-3 0.629-0.1 0.887-0.288 0.258-0.187 0.449-0.452 0.546-0.755 0.097-0.304 0.095-0.63-6e-3 -0.932l-2.178-6.535c-0.032-0.096-0.034-0.199-6e-3 -0.296 0.027-0.097 0.083-0.183 0.161-0.247l5.194-4.306c0.233-0.2 0.4-0.466 0.478-0.763 0.077-0.297 0.061-0.61-0.045-0.898z" fill="#fff" fill-opacity=".4"/>
</g>
<rect x="176" y="274" width="36" height="36" fill="#03CEA4"/>
<g clip-path="url(#a)">
<path d="m205.56 288.73c-0.107-0.287-0.299-0.535-0.55-0.71s-0.55-0.269-0.856-0.27h-6.087c-0.104 0-0.205-0.032-0.289-0.092-0.085-0.06-0.149-0.145-0.183-0.242l-2.185-6.193c-0.107-0.287-0.299-0.533-0.55-0.707-0.251-0.175-0.549-0.268-0.855-0.268s-0.604 0.093-0.855 0.268c-0.251 0.174-0.443 0.42-0.55 0.707l-5e-3 0.016-2.18 6.177c-0.034 0.097-0.098 0.182-0.182 0.242-0.085 0.059-0.186 0.092-0.289 0.092h-6.089c-0.308 0-0.609 0.094-0.861 0.271-0.253 0.177-0.445 0.427-0.55 0.717-0.105 0.289-0.119 0.604-0.038 0.902 0.08 0.297 0.25 0.563 0.486 0.761l5.184 4.3c0.078 0.064 0.134 0.15 0.161 0.247 0.028 0.097 0.026 0.2-6e-3 0.296l-2.178 6.531c-0.101 0.302-0.103 0.628-6e-3 0.931s0.288 0.568 0.545 0.755c0.258 0.188 0.568 0.289 0.886 0.288 0.318 0 0.628-0.102 0.885-0.29l5.346-3.92c0.086-0.063 0.189-0.097 0.296-0.097 0.106 0 0.209 0.034 0.295 0.097l5.344 3.919c0.257 0.189 0.567 0.291 0.885 0.292 0.319 1e-3 0.629-0.1 0.887-0.288 0.258-0.187 0.449-0.452 0.546-0.755 0.097-0.304 0.095-0.63-6e-3 -0.932l-2.178-6.535c-0.032-0.096-0.034-0.199-6e-3 -0.296 0.027-0.097 0.083-0.183 0.161-0.247l5.194-4.306c0.233-0.2 0.4-0.466 0.478-0.763 0.077-0.297 0.061-0.61-0.045-0.898z" fill="#fff" fill-opacity=".4"/>
</g>
<path d="m6.352 332.61c-2.16 0-3.856-1.712-3.856-3.968s1.696-3.968 3.856-3.968c1.68 0 3.056 0.896 3.536 2.704l1.664-0.48c-0.608-2.368-2.672-3.84-5.2-3.84-3.12 0-5.584 2.464-5.584 5.584 0 3.136 2.464 5.584 5.584 5.584 2.528 0 4.608-1.456 5.2-3.968l-1.664-0.352c-0.48 1.808-1.856 2.704-3.536 2.704zm8.8885 1.392v-11.52h-1.664v11.52h1.664zm3.4835-11.36c-0.624 0-1.072 0.48-1.072 1.04 0 0.592 0.448 1.024 1.072 1.024 0.608 0 1.056-0.432 1.056-1.024 0-0.56-0.448-1.04-1.056-1.04zm0.832 11.36v-7.936h-1.664v7.936h1.664zm6.1495-1.312c-1.472 0-2.56-1.04-2.56-2.656 0-1.568 1.088-2.656 2.56-2.656 1.056 0 1.968 0.544 2.272 1.712l1.6-0.464c-0.496-1.696-2.08-2.784-3.872-2.784-2.272 0-4.192 1.712-4.192 4.192 0 2.512 1.92 4.192 4.192 4.192 1.84 0 3.44-1.088 3.872-2.8l-1.536-0.4c-0.384 1.152-1.28 1.664-2.336 1.664zm13.794 1.312-4.624-4.096 4.16-3.84h-2.128l-3.312 2.992h-0.496v-6.576h-1.664v11.52h1.664v-3.296h0.48l3.664 3.296h2.256zm10.032-1.776c-0.416 0.272-0.928 0.432-1.344 0.432-0.784 0-1.312-0.48-1.312-1.472v-3.744h2.72v-1.376h-2.72v-2.464h-1.664v2.464h-1.712v1.376h1.712v3.856c0 1.968 1.152 2.928 2.864 2.928 0.672 0 1.216-0.16 1.968-0.608l-0.512-1.392zm5.2379-6.336c-2.352 0-4.272 1.68-4.272 4.144s1.92 4.16 4.272 4.16c2.336 0 4.24-1.696 4.24-4.16s-1.904-4.144-4.24-4.144zm0 6.864c-1.392 0-2.64-1.072-2.64-2.72s1.248-2.72 2.64-2.72c1.36 0 2.624 1.072 2.624 2.72s-1.264 2.72-2.624 2.72zm14.745-6.784c-1.376 0-2.384 0.736-3.024 1.792v-1.696h-1.664v7.936h1.664v-2.8c0-2.176 0.992-3.584 3.008-3.584 0.144 0 0.336 0 0.464 0.016l0.112-1.6c-0.208-0.064-0.368-0.064-0.56-0.064zm9.6501 0.096h-1.664v0.912c-0.688-0.72-1.68-1.136-2.88-1.136-2.08 0-3.936 1.696-3.936 4.192 0 2.512 1.856 4.192 3.936 4.192 1.2 0 2.192-0.416 2.88-1.136v0.912h1.664v-7.936zm-4.272 6.688c-1.456 0-2.592-1.04-2.592-2.72 0-1.664 1.136-2.72 2.592-2.72 1.312 0 2.608 1.056 2.608 2.72 0 1.68-1.296 2.72-2.608 2.72zm11.561-0.528c-0.416 0.272-0.928 0.432-1.344 0.432-0.784 0-1.312-0.48-1.312-1.472v-3.744h2.72v-1.376h-2.72v-2.464h-1.664v2.464h-1.712v1.376h1.712v3.856c0 1.968 1.152 2.928 2.864 2.928 0.672 0 1.216-0.16 1.968-0.608l-0.512-1.392zm9.0459-2.368c-0.08-2.384-1.84-4.016-3.968-4.016-2.24 0-4.112 1.68-4.112 4.208 0 2.512 1.888 4.176 4.048 4.176 1.76 0 3.168-0.832 3.8239-2.496l-1.4879-0.32c-0.56 1.12-1.456 1.376-2.336 1.376-1.168 0-2.24-0.88-2.4-2.352h6.432v-0.576zm-3.968-2.544c1.088 0 2 0.64 2.256 1.936h-4.672c0.256-1.28 1.376-1.936 2.416-1.936zm17.459-1.264h-1.856l-2.544 5.728-2.48-5.728h-1.856l3.424 7.76-1.296 2.912h1.856l4.752-10.672zm4.826-0.16c-2.352 0-4.272 1.68-4.272 4.144s1.92 4.16 4.272 4.16c2.336 0 4.24-1.696 4.24-4.16s-1.904-4.144-4.24-4.144zm0 6.864c-1.392 0-2.64-1.072-2.64-2.72s1.248-2.72 2.64-2.72c1.36 0 2.624 1.072 2.624 2.72s-1.264 2.72-2.624 2.72zm13.495-6.688h-1.664v3.664c0 2-0.928 2.96-2.352 2.96-1.152 0-1.904-0.88-1.904-2.176v-4.448h-1.664v4.784c0 2 1.264 3.376 3.184 3.376 1.168 0 2.096-0.432 2.736-1.2v0.976h1.664v-7.936zm7.218-0.096c-1.376 0-2.384 0.736-3.024 1.792v-1.696h-1.664v7.936h1.664v-2.8c0-2.176 0.992-3.584 3.008-3.584 0.144 0 0.336 0 0.464 0.016l0.112-1.6c-0.208-0.064-0.368-0.064-0.56-0.064zm13.376 3.888c-0.08-2.384-1.84-4.016-3.968-4.016-2.24 0-4.112 1.68-4.112 4.208 0 2.512 1.888 4.176 4.048 4.176 1.76 0 3.168-0.832 3.824-2.496l-1.488-0.32c-0.56 1.12-1.456 1.376-2.336 1.376-1.168 0-2.24-0.88-2.4-2.352h6.432v-0.576zm-3.968-2.544c1.088 0 2 0.64 2.256 1.936h-4.672c0.256-1.28 1.376-1.936 2.416-1.936zm10.138 2.8 2.848-4.064h-2l-2.08 3.008-2.08-3.008h-1.984l2.848 4.064-2.848 3.888h1.984l2.08-2.864 2.08 2.864h2l-2.848-3.888zm9.248-4.272c-1.2 0-2.192 0.416-2.88 1.136v-0.912h-1.664v10.656h1.664v-3.632c0.688 0.72 1.68 1.136 2.88 1.136 2.08 0 3.936-1.68 3.936-4.192 0-2.496-1.856-4.192-3.936-4.192zm-0.272 6.912c-1.312 0-2.608-1.04-2.608-2.72 0-1.664 1.296-2.72 2.608-2.72 1.456 0 2.592 1.056 2.592 2.72 0 1.68-1.136 2.72-2.592 2.72zm13.432-2.896c-0.08-2.384-1.84-4.016-3.968-4.016-2.24 0-4.112 1.68-4.112 4.208 0 2.512 1.888 4.176 4.048 4.176 1.76 0 3.168-0.832 3.824-2.496l-1.488-0.32c-0.56 1.12-1.456 1.376-2.336 1.376-1.168 0-2.24-0.88-2.4-2.352h6.432v-0.576zm-3.968-2.544c1.088 0 2 0.64 2.256 1.936h-4.672c0.256-1.28 1.376-1.936 2.416-1.936zm10.499-1.344c-1.376 0-2.384 0.736-3.024 1.792v-1.696h-1.664v7.936h1.664v-2.8c0-2.176 0.992-3.584 3.008-3.584 0.144 0 0.336 0 0.464 0.016l0.112-1.6c-0.208-0.064-0.368-0.064-0.56-0.064zm2.99-3.328c-0.624 0-1.072 0.48-1.072 1.04 0 0.592 0.448 1.024 1.072 1.024 0.608 0 1.056-0.432 1.056-1.024 0-0.56-0.448-1.04-1.056-1.04zm0.832 11.36v-7.936h-1.664v7.936h1.664zm10.038-4.144c-0.08-2.384-1.84-4.016-3.968-4.016-2.24 0-4.112 1.68-4.112 4.208 0 2.512 1.888 4.176 4.048 4.176 1.76 0 3.168-0.832 3.824-2.496l-1.488-0.32c-0.56 1.12-1.456 1.376-2.336 1.376-1.168 0-2.24-0.88-2.4-2.352h6.432v-0.576zm-3.968-2.544c1.088 0 2 0.64 2.256 1.936h-4.672c0.256-1.28 1.376-1.936 2.416-1.936zm10.226-1.472c-1.184 0-2.112 0.432-2.752 1.2v-0.976h-1.664v7.936h1.664v-3.664c0-2 0.944-2.96 2.368-2.96 1.136 0 1.888 0.864 1.888 2.16v4.464h1.68v-4.8c0-1.984-1.28-3.36-3.184-3.36zm9.01 6.848c-1.472 0-2.56-1.04-2.56-2.656 0-1.568 1.088-2.656 2.56-2.656 1.056 0 1.968 0.544 2.272 1.712l1.6-0.464c-0.496-1.696-2.08-2.784-3.872-2.784-2.272 0-4.192 1.712-4.192 4.192 0 2.512 1.92 4.192 4.192 4.192 1.84 0 3.44-1.088 3.872-2.8l-1.536-0.4c-0.384 1.152-1.28 1.664-2.336 1.664zm13.122-2.832c-0.08-2.384-1.84-4.016-3.968-4.016-2.24 0-4.112 1.68-4.112 4.208 0 2.512 1.888 4.176 4.048 4.176 1.76 0 3.168-0.832 3.824-2.496l-1.488-0.32c-0.56 1.12-1.456 1.376-2.336 1.376-1.168 0-2.24-0.88-2.4-2.352h6.432v-0.576zm-3.968-2.544c1.088 0 2 0.64 2.256 1.936h-4.672c0.256-1.28 1.376-1.936 2.416-1.936zm20.724-1.248h-1.664l-1.808 5.52-1.872-5.52h-1.312l-1.872 5.52-1.808-5.52h-1.664l2.656 7.968h1.52l1.824-5.344 1.824 5.344h1.52l2.656-7.968zm2.453-3.424c-0.624 0-1.072 0.48-1.072 1.04 0 0.592 0.448 1.024 1.072 1.024 0.608 0 1.056-0.432 1.056-1.024 0-0.56-0.448-1.04-1.056-1.04zm0.832 11.36v-7.936h-1.664v7.936h1.664zm7.414-1.776c-0.416 0.272-0.928 0.432-1.344 0.432-0.784 0-1.312-0.48-1.312-1.472v-3.744h2.72v-1.376h-2.72v-2.464h-1.664v2.464h-1.712v1.376h1.712v3.856c0 1.968 1.152 2.928 2.864 2.928 0.672 0 1.216-0.16 1.968-0.608l-0.512-1.392zm6.273-6.384c-1.184 0-2.112 0.432-2.752 1.2v-4.56h-1.664v11.52h1.664v-3.664c0-2 0.944-2.96 2.368-2.96 1.136 0 1.888 0.864 1.888 2.16v4.464h1.68v-4.8c0-1.984-1.28-3.36-3.184-3.36zm18.69 8.16-3.872-4.288c2.032-0.112 3.376-1.36 3.376-3.2 0-1.936-1.472-3.232-3.68-3.232h-5.04v10.72h1.712v-4.272h1.552l3.824 4.272h2.128zm-7.504-5.824v-3.344h3.328c1.184 0 1.968 0.672 1.968 1.68 0 0.992-0.784 1.664-1.968 1.664h-3.328zm16.18 1.68c-0.08-2.384-1.84-4.016-3.968-4.016-2.24 0-4.112 1.68-4.112 4.208 0 2.512 1.888 4.176 4.048 4.176 1.76 0 3.168-0.832 3.824-2.496l-1.488-0.32c-0.56 1.12-1.456 1.376-2.336 1.376-1.168 0-2.24-0.88-2.4-2.352h6.432v-0.576zm-3.968-2.544c1.088 0 2 0.64 2.256 1.936h-4.672c0.256-1.28 1.376-1.936 2.416-1.936zm13.144-1.264h-1.808l-2.496 5.968-2.496-5.968h-1.808l3.408 7.952h1.776l3.424-7.952zm2.439-3.408c-0.624 0-1.072 0.48-1.072 1.04 0 0.592 0.448 1.024 1.072 1.024 0.608 0 1.056-0.432 1.056-1.024 0-0.56-0.448-1.04-1.056-1.04zm0.832 11.36v-7.936h-1.664v7.936h1.664zm10.038-4.144c-0.08-2.384-1.84-4.016-3.968-4.016-2.24 0-4.112 1.68-4.112 4.208 0 2.512 1.888 4.176 4.048 4.176 1.76 0 3.168-0.832 3.823-2.496l-1.487-0.32c-0.56 1.12-1.456 1.376-2.336 1.376-1.168 0-2.24-0.88-2.4-2.352h6.432v-0.576zm-3.968-2.544c1.088 0 2 0.64 2.256 1.936h-4.672c0.256-1.28 1.376-1.936 2.416-1.936zm16.707-1.248h-1.664l-1.808 5.52-1.872-5.52h-1.312l-1.872 5.52-1.808-5.52h-1.664l2.656 7.968h1.52l1.824-5.344 1.824 5.344h1.52l2.656-7.968zm0.822 5.808c0.208 1.6 1.728 2.352 3.504 2.352 1.984 0 3.344-0.896 3.344-2.56 0-1.12-0.784-1.872-2.064-2.144l-1.888-0.416c-0.704-0.16-0.96-0.448-0.96-0.896 0-0.56 0.432-1.04 1.408-1.04 1.024 0 1.68 0.528 1.808 1.296l1.584-0.336c-0.288-1.328-1.52-2.288-3.344-2.288-1.904 0-3.136 1.04-3.136 2.512 0 1.12 0.784 1.856 2.16 2.16l1.728 0.352c0.736 0.16 1.072 0.464 1.072 0.944 0 0.624-0.608 1.056-1.568 1.056-1.04 0-1.872-0.4-1.984-1.344l-1.664 0.352zm13.15-6.032c-1.184 0-2.112 0.432-2.752 1.2v-4.56h-1.664v11.52h1.664v-3.664c0-2 0.944-2.96 2.368-2.96 1.136 0 1.888 0.864 1.888 2.16v4.464h1.68v-4.8c0-1.984-1.28-3.36-3.184-3.36zm13.282 0.224h-1.664v0.912c-0.688-0.72-1.68-1.136-2.88-1.136-2.08 0-3.936 1.696-3.936 4.192 0 2.512 1.856 4.192 3.936 4.192 1.2 0 2.192-0.416 2.88-1.136v0.912h1.664v-7.936zm-4.272 6.688c-1.456 0-2.592-1.04-2.592-2.72 0-1.664 1.136-2.72 2.592-2.72 1.312 0 2.608 1.056 2.608 2.72 0 1.68-1.296 2.72-2.608 2.72zm14.857 1.248-4.624-4.096 4.16-3.84h-2.128l-3.312 2.992h-0.496v-6.576h-1.664v11.52h1.664v-3.296h0.48l3.664 3.296h2.256zm8.25-4.144c-0.08-2.384-1.84-4.016-3.968-4.016-2.24 0-4.112 1.68-4.112 4.208 0 2.512 1.888 4.176 4.048 4.176 1.76 0 3.168-0.832 3.824-2.496l-1.488-0.32c-0.56 1.12-1.456 1.376-2.336 1.376-1.168 0-2.24-0.88-2.4-2.352h6.432v-0.576zm-3.968-2.544c1.088 0 2 0.64 2.256 1.936h-4.672c0.256-1.28 1.376-1.936 2.416-1.936z" fill="#3772FF"/>
<defs>
<clipPath id="e">
<rect transform="translate(6 280)" width="24" height="24" fill="#fff"/>
</clipPath>
<clipPath id="d">
<rect transform="translate(50 280)" width="24" height="24" fill="#fff"/>
</clipPath>
<clipPath id="c">
<rect transform="translate(94 280)" width="24" height="24" fill="#fff"/>
</clipPath>
<clipPath id="b">
<rect transform="translate(138 280)" width="24" height="24" fill="#fff"/>
</clipPath>
<clipPath id="a">
<rect transform="translate(182 280)" width="24" height="24" fill="#fff"/>
</clipPath>
</defs>
</svg>
