<?xml version="1.0" encoding="UTF-8"?>
<svg fill="none" viewBox="0 0 292 378" xmlns="http://www.w3.org/2000/svg">
<g filter="url(#i)">
<rect x="34" y="2" width="174" height="138" rx="6" fill="#fff"/>
<rect x="34.5" y="2.5" width="173" height="137" rx="5.5" stroke="#E6E6EA"/>
</g>
<mask id="f" x="44" y="12" width="36" height="36" style="mask-type:alpha" maskUnits="userSpaceOnUse">
<rect x="44" y="12" width="36" height="36" rx="2.0769" fill="url(#c)"/>
</mask>
<g mask="url(#f)">
<rect x="44" y="12" width="36" height="36" rx="2.0769" fill="#E8E8E9"/>
<path d="m58.094 42.699h7.2277v-2.6612h-7.2277v2.6612z" fill="#76BEC9"/>
<path d="m64.608 36.901h-5.8721s0.1489 3.708-0.5705 4.7844h7.0875c-0.7193-1.0764-0.6449-4.7844-0.6449-4.7844z" fill="#F4AE7F"/>
<path d="m64.752 39.854c-0.1734-1.382-0.1434-2.9325-0.1431-2.9519-3e-4 0.0197-0.03 1.5699 0.1434 2.9516 0 3e-4 0 0-3e-4 3e-4zm-6.0894-0.1511c0.1309-1.3372 0.0751-2.7737 0.0741-2.8008 1e-3 0.0271 0.0571 1.4636-0.0741 2.8008z" fill="#F7D9D5"/>
<path d="m61.815 40.523h-0.0603c-1.001-0.01-2.2567-0.2804-3.0927-0.8215 0.1312-1.3372 0.0751-2.7736 0.0741-2.8007v-3e-4h5.8722v3e-4c-3e-4 0.0193-0.0303 1.5699 0.1431 2.9519-0.9131 0.3867-1.8632 0.6703-2.9364 0.6703z" fill="#ED966F"/>
<path d="m73.054 44.255-8.5237-3.053h-5.6517l-8.5239 3.053s-2.9844 0.9824-2.6357 5.7452h27.971c0.4074-5.0558-2.6363-5.7452-2.6363-5.7452z" fill="#F4AE7F"/>
<path d="m73.054 44.255-6.9654-2.4952-4.3796 3.0541-4.2778-3.0937-7.0765 2.5348s-2.9844 0.9824-2.6357 5.7452h27.971c0.4074-5.0558-2.6363-5.7452-2.6363-5.7452z" fill="#274596"/>
<path d="m68.139 29.614c-0.2024 1.2518 0.1492 2.3647 0.7838 2.4839 0.6346 0.1202 1.3123-0.7964 1.5138-2.0488 0.2004-1.2515-0.1499-2.364-0.7851-2.4839-0.6343-0.1202-1.3114 0.797-1.5125 2.0488z" fill="#F4AE7F"/>
<path d="m68.903 29.276s0.0097-0.07 0.0345-0.1844c0.0242-0.1157 0.0748-0.2778 0.1531-0.4502 0.0793-0.1673 0.2079-0.3597 0.3687-0.3703 0.0399-0.0023 0.0812 0.0048 0.1221 0.0177l0.0622 0.0319 0.0448 0.0374c0.0658 0.0632 0.1186 0.1608 0.1531 0.273 0.038 0.1099 0.0619 0.2333 0.0745 0.3555 0.0109 0.1221 0.0183 0.2497 0.0042 0.3587-0.0194 0.1253-0.0255 0.2549-0.0481 0.3635-0.0216 0.1115-0.0415 0.2166-0.0606 0.3139-0.0257 0.0974-0.0454 0.1879-0.0631 0.2688-0.0171 0.0816-0.0419 0.1489-0.0567 0.2066-0.0323 0.1144-0.0487 0.1818-0.0487 0.1818s0.0322-0.0574 0.0854-0.1618c0.0245-0.0538 0.0606-0.1151 0.0915-0.1924 0.0316-0.0764 0.0684-0.1628 0.1048-0.2591 0.0351-0.0977 0.066-0.2089 0.0999-0.3262 0.0354-0.1173 0.0515-0.2366 0.0767-0.3639 0.0242-0.1447 0.0277-0.2845 0.0151-0.4286-0.0116-0.1421-0.0364-0.2852-0.0809-0.4238-0.046-0.1364-0.1166-0.2698-0.2214-0.3671-0.0235-0.0242-0.0583-0.0458-0.0902-0.0651-0.0351-0.0184-0.0445-0.019-0.087-0.0355-0.0629-0.0145-0.1267-0.02-0.1912-0.0093-0.1318 0.0209-0.2407 0.1189-0.3116 0.2208-0.0732 0.1024-0.117 0.2127-0.1505 0.3142-0.0648 0.2053-0.0783 0.3829-0.0854 0.5041-0.0042 0.1224 0.0048 0.1898 0.0048 0.1898z" fill="#F39870"/>
<path d="m68.904 29.275s-0.0586-0.1341 0.3594-0.165c0 0 0.467 0.0864 0.1924 0.7094-0.0593 0.134-0.1099 0.2726-0.1399 0.4196-0.0416 0.2091 0.0329 0.4924-0.0789 0.6778-0.1448 0.2397-0.5125 0.1034-0.5344-0.1705-0.0168-0.2095 0.1988-0.5692 0.2975-0.7184 0 0 0.3-0.4548-0.0961-0.7529z" fill="#F39870"/>
<path d="m68.702 30.72-0.0326 0.0339c-0.0196 0.0242-0.0419 0.0638-0.0612 0.1163-0.0116 0.0265-0.0158 0.0561-0.0213 0.089-0.0058 0.0329-0.0135 0.0683-0.0077 0.1038 0.0026 0.0351 0.0032 0.0738 0.0097 0.1115 0.0074 0.0357 0.0222 0.0689 0.0345 0.1041 0.0154 0.0325 0.0261 0.0702 0.047 0.095l0.0619 0.0722c0.039 0.0494 0.0848 0.0774 0.1276 0.0909 0.0825 0.0361 0.1425 0.0352 0.1425 0.0352s-0.0236-0.0751-0.0651-0.1515l-0.0352-0.059-0.0296-0.0693-0.0345-0.0657-0.0271-0.0697c-0.0245-0.0431-0.0351-0.0902-0.0506-0.1366l-0.018-0.069-0.0155-0.068c-0.0167-0.0867-0.0248-0.1637-0.0248-0.1631z" fill="#F39870"/>
<path d="m55.373 29.614c0.2024 1.2518-0.1492 2.3647-0.7838 2.4839-0.6346 0.1202-1.3124-0.7964-1.5138-2.0488-0.2005-1.2515 0.1499-2.364 0.7851-2.4839 0.6343-0.1202 1.3114 0.797 1.5125 2.0488z" fill="#F4AE7F"/>
<path d="m54.609 29.276s-0.0097-0.07-0.0345-0.1844c-0.0245-0.1157-0.0748-0.2778-0.1531-0.4502-0.0796-0.1673-0.2079-0.3597-0.3687-0.3703-0.0399-0.0023-0.0809 0.0048-0.1221 0.0177l-0.0622 0.0319-0.0448 0.0374c-0.0658 0.0632-0.1186 0.1608-0.1531 0.273-0.0384 0.1099-0.0622 0.2333-0.0748 0.3555-0.0106 0.1221-0.018 0.2497-0.0039 0.3587 0.0194 0.1253 0.0252 0.2549 0.0481 0.3635 0.0216 0.1115 0.0415 0.2166 0.0602 0.3139 0.0258 0.0974 0.0458 0.1879 0.0635 0.2688 0.0171 0.0816 0.0419 0.1489 0.0564 0.2066 0.0329 0.1144 0.049 0.1818 0.049 0.1818s-0.0329-0.0574-0.0854-0.1618c-0.0245-0.0538-0.0606-0.1151-0.0915-0.1924-0.0319-0.0764-0.0683-0.1628-0.1048-0.2591-0.0348-0.0977-0.066-0.2089-0.0999-0.3262-0.0354-0.1173-0.0515-0.2366-0.0767-0.3639-0.0241-0.1447-0.0277-0.2845-0.0151-0.4286 0.0116-0.1421 0.0364-0.2852 0.0809-0.4238 0.0457-0.1364 0.1166-0.2698 0.2214-0.3671 0.0235-0.0242 0.0583-0.0458 0.0905-0.0651 0.0345-0.0184 0.0439-0.019 0.0867-0.0355 0.0629-0.0145 0.1267-0.02 0.1912-0.0093 0.1318 0.0209 0.2407 0.1189 0.3116 0.2208 0.0732 0.1024 0.117 0.2127 0.1502 0.3142 0.0651 0.2053 0.0786 0.3829 0.0857 0.5041 0.0042 0.1224-0.0048 0.1898-0.0048 0.1898z" fill="#F39870"/>
<path d="m54.609 29.275s0.0586-0.1341-0.3594-0.165c0 0-0.467 0.0864-0.1924 0.7094 0.059 0.134 0.1099 0.2726 0.1399 0.4196 0.0415 0.2091-0.0329 0.4924 0.0789 0.6778 0.1447 0.2397 0.5125 0.1034 0.5341-0.1705 0.0174-0.2095-0.1986-0.5692-0.2972-0.7184 0 0-0.3-0.4548 0.0961-0.7529z" fill="#F39870"/>
<path d="m54.81 30.72 0.0322 0.0339c0.0207 0.0242 0.0426 0.0638 0.0619 0.1163 0.0116 0.0265 0.0155 0.0561 0.0216 0.089 0.0052 0.0329 0.0132 0.0683 0.0078 0.1038-0.0029 0.0351-0.0036 0.0738-0.0104 0.1115-7e-3 0.0357-0.0219 0.0689-0.0338 0.1041-0.0161 0.0325-0.0264 0.0702-0.0474 0.095l-0.0619 0.0722c-0.0389 0.0494-0.0847 0.0774-0.1276 0.0909-0.0825 0.0361-0.1424 0.0352-0.1424 0.0352s0.0235-0.0751 0.0651-0.1515l0.0351-0.059 0.03-0.0693 0.0341-0.0657 0.0271-0.0697c0.0245-0.0431 0.0351-0.0902 0.0506-0.1366l0.0181-0.069 0.0157-0.068c0.0165-0.0867 0.0242-0.1637 0.0242-0.1631z" fill="#F39870"/>
<path d="m61.834 16.108v-0.0016c-0.0335 0-0.0667 6e-4 -0.0996 6e-4 -0.0345 0-0.067-6e-4 -0.1006-6e-4v0.0013c-5.0461 0.0444-7.881 1.4815-7.1065 10.68l0.8689 7.3267s0.1547 1.3365 1.6205 2.1364l2.7411 2.0318s1.3027 0.5785 1.9779 0.5211c0.6742 0.0574 1.9769-0.5214 1.9769-0.5214l2.7408-2.0321c1.4654-0.7999 1.6201-2.1365 1.6201-2.1365l0.915-7.1571c0.7738-9.1982-2.1091-10.804-7.1545-10.848z" fill="#F4AE7F"/>
<path d="m58.016 27.389c0.0033 0.4773 0.2714 0.8637 0.5992 0.8618 0.3284-2e-3 0.592-0.391 0.5888-0.8692-0.0029-0.478-0.271-0.8641-0.5988-0.8625-0.3281 0.0019-0.5921 0.3913-0.5892 0.8699z" fill="#2A1811"/>
<path d="m58.375 27.114c0 0.1424-0.1154 0.2575-0.2568 0.2575-0.1425 0-0.2575-0.1151-0.2575-0.2575 0-0.1418 0.115-0.2569 0.2575-0.2569 0.1414 0 0.2568 0.1151 0.2568 0.2569z" fill="#fff"/>
<path d="m65.496 27.389c-0.0029 0.4773-0.2714 0.8637-0.5991 0.8618-0.3281-2e-3 -0.5921-0.391-0.5889-0.8692 0.0029-0.478 0.2714-0.8641 0.5992-0.8625 0.3281 0.0019 0.5917 0.3913 0.5888 0.8699z" fill="#2A1811"/>
<path d="m65.138 27.114c0 0.1424 0.1154 0.2575 0.2569 0.2575 0.1424 0 0.2575-0.1151 0.2575-0.2575 0-0.1418-0.1151-0.2569-0.2575-0.2569-0.1415 0-0.2569 0.1151-0.2569 0.2569z" fill="#fff"/>
<path d="m62.63 32.044c-0.1357 0.1315-0.3001 0.2349-0.4764 0.3145-0.1772 0.0803-0.3696 0.1338-0.5704 0.1554-0.2011 0.0293-0.4103 0.0129-0.6143-0.0316-0.1035-0.019-0.2037-0.0509-0.3017-0.0899-0.0992-0.0364-0.1901-0.089-0.2842-0.1373l-0.1315-0.0674-0.0129-0.1892c-0.0139-0.1979-0.0158-0.3741-0.0094-0.5582 3e-4 -0.183 0.0226-0.3625 0.0371-0.5434 0.0151-0.1811 0.0487-0.3583 0.0783-0.5369 0.0258-0.1789 0.0703-0.3539 0.1147-0.5289 0.0845-0.3506 0.2079-0.691 0.3446-1.0239 0.0606-0.1686 0.1511-0.3278 0.2346-0.4876 0.0861-0.1589 0.176-0.3156 0.2765-0.4667-0.0058 0.1843-0.0222 0.3629-0.0422 0.5392-0.0193 0.1766-0.0493 0.3487-0.0648 0.5237-0.0154 0.1753-0.0399 0.3468-0.0654 0.5179-0.0255 0.1712-0.0351 0.3449-0.059 0.5151-0.0242 0.1701-0.0461 0.3403-0.0622 0.5108-0.0142 0.1705-0.0461 0.3394-0.0557 0.5095-0.0162 0.1696-0.0371 0.3397-0.0481 0.508-0.0148 0.1672-0.027 0.3426-0.0348 0.4963l-0.1444-0.2562c0.0645 0.0383 0.1225 0.0921 0.1899 0.1266 0.0667 0.0365 0.1324 0.0777 0.204 0.1061 0.0693 0.0364 0.145 0.0544 0.2198 0.0815 0.077 0.0145 0.154 0.0416 0.2353 0.0522 0.0802 0.0165 0.1634 0.021 0.2475 0.0258 0.0847 0.0064 0.1705 0.0068 0.2581 0.0035 0.1744-0.0087 0.3533-0.0293 0.537-0.0689z" fill="#EB946F"/>
<path d="m59.854 25.625c-0.0548 0.223-0.2672 0.3558-0.4706 0.3187-0.8251-0.1511-1.6537-0.0738-2.4007 0.2011-0.1847 0.0671-0.4087-0.0315-0.5128-0.2359-0.1038-0.2037-0.0161-0.4525 0.2085-0.5356 0.8837-0.3284 1.8596-0.4225 2.8275-0.2504 0.2456 0.0435 0.4035 0.28 0.3481 0.5021z" fill="#63322D"/>
<path d="m63.429 25.625c0.0548 0.223 0.2675 0.3558 0.4708 0.3187 0.8248-0.1511 1.6534-0.0738 2.4008 0.2011 0.1843 0.0671 0.4083-0.0315 0.5124-0.2359 0.1041-0.2037 0.0168-0.4525-0.2082-0.5356-0.8837-0.3284-1.8596-0.4225-2.8274-0.2504-0.2459 0.0435-0.4035 0.28-0.3484 0.5021z" fill="#63322D"/>
<path d="m61.708 44.814-0.574-2.9361-3.0409-1.8396-0.4431 1.8512 4.058 2.9245z" fill="#76BEC9"/>
<path d="m61.134 41.878-1.4381 2.6341-3.5146-2.3882 1.9119-2.0855 3.0408 1.8396z" fill="#C2EAE4"/>
<path d="m61.709 44.814 0.5743-2.9361 3.0408-1.8396 0.4429 1.8512-4.058 2.9245z" fill="#76BEC9"/>
<path d="m62.283 41.878 1.4377 2.6341 3.5146-2.3882-1.9115-2.0855-3.0408 1.8396z" fill="#C2EAE4"/>
<path d="m61.957 35.119 0.0107 0.0352-0.0103-0.0352h-4e-4l0.0107 0.0352-0.0103-0.0352c-0.0055 0.0017-0.1315 0.0374-0.3236 0.0374-0.0899 0-0.1947-8e-3 -0.3088-0.0303-0.0873-0.0171-0.1721 0.04-0.1892 0.1273-0.017 0.0874 0.04 0.1718 0.1273 0.1889 0.1367 0.0267 0.2621 0.0364 0.3707 0.0364 0.2472-3e-4 0.4064-0.0483 0.4177-0.0516 0.085-0.0261 0.1331-0.1163 0.107-0.2014s-0.1164-0.1328-0.2015-0.1067z" fill="#EB8876"/>
<path d="m60.049 33.804 0.4132 0.8112s1.8432 1.0359 3.144-0.7706c0 0-2.0227 0.0941-3.5572-0.0406z" fill="#fff"/>
<path d="m67.75 23.604s0.6597 0.4139 0.5144 1.9983l-0.069 3.1426h0.545s-0.0383-1.1905 0.9134-1.1799l0.4712-7.0259s0.3706-2.8043-2.0408-4.4322c0 0-2.0207-0.5327-2.587-2.1877 0 0-0.1695 0.9195 0 1.4709 0 0-1.6263-0.4596-1.188-2.3901 0 0-1.3004 0.5244-1.3088 1.8387 0 0-0.0587-1.5631-0.9946-1.8387 0 0 0.3429 1.1947-0.7103 1.6547 0 0-4.5173-0.1838-5.8654 2.0227 0 0-2.4404 1.1995-2.0407 6.3069l0.4711 4.5807s0.6388 0.3036 1.0755 1.1764h0.4941v-4.1569s-0.0264-0.9805 0.7532-0.9805c0 0-0.7532-3.6776 1.4687-4.2294 0 0 3.326-0.8889 4.1766 0.7738 0 0 0.1356-1.3471 4.2062-0.8276 0 0 2.5435 0.3603 1.7152 4.2832z" fill="#63322D"/>
</g>
<g clip-path="url(#x)">
<path d="m100.82 37.5-1.1025-3.63c-0.2175-0.7125-1.2225-0.7125-1.4325 0l-1.11 3.63h-3.3375c-0.7275 0-1.0275 0.9375-0.435 1.3575l2.73 1.95-1.0725 3.4575c-0.2175 0.6975 0.5925 1.26 1.17 0.8175l2.7675-2.1 2.7675 2.1075c0.578 0.4425 1.388-0.12 1.17-0.8175l-1.072-3.4575 2.73-1.95c0.592-0.4275 0.292-1.3575-0.435-1.3575h-3.338v-0.0075z" fill="#F8D056"/>
</g>
<g clip-path="url(#r)">
<path d="m118.82 37.5-1.102-3.63c-0.218-0.7125-1.223-0.7125-1.433 0l-1.11 3.63h-3.337c-0.728 0-1.028 0.9375-0.435 1.3575l2.73 1.95-1.073 3.4575c-0.217 0.6975 0.593 1.26 1.17 0.8175l2.768-2.1 2.767 2.1075c0.578 0.4425 1.388-0.12 1.17-0.8175l-1.072-3.4575 2.73-1.95c0.592-0.4275 0.292-1.3575-0.435-1.3575h-3.338v-0.0075z" fill="#F8D056"/>
</g>
<g clip-path="url(#q)">
<path d="m136.82 37.5-1.102-3.63c-0.218-0.7125-1.223-0.7125-1.433 0l-1.11 3.63h-3.337c-0.728 0-1.028 0.9375-0.435 1.3575l2.73 1.95-1.073 3.4575c-0.217 0.6975 0.593 1.26 1.17 0.8175l2.768-2.1 2.767 2.1075c0.578 0.4425 1.388-0.12 1.17-0.8175l-1.072-3.4575 2.73-1.95c0.592-0.4275 0.292-1.3575-0.435-1.3575h-3.338v-0.0075z" fill="#F8D056"/>
</g>
<g clip-path="url(#p)">
<path d="m154.82 37.5-1.102-3.63c-0.218-0.7125-1.223-0.7125-1.433 0l-1.11 3.63h-3.337c-0.728 0-1.028 0.9375-0.435 1.3575l2.73 1.95-1.073 3.4575c-0.217 0.6975 0.593 1.26 1.17 0.8175l2.768-2.1 2.767 2.1075c0.578 0.4425 1.388-0.12 1.17-0.8175l-1.072-3.4575 2.73-1.95c0.592-0.4275 0.292-1.3575-0.435-1.3575h-3.338v-0.0075z" fill="#F8D056"/>
</g>
<g clip-path="url(#o)">
<path d="m169.82 37.5-1.102-3.63c-0.218-0.7125-1.223-0.7125-1.433 0l-1.11 3.63h-3.337c-0.728 0-1.028 0.9375-0.435 1.3575l2.73 1.95-1.073 3.4575c-0.217 0.6975 0.593 1.26 1.17 0.8175l2.768-2.1 2.767 2.1075c0.578 0.4425 1.388-0.12 1.17-0.8175l-1.072-3.4575 2.73-1.95c0.592-0.4275 0.292-1.3575-0.435-1.3575h-3.338v-0.0075z" fill="#F8D056"/>
</g>
<path d="m95.418 15.62v6.006c0 0.896-0.588 1.526-1.47 1.526s-1.414-0.574-1.512-1.54l-2.24 0.448c0.28 1.918 1.666 3.15 3.752 3.15 1.134 0 2.044-0.336 2.73-0.994 0.7-0.672 1.05-1.54 1.05-2.59v-6.006h-2.31zm10.8 5.866c-0.014-1.12-0.378-2.016-1.064-2.702s-1.54-1.022-2.562-1.022c-1.05 0-1.932 0.35-2.6464 1.05-0.714 0.7-1.078 1.596-1.078 2.674 0 1.092 0.364 1.988 1.078 2.688 0.7144 0.686 1.5964 1.036 2.6324 1.036 1.638 0 2.884-0.742 3.486-2.198l-1.988-0.406c-0.294 0.546-0.798 0.812-1.498 0.812-0.742 0-1.33-0.518-1.512-1.358h5.152v-0.574zm-3.626-1.904c0.672 0 1.204 0.378 1.414 1.106h-2.898c0.21-0.686 0.826-1.106 1.484-1.106zm9.186-1.82c-0.882 0-1.596 0.294-2.156 0.882v-0.672h-2.24v7.028h2.24v-3.262c0-1.33 0.546-1.96 1.456-1.96 0.714 0 1.204 0.56 1.204 1.386v3.836h2.226v-4.312c0-0.882-0.252-1.582-0.756-2.114-0.49-0.546-1.148-0.812-1.974-0.812zm6.793-1.862c0-0.686-0.56-1.274-1.302-1.274s-1.288 0.56-1.288 1.274 0.546 1.246 1.288 1.246 1.302-0.532 1.302-1.246zm-0.182 2.072h-2.24v7.028h2.24v-7.028zm4.368-0.448c0-0.546 0.364-0.882 0.91-0.882 0.182 0 0.378 0.042 0.602 0.112l0.476-1.736c-0.448-0.196-0.91-0.294-1.386-0.294-1.694 0-2.828 1.064-2.828 2.702v0.546h-1.008v1.778h1.008v5.25h2.226v-5.25h1.932v-1.778h-1.932v-0.448zm5.058 0c0-0.546 0.364-0.882 0.91-0.882 0.182 0 0.378 0.042 0.602 0.112l0.476-1.736c-0.448-0.196-0.91-0.294-1.386-0.294-1.694 0-2.828 1.064-2.828 2.702v0.546h-1.008v1.778h1.008v5.25h2.226v-5.25h1.932v-1.778h-1.932v-0.448zm9.533 3.962c-0.014-1.12-0.378-2.016-1.064-2.702s-1.54-1.022-2.562-1.022c-1.05 0-1.932 0.35-2.646 1.05s-1.078 1.596-1.078 2.674c0 1.092 0.364 1.988 1.078 2.688 0.714 0.686 1.596 1.036 2.632 1.036 1.638 0 2.884-0.742 3.486-2.198l-1.988-0.406c-0.294 0.546-0.798 0.812-1.498 0.812-0.742 0-1.33-0.518-1.512-1.358h5.152v-0.574zm-3.626-1.904c0.672 0 1.204 0.378 1.414 1.106h-2.898c0.21-0.686 0.826-1.106 1.484-1.106zm9.453-1.708c-1.036 0-1.848 0.476-2.422 1.442v-1.344h-2.24v7.028h2.24v-2.198c0-1.75 0.812-2.632 2.422-2.632h0.406l0.098-2.24c-0.154-0.042-0.322-0.056-0.504-0.056zm10.961-2.254v3.654h-3.948v-3.654h-2.31v9.38h2.31v-3.71h3.948v3.71h2.296v-9.38h-2.296zm9.066 2.338-1.778 4.102-1.666-4.102h-2.408l2.912 6.804-1.134 2.618h2.422l4.06-9.422h-2.408zm7.707-0.196c-0.882 0-1.596 0.294-2.156 0.882v-0.672h-2.24v7.028h2.24v-3.262c0-1.33 0.546-1.96 1.456-1.96 0.714 0 1.204 0.56 1.204 1.386v3.836h2.226v-4.312c0-0.882-0.252-1.582-0.756-2.114-0.49-0.546-1.148-0.812-1.974-0.812zm11.146 3.724c-0.014-1.12-0.378-2.016-1.064-2.702s-1.54-1.022-2.562-1.022c-1.05 0-1.932 0.35-2.646 1.05s-1.078 1.596-1.078 2.674c0 1.092 0.364 1.988 1.078 2.688 0.714 0.686 1.596 1.036 2.632 1.036 1.638 0 2.884-0.742 3.486-2.198l-1.988-0.406c-0.294 0.546-0.798 0.812-1.498 0.812-0.742 0-1.33-0.518-1.512-1.358h5.152v-0.574zm-3.626-1.904c0.672 0 1.204 0.378 1.414 1.106h-2.898c0.21-0.686 0.826-1.106 1.484-1.106zm4.315 3.584c0.224 1.358 1.526 2.044 3.304 2.044 1.904 0 3.192-0.854 3.192-2.366 0-1.064-0.658-1.834-1.946-2.114l-1.652-0.336c-0.35-0.07-0.532-0.238-0.532-0.49 0-0.294 0.238-0.546 0.798-0.546 0.658 0 1.106 0.364 1.176 0.826l2.044-0.406c-0.28-1.232-1.47-2.016-3.192-2.016-0.896 0-1.624 0.224-2.184 0.658s-0.84 1.008-0.84 1.722c0 1.106 0.686 1.792 2.044 2.044l1.428 0.28c0.462 0.084 0.7 0.252 0.7 0.518 0 0.322-0.35 0.56-0.91 0.56-0.742 0-1.148-0.28-1.246-0.826l-2.184 0.448z" fill="#2B2B59"/>
<rect x="44" y="58" width="142" height="9" rx="4.5" fill="#E8E8EB"/>
<rect x="40" y="121" width="101" height="9" rx="4.5" fill="#E8E8EB"/>
<rect x="44" y="105" width="137" height="9" rx="4.5" fill="#E8E8EB"/>
<rect x="44" y="89" width="124" height="9" rx="4.5" fill="#E8E8EB"/>
<rect x="44" y="73" width="133" height="9" rx="4.5" fill="#E8E8EB"/>
<g filter="url(#h)">
<rect x="112" y="126" width="174" height="138" rx="6" fill="#fff"/>
<rect x="112.5" y="126.5" width="173" height="137" rx="5.5" stroke="#E6E6EA"/>
</g>
<mask id="e" x="122" y="136" width="36" height="36" style="mask-type:alpha" maskUnits="userSpaceOnUse">
<rect x="122" y="136" width="36" height="36" rx="2.0769" fill="url(#b)"/>
</mask>
<g mask="url(#e)">
<rect x="122" y="136" width="36" height="36" rx="2.0769" fill="#E8E8E9"/>
<path d="m136.23 166.96h6.953v-2.56h-6.953v2.56z" fill="#7178C0"/>
<path d="m142.5 161.4h-5.649s0.143 3.566-0.549 4.602h6.818c-0.692-1.036-0.62-4.602-0.62-4.602z" fill="#F4AE7F"/>
<path d="m142.64 164.24c-0.167-1.329-0.138-2.82-0.138-2.839 0 0.019-0.029 1.51 0.138 2.839zm-5.853-0.208c0-1e-3 1e-3 -2e-3 1e-3 -2e-3s-1e-3 1e-3 -1e-3 2e-3zm1e-3 -7e-3v-2e-3 2e-3zm0-6e-3c1e-3 -2e-3 1e-3 -5e-3 1e-3 -7e-3 0 2e-3 0 4e-3 -1e-3 7e-3zm1e-3 -9e-3c0-2e-3 1e-3 -4e-3 1e-3 -6e-3 0 2e-3 -1e-3 4e-3 -1e-3 6e-3zm1e-3 -7e-3c0.027-0.295 0.045-0.592 0.056-0.876-0.011 0.284-0.029 0.581-0.056 0.876zm0.056-0.877c0-7e-3 1e-3 -0.014 1e-3 -0.021 0 7e-3 -1e-3 0.014-1e-3 0.021zm1e-3 -0.023v-4e-3 4e-3zm0-8e-3c0-1e-3 0-2e-3 1e-3 -3e-3 -1e-3 1e-3 -1e-3 2e-3 -1e-3 3e-3zm1e-3 -6e-3v-3e-3 3e-3zm0-0.01v-3e-3 3e-3zm5e-3 -1.672v-1e-3 1e-3zm0-4e-3zm0 0zm0-1e-3zm0 0v-1e-3 1e-3z" fill="#F7D9D5"/>
<path d="m139.81 164.88c-0.02 0-0.039 0-0.059-1e-3 -0.963-9e-3 -2.171-0.269-2.976-0.789 2e-3 -0.022 4e-3 -0.043 6e-3 -0.064 0-1e-3 1e-3 -1e-3 1e-3 -2e-3v-5e-3 -2e-3 -4e-3c1e-3 -2e-3 1e-3 -5e-3 1e-3 -7e-3v-1e-3c0-2e-3 1e-3 -5e-3 1e-3 -6e-3v-2e-3c0.027-0.294 0.045-0.592 0.056-0.876v-1e-3c0-7e-3 1e-3 -0.014 1e-3 -0.021v-1e-3 -5e-3 -4e-3c0-1e-3 0-2e-3 1e-3 -3e-3v-2e-3 -4e-3 -7e-3 -2e-3c0.033-0.872 8e-3 -1.598 5e-3 -1.67v-3e-3 -1e-3 -1e-3 -1e-3h5.649c0 0.019-0.029 1.511 0.138 2.84-0.878 0.372-1.792 0.645-2.824 0.645z" fill="#ED966F"/>
<path d="m150.62 168.47-8.2-2.938h-5.438l-8.2 2.938s-2.872 0.944-2.536 5.527h26.91c0.392-4.864-2.536-5.527-2.536-5.527z" fill="#F4AE7F"/>
<path d="m150.62 168.47-6.701-2.401-4.214 2.938-4.115-2.976-6.808 2.439s-2.872 0.944-2.536 5.527h26.91c0.392-4.864-2.536-5.527-2.536-5.527z" fill="#58AADE"/>
<path d="m145.9 154.39c-0.195 1.205 0.143 2.275 0.754 2.39 0.61 0.116 1.263-0.766 1.456-1.971 0.193-1.204-0.144-2.274-0.755-2.39-0.61-0.115-1.262 0.767-1.455 1.971z" fill="#F4AE7F"/>
<path d="m146.63 154.06s9e-3 -0.068 0.033-0.178c0.023-0.111 0.072-0.267 0.147-0.433 0.076-0.16 0.2-0.346 0.355-0.356 0.039-2e-3 0.078 5e-3 0.118 0.017l0.059 0.031 0.044 0.036c0.063 0.061 0.113 0.154 0.147 0.262 0.036 0.106 0.059 0.225 0.072 0.343 0.01 0.117 0.017 0.24 3e-3 0.344-0.018 0.121-0.024 0.245-0.046 0.35-0.021 0.107-0.04 0.209-0.058 0.302-0.025 0.094-0.044 0.181-0.061 0.259-0.016 0.078-0.04 0.143-0.055 0.199-0.031 0.11-0.046 0.174-0.046 0.174s0.031-0.054 0.082-0.155c0.023-0.052 0.058-0.111 0.088-0.185s0.066-0.158 0.101-0.25c0.033-0.094 0.063-0.201 0.096-0.314 0.034-0.112 0.049-0.227 0.074-0.349 0.023-0.14 0.026-0.274 0.014-0.413-0.011-0.137-0.035-0.274-0.078-0.408-0.044-0.131-0.112-0.26-0.213-0.353-0.022-0.023-0.056-0.044-0.087-0.063-0.033-0.017-0.042-0.017-0.083-0.034-0.06-0.013-0.122-0.018-0.184-9e-3 -0.127 0.021-0.232 0.115-0.3 0.213-0.07 0.098-0.113 0.205-0.145 0.302-0.062 0.197-0.075 0.368-0.082 0.485-4e-3 0.118 5e-3 0.183 5e-3 0.183z" fill="#F39870"/>
<path d="m146.63 154.06s-0.057-0.128 0.345-0.159c0 0 0.449 0.083 0.185 0.683-0.057 0.129-0.106 0.262-0.135 0.404-0.04 0.201 0.032 0.474-0.075 0.652-0.14 0.23-0.493 0.099-0.515-0.164-0.016-0.202 0.192-0.548 0.287-0.692 0 0 0.288-0.437-0.092-0.724z" fill="#F39870"/>
<path d="m146.44 155.45-0.031 0.033c-0.019 0.023-0.04 0.062-0.059 0.112-0.011 0.026-0.015 0.054-0.02 0.086-6e-3 0.031-0.013 0.065-8e-3 0.1 3e-3 0.033 3e-3 0.07 9e-3 0.107 8e-3 0.034 0.022 0.066 0.034 0.1 0.014 0.031 0.025 0.068 0.045 0.092l0.059 0.069c0.038 0.047 0.082 0.074 0.123 0.087 0.08 0.035 0.137 0.034 0.137 0.034s-0.022-0.072-0.062-0.146l-0.034-0.057-0.029-0.066-0.033-0.063-0.026-0.067c-0.024-0.042-0.034-0.087-0.049-0.132l-0.017-0.066-0.015-0.066c-0.016-0.083-0.024-0.157-0.024-0.157z" fill="#F39870"/>
<path d="m133.61 154.39c0.195 1.205-0.143 2.275-0.754 2.39-0.61 0.116-1.262-0.766-1.456-1.971-0.193-1.204 0.144-2.274 0.755-2.39 0.61-0.115 1.262 0.767 1.455 1.971z" fill="#F4AE7F"/>
<path d="m132.88 154.06s-9e-3 -0.068-0.033-0.178c-0.023-0.111-0.072-0.267-0.147-0.433-0.077-0.16-0.2-0.346-0.355-0.356-0.038-2e-3 -0.078 5e-3 -0.117 0.017l-0.06 0.031-0.043 0.036c-0.064 0.061-0.114 0.154-0.148 0.262-0.037 0.106-0.059 0.225-0.072 0.343-0.01 0.117-0.017 0.24-3e-3 0.344 0.018 0.121 0.024 0.245 0.046 0.35 0.021 0.107 0.04 0.209 0.058 0.302 0.025 0.094 0.044 0.181 0.061 0.259 0.016 0.078 0.041 0.143 0.054 0.199 0.032 0.11 0.047 0.174 0.047 0.174s-0.031-0.054-0.082-0.155c-0.023-0.052-0.058-0.111-0.088-0.185s-0.066-0.158-0.101-0.25c-0.033-0.094-0.063-0.201-0.096-0.314-0.034-0.112-0.049-0.227-0.073-0.349-0.024-0.14-0.027-0.274-0.015-0.413 0.011-0.137 0.035-0.274 0.078-0.408 0.044-0.131 0.112-0.26 0.213-0.353 0.022-0.023 0.056-0.044 0.087-0.063 0.033-0.017 0.042-0.017 0.083-0.034 0.061-0.013 0.122-0.018 0.184-9e-3 0.127 0.021 0.232 0.115 0.3 0.213 0.07 0.098 0.113 0.205 0.144 0.302 0.063 0.197 0.076 0.368 0.083 0.485 4e-3 0.118-5e-3 0.183-5e-3 0.183z" fill="#F39870"/>
<path d="m132.88 154.06s0.056-0.128-0.346-0.159c0 0-0.449 0.083-0.185 0.683 0.057 0.129 0.106 0.262 0.134 0.404 0.04 0.201-0.031 0.474 0.076 0.652 0.14 0.23 0.494 0.099 0.514-0.164 0.017-0.202-0.191-0.548-0.286-0.692 0 0-0.288-0.437 0.093-0.724z" fill="#F39870"/>
<path d="m133.07 155.45 0.031 0.033c0.02 0.023 0.041 0.062 0.059 0.112 0.012 0.026 0.015 0.054 0.021 0.086 6e-3 0.031 0.013 0.065 8e-3 0.1-3e-3 0.033-3e-3 0.07-0.01 0.107-7e-3 0.034-0.021 0.066-0.033 0.1-0.015 0.031-0.025 0.068-0.045 0.092l-0.06 0.069c-0.037 0.047-0.082 0.074-0.123 0.087-0.079 0.035-0.137 0.034-0.137 0.034s0.023-0.072 0.063-0.146l0.034-0.057 0.028-0.066 0.033-0.063 0.026-0.067c0.024-0.042 0.034-0.087 0.049-0.132l0.017-0.066 0.016-0.066c0.015-0.083 0.023-0.157 0.023-0.157z" fill="#F39870"/>
<path d="m139.83 141.39v-1e-3h-0.096-0.097v1e-3c-4.855 0.043-7.582 1.425-6.836 10.274l0.835 7.049s0.149 1.286 1.559 2.056l2.637 1.954s1.253 0.556 1.903 0.502c0.648 0.054 1.902-0.502 1.902-0.502l2.637-1.955c1.409-0.77 1.558-2.055 1.558-2.055l0.881-6.886c0.744-8.849-2.03-10.395-6.883-10.437z" fill="#F4AE7F"/>
<path d="m145.54 154.39c-0.172 0.75-0.291 1.952-0.779 2.594-0.348 0.459-0.843 0.696-1.416 0.727-0.389 0.021-0.779-0.013-1.162-0.081-0.298-0.051-0.578-0.2-0.885-0.207-0.346-8e-3 -0.578 0.11-0.871 0.27-0.365 0.2-0.692 0.178-1.091 0.055-0.568-0.177-1.086-0.39-1.693-0.369-0.669 0.024-1.437 0.202-2.092 0-0.701-0.215-1.067-0.825-1.342-1.467-0.148-0.347-0.253-1.164-0.358-1.522-0.131-0.446-0.336-0.139-0.743-0.144l0.531 4.976s0.149 1.286 1.559 2.055l2.637 1.955s1.253 0.557 1.903 0.502c0.649 0.055 1.902-0.502 1.902-0.502l2.637-1.955c1.41-0.77 1.558-2.056 1.558-2.056l0.584-5.062c-0.459-0.011-0.759-0.292-0.879 0.231z" fill="#3F1C12"/>
<path d="m136.16 152.25c3e-3 0.459 0.261 0.831 0.577 0.829s0.57-0.376 0.566-0.836c-3e-3 -0.46-0.261-0.832-0.576-0.83-0.316 2e-3 -0.57 0.377-0.567 0.837z" fill="#2A1811"/>
<path d="m136.5 151.98c0 0.137-0.111 0.248-0.247 0.248-0.137 0-0.248-0.111-0.248-0.248 0-0.136 0.111-0.248 0.248-0.248 0.136 0 0.247 0.112 0.247 0.248z" fill="#fff"/>
<path d="m143.35 152.25c-3e-3 0.459-0.261 0.831-0.576 0.829-0.316-2e-3 -0.57-0.376-0.567-0.836s0.261-0.832 0.576-0.83c0.316 2e-3 0.57 0.377 0.567 0.837z" fill="#2A1811"/>
<path d="m143.01 151.98c0 0.137 0.11 0.248 0.247 0.248s0.247-0.111 0.247-0.248c0-0.136-0.11-0.248-0.247-0.248s-0.247 0.112-0.247 0.248z" fill="#fff"/>
<path d="m140.6 156.72c-0.131 0.125-0.289 0.226-0.459 0.303s-0.355 0.128-0.548 0.149c-0.097 0.014-0.196 0.014-0.295 0.013-0.098-0.011-0.2-0.015-0.297-0.042-0.099-0.019-0.195-0.051-0.29-0.089-0.095-0.034-0.182-0.085-0.273-0.132l-0.114-0.058-0.025-0.191c-0.011-0.085-0.019-0.16-0.021-0.239-5e-3 -0.078-1e-3 -0.155 1e-3 -0.232 8e-3 -0.155 0.027-0.309 0.063-0.46 0.035-0.151 0.084-0.3 0.155-0.445 0.063-0.145 0.154-0.285 0.269-0.415 0.068 0.164 0.102 0.318 0.13 0.469 0.031 0.152 0.044 0.299 0.055 0.445 6e-3 0.146 9e-3 0.291 3e-3 0.434l-0.013 0.215c-6e-3 0.071-0.013 0.145-0.022 0.209l-0.138-0.249c0.061 0.037 0.117 0.088 0.182 0.122 0.064 0.035 0.128 0.074 0.197 0.1 0.067 0.034 0.139 0.052 0.211 0.079 0.074 0.016 0.148 0.042 0.226 0.052 0.077 0.016 0.157 0.02 0.238 0.025 0.081 6e-3 0.164 6e-3 0.248 3e-3 0.168-9e-3 0.341-0.027 0.517-0.066z" fill="#EB946F"/>
<path d="m137.92 150.55c-0.052 0.214-0.257 0.342-0.452 0.306-0.794-0.145-1.591-0.07-2.31 0.194-0.177 0.065-0.393-0.03-0.493-0.227-0.1-0.196-0.016-0.435 0.2-0.515 0.85-0.316 1.789-0.407 2.72-0.241 0.237 0.042 0.389 0.27 0.335 0.483z" fill="#3F1C12"/>
<path d="m141.36 150.55c0.053 0.214 0.257 0.342 0.453 0.306 0.794-0.145 1.591-0.07 2.31 0.194 0.177 0.065 0.393-0.03 0.493-0.227 0.1-0.196 0.016-0.435-0.201-0.515-0.85-0.316-1.789-0.407-2.719-0.241-0.237 0.042-0.389 0.27-0.336 0.483z" fill="#3F1C12"/>
<path d="m139.95 159.68 0.01 0.031-9e-3 -0.032-1e-3 1e-3 0.01 0.031-9e-3 -0.032c-6e-3 2e-3 -0.127 0.036-0.312 0.036-0.087 0-0.187-7e-3 -0.297-0.029-0.084-0.016-0.165 0.039-0.182 0.123-0.016 0.084 0.039 0.165 0.123 0.182 0.131 0.025 0.251 0.034 0.356 0.034 0.238 0 0.392-0.046 0.402-0.049 0.082-0.025 0.128-0.112 0.103-0.194s-0.112-0.128-0.194-0.102z" fill="#EB8876"/>
<path d="m138.11 158.42 0.397 0.78s1.774 0.997 3.025-0.741c0 0-1.946 0.09-3.422-0.039z" fill="#fff"/>
<path d="m136.3 143.43s1.812 2.193 5.91 2.772c0 0 4.162 1.437 4.107 3.785l-0.734 4.257 0.831-0.086s0.023-1.716 0.938-1.74c0 0 0.822-3.445 0.809-4.035-0.013-0.589-1.16-6.428-1.16-6.428l-4.464-3.184s-4.827-0.708-7.067-1.769c0 0 0.511 1.357 1.258 1.769 0 0-2.799 0.296-3.061 0.236-0.261-0.059 0.387 1.475 0.387 1.475l-2.35 3.597 0.453 8.339s0.727 0.072 0.947 1.826h0.683l-0.12-5.35s0.96-3.314 2.633-5.464z" fill="#3F1C12"/>
<path d="m136.12 143.23c-0.78-0.792-1.576-1.694-2.085-2.715l-2.325 3.558 1e-3 0.021c0.767 1.23 1.535 2.462 2.342 3.666 0.426-1.159 1.197-2.978 2.253-4.336 0 0 0.236 0.286 0.729 0.676-0.314-0.281-0.619-0.57-0.915-0.87z" fill="#2E130B"/>
<path d="m139.71 169-0.552-2.824-2.925-1.77-0.426 1.78 3.903 2.814z" fill="#7178C0"/>
<path d="m139.71 169 0.553-2.824 2.925-1.77 0.426 1.78-3.904 2.814z" fill="#7178C0"/>
<path d="m141.11 166.56h-2.793s-0.624 0.378-0.357 1.035l0.889 1.407h1.73l0.889-1.407c0.266-0.657-0.358-1.035-0.358-1.035z" fill="#6347A5"/>
<path d="m139.69 169h-0.846l-0.712-1.127 0.712 1.127h0.846z" fill="#3A459F"/>
<path d="m141.46 167.59c0.058-0.144 0.073-0.275 0.061-0.391 0.012 0.116-3e-3 0.247-0.061 0.391zm0.061-0.393v-1e-3 1e-3z" fill="#403996"/>
<path d="m140.58 169h-1.73l-0.712-1.127-0.177-0.28c-0.047-0.115-0.066-0.222-0.066-0.32-1e-3 -0.458 0.424-0.715 0.424-0.715h0.496c-0.316 0.369-0.234 0.931-0.087 1.427 0.142 0.478 0.571 0.734 1.041 0.734 0.078 0 0.157-7e-3 0.236-0.021 0.622-0.111 1.04-0.566 1.241-1.147 0.099-0.289 0.111-0.569 0.056-0.831 0.1 0.109 0.207 0.269 0.229 0.475v1e-3 2e-3c0.012 0.116-3e-3 0.247-0.061 0.391 0 1e-3 -1e-3 3e-3 -1e-3 4e-3l-0.889 1.407z" fill="#3E3493"/>
<path d="m138.84 169-0.955 5.003h3.645l-0.96-5.003h-1.73z" fill="#6347A5"/>
<path d="m139.16 166.17-1.383 2.533-3.381-2.297 1.839-2.007 2.925 1.771z" fill="#8CB6E0"/>
<path d="m140.26 166.17 1.383 2.533 3.381-2.297-1.839-2.007-2.925 1.771z" fill="#8CB6E0"/>
</g>
<g clip-path="url(#n)">
<path d="m178.82 161.5-1.102-3.63c-0.218-0.712-1.223-0.712-1.433 0l-1.11 3.63h-3.337c-0.728 0-1.028 0.938-0.435 1.358l2.73 1.95-1.073 3.457c-0.217 0.698 0.593 1.26 1.17 0.818l2.768-2.1 2.767 2.107c0.578 0.443 1.388-0.12 1.17-0.817l-1.072-3.458 2.73-1.95c0.592-0.427 0.292-1.357-0.435-1.357h-3.338v-8e-3z" fill="#F8D056"/>
</g>
<g clip-path="url(#m)">
<path d="m196.82 161.5-1.102-3.63c-0.218-0.712-1.223-0.712-1.433 0l-1.11 3.63h-3.337c-0.728 0-1.028 0.938-0.435 1.358l2.73 1.95-1.073 3.457c-0.217 0.698 0.593 1.26 1.17 0.818l2.768-2.1 2.767 2.107c0.578 0.443 1.388-0.12 1.17-0.817l-1.072-3.458 2.73-1.95c0.592-0.427 0.292-1.357-0.435-1.357h-3.338v-8e-3z" fill="#F8D056"/>
</g>
<g clip-path="url(#l)">
<path d="m214.82 161.5-1.102-3.63c-0.218-0.712-1.223-0.712-1.433 0l-1.11 3.63h-3.337c-0.728 0-1.028 0.938-0.435 1.358l2.73 1.95-1.073 3.457c-0.217 0.698 0.593 1.26 1.17 0.818l2.768-2.1 2.767 2.107c0.578 0.443 1.388-0.12 1.17-0.817l-1.072-3.458 2.73-1.95c0.592-0.427 0.292-1.357-0.435-1.357h-3.338v-8e-3z" fill="#F8D056"/>
</g>
<g clip-path="url(#k)">
<path d="m232.82 161.5-1.102-3.63c-0.218-0.712-1.223-0.712-1.433 0l-1.11 3.63h-3.337c-0.728 0-1.028 0.938-0.435 1.358l2.73 1.95-1.073 3.457c-0.217 0.698 0.593 1.26 1.17 0.818l2.768-2.1 2.767 2.107c0.578 0.443 1.388-0.12 1.17-0.817l-1.072-3.458 2.73-1.95c0.592-0.427 0.292-1.357-0.435-1.357h-3.338v-8e-3z" fill="#F8D056"/>
</g>
<g clip-path="url(#j)">
<path d="m247.82 161.5-1.102-3.63c-0.218-0.712-1.223-0.712-1.433 0l-1.11 3.63h-3.337c-0.728 0-1.028 0.938-0.435 1.358l2.73 1.95-1.073 3.457c-0.217 0.698 0.593 1.26 1.17 0.818l2.768-2.1 2.767 2.107c0.578 0.443 1.388-0.12 1.17-0.817l-1.072-3.458 2.73-1.95c0.592-0.427 0.292-1.357-0.435-1.357h-3.338v-8e-3z" fill="#E8E8E9"/>
</g>
<path d="m173.42 139.62v6.006c0 0.896-0.588 1.526-1.47 1.526s-1.414-0.574-1.512-1.54l-2.24 0.448c0.28 1.918 1.666 3.15 3.752 3.15 1.134 0 2.044-0.336 2.73-0.994 0.7-0.672 1.05-1.54 1.05-2.59v-6.006h-2.31zm7.342 2.17c-1.092 0-2.016 0.35-2.772 1.036-0.742 0.686-1.12 1.582-1.12 2.66 0 1.092 0.378 1.988 1.12 2.674 0.756 0.686 1.68 1.036 2.772 1.036 1.078 0 1.988-0.35 2.73-1.036s1.12-1.582 1.12-2.674c0-1.078-0.378-1.974-1.12-2.66s-1.652-1.036-2.73-1.036zm0 5.516c-0.952 0-1.736-0.756-1.736-1.82 0-0.532 0.168-0.966 0.518-1.302 0.35-0.35 0.756-0.518 1.218-0.518 0.448 0 0.84 0.168 1.176 0.518 0.35 0.336 0.518 0.77 0.518 1.302s-0.168 0.966-0.504 1.316c-0.336 0.336-0.728 0.504-1.19 0.504zm9.415-5.544c-0.882 0-1.596 0.294-2.17 0.882v-3.724h-2.24v10.08h2.24v-3.262c0-1.302 0.546-1.96 1.442-1.96 0.728 0 1.218 0.56 1.218 1.386v3.836h2.226v-4.312c0-0.882-0.252-1.582-0.756-2.114-0.49-0.546-1.148-0.812-1.96-0.812zm8.654 0c-0.882 0-1.596 0.294-2.156 0.882v-0.672h-2.24v7.028h2.24v-3.262c0-1.33 0.546-1.96 1.456-1.96 0.714 0 1.204 0.56 1.204 1.386v3.836h2.226v-4.312c0-0.882-0.252-1.582-0.756-2.114-0.49-0.546-1.148-0.812-1.974-0.812zm7.512 7.238h3.71c1.54 0 2.786-0.434 3.724-1.288 0.938-0.868 1.414-2.002 1.414-3.402s-0.476-2.534-1.414-3.388c-0.938-0.868-2.184-1.302-3.724-1.302h-3.71v9.38zm2.31-7.378h1.316c1.75 0 2.898 1.064 2.898 2.688s-1.148 2.688-2.898 2.688h-1.316v-5.376zm11.265 0.168c-1.092 0-2.016 0.35-2.772 1.036-0.742 0.686-1.12 1.582-1.12 2.66 0 1.092 0.378 1.988 1.12 2.674 0.756 0.686 1.68 1.036 2.772 1.036 1.078 0 1.988-0.35 2.73-1.036s1.12-1.582 1.12-2.674c0-1.078-0.378-1.974-1.12-2.66s-1.652-1.036-2.73-1.036zm0 5.516c-0.952 0-1.736-0.756-1.736-1.82 0-0.532 0.168-0.966 0.518-1.302 0.35-0.35 0.756-0.518 1.218-0.518 0.448 0 0.84 0.168 1.176 0.518 0.35 0.336 0.518 0.77 0.518 1.302s-0.168 0.966-0.504 1.316c-0.336 0.336-0.728 0.504-1.19 0.504zm11.893-1.82c-0.014-1.12-0.378-2.016-1.064-2.702s-1.54-1.022-2.562-1.022c-1.05 0-1.932 0.35-2.646 1.05s-1.078 1.596-1.078 2.674c0 1.092 0.364 1.988 1.078 2.688 0.714 0.686 1.596 1.036 2.632 1.036 1.638 0 2.884-0.742 3.486-2.198l-1.988-0.406c-0.294 0.546-0.798 0.812-1.498 0.812-0.742 0-1.33-0.518-1.512-1.358h5.152v-0.574zm-3.626-1.904c0.672 0 1.204 0.378 1.414 1.106h-2.898c0.21-0.686 0.826-1.106 1.484-1.106z" fill="#2B2B59"/>
<rect x="122" y="182" width="142" height="9" rx="4.5" fill="#E8E8EB"/>
<rect x="109" y="245" width="101" height="9" rx="4.5" fill="#E8E8EB"/>
<rect x="122" y="229" width="137" height="9" rx="4.5" fill="#E8E8EB"/>
<rect x="122" y="213" width="124" height="9" rx="4.5" fill="#E8E8EB"/>
<rect x="122" y="197" width="133" height="9" rx="4.5" fill="#E8E8EB"/>
<g filter="url(#g)">
<rect x="2" y="234" width="174" height="138" rx="6" fill="#fff"/>
<rect x="2.5" y="234.5" width="173" height="137" rx="5.5" stroke="#E6E6EA"/>
</g>
<mask id="d" x="12" y="244" width="36" height="36" style="mask-type:alpha" maskUnits="userSpaceOnUse">
<rect x="12" y="244" width="36" height="36" rx="2.0769" fill="url(#a)"/>
</mask>
<g mask="url(#d)">
<rect x="12" y="244" width="36" height="36" rx="2.0769" fill="#E8E8E9"/>
<path d="m32.55 268.85h-5.3788s0.1357 4.119-0.523 5.315h6.4921c-0.6584-1.196-0.5903-5.315-0.5903-5.315z" fill="#F4AE7F"/>
<path d="m32.626 271.5c-0.0555-0.768-0.0727-1.519-0.077-2.025 0.0043 0.506 0.0215 1.257 0.0773 2.025h-3e-4zm-5.4847-0.121h-4e-4c0.0691-1.286 0.0312-2.492 0.0301-2.531 0.0011 0.039 0.039 1.244-0.0297 2.531zm5.4077-1.907c0-2e-3 0-4e-3 -4e-4 -6e-3 4e-4 2e-3 4e-4 4e-3 4e-4 6e-3zm-4e-4 -0.013v-1e-3 1e-3zm8e-4 -0.588v-1e-3 1e-3zm0-6e-3v-4e-3 4e-3zm0-7e-3zm0-2e-3v-1e-3 1e-3zm0-3e-3v-1e-3 1e-3zm0-1e-3v-1e-3 1e-3zm0-2e-3v-1e-3 1e-3zm0-1e-3v-1e-3 1e-3zm3e-4 -1e-3zm-5.3787 0v-1e-3 1e-3z" fill="#F7D9D5"/>
<path d="m29.951 272.21c-1.0052 0-1.9109-0.407-2.8098-0.831 0.0687-1.286 0.0308-2.492 0.0297-2.531v-1e-3h5.3787v1e-3 1e-3h-3e-4v1e-3 1e-3 1e-3 2e-3 1e-3 1e-3 2e-3 1e-3 2e-3 4e-3 5e-3 1e-3c0 2e-3 -4e-4 4e-3 -4e-4 6e-3 -7e-4 0.075-0.0029 0.284-3e-4 0.581v1e-3 7e-3c3e-4 2e-3 3e-4 4e-3 3e-4 7e-3v2e-3c0.0043 0.506 0.0215 1.257 0.077 2.025-0.7264 0.369-1.5121 0.616-2.3258 0.693-0.1178 0.012-0.2342 0.017-0.3491 0.017z" fill="#ED966F"/>
<path d="m39.866 276.5-7.4919-2.925h-4.9681l-7.4919 2.925s-2.6237 0.94-2.3169 5.503h24.586c0.3583-4.844-2.3172-5.503-2.3172-5.503z" fill="#F4AE7F"/>
<path d="m36.653 261.02c-0.2216 1.367 0.1628 2.582 0.8566 2.713 0.6931 0.131 1.4337-0.87 1.6535-2.239 0.2191-1.367-0.1636-2.582-0.8577-2.713-0.6931-0.131-1.4326 0.87-1.6524 2.239z" fill="#F4AE7F"/>
<path d="m37.487 260.65s0.0104-0.077 0.0379-0.202c0.0265-0.126 0.0813-0.303 0.1668-0.492 0.0867-0.182 0.2274-0.392 0.4031-0.404 0.0437-3e-3 0.0881 5e-3 0.1336 0.019l0.0676 0.035 0.0491 0.041c0.0719 0.069 0.1296 0.175 0.1671 0.298 0.0416 0.12 0.0677 0.255 0.0817 0.389 0.0118 0.133 0.02 0.273 0.0046 0.392-0.0215 0.137-0.0279 0.277-0.0526 0.397-0.0236 0.121-0.0455 0.236-0.0666 0.343-0.0276 0.106-0.049 0.206-0.0684 0.293-0.0193 0.09-0.0461 0.163-0.0623 0.226-0.0354 0.125-0.0533 0.199-0.0533 0.199s0.0354-0.063 0.0931-0.177c0.0268-0.059 0.0666-0.125 0.1002-0.211 0.0351-0.083 0.0748-0.178 0.1146-0.282 0.0383-0.107 0.0719-0.229 0.1092-0.357 0.0383-0.127 0.0562-0.258 0.0834-0.397 0.0268-0.158 0.0304-0.311 0.0172-0.469-0.0129-0.155-0.0401-0.312-0.0885-0.463-0.0504-0.148-0.1274-0.294-0.242-0.401-0.0254-0.026-0.0633-0.05-0.0984-0.071-0.0387-0.02-0.0491-0.021-0.0956-0.039-0.0684-0.015-0.1378-0.022-0.2091-0.01-0.1432 0.023-0.2627 0.13-0.3397 0.242-0.0802 0.111-0.1281 0.233-0.1647 0.342-0.0708 0.225-0.0855 0.419-0.0934 0.551-0.0047 0.134 0.0054 0.208 0.0054 0.208z" fill="#F39870"/>
<path d="m37.486 260.65s-0.0637-0.146 0.3927-0.18c0 0 0.5101 0.094 0.2101 0.775-0.0648 0.146-0.1203 0.298-0.1528 0.458-0.0451 0.228 0.0361 0.538-0.0863 0.741-0.1579 0.262-0.5603 0.113-0.5835-0.186-0.0186-0.229 0.2169-0.622 0.3247-0.785 0-1e-3 0.3279-0.497-0.1049-0.823z" fill="#F39870"/>
<path d="m37.267 262.22-0.0354 0.036c-0.0219 0.027-0.0462 0.07-0.067 0.128-0.0128 0.029-0.0175 0.061-0.0239 0.097-0.0058 0.036-0.0144 0.074-0.0086 0.113 0.0036 0.039 0.0043 0.081 0.0114 0.122 0.0079 0.039 0.024 0.076 0.0373 0.114 0.0171 0.035 0.0289 0.076 0.0515 0.104l0.0673 0.079c0.0433 0.054 0.0927 0.084 0.1396 0.099 0.0899 0.039 0.1554 0.038 0.1554 0.038s-0.0254-0.082-0.0709-0.165l-0.0379-0.064-0.033-0.076-0.0376-0.072-0.0293-0.076c-0.0265-0.047-0.0387-0.099-0.0555-0.149l-0.0197-0.076-0.0172-0.075c-0.0175-0.093-0.0268-0.178-0.0265-0.177z" fill="#F39870"/>
<path d="m23.45 261.02c0.2216 1.367-0.1629 2.582-0.8563 2.713-0.693 0.131-1.4333-0.87-1.6535-2.239-0.2194-1.367 0.1632-2.582 0.8577-2.713 0.6927-0.131 1.4327 0.87 1.6521 2.239z" fill="#F4AE7F"/>
<path d="m22.616 260.65s-0.0104-0.077-0.038-0.202c-0.0265-0.126-0.0809-0.303-0.1664-0.492-0.087-0.182-0.2274-0.392-0.4035-0.404-0.0433-3e-3 -0.0881 5e-3 -0.1335 0.019l-0.0673 0.035-0.0494 0.041c-0.072 0.069-0.1296 0.175-0.1672 0.298-0.0419 0.12-0.0677 0.255-0.0816 0.389-0.0118 0.133-0.0197 0.273-0.0043 0.392 0.0211 0.137 0.0279 0.277 0.0526 0.397 0.0236 0.121 0.0455 0.236 0.0662 0.343 0.028 0.106 0.0494 0.206 0.0691 0.293 0.0186 0.09 0.0458 0.163 0.0616 0.226 0.0358 0.125 0.0537 0.199 0.0537 0.199s-0.0362-0.063-0.0934-0.177c-0.0269-0.059-0.0663-0.125-0.0999-0.211-0.0351-0.083-0.0748-0.178-0.1149-0.282-0.0383-0.107-0.072-0.229-0.1092-0.357-0.0383-0.127-0.0562-0.258-0.0834-0.397-0.0269-0.158-0.0305-0.311-0.0172-0.469 0.0129-0.155 0.0404-0.312 0.0891-0.463 0.0498-0.148 0.1271-0.294 0.2413-0.401 0.0258-0.026 0.0641-0.05 0.0992-0.071 0.0379-0.02 0.0483-0.021 0.0948-0.039 0.0684-0.015 0.1382-0.022 0.2091-0.01 0.1436 0.023 0.2631 0.13 0.3404 0.242 0.0795 0.111 0.1275 0.233 0.1644 0.342 0.0712 0.225 0.0852 0.419 0.093 0.551 0.0047 0.134-0.0053 0.208-0.0053 0.208z" fill="#F39870"/>
<path d="m22.616 260.65s0.0641-0.146-0.3927-0.18c0 0-0.5097 0.094-0.2101 0.775 0.0652 0.146 0.1203 0.298 0.1529 0.458 0.0454 0.228-0.0358 0.538 0.0866 0.741 0.1582 0.262 0.5599 0.113 0.5835-0.186 0.0183-0.229-0.2169-0.622-0.325-0.785 0-1e-3 -0.328-0.497 0.1048-0.823z" fill="#F39870"/>
<path d="m22.836 262.22 0.0351 0.036c0.0218 0.027 0.0461 0.07 0.0669 0.128 0.0129 0.029 0.0175 0.061 0.024 0.097 0.0057 0.036 0.0143 0.074 0.0086 0.113-0.0036 0.039-4e-3 0.081-0.0108 0.122-0.0078 0.039-0.0247 0.076-0.0379 0.114-0.0168 0.035-0.029 0.076-0.0516 0.104l-0.0673 0.079c-0.0429 0.054-0.0927 0.084-0.1396 0.099-0.0898 0.039-0.1557 0.038-0.1557 0.038s0.0258-0.082 0.0713-0.165l0.0382-0.064 0.0326-0.076 0.0376-0.072 0.0294-0.076c0.0268-0.047 0.0386-0.099 0.0555-0.149l0.0196-0.076 0.0172-0.075c0.0183-0.093 0.0272-0.178 0.0269-0.177z" fill="#F39870"/>
<path d="m36.869 249.91s-2.3598-2.585-7.0046-2.728c-4.6406 0.243-6.9922 2.918-6.9922 2.919-1.2626 4.068-0.455 8.837 0.0824 12.964 0.3963 3.048 2.4464 5.181 5.0304 6.666 0 0 0.9135 0.592 2.1289 0.659 1.2114-0.093 2.111-0.703 2.1146-0.705 2.5102-1.702 4.4308-3.804 4.9101-6.902 0.4138-2.675 0.5076-5.631 0.4153-8.331-0.0509-1.489-0.2098-3.12-0.6849-4.542z" fill="#F4AE7F"/>
<path d="m27.846 258.23s-1.6592-0.558-3.3754 0.229c0.3383-1.832 3.5097-1.08 3.5097-1.08s0.209 0.049 0.1865 0.377c0 0-0.0845 0.563-0.3208 0.474z" fill="#9A6553"/>
<path d="m31.715 258.23s1.8869-0.558 3.6031 0.229c-0.3379-1.832-3.7374-1.08-3.7374-1.08s-0.2094 0.049-0.1865 0.377c0 0 0.0838 0.563 0.3208 0.474z" fill="#9A6553"/>
<path d="m25.74 259.94c0.0028 0.531 0.3007 0.96 0.6651 0.958 0.3648-2e-3 0.6576-0.435 0.6544-0.966-0.0036-0.531-0.3014-0.96-0.6651-0.958-0.3645 2e-3 -0.6577 0.435-0.6544 0.966z" fill="#2A1811"/>
<path d="m26.137 259.63c0 0.158-0.1274 0.286-0.2849 0.286-0.1583 0-0.2857-0.128-0.2857-0.286s0.1274-0.285 0.2857-0.285c0.1575 0 0.2849 0.127 0.2849 0.285z" fill="#fff"/>
<path d="m34.048 259.94c-0.0039 0.531-0.3014 0.96-0.6655 0.958-0.3647-2e-3 -0.6576-0.435-0.6544-0.966 0.0033-0.531 0.3011-0.96 0.6652-0.958 0.3644 2e-3 0.6576 0.435 0.6547 0.966z" fill="#2A1811"/>
<path d="m33.65 259.63c0 0.158 0.1278 0.286 0.2853 0.286 0.1579 0 0.2857-0.128 0.2857-0.286s-0.1278-0.285-0.2857-0.285c-0.1575 0-0.2853 0.127-0.2853 0.285z" fill="#fff"/>
<path d="m28.242 265.93c0.0039 0.513 0.731 0.929 1.6285 0.929 0.8974 0 1.6245-0.416 1.6281-0.929h-3.2566z" fill="#fff"/>
<path d="m31.499 266c0.3834-0.093 0.4446-0.131 0.4446-0.131s-0.2659-0.112-0.6393-0.225c-0.9594-0.404-0.8939 0.12-1.4044 0.118-0.2559 9e-3 -0.5119-0.27-0.7514-0.237-0.2388 0.028-0.4629 0.07-0.654 0.121-0.3834 0.093-0.639 0.223-0.639 0.223s0.0039 0.06 0.387 0.153c0 0 0.7517-0.118 1.2221-0.046 0 0 0.4342 0.109 0.7253 0.018 0 0 0.7879-0.043 1.3091 6e-3z" fill="#F36178"/>
<path d="m31.624 265.87c-0.3755 0.387-0.7854 0.983-1.84 0.982 0 0-1.2118 0.055-1.6106-0.982h-0.3272l0.0326 0.078c0.0834 0.148 0.1525 0.324 0.2767 0.481 0.0601 0.08 0.1214 0.163 0.1847 0.247 0.0645 0.084 0.1529 0.153 0.232 0.231l0.1246 0.116 0.1471 0.097c0.1031 0.064 0.188 0.141 0.3226 0.179 0.1213 0.042 0.2624 0.1 0.3726 0.119l0.1604 0.022 0.0805 0.01 0.0401 6e-3 0.0197 3e-3 0.0544 3e-3 0.3799-0.048c0.1242-0.023 0.238-0.079 0.3551-0.118 0.1217-0.034 0.2133-0.115 0.315-0.176l0.1461-0.097 0.1253-0.116c0.0791-0.079 0.1671-0.148 0.2319-0.232 0.0634-0.083 0.125-0.167 0.1847-0.247 0.1239-0.156 0.1934-0.333 0.2768-0.482l0.0318-0.076h-0.3168z" fill="#F36178"/>
<path d="m29.909 267.24c1.3217-0.198 1.5042-0.992 1.5042-0.992-0.5409 0.796-1.5221 0.774-1.5221 0.774s-0.087 0.014-0.0781 0.123c0 0 0.0287 0.105 0.096 0.095z" fill="#fff"/>
<path d="m39.437 255.92s0.5424-9.148-7.0311-10.813c0 0-5.7575-0.919-7.9172 2.652l4.4683 3.613s2.217 4.156 6.6761 5.733c0 0 1.8472 0.472 1.9614 3.918 0 0 0.2602-1.895 1.3245-1.724 0 0 0.5366-2.36 0.518-3.379z" fill="#9A6553"/>
<path d="m28.957 263.56 0.0351-7e-3c0.0219-5e-3 0.0566-0.017 0.0945-0.023 0.0781-0.018 0.1819-0.037 0.2946-0.056 0.1117-0.016 0.2324-0.032 0.3505-0.038 0.1185-0.01 0.2356-0.011 0.349-0.01 0.1135 5e-3 0.2245 0.012 0.3355 0.022 0.0565 0.01 0.1113 0.013 0.1672 0.02 0.0569 0.01 0.112 0.017 0.1653 0.022 0.0534 5e-3 0.1099 0.02 0.1586 0.026 0.0473 3e-3 0.0945 0.012 0.1336 0.018 0.0379 3e-3 0.0741 0.015 0.097 0.019l0.0361 7e-3 -0.0093 0.035c-0.0068 0.02-0.0136 0.057-0.0304 0.094-0.0301 0.079-0.0845 0.186-0.1786 0.286-0.0459 0.053-0.1003 0.103-0.1658 0.145-0.0641 0.044-0.1353 0.091-0.2144 0.119-0.0788 0.032-0.1629 0.063-0.251 0.074-0.0877 0.019-0.1772 0.026-0.2667 0.022-0.0902 1e-3 -0.1772-0.017-0.2624-0.034-0.0848-0.018-0.165-0.048-0.2398-0.081-0.1486-0.069-0.2735-0.159-0.3648-0.257-0.0916-0.098-0.1532-0.197-0.1879-0.274-0.019-0.035-0.0283-0.072-0.0358-0.094l-0.0101-0.035z" fill="#F59679"/>
<path d="m33.14 273.87 6.4799 2.529c-1.7337 1.286-1.8726 3.447-1.8519 5.6h-15.904c0.0204-0.585-0.0014-1.159-0.0401-1.678-0.101-1.336-0.47-3.173-1.7398-3.893l6.7022-2.616s0.2115 2.087 3.113 2.075c0 0 3.0701 0.061 3.2408-2.017z" fill="#4966B6"/>
<path d="m23.637 256.88c-1.0253 0.746-0.8037 2.551-0.799 4.165 0 0-0.2148-2.28-1.5547-1.971 0 0-2.5754-9.921 3.8515-11.896l4.3305 4.018s-0.5079 1.815-5.8283 5.684z" fill="#9A6553"/>
<path d="m20.878 253.01s-4.0767 18.515 3.8208 21.15c0 0-0.2102-2.948 2.4776-3.775l0.0029-1.158s-2.1766-1.61-2.4304-2.128c0 0-1.4602-1.414-1.7935-4.038 0 0-0.2943-3.748 0.044-5.22l-2.1214-4.831z" fill="#9A6553"/>
<path d="m38.926 253.01s4.0774 18.515-3.8204 21.15c0 0 0.2101-2.948-2.4776-3.775l-0.0025-1.158s2.1758-1.61 2.43-2.128c0 0 1.4602-1.414 1.7938-4.038 0 0 0.2939-3.748-0.044-5.22l2.1207-4.831z" fill="#9A6553"/>
</g>
<g clip-path="url(#w)">
<path d="m68.822 269.5-1.1025-3.63c-0.2175-0.712-1.2225-0.712-1.4325 0l-1.11 3.63h-3.3375c-0.7275 0-1.0275 0.938-0.435 1.358l2.73 1.95-1.0725 3.457c-0.2175 0.698 0.5925 1.26 1.17 0.818l2.7675-2.1 2.7675 2.107c0.5775 0.443 1.3875-0.12 1.17-0.817l-1.0725-3.458 2.73-1.95c0.5925-0.427 0.2925-1.357-0.435-1.357h-3.3375v-8e-3z" fill="#F8D056"/>
</g>
<g clip-path="url(#v)">
<path d="m86.822 269.5-1.1025-3.63c-0.2175-0.712-1.2225-0.712-1.4325 0l-1.11 3.63h-3.3375c-0.7275 0-1.0275 0.938-0.435 1.358l2.73 1.95-1.0725 3.457c-0.2175 0.698 0.5925 1.26 1.17 0.818l2.7675-2.1 2.7675 2.107c0.5775 0.443 1.3875-0.12 1.17-0.817l-1.0725-3.458 2.73-1.95c0.5925-0.427 0.2925-1.357-0.435-1.357h-3.3375v-8e-3z" fill="#F8D056"/>
</g>
<g clip-path="url(#u)">
<path d="m104.82 269.5-1.102-3.63c-0.218-0.712-1.223-0.712-1.433 0l-1.11 3.63h-3.3375c-0.7275 0-1.0275 0.938-0.435 1.358l2.7305 1.95-1.073 3.457c-0.2175 0.698 0.5925 1.26 1.17 0.818l2.768-2.1 2.767 2.107c0.578 0.443 1.388-0.12 1.17-0.817l-1.072-3.458 2.73-1.95c0.592-0.427 0.292-1.357-0.435-1.357h-3.338v-8e-3z" fill="#F8D056"/>
</g>
<g clip-path="url(#t)">
<path d="m122.82 269.5-1.102-3.63c-0.218-0.712-1.223-0.712-1.433 0l-1.11 3.63h-3.337c-0.728 0-1.028 0.938-0.435 1.358l2.73 1.95-1.073 3.457c-0.217 0.698 0.593 1.26 1.17 0.818l2.768-2.1 2.767 2.107c0.578 0.443 1.388-0.12 1.17-0.817l-1.072-3.458 2.73-1.95c0.592-0.427 0.292-1.357-0.435-1.357h-3.338v-8e-3z" fill="#E8E8E9"/>
</g>
<g clip-path="url(#s)">
<path d="m137.82 269.5-1.102-3.63c-0.218-0.712-1.223-0.712-1.433 0l-1.11 3.63h-3.337c-0.728 0-1.028 0.938-0.435 1.358l2.73 1.95-1.073 3.457c-0.217 0.698 0.593 1.26 1.17 0.818l2.768-2.1 2.767 2.107c0.578 0.443 1.388-0.12 1.17-0.817l-1.072-3.458 2.73-1.95c0.592-0.427 0.292-1.357-0.435-1.357h-3.338v-8e-3z" fill="#E8E8E9"/>
</g>
<path d="m69.634 248.62h-2.254l-3.15 5.95-3.15-5.95h-2.268v9.38h2.24v-5.026l2.646 5.026h1.064l2.632-4.998v4.998h2.24v-9.38zm5.0494 2.17c-2.128 0-3.892 1.484-3.892 3.696 0 2.226 1.764 3.71 3.892 3.71 2.086 0 3.85-1.484 3.85-3.71 0-2.212-1.764-3.696-3.85-3.696zm0 5.516c-0.91 0-1.736-0.714-1.736-1.82 0-1.092 0.826-1.82 1.736-1.82 0.868 0 1.694 0.728 1.694 1.82 0 1.106-0.826 1.82-1.694 1.82zm9.4016-5.544c-0.882 0-1.624 0.322-2.156 0.882v-0.672h-2.24v7.028h2.24v-3.262c0-1.358 0.574-1.96 1.456-1.96 0.714 0 1.204 0.56 1.204 1.386v3.836h2.226v-4.312c0-1.764-1.092-2.926-2.73-2.926zm5.4903-3.136c-0.756 0-1.288 0.588-1.288 1.274 0 0.714 0.532 1.246 1.288 1.246s1.302-0.532 1.302-1.246c0-0.686-0.546-1.274-1.302-1.274zm1.12 10.374v-7.028h-2.2401v7.028h2.2401zm5.1098-1.75c-1.008 0-1.68-0.728-1.68-1.764 0-1.022 0.672-1.764 1.68-1.764 0.714 0 1.288 0.392 1.484 1.246l2.1-0.504c-0.392-1.652-1.876-2.702-3.584-2.702-2.1 0-3.836 1.512-3.836 3.724 0 2.226 1.736 3.724 3.836 3.724 1.75 0 3.234-1.078 3.584-2.744l-2.058-0.448c-0.238 0.854-0.812 1.232-1.526 1.232zm12.139-5.278h-2.24v0.56c-0.546-0.49-1.274-0.77-2.184-0.77-1.862 0-3.43 1.512-3.43 3.724 0 2.226 1.568 3.724 3.43 3.724 0.91 0 1.638-0.28 2.184-0.77v0.56h2.24v-7.028zm-3.962 5.334c-0.98 0-1.694-0.728-1.694-1.82 0-1.078 0.714-1.82 1.694-1.82 0.91 0 1.722 0.742 1.722 1.82 0 1.092-0.812 1.82-1.722 1.82zm12.516-7.896c-2.198 0-3.71 1.134-3.71 2.954 0 1.708 1.176 2.408 2.52 2.716l1.96 0.42c0.672 0.14 0.868 0.406 0.868 0.826 0 0.574-0.518 0.966-1.386 0.966-0.938 0-1.61-0.42-1.848-1.386l-2.38 0.462c0.252 1.834 1.988 2.842 4.102 2.842 2.086 0 3.864-1.036 3.864-3.038 0-1.484-0.952-2.366-2.576-2.73l-1.946-0.434c-0.588-0.126-0.756-0.406-0.756-0.784 0-0.532 0.49-0.952 1.26-0.952 0.742 0 1.47 0.434 1.638 1.316l2.268-0.462c-0.35-1.708-1.834-2.716-3.878-2.716zm14.414 2.352c-1.092 0-1.932 0.462-2.492 1.19-0.476-0.77-1.316-1.19-2.296-1.19-0.91 0-1.596 0.322-2.072 0.854v-0.644h-2.24v7.028h2.24v-3.444c0-1.176 0.532-1.778 1.344-1.778 0.672 0 1.19 0.504 1.19 1.302v3.92h2.24v-3.444c0-1.176 0.546-1.778 1.372-1.778 0.658 0 1.176 0.504 1.176 1.302v3.92h2.226v-4.396c0-1.708-1.19-2.842-2.688-2.842zm5.448-3.136c-0.756 0-1.288 0.588-1.288 1.274 0 0.714 0.532 1.246 1.288 1.246s1.302-0.532 1.302-1.246c0-0.686-0.546-1.274-1.302-1.274zm1.12 10.374v-7.028h-2.24v7.028h2.24zm6.426-2.072c-0.294 0.168-0.714 0.28-1.022 0.28-0.588 0-0.938-0.294-0.938-1.022v-2.436h2.072v-1.778h-2.072v-2.072h-2.24v2.072h-1.274v1.778h1.274v2.66c0 1.848 1.05 2.8 2.8 2.8 0.798 0 1.372-0.224 1.918-0.518l-0.518-1.764zm5.777-5.166c-0.896 0-1.624 0.322-2.17 0.882v-3.724h-2.24v10.08h2.24v-3.262c0-1.358 0.574-1.96 1.442-1.96 0.728 0 1.218 0.56 1.218 1.386v3.836h2.226v-4.312c0-1.764-1.092-2.926-2.716-2.926z" fill="#2B2B59"/>
<rect x="12" y="290" width="142" height="9" rx="4.5" fill="#E8E8EB"/>
<rect x="12" y="353" width="101" height="9" rx="4.5" fill="#E8E8EB"/>
<rect x="12" y="337" width="137" height="9" rx="4.5" fill="#E8E8EB"/>
<rect x="12" y="321" width="124" height="9" rx="4.5" fill="#E8E8EB"/>
<rect x="12" y="305" width="133" height="9" rx="4.5" fill="#E8E8EB"/>
<defs>
<filter id="i" x="32" y="0" width="182" height="146" color-interpolation-filters="sRGB" filterUnits="userSpaceOnUse">
<feFlood flood-opacity="0" result="BackgroundImageFix"/>
<feColorMatrix in="SourceAlpha" result="hardAlpha" values="0 0 0 0 0 0 0 0 0 0 0 0 0 0 0 0 0 0 127 0"/>
<feOffset dx="2" dy="2"/>
<feGaussianBlur stdDeviation="2"/>
<feComposite in2="hardAlpha" operator="out"/>
<feColorMatrix values="0 0 0 0 0 0 0 0 0 0 0 0 0 0 0 0 0 0 0.04 0"/>
<feBlend in2="BackgroundImageFix" result="effect1_dropShadow_770_1078"/>
<feBlend in="SourceGraphic" in2="effect1_dropShadow_770_1078" result="shape"/>
</filter>
<filter id="h" x="110" y="124" width="182" height="146" color-interpolation-filters="sRGB" filterUnits="userSpaceOnUse">
<feFlood flood-opacity="0" result="BackgroundImageFix"/>
<feColorMatrix in="SourceAlpha" result="hardAlpha" values="0 0 0 0 0 0 0 0 0 0 0 0 0 0 0 0 0 0 127 0"/>
<feOffset dx="2" dy="2"/>
<feGaussianBlur stdDeviation="2"/>
<feComposite in2="hardAlpha" operator="out"/>
<feColorMatrix values="0 0 0 0 0 0 0 0 0 0 0 0 0 0 0 0 0 0 0.04 0"/>
<feBlend in2="BackgroundImageFix" result="effect1_dropShadow_770_1078"/>
<feBlend in="SourceGraphic" in2="effect1_dropShadow_770_1078" result="shape"/>
</filter>
<filter id="g" x="0" y="232" width="182" height="146" color-interpolation-filters="sRGB" filterUnits="userSpaceOnUse">
<feFlood flood-opacity="0" result="BackgroundImageFix"/>
<feColorMatrix in="SourceAlpha" result="hardAlpha" values="0 0 0 0 0 0 0 0 0 0 0 0 0 0 0 0 0 0 127 0"/>
<feOffset dx="2" dy="2"/>
<feGaussianBlur stdDeviation="2"/>
<feComposite in2="hardAlpha" operator="out"/>
<feColorMatrix values="0 0 0 0 0 0 0 0 0 0 0 0 0 0 0 0 0 0 0.04 0"/>
<feBlend in2="BackgroundImageFix" result="effect1_dropShadow_770_1078"/>
<feBlend in="SourceGraphic" in2="effect1_dropShadow_770_1078" result="shape"/>
</filter>
<linearGradient id="c" x1="33.269" x2="77.923" y1="4.7308" y2="50.077" gradientUnits="userSpaceOnUse">
<stop stop-color="#FF6972" offset="0"/>
<stop stop-color="#B903C9" offset="1"/>
</linearGradient>
<linearGradient id="b" x1="111.27" x2="155.92" y1="128.73" y2="174.08" gradientUnits="userSpaceOnUse">
<stop stop-color="#FF6972" offset="0"/>
<stop stop-color="#B903C9" offset="1"/>
</linearGradient>
<linearGradient id="a" x1="1.2692" x2="45.923" y1="236.73" y2="282.08" gradientUnits="userSpaceOnUse">
<stop stop-color="#FF6972" offset="0"/>
<stop stop-color="#B903C9" offset="1"/>
</linearGradient>
<clipPath id="x">
<rect transform="translate(90 30)" width="18" height="18" fill="#fff"/>
</clipPath>
<clipPath id="r">
<rect transform="translate(108 30)" width="18" height="18" fill="#fff"/>
</clipPath>
<clipPath id="q">
<rect transform="translate(126 30)" width="18" height="18" fill="#fff"/>
</clipPath>
<clipPath id="p">
<rect transform="translate(144 30)" width="18" height="18" fill="#fff"/>
</clipPath>
<clipPath id="o">
<rect transform="translate(159 30)" width="18" height="18" fill="#fff"/>
</clipPath>
<clipPath id="n">
<rect transform="translate(168 154)" width="18" height="18" fill="#fff"/>
</clipPath>
<clipPath id="m">
<rect transform="translate(186 154)" width="18" height="18" fill="#fff"/>
</clipPath>
<clipPath id="l">
<rect transform="translate(204 154)" width="18" height="18" fill="#fff"/>
</clipPath>
<clipPath id="k">
<rect transform="translate(222 154)" width="18" height="18" fill="#fff"/>
</clipPath>
<clipPath id="j">
<rect transform="translate(237 154)" width="18" height="18" fill="#fff"/>
</clipPath>
<clipPath id="w">
<rect transform="translate(58 262)" width="18" height="18" fill="#fff"/>
</clipPath>
<clipPath id="v">
<rect transform="translate(76 262)" width="18" height="18" fill="#fff"/>
</clipPath>
<clipPath id="u">
<rect transform="translate(94 262)" width="18" height="18" fill="#fff"/>
</clipPath>
<clipPath id="t">
<rect transform="translate(112 262)" width="18" height="18" fill="#fff"/>
</clipPath>
<clipPath id="s">
<rect transform="translate(127 262)" width="18" height="18" fill="#fff"/>
</clipPath>
</defs>
</svg>
