<?xml version="1.0" encoding="UTF-8"?>
<svg viewBox="0 0 556 413" xmlns="http://www.w3.org/2000/svg">
<path d="m4.4295 341c-2.4464 0-4.4295 1.983-4.4295 4.43v54.025c0 2.447 1.9832 4.43 4.4295 4.43h11.57v5.96c0 1.864 2.1626 2.894 3.6103 1.719l9.4643-7.679h360.5c2.447 0 4.43-1.983 4.43-4.43v-54.025c0-2.447-1.983-4.43-4.43-4.43h-385.14z" clip-rule="evenodd" fill="#3772FF" fill-rule="evenodd"/>
<path d="m25.488 374.15 3.85-6.244h-1.722l-2.87 4.704-2.884-4.704h-1.666l3.794 6.272v3.108h1.498v-3.136zm6.6017-3.962c-2.058 0-3.738 1.47-3.738 3.626s1.68 3.64 3.738 3.64c2.044 0 3.71-1.484 3.71-3.64s-1.666-3.626-3.71-3.626zm0 6.006c-1.218 0-2.31-0.938-2.31-2.38s1.092-2.38 2.31-2.38c1.19 0 2.296 0.938 2.296 2.38s-1.106 2.38-2.296 2.38zm11.808-5.852h-1.456v3.206c0 1.75-0.812 2.59-2.058 2.59-1.008 0-1.666-0.77-1.666-1.904v-3.892h-1.456v4.186c0 1.75 1.106 2.954 2.786 2.954 1.022 0 1.834-0.378 2.394-1.05v0.854h1.456v-6.944zm2.8017 1.274 1.456-3.668v-0.042h-1.694l-0.882 3.71h1.12zm7.0823-1.358c-1.204 0-2.086 0.644-2.646 1.568v-1.484h-1.456v6.944h1.456v-2.45c0-1.904 0.868-3.136 2.632-3.136 0.126 0 0.294 0 0.406 0.014l0.098-1.4c-0.182-0.056-0.322-0.056-0.49-0.056zm8.1219 3.402c-0.07-2.086-1.61-3.514-3.472-3.514-1.96 0-3.598 1.47-3.598 3.682 0 2.198 1.652 3.654 3.542 3.654 1.54 0 2.772-0.728 3.346-2.184l-1.302-0.28c-0.49 0.98-1.274 1.204-2.044 1.204-1.022 0-1.96-0.77-2.1-2.058h5.628v-0.504zm-3.472-2.226c0.952 0 1.75 0.56 1.974 1.694h-4.088c0.224-1.12 1.204-1.694 2.114-1.694zm18.133-1.092h-1.456l-1.582 4.83-1.638-4.83h-1.148l-1.638 4.83-1.582-4.83h-1.456l2.324 6.972h1.33l1.596-4.676 1.596 4.676h1.33l2.324-6.972zm7.7198 3.318c-0.07-2.086-1.61-3.514-3.472-3.514-1.96 0-3.598 1.47-3.598 3.682 0 2.198 1.652 3.654 3.542 3.654 1.54 0 2.772-0.728 3.346-2.184l-1.302-0.28c-0.49 0.98-1.274 1.204-2.044 1.204-1.022 0-1.96-0.77-2.1-2.058h5.628v-0.504zm-3.472-2.226c0.952 0 1.75 0.56 1.974 1.694h-4.088c0.224-1.12 1.204-1.694 2.114-1.694zm6.5401 5.852v-10.08h-1.456v10.08h1.456zm5.2741-1.148c-1.288 0-2.24-0.91-2.24-2.324 0-1.372 0.952-2.324 2.24-2.324 0.924 0 1.722 0.476 1.988 1.498l1.4-0.406c-0.434-1.484-1.82-2.436-3.388-2.436-1.988 0-3.668 1.498-3.668 3.668 0 2.198 1.68 3.668 3.668 3.668 1.61 0 3.01-0.952 3.388-2.45l-1.344-0.35c-0.336 1.008-1.12 1.456-2.044 1.456zm8.1499-5.95c-2.0578 0-3.7378 1.47-3.7378 3.626s1.68 3.64 3.7378 3.64c2.044 0 3.71-1.484 3.71-3.64s-1.666-3.626-3.71-3.626zm0 6.006c-1.2178 0-2.3098-0.938-2.3098-2.38s1.092-2.38 2.3098-2.38c1.19 0 2.296 0.938 2.296 2.38s-1.106 2.38-2.296 2.38zm13.923-6.048c-1.148 0-2.03 0.49-2.59 1.274-0.448-0.812-1.316-1.274-2.31-1.274s-1.722 0.364-2.226 0.98v-0.784h-1.456v6.944h1.456v-3.444c0-1.554 0.728-2.352 1.848-2.352 0.896 0 1.568 0.644 1.568 1.666v4.13h1.456v-3.444c0-1.554 0.742-2.352 1.876-2.352 0.896 0 1.568 0.644 1.568 1.666v4.13h1.442v-4.424c0-1.638-1.19-2.716-2.632-2.716zm11.161 3.514c-0.07-2.086-1.61-3.514-3.472-3.514-1.96 0-3.598 1.47-3.598 3.682 0 2.198 1.652 3.654 3.542 3.654 1.54 0 2.772-0.728 3.346-2.184l-1.302-0.28c-0.49 0.98-1.274 1.204-2.044 1.204-1.022 0-1.96-0.77-2.1-2.058h5.628v-0.504zm-3.472-2.226c0.952 0 1.75 0.56 1.974 1.694h-4.088c0.224-1.12 1.204-1.694 2.114-1.694zm6.736-3.528h-1.596v0.434l0.056 6.02h1.484l0.056-6.02v-0.434zm-0.812 7.658c-0.532 0-0.91 0.406-0.91 0.882 0 0.504 0.378 0.896 0.91 0.896s0.924-0.392 0.924-0.896c0-0.476-0.392-0.882-0.924-0.882zm9.805-7.854c-2.086 0-3.444 1.12-3.444 2.772 0 1.666 1.204 2.282 2.366 2.548l2.044 0.42c0.938 0.196 1.316 0.532 1.316 1.246 0 0.854-0.714 1.456-1.974 1.456s-2.198-0.588-2.422-1.792l-1.596 0.336c0.238 1.82 1.89 2.786 3.878 2.786 2.156 0 3.598-1.106 3.598-2.87 0-1.47-1.008-2.254-2.408-2.562l-2.03-0.434c-0.812-0.168-1.19-0.518-1.19-1.176 0-0.826 0.728-1.428 1.834-1.428 1.12 0 1.974 0.658 2.142 1.652l1.498-0.308c-0.336-1.61-1.708-2.646-3.612-2.646zm12.065 5.95c-0.07-2.086-1.61-3.514-3.472-3.514-1.96 0-3.598 1.47-3.598 3.682 0 2.198 1.652 3.654 3.542 3.654 1.54 0 2.772-0.728 3.346-2.184l-1.302-0.28c-0.49 0.98-1.274 1.204-2.044 1.204-1.022 0-1.96-0.77-2.1-2.058h5.628v-0.504zm-3.472-2.226c0.952 0 1.75 0.56 1.974 1.694h-4.088c0.224-1.12 1.204-1.694 2.114-1.694zm11.552 2.226c-0.07-2.086-1.61-3.514-3.472-3.514-1.96 0-3.598 1.47-3.598 3.682 0 2.198 1.652 3.654 3.542 3.654 1.54 0 2.772-0.728 3.346-2.184l-1.302-0.28c-0.49 0.98-1.274 1.204-2.044 1.204-1.022 0-1.96-0.77-2.1-2.058h5.628v-0.504zm-3.472-2.226c0.952 0 1.75 0.56 1.974 1.694h-4.088c0.224-1.12 1.204-1.694 2.114-1.694zm15.278-1.106h-1.624l-2.226 5.012-2.17-5.012h-1.624l2.996 6.79-1.134 2.548h1.624l4.158-9.338zm4.222-0.14c-2.058 0-3.738 1.47-3.738 3.626s1.68 3.64 3.738 3.64c2.044 0 3.71-1.484 3.71-3.64s-1.666-3.626-3.71-3.626zm0 6.006c-1.218 0-2.31-0.938-2.31-2.38s1.092-2.38 2.31-2.38c1.19 0 2.296 0.938 2.296 2.38s-1.106 2.38-2.296 2.38zm11.808-5.852h-1.456v3.206c0 1.75-0.812 2.59-2.058 2.59-1.008 0-1.666-0.77-1.666-1.904v-3.892h-1.456v4.186c0 1.75 1.106 2.954 2.786 2.954 1.022 0 1.834-0.378 2.394-1.05v0.854h1.456v-6.944zm5.085 5.082c0.182 1.4 1.512 2.058 3.066 2.058 1.736 0 2.926-0.784 2.926-2.24 0-0.98-0.686-1.638-1.806-1.876l-1.652-0.364c-0.616-0.14-0.84-0.392-0.84-0.784 0-0.49 0.378-0.91 1.232-0.91 0.896 0 1.47 0.462 1.582 1.134l1.386-0.294c-0.252-1.162-1.33-2.002-2.926-2.002-1.666 0-2.744 0.91-2.744 2.198 0 0.98 0.686 1.624 1.89 1.89l1.512 0.308c0.644 0.14 0.938 0.406 0.938 0.826 0 0.546-0.532 0.924-1.372 0.924-0.91 0-1.638-0.35-1.736-1.176l-1.456 0.308zm10.779-5.236c-2.058 0-3.738 1.47-3.738 3.626s1.68 3.64 3.738 3.64c2.044 0 3.71-1.484 3.71-3.64s-1.666-3.626-3.71-3.626zm0 6.006c-1.218 0-2.31-0.938-2.31-2.38s1.092-2.38 2.31-2.38c1.19 0 2.296 0.938 2.296 2.38s-1.106 2.38-2.296 2.38zm8.476-6.006c-2.058 0-3.738 1.47-3.738 3.626s1.68 3.64 3.738 3.64c2.044 0 3.71-1.484 3.71-3.64s-1.666-3.626-3.71-3.626zm0 6.006c-1.218 0-2.31-0.938-2.31-2.38s1.092-2.38 2.31-2.38c1.19 0 2.296 0.938 2.296 2.38s-1.106 2.38-2.296 2.38zm9.205-6.048c-1.036 0-1.848 0.378-2.408 1.05v-0.854h-1.456v6.944h1.456v-3.206c0-1.75 0.826-2.59 2.072-2.59 0.994 0 1.652 0.756 1.652 1.89v3.906h1.47v-4.2c0-1.736-1.12-2.94-2.786-2.94zm6.469-2.24h-1.596v0.434l0.056 6.02h1.484l0.056-6.02v-0.434zm-0.812 7.658c-0.532 0-0.91 0.406-0.91 0.882 0 0.504 0.378 0.896 0.91 0.896s0.924-0.392 0.924-0.896c0-0.476-0.392-0.882-0.924-0.882z" fill="#fff"/>
<path d="M4.42953 0C1.98317 0 0 1.98317 0 4.42953V79.5705C0 82.0168 1.98316 84 4.42952 84H16V92.8516C16 94.7087 18.1482 95.7411 19.5983 94.581L32.8246 84H389.57C392.017 84 394 82.0168 394 79.5705V4.42953C394 1.98317 392.017 0 389.57 0H4.42953Z" clip-rule="evenodd" fill="#3772FF" fill-rule="evenodd"/>
<path d="m29.17 26.62h-1.498v3.976h-5.068v-3.976h-1.498v9.38h1.498v-4.032h5.068v4.032h1.498v-9.38zm8.6853 5.754c-0.07-2.086-1.61-3.514-3.472-3.514-1.96 0-3.598 1.47-3.598 3.682 0 2.198 1.652 3.654 3.542 3.654 1.54 0 2.772-0.728 3.3459-2.184l-1.3019-0.28c-0.49 0.98-1.274 1.204-2.044 1.204-1.022 0-1.96-0.77-2.1-2.058h5.628v-0.504zm-3.472-2.226c0.952 0 1.75 0.56 1.974 1.694h-4.088c0.224-1.12 1.204-1.694 2.114-1.694zm6.54 5.852v-10.08h-1.456v10.08h1.456zm3.6641 0v-10.08h-1.456v10.08h1.456zm5.3441-7.098c-2.058 0-3.738 1.47-3.738 3.626s1.68 3.64 3.738 3.64c2.044 0 3.71-1.484 3.71-3.64s-1.666-3.626-3.71-3.626zm0 6.006c-1.218 0-2.31-0.938-2.31-2.38s1.092-2.38 2.31-2.38c1.19 0 2.296 0.938 2.296 2.38s-1.106 2.38-2.296 2.38zm5.126 2.94 1.47-3.682v-0.042h-1.694l-0.882 3.724h1.106zm16.107-8.792h-1.456l-1.582 4.83-1.638-4.83h-1.148l-1.638 4.83-1.582-4.83h-1.456l2.324 6.972h1.33l1.596-4.676 1.596 4.676h1.33l2.324-6.972zm7.7197 3.318c-0.07-2.086-1.61-3.514-3.472-3.514-1.96 0-3.598 1.47-3.598 3.682 0 2.198 1.652 3.654 3.542 3.654 1.54 0 2.772-0.728 3.346-2.184l-1.302-0.28c-0.49 0.98-1.274 1.204-2.044 1.204-1.022 0-1.96-0.77-2.1-2.058h5.628v-0.504zm-3.472-2.226c0.952 0 1.75 0.56 1.974 1.694h-4.088c0.224-1.12 1.204-1.694 2.114-1.694zm12.407-1.288c-1.036 0-1.848 0.378-2.408 1.05v-3.99h-1.456v10.08h1.456v-3.206c0-1.75 0.826-2.59 2.072-2.59 0.994 0 1.652 0.756 1.652 1.89v3.906h1.47v-4.2c0-1.736-1.12-2.94-2.786-2.94zm7.9673 0.042c-2.058 0-3.738 1.47-3.738 3.626s1.68 3.64 3.738 3.64c2.044 0 3.71-1.484 3.71-3.64s-1.666-3.626-3.71-3.626zm0 6.006c-1.218 0-2.31-0.938-2.31-2.38s1.092-2.38 2.31-2.38c1.19 0 2.296 0.938 2.296 2.38s-1.106 2.38-2.296 2.38zm9.3161-6.048c-1.05 0-1.918 0.364-2.52 0.994v-0.798h-1.456v9.324h1.456v-3.178c0.602 0.63 1.47 0.994 2.52 0.994 1.82 0 3.444-1.47 3.444-3.668 0-2.184-1.624-3.668-3.444-3.668zm-0.238 6.048c-1.148 0-2.282-0.91-2.282-2.38 0-1.456 1.134-2.38 2.282-2.38 1.274 0 2.268 0.924 2.268 2.38 0 1.47-0.994 2.38-2.268 2.38zm11.754-2.534c-0.07-2.086-1.61-3.514-3.472-3.514-1.96 0-3.598 1.47-3.598 3.682 0 2.198 1.652 3.654 3.542 3.654 1.54 0 2.772-0.728 3.346-2.184l-1.302-0.28c-0.49 0.98-1.274 1.204-2.044 1.204-1.022 0-1.96-0.77-2.1-2.058h5.628v-0.504zm-3.472-2.226c0.952 0 1.75 0.56 1.974 1.694h-4.088c0.224-1.12 1.204-1.694 2.114-1.694zm15.277-1.106h-1.624l-2.226 5.012-2.17-5.012h-1.624l2.996 6.79-1.134 2.548h1.624l4.158-9.338zm4.222-0.14c-2.058 0-3.738 1.47-3.738 3.626s1.68 3.64 3.738 3.64c2.044 0 3.71-1.484 3.71-3.64s-1.666-3.626-3.71-3.626zm0 6.006c-1.218 0-2.31-0.938-2.31-2.38s1.092-2.38 2.31-2.38c1.19 0 2.296 0.938 2.296 2.38s-1.106 2.38-2.296 2.38zm11.809-5.852h-1.456v3.206c0 1.75-0.812 2.59-2.058 2.59-1.008 0-1.666-0.77-1.666-1.904v-3.892h-1.456v4.186c0 1.75 1.106 2.954 2.786 2.954 1.022 0 1.834-0.378 2.394-1.05v0.854h1.456v-6.944zm12.14 3.318c-0.07-2.086-1.61-3.514-3.472-3.514-1.96 0-3.598 1.47-3.598 3.682 0 2.198 1.652 3.654 3.542 3.654 1.54 0 2.772-0.728 3.346-2.184l-1.302-0.28c-0.49 0.98-1.274 1.204-2.044 1.204-1.022 0-1.96-0.77-2.1-2.058h5.628v-0.504zm-3.472-2.226c0.952 0 1.75 0.56 1.974 1.694h-4.088c0.224-1.12 1.204-1.694 2.114-1.694zm8.949-1.288c-1.036 0-1.848 0.378-2.408 1.05v-0.854h-1.456v6.944h1.456v-3.206c0-1.75 0.826-2.59 2.072-2.59 0.994 0 1.652 0.756 1.652 1.89v3.906h1.47v-4.2c0-1.736-1.12-2.94-2.786-2.94zm5.839-2.8c-0.532 0-0.924 0.42-0.924 0.91 0 0.518 0.392 0.896 0.924 0.896s0.938-0.378 0.938-0.896c0-0.49-0.406-0.91-0.938-0.91zm-2.422 12.208c0.35 0.14 0.77 0.252 1.288 0.252 1.134 0 1.89-0.756 1.89-1.876v-7.588h-1.456v7.392c0 0.42-0.322 0.7-0.784 0.7-0.196 0-0.42-0.056-0.658-0.154l-0.28 1.274zm8.61-9.366c-2.058 0-3.738 1.47-3.738 3.626s1.68 3.64 3.738 3.64c2.044 0 3.71-1.484 3.71-3.64s-1.666-3.626-3.71-3.626zm0 6.006c-1.218 0-2.31-0.938-2.31-2.38s1.092-2.38 2.31-2.38c1.19 0 2.296 0.938 2.296 2.38s-1.106 2.38-2.296 2.38zm11.87-5.866h-1.624l-2.226 5.012-2.17-5.012h-1.624l2.996 6.79-1.134 2.548h1.624l4.158-9.338zm7.554 3.332c-0.07-2.086-1.61-3.514-3.472-3.514-1.96 0-3.598 1.47-3.598 3.682 0 2.198 1.652 3.654 3.542 3.654 1.54 0 2.772-0.728 3.346-2.184l-1.302-0.28c-0.49 0.98-1.274 1.204-2.044 1.204-1.022 0-1.96-0.77-2.1-2.058h5.628v-0.504zm-3.472-2.226c0.952 0 1.75 0.56 1.974 1.694h-4.088c0.224-1.12 1.204-1.694 2.114-1.694zm11.916-4.228h-1.47v3.934c-0.616-0.63-1.47-0.994-2.52-0.994-1.806 0-3.444 1.484-3.444 3.668 0 2.198 1.638 3.668 3.444 3.668 1.05 0 1.904-0.364 2.52-0.98v0.784h1.47v-10.08zm-3.752 8.988c-1.26 0-2.254-0.91-2.254-2.38 0-1.456 0.994-2.38 2.254-2.38 1.162 0 2.282 0.924 2.282 2.38 0 1.47-1.12 2.38-2.282 2.38zm12.539-6.006c-2.058 0-3.738 1.47-3.738 3.626s1.68 3.64 3.738 3.64c2.044 0 3.71-1.484 3.71-3.64s-1.666-3.626-3.71-3.626zm0 6.006c-1.218 0-2.31-0.938-2.31-2.38s1.092-2.38 2.31-2.38c1.19 0 2.296 0.938 2.296 2.38s-1.106 2.38-2.296 2.38zm11.808-5.852h-1.456v3.206c0 1.75-0.812 2.59-2.058 2.59-1.008 0-1.666-0.77-1.666-1.904v-3.892h-1.456v4.186c0 1.75 1.106 2.954 2.786 2.954 1.022 0 1.834-0.378 2.394-1.05v0.854h1.456v-6.944zm6.316-0.084c-1.204 0-2.086 0.644-2.646 1.568v-1.484h-1.456v6.944h1.456v-2.45c0-1.904 0.868-3.136 2.632-3.136 0.126 0 0.294 0 0.406 0.014l0.098-1.4c-0.182-0.056-0.322-0.056-0.49-0.056zm4.648 5.166c0.182 1.4 1.512 2.058 3.066 2.058 1.736 0 2.926-0.784 2.926-2.24 0-0.98-0.686-1.638-1.806-1.876l-1.652-0.364c-0.616-0.14-0.84-0.392-0.84-0.784 0-0.49 0.378-0.91 1.232-0.91 0.896 0 1.47 0.462 1.582 1.134l1.386-0.294c-0.252-1.162-1.33-2.002-2.926-2.002-1.666 0-2.744 0.91-2.744 2.198 0 0.98 0.686 1.624 1.89 1.89l1.512 0.308c0.644 0.14 0.938 0.406 0.938 0.826 0 0.546-0.532 0.924-1.372 0.924-0.91 0-1.638-0.35-1.736-1.176l-1.456 0.308zm14.111-1.764c-0.07-2.086-1.61-3.514-3.472-3.514-1.96 0-3.598 1.47-3.598 3.682 0 2.198 1.652 3.654 3.542 3.654 1.54 0 2.772-0.728 3.345-2.184l-1.301-0.28c-0.49 0.98-1.274 1.204-2.044 1.204-1.022 0-1.96-0.77-2.1-2.058h5.628v-0.504zm-3.472-2.226c0.952 0 1.75 0.56 1.974 1.694h-4.088c0.224-1.12 1.204-1.694 2.114-1.694zm9.186-1.176c-1.204 0-2.086 0.644-2.646 1.568v-1.484h-1.456v6.944h1.456v-2.45c0-1.904 0.868-3.136 2.632-3.136 0.126 0 0.294 0 0.406 0.014l0.098-1.4c-0.182-0.056-0.322-0.056-0.49-0.056zm8.398 0.07h-1.582l-2.184 5.222-2.184-5.222h-1.582l2.982 6.958h1.554l2.996-6.958zm2.135-2.982c-0.546 0-0.938 0.42-0.938 0.91 0 0.518 0.392 0.896 0.938 0.896 0.532 0 0.924-0.378 0.924-0.896 0-0.49-0.392-0.91-0.924-0.91zm0.728 9.94v-6.944h-1.456v6.944h1.456zm5.38-1.148c-1.288 0-2.24-0.91-2.24-2.324 0-1.372 0.952-2.324 2.24-2.324 0.924 0 1.722 0.476 1.988 1.498l1.4-0.406c-0.434-1.484-1.82-2.436-3.388-2.436-1.988 0-3.668 1.498-3.668 3.668 0 2.198 1.68 3.668 3.668 3.668 1.61 0 3.01-0.952 3.388-2.45l-1.344-0.35c-0.336 1.008-1.12 1.456-2.044 1.456zm11.482-2.478c-0.07-2.086-1.61-3.514-3.472-3.514-1.96 0-3.598 1.47-3.598 3.682 0 2.198 1.652 3.654 3.542 3.654 1.54 0 2.772-0.728 3.346-2.184l-1.302-0.28c-0.49 0.98-1.274 1.204-2.044 1.204-1.022 0-1.96-0.77-2.1-2.058h5.628v-0.504zm-3.472-2.226c0.952 0 1.75 0.56 1.974 1.694h-4.088c0.224-1.12 1.204-1.694 2.114-1.694zm5.355 4.13c-0.532 0-0.924 0.406-0.924 0.882 0 0.504 0.392 0.896 0.924 0.896s0.91-0.392 0.91-0.896c0-0.476-0.378-0.882-0.91-0.882zm6.101-7.658v9.38h1.498v-3.304h2.73c2.072 0 3.374-1.232 3.374-3.052 0-1.792-1.302-3.024-3.374-3.024h-4.228zm1.498 4.704v-3.346h2.73c1.176 0 1.876 0.7 1.876 1.666 0 1.008-0.7 1.68-1.876 1.68h-2.73zm9.172 4.676v-10.08h-1.456v10.08h1.456zm8.676-3.626c-0.07-2.086-1.61-3.514-3.472-3.514-1.96 0-3.598 1.47-3.598 3.682 0 2.198 1.652 3.654 3.542 3.654 1.54 0 2.772-0.728 3.346-2.184l-1.302-0.28c-0.49 0.98-1.274 1.204-2.044 1.204-1.022 0-1.96-0.77-2.1-2.058h5.628v-0.504zm-3.472-2.226c0.952 0 1.75 0.56 1.974 1.694h-4.088c0.224-1.12 1.204-1.694 2.114-1.694zm11.875-1.092h-1.456v0.798c-0.602-0.63-1.47-0.994-2.52-0.994-1.82 0-3.444 1.484-3.444 3.668 0 2.198 1.624 3.668 3.444 3.668 1.05 0 1.918-0.364 2.52-0.994v0.798h1.456v-6.944zm-3.738 5.852c-1.274 0-2.268-0.91-2.268-2.38 0-1.456 0.994-2.38 2.268-2.38 1.148 0 2.282 0.924 2.282 2.38 0 1.47-1.134 2.38-2.282 2.38zm5.356-0.77c0.182 1.4 1.512 2.058 3.066 2.058 1.736 0 2.926-0.784 2.926-2.24 0-0.98-0.686-1.638-1.806-1.876l-1.652-0.364c-0.616-0.14-0.84-0.392-0.84-0.784 0-0.49 0.378-0.91 1.232-0.91 0.896 0 1.47 0.462 1.582 1.134l1.386-0.294c-0.252-1.162-1.33-2.002-2.926-2.002-1.666 0-2.744 0.91-2.744 2.198 0 0.98 0.686 1.624 1.89 1.89l1.512 0.308c0.644 0.14 0.938 0.406 0.938 0.826 0 0.546-0.532 0.924-1.372 0.924-0.91 0-1.638-0.35-1.736-1.176l-1.456 0.308zm14.11-1.764c-0.07-2.086-1.61-3.514-3.472-3.514-1.96 0-3.598 1.47-3.598 3.682 0 2.198 1.652 3.654 3.542 3.654 1.54 0 2.772-0.728 3.346-2.184l-1.302-0.28c-0.49 0.98-1.274 1.204-2.044 1.204-1.022 0-1.96-0.77-2.1-2.058h5.628v-0.504zm-3.472-2.226c0.952 0 1.75 0.56 1.974 1.694h-4.088c0.224-1.12 1.204-1.694 2.114-1.694zm9.999 5.852v-10.08h-1.456v10.08h1.456zm8.676-3.626c-0.07-2.086-1.61-3.514-3.472-3.514-1.96 0-3.598 1.47-3.598 3.682 0 2.198 1.652 3.654 3.542 3.654 1.54 0 2.772-0.728 3.346-2.184l-1.302-0.28c-0.49 0.98-1.274 1.204-2.044 1.204-1.022 0-1.96-0.77-2.1-2.058h5.628v-0.504zm-3.472-2.226c0.952 0 1.75 0.56 1.974 1.694h-4.088c0.224-1.12 1.204-1.694 2.114-1.694zm11.875-1.092h-1.456v0.798c-0.602-0.63-1.47-0.994-2.52-0.994-1.82 0-3.444 1.484-3.444 3.668 0 2.198 1.624 3.668 3.444 3.668 1.05 0 1.918-0.364 2.52-0.994v0.798h1.456v-6.944zm-3.738 5.852c-1.274 0-2.268-0.91-2.268-2.38 0-1.456 0.994-2.38 2.268-2.38 1.148 0 2.282 0.924 2.282 2.38 0 1.47-1.134 2.38-2.282 2.38zm12.566-5.866h-1.582l-2.184 5.222-2.184-5.222h-1.582l2.982 6.958h1.554l2.996-6.958zm7.557 3.332c-0.07-2.086-1.61-3.514-3.472-3.514-1.96 0-3.598 1.47-3.598 3.682 0 2.198 1.652 3.654 3.542 3.654 1.54 0 2.772-0.728 3.346-2.184l-1.302-0.28c-0.49 0.98-1.274 1.204-2.044 1.204-1.022 0-1.96-0.77-2.1-2.058h5.628v-0.504zm-3.472-2.226c0.952 0 1.75 0.56 1.974 1.694h-4.088c0.224-1.12 1.204-1.694 2.114-1.694zm-341.88 20.908h-1.456v3.206c0 1.75-0.812 2.59-2.058 2.59-1.008 0-1.666-0.77-1.666-1.904v-3.892h-1.456v4.186c0 1.75 1.106 2.954 2.786 2.954 1.022 0 1.834-0.378 2.394-1.05v0.854h1.456v-6.944zm1.5299 5.082c0.182 1.4 1.512 2.058 3.066 2.058 1.736 0 2.926-0.784 2.926-2.24 0-0.98-0.686-1.638-1.806-1.876l-1.652-0.364c-0.616-0.14-0.84-0.392-0.84-0.784 0-0.49 0.378-0.91 1.232-0.91 0.896 0 1.47 0.462 1.582 1.134l1.386-0.294c-0.252-1.162-1.33-2.002-2.926-2.002-1.666 0-2.744 0.91-2.744 2.198 0 0.98 0.686 1.624 1.89 1.89l1.512 0.308c0.644 0.14 0.938 0.406 0.938 0.826 0 0.546-0.532 0.924-1.372 0.924-0.91 0-1.638-0.35-1.736-1.176l-1.456 0.308zm17.892-5.082h-1.456v0.798c-0.602-0.63-1.47-0.994-2.52-0.994-1.82 0-3.444 1.484-3.444 3.668 0 2.198 1.624 3.668 3.444 3.668 1.05 0 1.918-0.364 2.52-0.994v0.798h1.456v-6.944zm-3.738 5.852c-1.274 0-2.268-0.91-2.268-2.38 0-1.456 0.994-2.38 2.268-2.38 1.148 0 2.282 0.924 2.282 2.38 0 1.47-1.134 2.38-2.282 2.38zm13.505-5.936c-1.204 0-2.086 0.644-2.646 1.568v-1.484h-1.456v6.944h1.456v-2.45c0-1.904 0.868-3.136 2.632-3.136 0.126 0 0.294 0 0.406 0.014l0.098-1.4c-0.182-0.056-0.322-0.056-0.49-0.056zm8.1218 3.402c-0.07-2.086-1.61-3.514-3.472-3.514-1.96 0-3.598 1.47-3.598 3.682 0 2.198 1.652 3.654 3.542 3.654 1.54 0 2.772-0.728 3.346-2.184l-1.302-0.28c-0.49 0.98-1.274 1.204-2.044 1.204-1.022 0-1.96-0.77-2.1-2.058h5.628v-0.504zm-3.472-2.226c0.952 0 1.75 0.56 1.974 1.694h-4.088c0.224-1.12 1.204-1.694 2.114-1.694zm11.501-1.106h-1.582l-2.184 5.222-2.184-5.222h-1.582l2.982 6.958h1.554l2.996-6.958zm2.1341-2.982c-0.546 0-0.938 0.42-0.938 0.91 0 0.518 0.392 0.896 0.938 0.896 0.532 0 0.924-0.378 0.924-0.896 0-0.49-0.392-0.91-0.924-0.91zm0.728 9.94v-6.944h-1.456v6.944h1.456zm8.7828-3.626c-0.07-2.086-1.61-3.514-3.472-3.514-1.96 0-3.598 1.47-3.598 3.682 0 2.198 1.652 3.654 3.542 3.654 1.54 0 2.772-0.728 3.346-2.184l-1.302-0.28c-0.49 0.98-1.274 1.204-2.044 1.204-1.022 0-1.96-0.77-2.1-2.058h5.628v-0.504zm-3.472-2.226c0.952 0 1.75 0.56 1.974 1.694h-4.088c0.224-1.12 1.204-1.694 2.114-1.694zm14.619-1.092h-1.456l-1.582 4.83-1.638-4.83h-1.148l-1.638 4.83-1.582-4.83h-1.456l2.324 6.972h1.33l1.596-4.676 1.596 4.676h1.33l2.324-6.972zm8.6292-0.196c-1.036 0-1.848 0.378-2.408 1.05v-3.99h-1.456v10.08h1.456v-3.206c0-1.75 0.826-2.59 2.072-2.59 0.994 0 1.652 0.756 1.652 1.89v3.906h1.47v-4.2c0-1.736-1.12-2.94-2.786-2.94zm11.3 3.514c-0.07-2.086-1.61-3.514-3.472-3.514-1.96 0-3.598 1.47-3.598 3.682 0 2.198 1.652 3.654 3.542 3.654 1.54 0 2.772-0.728 3.346-2.184l-1.302-0.28c-0.49 0.98-1.274 1.204-2.044 1.204-1.022 0-1.96-0.77-2.1-2.058h5.628v-0.504zm-3.472-2.226c0.952 0 1.75 0.56 1.974 1.694h-4.088c0.224-1.12 1.204-1.694 2.114-1.694zm9.186-1.176c-1.204 0-2.086 0.644-2.646 1.568v-1.484h-1.456v6.944h1.456v-2.45c0-1.904 0.868-3.136 2.632-3.136 0.126 0 0.294 0 0.406 0.014l0.098-1.4c-0.182-0.056-0.322-0.056-0.49-0.056zm8.121 3.402c-0.07-2.086-1.61-3.514-3.472-3.514-1.96 0-3.598 1.47-3.598 3.682 0 2.198 1.652 3.654 3.542 3.654 1.54 0 2.772-0.728 3.346-2.184l-1.302-0.28c-0.49 0.98-1.274 1.204-2.044 1.204-1.022 0-1.96-0.77-2.1-2.058h5.628v-0.504zm-3.472-2.226c0.952 0 1.75 0.56 1.974 1.694h-4.088c0.224-1.12 1.204-1.694 2.114-1.694zm5.533-0.77c-0.532 0-0.924 0.406-0.924 0.882 0 0.504 0.392 0.882 0.924 0.882s0.91-0.378 0.91-0.882c0-0.476-0.378-0.882-0.91-0.882zm0 4.9c-0.532 0-0.924 0.406-0.924 0.882 0 0.504 0.392 0.896 0.924 0.896s0.91-0.392 0.91-0.896c0-0.476-0.378-0.882-0.91-0.882zm9.964-5.418c-1.036 0-1.848 0.378-2.408 1.05v-3.99h-1.456v10.08h1.456v-3.206c0-1.75 0.826-2.59 2.072-2.59 0.994 0 1.652 0.756 1.652 1.89v3.906h1.47v-4.2c0-1.736-1.12-2.94-2.786-2.94zm9.004 5.586c-0.364 0.238-0.812 0.378-1.176 0.378-0.686 0-1.148-0.42-1.148-1.288v-3.276h2.38v-1.204h-2.38v-2.156h-1.456v2.156h-1.498v1.204h1.498v3.374c0 1.722 1.008 2.562 2.506 2.562 0.588 0 1.064-0.14 1.722-0.532l-0.448-1.218zm5.797 0c-0.364 0.238-0.812 0.378-1.176 0.378-0.686 0-1.148-0.42-1.148-1.288v-3.276h2.38v-1.204h-2.38v-2.156h-1.456v2.156h-1.498v1.204h1.498v3.374c0 1.722 1.008 2.562 2.506 2.562 0.588 0 1.064-0.14 1.722-0.532l-0.448-1.218zm5.6-5.586c-1.05 0-1.918 0.364-2.52 0.994v-0.798h-1.456v9.324h1.456v-3.178c0.602 0.63 1.47 0.994 2.52 0.994 1.82 0 3.444-1.47 3.444-3.668 0-2.184-1.624-3.668-3.444-3.668zm-0.238 6.048c-1.148 0-2.282-0.91-2.282-2.38 0-1.456 1.134-2.38 2.282-2.38 1.274 0 2.268 0.924 2.268 2.38 0 1.47-0.994 2.38-2.268 2.38zm4.698-0.77c0.182 1.4 1.512 2.058 3.066 2.058 1.736 0 2.926-0.784 2.926-2.24 0-0.98-0.686-1.638-1.806-1.876l-1.652-0.364c-0.616-0.14-0.84-0.392-0.84-0.784 0-0.49 0.378-0.91 1.232-0.91 0.896 0 1.47 0.462 1.582 1.134l1.386-0.294c-0.252-1.162-1.33-2.002-2.926-2.002-1.666 0-2.744 0.91-2.744 2.198 0 0.98 0.686 1.624 1.89 1.89l1.512 0.308c0.644 0.14 0.938 0.406 0.938 0.826 0 0.546-0.532 0.924-1.372 0.924-0.91 0-1.638-0.35-1.736-1.176l-1.456 0.308zm8.091-4.76c-0.532 0-0.924 0.406-0.924 0.882 0 0.504 0.392 0.882 0.924 0.882s0.91-0.378 0.91-0.882c0-0.476-0.378-0.882-0.91-0.882zm0 4.9c-0.532 0-0.924 0.406-0.924 0.882 0 0.504 0.392 0.896 0.924 0.896s0.91-0.392 0.91-0.896c0-0.476-0.378-0.882-0.91-0.882zm6.911-8.652h-1.218l-4.032 11.382h1.218l4.032-11.382zm4.225 0h-1.218l-4.032 11.382h1.218l4.032-11.382zm10.707 3.43h-1.456l-1.582 4.83-1.638-4.83h-1.148l-1.638 4.83-1.582-4.83h-1.456l2.324 6.972h1.33l1.596-4.676 1.596 4.676h1.33l2.324-6.972zm10.896 0h-1.456l-1.582 4.83-1.638-4.83h-1.148l-1.638 4.83-1.582-4.83h-1.456l2.324 6.972h1.33l1.596-4.676 1.596 4.676h1.33l2.324-6.972zm10.897 0h-1.456l-1.582 4.83-1.638-4.83h-1.148l-1.638 4.83-1.582-4.83h-1.456l2.324 6.972h1.33l1.596-4.676 1.596 4.676h1.33l2.324-6.972zm1.481 5.222c-0.532 0-0.924 0.406-0.924 0.882 0 0.504 0.392 0.896 0.924 0.896s0.91-0.392 0.91-0.896c0-0.476-0.378-0.882-0.91-0.882zm6.744-5.306c-1.204 0-2.086 0.644-2.646 1.568v-1.484h-1.456v6.944h1.456v-2.45c0-1.904 0.868-3.136 2.632-3.136 0.126 0 0.294 0 0.406 0.014l0.098-1.4c-0.182-0.056-0.322-0.056-0.49-0.056zm8.121 3.402c-0.07-2.086-1.61-3.514-3.472-3.514-1.96 0-3.598 1.47-3.598 3.682 0 2.198 1.652 3.654 3.542 3.654 1.54 0 2.772-0.728 3.346-2.184l-1.302-0.28c-0.49 0.98-1.274 1.204-2.044 1.204-1.022 0-1.96-0.77-2.1-2.058h5.628v-0.504zm-3.472-2.226c0.952 0 1.75 0.56 1.974 1.694h-4.088c0.224-1.12 1.204-1.694 2.114-1.694zm11.501-1.106h-1.582l-2.184 5.222-2.184-5.222h-1.582l2.982 6.958h1.554l2.996-6.958zm2.134-2.982c-0.546 0-0.938 0.42-0.938 0.91 0 0.518 0.392 0.896 0.938 0.896 0.532 0 0.924-0.378 0.924-0.896 0-0.49-0.392-0.91-0.924-0.91zm0.728 9.94v-6.944h-1.456v6.944h1.456zm8.783-3.626c-0.07-2.086-1.61-3.514-3.472-3.514-1.96 0-3.598 1.47-3.598 3.682 0 2.198 1.652 3.654 3.542 3.654 1.54 0 2.772-0.728 3.346-2.184l-1.302-0.28c-0.49 0.98-1.274 1.204-2.044 1.204-1.022 0-1.96-0.77-2.1-2.058h5.628v-0.504zm-3.472-2.226c0.952 0 1.75 0.56 1.974 1.694h-4.088c0.224-1.12 1.204-1.694 2.114-1.694zm14.62-1.092h-1.456l-1.582 4.83-1.638-4.83h-1.148l-1.638 4.83-1.582-4.83h-1.456l2.324 6.972h1.33l1.596-4.676 1.596 4.676h1.33l2.324-6.972zm0.718 5.082c0.182 1.4 1.512 2.058 3.066 2.058 1.736 0 2.926-0.784 2.926-2.24 0-0.98-0.686-1.638-1.806-1.876l-1.652-0.364c-0.616-0.14-0.84-0.392-0.84-0.784 0-0.49 0.378-0.91 1.232-0.91 0.896 0 1.47 0.462 1.582 1.134l1.386-0.294c-0.252-1.162-1.33-2.002-2.926-2.002-1.666 0-2.744 0.91-2.744 2.198 0 0.98 0.686 1.624 1.89 1.89l1.512 0.308c0.644 0.14 0.938 0.406 0.938 0.826 0 0.546-0.532 0.924-1.372 0.924-0.91 0-1.638-0.35-1.736-1.176l-1.456 0.308zm11.507-5.278c-1.036 0-1.848 0.378-2.408 1.05v-3.99h-1.456v10.08h1.456v-3.206c0-1.75 0.826-2.59 2.072-2.59 0.994 0 1.652 0.756 1.652 1.89v3.906h1.47v-4.2c0-1.736-1.12-2.94-2.786-2.94zm11.621 0.196h-1.456v0.798c-0.602-0.63-1.47-0.994-2.52-0.994-1.82 0-3.444 1.484-3.444 3.668 0 2.198 1.624 3.668 3.444 3.668 1.05 0 1.918-0.364 2.52-0.994v0.798h1.456v-6.944zm-3.738 5.852c-1.274 0-2.268-0.91-2.268-2.38 0-1.456 0.994-2.38 2.268-2.38 1.148 0 2.282 0.924 2.282 2.38 0 1.47-1.134 2.38-2.282 2.38zm13 1.092-4.046-3.584 3.64-3.36h-1.862l-2.898 2.618h-0.434v-5.754h-1.456v10.08h1.456v-2.884h0.42l3.206 2.884h1.974zm7.219-3.626c-0.07-2.086-1.61-3.514-3.472-3.514-1.96 0-3.598 1.47-3.598 3.682 0 2.198 1.652 3.654 3.542 3.654 1.54 0 2.772-0.728 3.346-2.184l-1.302-0.28c-0.49 0.98-1.274 1.204-2.044 1.204-1.022 0-1.96-0.77-2.1-2.058h5.628v-0.504zm-3.472-2.226c0.952 0 1.75 0.56 1.974 1.694h-4.088c0.224-1.12 1.204-1.694 2.114-1.694zm5.354 4.13c-0.532 0-0.924 0.406-0.924 0.882 0 0.504 0.392 0.896 0.924 0.896s0.91-0.392 0.91-0.896c0-0.476-0.378-0.882-0.91-0.882zm5.53 0.574c-1.288 0-2.24-0.91-2.24-2.324 0-1.372 0.952-2.324 2.24-2.324 0.924 0 1.722 0.476 1.988 1.498l1.4-0.406c-0.434-1.484-1.82-2.436-3.388-2.436-1.988 0-3.668 1.498-3.668 3.668 0 2.198 1.68 3.668 3.668 3.668 1.61 0 3.01-0.952 3.388-2.45l-1.344-0.35c-0.336 1.008-1.12 1.456-2.044 1.456zm8.15-5.95c-2.058 0-3.738 1.47-3.738 3.626s1.68 3.64 3.738 3.64c2.044 0 3.71-1.484 3.71-3.64s-1.666-3.626-3.71-3.626zm0 6.006c-1.218 0-2.31-0.938-2.31-2.38s1.092-2.38 2.31-2.38c1.19 0 2.296 0.938 2.296 2.38s-1.106 2.38-2.296 2.38zm13.923-6.048c-1.148 0-2.03 0.49-2.59 1.274-0.448-0.812-1.316-1.274-2.31-1.274s-1.722 0.364-2.226 0.98v-0.784h-1.456v6.944h1.456v-3.444c0-1.554 0.728-2.352 1.848-2.352 0.896 0 1.568 0.644 1.568 1.666v4.13h1.456v-3.444c0-1.554 0.742-2.352 1.876-2.352 0.896 0 1.568 0.644 1.568 1.666v4.13h1.442v-4.424c0-1.638-1.19-2.716-2.632-2.716zm8.963-3.234h-1.218l-4.032 11.382h1.218l4.032-11.382z" fill="#fff"/>
<path d="m136.52 59.4h207.63v0.7h-207.63v-0.7z" fill="#fff"/>
<mask id="a" fill="white">
<path d="m166.43 104c-2.447 0-4.43 1.983-4.43 4.43v53.14c0 2.447 1.983 4.43 4.43 4.43h359.79l9.477 7.581c1.45 1.16 3.598 0.128 3.598-1.729v-5.852h12.275c2.447 0 4.43-1.983 4.43-4.43v-53.14c0-2.447-1.983-4.43-4.43-4.43h-385.14z" clip-rule="evenodd" fill-rule="evenodd"/>
</mask>
<path d="m166.43 104c-2.447 0-4.43 1.983-4.43 4.43v53.14c0 2.447 1.983 4.43 4.43 4.43h359.79l9.477 7.581c1.45 1.16 3.598 0.128 3.598-1.729v-5.852h12.275c2.447 0 4.43-1.983 4.43-4.43v-53.14c0-2.447-1.983-4.43-4.43-4.43h-385.14z" clip-rule="evenodd" fill="#E4E4E4" fill-rule="evenodd"/>
<path d="m526.22 166 0.625-0.781-0.274-0.219h-0.351v1zm9.477 7.581-0.625 0.781 0.625-0.781zm3.598-7.581v-1h-1v1h1zm-376.3-57.57c0-1.895 1.535-3.43 3.43-3.43v-2c-2.999 0-5.43 2.431-5.43 5.43h2zm0 53.14v-53.14h-2v53.14h2zm3.43 3.43c-1.895 0-3.43-1.535-3.43-3.43h-2c0 2.999 2.431 5.43 5.43 5.43v-2zm359.79 0h-359.79v2h359.79v-2zm-0.624 1.781 9.476 7.581 1.249-1.562-9.476-7.581-1.249 1.562zm9.476 7.581c2.105 1.684 5.223 0.185 5.223-2.51h-2c0 1.018-1.178 1.584-1.974 0.948l-1.249 1.562zm5.223-2.51v-5.852h-2v5.852h2zm11.275-6.852h-12.275v2h12.275v-2zm3.43-3.43c0 1.895-1.535 3.43-3.43 3.43v2c2.999 0 5.43-2.431 5.43-5.43h-2zm0-53.14v53.14h2v-53.14h-2zm-3.43-3.43c1.895 0 3.43 1.535 3.43 3.43h2c0-2.999-2.431-5.43-5.43-5.43v2zm-385.14 0h385.14v-2h-385.14v2z" fill="#E0E0E0" mask="url(#a)"/>
<path d="m190.43 131.98v-1.358h-8.106v1.358h3.29v8.022h1.512v-8.022h3.304zm5.292 0.882c-1.036 0-1.848 0.378-2.408 1.05v-3.99h-1.456v10.08h1.456v-3.206c0-1.75 0.826-2.59 2.072-2.59 0.994 0 1.652 0.756 1.652 1.89v3.906h1.47v-4.2c0-1.736-1.12-2.94-2.786-2.94zm11.621 0.196h-1.456v0.798c-0.602-0.63-1.47-0.994-2.52-0.994-1.82 0-3.444 1.484-3.444 3.668 0 2.198 1.624 3.668 3.444 3.668 1.05 0 1.918-0.364 2.52-0.994v0.798h1.456v-6.944zm-3.738 5.852c-1.274 0-2.268-0.91-2.268-2.38 0-1.456 0.994-2.38 2.268-2.38 1.148 0 2.282 0.924 2.282 2.38 0 1.47-1.134 2.38-2.282 2.38zm9.808-6.048c-1.036 0-1.848 0.378-2.408 1.05v-0.854h-1.456v6.944h1.456v-3.206c0-1.75 0.826-2.59 2.072-2.59 0.994 0 1.652 0.756 1.652 1.89v3.906h1.47v-4.2c0-1.736-1.12-2.94-2.786-2.94zm11.874 7.14-4.046-3.584 3.64-3.36h-1.862l-2.898 2.618h-0.434v-5.754h-1.456v10.08h1.456v-2.884h0.42l3.206 2.884h1.974zm11.34-6.958h-1.624l-2.226 5.012-2.17-5.012h-1.624l2.996 6.79-1.134 2.548h1.624l4.158-9.338zm4.222-0.14c-2.058 0-3.738 1.47-3.738 3.626s1.68 3.64 3.738 3.64c2.044 0 3.71-1.484 3.71-3.64s-1.666-3.626-3.71-3.626zm0 6.006c-1.218 0-2.31-0.938-2.31-2.38s1.092-2.38 2.31-2.38c1.19 0 2.296 0.938 2.296 2.38s-1.106 2.38-2.296 2.38zm11.809-5.852h-1.456v3.206c0 1.75-0.812 2.59-2.058 2.59-1.008 0-1.666-0.77-1.666-1.904v-3.892h-1.456v4.186c0 1.75 1.106 2.954 2.786 2.954 1.022 0 1.834-0.378 2.394-1.05v0.854h1.456v-6.944zm3.866-2.436h-1.596v0.434l0.056 6.02h1.484l0.056-6.02v-0.434zm-0.812 7.658c-0.532 0-0.91 0.406-0.91 0.882 0 0.504 0.378 0.896 0.91 0.896s0.924-0.392 0.924-0.896c0-0.476-0.392-0.882-0.924-0.882zm6.529-7.658v9.38h3.276c3.192 0 5.18-1.96 5.18-4.69s-1.988-4.69-5.18-4.69h-3.276zm1.498 8.022v-6.664h1.778c2.282 0 3.668 1.386 3.668 3.332s-1.386 3.332-3.668 3.332h-1.778zm11.864-5.74c-2.058 0-3.738 1.47-3.738 3.626s1.68 3.64 3.738 3.64c2.044 0 3.71-1.484 3.71-3.64s-1.666-3.626-3.71-3.626zm0 6.006c-1.218 0-2.31-0.938-2.31-2.38s1.092-2.38 2.31-2.38c1.19 0 2.296 0.938 2.296 2.38s-1.106 2.38-2.296 2.38zm15.534-5.866h-1.624l-2.226 5.012-2.17-5.012h-1.624l2.996 6.79-1.134 2.548h1.624l4.158-9.338zm4.222-0.14c-2.058 0-3.738 1.47-3.738 3.626s1.68 3.64 3.738 3.64c2.044 0 3.71-1.484 3.71-3.64s-1.666-3.626-3.71-3.626zm0 6.006c-1.218 0-2.31-0.938-2.31-2.38s1.092-2.38 2.31-2.38c1.19 0 2.296 0.938 2.296 2.38s-1.106 2.38-2.296 2.38zm11.809-5.852h-1.456v3.206c0 1.75-0.812 2.59-2.058 2.59-1.008 0-1.666-0.77-1.666-1.904v-3.892h-1.456v4.186c0 1.75 1.106 2.954 2.786 2.954 1.022 0 1.834-0.378 2.394-1.05v0.854h1.456v-6.944zm9.536-0.196c-1.036 0-1.848 0.378-2.408 1.05v-3.99h-1.456v10.08h1.456v-3.206c0-1.75 0.826-2.59 2.072-2.59 0.994 0 1.652 0.756 1.652 1.89v3.906h1.47v-4.2c0-1.736-1.12-2.94-2.786-2.94zm11.622 0.196h-1.456v0.798c-0.602-0.63-1.47-0.994-2.52-0.994-1.82 0-3.444 1.484-3.444 3.668 0 2.198 1.624 3.668 3.444 3.668 1.05 0 1.918-0.364 2.52-0.994v0.798h1.456v-6.944zm-3.738 5.852c-1.274 0-2.268-0.91-2.268-2.38 0-1.456 0.994-2.38 2.268-2.38 1.148 0 2.282 0.924 2.282 2.38 0 1.47-1.134 2.38-2.282 2.38zm12.566-5.866h-1.582l-2.184 5.222-2.184-5.222h-1.582l2.982 6.958h1.554l2.996-6.958zm7.557 3.332c-0.07-2.086-1.61-3.514-3.472-3.514-1.96 0-3.598 1.47-3.598 3.682 0 2.198 1.652 3.654 3.542 3.654 1.54 0 2.772-0.728 3.346-2.184l-1.302-0.28c-0.49 0.98-1.274 1.204-2.044 1.204-1.022 0-1.96-0.77-2.1-2.058h5.628v-0.504zm-3.472-2.226c0.952 0 1.75 0.56 1.974 1.694h-4.088c0.224-1.12 1.204-1.694 2.114-1.694zm15.333-1.092h-1.456v0.798c-0.602-0.63-1.47-0.994-2.52-0.994-1.82 0-3.444 1.484-3.444 3.668 0 2.198 1.624 3.668 3.444 3.668 1.05 0 1.918-0.364 2.52-0.994v0.798h1.456v-6.944zm-3.738 5.852c-1.274 0-2.268-0.91-2.268-2.38 0-1.456 0.994-2.38 2.268-2.38 1.148 0 2.282 0.924 2.282 2.38 0 1.47-1.134 2.38-2.282 2.38zm13.379-6.048c-1.05 0-1.918 0.364-2.52 0.994v-3.934h-1.456v10.08h1.456v-0.798c0.602 0.63 1.47 0.994 2.52 0.994 1.82 0 3.444-1.47 3.444-3.668 0-2.184-1.624-3.668-3.444-3.668zm-0.238 6.048c-1.148 0-2.282-0.91-2.282-2.38 0-1.456 1.134-2.38 2.282-2.38 1.274 0 2.268 0.924 2.268 2.38 0 1.47-0.994 2.38-2.268 2.38zm8.421-6.006c-2.058 0-3.738 1.47-3.738 3.626s1.68 3.64 3.738 3.64c2.044 0 3.71-1.484 3.71-3.64s-1.666-3.626-3.71-3.626zm0 6.006c-1.218 0-2.31-0.938-2.31-2.38s1.092-2.38 2.31-2.38c1.19 0 2.296 0.938 2.296 2.38s-1.106 2.38-2.296 2.38zm8.477-6.006c-2.058 0-3.738 1.47-3.738 3.626s1.68 3.64 3.738 3.64c2.044 0 3.71-1.484 3.71-3.64s-1.666-3.626-3.71-3.626zm0 6.006c-1.218 0-2.31-0.938-2.31-2.38s1.092-2.38 2.31-2.38c1.19 0 2.296 0.938 2.296 2.38s-1.106 2.38-2.296 2.38zm12.396 1.092-4.046-3.584 3.64-3.36h-1.862l-2.898 2.618h-0.434v-5.754h-1.456v10.08h1.456v-2.884h0.42l3.206 2.884h1.974zm1.988-9.94c-0.546 0-0.938 0.42-0.938 0.91 0 0.518 0.392 0.896 0.938 0.896 0.532 0 0.924-0.378 0.924-0.896 0-0.49-0.392-0.91-0.924-0.91zm0.728 9.94v-6.944h-1.456v6.944h1.456zm6.178-7.14c-1.036 0-1.848 0.378-2.408 1.05v-0.854h-1.456v6.944h1.456v-3.206c0-1.75 0.826-2.59 2.072-2.59 0.994 0 1.652 0.756 1.652 1.89v3.906h1.47v-4.2c0-1.736-1.12-2.94-2.786-2.94zm11.426 0.196h-1.414v0.686c-0.532-0.56-1.33-0.868-2.394-0.868-1.778 0-3.402 1.414-3.402 3.346s1.624 3.374 3.402 3.374c1.064 0 1.862-0.308 2.394-0.868v0.448c0 1.344-0.868 2.17-2.184 2.17-1.106 0-1.68-0.42-2.198-1.232l-1.19 0.882c0.56 1.036 1.722 1.666 3.388 1.666 2.17 0 3.598-1.204 3.598-3.276v-6.328zm-3.57 5.278c-1.246 0-2.226-0.84-2.226-2.114 0-1.288 0.98-2.114 2.226-2.114 1.134 0 2.156 0.826 2.156 2.114 0 1.274-1.022 2.114-2.156 2.114zm10.695 1.666v-10.08h-1.456v10.08h1.456zm3.048-9.94c-0.546 0-0.938 0.42-0.938 0.91 0 0.518 0.392 0.896 0.938 0.896 0.532 0 0.924-0.378 0.924-0.896 0-0.49-0.392-0.91-0.924-0.91zm0.728 9.94v-6.944h-1.456v6.944h1.456zm6.179-7.14c-1.036 0-1.848 0.378-2.408 1.05v-0.854h-1.456v6.944h1.456v-3.206c0-1.75 0.826-2.59 2.072-2.59 0.994 0 1.652 0.756 1.652 1.89v3.906h1.47v-4.2c0-1.736-1.12-2.94-2.786-2.94zm11.874 7.14-4.046-3.584 3.64-3.36h-1.862l-2.898 2.618h-0.434v-5.754h-1.456v10.08h1.456v-2.884h0.42l3.206 2.884h1.974zm8.68-5.74v-1.204h-2.31v-0.826c0-0.77 0.476-1.218 1.204-1.218 0.224 0 0.49 0.042 0.742 0.14l0.35-1.19c-0.378-0.168-0.756-0.252-1.19-0.252-1.54 0-2.562 0.966-2.562 2.52v0.826h-1.134v1.204h1.134v5.74h1.456v-5.74h2.31zm4.107-1.358c-2.058 0-3.738 1.47-3.738 3.626s1.68 3.64 3.738 3.64c2.044 0 3.71-1.484 3.71-3.64s-1.666-3.626-3.71-3.626zm0 6.006c-1.218 0-2.31-0.938-2.31-2.38s1.092-2.38 2.31-2.38c1.19 0 2.296 0.938 2.296 2.38s-1.106 2.38-2.296 2.38zm9.443-5.936c-1.204 0-2.086 0.644-2.646 1.568v-1.484h-1.456v6.944h1.456v-2.45c0-1.904 0.868-3.136 2.632-3.136 0.126 0 0.294 0 0.406 0.014l0.098-1.4c-0.182-0.056-0.322-0.056-0.49-0.056zm9.099-0.112c-1.036 0-1.848 0.378-2.408 1.05v-0.854h-1.456v6.944h1.456v-3.206c0-1.75 0.826-2.59 2.072-2.59 0.994 0 1.652 0.756 1.652 1.89v3.906h1.47v-4.2c0-1.736-1.12-2.94-2.786-2.94zm11.286 3.514c-0.07-2.086-1.61-3.514-3.472-3.514-1.96 0-3.598 1.47-3.598 3.682 0 2.198 1.652 3.654 3.542 3.654 1.54 0 2.772-0.728 3.346-2.184l-1.302-0.28c-0.49 0.98-1.274 1.204-2.044 1.204-1.022 0-1.96-0.77-2.1-2.058h5.628v-0.504zm-3.472-2.226c0.952 0 1.75 0.56 1.974 1.694h-4.088c0.224-1.12 1.204-1.694 2.114-1.694zm8.871 2.45 2.492-3.556h-1.75l-1.82 2.632-1.82-2.632h-1.736l2.492 3.556-2.492 3.402h1.736l1.82-2.506 1.82 2.506h1.75l-2.492-3.402zm8.287 1.848c-0.364 0.238-0.812 0.378-1.176 0.378-0.686 0-1.148-0.42-1.148-1.288v-3.276h2.38v-1.204h-2.38v-2.156h-1.456v2.156h-1.498v1.204h1.498v3.374c0 1.722 1.008 2.562 2.506 2.562 0.588 0 1.064-0.14 1.722-0.532l-0.448-1.218zm9.256 0c-0.364 0.238-0.812 0.378-1.176 0.378-0.686 0-1.148-0.42-1.148-1.288v-3.276h2.38v-1.204h-2.38v-2.156h-1.456v2.156h-1.498v1.204h1.498v3.374c0 1.722 1.008 2.562 2.506 2.562 0.588 0 1.064-0.14 1.722-0.532l-0.448-1.218zm2.465-8.386c-0.546 0-0.938 0.42-0.938 0.91 0 0.518 0.392 0.896 0.938 0.896 0.532 0 0.924-0.378 0.924-0.896 0-0.49-0.392-0.91-0.924-0.91zm0.728 9.94v-6.944h-1.456v6.944h1.456zm10.897-7.14c-1.148 0-2.03 0.49-2.59 1.274-0.448-0.812-1.316-1.274-2.31-1.274s-1.722 0.364-2.226 0.98v-0.784h-1.456v6.944h1.456v-3.444c0-1.554 0.728-2.352 1.848-2.352 0.896 0 1.568 0.644 1.568 1.666v4.13h1.456v-3.444c0-1.554 0.742-2.352 1.876-2.352 0.896 0 1.568 0.644 1.568 1.666v4.13h1.442v-4.424c0-1.638-1.19-2.716-2.632-2.716zm11.161 3.514c-0.07-2.086-1.61-3.514-3.472-3.514-1.96 0-3.598 1.47-3.598 3.682 0 2.198 1.652 3.654 3.542 3.654 1.54 0 2.772-0.728 3.346-2.184l-1.302-0.28c-0.49 0.98-1.274 1.204-2.044 1.204-1.022 0-1.96-0.77-2.1-2.058h5.628v-0.504zm-3.472-2.226c0.952 0 1.75 0.56 1.974 1.694h-4.088c0.224-1.12 1.204-1.694 2.114-1.694zm7.253-3.724c-1.932 0-3.262 1.33-3.346 2.94l1.386 0.266c0.126-1.134 0.854-1.904 1.96-1.904 1.05 0 1.764 0.686 1.764 1.68 0 0.924-0.756 1.554-1.792 1.554h-0.84v2.044h1.344v-0.924c1.61-0.168 2.702-1.204 2.702-2.674 0-1.778-1.274-2.982-3.178-2.982zm-0.21 7.854c-0.532 0-0.924 0.406-0.924 0.882 0 0.504 0.392 0.896 0.924 0.896s0.91-0.392 0.91-0.896c0-0.476-0.378-0.882-0.91-0.882z" fill="#000009"/>
<path d="m4.4295 183c-2.4464 0-4.4295 1.983-4.4295 4.43v53.14c0 2.447 1.9832 4.43 4.4295 4.43h11.57v5.852c0 1.857 2.1482 2.889 3.5983 1.729l9.4763-7.581h360.5c2.447 0 4.43-1.983 4.43-4.43v-53.14c0-2.447-1.983-4.43-4.43-4.43h-385.14z" clip-rule="evenodd" fill="#3772FF" fill-rule="evenodd"/>
<path d="m24.382 209.42c-2.086 0-3.444 1.12-3.444 2.772 0 1.666 1.204 2.282 2.366 2.548l2.044 0.42c0.938 0.196 1.316 0.532 1.316 1.246 0 0.854-0.714 1.456-1.974 1.456s-2.198-0.588-2.422-1.792l-1.596 0.336c0.238 1.82 1.89 2.786 3.878 2.786 2.156 0 3.598-1.106 3.598-2.87 0-1.47-1.008-2.254-2.408-2.562l-2.03-0.434c-0.812-0.168-1.19-0.518-1.19-1.176 0-0.826 0.728-1.428 1.834-1.428 1.12 0 1.974 0.658 2.142 1.652l1.498-0.308c-0.336-1.61-1.708-2.646-3.612-2.646zm11.915 2.632h-1.456v3.206c0 1.75-0.812 2.59-2.058 2.59-1.008 0-1.666-0.77-1.666-1.904v-3.892h-1.456v4.186c0 1.75 1.106 2.954 2.786 2.954 1.022 0 1.834-0.378 2.394-1.05v0.854h1.456v-6.944zm6.3156-0.084c-1.204 0-2.086 0.644-2.646 1.568v-1.484h-1.456v6.944h1.456v-2.45c0-1.904 0.868-3.136 2.632-3.136 0.126 0 0.294 0 0.406 0.014l0.098-1.4c-0.182-0.056-0.322-0.056-0.49-0.056zm8.1219 3.402c-0.07-2.086-1.61-3.514-3.472-3.514-1.96 0-3.598 1.47-3.598 3.682 0 2.198 1.652 3.654 3.542 3.654 1.54 0 2.772-0.728 3.346-2.184l-1.302-0.28c-0.49 0.98-1.274 1.204-2.044 1.204-1.022 0-1.96-0.77-2.1-2.058h5.628v-0.504zm-3.472-2.226c0.952 0 1.75 0.56 1.974 1.694h-4.088c0.224-1.12 1.204-1.694 2.114-1.694zm4.8696 7.7 1.47-3.682v-0.042h-1.694l-0.882 3.724h1.106zm10.381-8.988c-1.036 0-1.848 0.378-2.408 1.05v-3.99h-1.456v10.08h1.456v-3.206c0-1.75 0.826-2.59 2.072-2.59 0.994 0 1.652 0.756 1.652 1.89v3.906h1.47v-4.2c0-1.736-1.12-2.94-2.786-2.94zm11.299 3.514c-0.07-2.086-1.61-3.514-3.472-3.514-1.96 0-3.598 1.47-3.598 3.682 0 2.198 1.652 3.654 3.542 3.654 1.54 0 2.772-0.728 3.346-2.184l-1.302-0.28c-0.49 0.98-1.274 1.204-2.044 1.204-1.022 0-1.96-0.77-2.1-2.058h5.628v-0.504zm-3.472-2.226c0.952 0 1.75 0.56 1.974 1.694h-4.088c0.224-1.12 1.204-1.694 2.114-1.694zm9.1861-1.176c-1.204 0-2.086 0.644-2.646 1.568v-1.484h-1.456v6.944h1.456v-2.45c0-1.904 0.868-3.136 2.632-3.136 0.126 0 0.294 0 0.406 0.014l0.098-1.4c-0.182-0.056-0.322-0.056-0.49-0.056zm8.1218 3.402c-0.07-2.086-1.61-3.514-3.472-3.514-1.96 0-3.598 1.47-3.598 3.682 0 2.198 1.652 3.654 3.542 3.654 1.54 0 2.772-0.728 3.346-2.184l-1.302-0.28c-0.49 0.98-1.274 1.204-2.044 1.204-1.022 0-1.96-0.77-2.1-2.058h5.628v-0.504zm-3.472-2.226c0.952 0 1.75 0.56 1.974 1.694h-4.088c0.224-1.12 1.204-1.694 2.114-1.694zm9.3831-4.088c-0.546 0-0.938 0.42-0.938 0.91 0 0.518 0.392 0.896 0.938 0.896 0.532 0 0.924-0.378 0.924-0.896 0-0.49-0.392-0.91-0.924-0.91zm0.728 9.94v-6.944h-1.456v6.944h1.456zm6.4867-1.554c-0.364 0.238-0.8119 0.378-1.1759 0.378-0.686 0-1.148-0.42-1.148-1.288v-3.276h2.3799v-1.204h-2.3799v-2.156h-1.456v2.156h-1.498v1.204h1.498v3.374c0 1.722 1.008 2.562 2.506 2.562 0.5879 0 1.0639-0.14 1.7219-0.532l-0.448-1.218zm5.924-8.386c-0.546 0-0.938 0.42-0.938 0.91 0 0.518 0.392 0.896 0.938 0.896 0.532 0 0.924-0.378 0.924-0.896 0-0.49-0.392-0.91-0.924-0.91zm0.728 9.94v-6.944h-1.456v6.944h1.456zm1.727-1.862c0.182 1.4 1.512 2.058 3.066 2.058 1.736 0 2.926-0.784 2.926-2.24 0-0.98-0.686-1.638-1.806-1.876l-1.652-0.364c-0.616-0.14-0.84-0.392-0.84-0.784 0-0.49 0.378-0.91 1.232-0.91 0.896 0 1.47 0.462 1.582 1.134l1.386-0.294c-0.252-1.162-1.33-2.002-2.926-2.002-1.666 0-2.744 0.91-2.744 2.198 0 0.98 0.686 1.624 1.89 1.89l1.512 0.308c0.644 0.14 0.938 0.406 0.938 0.826 0 0.546-0.532 0.924-1.372 0.924-0.91 0-1.638-0.35-1.736-1.176l-1.456 0.308zm8.09-4.76c-0.532 0-0.924 0.406-0.924 0.882 0 0.504 0.392 0.882 0.924 0.882s0.91-0.378 0.91-0.882c0-0.476-0.378-0.882-0.91-0.882zm0 4.9c-0.532 0-0.924 0.406-0.924 0.882 0 0.504 0.392 0.896 0.924 0.896s0.91-0.392 0.91-0.896c0-0.476-0.378-0.882-0.91-0.882zm9.965-5.418c-1.036 0-1.848 0.378-2.408 1.05v-3.99h-1.456v10.08h1.456v-3.206c0-1.75 0.826-2.59 2.072-2.59 0.994 0 1.652 0.756 1.652 1.89v3.906h1.47v-4.2c0-1.736-1.12-2.94-2.786-2.94zm9.004 5.586c-0.364 0.238-0.812 0.378-1.176 0.378-0.686 0-1.148-0.42-1.148-1.288v-3.276h2.38v-1.204h-2.38v-2.156h-1.456v2.156h-1.498v1.204h1.498v3.374c0 1.722 1.008 2.562 2.506 2.562 0.588 0 1.064-0.14 1.722-0.532l-0.448-1.218zm5.796 0c-0.364 0.238-0.812 0.378-1.176 0.378-0.686 0-1.148-0.42-1.148-1.288v-3.276h2.38v-1.204h-2.38v-2.156h-1.456v2.156h-1.498v1.204h1.498v3.374c0 1.722 1.008 2.562 2.506 2.562 0.588 0 1.064-0.14 1.722-0.532l-0.448-1.218zm5.601-5.586c-1.05 0-1.918 0.364-2.52 0.994v-0.798h-1.456v9.324h1.456v-3.178c0.602 0.63 1.47 0.994 2.52 0.994 1.82 0 3.444-1.47 3.444-3.668 0-2.184-1.624-3.668-3.444-3.668zm-0.238 6.048c-1.148 0-2.282-0.91-2.282-2.38 0-1.456 1.134-2.38 2.282-2.38 1.274 0 2.268 0.924 2.268 2.38 0 1.47-0.994 2.38-2.268 2.38zm4.698-0.77c0.182 1.4 1.512 2.058 3.066 2.058 1.736 0 2.926-0.784 2.926-2.24 0-0.98-0.686-1.638-1.806-1.876l-1.652-0.364c-0.616-0.14-0.84-0.392-0.84-0.784 0-0.49 0.378-0.91 1.232-0.91 0.896 0 1.47 0.462 1.582 1.134l1.386-0.294c-0.252-1.162-1.33-2.002-2.926-2.002-1.666 0-2.744 0.91-2.744 2.198 0 0.98 0.686 1.624 1.89 1.89l1.512 0.308c0.644 0.14 0.938 0.406 0.938 0.826 0 0.546-0.532 0.924-1.372 0.924-0.91 0-1.638-0.35-1.736-1.176l-1.456 0.308zm8.09-4.76c-0.532 0-0.924 0.406-0.924 0.882 0 0.504 0.392 0.882 0.924 0.882s0.91-0.378 0.91-0.882c0-0.476-0.378-0.882-0.91-0.882zm0 4.9c-0.532 0-0.924 0.406-0.924 0.882 0 0.504 0.392 0.896 0.924 0.896s0.91-0.392 0.91-0.896c0-0.476-0.378-0.882-0.91-0.882zm6.912-8.652h-1.218l-4.032 11.382h1.218l4.032-11.382zm4.225 0h-1.218l-4.032 11.382h1.218l4.032-11.382zm3.362 9.226c-1.288 0-2.24-0.91-2.24-2.324 0-1.372 0.952-2.324 2.24-2.324 0.924 0 1.722 0.476 1.988 1.498l1.4-0.406c-0.434-1.484-1.82-2.436-3.388-2.436-1.988 0-3.668 1.498-3.668 3.668 0 2.198 1.68 3.668 3.668 3.668 1.61 0 3.01-0.952 3.388-2.45l-1.344-0.35c-0.336 1.008-1.12 1.456-2.044 1.456zm11.804-5.796h-1.456v0.798c-0.602-0.63-1.47-0.994-2.52-0.994-1.82 0-3.444 1.484-3.444 3.668 0 2.198 1.624 3.668 3.444 3.668 1.05 0 1.918-0.364 2.52-0.994v0.798h1.456v-6.944zm-3.738 5.852c-1.274 0-2.268-0.91-2.268-2.38 0-1.456 0.994-2.38 2.268-2.38 1.148 0 2.282 0.924 2.282 2.38 0 1.47-1.134 2.38-2.282 2.38zm7.401 1.092v-10.08h-1.456v10.08h1.456zm8.676-3.626c-0.07-2.086-1.61-3.514-3.472-3.514-1.96 0-3.598 1.47-3.598 3.682 0 2.198 1.652 3.654 3.542 3.654 1.54 0 2.772-0.728 3.346-2.184l-1.302-0.28c-0.49 0.98-1.274 1.204-2.044 1.204-1.022 0-1.96-0.77-2.1-2.058h5.628v-0.504zm-3.472-2.226c0.952 0 1.75 0.56 1.974 1.694h-4.088c0.224-1.12 1.204-1.694 2.114-1.694zm8.948-1.288c-1.036 0-1.848 0.378-2.408 1.05v-0.854h-1.456v6.944h1.456v-3.206c0-1.75 0.826-2.59 2.072-2.59 0.994 0 1.652 0.756 1.652 1.89v3.906h1.47v-4.2c0-1.736-1.12-2.94-2.786-2.94zm11.649-2.94h-1.47v3.934c-0.616-0.63-1.47-0.994-2.52-0.994-1.806 0-3.444 1.484-3.444 3.668 0 2.198 1.638 3.668 3.444 3.668 1.05 0 1.904-0.364 2.52-0.98v0.784h1.47v-10.08zm-3.752 8.988c-1.26 0-2.254-0.91-2.254-2.38 0-1.456 0.994-2.38 2.254-2.38 1.162 0 2.282 0.924 2.282 2.38 0 1.47-1.12 2.38-2.282 2.38zm7.4 1.092v-10.08h-1.456v10.08h1.456zm8.942-6.958h-1.624l-2.226 5.012-2.17-5.012h-1.624l2.996 6.79-1.134 2.548h1.624l4.158-9.338zm1.097 5.236c-0.532 0-0.924 0.406-0.924 0.882 0 0.504 0.392 0.896 0.924 0.896s0.91-0.392 0.91-0.896c0-0.476-0.378-0.882-0.91-0.882zm5.53 0.574c-1.288 0-2.24-0.91-2.24-2.324 0-1.372 0.952-2.324 2.24-2.324 0.924 0 1.722 0.476 1.988 1.498l1.4-0.406c-0.434-1.484-1.82-2.436-3.388-2.436-1.988 0-3.668 1.498-3.668 3.668 0 2.198 1.68 3.668 3.668 3.668 1.61 0 3.01-0.952 3.388-2.45l-1.344-0.35c-0.336 1.008-1.12 1.456-2.044 1.456zm8.15-5.95c-2.058 0-3.738 1.47-3.738 3.626s1.68 3.64 3.738 3.64c2.044 0 3.71-1.484 3.71-3.64s-1.666-3.626-3.71-3.626zm0 6.006c-1.218 0-2.31-0.938-2.31-2.38s1.092-2.38 2.31-2.38c1.19 0 2.296 0.938 2.296 2.38s-1.106 2.38-2.296 2.38zm13.922-6.048c-1.148 0-2.03 0.49-2.59 1.274-0.448-0.812-1.316-1.274-2.31-1.274s-1.722 0.364-2.226 0.98v-0.784h-1.456v6.944h1.456v-3.444c0-1.554 0.728-2.352 1.848-2.352 0.896 0 1.568 0.644 1.568 1.666v4.13h1.456v-3.444c0-1.554 0.742-2.352 1.876-2.352 0.896 0 1.568 0.644 1.568 1.666v4.13h1.442v-4.424c0-1.638-1.19-2.716-2.632-2.716zm8.964-3.234h-1.218l-4.032 11.382h1.218l4.032-11.382z" fill="#fff"/>
<path d="m122.24 220.4h144.07v0.7h-144.07v-0.7z" fill="#fff"/>
<mask id="b" fill="white">
<path d="m166.43 262c-2.447 0-4.43 1.983-4.43 4.43v53.14c0 2.447 1.983 4.43 4.43 4.43h359.79l9.477 7.581c1.45 1.16 3.598 0.128 3.598-1.729v-5.852h12.275c2.447 0 4.43-1.983 4.43-4.43v-53.14c0-2.447-1.983-4.43-4.43-4.43h-385.14z" clip-rule="evenodd" fill-rule="evenodd"/>
</mask>
<path d="m166.43 262c-2.447 0-4.43 1.983-4.43 4.43v53.14c0 2.447 1.983 4.43 4.43 4.43h359.79l9.477 7.581c1.45 1.16 3.598 0.128 3.598-1.729v-5.852h12.275c2.447 0 4.43-1.983 4.43-4.43v-53.14c0-2.447-1.983-4.43-4.43-4.43h-385.14z" clip-rule="evenodd" fill="#E4E4E4" fill-rule="evenodd"/>
<path d="m526.22 324 0.625-0.781-0.274-0.219h-0.351v1zm9.477 7.581-0.625 0.781 0.625-0.781zm3.598-7.581v-1h-1v1h1zm-376.3-57.57c0-1.895 1.535-3.43 3.43-3.43v-2c-2.999 0-5.43 2.431-5.43 5.43h2zm0 53.14v-53.14h-2v53.14h2zm3.43 3.43c-1.895 0-3.43-1.535-3.43-3.43h-2c0 2.999 2.431 5.43 5.43 5.43v-2zm359.79 0h-359.79v2h359.79v-2zm-0.624 1.781 9.476 7.581 1.249-1.562-9.476-7.581-1.249 1.562zm9.476 7.581c2.105 1.684 5.223 0.185 5.223-2.51h-2c0 1.018-1.178 1.584-1.974 0.948l-1.249 1.562zm5.223-2.51v-5.852h-2v5.852h2zm11.275-6.852h-12.275v2h12.275v-2zm3.43-3.43c0 1.895-1.535 3.43-3.43 3.43v2c2.999 0 5.43-2.431 5.43-5.43h-2zm0-53.14v53.14h2v-53.14h-2zm-3.43-3.43c1.895 0 3.43 1.535 3.43 3.43h2c0-2.999-2.431-5.43-5.43-5.43v2zm-385.14 0h385.14v-2h-385.14v2z" fill="#E0E0E0" mask="url(#b)"/>
<path d="m208.73 300-4.13-9.38h-1.4l-4.13 9.38h1.624l0.924-2.184h4.564l0.924 2.184h1.624zm-3.136-3.556h-3.388l1.694-3.99 1.694 3.99zm13.905-3.388h-1.456l-1.582 4.83-1.638-4.83h-1.148l-1.638 4.83-1.582-4.83h-1.456l2.324 6.972h1.33l1.596-4.676 1.596 4.676h1.33l2.324-6.972zm7.72 3.318c-0.07-2.086-1.61-3.514-3.472-3.514-1.96 0-3.598 1.47-3.598 3.682 0 2.198 1.652 3.654 3.542 3.654 1.54 0 2.772-0.728 3.346-2.184l-1.302-0.28c-0.49 0.98-1.274 1.204-2.044 1.204-1.022 0-1.96-0.77-2.1-2.058h5.628v-0.504zm-3.472-2.226c0.952 0 1.75 0.56 1.974 1.694h-4.088c0.224-1.12 1.204-1.694 2.114-1.694zm4.496 3.99c0.182 1.4 1.512 2.058 3.066 2.058 1.736 0 2.926-0.784 2.926-2.24 0-0.98-0.686-1.638-1.806-1.876l-1.652-0.364c-0.616-0.14-0.84-0.392-0.84-0.784 0-0.49 0.378-0.91 1.232-0.91 0.896 0 1.47 0.462 1.582 1.134l1.386-0.294c-0.252-1.162-1.33-2.002-2.926-2.002-1.666 0-2.744 0.91-2.744 2.198 0 0.98 0.686 1.624 1.89 1.89l1.512 0.308c0.644 0.14 0.938 0.406 0.938 0.826 0 0.546-0.532 0.924-1.372 0.924-0.91 0-1.638-0.35-1.736-1.176l-1.456 0.308zm10.778-5.236c-2.058 0-3.738 1.47-3.738 3.626s1.68 3.64 3.738 3.64c2.044 0 3.71-1.484 3.71-3.64s-1.666-3.626-3.71-3.626zm0 6.006c-1.218 0-2.31-0.938-2.31-2.38s1.092-2.38 2.31-2.38c1.19 0 2.296 0.938 2.296 2.38s-1.106 2.38-2.296 2.38zm13.923-6.048c-1.148 0-2.03 0.49-2.59 1.274-0.448-0.812-1.316-1.274-2.31-1.274s-1.722 0.364-2.226 0.98v-0.784h-1.456v6.944h1.456v-3.444c0-1.554 0.728-2.352 1.848-2.352 0.896 0 1.568 0.644 1.568 1.666v4.13h1.456v-3.444c0-1.554 0.742-2.352 1.876-2.352 0.896 0 1.568 0.644 1.568 1.666v4.13h1.442v-4.424c0-1.638-1.19-2.716-2.632-2.716zm11.161 3.514c-0.07-2.086-1.61-3.514-3.472-3.514-1.96 0-3.598 1.47-3.598 3.682 0 2.198 1.652 3.654 3.542 3.654 1.54 0 2.772-0.728 3.346-2.184l-1.302-0.28c-0.49 0.98-1.274 1.204-2.044 1.204-1.022 0-1.96-0.77-2.1-2.058h5.628v-0.504zm-3.472-2.226c0.952 0 1.75 0.56 1.974 1.694h-4.088c0.224-1.12 1.204-1.694 2.114-1.694zm4.87 7.7 1.47-3.682v-0.042h-1.694l-0.882 3.724h1.106zm10.689-3.402c-0.364 0.238-0.812 0.378-1.176 0.378-0.686 0-1.148-0.42-1.148-1.288v-3.276h2.38v-1.204h-2.38v-2.156h-1.456v2.156h-1.498v1.204h1.498v3.374c0 1.722 1.008 2.562 2.506 2.562 0.588 0 1.064-0.14 1.722-0.532l-0.448-1.218zm5.489-5.586c-1.036 0-1.848 0.378-2.408 1.05v-3.99h-1.456v10.08h1.456v-3.206c0-1.75 0.826-2.59 2.072-2.59 0.994 0 1.652 0.756 1.652 1.89v3.906h1.47v-4.2c0-1.736-1.12-2.94-2.786-2.94zm11.621 0.196h-1.456v0.798c-0.602-0.63-1.47-0.994-2.52-0.994-1.82 0-3.444 1.484-3.444 3.668 0 2.198 1.624 3.668 3.444 3.668 1.05 0 1.918-0.364 2.52-0.994v0.798h1.456v-6.944zm-3.738 5.852c-1.274 0-2.268-0.91-2.268-2.38 0-1.456 0.994-2.38 2.268-2.38 1.148 0 2.282 0.924 2.282 2.38 0 1.47-1.134 2.38-2.282 2.38zm9.808-6.048c-1.036 0-1.848 0.378-2.408 1.05v-0.854h-1.456v6.944h1.456v-3.206c0-1.75 0.826-2.59 2.072-2.59 0.994 0 1.652 0.756 1.652 1.89v3.906h1.47v-4.2c0-1.736-1.12-2.94-2.786-2.94zm11.874 7.14-4.046-3.584 3.64-3.36h-1.862l-2.898 2.618h-0.434v-5.754h-1.456v10.08h1.456v-2.884h0.42l3.206 2.884h1.974zm0.354-1.862c0.182 1.4 1.512 2.058 3.066 2.058 1.736 0 2.926-0.784 2.926-2.24 0-0.98-0.686-1.638-1.806-1.876l-1.652-0.364c-0.616-0.14-0.84-0.392-0.84-0.784 0-0.49 0.378-0.91 1.232-0.91 0.896 0 1.47 0.462 1.582 1.134l1.386-0.294c-0.252-1.162-1.33-2.002-2.926-2.002-1.666 0-2.744 0.91-2.744 2.198 0 0.98 0.686 1.624 1.89 1.89l1.512 0.308c0.644 0.14 0.938 0.406 0.938 0.826 0 0.546-0.532 0.924-1.372 0.924-0.91 0-1.638-0.35-1.736-1.176l-1.456 0.308zm9.295-7.518h-1.596v0.434l0.056 6.02h1.484l0.056-6.02v-0.434zm-0.812 7.658c-0.532 0-0.91 0.406-0.91 0.882 0 0.504 0.378 0.896 0.91 0.896s0.924-0.392 0.924-0.896c0-0.476-0.392-0.882-0.924-0.882z" fill="#000009"/>
</svg>
