<?xml version="1.0" encoding="UTF-8"?>
<svg fill="none" viewBox="0 0 496 361" xmlns="http://www.w3.org/2000/svg">
<rect x=".5" y=".5" width="405" height="342" rx="5.5" fill="#fff" stroke="#E0E0E0"/>
<rect x="26" y="26.5" width="48" height="48" rx="6" fill="#03CEA4" opacity=".13"/>
<path d="m56.511 44.1h-3.3v7.36c0 2.04-1.06 3.3-2.64 3.3-1.68 0-2.78-1.26-2.78-3.3v-7.36h-3.3v7.36c0 3.84 2.44 6.34 6.08 6.34 3.56 0 5.94-2.5 5.94-6.34v-7.36z" fill="#03CEA4"/>
<path d="m96.512 32.28h-2.64v5.888c0 1.632-0.848 2.64-2.112 2.64-1.344 0-2.224-1.008-2.224-2.64v-5.888h-2.64v5.888c0 3.072 1.952 5.072 4.864 5.072 2.848 0 4.752-2 4.752-5.072v-5.888zm1.2783 8.624c0.272 1.648 1.888 2.336 3.7757 2.336 2.112 0 3.648-0.928 3.648-2.704 0-1.184-0.704-2.096-2.224-2.416l-1.888-0.384c-0.512-0.112-0.608-0.336-0.608-0.56 0-0.288 0.224-0.624 0.912-0.624 0.784 0 1.264 0.448 1.344 0.944l2.336-0.464c-0.32-1.392-1.648-2.304-3.648-2.304-2.0318 0-3.4557 1.072-3.4557 2.72 0 1.264 0.848 2.064 2.3357 2.336l1.632 0.32c0.592 0.112 0.8 0.32 0.8 0.592 0 0.352-0.368 0.64-1.04 0.64-0.688 0-1.312-0.256-1.424-0.944l-2.4957 0.512zm16.651-1.92c-0.048-2.624-1.872-4.256-4.144-4.256-2.336 0-4.256 1.728-4.256 4.256 0 2.544 1.92 4.256 4.24 4.256 1.84 0 3.296-0.816 3.984-2.512l-2.272-0.464c-0.432 0.784-1.12 0.928-1.712 0.928-0.864 0-1.52-0.592-1.728-1.552h5.888v-0.656zm-4.144-2.176c0.736 0 1.376 0.4 1.616 1.264h-3.312c0.24-0.816 0.976-1.264 1.696-1.264zm10.803-1.952c-1.312 0-2.192 0.688-2.768 1.648v-1.536h-2.56v8.032h2.56v-2.512c0-2.08 0.976-3.008 2.768-3.008h0.464l0.112-2.56c-0.192-0.048-0.352-0.064-0.576-0.064zm6.783-3.712c-0.864 0-1.472 0.672-1.472 1.456 0 0.816 0.608 1.424 1.472 1.424s1.488-0.608 1.488-1.424c0-0.784-0.624-1.456-1.488-1.456zm1.28 11.856v-8.032h-2.56v8.032h2.56zm7.008-8.272c-1.008 0-1.856 0.368-2.464 1.008v-0.768h-2.56v8.032h2.56v-3.728c0-1.552 0.656-2.24 1.664-2.24 0.816 0 1.376 0.64 1.376 1.584v4.384h2.544v-4.928c0-2.016-1.248-3.344-3.12-3.344zm20.953-2.448h-2.576l-3.6 6.8-3.6-6.8h-2.592v10.72h2.56v-5.744l3.024 5.744h1.216l3.008-5.712v5.712h2.56v-10.72zm10.299 2.688h-2.56v0.64c-0.624-0.56-1.456-0.88-2.496-0.88-2.128 0-3.92 1.728-3.92 4.256 0 2.544 1.792 4.256 3.92 4.256 1.04 0 1.872-0.32 2.496-0.88v0.64h2.56v-8.032zm-4.528 6.096c-1.12 0-1.936-0.832-1.936-2.08 0-1.232 0.816-2.08 1.936-2.08 1.04 0 1.968 0.848 1.968 2.08 0 1.248-0.928 2.08-1.968 2.08zm11.705-6.208c-1.312 0-2.192 0.688-2.768 1.648v-1.536h-2.56v8.032h2.56v-2.512c0-2.08 0.976-3.008 2.768-3.008h0.464l0.112-2.56c-0.192-0.048-0.352-0.064-0.576-0.064zm10.568 8.144-3.888-4.208 3.52-3.824h-3.088l-2.544 2.736h-0.352v-6.224h-2.56v11.52h2.56v-2.896h0.464l2.608 2.896h3.28zm8.226-4.016c-0.048-2.624-1.872-4.256-4.144-4.256-2.336 0-4.256 1.728-4.256 4.256 0 2.544 1.92 4.256 4.24 4.256 1.84 0 3.296-0.816 3.984-2.512l-2.272-0.464c-0.432 0.784-1.12 0.928-1.712 0.928-0.864 0-1.52-0.592-1.728-1.552h5.888v-0.656zm-4.144-2.176c0.736 0 1.376 0.4 1.616 1.264h-3.312c0.24-0.816 0.976-1.264 1.696-1.264zm10.835 3.824c-0.336 0.192-0.816 0.32-1.168 0.32-0.672 0-1.072-0.336-1.072-1.168v-2.784h2.368v-2.032h-2.368v-2.368h-2.56v2.368h-1.456v2.032h1.456v3.04c0 2.112 1.2 3.2 3.2 3.2 0.912 0 1.568-0.256 2.192-0.592l-0.592-2.016zm2.97-9.488c-0.864 0-1.472 0.672-1.472 1.456 0 0.816 0.608 1.424 1.472 1.424s1.488-0.608 1.488-1.424c0-0.784-0.624-1.456-1.488-1.456zm1.28 11.856v-8.032h-2.56v8.032h2.56zm7.008-8.272c-1.008 0-1.856 0.368-2.464 1.008v-0.768h-2.56v8.032h2.56v-3.728c0-1.552 0.656-2.24 1.664-2.24 0.816 0 1.376 0.64 1.376 1.584v4.384h2.544v-4.928c0-2.016-1.248-3.344-3.12-3.344zm13.138 0.24h-2.512v0.528c-0.576-0.496-1.376-0.768-2.416-0.768-2.096 0-3.872 1.648-3.872 3.872 0 2.272 1.776 3.936 3.872 3.936 1.04 0 1.84-0.272 2.416-0.768v0.224c0 1.264-0.832 1.952-2 1.952-0.832 0-1.28-0.272-1.888-0.992l-2.128 1.152c0.784 1.296 2.192 1.936 4.032 1.936 2.608 0 4.496-1.36 4.496-3.84v-7.232zm-4.384 5.472c-1.12 0-1.92-0.768-1.92-1.84s0.8-1.824 1.92-1.824c1.024 0 1.872 0.752 1.872 1.824s-0.848 1.84-1.872 1.84zm18.42-5.472h-2.56v0.64c-0.624-0.56-1.456-0.88-2.496-0.88-2.128 0-3.92 1.728-3.92 4.256 0 2.544 1.792 4.256 3.92 4.256 1.04 0 1.872-0.32 2.496-0.88v0.64h2.56v-8.032zm-4.528 6.096c-1.12 0-1.936-0.832-1.936-2.08 0-1.232 0.816-2.08 1.936-2.08 1.04 0 1.968 0.848 1.968 2.08 0 1.248-0.928 2.08-1.968 2.08zm11.401-6.336c-1.008 0-1.856 0.368-2.464 1.008v-0.768h-2.56v8.032h2.56v-3.728c0-1.552 0.656-2.24 1.664-2.24 0.816 0 1.376 0.64 1.376 1.584v4.384h2.544v-4.928c0-2.016-1.248-3.344-3.12-3.344zm13.314-3.248h-2.56v4.128c-0.624-0.56-1.456-0.88-2.496-0.88-2.128 0-3.92 1.728-3.92 4.256 0 2.544 1.792 4.256 3.92 4.256 1.04 0 1.872-0.32 2.496-0.88v0.64h2.56v-11.52zm-4.528 9.584c-1.12 0-1.936-0.832-1.936-2.08 0-1.232 0.816-2.08 1.936-2.08 1.04 0 1.968 0.848 1.968 2.08 0 1.248-0.928 2.08-1.968 2.08zm20.832 1.936-4.48-10.72h-2.704l-4.48 10.72h2.832l0.752-1.952h4.512l0.752 1.952h2.816zm-4.448-4.224h-2.736l1.36-3.52 1.376 3.52zm13.66-7.296h-2.56v4.128c-0.624-0.56-1.456-0.88-2.496-0.88-2.128 0-3.92 1.728-3.92 4.256 0 2.544 1.792 4.256 3.92 4.256 1.04 0 1.872-0.32 2.496-0.88v0.64h2.56v-11.52zm-4.528 9.584c-1.12 0-1.936-0.832-1.936-2.08 0-1.232 0.816-2.08 1.936-2.08 1.04 0 1.968 0.848 1.968 2.08 0 1.248-0.928 2.08-1.968 2.08zm14.825-6.112h-2.704l-1.92 4.96-1.936-4.96h-2.704l3.328 8.048h2.608l3.328-8.048zm8.627 4.032c-0.048-2.624-1.872-4.256-4.144-4.256-2.336 0-4.256 1.728-4.256 4.256 0 2.544 1.92 4.256 4.24 4.256 1.84 0 3.296-0.816 3.984-2.512l-2.272-0.464c-0.432 0.784-1.12 0.928-1.712 0.928-0.864 0-1.52-0.592-1.728-1.552h5.888v-0.656zm-4.144-2.176c0.736 0 1.376 0.4 1.616 1.264h-3.312c0.24-0.816 0.976-1.264 1.696-1.264zm10.803-1.952c-1.312 0-2.192 0.688-2.768 1.648v-1.536h-2.56v8.032h2.56v-2.512c0-2.08 0.976-3.008 2.768-3.008h0.464l0.112-2.56c-0.192-0.048-0.352-0.064-0.576-0.064zm7.173 5.776c-0.336 0.192-0.816 0.32-1.168 0.32-0.672 0-1.072-0.336-1.072-1.168v-2.784h2.368v-2.032h-2.368v-2.368h-2.56v2.368h-1.456v2.032h1.456v3.04c0 2.112 1.2 3.2 3.2 3.2 0.912 0 1.568-0.256 2.192-0.592l-0.592-2.016zm2.969-9.488c-0.864 0-1.472 0.672-1.472 1.456 0 0.816 0.608 1.424 1.472 1.424s1.488-0.608 1.488-1.424c0-0.784-0.624-1.456-1.488-1.456zm1.28 11.856v-8.032h-2.56v8.032h2.56zm1.44-2.096c0.272 1.648 1.888 2.336 3.776 2.336 2.112 0 3.648-0.928 3.648-2.704 0-1.184-0.704-2.096-2.224-2.416l-1.888-0.384c-0.512-0.112-0.608-0.336-0.608-0.56 0-0.288 0.224-0.624 0.912-0.624 0.784 0 1.264 0.448 1.344 0.944l2.336-0.464c-0.32-1.392-1.648-2.304-3.648-2.304-2.032 0-3.456 1.072-3.456 2.72 0 1.264 0.848 2.064 2.336 2.336l1.632 0.32c0.592 0.112 0.8 0.32 0.8 0.592 0 0.352-0.368 0.64-1.04 0.64-0.688 0-1.312-0.256-1.424-0.944l-2.496 0.512zm10.187-9.76c-0.864 0-1.472 0.672-1.472 1.456 0 0.816 0.608 1.424 1.472 1.424s1.488-0.608 1.488-1.424c0-0.784-0.624-1.456-1.488-1.456zm1.28 11.856v-8.032h-2.56v8.032h2.56zm7.008-8.272c-1.008 0-1.856 0.368-2.464 1.008v-0.768h-2.56v8.032h2.56v-3.728c0-1.552 0.656-2.24 1.664-2.24 0.816 0 1.376 0.64 1.376 1.584v4.384h2.544v-4.928c0-2.016-1.248-3.344-3.12-3.344zm13.138 0.24h-2.512v0.528c-0.576-0.496-1.376-0.768-2.416-0.768-2.096 0-3.872 1.648-3.872 3.872 0 2.272 1.776 3.936 3.872 3.936 1.04 0 1.84-0.272 2.416-0.768v0.224c0 1.264-0.832 1.952-2 1.952-0.832 0-1.28-0.272-1.888-0.992l-2.128 1.152c0.784 1.296 2.192 1.936 4.032 1.936 2.608 0 4.496-1.36 4.496-3.84v-7.232zm-4.384 5.472c-1.12 0-1.92-0.768-1.92-1.84s0.8-1.824 1.92-1.824c1.024 0 1.872 0.752 1.872 1.824s-0.848 1.84-1.872 1.84z" fill="#000003"/>
<g clip-path="url(#e)">
<path d="m98.025 62.833-1.225-4.0333c-0.2416-0.7917-1.3583-0.7917-1.5916 0l-1.2334 4.0333h-3.7083c-0.8083 0-1.1417 1.0417-0.4833 1.5084l3.0333 2.1666-1.1917 3.8417c-0.2416 0.775 0.6584 1.4 1.3 0.9083l3.075-2.3333 3.075 2.3417c0.6417 0.4916 1.5421-0.1334 1.3001-0.9084l-1.1917-3.8416 3.0337-2.1667c0.658-0.475 0.325-1.5083-0.484-1.5083h-3.7081v-0.0084z" fill="#FFA630"/>
</g>
<g clip-path="url(#d)">
<path d="m118.02 62.833-1.225-4.0333c-0.242-0.7917-1.358-0.7917-1.592 0l-1.233 4.0333h-3.708c-0.809 0-1.142 1.0417-0.484 1.5084l3.034 2.1666-1.192 3.8417c-0.242 0.775 0.658 1.4 1.3 0.9083l3.075-2.3333 3.075 2.3417c0.642 0.4916 1.542-0.1334 1.3-0.9084l-1.192-3.8416 3.034-2.1667c0.658-0.475 0.325-1.5083-0.484-1.5083h-3.708v-0.0084z" fill="#FFA630"/>
</g>
<g clip-path="url(#c)">
<path d="m138.02 62.833-1.225-4.0333c-0.242-0.7917-1.358-0.7917-1.592 0l-1.233 4.0333h-3.708c-0.809 0-1.142 1.0417-0.484 1.5084l3.034 2.1666-1.192 3.8417c-0.242 0.775 0.658 1.4 1.3 0.9083l3.075-2.3333 3.075 2.3417c0.642 0.4916 1.542-0.1334 1.3-0.9084l-1.192-3.8416 3.034-2.1667c0.658-0.475 0.325-1.5083-0.484-1.5083h-3.708v-0.0084z" fill="#FFA630"/>
</g>
<g clip-path="url(#b)">
<path d="m156.13 59.004 1.195 3.9329v0.6044h4.408c0.047 0 0.068 0.0127 0.081 0.0222 0.016 0.0129 0.034 0.0357 0.044 0.0679 0.011 0.0323 0.01 0.0616 4e-3 0.0825-5e-3 0.0157-0.016 0.0395-0.054 0.0673 0 3e-4 -1e-3 5e-4 -1e-3 7e-4l-3.031 2.1648-0.411 0.2939 0.15 0.4831 1.191 3.8416 1e-3 1e-3c0.013 0.0439 8e-3 0.0678 2e-3 0.0822-7e-3 0.0197-0.024 0.0442-0.053 0.0643-0.029 0.0202-0.058 0.0278-0.08 0.028-0.016 1e-4 -0.04-3e-3 -0.075-0.0302l-2e-3 -0.0012-3.075-2.3417-0.423-0.3224-0.424 0.3217-3.075 2.3333-3e-3 2e-3c-0.035 0.0272-0.06 0.0303-0.075 0.0301-0.022-2e-4 -0.051-0.0078-0.08-0.0279s-0.046-0.0446-0.053-0.0643c-6e-3 -0.0144-0.011-0.0384 2e-3 -0.0822v-1e-3l1.192-3.8417 0.15-0.483-0.412-0.294-3.033-2.1666-2e-3 -0.0015c-0.036-0.0255-0.046-0.0471-0.05-0.0615-6e-3 -0.0199-7e-3 -0.0495 4e-3 -0.0831 0.01-0.0335 0.029-0.0573 0.046-0.0705 0.012-0.0098 0.034-0.0222 0.079-0.0222h4.226l0.151-0.4953 1.234-4.0333 2e-3 -0.0068c0.013-0.0459 0.032-0.0619 0.043-0.0699 0.016-0.0113 0.043-0.0217 0.078-0.0217s0.063 0.0104 0.081 0.0231c0.014 0.0094 0.034 0.0275 0.048 0.0747v3e-4z" fill="#FFA630" stroke="#FFA630" stroke-width="1.4"/>
</g>
<g clip-path="url(#a)">
<path d="m176.13 59.004 1.195 3.9329v0.6044h4.408c0.047 0 0.068 0.0127 0.081 0.0222 0.016 0.0129 0.034 0.0357 0.044 0.0679 0.011 0.0323 0.01 0.0616 4e-3 0.0825-5e-3 0.0157-0.016 0.0395-0.054 0.0673 0 3e-4 -1e-3 5e-4 -1e-3 7e-4l-3.031 2.1648-0.411 0.2939 0.15 0.4831 1.191 3.8416 1e-3 1e-3c0.013 0.0439 8e-3 0.0678 2e-3 0.0822-7e-3 0.0197-0.024 0.0442-0.053 0.0643-0.029 0.0202-0.058 0.0278-0.08 0.028-0.016 1e-4 -0.04-3e-3 -0.075-0.0302l-2e-3 -0.0012-3.075-2.3417-0.423-0.3224-0.424 0.3217-3.075 2.3333-3e-3 2e-3c-0.035 0.0272-0.06 0.0303-0.075 0.0301-0.022-2e-4 -0.051-0.0078-0.08-0.0279s-0.046-0.0446-0.053-0.0643c-6e-3 -0.0144-0.011-0.0384 2e-3 -0.0822v-1e-3l1.192-3.8417 0.15-0.483-0.412-0.294-3.033-2.1666-2e-3 -0.0015c-0.036-0.0255-0.046-0.0471-0.05-0.0615-6e-3 -0.0199-7e-3 -0.0495 4e-3 -0.0831 0.01-0.0335 0.029-0.0573 0.046-0.0705 0.012-0.0098 0.034-0.0222 0.079-0.0222h4.226l0.151-0.4953 1.234-4.0333 2e-3 -0.0068c0.013-0.0459 0.032-0.0619 0.043-0.0699 0.016-0.0113 0.043-0.0217 0.078-0.0217s0.063 0.0104 0.081 0.0231c0.014 0.0094 0.034 0.0275 0.048 0.0747v3e-4z" fill="#fff" stroke="#FFA630" stroke-width="1.4"/>
</g>
<path d="m202.23 59.62v9.38h3.108c3.29 0 5.194-2.044 5.194-4.69 0-2.66-1.904-4.69-5.194-4.69h-3.108zm1.106 8.372v-7.378h1.988c2.632 0 4.088 1.61 4.088 3.696 0 2.072-1.456 3.682-4.088 3.682h-1.988zm15.531-2.618c-0.07-2.058-1.526-3.444-3.388-3.444-1.904 0-3.57 1.428-3.57 3.64 0 2.198 1.666 3.612 3.5 3.612 1.554 0 2.758-0.756 3.304-2.198l-0.952-0.224c-0.49 1.106-1.372 1.484-2.352 1.484-1.19 0-2.366-0.924-2.464-2.478h5.922v-0.392zm-3.388-2.506c1.148 0 2.114 0.742 2.31 2.1h-4.802c0.21-1.358 1.372-2.1 2.492-2.1zm8.19 5.32c-1.414 0-2.562-1.022-2.562-2.632 0-1.582 1.148-2.646 2.562-2.646 1.022 0 1.946 0.56 2.254 1.624l1.022-0.308c-0.42-1.414-1.764-2.296-3.276-2.296-1.946 0-3.598 1.456-3.598 3.626 0 2.198 1.652 3.626 3.598 3.626 1.526 0 2.884-0.868 3.262-2.282l-0.98-0.266c-0.336 1.036-1.26 1.554-2.282 1.554zm14.141-0.196h-4.55l2.254-2.1c1.442-1.358 2.198-2.198 2.198-3.584 0-1.708-1.246-2.87-3.094-2.87s-3.108 1.176-3.178 2.996l1.022 0.21c0.056-1.428 0.868-2.24 2.142-2.24 1.218 0 2.044 0.77 2.044 1.918 0 1.19-0.728 1.862-1.806 2.842l-3.346 3.122v0.714h6.314v-1.008zm7.136-8.372h-6.356v0.994h5.138l-3.668 8.386h1.218l3.668-8.624v-0.756zm0.319 11.228 1.344-3.654v-0.028h-1.26l-0.924 3.682h0.84zm12.165-2.856h-4.55l2.254-2.1c1.442-1.358 2.198-2.198 2.198-3.584 0-1.708-1.246-2.87-3.094-2.87s-3.108 1.176-3.178 2.996l1.022 0.21c0.056-1.428 0.868-2.24 2.142-2.24 1.218 0 2.044 0.77 2.044 1.918 0 1.19-0.728 1.862-1.806 2.842l-3.346 3.122v0.714h6.314v-1.008zm5.091-8.554c-2.324 0-3.892 1.974-3.892 4.872 0 2.912 1.568 4.872 3.892 4.872s3.878-1.96 3.878-4.872c0-2.898-1.554-4.872-3.878-4.872zm0 8.708c-1.68 0-2.772-1.554-2.772-3.836 0-2.296 1.092-3.85 2.772-3.85 1.666 0 2.758 1.554 2.758 3.85 0 2.282-1.092 3.836-2.758 3.836zm11.397-0.154h-4.55l2.254-2.1c1.442-1.358 2.198-2.198 2.198-3.584 0-1.708-1.246-2.87-3.094-2.87s-3.108 1.176-3.178 2.996l1.022 0.21c0.056-1.428 0.868-2.24 2.142-2.24 1.218 0 2.044 0.77 2.044 1.918 0 1.19-0.728 1.862-1.806 2.842l-3.346 3.122v0.714h6.314v-1.008zm4.209-8.372h-0.686l-2.898 1.708v1.022l2.506-1.4v8.05h1.078v-9.38z" fill="#66717E"/>
<path d="m41.232 102.28h-2.288l-2.048 7.392-2.16-7.392h-2.096l-2.16 7.392-2.048-7.392h-2.272l3.12 10.72h2.32l2.096-7.232 2.08 7.232h2.336l3.12-10.72zm5.9026 2.496c-1.056 0-1.888 0.336-2.512 0.96v-4.256h-2.112v11.52h2.112v-3.536c0-1.952 0.784-2.752 1.984-2.752 0.976 0 1.616 0.752 1.616 1.872v4.416h2.112v-4.864c0-1.984-1.28-3.36-3.2-3.36zm13.283 0.24h-2.112v0.64c-0.672-0.56-1.552-0.88-2.64-0.88-2.032 0-3.92 1.728-3.92 4.24s1.888 4.224 3.92 4.224c1.088 0 1.968-0.32 2.64-0.864v0.624h2.112v-7.984zm-4.384 6.384c-1.28 0-2.24-0.912-2.24-2.384s0.96-2.4 2.24-2.4c1.136 0 2.272 0.928 2.272 2.4s-1.136 2.384-2.272 2.384zm11.818-0.512c-0.416 0.224-0.96 0.384-1.328 0.384-0.704 0-1.168-0.416-1.168-1.376v-3.152h2.608v-1.728h-2.608v-2.416h-2.112v2.416h-1.7121v1.728h1.7121v3.312c0 2.192 1.248 3.184 3.136 3.184 0.672 0 1.248-0.144 2.08-0.592l-0.608-1.76zm13.66-9.408h-2.112v4.176c-0.672-0.56-1.552-0.88-2.64-0.88-2.032 0-3.92 1.728-3.92 4.24s1.888 4.224 3.92 4.224c1.088 0 1.968-0.32 2.64-0.864v0.624h2.112v-11.52zm-4.384 9.92c-1.28 0-2.24-0.912-2.24-2.384s0.96-2.4 2.24-2.4c1.136 0 2.272 0.928 2.272 2.4s-1.136 2.384-2.272 2.384zm10.33-6.576c-2.384 0-4.352 1.68-4.352 4.192s1.968 4.192 4.352 4.192c2.336 0 4.304-1.68 4.304-4.192s-1.968-4.192-4.304-4.192zm0 6.576c-1.152 0-2.304-0.896-2.304-2.384s1.152-2.384 2.304-2.384c1.104 0 2.256 0.896 2.256 2.384s-1.152 2.384-2.256 2.384zm17.852-6.4h-2.352l-2.208 5.104-2.112-5.104h-2.352l3.312 7.744-1.28 2.976h2.352l4.64-10.72zm4.757-0.176c-2.384 0-4.352 1.68-4.352 4.192s1.968 4.192 4.352 4.192c2.336 0 4.304-1.68 4.304-4.192s-1.968-4.192-4.304-4.192zm0 6.576c-1.152 0-2.304-0.896-2.304-2.384s1.152-2.384 2.304-2.384c1.104 0 2.256 0.896 2.256 2.384s-1.152 2.384-2.256 2.384zm13.514-6.384h-2.112v3.536c0 1.952-0.784 2.752-1.984 2.752-0.976 0-1.616-0.752-1.616-1.872v-4.416h-2.112v4.864c0 1.984 1.28 3.36 3.2 3.36 1.056 0 1.888-0.336 2.512-0.96v0.72h2.112v-7.984zm8.246 7.984v-11.52h-2.112v11.52h2.112zm3.415-11.632c-0.752 0-1.28 0.592-1.28 1.264 0 0.704 0.528 1.232 1.28 1.232 0.736 0 1.28-0.528 1.28-1.232 0-0.672-0.544-1.264-1.28-1.264zm1.056 11.632v-7.984h-2.112v7.984h2.112zm10.786 0-4.272-4.16 3.856-3.824h-2.656l-2.864 2.784h-0.384v-6.32h-2.112v11.52h2.112v-3.12h0.368l3.136 3.12h2.816zm8.167-4.144c-0.08-2.432-1.92-4.08-4.048-4.08-2.288 0-4.128 1.728-4.128 4.24s1.84 4.224 4.096 4.224c1.744 0 3.168-0.8 3.872-2.464l-1.888-0.4c-0.576 0.976-1.36 1.056-1.984 1.056-0.976 0-1.792-0.704-2-1.856h6.08v-0.72zm-4.048-2.24c0.848 0 1.616 0.448 1.888 1.472h-3.856c0.256-0.992 1.168-1.472 1.968-1.472zm14.295-1.84c-1.088 0-1.968 0.32-2.64 0.88v-4.176h-2.112v11.52h2.112v-0.624c0.672 0.544 1.552 0.864 2.64 0.864 2.032 0 3.92-1.712 3.92-4.224s-1.888-4.24-3.92-4.24zm-0.368 6.624c-1.136 0-2.272-0.912-2.272-2.384s1.136-2.4 2.272-2.4c1.28 0 2.24 0.928 2.24 2.4s-0.96 2.384-2.24 2.384zm13.418-2.544c-0.08-2.432-1.92-4.08-4.048-4.08-2.288 0-4.128 1.728-4.128 4.24s1.84 4.224 4.096 4.224c1.744 0 3.168-0.8 3.872-2.464l-1.888-0.4c-0.576 0.976-1.36 1.056-1.984 1.056-0.976 0-1.792-0.704-2-1.856h6.08v-0.72zm-4.048-2.24c0.848 0 1.616 0.448 1.888 1.472h-3.856c0.256-0.992 1.168-1.472 1.968-1.472zm4.98 4.272c0.208 1.664 1.824 2.352 3.584 2.352 2.08 0 3.504-0.912 3.504-2.672 0-1.072-0.688-1.952-2.096-2.256l-1.904-0.416c-0.624-0.144-0.72-0.416-0.72-0.672 0-0.368 0.24-0.784 1.088-0.784 0.88 0 1.44 0.464 1.52 1.104l2.016-0.4c-0.272-1.392-1.584-2.368-3.472-2.368-2.016 0-3.264 1.104-3.264 2.64 0 1.152 0.816 1.968 2.256 2.272l1.632 0.336c0.688 0.144 0.88 0.432 0.88 0.72 0 0.448-0.464 0.8-1.248 0.8-0.832 0-1.536-0.272-1.648-1.088l-2.128 0.432zm13.919 0c-0.416 0.224-0.96 0.384-1.328 0.384-0.704 0-1.168-0.416-1.168-1.376v-3.152h2.608v-1.728h-2.608v-2.416h-2.112v2.416h-1.712v1.728h1.712v3.312c0 2.192 1.248 3.184 3.136 3.184 0.672 0 1.248-0.144 2.08-0.592l-0.608-1.76zm5.362-8.848c-2.256 0-3.824 1.552-3.952 3.312l2 0.4c0.192-1.104 0.88-1.84 1.952-1.84 0.992 0 1.664 0.656 1.664 1.6 0 0.832-0.672 1.392-1.664 1.392h-1.216v2.496h1.936v-0.896c1.824-0.224 2.992-1.376 2.992-2.992 0-2.064-1.488-3.472-3.712-3.472zm-0.272 8.576c-0.736 0-1.264 0.576-1.264 1.232 0 0.688 0.528 1.216 1.264 1.216s1.264-0.528 1.264-1.216c0-0.656-0.528-1.232-1.264-1.232z" fill="#000009"/>
<path d="m35.632 129.42v-1.136h-9.232v1.136h3.984v9.584h1.28v-9.584h3.968zm5.9993 1.504c-1.328 0-2.336 0.544-2.976 1.504v-4.944h-1.216v11.52h1.216v-3.792c0-2.048 1.088-3.168 2.736-3.168 1.312 0 2.192 0.992 2.192 2.464v4.496h1.216v-4.72c0-2-1.264-3.36-3.168-3.36zm13.04 3.936c-0.08-2.352-1.744-3.936-3.872-3.936-2.176 0-4.08 1.632-4.08 4.16 0 2.512 1.904 4.128 4 4.128 1.776 0 3.152-0.864 3.776-2.512l-1.088-0.256c-0.56 1.264-1.568 1.696-2.688 1.696-1.36 0-2.704-1.056-2.816-2.832h6.768v-0.448zm-3.872-2.864c1.312 0 2.416 0.848 2.64 2.4h-5.488c0.24-1.552 1.568-2.4 2.848-2.4zm20.607-0.88h-1.232l-2.032 6.112-2.112-6.112h-0.976l-2.112 6.112-2.032-6.112h-1.232l2.656 7.92h1.136l2.08-5.984 2.064 5.984h1.136l2.656-7.92zm8.874 3.744c-0.08-2.352-1.744-3.936-3.872-3.936-2.176 0-4.08 1.632-4.08 4.16 0 2.512 1.904 4.128 4 4.128 1.776 0 3.152-0.864 3.776-2.512l-1.088-0.256c-0.56 1.264-1.568 1.696-2.688 1.696-1.36 0-2.704-1.056-2.816-2.832h6.768v-0.448zm-3.872-2.864c1.312 0 2.416 0.848 2.64 2.4h-5.488c0.24-1.552 1.568-2.4 2.848-2.4zm10.32-1.072c-1.312 0-2.432 0.528-3.136 1.456v-4.896h-1.216v11.52h1.216v-1.248c0.704 0.928 1.824 1.456 3.136 1.456 2.096 0 3.936-1.648 3.936-4.144s-1.84-4.144-3.936-4.144zm-0.192 7.2c-1.488 0-2.944-1.184-2.944-3.056 0-1.888 1.456-3.072 2.944-3.072 1.632 0 2.944 1.184 2.944 3.072 0 1.872-1.312 3.056-2.944 3.056zm5.5586-1.248c0.192 1.536 1.632 2.336 3.44 2.336 1.888 0 3.184-0.88 3.184-2.432 0-1.2-0.88-1.808-2.032-2.064l-1.904-0.416c-0.768-0.176-1.2-0.464-1.2-1.088 0-0.752 0.624-1.296 1.744-1.296 1.168 0 1.92 0.592 2.08 1.456l1.168-0.256c-0.288-1.28-1.44-2.192-3.216-2.192-1.808 0-2.992 0.96-2.992 2.384 0 1.088 0.736 1.744 2.048 2.016l1.808 0.4c0.8 0.176 1.296 0.48 1.296 1.136 0 0.816-0.752 1.344-1.888 1.344-1.248 0-2.208-0.56-2.32-1.6l-1.216 0.272zm9.5016-8.96c-0.48 0-0.832 0.384-0.832 0.816 0 0.464 0.352 0.816 0.832 0.816s0.848-0.352 0.848-0.816c0-0.432-0.368-0.816-0.848-0.816zm0.624 11.088v-7.888h-1.232v7.888h1.232zm7.273-1.424c-0.4 0.288-0.896 0.48-1.344 0.48-0.88 0-1.456-0.576-1.456-1.6v-4.32h2.816v-1.024h-2.816v-2.512h-1.232v2.512h-1.712v1.024h1.712v4.4c0 1.744 1.04 2.672 2.608 2.672 0.64 0 1.184-0.176 1.824-0.624l-0.4-1.008zm8.959-2.72c-0.08-2.352-1.744-3.936-3.872-3.936-2.176 0-4.08 1.632-4.08 4.16 0 2.512 1.904 4.128 4 4.128 1.776 0 3.152-0.864 3.776-2.512l-1.088-0.256c-0.56 1.264-1.568 1.696-2.688 1.696-1.36 0-2.704-1.056-2.816-2.832h6.768v-0.448zm-3.872-2.864c1.312 0 2.416 0.848 2.64 2.4h-5.488c0.24-1.552 1.568-2.4 2.848-2.4zm17.231 2.864c-0.08-2.352-1.744-3.936-3.872-3.936-2.176 0-4.08 1.632-4.08 4.16 0 2.512 1.904 4.128 4 4.128 1.776 0 3.152-0.864 3.776-2.512l-1.088-0.256c-0.56 1.264-1.568 1.696-2.688 1.696-1.36 0-2.704-1.056-2.816-2.832h6.768v-0.448zm-3.872-2.864c1.312 0 2.416 0.848 2.64 2.4h-5.488c0.24-1.552 1.568-2.4 2.848-2.4zm9.768 3.12 3.008-4h-1.472l-2.432 3.248-2.432-3.248h-1.472l3.008 4-3.008 3.888h1.472l2.432-3.152 2.432 3.152h1.472l-3.008-3.888zm9.49-4.192c-1.312 0-2.432 0.528-3.136 1.456v-1.264h-1.216v10.608h1.216v-3.968c0.704 0.928 1.824 1.456 3.136 1.456 2.096 0 3.936-1.648 3.936-4.144s-1.84-4.144-3.936-4.144zm-0.192 7.2c-1.488 0-2.944-1.184-2.944-3.056 0-1.888 1.456-3.072 2.944-3.072 1.632 0 2.944 1.184 2.944 3.072 0 1.872-1.312 3.056-2.944 3.056zm13.462-3.264c-0.08-2.352-1.744-3.936-3.872-3.936-2.176 0-4.08 1.632-4.08 4.16 0 2.512 1.904 4.128 4 4.128 1.776 0 3.152-0.864 3.776-2.512l-1.088-0.256c-0.56 1.264-1.568 1.696-2.688 1.696-1.36 0-2.704-1.056-2.816-2.832h6.768v-0.448zm-3.872-2.864c1.312 0 2.416 0.848 2.64 2.4h-5.488c0.24-1.552 1.568-2.4 2.848-2.4zm10.368-0.96c-1.456 0-2.528 0.848-3.168 2.016v-1.936h-1.232v7.888h1.232v-3.04c0-2.128 1.072-3.712 3.168-3.712 0.144 0 0.32 0 0.464 0.016l0.096-1.168c-0.224-0.064-0.368-0.064-0.56-0.064zm2.93-3.12c-0.48 0-0.832 0.384-0.832 0.816 0 0.464 0.352 0.816 0.832 0.816s0.848-0.352 0.848-0.816c0-0.432-0.368-0.816-0.848-0.816zm0.624 11.088v-7.888h-1.232v7.888h1.232zm10.169-4.144c-0.08-2.352-1.744-3.936-3.872-3.936-2.176 0-4.08 1.632-4.08 4.16 0 2.512 1.904 4.128 4 4.128 1.776 0 3.152-0.864 3.776-2.512l-1.088-0.256c-0.56 1.264-1.568 1.696-2.688 1.696-1.36 0-2.704-1.056-2.816-2.832h6.768v-0.448zm-3.872-2.864c1.312 0 2.416 0.848 2.64 2.4h-5.488c0.24-1.552 1.568-2.4 2.848-2.4zm10.16-1.072c-1.328 0-2.336 0.544-2.976 1.504v-1.312h-1.216v7.888h1.216v-3.792c0-2.048 1.088-3.168 2.736-3.168 1.312 0 2.192 0.992 2.192 2.464v4.496h1.216v-4.72c0-2-1.264-3.36-3.168-3.36zm9.184 7.152c-1.616 0-2.928-1.168-2.928-3.008 0-1.808 1.312-3.024 2.928-3.024 1.168 0 2.224 0.64 2.576 1.856l1.168-0.352c-0.48-1.616-2.016-2.624-3.744-2.624-2.224 0-4.112 1.664-4.112 4.144 0 2.512 1.888 4.144 4.112 4.144 1.744 0 3.296-0.992 3.728-2.608l-1.12-0.304c-0.384 1.184-1.44 1.776-2.608 1.776zm13.059-3.216c-0.08-2.352-1.744-3.936-3.872-3.936-2.176 0-4.08 1.632-4.08 4.16 0 2.512 1.904 4.128 4 4.128 1.776 0 3.152-0.864 3.776-2.512l-1.088-0.256c-0.56 1.264-1.568 1.696-2.688 1.696-1.36 0-2.704-1.056-2.816-2.832h6.768v-0.448zm-3.872-2.864c1.312 0 2.416 0.848 2.64 2.4h-5.488c0.24-1.552 1.568-2.4 2.848-2.4zm10.736-4.08c-0.48 0-0.832 0.384-0.832 0.816 0 0.464 0.352 0.816 0.832 0.816s0.848-0.352 0.848-0.816c0-0.432-0.368-0.816-0.848-0.816zm0.624 11.088v-7.888h-1.232v7.888h1.232zm2.264-2.128c0.192 1.536 1.632 2.336 3.44 2.336 1.888 0 3.184-0.88 3.184-2.432 0-1.2-0.88-1.808-2.032-2.064l-1.904-0.416c-0.768-0.176-1.2-0.464-1.2-1.088 0-0.752 0.624-1.296 1.744-1.296 1.168 0 1.92 0.592 2.08 1.456l1.168-0.256c-0.288-1.28-1.44-2.192-3.216-2.192-1.808 0-2.992 0.96-2.992 2.384 0 1.088 0.736 1.744 2.048 2.016l1.808 0.4c0.8 0.176 1.296 0.48 1.296 1.136 0 0.816-0.752 1.344-1.888 1.344-1.248 0-2.208-0.56-2.32-1.6l-1.216 0.272zm19.981-5.76h-1.232v3.792c0 2.048-1.088 3.152-2.736 3.152-1.312 0-2.176-0.976-2.176-2.448v-4.496h-1.232v4.72c0 2 1.264 3.36 3.168 3.36 1.312 0 2.336-0.544 2.976-1.488v1.28h1.232v-7.872zm2.004 5.76c0.192 1.536 1.632 2.336 3.44 2.336 1.888 0 3.184-0.88 3.184-2.432 0-1.2-0.88-1.808-2.032-2.064l-1.904-0.416c-0.768-0.176-1.2-0.464-1.2-1.088 0-0.752 0.624-1.296 1.744-1.296 1.168 0 1.92 0.592 2.08 1.456l1.168-0.256c-0.288-1.28-1.44-2.192-3.216-2.192-1.808 0-2.992 0.96-2.992 2.384 0 1.088 0.736 1.744 2.048 2.016l1.808 0.4c0.8 0.176 1.296 0.48 1.296 1.136 0 0.816-0.752 1.344-1.888 1.344-1.248 0-2.208-0.56-2.32-1.6l-1.216 0.272zm15.998-2.016c-0.08-2.352-1.744-3.936-3.872-3.936-2.176 0-4.08 1.632-4.08 4.16 0 2.512 1.904 4.128 4 4.128 1.776 0 3.152-0.864 3.776-2.512l-1.088-0.256c-0.56 1.264-1.568 1.696-2.688 1.696-1.36 0-2.704-1.056-2.816-2.832h6.768v-0.448zm-3.872-2.864c1.312 0 2.416 0.848 2.64 2.4h-5.488c0.24-1.552 1.568-2.4 2.848-2.4zm10.368-0.96c-1.456 0-2.528 0.848-3.168 2.016v-1.936h-1.232v7.888h1.232v-3.04c0-2.128 1.072-3.712 3.168-3.712 0.144 0 0.32 0 0.464 0.016l0.096-1.168c-0.224-0.064-0.368-0.064-0.56-0.064zm6.913 4.416v-1.072h-5.168v1.072h5.168zm6.742-3.312v-1.024h-2.864v-1.168c0-1.008 0.608-1.632 1.568-1.632 0.288 0 0.608 0.064 0.896 0.176l0.304-0.992c-0.384-0.192-0.816-0.288-1.28-0.288-1.648 0-2.704 1.072-2.704 2.736v1.168h-1.376v1.024h1.376v6.864h1.216v-6.864h2.864zm5.735-1.104c-1.456 0-2.528 0.848-3.168 2.016v-1.936h-1.232v7.888h1.232v-3.04c0-2.128 1.072-3.712 3.168-3.712 0.144 0 0.32 0 0.464 0.016l0.096-1.168c-0.224-0.064-0.368-0.064-0.56-0.064zm2.93-3.12c-0.48 0-0.832 0.384-0.832 0.816 0 0.464 0.352 0.816 0.832 0.816s0.848-0.352 0.848-0.816c0-0.432-0.368-0.816-0.848-0.816zm0.624 11.088v-7.888h-1.232v7.888h1.232zm10.169-4.144c-0.08-2.352-1.744-3.936-3.872-3.936-2.176 0-4.08 1.632-4.08 4.16 0 2.512 1.904 4.128 4 4.128 1.776 0 3.152-0.864 3.776-2.512l-1.088-0.256c-0.56 1.264-1.568 1.696-2.688 1.696-1.36 0-2.704-1.056-2.816-2.832h6.768v-0.448zm-3.872-2.864c1.312 0 2.416 0.848 2.64 2.4h-5.488c0.24-1.552 1.568-2.4 2.848-2.4zm10.16-1.072c-1.328 0-2.336 0.544-2.976 1.504v-1.312h-1.216v7.888h1.216v-3.792c0-2.048 1.088-3.168 2.736-3.168 1.312 0 2.192 0.992 2.192 2.464v4.496h1.216v-4.72c0-2-1.264-3.36-3.168-3.36zm13.36-3.44h-1.216v4.896c-0.704-0.928-1.824-1.456-3.136-1.456-2.096 0-3.936 1.648-3.936 4.144s1.84 4.144 3.936 4.144c1.312 0 2.432-0.528 3.136-1.456v1.248h1.216v-11.52zm-4.16 10.64c-1.632 0-2.944-1.184-2.944-3.056 0-1.888 1.312-3.072 2.944-3.072 1.488 0 2.944 1.184 2.944 3.072 0 1.872-1.456 3.056-2.944 3.056zm8.199 0.88v-11.52h-1.216v11.52h1.216zm10.127-7.888h-1.36l-2.88 6.304-2.816-6.304h-1.376l3.536 7.776-1.296 2.832h1.36l4.832-10.608zm0.449 10 1.536-4.176v-0.032h-1.44l-1.056 4.208h0.96zm-295.93 15h-1.216v1.264c-0.704-0.928-1.824-1.456-3.136-1.456-2.096 0-3.936 1.648-3.936 4.144s1.84 4.144 3.936 4.144c1.312 0 2.432-0.528 3.136-1.456v1.248h1.216v-7.888zm-4.16 7.008c-1.632 0-2.944-1.184-2.944-3.056 0-1.888 1.312-3.072 2.944-3.072 1.488 0 2.944 1.184 2.944 3.072 0 1.872-1.456 3.056-2.944 3.056zm11.161-7.2c-1.328 0-2.336 0.544-2.976 1.504v-1.312h-1.216v7.888h1.216v-3.792c0-2.048 1.088-3.168 2.736-3.168 1.312 0 2.192 0.992 2.192 2.464v4.496h1.216v-4.72c0-2-1.264-3.36-3.168-3.36zm13.36-3.44h-1.216v4.896c-0.704-0.928-1.824-1.456-3.136-1.456-2.096 0-3.936 1.648-3.936 4.144s1.84 4.144 3.936 4.144c1.312 0 2.432-0.528 3.136-1.456v1.248h1.216v-11.52zm-4.16 10.64c-1.632 0-2.944-1.184-2.944-3.056 0-1.888 1.312-3.072 2.944-3.072 1.488 0 2.944 1.184 2.944 3.072 0 1.872-1.456 3.056-2.944 3.056zm11.75-10.208c-0.48 0-0.832 0.384-0.832 0.816 0 0.464 0.352 0.816 0.832 0.816s0.848-0.352 0.848-0.816c0-0.432-0.368-0.816-0.848-0.816zm0.624 11.088v-7.888h-1.232v7.888h1.232zm7.2729-1.424c-0.4 0.288-0.896 0.48-1.344 0.48-0.88 0-1.456-0.576-1.456-1.6v-4.32h2.816v-1.024h-2.816v-2.512h-1.232v2.512h-1.712v1.024h1.712v4.4c0 1.744 1.04 2.672 2.608 2.672 0.64 0 1.184-0.176 1.824-0.624l-0.4-1.008zm6.7281-9.664c-0.48 0-0.832 0.384-0.832 0.816 0 0.464 0.352 0.816 0.832 0.816s0.848-0.352 0.848-0.816c0-0.432-0.368-0.816-0.848-0.816zm0.624 11.088v-7.888h-1.232v7.888h1.232zm2.2649-2.128c0.192 1.536 1.632 2.336 3.44 2.336 1.888 0 3.184-0.88 3.184-2.432 0-1.2-0.88-1.808-2.032-2.064l-1.904-0.416c-0.768-0.176-1.2-0.464-1.2-1.088 0-0.752 0.624-1.296 1.744-1.296 1.168 0 1.92 0.592 2.08 1.456l1.168-0.256c-0.288-1.28-1.44-2.192-3.216-2.192-1.808 0-2.992 0.96-2.992 2.384 0 1.088 0.736 1.744 2.048 2.016l1.808 0.4c0.8 0.176 1.296 0.48 1.296 1.136 0 0.816-0.752 1.344-1.888 1.344-1.248 0-2.208-0.56-2.32-1.6l-1.216 0.272zm19.981-5.76h-1.328l-2.816 6.448-2.832-6.448h-1.328l3.488 7.888h1.328l3.488-7.888zm8.673 3.744c-0.08-2.352-1.744-3.936-3.872-3.936-2.176 0-4.08 1.632-4.08 4.16 0 2.512 1.904 4.128 4 4.128 1.776 0 3.152-0.864 3.776-2.512l-1.088-0.256c-0.56 1.264-1.568 1.696-2.688 1.696-1.36 0-2.704-1.056-2.816-2.832h6.768v-0.448zm-3.872-2.864c1.312 0 2.416 0.848 2.64 2.4h-5.488c0.24-1.552 1.568-2.4 2.848-2.4zm10.368-0.96c-1.456 0-2.528 0.848-3.168 2.016v-1.936h-1.232v7.888h1.232v-3.04c0-2.128 1.072-3.712 3.168-3.712 0.144 0 0.32 0 0.464 0.016l0.096-1.168c-0.224-0.064-0.368-0.064-0.56-0.064zm9.506 0.08h-1.36l-2.88 6.304-2.816-6.304h-1.376l3.536 7.776-1.296 2.832h1.36l4.832-10.608zm12.967 3.744c-0.08-2.352-1.744-3.936-3.872-3.936-2.176 0-4.08 1.632-4.08 4.16 0 2.512 1.904 4.128 4 4.128 1.776 0 3.152-0.864 3.776-2.512l-1.088-0.256c-0.56 1.264-1.568 1.696-2.688 1.696-1.36 0-2.704-1.056-2.816-2.832h6.768v-0.448zm-3.872-2.864c1.312 0 2.416 0.848 2.64 2.4h-5.488c0.24-1.552 1.568-2.4 2.848-2.4zm13.456-0.88h-1.216v1.264c-0.704-0.928-1.824-1.456-3.136-1.456-2.096 0-3.936 1.648-3.936 4.144s1.84 4.144 3.936 4.144c1.312 0 2.432-0.528 3.136-1.456v1.248h1.216v-7.888zm-4.16 7.008c-1.632 0-2.944-1.184-2.944-3.056 0-1.888 1.312-3.072 2.944-3.072 1.488 0 2.944 1.184 2.944 3.072 0 1.872-1.456 3.056-2.944 3.056zm6.297-1.248c0.192 1.536 1.632 2.336 3.44 2.336 1.888 0 3.184-0.88 3.184-2.432 0-1.2-0.88-1.808-2.032-2.064l-1.904-0.416c-0.768-0.176-1.2-0.464-1.2-1.088 0-0.752 0.624-1.296 1.744-1.296 1.168 0 1.92 0.592 2.08 1.456l1.168-0.256c-0.288-1.28-1.44-2.192-3.216-2.192-1.808 0-2.992 0.96-2.992 2.384 0 1.088 0.736 1.744 2.048 2.016l1.808 0.4c0.8 0.176 1.296 0.48 1.296 1.136 0 0.816-0.752 1.344-1.888 1.344-1.248 0-2.208-0.56-2.32-1.6l-1.216 0.272zm15.921-5.76h-1.36l-2.88 6.304-2.816-6.304h-1.376l3.536 7.776-1.296 2.832h1.36l4.832-10.608zm10.071 6.464c-0.4 0.288-0.896 0.48-1.344 0.48-0.88 0-1.456-0.576-1.456-1.6v-4.32h2.816v-1.024h-2.816v-2.512h-1.232v2.512h-1.712v1.024h1.712v4.4c0 1.744 1.04 2.672 2.608 2.672 0.64 0 1.184-0.176 1.824-0.624l-0.4-1.008zm5.199-6.64c-2.352 0-4.192 1.696-4.192 4.112s1.84 4.144 4.192 4.144c2.32 0 4.176-1.728 4.176-4.144s-1.856-4.112-4.176-4.112zm0 7.184c-1.632 0-3.008-1.248-3.008-3.072 0-1.808 1.376-3.04 3.008-3.04 1.616 0 2.976 1.232 2.976 3.04 0 1.824-1.36 3.072-2.976 3.072zm14.485-7.2c-1.328 0-2.336 0.544-2.976 1.504v-1.312h-1.216v7.888h1.216v-3.792c0-2.048 1.088-3.168 2.736-3.168 1.312 0 2.192 0.992 2.192 2.464v4.496h1.216v-4.72c0-2-1.264-3.36-3.168-3.36zm13.281 0.192h-1.216v1.264c-0.704-0.928-1.824-1.456-3.136-1.456-2.096 0-3.936 1.648-3.936 4.144s1.84 4.144 3.936 4.144c1.312 0 2.432-0.528 3.136-1.456v1.248h1.216v-7.888zm-4.16 7.008c-1.632 0-2.944-1.184-2.944-3.056 0-1.888 1.312-3.072 2.944-3.072 1.488 0 2.944 1.184 2.944 3.072 0 1.872-1.456 3.056-2.944 3.056zm14.153-7.008h-1.328l-2.816 6.448-2.832-6.448h-1.328l3.488 7.888h1.328l3.488-7.888zm2.427-3.2c-0.48 0-0.832 0.384-0.832 0.816 0 0.464 0.352 0.816 0.832 0.816s0.848-0.352 0.848-0.816c0-0.432-0.368-0.816-0.848-0.816zm0.624 11.088v-7.888h-1.232v7.888h1.232zm10.248-7.888h-1.184v1.088c-0.64-0.816-1.648-1.28-2.96-1.28-2.08 0-3.888 1.568-3.888 3.792 0 2.24 1.808 3.824 3.888 3.824 1.312 0 2.32-0.464 2.96-1.296v0.96c0 1.68-1.104 2.736-2.768 2.736-1.472 0-2.272-0.592-2.832-1.648l-1.024 0.704c0.608 1.28 1.904 2.048 3.856 2.048 2.384 0 3.952-1.376 3.968-3.68l-0.016-7.248zm-3.968 6.368c-1.6 0-2.88-1.088-2.88-2.768s1.28-2.736 2.88-2.736c1.472 0 2.784 1.056 2.784 2.736s-1.312 2.768-2.784 2.768zm14.269-6.368h-1.216v1.264c-0.704-0.928-1.824-1.456-3.136-1.456-2.096 0-3.936 1.648-3.936 4.144s1.84 4.144 3.936 4.144c1.312 0 2.432-0.528 3.136-1.456v1.248h1.216v-7.888zm-4.16 7.008c-1.632 0-2.944-1.184-2.944-3.056 0-1.888 1.312-3.072 2.944-3.072 1.488 0 2.944 1.184 2.944 3.072 0 1.872-1.456 3.056-2.944 3.056zm11.305-0.544c-0.4 0.288-0.896 0.48-1.344 0.48-0.88 0-1.456-0.576-1.456-1.6v-4.32h2.816v-1.024h-2.816v-2.512h-1.232v2.512h-1.712v1.024h1.712v4.4c0 1.744 1.04 2.672 2.608 2.672 0.64 0 1.184-0.176 1.824-0.624l-0.4-1.008zm8.959-2.72c-0.08-2.352-1.744-3.936-3.872-3.936-2.176 0-4.08 1.632-4.08 4.16 0 2.512 1.904 4.128 4 4.128 1.776 0 3.152-0.864 3.776-2.512l-1.088-0.256c-0.56 1.264-1.568 1.696-2.688 1.696-1.36 0-2.704-1.056-2.816-2.832h6.768v-0.448zm-3.872-2.864c1.312 0 2.416 0.848 2.64 2.4h-5.488c0.24-1.552 1.568-2.4 2.848-2.4zm17.487-0.88h-1.216v1.264c-0.704-0.928-1.824-1.456-3.136-1.456-2.096 0-3.936 1.648-3.936 4.144s1.84 4.144 3.936 4.144c1.312 0 2.432-0.528 3.136-1.456v1.248h1.216v-7.888zm-4.16 7.008c-1.632 0-2.944-1.184-2.944-3.056 0-1.888 1.312-3.072 2.944-3.072 1.488 0 2.944 1.184 2.944 3.072 0 1.872-1.456 3.056-2.944 3.056zm11.161-7.2c-1.328 0-2.336 0.544-2.976 1.504v-1.312h-1.216v7.888h1.216v-3.792c0-2.048 1.088-3.168 2.736-3.168 1.312 0 2.192 0.992 2.192 2.464v4.496h1.216v-4.72c0-2-1.264-3.36-3.168-3.36zm13.36-3.44h-1.216v4.896c-0.704-0.928-1.824-1.456-3.136-1.456-2.096 0-3.936 1.648-3.936 4.144s1.84 4.144 3.936 4.144c1.312 0 2.432-0.528 3.136-1.456v1.248h1.216v-11.52zm-4.16 10.64c-1.632 0-2.944-1.184-2.944-3.056 0-1.888 1.312-3.072 2.944-3.072 1.488 0 2.944 1.184 2.944 3.072 0 1.872-1.456 3.056-2.944 3.056zm10.342-1.248c0.192 1.536 1.632 2.336 3.44 2.336 1.888 0 3.184-0.88 3.184-2.432 0-1.2-0.88-1.808-2.032-2.064l-1.904-0.416c-0.768-0.176-1.2-0.464-1.2-1.088 0-0.752 0.624-1.296 1.744-1.296 1.168 0 1.92 0.592 2.08 1.456l1.168-0.256c-0.288-1.28-1.44-2.192-3.216-2.192-1.808 0-2.992 0.96-2.992 2.384 0 1.088 0.736 1.744 2.048 2.016l1.808 0.4c0.8 0.176 1.296 0.48 1.296 1.136 0 0.816-0.752 1.344-1.888 1.344-1.248 0-2.208-0.56-2.32-1.6l-1.216 0.272zm12.238-5.936c-2.352 0-4.192 1.696-4.192 4.112s1.84 4.144 4.192 4.144c2.32 0 4.176-1.728 4.176-4.144s-1.856-4.112-4.176-4.112zm0 7.184c-1.632 0-3.008-1.248-3.008-3.072 0-1.808 1.376-3.04 3.008-3.04 1.616 0 2.976 1.232 2.976 3.04 0 1.824-1.36 3.072-2.976 3.072zm7.478 0.88v-11.52h-1.216v11.52h1.216zm10-7.888h-1.328l-2.816 6.448-2.832-6.448h-1.328l3.488 7.888h1.328l3.488-7.888zm8.673 3.744c-0.08-2.352-1.744-3.936-3.872-3.936-2.176 0-4.08 1.632-4.08 4.16 0 2.512 1.904 4.128 4 4.128 1.776 0 3.152-0.864 3.776-2.512l-1.088-0.256c-0.56 1.264-1.568 1.696-2.688 1.696-1.36 0-2.704-1.056-2.816-2.832h6.768v-0.448zm-3.872-2.864c1.312 0 2.416 0.848 2.64 2.4h-5.488c0.24-1.552 1.568-2.4 2.848-2.4zm-296.06 23.928c-1.344 0-2.368 0.624-2.976 1.6-0.464-1.008-1.472-1.6-2.688-1.6-1.232 0-2.128 0.528-2.688 1.392v-1.2h-1.216v7.888h1.216v-4.032c0-1.856 0.944-2.928 2.4-2.928 1.168 0 2.016 0.816 2.016 2.064v4.896h1.216v-4.032c0-1.856 0.96-2.928 2.416-2.928 1.184 0 2.032 0.816 2.032 2.064v4.896h1.216v-5.104c0-1.792-1.28-2.976-2.944-2.976zm12.65 0.192h-1.36l-2.88 6.304-2.816-6.304h-1.376l3.536 7.776-1.296 2.832h1.36l4.832-10.608zm9.9268-0.192c-1.328 0-2.336 0.544-2.976 1.504v-1.312h-1.216v7.888h1.216v-3.792c0-2.048 1.088-3.168 2.736-3.168 1.312 0 2.192 0.992 2.192 2.464v4.496h1.216v-4.72c0-2-1.264-3.36-3.168-3.36zm13.024 3.936c-0.08-2.352-1.744-3.936-3.872-3.936-2.176 0-4.08 1.632-4.08 4.16 0 2.512 1.904 4.128 4 4.128 1.776 0 3.152-0.864 3.776-2.512l-1.088-0.256c-0.56 1.264-1.568 1.696-2.688 1.696-1.36 0-2.704-1.056-2.816-2.832h6.768v-0.448zm-3.872-2.864c1.312 0 2.416 0.848 2.64 2.4h-5.488c0.24-1.552 1.568-2.4 2.848-2.4zm13.2 2.864c-0.08-2.352-1.744-3.936-3.872-3.936-2.176 0-4.08 1.632-4.08 4.16 0 2.512 1.904 4.128 4 4.128 1.776 0 3.152-0.864 3.776-2.512l-1.088-0.256c-0.56 1.264-1.568 1.696-2.688 1.696-1.36 0-2.704-1.056-2.816-2.832h6.768v-0.448zm-3.872-2.864c1.312 0 2.416 0.848 2.64 2.4h-5.488c0.24-1.552 1.568-2.4 2.848-2.4zm13.536-4.512h-1.216v4.896c-0.704-0.928-1.824-1.456-3.136-1.456-2.096 0-3.936 1.648-3.936 4.144s1.84 4.144 3.936 4.144c1.312 0 2.432-0.528 3.136-1.456v1.248h1.216v-11.52zm-4.16 10.64c-1.632 0-2.944-1.184-2.944-3.056 0-1.888 1.312-3.072 2.944-3.072 1.488 0 2.944 1.184 2.944 3.072 0 1.872-1.456 3.056-2.944 3.056zm6.3106-1.248c0.192 1.536 1.632 2.336 3.44 2.336 1.888 0 3.1836-0.88 3.1836-2.432 0-1.2-0.8796-1.808-2.0316-2.064l-1.904-0.416c-0.768-0.176-1.2-0.464-1.2-1.088 0-0.752 0.624-1.296 1.744-1.296 1.168 0 1.92 0.592 2.08 1.456l1.1676-0.256c-0.2876-1.28-1.4396-2.192-3.2156-2.192-1.808 0-2.992 0.96-2.992 2.384 0 1.088 0.736 1.744 2.048 2.016l1.808 0.4c0.8 0.176 1.296 0.48 1.296 1.136 0 0.816-0.752 1.344-1.888 1.344-1.248 0-2.208-0.56-2.32-1.6l-1.216 0.272zm20.029-2.016c-0.08-2.352-1.744-3.936-3.872-3.936-2.176 0-4.08 1.632-4.08 4.16 0 2.512 1.904 4.128 4 4.128 1.776 0 3.152-0.864 3.776-2.512l-1.088-0.256c-0.56 1.264-1.568 1.696-2.688 1.696-1.36 0-2.704-1.056-2.816-2.832h6.768v-0.448zm-3.872-2.864c1.312 0 2.416 0.848 2.64 2.4h-5.488c0.24-1.552 1.568-2.4 2.848-2.4zm13.457-0.88h-1.216v1.264c-0.704-0.928-1.824-1.456-3.136-1.456-2.096 0-3.936 1.648-3.936 4.144s1.84 4.144 3.936 4.144c1.312 0 2.432-0.528 3.136-1.456v1.248h1.216v-7.888zm-4.16 7.008c-1.632 0-2.944-1.184-2.944-3.056 0-1.888 1.312-3.072 2.944-3.072 1.488 0 2.944 1.184 2.944 3.072 0 1.872-1.456 3.056-2.944 3.056zm6.296-1.248c0.192 1.536 1.632 2.336 3.44 2.336 1.888 0 3.184-0.88 3.184-2.432 0-1.2-0.88-1.808-2.032-2.064l-1.904-0.416c-0.768-0.176-1.2-0.464-1.2-1.088 0-0.752 0.624-1.296 1.744-1.296 1.168 0 1.92 0.592 2.08 1.456l1.168-0.256c-0.288-1.28-1.44-2.192-3.216-2.192-1.808 0-2.992 0.96-2.992 2.384 0 1.088 0.736 1.744 2.048 2.016l1.808 0.4c0.8 0.176 1.296 0.48 1.296 1.136 0 0.816-0.752 1.344-1.888 1.344-1.248 0-2.208-0.56-2.32-1.6l-1.216 0.272zm9.502-8.96c-0.48 0-0.832 0.384-0.832 0.816 0 0.464 0.352 0.816 0.832 0.816s0.848-0.352 0.848-0.816c0-0.432-0.368-0.816-0.848-0.816zm0.624 11.088v-7.888h-1.232v7.888h1.232zm4.153 0v-11.52h-1.216v11.52h1.216zm10.127-7.888h-1.36l-2.88 6.304-2.816-6.304h-1.376l3.536 7.776-1.296 2.832h1.36l4.832-10.608zm1.287 6.32c-0.48 0-0.832 0.384-0.832 0.816 0 0.448 0.352 0.8 0.832 0.8s0.832-0.352 0.832-0.8c0-0.432-0.352-0.816-0.832-0.816z" fill="#2B2B59"/>
<path d="m41.232 223.28h-2.288l-2.048 7.392-2.16-7.392h-2.096l-2.16 7.392-2.048-7.392h-2.272l3.12 10.72h2.32l2.096-7.232 2.08 7.232h2.336l3.12-10.72zm5.9026 2.496c-1.056 0-1.888 0.336-2.512 0.96v-4.256h-2.112v11.52h2.112v-3.536c0-1.952 0.784-2.752 1.984-2.752 0.976 0 1.616 0.752 1.616 1.872v4.416h2.112v-4.864c0-1.984-1.28-3.36-3.2-3.36zm13.283 0.24h-2.112v0.64c-0.672-0.56-1.552-0.88-2.64-0.88-2.032 0-3.92 1.728-3.92 4.24s1.888 4.224 3.92 4.224c1.088 0 1.968-0.32 2.64-0.864v0.624h2.112v-7.984zm-4.384 6.384c-1.28 0-2.24-0.912-2.24-2.384s0.96-2.4 2.24-2.4c1.136 0 2.272 0.928 2.272 2.4s-1.136 2.384-2.272 2.384zm11.818-0.512c-0.416 0.224-0.96 0.384-1.328 0.384-0.704 0-1.168-0.416-1.168-1.376v-3.152h2.608v-1.728h-2.608v-2.416h-2.112v2.416h-1.7121v1.728h1.7121v3.312c0 2.192 1.248 3.184 3.136 3.184 0.672 0 1.248-0.144 2.08-0.592l-0.608-1.76zm13.66-9.408h-2.112v4.176c-0.672-0.56-1.552-0.88-2.64-0.88-2.032 0-3.92 1.728-3.92 4.24s1.888 4.224 3.92 4.224c1.088 0 1.968-0.32 2.64-0.864v0.624h2.112v-11.52zm-4.384 9.92c-1.28 0-2.24-0.912-2.24-2.384s0.96-2.4 2.24-2.4c1.136 0 2.272 0.928 2.272 2.4s-1.136 2.384-2.272 2.384zm10.33-6.576c-2.384 0-4.352 1.68-4.352 4.192s1.968 4.192 4.352 4.192c2.336 0 4.304-1.68 4.304-4.192s-1.968-4.192-4.304-4.192zm0 6.576c-1.152 0-2.304-0.896-2.304-2.384s1.152-2.384 2.304-2.384c1.104 0 2.256 0.896 2.256 2.384s-1.152 2.384-2.256 2.384zm17.852-6.4h-2.352l-2.208 5.104-2.112-5.104h-2.352l3.312 7.744-1.28 2.976h2.352l4.64-10.72zm4.757-0.176c-2.384 0-4.352 1.68-4.352 4.192s1.968 4.192 4.352 4.192c2.336 0 4.304-1.68 4.304-4.192s-1.968-4.192-4.304-4.192zm0 6.576c-1.152 0-2.304-0.896-2.304-2.384s1.152-2.384 2.304-2.384c1.104 0 2.256 0.896 2.256 2.384s-1.152 2.384-2.256 2.384zm13.514-6.384h-2.112v3.536c0 1.952-0.784 2.752-1.984 2.752-0.976 0-1.616-0.752-1.616-1.872v-4.416h-2.112v4.864c0 1.984 1.28 3.36 3.2 3.36 1.056 0 1.888-0.336 2.512-0.96v0.72h2.112v-7.984zm14.166-3.536h-2.112v4.176c-0.672-0.56-1.552-0.88-2.64-0.88-2.032 0-3.92 1.728-3.92 4.24s1.888 4.224 3.92 4.224c1.088 0 1.968-0.32 2.64-0.864v0.624h2.112v-11.52zm-4.384 9.92c-1.28 0-2.24-0.912-2.24-2.384s0.96-2.4 2.24-2.4c1.136 0 2.272 0.928 2.272 2.4s-1.136 2.384-2.272 2.384zm7.785-10.032c-0.752 0-1.28 0.592-1.28 1.264 0 0.704 0.528 1.232 1.28 1.232 0.736 0 1.28-0.528 1.28-1.232 0-0.672-0.544-1.264-1.28-1.264zm1.056 11.632v-7.984h-2.112v7.984h2.112zm1.683-2.112c0.208 1.664 1.824 2.352 3.584 2.352 2.08 0 3.504-0.912 3.504-2.672 0-1.072-0.688-1.952-2.096-2.256l-1.904-0.416c-0.624-0.144-0.72-0.416-0.72-0.672 0-0.368 0.24-0.784 1.088-0.784 0.88 0 1.44 0.464 1.52 1.104l2.016-0.4c-0.272-1.392-1.584-2.368-3.472-2.368-2.016 0-3.264 1.104-3.264 2.64 0 1.152 0.816 1.968 2.256 2.272l1.632 0.336c0.688 0.144 0.88 0.432 0.88 0.72 0 0.448-0.464 0.8-1.249 0.8-0.831 0-1.535-0.272-1.647-1.088l-2.128 0.432zm10.83 2.112v-11.52h-2.112v11.52h2.112zm3.416-11.632c-0.752 0-1.28 0.592-1.28 1.264 0 0.704 0.528 1.232 1.28 1.232 0.736 0 1.28-0.528 1.28-1.232 0-0.672-0.544-1.264-1.28-1.264zm1.056 11.632v-7.984h-2.112v7.984h2.112zm10.786 0-4.272-4.16 3.856-3.824h-2.656l-2.864 2.784h-0.384v-6.32h-2.112v11.52h2.112v-3.12h0.368l3.136 3.12h2.816zm8.166-4.144c-0.08-2.432-1.92-4.08-4.048-4.08-2.288 0-4.128 1.728-4.128 4.24s1.84 4.224 4.096 4.224c1.744 0 3.168-0.8 3.872-2.464l-1.888-0.4c-0.576 0.976-1.36 1.056-1.984 1.056-0.976 0-1.792-0.704-2-1.856h6.08v-0.72zm-4.048-2.24c0.848 0 1.616 0.448 1.888 1.472h-3.856c0.256-0.992 1.168-1.472 1.968-1.472zm8.324-4.576c-2.256 0-3.824 1.552-3.952 3.312l2 0.4c0.192-1.104 0.88-1.84 1.952-1.84 0.992 0 1.664 0.656 1.664 1.6 0 0.832-0.672 1.392-1.664 1.392h-1.216v2.496h1.936v-0.896c1.824-0.224 2.992-1.376 2.992-2.992 0-2.064-1.488-3.472-3.712-3.472zm-0.272 8.576c-0.736 0-1.264 0.576-1.264 1.232 0 0.688 0.528 1.216 1.264 1.216s1.264-0.528 1.264-1.216c0-0.656-0.528-1.232-1.264-1.232z" fill="#000009"/>
<path d="m36.256 249.28h-1.264v6.032c0 2.224-1.28 3.68-3.2 3.68-1.952 0-3.248-1.456-3.248-3.68v-6.032h-1.264v6.032c0 2.928 1.808 4.896 4.512 4.896 2.688 0 4.464-1.968 4.464-4.896v-6.032zm6.7659 2.64c-1.328 0-2.336 0.544-2.976 1.504v-1.312h-1.216v7.888h1.216v-3.792c0-2.048 1.088-3.168 2.736-3.168 1.312 0 2.192 0.992 2.192 2.464v4.496h1.216v-4.72c0-2-1.264-3.36-3.168-3.36zm13.28 0.192h-1.216v1.264c-0.704-0.928-1.824-1.456-3.136-1.456-2.096 0-3.936 1.648-3.936 4.144s1.84 4.144 3.936 4.144c1.312 0 2.432-0.528 3.136-1.456v1.248h1.216v-7.888zm-4.16 7.008c-1.632 0-2.944-1.184-2.944-3.056 0-1.888 1.312-3.072 2.944-3.072 1.488 0 2.944 1.184 2.944 3.072 0 1.872-1.456 3.056-2.944 3.056zm11.321-7.2c-1.312 0-2.432 0.528-3.136 1.456v-4.896h-1.216v11.52h1.216v-1.248c0.704 0.928 1.824 1.456 3.136 1.456 2.096 0 3.936-1.648 3.936-4.144s-1.84-4.144-3.936-4.144zm-0.192 7.2c-1.488 0-2.944-1.184-2.944-3.056 0-1.888 1.456-3.072 2.944-3.072 1.632 0 2.944 1.184 2.944 3.072 0 1.872-1.312 3.056-2.944 3.056zm7.4467 0.88v-11.52h-1.216v11.52h1.216zm10.047-4.144c-0.08-2.352-1.744-3.936-3.872-3.936-2.176 0-4.08 1.632-4.08 4.16 0 2.512 1.904 4.128 4 4.128 1.776 0 3.152-0.864 3.776-2.512l-1.088-0.256c-0.56 1.264-1.568 1.696-2.688 1.696-1.36 0-2.704-1.056-2.816-2.832h6.768v-0.448zm-3.872-2.864c1.312 0 2.416 0.848 2.64 2.4h-5.488c0.24-1.552 1.568-2.4 2.848-2.4zm14.335 5.584c-0.4 0.288-0.896 0.48-1.344 0.48-0.88 0-1.456-0.576-1.456-1.6v-4.32h2.816v-1.024h-2.816v-2.512h-1.232v2.512h-1.712v1.024h1.712v4.4c0 1.744 1.04 2.672 2.608 2.672 0.64 0 1.184-0.176 1.824-0.624l-0.4-1.008zm5.1985-6.64c-2.352 0-4.192 1.696-4.192 4.112s1.84 4.144 4.192 4.144c2.32 0 4.1761-1.728 4.1761-4.144s-1.8561-4.112-4.1761-4.112zm0 7.184c-1.632 0-3.008-1.248-3.008-3.072 0-1.808 1.376-3.04 3.008-3.04 1.616 0 2.976 1.232 2.976 3.04 0 1.824-1.36 3.072-2.976 3.072zm13.766-7.184c-2.352 0-4.192 1.696-4.192 4.112s1.84 4.144 4.192 4.144c2.32 0 4.176-1.728 4.176-4.144s-1.856-4.112-4.176-4.112zm0 7.184c-1.632 0-3.008-1.248-3.008-3.072 0-1.808 1.376-3.04 3.008-3.04 1.616 0 2.976 1.232 2.976 3.04 0 1.824-1.36 3.072-2.976 3.072zm10.614-7.2c-1.312 0-2.432 0.528-3.136 1.456v-1.264h-1.216v10.608h1.216v-3.968c0.704 0.928 1.824 1.456 3.136 1.456 2.096 0 3.936-1.648 3.936-4.144s-1.84-4.144-3.936-4.144zm-0.192 7.2c-1.488 0-2.944-1.184-2.944-3.056 0-1.888 1.456-3.072 2.944-3.072 1.632 0 2.944 1.184 2.944 3.072 0 1.872-1.312 3.056-2.944 3.056zm13.463-3.264c-0.08-2.352-1.744-3.936-3.872-3.936-2.176 0-4.08 1.632-4.08 4.16 0 2.512 1.904 4.128 4 4.128 1.776 0 3.152-0.864 3.776-2.512l-1.088-0.256c-0.56 1.264-1.568 1.696-2.688 1.696-1.36 0-2.704-1.056-2.816-2.832h6.768v-0.448zm-3.872-2.864c1.312 0 2.416 0.848 2.64 2.4h-5.488c0.24-1.552 1.568-2.4 2.848-2.4zm10.16-1.072c-1.328 0-2.336 0.544-2.976 1.504v-1.312h-1.216v7.888h1.216v-3.792c0-2.048 1.088-3.168 2.736-3.168 1.312 0 2.192 0.992 2.192 2.464v4.496h1.216v-4.72c0-2-1.264-3.36-3.168-3.36zm19.391 0c-1.344 0-2.368 0.624-2.976 1.6-0.464-1.008-1.472-1.6-2.688-1.6-1.232 0-2.128 0.528-2.688 1.392v-1.2h-1.216v7.888h1.216v-4.032c0-1.856 0.944-2.928 2.4-2.928 1.168 0 2.016 0.816 2.016 2.064v4.896h1.216v-4.032c0-1.856 0.96-2.928 2.416-2.928 1.184 0 2.032 0.816 2.032 2.064v4.896h1.216v-5.104c0-1.792-1.28-2.976-2.944-2.976zm12.726 0.192h-1.232v3.792c0 2.048-1.088 3.152-2.736 3.152-1.312 0-2.176-0.976-2.176-2.448v-4.496h-1.232v4.72c0 2 1.264 3.36 3.168 3.36 1.312 0 2.336-0.544 2.976-1.488v1.28h1.232v-7.872zm4.016 7.888v-11.52h-1.216v11.52h1.216zm7.151-1.424c-0.4 0.288-0.896 0.48-1.344 0.48-0.88 0-1.456-0.576-1.456-1.6v-4.32h2.816v-1.024h-2.816v-2.512h-1.232v2.512h-1.712v1.024h1.712v4.4c0 1.744 1.04 2.672 2.608 2.672 0.64 0 1.184-0.176 1.824-0.624l-0.4-1.008zm2.697-9.664c-0.48 0-0.832 0.384-0.832 0.816 0 0.464 0.352 0.816 0.832 0.816s0.848-0.352 0.848-0.816c0-0.432-0.368-0.816-0.848-0.816zm0.624 11.088v-7.888h-1.232v7.888h1.232zm7.289-8.08c-1.312 0-2.432 0.528-3.136 1.456v-1.264h-1.216v10.608h1.216v-3.968c0.704 0.928 1.824 1.456 3.136 1.456 2.096 0 3.936-1.648 3.936-4.144s-1.84-4.144-3.936-4.144zm-0.192 7.2c-1.488 0-2.944-1.184-2.944-3.056 0-1.888 1.456-3.072 2.944-3.072 1.632 0 2.944 1.184 2.944 3.072 0 1.872-1.312 3.056-2.944 3.056zm7.447 0.88v-11.52h-1.216v11.52h1.216zm10.047-4.144c-0.08-2.352-1.744-3.936-3.872-3.936-2.176 0-4.08 1.632-4.08 4.16 0 2.512 1.904 4.128 4 4.128 1.776 0 3.152-0.864 3.776-2.512l-1.088-0.256c-0.56 1.264-1.568 1.696-2.688 1.696-1.36 0-2.704-1.056-2.816-2.832h6.768v-0.448zm-3.872-2.864c1.312 0 2.416 0.848 2.64 2.4h-5.488c0.24-1.552 1.568-2.4 2.848-2.4zm20.607-0.88h-1.232l-2.032 6.112-2.112-6.112h-0.976l-2.112 6.112-2.032-6.112h-1.232l2.656 7.92h1.136l2.08-5.984 2.064 5.984h1.136l2.656-7.92zm5.114-0.176c-2.352 0-4.192 1.696-4.192 4.112s1.84 4.144 4.192 4.144c2.32 0 4.176-1.728 4.176-4.144s-1.856-4.112-4.176-4.112zm0 7.184c-1.632 0-3.008-1.248-3.008-3.072 0-1.808 1.376-3.04 3.008-3.04 1.616 0 2.976 1.232 2.976 3.04 0 1.824-1.36 3.072-2.976 3.072zm10.663-7.088c-1.456 0-2.528 0.848-3.168 2.016v-1.936h-1.232v7.888h1.232v-3.04c0-2.128 1.072-3.712 3.168-3.712 0.144 0 0.32 0 0.464 0.016l0.096-1.168c-0.224-0.064-0.368-0.064-0.56-0.064zm9.889 7.968-4.992-4.064 4.48-3.824h-1.584l-3.792 3.2h-0.592v-6.832h-1.216v11.52h1.216v-3.488h0.528l4.256 3.488h1.696zm0.57-2.128c0.192 1.536 1.632 2.336 3.44 2.336 1.888 0 3.184-0.88 3.184-2.432 0-1.2-0.88-1.808-2.032-2.064l-1.904-0.416c-0.768-0.176-1.2-0.464-1.2-1.088 0-0.752 0.624-1.296 1.744-1.296 1.168 0 1.92 0.592 2.08 1.456l1.168-0.256c-0.288-1.28-1.44-2.192-3.216-2.192-1.808 0-2.992 0.96-2.992 2.384 0 1.088 0.736 1.744 2.048 2.016l1.808 0.4c0.8 0.176 1.296 0.48 1.296 1.136 0 0.816-0.752 1.344-1.888 1.344-1.248 0-2.208-0.56-2.32-1.6l-1.216 0.272zm13.118-5.952c-1.312 0-2.432 0.528-3.136 1.456v-1.264h-1.216v10.608h1.216v-3.968c0.704 0.928 1.824 1.456 3.136 1.456 2.096 0 3.936-1.648 3.936-4.144s-1.84-4.144-3.936-4.144zm-0.192 7.2c-1.488 0-2.944-1.184-2.944-3.056 0-1.888 1.456-3.072 2.944-3.072 1.632 0 2.944 1.184 2.944 3.072 0 1.872-1.312 3.056-2.944 3.056zm13.718-7.008h-1.216v1.264c-0.704-0.928-1.824-1.456-3.136-1.456-2.096 0-3.936 1.648-3.936 4.144s1.84 4.144 3.936 4.144c1.312 0 2.432-0.528 3.136-1.456v1.248h1.216v-7.888zm-4.16 7.008c-1.632 0-2.944-1.184-2.944-3.056 0-1.888 1.312-3.072 2.944-3.072 1.488 0 2.944 1.184 2.944 3.072 0 1.872-1.456 3.056-2.944 3.056zm10.361-0.048c-1.616 0-2.928-1.168-2.928-3.008 0-1.808 1.312-3.024 2.928-3.024 1.168 0 2.224 0.64 2.576 1.856l1.168-0.352c-0.48-1.616-2.016-2.624-3.744-2.624-2.224 0-4.112 1.664-4.112 4.144 0 2.512 1.888 4.144 4.112 4.144 1.744 0 3.296-0.992 3.728-2.608l-1.12-0.304c-0.384 1.184-1.44 1.776-2.608 1.776zm13.059-3.216c-0.08-2.352-1.744-3.936-3.872-3.936-2.176 0-4.08 1.632-4.08 4.16 0 2.512 1.904 4.128 4 4.128 1.776 0 3.152-0.864 3.776-2.512l-1.088-0.256c-0.56 1.264-1.568 1.696-2.688 1.696-1.36 0-2.704-1.056-2.816-2.832h6.768v-0.448zm-3.872-2.864c1.312 0 2.416 0.848 2.64 2.4h-5.488c0.24-1.552 1.568-2.4 2.848-2.4zm5.296 4.88c0.192 1.536 1.632 2.336 3.44 2.336 1.888 0 3.184-0.88 3.184-2.432 0-1.2-0.88-1.808-2.032-2.064l-1.904-0.416c-0.768-0.176-1.2-0.464-1.2-1.088 0-0.752 0.624-1.296 1.744-1.296 1.168 0 1.92 0.592 2.08 1.456l1.168-0.256c-0.288-1.28-1.44-2.192-3.216-2.192-1.808 0-2.992 0.96-2.992 2.384 0 1.088 0.736 1.744 2.048 2.016l1.808 0.4c0.8 0.176 1.296 0.48 1.296 1.136 0 0.816-0.752 1.344-1.888 1.344-1.248 0-2.208-0.56-2.32-1.6l-1.216 0.272zm20.285-5.76h-1.216v1.264c-0.704-0.928-1.824-1.456-3.136-1.456-2.096 0-3.936 1.648-3.936 4.144s1.84 4.144 3.936 4.144c1.312 0 2.432-0.528 3.136-1.456v1.248h1.216v-7.888zm-4.16 7.008c-1.632 0-2.944-1.184-2.944-3.056 0-1.888 1.312-3.072 2.944-3.072 1.488 0 2.944 1.184 2.944 3.072 0 1.872-1.456 3.056-2.944 3.056zm11.305-0.544c-0.4 0.288-0.896 0.48-1.344 0.48-0.88 0-1.456-0.576-1.456-1.6v-4.32h2.816v-1.024h-2.816v-2.512h-1.232v2.512h-1.712v1.024h1.712v4.4c0 1.744 1.04 2.672 2.608 2.672 0.64 0 1.184-0.176 1.824-0.624l-0.4-1.008zm9.464-6.64c-2.352 0-4.192 1.696-4.192 4.112s1.84 4.144 4.192 4.144c2.32 0 4.176-1.728 4.176-4.144s-1.856-4.112-4.176-4.112zm0 7.184c-1.632 0-3.008-1.248-3.008-3.072 0-1.808 1.376-3.04 3.008-3.04 1.616 0 2.976 1.232 2.976 3.04 0 1.824-1.36 3.072-2.976 3.072zm10.454-7.2c-1.328 0-2.336 0.544-2.976 1.504v-1.312h-1.216v7.888h1.216v-3.792c0-2.048 1.088-3.168 2.736-3.168 1.312 0 2.192 0.992 2.192 2.464v4.496h1.216v-4.72c0-2-1.264-3.36-3.168-3.36zm9.185 7.152c-1.616 0-2.928-1.168-2.928-3.008 0-1.808 1.312-3.024 2.928-3.024 1.168 0 2.224 0.64 2.576 1.856l1.168-0.352c-0.48-1.616-2.016-2.624-3.744-2.624-2.224 0-4.112 1.664-4.112 4.144 0 2.512 1.888 4.144 4.112 4.144 1.744 0 3.296-0.992 3.728-2.608l-1.12-0.304c-0.384 1.184-1.44 1.776-2.608 1.776zm13.059-3.216c-0.08-2.352-1.744-3.936-3.872-3.936-2.176 0-4.08 1.632-4.08 4.16 0 2.512 1.904 4.128 4 4.128 1.776 0 3.152-0.864 3.776-2.512l-1.088-0.256c-0.56 1.264-1.568 1.696-2.688 1.696-1.36 0-2.704-1.056-2.816-2.832h6.768v-0.448zm-3.872-2.864c1.312 0 2.416 0.848 2.64 2.4h-5.488c0.24-1.552 1.568-2.4 2.848-2.4zm5.353 9.12 1.536-4.176v-0.032h-1.44l-1.056 4.208h0.96zm-344.26 22.888v-10.72h-1.264v10.72h1.264zm11.022-8.08c-1.328 0-2.336 0.544-2.976 1.504v-1.312h-1.216v7.888h1.216v-3.792c0-2.048 1.088-3.168 2.736-3.168 1.312 0 2.192 0.992 2.192 2.464v4.496h1.216v-4.72c0-2-1.264-3.36-3.168-3.36zm13.024 3.936c-0.08-2.352-1.744-3.936-3.872-3.936-2.176 0-4.08 1.632-4.08 4.16 0 2.512 1.904 4.128 4 4.128 1.776 0 3.152-0.864 3.776-2.512l-1.088-0.256c-0.56 1.264-1.568 1.696-2.688 1.696-1.36 0-2.704-1.056-2.816-2.832h6.768v-0.448zm-3.872-2.864c1.312 0 2.416 0.848 2.64 2.4h-5.488c0.24-1.552 1.568-2.4 2.848-2.4zm13.2 2.864c-0.08-2.352-1.744-3.936-3.872-3.936-2.176 0-4.08 1.632-4.08 4.16 0 2.512 1.904 4.128 4 4.128 1.776 0 3.152-0.864 3.776-2.512l-1.088-0.256c-0.56 1.264-1.568 1.696-2.688 1.696-1.36 0-2.704-1.056-2.816-2.832h6.768v-0.448zm-3.872-2.864c1.312 0 2.416 0.848 2.64 2.4h-5.488c0.24-1.552 1.568-2.4 2.848-2.4zm13.536-4.512h-1.216v4.896c-0.704-0.928-1.824-1.456-3.136-1.456-2.096 0-3.936 1.648-3.936 4.144s1.84 4.144 3.936 4.144c1.312 0 2.432-0.528 3.136-1.456v1.248h1.216v-11.52zm-4.16 10.64c-1.632 0-2.944-1.184-2.944-3.056 0-1.888 1.312-3.072 2.944-3.072 1.488 0 2.944 1.184 2.944 3.072 0 1.872-1.456 3.056-2.944 3.056zm15.35-0.544c-0.4 0.288-0.896 0.48-1.344 0.48-0.88 0-1.456-0.576-1.456-1.6v-4.32h2.816v-1.024h-2.816v-2.512h-1.232v2.512h-1.7121v1.024h1.7121v4.4c0 1.744 1.04 2.672 2.608 2.672 0.64 0 1.184-0.176 1.824-0.624l-0.4-1.008zm5.1985-6.64c-2.352 0-4.192 1.696-4.192 4.112s1.84 4.144 4.192 4.144c2.32 0 4.176-1.728 4.176-4.144s-1.856-4.112-4.176-4.112zm0 7.184c-1.632 0-3.008-1.248-3.008-3.072 0-1.808 1.376-3.04 3.008-3.04 1.616 0 2.976 1.232 2.976 3.04 0 1.824-1.36 3.072-2.976 3.072zm17.525-3.264c-0.08-2.352-1.744-3.936-3.872-3.936-2.1756 0-4.0796 1.632-4.0796 4.16 0 2.512 1.904 4.128 3.9996 4.128 1.776 0 3.152-0.864 3.776-2.512l-1.088-0.256c-0.56 1.264-1.568 1.696-2.688 1.696-1.36 0-2.7036-1.056-2.8156-2.832h6.7676v-0.448zm-3.872-2.864c1.312 0 2.416 0.848 2.64 2.4h-5.4876c0.24-1.552 1.5676-2.4 2.8476-2.4zm9.768 3.12 3.008-4h-1.472l-2.432 3.248-2.432-3.248h-1.472l3.008 4-3.008 3.888h1.472l2.432-3.152 2.432 3.152h1.472l-3.008-3.888zm5.874-7.2c-0.48 0-0.832 0.384-0.832 0.816 0 0.464 0.352 0.816 0.832 0.816s0.848-0.352 0.848-0.816c0-0.432-0.368-0.816-0.848-0.816zm0.624 11.088v-7.888h-1.232v7.888h1.232zm7.273-1.424c-0.4 0.288-0.896 0.48-1.344 0.48-0.88 0-1.456-0.576-1.456-1.6v-4.32h2.816v-1.024h-2.816v-2.512h-1.232v2.512h-1.712v1.024h1.712v4.4c0 1.744 1.04 2.672 2.608 2.672 0.64 0 1.184-0.176 1.824-0.624l-0.4-1.008zm10.36-5.44v-1.024h-2.864v-1.168c0-1.008 0.608-1.632 1.568-1.632 0.288 0 0.608 0.064 0.896 0.176l0.304-0.992c-0.384-0.192-0.816-0.288-1.28-0.288-1.648 0-2.704 1.072-2.704 2.736v1.168h-1.376v1.024h1.376v6.864h1.216v-6.864h2.864zm5.735-1.104c-1.456 0-2.528 0.848-3.168 2.016v-1.936h-1.232v7.888h1.232v-3.04c0-2.128 1.072-3.712 3.168-3.712 0.144 0 0.32 0 0.464 0.016l0.096-1.168c-0.224-0.064-0.368-0.064-0.56-0.064zm5.463-0.096c-2.352 0-4.192 1.696-4.192 4.112s1.84 4.144 4.192 4.144c2.32 0 4.176-1.728 4.176-4.144s-1.856-4.112-4.176-4.112zm0 7.184c-1.632 0-3.008-1.248-3.008-3.072 0-1.808 1.376-3.04 3.008-3.04 1.616 0 2.976 1.232 2.976 3.04 0 1.824-1.36 3.072-2.976 3.072zm15.83-7.2c-1.344 0-2.368 0.624-2.976 1.6-0.464-1.008-1.472-1.6-2.688-1.6-1.232 0-2.128 0.528-2.688 1.392v-1.2h-1.216v7.888h1.216v-4.032c0-1.856 0.944-2.928 2.4-2.928 1.168 0 2.016 0.816 2.016 2.064v4.896h1.216v-4.032c0-1.856 0.96-2.928 2.416-2.928 1.184 0 2.032 0.816 2.032 2.064v4.896h1.216v-5.104c0-1.792-1.28-2.976-2.944-2.976zm16.836 3.936c-0.08-2.352-1.744-3.936-3.872-3.936-2.176 0-4.08 1.632-4.08 4.16 0 2.512 1.904 4.128 4 4.128 1.776 0 3.152-0.864 3.776-2.512l-1.088-0.256c-0.56 1.264-1.568 1.696-2.688 1.696-1.36 0-2.704-1.056-2.816-2.832h6.768v-0.448zm-3.872-2.864c1.312 0 2.416 0.848 2.64 2.4h-5.488c0.24-1.552 1.568-2.4 2.848-2.4zm13.456-0.88h-1.216v1.264c-0.704-0.928-1.824-1.456-3.136-1.456-2.096 0-3.936 1.648-3.936 4.144s1.84 4.144 3.936 4.144c1.312 0 2.432-0.528 3.136-1.456v1.248h1.216v-7.888zm-4.16 7.008c-1.632 0-2.944-1.184-2.944-3.056 0-1.888 1.312-3.072 2.944-3.072 1.488 0 2.944 1.184 2.944 3.072 0 1.872-1.456 3.056-2.944 3.056zm10.361-0.048c-1.616 0-2.928-1.168-2.928-3.008 0-1.808 1.312-3.024 2.928-3.024 1.168 0 2.224 0.64 2.576 1.856l1.168-0.352c-0.48-1.616-2.016-2.624-3.744-2.624-2.224 0-4.112 1.664-4.112 4.144 0 2.512 1.888 4.144 4.112 4.144 1.744 0 3.296-0.992 3.728-2.608l-1.12-0.304c-0.384 1.184-1.44 1.776-2.608 1.776zm10.019-7.152c-1.328 0-2.336 0.544-2.976 1.504v-4.944h-1.216v11.52h1.216v-3.792c0-2.048 1.088-3.168 2.736-3.168 1.312 0 2.192 0.992 2.192 2.464v4.496h1.216v-4.72c0-2-1.264-3.36-3.168-3.36zm17.327 0.192h-1.216v1.264c-0.704-0.928-1.824-1.456-3.136-1.456-2.096 0-3.936 1.648-3.936 4.144s1.84 4.144 3.936 4.144c1.312 0 2.432-0.528 3.136-1.456v1.248h1.216v-7.888zm-4.16 7.008c-1.632 0-2.944-1.184-2.944-3.056 0-1.888 1.312-3.072 2.944-3.072 1.488 0 2.944 1.184 2.944 3.072 0 1.872-1.456 3.056-2.944 3.056zm11.161-7.2c-1.328 0-2.336 0.544-2.976 1.504v-1.312h-1.216v7.888h1.216v-3.792c0-2.048 1.088-3.168 2.736-3.168 1.312 0 2.192 0.992 2.192 2.464v4.496h1.216v-4.72c0-2-1.264-3.36-3.168-3.36zm13.36-3.44h-1.216v4.896c-0.704-0.928-1.824-1.456-3.136-1.456-2.096 0-3.936 1.648-3.936 4.144s1.84 4.144 3.936 4.144c1.312 0 2.432-0.528 3.136-1.456v1.248h1.216v-11.52zm-4.16 10.64c-1.632 0-2.944-1.184-2.944-3.056 0-1.888 1.312-3.072 2.944-3.072 1.488 0 2.944 1.184 2.944 3.072 0 1.872-1.456 3.056-2.944 3.056zm15.414-7.088c-1.456 0-2.528 0.848-3.168 2.016v-1.936h-1.232v7.888h1.232v-3.04c0-2.128 1.072-3.712 3.168-3.712 0.144 0 0.32 0 0.464 0.016l0.096-1.168c-0.224-0.064-0.368-0.064-0.56-0.064zm9.223 3.824c-0.08-2.352-1.744-3.936-3.872-3.936-2.176 0-4.08 1.632-4.08 4.16 0 2.512 1.904 4.128 4 4.128 1.776 0 3.152-0.864 3.776-2.512l-1.088-0.256c-0.56 1.264-1.568 1.696-2.688 1.696-1.36 0-2.704-1.056-2.816-2.832h6.768v-0.448zm-3.872-2.864c1.312 0 2.416 0.848 2.64 2.4h-5.488c0.24-1.552 1.568-2.4 2.848-2.4zm11 3.456v-1.072h-5.168v1.072h5.168zm3.59 3.552v-11.52h-1.216v11.52h1.216zm6.287-8.064c-2.352 0-4.192 1.696-4.192 4.112s1.84 4.144 4.192 4.144c2.32 0 4.176-1.728 4.176-4.144s-1.856-4.112-4.176-4.112zm0 7.184c-1.632 0-3.008-1.248-3.008-3.072 0-1.808 1.376-3.04 3.008-3.04 1.616 0 2.976 1.232 2.976 3.04 0 1.824-1.36 3.072-2.976 3.072zm13.575-7.008h-1.184v1.088c-0.64-0.816-1.648-1.28-2.96-1.28-2.08 0-3.888 1.568-3.888 3.792 0 2.24 1.808 3.824 3.888 3.824 1.312 0 2.32-0.464 2.96-1.296v0.96c0 1.68-1.104 2.736-2.768 2.736-1.472 0-2.272-0.592-2.832-1.648l-1.024 0.704c0.608 1.28 1.904 2.048 3.856 2.048 2.384 0 3.952-1.376 3.968-3.68l-0.016-7.248zm-3.968 6.368c-1.6 0-2.88-1.088-2.88-2.768s1.28-2.736 2.88-2.736c1.472 0 2.784 1.056 2.784 2.736s-1.312 2.768-2.784 2.768zm7.517-9.568c-0.48 0-0.832 0.384-0.832 0.816 0 0.464 0.352 0.816 0.832 0.816s0.848-0.352 0.848-0.816c0-0.432-0.368-0.816-0.848-0.816zm0.624 11.088v-7.888h-1.232v7.888h1.232zm7.129-8.08c-1.328 0-2.336 0.544-2.976 1.504v-1.312h-1.216v7.888h1.216v-3.792c0-2.048 1.088-3.168 2.736-3.168 1.312 0 2.192 0.992 2.192 2.464v4.496h1.216v-4.72c0-2-1.264-3.36-3.168-3.36zm14.159 6.656c-0.4 0.288-0.896 0.48-1.344 0.48-0.88 0-1.456-0.576-1.456-1.6v-4.32h2.816v-1.024h-2.816v-2.512h-1.232v2.512h-1.712v1.024h1.712v4.4c0 1.744 1.04 2.672 2.608 2.672 0.64 0 1.184-0.176 1.824-0.624l-0.4-1.008zm5.199-6.64c-2.352 0-4.192 1.696-4.192 4.112s1.84 4.144 4.192 4.144c2.32 0 4.176-1.728 4.176-4.144s-1.856-4.112-4.176-4.112zm0 7.184c-1.632 0-3.008-1.248-3.008-3.072 0-1.808 1.376-3.04 3.008-3.04 1.616 0 2.976 1.232 2.976 3.04 0 1.824-1.36 3.072-2.976 3.072zm17.781-7.008h-1.216v1.264c-0.704-0.928-1.824-1.456-3.136-1.456-2.096 0-3.936 1.648-3.936 4.144s1.84 4.144 3.936 4.144c1.312 0 2.432-0.528 3.136-1.456v1.248h1.216v-7.888zm-4.16 7.008c-1.632 0-2.944-1.184-2.944-3.056 0-1.888 1.312-3.072 2.944-3.072 1.488 0 2.944 1.184 2.944 3.072 0 1.872-1.456 3.056-2.944 3.056zm15.193-7.2c-1.328 0-2.336 0.544-2.976 1.504v-1.312h-1.216v7.888h1.216v-3.792c0-2.048 1.088-3.168 2.736-3.168 1.312 0 2.192 0.992 2.192 2.464v4.496h1.216v-4.72c0-2-1.264-3.36-3.168-3.36zm13.024 3.936c-0.08-2.352-1.744-3.936-3.872-3.936-2.176 0-4.08 1.632-4.08 4.16 0 2.512 1.904 4.128 4 4.128 1.776 0 3.152-0.864 3.776-2.512l-1.088-0.256c-0.56 1.264-1.568 1.696-2.688 1.696-1.36 0-2.704-1.056-2.816-2.832h6.768v-0.448zm-3.872-2.864c1.312 0 2.416 0.848 2.64 2.4h-5.488c0.24-1.552 1.568-2.4 2.848-2.4zm16.529-0.88h-1.232l-2.032 6.112-2.112-6.112h-0.976l-2.112 6.112-2.032-6.112h-1.232l2.656 7.92h1.136l2.08-5.984 2.064 5.984h1.136l2.656-7.92zm-348.34 24.824c-2.352 0-4.192 1.696-4.192 4.112s1.84 4.144 4.192 4.144c2.32 0 4.176-1.728 4.176-4.144s-1.856-4.112-4.176-4.112zm0 7.184c-1.632 0-3.008-1.248-3.008-3.072 0-1.808 1.376-3.04 3.008-3.04 1.616 0 2.976 1.232 2.976 3.04 0 1.824-1.36 3.072-2.976 3.072zm10.454-7.2c-1.328 0-2.336 0.544-2.976 1.504v-1.312h-1.216v7.888h1.216v-3.792c0-2.048 1.088-3.168 2.736-3.168 1.312 0 2.192 0.992 2.192 2.464v4.496h1.216v-4.72c0-2-1.264-3.36-3.168-3.36zm13.024 3.936c-0.08-2.352-1.744-3.936-3.872-3.936-2.176 0-4.08 1.632-4.08 4.16 0 2.512 1.904 4.128 4 4.128 1.776 0 3.152-0.864 3.776-2.512l-1.088-0.256c-0.56 1.264-1.568 1.696-2.688 1.696-1.36 0-2.704-1.056-2.816-2.832h6.768v-0.448zm-3.872-2.864c1.312 0 2.416 0.848 2.64 2.4h-5.488c0.24-1.552 1.568-2.4 2.848-2.4zm5.3538 9.12 1.536-4.176v-0.032h-1.44l-1.056 4.208h0.96zm18.207-10h-1.232l-2.032 6.112-2.112-6.112h-0.976l-2.112 6.112-2.032-6.112h-1.232l2.656 7.92h1.136l2.08-5.984 2.0639 5.984h1.1361l2.656-7.92zm5.8808-0.192c-1.328 0-2.336 0.544-2.976 1.504v-4.944h-1.216v11.52h1.216v-3.792c0-2.048 1.088-3.168 2.736-3.168 1.312 0 2.192 0.992 2.192 2.464v4.496h1.216v-4.72c0-2-1.264-3.36-3.168-3.36zm6.544-3.008c-0.48 0-0.832 0.384-0.832 0.816 0 0.464 0.352 0.816 0.832 0.816s0.848-0.352 0.848-0.816c0-0.432-0.368-0.816-0.848-0.816zm0.624 11.088v-7.888h-1.232v7.888h1.232zm6.3289-0.928c-1.616 0-2.928-1.168-2.928-3.008 0-1.808 1.312-3.024 2.928-3.024 1.168 0 2.224 0.64 2.576 1.856l1.168-0.352c-0.48-1.616-2.016-2.624-3.744-2.624-2.224 0-4.112 1.664-4.112 4.144 0 2.512 1.888 4.144 4.112 4.144 1.744 0 3.296-0.992 3.728-2.608l-1.12-0.304c-0.384 1.184-1.44 1.776-2.608 1.776zm10.019-7.152c-1.328 0-2.336 0.544-2.976 1.504v-4.944h-1.2162v11.52h1.2162v-3.792c0-2.048 1.088-3.168 2.736-3.168 1.312 0 2.192 0.992 2.192 2.464v4.496h1.216v-4.72c0-2-1.264-3.36-3.168-3.36zm17.407-3.44h-1.216v4.896c-0.704-0.928-1.824-1.456-3.136-1.456-2.096 0-3.936 1.648-3.936 4.144s1.84 4.144 3.936 4.144c1.312 0 2.432-0.528 3.136-1.456v1.248h1.216v-11.52zm-4.16 10.64c-1.632 0-2.944-1.184-2.944-3.056 0-1.888 1.312-3.072 2.944-3.072 1.488 0 2.944 1.184 2.944 3.072 0 1.872-1.456 3.056-2.944 3.056zm10.455-7.184c-2.352 0-4.192 1.696-4.192 4.112s1.84 4.144 4.192 4.144c2.32 0 4.176-1.728 4.176-4.144s-1.856-4.112-4.176-4.112zm0 7.184c-1.632 0-3.008-1.248-3.008-3.072 0-1.808 1.376-3.04 3.008-3.04 1.616 0 2.976 1.232 2.976 3.04 0 1.824-1.36 3.072-2.976 3.072zm13.494-3.264c-0.08-2.352-1.744-3.936-3.872-3.936-2.176 0-4.08 1.632-4.08 4.16 0 2.512 1.904 4.128 4 4.128 1.776 0 3.152-0.864 3.776-2.512l-1.088-0.256c-0.56 1.264-1.568 1.696-2.688 1.696-1.36 0-2.704-1.056-2.816-2.832h6.768v-0.448zm-3.872-2.864c1.312 0 2.416 0.848 2.64 2.4h-5.488c0.24-1.552 1.568-2.4 2.848-2.4zm5.296 4.88c0.192 1.536 1.632 2.336 3.44 2.336 1.888 0 3.184-0.88 3.184-2.432 0-1.2-0.88-1.808-2.032-2.064l-1.904-0.416c-0.768-0.176-1.2-0.464-1.2-1.088 0-0.752 0.624-1.296 1.744-1.296 1.168 0 1.92 0.592 2.08 1.456l1.168-0.256c-0.288-1.28-1.44-2.192-3.216-2.192-1.808 0-2.992 0.96-2.992 2.384 0 1.088 0.736 1.744 2.048 2.016l1.808 0.4c0.8 0.176 1.296 0.48 1.296 1.136 0 0.816-0.752 1.344-1.888 1.344-1.248 0-2.208-0.56-2.32-1.6l-1.216 0.272zm12.849-5.952c-1.328 0-2.336 0.544-2.976 1.504v-1.312h-1.216v7.888h1.216v-3.792c0-2.048 1.088-3.168 2.736-3.168 1.312 0 2.192 0.992 2.192 2.464v4.496h1.216v-4.72c0-2-1.264-3.36-3.168-3.36zm5.971 1.568 1.552-4.176v-0.032h-1.44l-1.056 4.208h0.944zm8.266 5.088c-0.4 0.288-0.896 0.48-1.344 0.48-0.88 0-1.456-0.576-1.456-1.6v-4.32h2.816v-1.024h-2.816v-2.512h-1.232v2.512h-1.712v1.024h1.712v4.4c0 1.744 1.04 2.672 2.608 2.672 0.64 0 1.184-0.176 1.824-0.624l-0.4-1.008zm5.32-0.704c0.192 1.536 1.632 2.336 3.44 2.336 1.888 0 3.184-0.88 3.184-2.432 0-1.2-0.88-1.808-2.032-2.064l-1.904-0.416c-0.768-0.176-1.2-0.464-1.2-1.088 0-0.752 0.624-1.296 1.744-1.296 1.168 0 1.92 0.592 2.08 1.456l1.168-0.256c-0.288-1.28-1.44-2.192-3.216-2.192-1.808 0-2.992 0.96-2.992 2.384 0 1.088 0.736 1.744 2.048 2.016l1.808 0.4c0.8 0.176 1.296 0.48 1.296 1.136 0 0.816-0.752 1.344-1.888 1.344-1.248 0-2.208-0.56-2.32-1.6l-1.216 0.272zm15.998-2.016c-0.08-2.352-1.744-3.936-3.872-3.936-2.176 0-4.08 1.632-4.08 4.16 0 2.512 1.904 4.128 4 4.128 1.776 0 3.152-0.864 3.776-2.512l-1.088-0.256c-0.56 1.264-1.568 1.696-2.688 1.696-1.36 0-2.704-1.056-2.816-2.832h6.768v-0.448zm-3.872-2.864c1.312 0 2.416 0.848 2.64 2.4h-5.488c0.24-1.552 1.568-2.4 2.848-2.4zm13.2 2.864c-0.08-2.352-1.744-3.936-3.872-3.936-2.176 0-4.08 1.632-4.08 4.16 0 2.512 1.904 4.128 4 4.128 1.776 0 3.152-0.864 3.776-2.512l-1.088-0.256c-0.56 1.264-1.568 1.696-2.688 1.696-1.36 0-2.704-1.056-2.816-2.832h6.768v-0.448zm-3.872-2.864c1.312 0 2.416 0.848 2.64 2.4h-5.488c0.24-1.552 1.568-2.4 2.848-2.4zm15.536-1.072c-1.344 0-2.368 0.624-2.976 1.6-0.464-1.008-1.472-1.6-2.688-1.6-1.232 0-2.128 0.528-2.688 1.392v-1.2h-1.216v7.888h1.216v-4.032c0-1.856 0.944-2.928 2.4-2.928 1.168 0 2.016 0.816 2.016 2.064v4.896h1.216v-4.032c0-1.856 0.96-2.928 2.416-2.928 1.184 0 2.032 0.816 2.032 2.064v4.896h1.216v-5.104c0-1.792-1.28-2.976-2.944-2.976zm16.788 0.192h-1.328l-2.816 6.448-2.832-6.448h-1.328l3.488 7.888h1.328l3.488-7.888zm8.673 3.744c-0.08-2.352-1.744-3.936-3.872-3.936-2.176 0-4.08 1.632-4.08 4.16 0 2.512 1.904 4.128 4 4.128 1.776 0 3.152-0.864 3.776-2.512l-1.088-0.256c-0.56 1.264-1.568 1.696-2.688 1.696-1.36 0-2.704-1.056-2.816-2.832h6.768v-0.448zm-3.872-2.864c1.312 0 2.416 0.848 2.64 2.4h-5.488c0.24-1.552 1.568-2.4 2.848-2.4zm10.368-0.96c-1.456 0-2.528 0.848-3.168 2.016v-1.936h-1.232v7.888h1.232v-3.04c0-2.128 1.072-3.712 3.168-3.712 0.144 0 0.32 0 0.464 0.016l0.096-1.168c-0.224-0.064-0.368-0.064-0.56-0.064zm9.506 0.08h-1.36l-2.88 6.304-2.816-6.304h-1.376l3.536 7.776-1.296 2.832h1.36l4.832-10.608zm12.967 3.744c-0.08-2.352-1.744-3.936-3.872-3.936-2.176 0-4.08 1.632-4.08 4.16 0 2.512 1.904 4.128 4 4.128 1.776 0 3.152-0.864 3.776-2.512l-1.088-0.256c-0.56 1.264-1.568 1.696-2.688 1.696-1.36 0-2.704-1.056-2.816-2.832h6.768v-0.448zm-3.872-2.864c1.312 0 2.416 0.848 2.64 2.4h-5.488c0.24-1.552 1.568-2.4 2.848-2.4zm10.258 0.144v-1.024h-2.864v-1.168c0-1.008 0.608-1.632 1.568-1.632 0.288 0 0.608 0.064 0.896 0.176l0.304-0.992c-0.384-0.192-0.816-0.288-1.28-0.288-1.648 0-2.704 1.072-2.704 2.736v1.168h-1.376v1.024h1.376v6.864h1.216v-6.864h2.864zm7.967-1.024h-5.472v-1.168c0-1.008 0.608-1.632 1.584-1.632 0.384 0 0.736 0.096 1.072 0.272l0.32-0.992c-0.448-0.256-0.912-0.384-1.472-0.384-1.664 0-2.72 1.072-2.72 2.736v1.168h-1.376v1.024h1.376v6.864h1.216v-6.864h4.24v6.864h1.232v-7.888zm-0.624-1.568c0.48 0 0.848-0.352 0.848-0.816 0-0.432-0.368-0.816-0.848-0.816s-0.832 0.384-0.832 0.816c0 0.464 0.352 0.816 0.832 0.816zm6.962 8.528c-1.616 0-2.928-1.168-2.928-3.008 0-1.808 1.312-3.024 2.928-3.024 1.168 0 2.224 0.64 2.576 1.856l1.168-0.352c-0.48-1.616-2.016-2.624-3.744-2.624-2.224 0-4.112 1.664-4.112 4.144 0 2.512 1.888 4.144 4.112 4.144 1.744 0 3.296-0.992 3.728-2.608l-1.12-0.304c-0.384 1.184-1.44 1.776-2.608 1.776zm6.563-10.16c-0.48 0-0.832 0.384-0.832 0.816 0 0.464 0.352 0.816 0.832 0.816s0.848-0.352 0.848-0.816c0-0.432-0.368-0.816-0.848-0.816zm0.624 11.088v-7.888h-1.232v7.888h1.232zm10.169-4.144c-0.08-2.352-1.744-3.936-3.872-3.936-2.176 0-4.08 1.632-4.08 4.16 0 2.512 1.904 4.128 4 4.128 1.776 0 3.152-0.864 3.776-2.512l-1.088-0.256c-0.56 1.264-1.568 1.696-2.688 1.696-1.36 0-2.704-1.056-2.816-2.832h6.768v-0.448zm-3.872-2.864c1.312 0 2.416 0.848 2.64 2.4h-5.488c0.24-1.552 1.568-2.4 2.848-2.4zm10.16-1.072c-1.328 0-2.336 0.544-2.976 1.504v-1.312h-1.216v7.888h1.216v-3.792c0-2.048 1.088-3.168 2.736-3.168 1.312 0 2.192 0.992 2.192 2.464v4.496h1.216v-4.72c0-2-1.264-3.36-3.168-3.36zm10.128 6.656c-0.4 0.288-0.896 0.48-1.344 0.48-0.88 0-1.456-0.576-1.456-1.6v-4.32h2.816v-1.024h-2.816v-2.512h-1.232v2.512h-1.712v1.024h1.712v4.4c0 1.744 1.04 2.672 2.608 2.672 0.64 0 1.184-0.176 1.824-0.624l-0.4-1.008zm2.185-0.144c-0.48 0-0.832 0.384-0.832 0.816 0 0.448 0.352 0.8 0.832 0.8s0.832-0.352 0.832-0.8c0-0.432-0.352-0.816-0.832-0.816z" fill="#2B2B59"/>
<path d="m449.5 211.17h-7.75v-28.417c0-18.499-7.349-36.24-20.43-49.321-13.08-13.08-30.821-20.429-49.32-20.429s-36.24 7.349-49.321 20.429c-13.081 13.081-20.429 30.822-20.429 49.321v28.417h-7.75c-5.481 0-10.738 2.177-14.614 6.053s-6.053 9.132-6.053 14.613v108.5c0 5.481 2.177 10.738 6.053 14.614s9.133 6.053 14.614 6.053h155c5.481 0 10.737-2.177 14.613-6.053s6.053-9.133 6.053-14.614v-108.5c0-5.481-2.177-10.737-6.053-14.613s-9.132-6.053-14.613-6.053zm-98.167 62c-0.016-3.632 0.924-7.204 2.728-10.356 1.803-3.152 4.405-5.774 7.544-7.6 3.139-1.827 6.704-2.794 10.336-2.804 3.632-0.011 7.202 0.936 10.351 2.745s5.767 4.415 7.588 7.557c1.821 3.143 2.782 6.709 2.786 10.341 4e-3 3.631-0.949 7.2-2.763 10.346s-4.425 5.759-7.57 7.575v23.529c0 2.741-1.089 5.369-3.027 7.307-1.937 1.938-4.566 3.026-7.306 3.026-2.741 0-5.369-1.088-7.307-3.026s-3.027-4.566-3.027-7.307v-23.529c-3.132-1.801-5.735-4.394-7.549-7.519s-2.774-6.672-2.784-10.285zm-23.25-90.417c0-11.647 4.627-22.818 12.863-31.054s19.406-12.863 31.054-12.863c11.647 0 22.817 4.627 31.053 12.863s12.863 19.407 12.863 31.054v23.25c0 1.37-0.544 2.684-1.513 3.653s-2.283 1.514-3.653 1.514h-77.5c-1.371 0-2.685-0.545-3.654-1.514s-1.513-2.283-1.513-3.653v-23.25z" fill="#25E85F"/>
<defs>
<clipPath id="e">
<rect transform="translate(86 54.5)" width="20" height="20" fill="#fff"/>
</clipPath>
<clipPath id="d">
<rect transform="translate(106 54.5)" width="20" height="20" fill="#fff"/>
</clipPath>
<clipPath id="c">
<rect transform="translate(126 54.5)" width="20" height="20" fill="#fff"/>
</clipPath>
<clipPath id="b">
<rect transform="translate(146 54.5)" width="20" height="20" fill="#fff"/>
</clipPath>
<clipPath id="a">
<rect transform="translate(166 54.5)" width="20" height="20" fill="#fff"/>
</clipPath>
</defs>
</svg>
